<svg version="1.1" width="512" height="512" viewBox="0 0 512 512" xmlns="http://www.w3.org/2000/svg">
 <path d="m253.44 405.97c-20.877-7.4468-42.225-46.576-44.74-82.008-0.32455-4.5723-0.87011-7.9746-1.2124-7.5608s-2.261 5.0018-4.2639 10.195c-2.9021 7.5253-4.5681 10.386-8.2039 14.089-2.5093 2.5552-4.5663 5.3173-4.5712 6.1379-0.017 2.8549-5.4695 10.986-9.8742 14.726-4.4315 3.762-6.3989 5.7559-17.029 17.258-4.7553 5.1452-14.16 12.474-16.008 12.474-0.28463 0-0.51751-0.60876-0.51751-1.3528 0-0.74404-0.84986-1.6225-1.8886-1.9522-2.7678-0.87846-2.3794-1.7379 2.5968-5.7459 2.4669-1.987 7.991-6.7646 12.276-10.617 7.2459-6.5147 7.7904-7.2634 7.7904-10.712 0-5.2129 1.83-8.1973 9.2462-15.079 5.8122-5.3931 6.6352-6.6136 8.0806-11.983 2.2374-8.3117 5.6929-15.606 16.067-33.917 14.062-24.821 14.489-29.537 1.8797-20.739-10.312 7.1952-23.071 14.347-28.116 15.759-4.1108 1.151-4.2597 1.3236-4.7973 5.562-1.3313 10.495-1.2414 10.32-10.351 20.112-4.8559 5.2197-10.887 10.981-13.403 12.803-5.3939 3.9058-16.563 9.4274-20.737 10.252-2.5909 0.51158-3.0162 0.29026-3.5531-1.8486-0.3354-1.3364-1.6996-3.0008-3.0317-3.6987l-2.4218-1.2689 4.0863-1.2099c5.6529-1.6737 19.029-8.6722 26.842-14.044l6.5175-4.4811-0.31433-4.8245c-0.39153-6.0095 1.956-10.965 8.445-17.826 2.5394-2.6851 4.6172-5.7644 4.6172-6.8429 0-5.471 12.061-12.791 29.544-17.931 8.4772-2.4922 9.3755-2.9839 10.859-5.9436 1.8149-3.6201 7.3183-7.105 12.64-8.0041 1.9277-0.32569 3.9942-1.1816 4.5921-1.9021 1.3495-1.6261 0.28437-8.8666-1.3994-9.5127-2.1839-0.83804-32.389 13.482-57.478 27.25l-12.101 6.6406-8.3432-0.0788c-18.32-0.17285-44.899-9.2983-56.292-19.327-5.3639-4.7215-7.3528-8.4668-6.607-12.442l0.56872-3.0316-5.8059 1.9036c-5.222 1.7121-6.5507 1.795-13.211 0.82424-27.291-3.9777-55.916-33.573-49.952-51.645 1.6649-5.0446 5.876-9.3822 11.571-11.918 4.4657-1.9888 6.6474-2.2471 21.719-2.5716 19.344-0.41645 32.627 0.9652 58.316 6.0655 15.836 3.1442 53.297 12.351 58.836 14.461 4.9188 1.8732 20.891 5.5791 30.511 7.0792 15.925 2.4833 19.493 1.7573 10.761-2.1894-2.5891-1.1701-5.5882-3.3645-6.6648-4.8764-1.1877-1.6679-5.669-4.6555-11.395-7.5969-16.39-8.4192-23.502-14.775-23.502-21.004 0-1.2714-1.9879-6.2826-4.4175-11.136-5.9627-11.911-10.975-16.721-24.861-23.858-5.9695-3.0681-10.979-5.6722-11.132-5.7868-0.15315-0.1146 0.98674-1.4736 2.5331-3.0199l2.8115-2.8115 9.2973 4.8679c19.251 10.08 25.911 16.841 30.571 31.037 1.9196 5.8476 2.1054 6.0588 7.5083 8.5388 6.8508 3.1446 18.402 10.817 22.049 14.646 2.1444 2.2512 3.2783 2.7512 5.3147 2.344 2.7474-0.54949 10.41 2.3357 13.407 5.0484 1.5755 1.4258 1.686 1.3766 1.6723-0.74428-0.0294-4.5221-2.6689-13.408-4.8434-16.305-3.2394-4.316-3.204-13.571 0.0653-17.051 1.278-1.3603 3.3637-2.4528 4.7214-2.4732 1.6903-0.0253 3.0142-0.96143 4.3401-3.0689 1.0494-1.6679 3.3388-3.7083 5.0876-4.5342l3.1797-1.5017-25.593-15.434c-27.699-16.704-30.128-18.387-30.564-21.189-0.82094-5.2721 7.0683-1.6198 35.602 16.482 10.902 6.9162 21.892 13.537 24.422 14.714l4.5996 2.1386 3.7176-2.693c5.6611-4.1008 8.4877-4.3696 14.585-1.3867 5.2075 2.5478 5.2105 2.5481 7.2677 0.67868 1.1319-1.0286 6.1067-4.1876 11.055-7.0199 4.9483-2.8323 14.682-9.6734 21.63-15.202 13.71-10.91 23.181-16.523 26.033-15.429 1.5328 0.58817 1.2407 1.1851-2.4356 4.979-5.1069 5.2701-29.035 24.64-39.475 31.956-4.2029 2.9451-7.8838 5.7463-8.1796 6.225-0.91806 1.4855 4.3428 5.5293 7.9459 6.1077 8.8635 1.4229 10.028 1.9044 11.414 4.72 2.394 4.8639 1.693 12.893-1.7 19.472-3.4568 6.7025-3.51 7.1383-1.2336 10.098l1.707 2.2193 5.7994-2.9275c3.1897-1.6101 6.3904-2.9275 7.1128-2.9275 0.72237 0 4.7722-3.1849 8.9996-7.0776 9.8911-9.108 14.967-12.752 17.762-12.752 2.6795 0 3.3363-1.5106 5.0087-11.519 0.66811-3.9984 1.902-8.3059 2.7419-9.5721 9.1729-13.828 13.585-17.939 26.167-24.386 5.7564-2.9494 6.2345-3.0466 7.3867-1.501 0.67755 0.90887 1.6312 1.6525 2.1193 1.6525 0.48808 0 1.3774 0.49003 1.9764 1.089 1.9514 1.9514-0.39997 4.2395-10.601 10.316-14.642 8.7221-16.105 10.298-16.91 18.215-0.72658 7.1445-2.8563 12.086-7.4998 17.4-1.6812 1.9242-4.2506 5.2763-5.7098 7.4491-4.3672 6.5031-13.275 14.31-19.826 17.375-4.4937 2.1028-6.236 3.4572-6.6695 5.1844-0.32274 1.2859-2.0816 3.9925-3.9085 6.0147-3.1717 3.5106-3.2321 3.7052-1.3376 4.3065 3.1874 1.0116 10.355-1.1703 33.484-10.193 60.935-23.771 91.94-31.545 122.31-30.668 12.887 0.37231 15.574 0.73998 22.48 3.0768 8.2336 2.7861 13.403 6.5318 13.403 9.7112 0 7.8636-15.53 30.641-29.383 43.097-6.547 5.8864-24.169 11.819-35.253 11.867-2.9011 0.0127-3.4781 0.2682-2.5968 1.1495 5.3728 5.3728-7.8082 18.392-29.829 29.462-10.126 5.0907-22.721 9.0652-28.726 9.0652-9.8495 0-26.92-5.7515-55.988-18.864-21.242-9.5821-19.107-9.0589-20.766-5.0907-0.77697 1.8596-1.1958 3.7319-0.9307 4.1608 0.26509 0.42893 2.9076 1.3227 5.8721 1.9861 4.502 1.0075 6.172 2.0072 10.135 6.067 5.4567 5.59 10.179 7.4786 28.288 11.314 13.503 2.8599 16.589 4.2857 16.589 7.6634 0 1.5582 1.3667 3.9496 3.7101 6.4919 5.1648 5.6032 7.4581 10.555 8.757 18.91 1.0742 6.9093 1.2661 7.2836 5.0821 9.9091 5.6048 3.8562 26.704 14.109 29.035 14.109 1.7465 0 1.6371 0.31744-1.0733 3.1139-1.66 1.7126-3.0181 3.6248-3.0181 4.2493 0 1.5912-1.0221 1.4453-7.832-1.1179-12.247-4.6096-19.895-10.019-24.344-17.219-1.0845-1.7548-2.5734-3.1905-3.3085-3.1905-2.1065 0-8.8421-6.5787-10.934-10.679-1.0455-2.0493-2.1323-5.9689-2.4153-8.7103l-0.51442-4.9843-3.9547-0.59304c-5.1938-0.77885-13.25-4.6627-23.34-11.253-4.5007-2.9393-9.5607-5.6198-11.244-5.9565l-3.0613-0.61226 0.59178 4.9966c0.8962 7.567 5.2587 15.59 13.874 25.516 12.375 14.258 17.938 24.116 17.938 31.786 0 1.5557 1.0026 2.6837 3.5411 3.984 8.4886 4.3482 15.085 11.559 14.082 15.394-0.29079 1.112-0.1215 2.7827 0.37621 3.7126 1.117 2.0871 17.359 12.943 24.73 16.53 2.9863 1.453 5.4181 2.872 5.4041 3.1533-0.0141 0.28132-1.5261 2.1258-3.36 4.0987-2.425 2.6089-3.8326 3.4292-5.1608 3.0076-2.4445-0.77586-10.211-6.9201-18.694-14.788-3.8159-3.5396-8.7025-7.2163-10.859-8.1703-6.1656-2.7274-13.747-12.803-13.816-18.362-0.0118-0.94985-1.1457-2.1008-2.6175-2.6569-4.9973-1.8878-13.155-11.813-17.211-20.941l-1.7772-3.9993-0.0667 5.7781c-0.15326 13.277-4.9284 30.934-12.369 45.736-9.0212 17.947-23.716 35.673-33.255 40.114-5.6152 2.6142-8.1372 2.7977-13.274 0.96535z" fill="param(fill)" fill-opacity="param(fill-opacity)" stroke="param(outline)" stroke-opacity="param(outline-opacity)" stroke-width="param(outline-width) 0.2"/>
</svg>
