<svg version="1.1" width="512" height="512" viewBox="0 0 512 512" xmlns="http://www.w3.org/2000/svg">
 <path d="m131.65 503.12c-8.5172-18.145 14.941-37.838 28.805-48.384 23.364-16.053 53.132-17.006 80.389-20.467 31.267-3.9801 63.648 0.0328 94.227-8.3528 16.445-1.0761 31.12-23.467 7.798-27.648-16.605-1.4568-39.544-16.104-52.258-1.3285-15.331 9.6487-28.172 21.829-47.364 24.186-25.1 5.1165-51.183 1.5701-76.687 2.4043-21.997 0.64882-46.255-0.28086-62.928-16.746-20.67-17.275 2.3216-45.514 23.89-46.143 46.363-6.2082 93.489-1.189 139.94-5.8956 16.051-12.734 18.39-38.203 19.482-57.887 0.13368-35.553-20.289-66.071-40.075-93.899-9.8793-19.204-29.418-34.488-28.342-58.029-0.66774-31.608 19.826-60.396 45.279-77.574 17.29-10.458 27.78-28.079 42.961-40.972 15.392-17.625 40.462-18.582 62.126-17.903 16.769 14.318-10.46 35.613-22.527 45.818-18.393 17.279-9.0947 42.917-11.98 64.707-5.1812 25.858-25.528 47.856-23.939 75.44-1.9922 20.562 0.82705 42.121 6.8085 61.518 5.7072 18.311 11.214 37.055 7.3654 56.311-1.7904 15.764-3.5437 31.767-5.1645 46.619 23.02 7.8239 51.519 6.0894 68.371 26.598 18.176 17.609-4.8259 39.683-20.256 49.087-31.403 18.664-69.491 14.735-104.56 16.977-26.469 1.6321-53.794-0.72847-79.537 6.4136-18.434 8.4189-38.042 21.693-45.173 41.358-0.7163 3.5608-2.0033 7.9926-6.6575 3.7905z" fill="param(fill)" fill-opacity="param(fill-opacity)" stroke="param(outline)" stroke-opacity="param(outline-opacity)" stroke-width="param(outline-width) 0.2"/>
</svg>
