<svg version="1.1" width="512" height="512" viewBox="0 0 512 512" xmlns="http://www.w3.org/2000/svg">
 <path d="m157.67 494.15c1.8046-21.917 33.664-23.257 50.957-26.323 34.884-6.173 70.327-5.882 105.55-8.0162 23.072-4.5459 52.039-8.5241 64.062-31.685 7.2068-23.283-20.587-31.345-38.365-30.284-31.762-2.8669-63.23 4.3658-94.974 1.6498-25.169-0.93794-52.572-1.5118-72.63-19.088-14.679-14.738-38.694-11.709-53.948-26.075-23.158-17.087-31.567-52.801-13.188-76.35 15.025-27.319 47.356-35.176 69.355-54.775 13.815-13.808 6.1987-35.513-1.5563-50.551-9.5765-23.408-31.76-45.478-22.974-72.767 2.6778-14.265 22.604-29.802 22.201-39.246-9.8974 1.7684-18.473 0.65015-22.193-9.8579 1.4905-19.701 27.976-30.289 46.458-31.336 22.774-3.5452 38.37 13.209 53.653 26.776 16.406 17.625 34.445 37.186 38.312 61.843 0.55387 31.948-15.609 61.923-35.971 85.642-14.835 17.803-30.49 34.895-45.178 52.816-5.0313 5.7554-34.411 21.791-10.778 15.873 42.539-9.5867 86.6-6.0424 129.71-3.3899 27.97 2.4521 60.859 12.629 72.049 41.163 7.6071 18.988-11.174 34.466-25.844 42.802-21.409 10.234-44.564 16.495-67.569 21.298 14.652 5.7469 35.332 3.1557 52.289 4.4616 24.049-0.37544 53.182 9.919 59.145 35.927 5.7688 23.35-15.389 40.058-30.499 53.948-20.757 16.579-48.872 14.046-73.676 17.922-45.433 2.8344-92.284-2.5145-136.41 10.949-6.3106 0.7544-12.067 6.8855-17.983 6.6736zm94.989-159.24c27.645-3.9939 57.546-2.4295 82.47-16.622 19.108-21.051-24.834-24.829-39.258-26.066-32.73-3.2973-66.51-0.77701-97.635 10.292-23.046 13.514-12.158 40.541 13.63 33.265 13.62 1.2843 27.224 0.74998 40.793-0.86857z" fill="param(fill)" fill-opacity="param(fill-opacity)" stroke="param(outline)" stroke-opacity="param(outline-opacity)" stroke-width="param(outline-width) 0.2"/>
</svg>
