<svg width="512" height="512" version="1.1" viewBox="0 0 512 512" xmlns="http://www.w3.org/2000/svg">
 <g>
  <path d="m241.77 185c13.309-6.1358 27.552-9.5506 40.992-15.359m-111.37 79.851c10.332-21.159 34.518-27.605 48.436-45.302 3.4409-3.9626 6.7807-8.0127 10.033-12.131m-50.514 85.637c51.86-6.2644 104.91-13.208 156.65-2.1708 6.7547 2.0327 45.681 3.3045 29.342 5.2858-4.8677 0.64902-9.7354 1.298-14.603 1.9471m-172.84 17.356c31.418-2.3114 62.523 5.6076 93.485 10.229 21.551 3.8477 43.242 6.7743 64.888 10.02m-173.56-13.74c28.187 15.938 56.373 31.879 84.61 47.729m-86.78-30.373c20.172 13.291 41.05 25.44 61.469 38.328m-35.435-104.14c52.866-37.273 118.99-54.612 183.33-47.952 3.4939 0.28319 6.9862 0.58966 10.473 0.94659m-214.06 27.48c-5.2955 5.8513-28.077 30.945-11.907 14.404 21.239-20.023 24.604-50.607 33.849-76.864 2.0322-12.623 7.5998-22.511 14.939-32.642m-161.99 154.4c-10.447-6.8985-45.083-27.08-17.857-32.818 15.443-11.657 30.523-22.487 44.549-36.122 13.122-3.8005 42.638-5.9045 25.082-24.677-6.6099-7.4427-13.116-37.203 1.234-16.858-6.4513 11.214 20.475 40.063 9.6151 16.017-3.7796-15.026-14.778-33.671-9.6029-47.649 18.26 7.996 1.3723 32.655 16.742 45.787 1.9936 14.831 22.979 2.7469 11.335-7.9706-7.0104-29.913-16.851-59.937-17.143-90.842 20.651 1.8332 4.1224 33.916 13.753 48.725 5.5472 16.575 9.0832 37.044 16.188 51.081 21.095-1.5578-0.7202-27.549 2.1926-41.181-3.5468-24.748-5.3794-49.728-6.0143-74.715 25.603 8.051 13.966 32.59 13.107 51.52 3.2907 19.017 4.747 44.399 12.737 59.055 1.9969-5.5613 0.32814-14.609 0.91695-21.509 0.1058-32.562 0.21159-65.124 0.31738-97.686 24.64 2.2243 25.147 25.116 17.356 43.205-3.3562 24.776-4.3813 49.799-5.0945 74.769 12.975-1.1277 3.0993-25.814 8.0649-36.259 3.5151-30.783 7.7605-62.342 14.936-92.035 22.764 5.1133 17.635 27.855 3.2931 38.926-6.9093 27.182-9.5182 55.539-14.313 83.246 9.8076-40.602 18.848-82.043 37.227-119.81 25.475 9.732-6.0723 36.733-8.546 53.652-5.3411 11.939-11.56 25.941 0.60149 9.9153 11.683-13.176 11.214-33.531 22.837-47.374 11.812-18.743 17.674 19.134 2.7034 24.208-6.1904 7.3087-15.27 15.644-3.1438 3.6583 9.3617-18.609 40.796-17.802 24.086 6.4184-20.116 11.777-41.659 24.874-49.607 48.383-2.9176 10.697-19.682 31.793 1.2841 27.549 16.548-26.682 30.878-56.957 55.285-77.843 22.712-10.568 8.8284 18.564-5.2423 18.592-14.763 13.72-26.855 31.875-31.788 51.524 6.2928 6.9424 19.304-10.407 20.636-18.237 9.3364-13.22 15.69-38.873 35.381-36.895 1.7149 15.365-25.716 38.784-26.981 44.218 13.397-7.1702 22.095-29.311 33.102-31.988 12.068 12.049-19.069 29.296 3.3291 20.683 30.074-5.6388 60.147-11.278 90.221-16.916-9.1332 6.8801-16.942 16.256-26.886 21.607-36.849 9.6272-73.127 21.593-110.51 29.014 35.771-8.0316 71.728-18.926 108.63-18.703 10.673 3.2906 46.49 2.2751 33.004 20.018-6.281 6.1365-10.55 11.655 1.3018 12.224 4.2518 1.9767 22.334 4.4343 9.6127 5.821-10.112 2.2246-20.223 4.4492-30.335 6.6738-5.758 16.792-34.135 12.743-39.256 18.425 16.103 17.769 40.946 14.881 62.398 13.394 16.905-17.205 34.61-37.409 59.125-42.762 31.476 0.62867 46.741 36.591 44.973 64.064-1.2502 23.754-9.9675 54.269-35.915 61.036-33.277 1.9931-51.142-37.437-83.968-37.555-8.2895-0.60959-42.295 0.41554-19.364 5.4891 24.262 7.9124 13.249 38.326 0.0711 51.383-15.319 11.772-35.465 19.698-53.489 9.3393-14.43-5.9329-27.853-14.207-43.539-16.562-0.93032 0.42881 12.169 5.8782 16.647 8.2424 7.149 3.3795 14.298 6.7591 21.447 10.139-16.874-5.5443-33.748-11.089-50.621-16.633-12.828 3.135-3.2011 5.8336 4.1882 8.5756 13.067 5.3373 26.134 10.675 39.202 16.012-24.322 2.8852-46.936-7.3561-68.701-16.633 9.3563 17.006 12.936 53.022-17.3 42.972-25.681-6.2532-47.396-24.519-62.671-45.507-1.853-24.92-28.734-23.685-47.741-29.655-20.003 2.7698-39.799 0.73153-56.461-12.279-6.7419-10.206-39.776 2.9178-25.968-13.847 9.2346-4.0057 19.469-4.836 29.349-6.0449z" fill="param(fill)" fill-opacity="param(fill-opacity)" stroke="param(outline)" stroke-opacity="param(outline-opacity)" stroke-width="param(outline-width) 0.2"/>
 </g>
</svg>
