<svg version="1.1" width="512" height="512" viewBox="0 0 512 512" xmlns="http://www.w3.org/2000/svg">
 <path d="m166.31 502.2c12.929-31.873 26.464-63.496 39.727-95.231-2.6106-26.736-5.2213-53.472-7.832-80.208 10.132-19.983 22.345-39.14 30.155-60.128-11.913 6.7324-23.537 15.969-33.565 25.226-10.31 24.419-20.657 48.822-30.993 73.229-39.128 25.776-77.852 52.627-117.85 76.723 14.429-14.029 34.938-25.543 51.729-38.421 20.21-14.255 40.434-28.49 60.651-42.735 10.915-24.277 19.53-49.732 32.493-72.974 7.2576-9.2216 29.441-21.536 28.693-28.079-42.657 12.117-87.656 32.755-132.54 20.107-18.825-9.4588-43.475-19.258-49.17-41.66 6.4987-25.304 38.497-27.181 60.065-29.735 43.849-2.8051 87.498 3.5298 131.14 5.7175 11.596-16.532-15.909-32.419-23.193-47.227-5.7659-7.7256-13.505-14.553-13.426-24.94-4.3945-22.31-8.789-44.621-13.184-66.931-19.415-20.628-40.708-39.899-58.595-61.623 4.4528-8.1968 11.056 7.8748 16.401 10.311 15.541 15.557 31.083 31.114 46.624 46.671 6.1567 27.354 10.834 55.413 17.912 82.329 11.623 14.168 22.818 28.707 34.965 42.431 5.6013-9.0406-10.345-29.199 3.6797-39.778-5.1308-8.9445-14.604-38.611-2.293-14.975 3.4122 13.759 12.853 17.499 10.154 0.21629-0.53414-11.756 2.3722-24.24-4.3682-34.74-7.703-13.649 0.30068-14.426 4.683-0.5028 2.1065 1.3377 4.6418 2.7347 5.7021 0.56539 3.2512-6.6515 12.677-18.482 6.5427-3.2064-4.8893 8.6848-6.8555 17.958-5.7404 27.865-0.94115 9.5055-0.0146 34.966 8.0442 14.169 2.9777-11.029 14.665-22.028 5.9063-3.3721-8.9 11.739-3.6383 20.092 0.50984 32.317-1.6726 7.9435-11.927 30.094 2.8453 15.173 9.7554-12.985 21.462-25.076 30.339-38.489 5.5004-26.407 11.001-52.814 16.501-79.221 20.262-20.454 40.524-40.907 60.785-61.361 1.6318 16.197-25.928 29.315-35.266 43.995-6.6958 8.1401-16.782 14.495-21.286 23.789-5.3572 25.13-9.2245 50.939-15.495 75.653-12.452 16.917-27.072 32.506-37.496 50.712 3.3894 21.935 38.675 3.3966 55.372 6.3318 31.756-2.3534 63.95-3.4154 95.657-0.3116 18.792 1.7378 55.524 15.837 39.081 39.876-19.352 20.637-47.082 36.798-76.308 33.493-35.81 0.32517-68.917-15.308-102.97-24.047 9.0013 12.274 24.515 19.311 33.503 31.351 10.067 23.388 20.135 46.775 30.202 70.163 37.52 26.936 76.395 52.202 112.52 80.9-25.497-13.864-50.478-32.256-75.541-48.243-16.641-13.929-42.591-20.361-48.846-43.159-10.005-20.671-15.99-43.965-29.457-62.537-8.2244-6.6285-38.564-33.848-23.609-8.3332 7.5323 20.988 28.162 39.581 23.289 63.266-1.4682 21.781-5.1831 43.885-5.7173 65.514 13.101 31.746 27.07 63.158 39.13 95.316-11.865-13.906-17.842-35.818-26.746-53.335-6.1319-14.913-14.043-29.535-19.088-44.626 1.9485-25.764 5.8437-51.607 5.9844-77.328-7.1351-13.881-15.889-37.365-25.016-44.609-5.717 28.621-4.3182 58.66-13.513 86.55-24.391 9.3485-17.006-33.444-22.015-47.822-2.4526-11.377-1.2832-36.113-6.7561-39.524-8.1065 19.996-27.524 38.25-22.766 61.31 1.1998 21.243 4.835 42.83 5.1571 63.896-14.759 31.864-27.304 64.945-44.167 95.691l-1.3251-0.12223-0.0216-1.3236z" fill="param(fill)" fill-opacity="param(fill-opacity)" stroke="param(outline)" stroke-opacity="param(outline-opacity)" stroke-width="param(outline-width) 0.2"/>
</svg>
