<svg version="1.1" width="512" height="512" viewBox="0 0 512 512" xmlns="http://www.w3.org/2000/svg">
 <path d="m13.881 406.4c17.094-4.8359 36.01-12.411 51.946-22.664 27.588-14.787 53.586-32.573 77.574-52.639-2.1026-3.1225-21.768 15.966-31.666 19.361-25.697 13.875-51.661 30.652-81.276 33.914-6.6452 2.8126-32.173-4.6308-11.999-4.8276 36.606 1.0878 68.992-19.819 100.03-36.67 19.243-7.4247 26.25-26.476 27.121-45.6 0.58272-9.4365 6.4924-21.94-5.3232-26.123-9.8719-6.4822-29.228-22.095-27.301-27.189 6.8002 11.735 26.734 26.712 34.759 27.086-9.7069-6.601-28.609-29.666-25.771-33.987 4.6498 12.899 31.318 44.984 28.117 13.573 3.5467-11.802-5.6556-47.559 14.745-33.993 3.9003-21.537 24.447 25.602 32.053-0.10021 12.019-17.164 35.026-10.176 49.428-12.343 1.6222-11.985-3.2465-44.261 16.35-26.903 10.535 5.8412 24.637 20.564 27.333-0.11825 12.246-22.176 20.988 15.053 27.86 24.725 4.9059 7.8976 6.2059 19.146 16.07 22.436 8.6937 5.4223 17.806 13.154 27.598 6.0152 23.098-6.7444 43.536-19.969 59.48-37.953 5.5831-5.0284 11.153-10.065 12.143-17.947 9.314-26.554 16.246-53.899 24.546-80.716 9.6534-0.18367 7.5427 14.42 4.4036 20.996-7.196 25.481-17.019 50.483-27.996 74.404-10.087 8.9664-18.535 20.224-29.675 27.719-18.009 9.0205-35.996 18.096-54.285 26.54-7.5905-5.1592-22.924-16.934-12.699-1.3191 23.934 7.9469 48.655 14.49 70.989 26.321 0.43724 10.059-24.92-4.6254-34.855-5.0475-9.9535-1.3133-40.131-17.165-22.995 3.7629 9.6314 18.285 23.304 33.765 40.28 45.56 21.226 17.647 43.288 34.918 69.836 43.768 9.4472 9.7475 39.957 5.3171 39.452 16.142-20.933 1.3785-39.57-11.001-58.897-17.593-14.086-6.7558-25.773-17.886-38.893-26.403-14.685-10.986-30.531-20.988-44.491-32.589-7.131-14.455-14.262-28.91-21.393-43.366-19.43-5.248-38.634-11.788-58.253-15.986 12.591 12.089 29.506 22.663 42.121 36.146 25.045 22.859 45.031 50.583 69.504 73.915-6.7064 20.671-30.987 7.0509-44.393 1.2852-11.268-5.0106-23.677-8.1968-32.031-17.871-17.747-13.998-28.983-33.959-43.517-50.883-9.524 11.221-18.162 20.916-20.553 37.646-4.8654 10.774 1.7353 22.245 2.3269 33.356-0.88523 6.2343 11.099 30.616 0.0734 14.477-3.9897-10.041-5.9684-47.433-12.51-20.18-4.7953 19.057-12.517 37.544-27.488 50.905-3.3573 12.495-39.126 13.187-16.165 3.3355 16.312-9.6791 32.203-23.981 35.307-43.763 4.0223-19.662 12.634-39.169 12.561-59.195-6.0409-11.625-17.682 9.6756-24.246-8.5196-4.5666-6.7854-19.461-20.236-13.989-2.2091-5.942 13.778-6.6692 25.786 10.312 31.488 25.385 10.592 6.8587 33.074-4.7592 46.565-6.2124 5.0231-17.07 29.36-22.277 22.692 0.77942-22.971 2.771-46.481 2.8713-69.135-3.2281 9.6734-3.9778 16.975-9.9891 15.984-14.907 1.5273 20.4-25.617 2.745-24.829-0.01-14.044-30.869-34.174-27.49-7.2317-2.682 18.992-5.4516 38.236-25.627 45.819-24.057 18.127-47.916 36.889-75.809 48.87-9.3266 5.6498-19.413 9.0299-30.278 10.03-3.6601 0.55051-7.3245 1.2713-11.05 1.0557zm191.78-45.196c10.07-13.719 30.916-31.978 5.9495-42.757-23.201-23.534-15.305 22.219-19.144 35.831-0.0131 9.159-7.2112 39.517 5.2602 17.591 2.6556-3.5468 5.2989-7.1028 7.9339-10.665zm-53.689-61.111c4.8294-9.2926 1.2078-29.815-1.4675-8.6519-1.0777 8.3262-5.0502 37.669 0.17355 14.26l0.61893-2.661zm23.586-11.005c-6.1849-7.1392-23.139-12.482-5.8586-2.2291 1.5199 0.39724 4.6721 4.0334 5.8586 2.2291zm3.6653-15.316c20.726-7.8265-1.5402-32.325-10.586-40.212 0.98993 15.667-16.999 40.019 1.841 48.825 8.6702 8.4505 4.9839-3.0207 8.7454-8.6125zm-23.896 3.0388c-7.4756-4.9039 3.8679 5.6155 0 0zm5.0956-26.053c0.55958-7.1752 4.006-15.239 2.8548-21.888-13.063-12.232-5.8634 27.188-9.6821 37.495 0.84203 19.245 6.7585-13.832 6.8273-15.607zm168.22-14.249c-5.7282-14.432-30.273-34.448-40.452-31.193-6.0867 12.364-8.9579 24.105 8.6492 24.33 8.2381 0.27897 29.783 13.548 31.803 6.8623zm-151.99-9.7537c-17.427-17.067 8.4187 15.8 4.7307 5.2208l-2.0954-2.4539zm97.287-15.33c7.5121-10.294 10.198-19.65-3.1523-23.997-10.293-11.072-17.955-6.615-15.377 7.5208-4.7182 11.482 8.3832 5.7254 5.9679 14.835-3.9806 14.822 9.6478 14.593 12.561 1.641zm35.4-15.392c-3.8912-10.65-11.711-26.094-15.163-5.6191-5.727 11.781 19.56 19.456 22.466 21.606-2.2636-5.4051-4.785-10.697-7.3034-15.987z" fill="param(fill)" fill-opacity="param(fill-opacity)" stroke="param(outline)" stroke-opacity="param(outline-opacity)" stroke-width="param(outline-width) 0.2"/>
</svg>
