<svg width="512" height="512" version="1.1" viewBox="0 0 512 512" xmlns="http://www.w3.org/2000/svg">
 <path d="m265.49 180.45c-9.2794-3.7653 2.9065-13.528-25.18-27.158s-172.81-5.0017-198.01 27.158c-25.199 32.16-34.027 193.78-13.734 215 20.292 21.219 104.34 41.189 191.14 41.869 86.801 0.68047 113.35-86.108 115.6-117.69 2.2476-31.579-16.261-34.075-13.734-44.132 2.5266-10.057 9.3272-2.0832 11.445-11.316 2.1182-9.2327-13.734-38.474-13.734-38.474s58.848-61.83 77.829-76.669c18.98-14.839 22.424-18.099 35.747-25.86 27.346-15.929 62.021-78.535 62.021-78.535s-32.461 45.18-57.696 62.149c-15.981 10.746-34.303 21.799-43.505 27.255-22.327 13.238-41.203 31.685-41.203 31.685l24.035-37.343-36.625 41.869-35.481 23.764s-9.0098-12.186-16.024-14.711c-7.0138-2.5251-13.611 4.8969-22.891 1.1316z" fill="param(fill)" fill-opacity="param(fill-opacity)" stroke="param(outline)" stroke-opacity="param(outline-opacity)" stroke-width="param(outline-width) 0.2"/>
</svg>
