<svg version="1.1" width="512" height="512" viewBox="0 0 512 512" xmlns="http://www.w3.org/2000/svg">
 <path d="m328.21 445.57c-1.8507-0.39518-4.4942-1.177-5.8745-1.7374-1.3802-0.56038-8.9514-1.9383-16.825-3.062-8.4709-1.209-15.939-2.8233-18.294-3.9542-3.7309-1.7922-11.269-9.1358-14.968-14.581-0.95145-1.4008-2.9709-2.6694-4.807-3.0195-5.0995-0.97258-13.051-6.0876-16.275-10.469-5.0401-6.8505-9.2461-16.587-9.9654-23.068-0.59446-5.3569-1.1045-6.4429-4.8437-10.314-2.2986-2.3795-5.0194-6.3004-6.046-8.7131s-2.6447-5.1646-3.5955-6.1154c-1.6636-1.6636-1.7763-1.6636-2.9921-9.6e-4 -1.2068 1.6504-1.4312 1.6334-5.011-0.37858-6.2359-3.5048-11.25-3.6441-17.41-0.48371-7.2316 3.71-7.3822 5.7478-0.6819 9.2288 8.2693 4.2962 24.404 19.74 29.15 27.9 5.4913 9.4435 5.8886 11.03 3.0344 12.115-1.252 0.47602-3.425 0.64591-4.8289 0.37755-2.0448-0.3909-2.8602-1.4143-4.0996-5.1461-0.8841-2.6618-2.2786-4.8903-3.2538-5.1998-0.93861-0.29791-2.3166-1.6879-3.0623-3.0889-1.9298-3.626-10.945-10.671-19.807-15.478-6.84-3.7102-23.549-17.432-25.609-21.031-0.91471-1.5977 0.8258-4.1757 2.8192-4.1757 1.4353 0 2.6653-3.6638 2.1421-6.3804-0.43572-2.2626-3.1221-3.5344-14.879-7.0447-7.0259-2.0977-11.186-3.9884-14.876-6.7611-7.232-5.434-10.087-5.264-16.951 1.0098-5.8078 5.308-12.635 9.1727-18.264 10.338-3.6038 0.74616-3.61 0.75591-4.1684 6.5455-0.30755 3.189-0.83288 6.2411-1.1674 6.7824-0.98345 1.5913-6.5131 27.275-6.2266 28.921 0.20047 1.1515-1.542 1.9068-7.4294 3.2201-9.4757 2.1138-14.314 2.2502-15.812 0.44564-0.63006-0.75918-2.4318-1.6628-4.0038-2.0081l-2.8582-0.62777 1.9208-3.0393c2.0426-3.232 5.2989-4.3172 13.28-4.426 3.1249-0.0426 4.3851-0.55522 5.4544-2.2186 1.687-2.6244 3.4608-11.91 3.4608-18.117 0-4.9184 4.1339-21.737 6.4497-26.24 1.6805-3.2677 4.6457-6.1631 11.633-11.359 2.807-2.0873 4.9702-4.1617 4.807-4.6099-0.43392-1.1925-19.879-15.265-24.034-17.394-3.4937-1.7899-3.6165-1.7884-8.0134 0.0963-2.4559 1.0527-7.5651 2.1892-11.354 2.5255-3.7887 0.33626-7.5844 0.96732-8.4351 1.4024-0.85065 0.43503-2.1135 2.8154-2.8062 5.2897-0.69277 2.4743-2.8552 6.9263-4.8053 9.8933-1.9502 2.967-5.9856 9.7829-8.9676 15.146-2.982 5.3635-6.9549 11.098-8.8286 12.743-3.3787 2.9666-3.4813 2.9882-12.46 2.6291-8.6805-0.34716-9.1536-0.48075-11.476-3.2403-1.8618-2.2127-3.0385-2.7892-5.0888-2.4934-2.4348 0.35131-2.5089 0.27734-0.85162-0.84998 0.9984-0.67914 2.9003-2.2082 4.2264-3.398 2.7731-2.488 3.0878-2.5092 12.561-0.84736 6.0478 1.0609 7.2666 1.039 8.4577-0.15215 1.609-1.609 6.7168-11.547 10.236-19.915 2.8066-6.674 13.378-24.877 16.406-28.248 1.1328-1.2614 3.6943-3.4946 5.6921-4.9626l3.6325-2.6691-2.9473-2.0987c-2.0276-1.4438-2.7782-2.6314-2.4055-3.8058 0.38486-1.2126-1.3455-3.6232-5.9729-8.3213-3.9397-3.9999-8.1916-9.6543-10.757-14.305-2.3333-4.2302-6.0792-10.092-8.3243-13.026-6.3081-8.2442-10.912-17.359-12.425-24.602-0.75817-3.6281-2.2504-9.1264-3.316-12.218-3.2589-9.4559-4.882-19.392-5.117-31.325-0.18772-9.5302 0.03974-11.689 1.3889-13.183 1.2895-1.4278 1.5048-2.9834 1.0725-7.7486-1.0956-12.076 10.399-49.337 15.562-50.446 0.80664-0.17325 3.7549-3.3216 6.5516-6.9962 5.2176-6.8554 14.964-14.347 31.321-24.075 4.0373-2.4011 7.8707-5.5019 8.9055-7.2034 1.6434-2.7023 2.2287-2.9662 6.1322-2.7641 3.3079 0.17123 5.0446-0.32362 7.4385-2.1195 4.1828-3.1379 13.922-3.3269 18.973-0.36821 4.6918 2.7482 8.7762 8.9248 9.3668 14.165 0.4903 4.3499-1.6373 10.357-6.0647 17.124-2.2087 3.3756-1.2384 8.0698 2.6411 12.776 2.8966 3.5141 3.2561 3.6664 7.6557 3.2436 5.2034-0.49998 5.3616 0.49978 0.34144 2.1566-2.4818 0.81908-4.1921 0.82871-6.5906 0.0371-3.4957-1.1537-12.592-10.131-20.255-19.991-2.5687-3.3049-4.8917-6.0088-5.1623-6.0088s-4.9072 4.442-10.304 9.8712c-11.324 11.392-17.501 15.251-25.121 15.691-2.8408 0.16396-5.6278 0.58405-6.1932 0.93351-0.67721 0.41854-0.85163 3.9626-0.51104 10.384 0.67503 12.728-0.76946 19.362-6.0996 28.016-7.9202 12.858-8.0473 13.362-4.263 16.897 1.3722 1.2819 3.0721 3.4398 3.7776 4.7954 2.1684 4.1662 2.7169 13.677 1.3591 23.566-1.2906 9.3998-0.94979 11.553 2.0468 12.931 0.75783 0.34854 2.2431 1.0596 3.3007 1.5802 2.5067 1.2339 7.7659 11.026 9.2069 17.143 1.3196 5.6012 2.5831 7.2517 8.2901 10.83 3.0119 1.8884 5.1616 4.3918 7.6246 8.879 4.9416 9.003 5.6499 9.6141 11.144 9.6141 2.5967 0 5.6109 0.47611 6.6982 1.058 1.0873 0.58192 7.9762 1.5949 15.309 2.251 11.88 1.063 13.971 1.528 19.201 4.2696 3.2282 1.6922 9.1818 3.7588 13.23 4.5924 4.0484 0.83363 9.4851 2.5887 12.082 3.9001 2.5965 1.3114 7.5718 2.7759 11.056 3.2544 3.4844 0.47853 8.7148 1.7018 11.623 2.7183 5.5857 1.9524 24.035 3.6044 24.035 2.1521 0-0.46174-4.0022-4.6887-8.8937-9.3932-8.8493-8.511-13.281-11.38-31.473-20.377-6.2641-3.0979-7.4914-4.1416-9.4634-8.048-2.7047-5.3577-2.2068-7.8591 2.0852-10.476 3.7751-2.3019 8.028-2.3666 11.337-0.17255 10.378 6.8812 18.078 12.665 24.1 18.101 3.8609 3.4856 8.6584 7.1028 10.661 8.0382 2.9917 1.3974 4.229 2.9269 6.9348 8.5731 2.3616 4.9279 4.0515 7.2022 5.9727 8.0384 1.4736 0.64138 4.9041 3.0316 7.6232 5.3117 4.1411 3.4723 6.0907 4.364 12.006 5.4911 3.884 0.74006 7.2473 1.16 7.474 0.93328 0.22675-0.22676-1.2483-2.8234-3.278-5.7704-4.3746-6.3517-11.486-12.825-18.589-16.92-2.8242-1.6282-5.9592-4.3122-6.9666-5.9644-2.2565-3.7006-2.3734-8.5745-0.24783-10.337 2.1201-1.7582 15.179-1.6224 19.227 0.19992 2.9884 1.3452 14.483 15.069 20.038 23.924 2.49 3.9694 2.7508 4.1362 3.4621 2.2135 1.3995-3.7831 6.1659-5.3762 14.28-4.7729 13.029 0.96871 16.861 2.6819 25.13 11.236 5.6699 5.865 8.535 9.9218 12.853 18.2 3.0563 5.8587 5.9795 10.652 6.4958 10.652 0.51635 0 2.2131-0.75275 3.7706-1.6728 2.8979-1.7118 3.1762-2.3714 4.1624-9.8642 1.0173-7.7297 2.2802-10.333 5.5683-11.479 1.6687-0.58172 3.9997-1.9649 5.18-3.0737 3.9262-3.6885 27.451-12.352 33.613-12.378 1.5293-7e-3 6.6713-1.0882 11.427-2.4035 14.348-3.9689 25.281-3.1274 45.205 3.4794 10.493 3.4794 24.785 12.16 28.623 17.386 1.1717 1.5952 4.9425 4.7348 8.3795 6.9769 3.437 2.2421 9.1695 7.0124 12.739 10.601 6.2304 6.2636 6.4895 6.7111 6.4895 11.207 0 5.453-1.7463 6.2584-4.5218 2.0853-4.4608-6.7068-13.745-14.192-13.745-11.082 0 0.40825 3.7081 4.4101 8.2403 8.8931 13.373 13.228 24.773 28.219 27.292 35.89 1.0283 3.1318 0.9959 3.9244-0.20948 5.1298-1.26 1.26-2.3914 0.30394-9.7341-8.2245-14.882-17.285-27.736-25.179-48.696-29.904-17.211-3.8797-23.332-6.0096-31.285-10.886-5.8144-3.5656-6.6962-4.4828-6.9629-7.2432-0.40409-4.1823-2.5577-4.8511-5.7608-1.789-1.4226 1.3599-4.5334 2.9198-6.9128 3.4663-5.9124 1.3581-21.833 1.2932-27.929-0.1137l-5.0015-1.1545-2.7631 3.0925c-1.5197 1.7009-2.7631 3.4929-2.7631 3.9824s2.4876 2.2221 5.5281 3.8504c9.1944 4.924 18.129 12.1 22.416 18.004 7.4528 10.263 8.2629 10.875 14.394 10.875 7.0134 0 10.96 1.4148 12.329 4.4194 2.2902 5.0265 1.9682 5.1974-9.722 5.1606-12.384-0.039-14.018-0.64048-17.975-6.6175-3.4721-5.2447-9.4891-11.62-10.949-11.6-0.61638 8e-3 -2.6349-1.7156-4.4856-3.8307l-3.3649-3.8456-14.05 2.1414-4.6984 6.9627c-5.0903 7.5435-5.2973 7.6946-11.896 8.6842-3.3452 0.50164-5.0393 0.28201-6.819-0.88407-1.3024-0.85335-2.5688-1.5515-2.8143-1.5515s-1.1322 2.3593-1.9705 5.2429c-0.86939 2.9906-2.4133 5.8657-3.5938 6.6926l-2.0697 1.4496 2.6268 0.99871c1.4447 0.54928 3.4176 0.9987 4.3842 0.9987 0.96656 0 2.0136 0.66761 2.3267 1.4836 0.45872 1.1954 0.96522 1.2717 2.6076 0.39271 6.3592-3.4034 24.646 7.1488 32.569 18.794 1.4392 2.1151 3.6574 6.8045 4.9294 10.421 1.272 3.6164 3.0039 6.9493 3.8487 7.4064 3.5198 1.9045 17.78 4.9208 29.3 6.1974 13.334 1.4777 17.016 3.018 17.488 7.3162 0.22991 2.095-0.48383 2.5529-7.7196 4.9523-4.3851 1.4541-9.554 2.6439-11.487 2.6439s-6.1837 1.158-9.4471 2.5733l-5.9334 2.5733-4.4651-1.7262c-7.3692-2.8488-8.3977-2.8572-12.016-0.0973-2.7711 2.1136-3.9589 2.4475-6.8066 1.9133-3.6087-0.67699-6.3129 0.61168-6.3129 3.0084 0 1.3976 6.394 4.5324 11.189 5.4856 2.2882 0.45486 3.4272 0.14629 4.7157-1.2775 2.1902-2.4201 5.191-2.3764 10.03 0.14597 2.925 1.5246 4.887 1.8856 7.9612 1.465 2.2438-0.307 7.1081-0.79653 10.81-1.0878 3.7014-0.29132 9.8664-1.2535 13.7-2.1382 5.4784-1.2643 7.2206-1.3579 8.141-0.43752 2.1152 2.1151-1.7166 7.4391-7.3019 10.146-10.151 4.9191-21.333 8.4581-29.441 9.3182-9.642 1.0228-45.151 0.99543-49.993-0.0385zm-30.789-151.2c-0.0131-0.66097-1.4792-3.1847-3.258-5.6082-3.23-4.4008-3.2416-4.4065-9.1096-4.4065-3.2315 0-5.8754 0.37777-5.8754 0.83948 0 0.46172 0.86061 2.5264 1.9124 4.5882 1.588 3.1127 2.6074 3.9043 6.0088 4.6658 6.0587 1.3564 10.35 1.3236 10.322-0.0787z" fill="param(fill)" fill-opacity="param(fill-opacity)" stroke="param(outline)" stroke-opacity="param(outline-opacity)" stroke-width="param(outline-width) 0.2"/>
</svg>
