<svg version="1.1" width="512" height="512" viewBox="0 0 512 512" xmlns="http://www.w3.org/2000/svg">
 <path d="m354.62 439.71c-5.3172-1.1209-16.326-4.5277-17.622-5.4535-0.53457-0.38175-1.7201-1.8697-2.6344-3.3066-1.4247-2.2389-2.2961-2.6126-6.0927-2.6126-3.6353 0-6.1456-0.97048-13.991-5.4088-15.411-8.7185-26.571-21.546-31.613-36.337-2.5346-7.4347-2.7062-11.221-0.64223-14.168 1.4365-2.0509 1.4089-2.2708-0.44873-3.5719-4.4501-3.117-6.201-17.929-3.4822-29.458 2.8368-12.029 6.6576-15.02 22.846-17.884 4.6912-0.82985 10.239-1.9185 12.329-2.4192 2.09-0.50072 5.2295-0.9206 6.9766-0.93307 2.3665-0.0169 3.3032-0.50717 3.6734-1.9227 0.27328-1.045 0.87452-1.9 1.3361-1.9 0.46157 0 0.83922-0.41653 0.83922-0.92562 0-1.2597-4.4857-3.4369-8.6208-4.1843-2.9899-0.54038-3.5536-0.31887-4.716 1.8532-1.9469 3.6378-5.9834 6.1282-12.334 7.6098-4.3264 1.0093-6.2517 1.0653-8.2718 0.24071-1.4481-0.59112-5.2436-0.98656-8.4344-0.87877-6.6535 0.22478-31.159-4.1922-34.303-6.183-1.1573-0.73268-2.9377-1.3321-3.9565-1.3321-1.6207 0-1.9345 0.92088-2.5088 7.3626-0.80386 9.0165-3.1456 14.686-8.1983 19.848l-3.8516 3.9348 6.8324 3.5903c3.8125 2.0034 7.17 4.4633 7.5963 5.5654 0.42017 1.0863 4.5516 4.2245 9.181 6.9739l8.417 4.9989 0.23105 9.6513c0.1649 6.8878 0.66165 10.308 1.7348 11.946 2.0726 3.1631 1.1966 3.5735-1.5003 0.70285-2.0864-2.2209-2.3355-2.2711-3.9622-0.79903-0.95468 0.86397-1.7358 1.1023-1.7358 0.52966s0.44826-1.3182 0.99615-1.6568c0.6648-0.41087 0.68162-0.99464 0.0505-1.755-0.52008-0.62665-1.0752-3.8737-1.2337-7.2156l-0.28804-6.0762-5.2251-3.0894c-2.8738-1.6992-7.1489-3.8199-9.5002-4.7128-2.3513-0.89286-7.4814-3.9802-11.4-6.8609-14.63-10.754-15.931-12.826-13.686-21.78 3.2241-12.856 8.3076-23.208 14.919-30.38 2.0872-2.2643 3.6255-4.2459 3.4185-4.4035-0.20701-0.15758-2.514-1.5017-5.1265-2.9869-8.7232-4.959-18.95-12.13-23.925-16.777-2.7086-2.5298-5.4874-4.3796-6.1751-4.1107-0.68772 0.26892-2.7166 3.0315-4.5085 6.139-1.792 3.1075-4.9983 7.3473-7.1251 9.4217-4.3945 4.286-13.899 9.5895-17.186 9.5895-3.2015 0-5.2063 0.96173-5.2063 2.4976 0 0.73933 1.2116 4.0164 2.6925 7.2824 1.5778 3.4797 2.939 8.4859 3.2878 12.092 0.32742 3.3845 1.5458 9.5738 2.7076 13.754 2.3218 8.3542 2.6114 12.663 0.92105 13.708-1.3255 0.81922-3.091 15.086-2.396 19.362l0.49257 3.0307-1.6031-2.8501c-0.88168-1.5675-1.7621-3.0299-1.9565-3.2496-0.19437-0.21977-1.4785 0.63524-2.8536 1.9l-2.5002 2.2996 1.1694-2.244c0.64314-1.2342 0.97344-3.2689 0.73398-4.5215-0.38891-2.0344 2.1608-13.264 3.5057-15.44 0.29042-0.46991-0.0552-1.3384-0.76798-1.93-0.71281-0.59157-1.5724-2.8038-1.9101-4.9161-0.33777-2.1123-2.09-7.5728-3.8939-12.134-4.277-10.816-9.0279-29.222-9.0347-35.002-6e-3 -4.489 0.1276-4.6915 8.1199-12.377 4.4689-4.2974 12.701-10.864 18.293-14.593 5.5924-3.729 10.321-6.9215 10.509-7.0944 0.18746-0.17288-2.8301-4.5237-6.7056-9.6685s-8.0468-11.475-9.2695-14.068c-2.3955-5.0791-6.3746-9.9387-8.1381-9.9387-0.60029 0-2.6471 1.7329-4.5484 3.8508-5.2074 5.8007-16.198 10.59-25.593 11.153-4.0495 0.24247-7.3626 0.80368-7.3626 1.2471 0 0.44344 1.0125 3.4963 2.25 6.7841 1.6779 4.4577 2.2508 7.9058 2.2528 13.559 2e-3 4.1699 0.31735 11.959 0.70183 17.31 0.6089 8.4734 0.50212 9.804-0.82777 10.314-0.83976 0.32225-1.5334 1.2883-1.5414 2.1468-0.012 1.2889-0.16301 1.3264-0.86648 0.21496-0.68209-1.0776-1.7876-0.56256-5.545 2.5833-2.5812 2.1611-5.2731 4.6282-5.9821 5.4825-1.8395 2.2165-5.6302 3.498-6.9954 2.365-0.74785-0.62066-1.9766-0.48785-3.6845 0.39824-3.5235 1.828-3.2583-0.15151 0.28999-2.1646 1.5689-0.8901 3.0629-2.2596 3.3201-3.0434 0.25716-0.78377 3.622-3.5165 7.4775-6.0728l7.0099-4.6478-0.46231-6.2775c-0.25426-3.4526-1.066-9.0563-1.8038-12.453s-1.9843-9.9205-2.77-14.498-1.8436-9.4149-2.351-10.75c-1.1707-3.0792-1.1954-11.912-0.0418-14.946 0.48443-1.2741 2.4409-3.2808 4.3477-4.4593 4.0372-2.4951 24.187-11.869 27.216-12.661 1.9831-0.5186 1.9288-0.69045-1.3736-4.3458-1.8911-2.0932-4.253-5.4282-5.2486-7.4112-2.316-4.6126-5.5646-14.804-6.3575-19.944-0.52825-3.4249-1.047-4.1312-3.6695-4.9967-1.6799-0.55441-5.8142-3.2916-9.1874-6.0826-3.3732-2.791-7.8432-5.6119-9.9332-6.2686-5.3496-1.6809-17.509-8.3161-20.9-11.406-1.5675-1.4278-7.7664-4.8817-13.775-7.6754-11.577-5.3823-13.032-6.2606-31.478-18.993-6.4615-4.4603-14.394-9.7124-17.628-11.671-9.9654-6.0368-19.67-18.125-19.91-24.8-0.07647-2.1283-0.41754-5.3658-0.75794-7.1946-0.79472-4.2697 1.9521-8.9015 6.5906-11.113 3.8293-1.826 2.4696-2.323 19.482 7.1212 11.928 6.6216 13.694 9.0043 12.817 17.292l-0.55278 5.2251 6.896 4.2232c3.7928 2.3228 8.4597 5.636 10.371 7.3626 1.9497 1.7614 4.5016 3.1394 5.8138 3.1394 2.853 0 15.208 6.3549 23.43 12.051 3.3269 2.305 7.3883 4.4472 9.0252 4.7605 3.8024 0.72774 19.271 8.4097 22.666 11.256 1.4244 1.1943 3.9894 2.4418 5.7001 2.7722 9.3715 1.8102 12.515 2.8524 15.058 4.9918 2.7045 2.2757 2.9036 2.3048 5.2513 0.76648 3.2411-2.1236 19.494-6.1981 24.724-6.1981 3.7272 0 4.1533-0.22925 4.1533-2.2346 0-2.9126 3.6816-8.3261 6.6715-9.8098 9.5577-4.7432 24.029-10.267 30.736-11.733 4.4035-0.9623 10.468-2.7393 13.476-3.949l5.4698-2.1994 2.0906-7.6994c1.691-6.2277 2.8212-8.4521 5.9127-11.638 4.1218-4.2472 5.6471-5.0331 4.0778-2.1008-2.1418 4.002-1.0332 4.4852 5.3409 2.3281 0.96294-0.32587-0.0656 1.0617-2.2858 3.0835-4.9819 4.5369-10.479 15.89-8.7196 18.01 0.61245 0.73796 0.73507 1.3418 0.27248 1.3418-0.46258 0-1.2631 0.91511-1.7788 2.0336-0.68852 1.493-3.8419 3.0366-11.863 5.8069-6.0089 2.0754-12.003 4.7801-13.32 6.0105-1.5076 1.4085-4.7825 2.7377-8.8412 3.5885-3.5456 0.74323-6.712 1.6167-7.0363 1.941-0.32433 0.32433 0.486 1.7609 1.8008 3.1923 1.3148 1.4314 3.3072 3.9412 4.4276 5.5773 1.4143 2.0651 5.0469 4.4447 11.881 7.7826 5.414 2.6444 11.086 5.108 12.603 5.4748 1.5179 0.36674 5.1904 1.88 8.1612 3.3629 4.7442 2.368 5.9343 2.5965 9.7816 1.8778 2.4091-0.45008 4.5404-0.97846 4.7361-1.1742 0.19572-0.19572 1.2287-6.7667 2.2956-14.602 2.9376-21.576 4.1992-24.415 11.383-25.621 4.5858-0.76969 23.181 4.8478 32.599 9.8482 3.8253 2.0309 9.1945 4.4136 11.932 5.2948 2.737 0.88121 5.2063 1.9741 5.4873 2.4287s2.1741 0.2397 4.207-0.47756c5.9692-2.1061 12.405-2.8269 12.405-1.3894 0 0.67133 0.70751 2.0024 1.5723 2.9579 1.4848 1.6407 1.4351 1.7373-0.89396 1.7373-5.5614 0-4.3009 1.3241 14.997 15.754 13.896 10.391 18.968 13.697 21.014 13.697 1.205 0 4.3753-0.86104 7.0452-1.9134 2.6699-1.0524 5.2777-1.6518 5.7952-1.332 0.51744 0.3198 1.772-0.17079 2.7879-1.0902 1.7976-1.6268 1.8315-1.5935 1.2642 1.2429-0.46773 2.3387-0.23447 2.9969 1.1806 3.3316 2.1541 0.50947 1.7817 0.6622-8.6868 3.5628-4.1801 1.1582-8.6004 2.7354-9.823 3.505-2.0789 1.3086-2.571 1.1592-7.6002-2.3078-7.1636-4.9384-13.381-8.3989-16.382-9.1177-1.3498-0.32337-4.392-2.2937-6.7605-4.3785-4.3656-3.8427-5.5106-4.0116-5.5106-0.81292 0 3.2662-4.8934 11.638-9.667 16.538l-4.7273 4.8528 6.0096 4.3142c6.5477 4.7005 24.535 22.555 24.535 24.354 0 0.61311 1.4151 2.5298 3.1446 4.2594 2.5378 2.5378 3.3905 4.4476 4.4188 9.8976 1.237 6.5556 1.2052 6.8926-1.0882 11.527-2.2656 4.5779-2.2963 4.8744-0.74993 7.2318 1.823 2.7789 8.525 7.6595 8.525 6.208 0-0.521 0.88029-1.7674 1.9562-2.7697 1.7757-1.6543 2.0023-3.2574 2.4564-17.375 0.3219-10.009 0.0813-18.431-0.67482-23.628-1.6035-11.02-1.4052-14.384 0.96116-16.3 1.0732-0.86899 1.9512-2.3782 1.9512-3.3539 0-4.7975 5.9484-9.0528 18.785-13.438 7.9328-2.7098 9.9181-3.0086 19.95-3.0027 17.509 0.0105 30.417 3.6373 37.151 10.439 3.1423 3.1739 4.3948 3.8045 7.5559 3.8045 4.3385 0 10.123 4.0289 17.195 11.976 6.1153 6.8721 8.959 11.719 14.369 24.494 7.0821 16.722 7.4307 19.169 7.7296 54.258 0.29069 34.128-0.51712 40.732-6.8398 55.92-3.7558 9.0218-6.0074 11.644-10.681 12.437l-3.5626 0.60498 0.0333-5.9807c0.0184-3.2894 0.64463-8.7595 1.3917-12.156 1.7936-8.1541 1.7747-28.7-0.0357-38.939-1.3649-7.7196-1.6379-8.2794-6.3951-13.117-2.7331-2.7794-6.4656-5.9522-8.2944-7.0506-10.587-6.3588-19.382-15.512-25.66-26.705-2.3805-4.2442-3.2117-7.0271-3.5622-11.926-0.53961-7.5418 0.70316-10.543 8.2354-19.889 2.6599-3.3003 4.8362-6.3474 4.8362-6.7713 0-1.9132-2.6602-2.9286-5.1714-1.9739-1.4039 0.53375-4.6866 0.97045-7.295 0.97045-3.8372 0-12.807 1.5314-13.915 2.3756-0.14092 0.10737 0.35572 2.93 1.1036 6.2725 0.74792 3.3425 1.8751 9.9248 2.5048 14.627 0.71874 5.3674 2.3706 11.556 4.4375 16.625 1.8109 4.4413 3.5073 8.9663 3.7698 10.056s1.6708 2.6855 3.1296 3.5472c1.4588 0.86177 4.031 2.8546 5.716 4.4286 1.685 1.574 3.4476 2.6244 3.917 2.3343 1.4547-0.89904 0.93736 1.1824-0.61384 2.4698-1.0053 0.83436-1.2806 2.0673-0.87453 3.9164 0.65315 2.9738-0.17529 3.6597-1.2514 1.0362-0.97339-2.3731-12.557-13.124-12.557-11.654 0 2.1254-3.3116-3.0151-7.4268-11.528-2.1854-4.5209-3.9734-8.5206-3.9734-8.888 0-0.3675-1.0688-1.9383-2.375-3.4908-2.122-2.5219-2.375-3.6751-2.375-10.825 0-4.4012-0.3753-8.0023-0.834-8.0023-1.5353 0-7.7163 2.8667-7.7087 3.5753 4e-3 0.38488 1.287 5.8299 2.8508 12.1s3.0596 14.566 3.3239 18.434c0.38132 5.5815 1.2347 8.6056 4.1325 14.645 3.153 6.571 3.5143 7.9757 2.6443 10.28-0.59036 1.564-2.1053 3.0522-3.6582 3.5935-1.9716 0.6873-2.6506 1.5482-2.6506 3.3605 0 2.0464-0.85549 2.8148-5.3433 4.7995-5.8694 2.5957-9.4514 2.94-13.134 1.2623-2.0129-0.91715-2.7335-0.81335-4.3198 0.62225-1.5205 1.3761-1.9039 2.9255-1.9039 7.6948 0 3.2845-0.42751 6.236-0.95002 6.559-0.52251 0.32293-0.95002 0.0821-0.95002-0.53527 0-2.06-2.6391 0.92468-4.8429 5.4771-1.2455 2.5728-3.3828 5.077-5.2972 6.2066-1.7651 1.0414-3.6586 2.733-4.2077 3.759-0.84333 1.5758-0.43891 2.3491 2.604 4.9795 3.3575 2.9023 3.6409 3.5593 4.169 9.6639 0.49412 5.7119 0.33792 6.7147-1.221 7.8379-1.454 1.0477-1.6686 1.9921-1.15 5.0617 0.9822 5.8136-1.5864 7.9867-10.419 8.8144-6.2028 0.58125-7.147 0.94166-8.987 3.4304-1.1308 1.5295-2.5161 2.781-3.0784 2.781-0.56231 0-2.682 1.3145-4.7105 2.921-4.2869 3.3953-13.796 8.175-26.371 13.255-11.592 4.683-12.543 5.6743-5.4442 5.6743 5.5177 0 5.5251 4e-3 5.0191 2.6126-0.57838 2.982 2.1919 8.2159 5.201 9.8264 1.0427 0.55806 2.6227 2.5833 3.5111 4.5006 2.7132 5.8557 8.6567 14.411 10.011 14.411 1.7931 0 2.8341-1.4629 6.792-9.5446 6.0174-12.287 10.698-15.631 23.992-17.143 10.813-1.2296 15.546-0.55212 34.737 4.9722 8.8181 2.5384 17.421 4.6153 19.118 4.6153 3.9678 0 9.0581-1.8196 18.722-6.6924 9.8287-4.956 14.145-7.9393 24.303-16.796 10.054-8.7661 12.063-9.8182 13.961-7.3099 1.9323 2.5537 1.7867 3.6783-1.0684 8.2538-6.6257 10.618-27.427 27.505-45.468 36.911-5.2251 2.7243-11.801 7.0386-14.613 9.5874-5.922 5.368-19.575 12.286-34.313 17.387-10.884 3.7668-23.002 5.0363-31.326 3.2816zm-56.151-84.896c2.3956-2.1105 16.259-8.8396 21.45-10.411 2.6126-0.79101 7.5289-2.367 10.925-3.5023 3.3963-1.1352 8.5264-2.34 11.4-2.6772l5.2251-0.61319-0.1449-4.4087c-0.11778-3.583 0.21302-4.5684 1.7662-5.2615 1.76-0.78535 1.6071-1.0635-1.9338-3.5173-4.1422-2.8706-8.3275-2.8663-10.715 0.011-1.8393 2.2163-6.2651 4.2001-7.9379 3.5582-0.85945-0.3298-3.0357 0.46353-5.0478 1.8401-3.826 2.6176-21.137 7.3006-26.994 7.3022-1.9286 5.5e-4 -3.7507 0.39611-4.0491 0.87902-0.29845 0.4829 0.56079 2.9411 1.9094 5.4626 1.7928 3.3519 2.3688 5.6703 2.1423 8.6222-0.34087 4.4423-0.18887 4.6483 2.0041 2.7162zm-5.3878-50.888c3.9576-1.5259 4.8898-3.4311 1.2294-2.5124-4.7694 1.197-7.2636 2.4957-6.6621 3.4688 0.34057 0.55108 0.90068 0.87037 1.2447 0.70956 0.344-0.16082 2.2286-0.91053 4.188-1.666zm-28.738-16.136c0-1.3894-0.94645-1.6724-8.0752-2.4148l-6.6501-0.69258 1.8098 2.0007c1.447 1.5996 2.9229 2.0007 7.3626 2.0007 3.0541 0 5.5529-0.40227 5.5529-0.89395zm124.98-28.01c3.0464-0.76459 2.928-2.3709-0.49182-6.6741-1.5469-1.9465-3.072-4.3566-3.3891-5.3557-0.31713-0.99916-1.0351-1.8167-1.5955-1.8167-0.66519 0-0.83448 1.7869-0.48766 5.1472 0.44309 4.2932 0.22868 5.4211-1.2921 6.7974-2.6143 2.3659-2.2614 3.6838 1.2642 4.7218 2.5731 0.75753 3.1362 0.64687 3.3794-0.66422 0.16052-0.86525 1.3362-1.8353 2.6126-2.1556zm-44.786-34.509c-0.65092-3.6124-1.9274-5.9376-3.2596-5.9376-0.70972 0 0.54267 7.0977 1.536 8.7049 1.3048 2.1113 2.3115 0.49516 1.7236-2.7673zm-26.995-20.631c0-0.24353-0.72045-1.9536-1.601-3.8001-1.1686-2.4506-2.2101-3.3573-3.8561-3.3573-2.3968 0-2.3493 0.25516 0.92749 4.9876 1.524 2.2011 4.5296 3.6408 4.5296 2.1698zm-6.5921-34.481c2.4056-7.3127 5.2215-13.081 9.3871-19.228 3.494-5.156 3.587-5.9075 0.64008-5.1678-1.3821 0.34688-3.7079-0.16756-5.9662-1.3197-2.0356-1.0385-6.2533-2.6211-9.3726-3.5168-3.1193-0.89576-6.0988-1.8812-6.621-2.1898-0.5222-0.30864-2.0406-0.44671-3.3743-0.30682-1.3337 0.1399-4.3265-0.8326-6.6507-2.1611-2.3242-1.3285-4.6534-2.418-5.1759-2.4211-0.56186-3e-3 -1.0208 4.0362-1.1233 9.8868-0.11976 6.8358-0.63347 10.782-1.6625 12.772-2.0898 4.0412-1.9124 4.5834 1.7222 5.2652 2.0904 0.39217 5.4115 2.6185 9.5144 6.3781 5.6542 5.181 14.174 9.8864 15.938 8.8027 0.35118-0.21567 1.5862-3.2732 2.7446-6.7944z" fill="param(fill)" fill-opacity="param(fill-opacity)" stroke="param(outline)" stroke-opacity="param(outline-opacity)" stroke-width="param(outline-width) 0.2"/>
</svg>
