<svg width="512" height="512" version="1.1" viewBox="0 0 512 512" xmlns="http://www.w3.org/2000/svg">
  <path d="m214.58 24.882c4.3861 18.641-2.1893 43.784-27.148 70.006-24.959 26.222-100.2 47.993-107.68 69.216-9.6474 37.084 38.374 35.178 45.43 26.379 29.541-10.975 68.284-85.587 105.89-99.664 37.611-14.076 48.957-26.692 93.96-1.2758 45.003 25.417 43.034 69.286 24.365 112.13-18.668 42.84-122.64 64.117-136.29 87.002-13.646 22.885-2.835 29.659 11.714 36.079 14.549 6.4194 26.726-13.92 49.837-34.613 23.111-20.693 48.286-61.272 80.402-74.013 32.116-12.741 69.464-17.395 98.019-1.1069 28.555 16.288 43.997 46.334 40.127 73.844-3.8698 27.51-27.689 40.593-46.906 51.661-19.217 11.069-48.432 9.3117-59.337 18.303-10.905 8.9914-7.3378 25.462-7.3378 25.462s28.913 7.0887 31.882 27.296c2.9694 20.207 2.0303 24.342-10.3 43.31-2.6933 4.1433-13.414 25.575-28.061 26.505-22.352 1.4185-27.88-10.632-36.527-20.126-11.68-12.823-20.556-14.089-21.676-33.389-1.1195-19.3 17.786-37.186 17.786-37.186s-6.6994-31.88 14.476-58.63c21.175-26.75 67.835-22.489 76.206-39.558 13.715-36.5-30.433-18.041-34.075-15.931-27.318 15.918-75.954 90.624-111 111.94-35.044 21.312-55.881 25.828-81.35 22.9-25.469-2.9286-43.415-14.188-58.62-31.882-15.204-17.694-18.924-42.169-18.882-65.04 0.0419-22.871 7.133-40.919 19.241-57.344 12.108-16.425 27.786-24.615 45.072-35.889s39.09-16.273 56.975-24.744c17.885-8.4712 38.913-19.725 46.716-32.03 17.936-33.05-15.428-21.295-29.858-13.59-16.682 8.7774-31.324 30.104-48.92 54.244-17.596 24.14-62.453 39.204-83.143 46.885-20.69 7.681-21.993 5.8195-37.027 4.4069-15.034-1.4126-44.169-13.403-55.689-33.706s-8.6112-28.248-5.8828-46.179c2.7284-17.93 8.1298-32.133 23.827-46.527 15.697-14.394 47.08-18.95 68.33-28.741 21.25-9.7904 42.799-15.999 58.999-29.879 16.2-13.88 36.448-46.516 36.448-46.516z" fill="param(fill)" fill-opacity="param(fill-opacity)" stroke="param(outline)" stroke-opacity="param(outline-opacity)" stroke-width="param(outline-width) 0.2"/>
</svg>
