<svg version="1.1" width="512" height="512" viewBox="0 0 512 512" xmlns="http://www.w3.org/2000/svg">
 <path d="m326 425.48c-14.248-17.577-23.025-39.136-39.877-54.51-9.2761-21.25-22.959-40.326-28.984-62.83-12.662-23.794-38.97-12.322-48.193 7.663-12.891 12.273-22.278 28.615-22.174 46.491-3.7365 12.516 3.297 39.416-3.8504 42.763-5.356-12.766-8.0433-26.247-6.3417-40.029 1.4308-16.269-0.43782-32.745 9.7845-46.211 6.3826-9.5213-1.2025-7.5285 8.0285-12.57 9.1843-10.894 26.722-18.273 34.834-31.016-3.8213-15.746-30.718-0.18099-45.255-3.4758-26.679 0.47794-53.401 1.2097-79.864 4.8763-20.236 3.4646-37.137 16.241-56.686 21.936-10.398 1.1456-29.935 19.912-35.152 11.672 14.2-14.385 34.615-20.853 51.897-30.93 20.208-7.0394 38.633-18.824 60.165-22.714 20.415-11.112 43.032 5.3118 64.174-1.2956-14.561-8.1364-36.833-11.145-46.66-28.055-16.128-22.61-19.975-57.8 1.0032-78.728 14.009-20.698 41.475-21.855 60.743-32.413 9.8233-14.192 5.0624-42.508 20.579-48.349 17.351 8.8286 44.161 11.695 47.217 35.447 4.399 26.803 7.1351 53.741 6.7842 80.93 2.5602 20.832 19.325-2.4612 14.802-14.139 4.0662-15.314 4.9891-56.908 29.051-44.288 13.251 7.2432-0.66493 27.572 9.4589 31.21 6.7795-22.617 22.453-38.588 46.794-35.422 12.007 8.9287 32.575 18.856 48.685 26.455 26.507 5.9391-3.1902 33.508 0.41688 48.929 14.475 12.617 30.021 29.838 48.312 34.194 0.83197 3.9535 14.984 9.3959 16.634 17.768 6.1939 14.955 3.3178 26.188 4.8512 42.042 3.0774 8.1085-5.9558 39.534-9.7151 23.286 4.0671-19.699 7.5372-45.747-8.6945-60.587-19.926-15.913-40.357-32.192-63.752-42.582-15.73 14.987-2.1666-19.836-23.114-14.784-16.03 7.7708-31.095 14.305-42.497 28.585-25.214 10.522 20.974 15.026 7.6037 36.136-19.501 17.103 0.564 33.555 16.194 44.341 16.204 10.319 26.636 27.015 37.674 41.432 7.1246 11.15 17.209 29.354 24.943 43.901 8.6184 24.327-12.548-2.4773-15.136-12.419-7.6348-23.285-29.105-34.047-44.817-50.318-11.198-12.694-30.556-34.881-43.181-34.449 6.0872 8.8684-13.911 41.147-8.2072 18.508 6.1641-27.822-23.523-27.572-41.912-25.792-12.169 2.8549-24.169 9.042-14.767 22.43 9.4529 18.824 26.06 34.506 30.971 55.794 8.7748 21.653 23.016 40.818 34.03 61.386 2.0622 8.14-4.9384 1.8618-6.8006-0.26902zm-93.17-157.78c-0.89799-6.712-5.2558 4.7386 0 0zm109.68-4.4319c14.625-4.2578-0.73415-28.121 0.27119-8.3187-1.7416 2.6554-10.456 14.424-0.27119 8.3187zm-5.77-55.359c7.4045-15.711 21.799-18.371 34.299-27.462 15.851-5.6584 31.012 2.2347 45.852 7.1181 5.2678-17.063 12.104-35.508-12.181-36.702-15.257-3.1262-37.982-21.587-43.807-4.478-7.4565 16.26-14.414 30.482-21.977 47.118-1.2808 5.4363-17.655 28.111-2.1858 14.406zm-21.151-9.4884c4.5569-15.083 7.2466-36.578 0.67351-51.076-2.4109 16.546-15.956 40.178-8.9607 53.65 2.9014-0.22498 5.8142-0.99757 8.2872-2.5748zm-56.414-58.864c-7.9701-18.637-3.1668-43.078-22.907-54.182-15.811-9.1766-26.485 25.644-20.164 34.254 16.181 2.3685 30.325 14.46 43.071 19.928z" fill="param(fill)" fill-opacity="param(fill-opacity)" stroke="param(outline)" stroke-opacity="param(outline-opacity)" stroke-width="param(outline-width) 0.2"/>
</svg>
