<svg version="1.1" width="512" height="512" viewBox="0 0 512 512" xmlns="http://www.w3.org/2000/svg">
 <path d="m437.76 423.26c-16.318-12.672-22.189-35.851-35.424-52.169-10.117-17.06-27.098-28.13-38.365-44.207-11.954-13.191-23.457-27.334-40.646-34.098-9.7549 6.1909-1.8172 32.851-11.842 44.013-10.372 23.146-28.187 47.798-55.588 49.993-23.639 1.2205-48.617-9.3327-60.268-30.716-10.098-19.851-17.964-43.231-8.9533-65.111 6.2762-12.701-1.0242-15.968-6.6454-2.6912-20.646 17.35-42.761 33.237-61.19 53.224-16.931 18.905-39.472 33.145-51.224 56.193-1.7973 12.51-29.386 31.642-28.156 9.5108 10.946-18.744 27.099-34.008 39.84-51.664 14.045-15.06 27.141-31.616 44.739-42.4 19.335-15.578 37.095-33.898 59.276-45.426 7.6731-4.5568 39.542-8.4992 26.012-16.885-33.853 4.142-67.854 7.5722-101.99 6.2072-27.199 7.2858-49.186 25.475-74.025 37.686-17.318 14.212-34.004-8.0538-9.4479-15.177 26.035-12.48 49.977-30.253 78.163-37.636 31.814-6.3956 65.48 7.127 96.309-4.7785-16.707-9.3919-37.687-14.889-51.216-30.243-20.829-18.244-39.365-38.72-60.084-57.035-21.448-22.278-46.93-40.436-67.492-63.507-1.7944-26.31 29.028 9.1245 38.357 16.588 17.24 14.615 32.618 31.082 49.804 45.423 15.127 14.829 30.925 29.616 47.268 43.728 17.229 15.826 35.271 33.42 59.126 37.863-9.1076-15.017-30.232-24.16-36.663-43.201-18.011-33.432-45.849-60.629-73.647-86.032-12.359-15.211-43.035-23.915-42.183-44.213 18.166-4.6884 32.305 17.211 44.853 27.967 19.564 16.316 37.957 34.053 56.785 51.223 23.341 20.814 31.108 52.74 50.599 76.526 15.236 3.5852-8.2189-20.766 1.7244-29.43-0.44093-12.633 13.415-53.033 26.631-30.723-5.9154 13.19-26.132 44.453-4.4249 49.913 4.4708-9.5044 25.92-21.698 29.354-5.4255 18.395 16.961 12.069-26.846 1.3308-33.463-15.933-9.5238 0.42469-29.491 9.6818-12.294 11.105 16.483 19.857 37.441 7.8933 56.064-4.6434 20.863 18.754-7.4317 22.132-14.551 13.693-16.211 20.94-36.98 36.146-52.197 19.119-22.84 42.525-41.251 62.798-63.101 8.029-5.8931 13.887-18.525 25.458-15.815 20.176 0.03362-11.938 20.499-17.133 29.074-22.829 22.799-46.923 44.651-66.521 70.341-14.761 20.705-25.095 45.19-45.494 61.319 13.5 9.3629 37.031-11.673 49.783-21.383 14.138-15.889 30.238-29.845 45.52-44.741 17.422-15.375 34.651-30.998 54.378-43.278 15.723-7.5686 29.793-38.678 48.285-26.908-7.4331 19.465-30.38 27.7-43.627 43.195-19.642 15.877-42.73 27.537-58.821 47.578-21.806 21.016-40.297 49.626-71.745 56.554-8.5762 3.8519-45.66 8.9404-18.059 14.472 27.863 2.2143 56.183-9.9324 83.499-1.8954 18.231 8.9787 36.533 18.22 55.994 25.035 14.846 9.7545 46.977 9.9799 46.187 31.089-22.438 6.8934-40.169-13.89-59.785-21.022-24.723-7.9846-47.432-27.767-74.93-22.027-20.995 5.3978-42.196-1.5775-63.239-0.95281 7.3656 15.36 36.482 8.6245 47.923 25.481 18.222 12.814 33.368 28.728 48.282 44.987 17.38 19.983 32.747 41.561 46.386 64.274 8.9433 9.2174 24.762 34.913-1.6907 30.873z" fill="param(fill)" fill-opacity="param(fill-opacity)" stroke="param(outline)" stroke-opacity="param(outline-opacity)" stroke-width="param(outline-width) 0.2"/>
</svg>
