<svg version="1.1" width="512" height="512" viewBox="0 0 512 512" xmlns="http://www.w3.org/2000/svg">
 <path d="m231.58 465.13c-11.058-12.435-1.7823-33.013-15.04-46.856-9.8989-21.438-15.53-44.561-12.615-68.273 3.8526-22.53 4.4921-45.963 11.672-67.745 7.4872-14.6-21.287 8.3183-30.546 3.4291-9.0481 2.9219-23.249-5.1078-29.814 2.5238-15.595 24.343-45.407 33.346-64.334 53.927-10.108 18.57-13.416 40.494-30.488 54.803-4.416 27.586-37.508 1.6566-17.289-14.317 20.68-13.346 18.223-39.144 29.746-58.078 16.573-14.828 30.017-33.526 51.062-43.426 18.487-13.898-19.022-29.646-9.093-49.964-0.50276-17.758 11.678-31.49 24.314-42.269-17.391-9.8912-35.312 5.4252-52.887 0.58535-25.562-7.5116-50.569 21.938-73.941 8.2423-14.775-26.544 27.936-14.908 41.226-24.778 23.07-2.4242 45.051-4.6746 67.799-9.9405 24.917 3.5277 50.592 3.3079 74.326 12.641 15.314-2.9587 25.218 16.625 35.59 17.673 8.5574-16.497-17.727-37.324-15.106-58.205-8.5655-21.228 4.654-46.705 17.34-63.697 7.9431-7.7416 21.213-35.784 27.539-11.443 6.0045 26.028-30.637 31.839-24.127 57.633-1.3848 21.335 6.1262 42.916 22.181 57.596 15.42-3.2037 18.729-32.676 35.429-41.858 13.683-11.677 31.041-17.782 47.146-25.392 2.9251-20.658 26.55-28.284 42.754-36.653 22.255-4.1643 45.038-18.51 65.904-19.107 5.4002 25.233-31.301 32.416-50.058 34.897-11.272 0.33657-16.697 13.043-25.851 18.179-14.889 11.884-32.971 28.254-45.776 37.463 16.75-6.9861 35.647-5.8503 52.708-10.572 14-7.761 28.695-15.472 45.203-14.704 21.538-9.271 41.075 3.8379 57.983 16.178 13.023 5.1035 31.761 40.723 8.4015 37.472-11.906-16.015-29.369-25.866-46.296-35.651-23.712 13.591-50.17 24.255-77.998 21.114-12.627 0.28432-23.027 10.529-33.975 16.004-8.9621 8.7801-41.755 16.99-14.935 24.429 16.349 2.1443 32.167 39.6 14.242 38.42-5.7447-12.756-13.064-18.009-19.373-4.1062-2.9831 12.404 9.9926 27.593 20.715 14.49 12.854 17.496 36.955 25.397 55.712 36.323 28.717 10.346 51.972 31.428 69.331 56.016 23.022-5.1316 30.602 34.406 3.3921 23.955-22.791-5.7226-34.501-27.984-55.558-37.072-30.284-20.213-61.925-39.983-97.972-47.817 18.523 11.827 25.116 34.692 43.524 46.637 20.399 17.148 34.204 40.055 44.534 64.308 6.9933 13.358 44.638 27.142 18.748 41.476-18.142-6.6388-34.382-26.039-42.734-44.296-18.106-36.746-52.302-60.6-82.584-86.497-14.952-10.394-29.675-21.155-43.055-33.548 0.85305 27.109-20.129 50.017-16.894 77.625-2.2122 25.569 5.4915 49.985 12.112 74.26-0.029 14.112 13.05 51.893-12.294 47.969z" fill="param(fill)" fill-opacity="param(fill-opacity)" stroke="param(outline)" stroke-opacity="param(outline-opacity)" stroke-width="param(outline-width) 0.2"/>
</svg>
