<svg width="512" height="512" version="1.1" viewBox="0 0 512 512" xmlns="http://www.w3.org/2000/svg">
 <path d="m225.63 192.64-6.7108-14.495-4.1398-15.43-4.339-20.249s-17.114-24.769-28.927-42.667c-0.86018-1.3033 3.0712-3.7036 3.9958-2.4453 9.4688 12.887 28.923 43.699 28.923 43.699s5.0651 22.862 9.1284 35.677c1.1236 3.5437 7.679 8.7822 7.679 8.7822l1.9988-1.1834s-9.0461-7.2366-4.9956-18.376 23.625-8.1632 23.625-8.1632-10.136-11.97-8.1632-13.155c2.1766-1.3077 9.4348 8.4727 9.4348 8.4727s-0.19924-24.193-0.1716-43.629c3e-3 -1.9979 5.9648-2.0345 5.9937-0.0368 0.29033 20.059 0.68638 44.043 0.68638 44.043s8.2763-9.9053 9.919-8.6749c2.1322 1.597-7.5442 13.084-7.5442 13.084s9.2614-2.3864 19.286 4.0969 0.96218 23.451 0.96218 23.451l2.6857 1.3011s4.9775-6.8986 5.7494-10.554c2.4818-11.753 7.907-35.089 7.9587-35.17 9.2828-14.519 17.501-27.097 28.479-43.148 0.93372-1.3652 4.7128 1.7723 3.8211 3.1654-8.8708 13.859-23.042 30.842-26.307 41.6-3.793 12.5-5.3915 26.608-9.9314 38.856-1.5781 4.2576-6.4961 11.973-6.4961 11.973s3.4291 8.8053 4.6485 13.36c0.72403 2.7045 1.5724 8.2508 1.5724 8.2508s47.752-13.471 76.529-21.268 70.87-5.7853 70.87-5.7853 40.648 4.7996 41.39 22.922-51.749 41.269-64.488 42.458c-21.402 11.89-37.423 15.52-59.343 13.444s-36.295-12.945-40.371-21.098c0 0-1.679 3.0685-7.3577 2.2956-3.5473-0.48279-11.411-4.6473-14.775-12.292-3.6767 2.5619-4.0758 0.8865-6.7934-1.8312 0.3397 4.0765-3.9118 14.293-3.9118 14.293s18.112 13.67 24.544 21.607c11.741 14.49 26.16 49.728 26.16 49.728l33.654 48.714-2.4706 1.9945s-29.621-36.14-37.605-49.898c-6.1147-17.665-23.141-45.559-23.141-45.559l-24.544-21.399-3.7419 4.2566c11.89 8.6625 13.099 13.527 13.099 13.527l1.3202 4.1305s14.307 11.469 15.313 19.734c3.2497 26.722 4.936 59.727 4.936 59.727l28.713 48.962-3.6596 1.9559-31.907-50.369-3.3147-58.319-9.4449-10.207s-0.10718 79.376-37.391 79.121-38.24-72.826-38.24-72.826l-5.9166 5.3581c0.16986 2.3779-3.7033 37.427-5.7416 56.62l-26.757 57.13-4.339-3.6158 25.738-53.514s3.5772-49.749 6.8044-61.469c1.3588-6.964 10.124-15.91 10.124-15.91s1.1596-6.1438 2.6353-8.678c3.2818-5.6357 14.008-12.322 14.008-12.322l-2.7282-3.0726-23.316 18.288-27.236 49.59-33.51 48.596-2.975-3.3739 30.994-48.717s15.863-32.663 27.961-49.929c5.9549-8.4985 23.568-20.753 23.568-20.753l-2.8627-16.145-5.0216 1.7246c-5.7518 1.9753-10.699 11.15-16.438 11.468-3.0823 0.17071-7.8222-2.5375-7.8222-2.5375l-11.969 15.614s-32.219 7.0181-47.066 5.7554c-25.448-2.1644-24.514-10.261-39.552-13.975-24.914-6.1547-72.876-24.598-67.417-48.91s65.082-14.211 97.627-12.294c32.545 1.9168 94.358 23.383 94.358 23.383z" fill="param(fill)" fill-opacity="param(fill-opacity)" stroke="param(outline)" stroke-opacity="param(outline-opacity)" stroke-width="param(outline-width) 0.2"/>
</svg>
