<svg width="512" height="512" version="1.1" viewBox="0 0 512 512" xmlns="http://www.w3.org/2000/svg">
  <path d="m270.23 186.38-99.546 2.315s-61.349-11.329-85.656-20.064c-24.308-8.7342-48.707-20.62-57.104-32.41-8.3968-11.791-6.1734-16.205-6.1734-16.205s17.486-4.6958 47.844-3.0867c30.358 1.6091 76.898 19.35 108.03 21.607 7.0101 0.5081 6.1589 2.4959-3.6381-3.4497-11.212-6.8042-8.5998-15.435-1.5237-13.783 14.204 3.3171 97.763 37.296 97.763 37.296s16.409-12.394 23.922-16.977c7.513-4.5832 20.835-10.803 20.835-10.803 16.927-12.297 30.019-12.186 30.019-12.186s-13.41-30.071-16.91-33.984-9.3579-0.5357-9.0705-6.0601c0.28745-5.5244 5.3677-4.542 11.913-2.2387 6.5453 2.3032 23.328 41.283 23.328 41.283s10.552-0.2003 14.823 1.6785 9.1751 8.4209 9.1751 8.4209-0.62402-5.1284 13.119-10.032c13.743-4.9034 48.513-3.0046 65.937 2.4894s25.165 9.5847 31.752 15.185c2.2905 1.9474 3.798 4.6879 2.4589 6.4293-4.3548 5.6629-6.2733-0.57621-8.3795-1.8864-6.7864-4.2216-9.6454-7.5296-23.861-11.414s-49.14-9.7708-61.734-5.4018c-12.595 4.3691-13.119 12.347-13.119 12.347s5.6357 6.9831 7.8781 20.984c1.1263 7.032-0.92205 16.774 0.0378 23.914 0.95117 7.0762 5.5062 9.8298 4.4615 17.024-1.7404 11.985-4.9614 12.12-4.9614 12.12s-3.1272-20.187-6.483-22.366c-1.8364-1.192-5.9835-1.2706-7.9015 1.4246-1.587 2.23-1.4799 5.1256-1.8338 9.3745-0.78039 9.3691 0.16131 11.41 0.16131 11.41s-12.726-7.0018-16.554-15.521c0 0-3.2947 1.5189-3.0126 5.8508 0.28213 4.3319 10.041 15.002 10.041 15.002 14.413 1.8224 23.569 0.26594 23.569 0.26594s12.076-8.0007 15.979-8.3184c3.9027-0.31774 5.2057 1.7108 5.2057 1.7108s9.0464 25.178 14.531 34.994c2.765 4.9485 6.5661 13.405 9.6558 19.096 3.039 5.5974 3.4017 10.128 3.4017 10.128l-3.6884 1.4256s-1.081-5.4624-4.897-10.989c-4.7111-6.8224-10.56-15.509-13.179-20.267-4.7388-8.6106-9.2601-20.835-9.2601-20.835l-3.305-5.794-11.265 6.7975-23.242 2.0833 13.119 25.465 8.0169 13.867 2.7555 15.181 13.617 15.577 1.8433 6.9156-5.5107 0.93299-1.7902-6.0533-14.551-16.104-2.2794-15.782s-16.05-23.03-22.714-34.809c-6.6645-11.779-19.515-27.57-19.515-27.57l-1.5434 20.064-12.347 0.77167s8.7382 9.3837 15.024 14.767c5.969-0.78261 21.576 10.19 26.994 16.548 3.0262 3.5512-1.002 2.3991-2.3114 4.8306 0 0-11.968-9.8405-17.764-13.768-3.187 0.4118-6.5942 0.62642-8.5644 0.0718-7.1209-2.0047-15.982-8.441-19.256-10.934-3.3818 5.4627-3.027 4.0712-3.3818 5.4627-1.4002 5.491-0.33135 11.845-0.33135 11.845s15.091 1.0635 19.287 4.0593c4.5851 3.274 3.1863 11.793 9.5486 16.959 8.2994 6.7392 18.391 18.149 30.557 33.796 8.1668 10.503 13.254 20.98 13.254 20.98l-5.1794 3.4181s-5.2681-10.723-14.265-21.973c-2.1231-2.6548-17.774-22.487-22.11-23.279 0.0987 3.7857 4.1645 17.896 6.642 39.47 2.7847 24.25 4.0288 57.783 4.4104 62.906-2.1756 1.959-2.7166-1.435-5.6104-0.23258-0.86155-5.5141 0.45263-11.031-0.37583-24.565-0.90402-14.768-3.9253-37.443-4.2092-38.901-1.1757-6.0394-8.6672-46.58-11.554-48.986-13.881-11.571-30.867-17.749-30.867-17.749s5.7451 12.102 6.1734 23.15c0.42828 11.048-2.1077 24.636-7.7168 41.671-5.6091 17.035-28.552 58.648-28.552 58.648l-35.497-26.237s-0.76691 23.241-3.0867 33.182c-2.3198 9.9411-8.4884 20.894-9.9869 26.077s-0.87112 4.3608-0.87112 4.3608l-4.5756-3.4289s0.55522-4.1671 2.6555-8.9883c2.5669-5.8925 6.8658-13.108 8.1131-19.187 2.2679-11.053 1.4889-37.507 1.4889-37.507s-7.4151-18.167-9.9424-30.778c-2.5273-12.611-5.4236-32.393-5.4018-40.127 0.0219-7.7339-1.537-7.5756-0.77168-12.347 0.7653-4.7712 1.6782-5.8996 6.1734-15.434s12.787-33.716 22.379-40.899c9.5919-7.1826 24.694-5.4018 24.694-5.4018z" fill="param(fill)" fill-opacity="param(fill-opacity)" stroke="param(outline)" stroke-opacity="param(outline-opacity)" stroke-width="param(outline-width) 0.2"/>
</svg>
