<svg version="1.1" width="512" height="512" viewBox="0 0 512 512" xmlns="http://www.w3.org/2000/svg">
 <path d="m424.04 413.58c19.525-1.4972 40.895-4.7763 53.791-21.286 20.211-20.583 22.458-55.672 6.6863-79.498-15.645-30.412-37.886-57.234-49.224-89.79-15.959-36.749-51.401-58.666-81.902-82.226-14.247-10.39-29.768-20.234-47.325-23.939-19.516-3.5112-40.996-3.9528-60.017 2.2523-18.792 1.8846-37.728 9.314-54.005 19.052-16.358 13.38-31.032 29.166-50.183 38.363-11.19 5.2995-37.901 8.897-26.028-11.418 9.2206-21.911-7.9589-42.041-15.566-61.507-11.674-24.924-32.459 10.779-25.821 25.344-3.0827 8.6387-18.971-14.137-25.562-19.808-16.186-10.661-3.5417 26.988 0.28264 35.463 8.6139 16.585 23.985 30.343 27.753 49.009-13.016 24.12-28.452 47.111-41.794 71.178-9.9575 11.887-34.907 33.146-5.8996 39.419 24.538-3.483 38.137-30.289 61.876-37.865 13.949-13.062 38.512-18.685 53.732-5.679 12.006 17.238 9.7975 38.473 12.617 58.24-0.10675 18.113 5.1602 44.077-13.694 54.626-11.926 2.1028-40.579 25.837-11.977 24.007 19.429-1.8163 42.309-5.1501 48.733-26.907 7.0214-8.7567 15.4-50.749 25.512-24.129 13.062 20.636 1.0259 40.488-19.719 48.438-11.278 11.499 17.902 7.7692 24.903 10.004 18.943-3.9761 37.495-18.965 33.202-40.512-4.037-24.456 3.7067-49.002 4.8611-73.438 9.9013-10.209 30.739-10.009 45.188-16.345 17.816-9.107 16.894 28.279 28.583 37.812 14.653 19.735 14.215 51.641-8.307 65.587-14.11 4.448-26.749 23.571-3.0108 20.539 21.501 2.7881 37.62-13.843 43.931-32.777 8.2203-13.654 14.165-29.363 18.328-44.213 10.324 13.232 26.101 39.479 5.859 51.405-7.2946 3.5113-22.724 12.626-4.3982 11.888 24.298 6.413 43.045-11.452 37.854-35.699 0.28839-11.961 0.14323-23.927 0.18578-35.89-9.8559-6.0991-12.544-26.987 1.8796-12.718 16.055 15.671 35.035 29.046 47.815 47.64 8.6428 21.078-8.983 41.382-27.767 48.861-8.945 6.393-29.074 4.626-32.327 14.458 6.5229 3.6164 13.873 2.8968 20.954 2.0583z" fill="param(fill)" fill-opacity="param(fill-opacity)" stroke="param(outline)" stroke-opacity="param(outline-opacity)" stroke-width="param(outline-width) 0.2"/>
</svg>
