<svg version="1.1" width="512" height="512" viewBox="0 0 512 512" xmlns="http://www.w3.org/2000/svg">
 <path d="m206.86 499.97c13.616-4.0634 15.877-21.878 27.081-32.356 16.867-16.874 1.6048-42.297 1.2616-62.664-1.6405-14.083-5.4639-29.113-3.8832-42.921 10.088-10.499 8.3814-25.822 9.2592-39.252 18.749 3.1744 37.146-3.7577 52.972-13.342 13.618 12.97 12.298 43.04 32.965 54.014 16.414 12.242 22.768 35.758 13.457 54.305-8.8294 20.749-23.56 39.226-40.541 53.872-14.888 5.622-17.673 24.309 2.5698 20.08 14.927 3.3789 23.873-6.3009 26.515-18.266 23.231-7.5387 23.612-38.456 36.958-56.01 12.686-16.606 20.983-35.818 6.3003-54.315 11.516 9.3809 28.905 31.94 16.496 51.186-5.6741 20.408-11.077 43.892-32.51 53.393-17.389 10.276-20.575 29.548 4.7254 25.89 25.568 7.0174 15.809-33.05 40.805-29.74 11.173-13.988 8.8884-38.094 14.54-55.958 1.4501-18.246 12.173-37.555 4.5476-55.351-4.0461-11.728-13.2-16.668-11.287-11.796-9.8415-14.536-28.729-27.166-26.818-46.568 1.0176-9.557 12.978-43.105 17.161-18.369 18.997-6.0804 9.3771-34.689 9.8376-50.371 1.7978-17.754-14.998-39.915-32.172-24.169-16.23-13.653-36.319-23.277-57.934-22.438-25.489-4.1915-52.321-6.7305-76.909 3.2221-21.599 5.1442-42.182 14.005-58.882 28.924-10.201 9.9287-26.389-2.0876-21.304-14.597 0.14552-35.563 6.6388-70.812 19.189-104.07-6.6586-14.526 0.0698-37.009-20.049-42.25 2.497-13.548-4.3668-28.904-13.02-37.816-4.6633 6.8693-2.9742 23.194-7.3883 6.3538-20.134-16.097 4.5347 30.948-13.626 31.948-12.039 12.371-35.364 15.988-42.102 30.06-6.2726 28.697 48.637 14.419 33.959 43.023-12.222 42.527-12.227 87.449-8.4825 131.17 0.23921 23.525 25.677 35.288 28.549 56.764 6.9693 17.402 25.193 29.99 29.056 50.293 6.6993 20.16 17.038 39.154 22.13 59.76 5.5718 23.037-21.415 29.463-32.863 42.489-3.1506 22.172 39.969 14.81 40.856-5.1188 24.544-13.197 8.8773-42.326 10.654-63.627 0.29139-15.374 6.3938 17.871 6.7956 22.707 1.1516 13.336 2.8708 27.673 0.93399 40.686-8.3687 13.265-29.269 18.473-28.527 36.78 3.5075 7.7564 12.125 6.029 18.724 4.4432z" fill="param(fill)" fill-opacity="param(fill-opacity)" stroke="param(outline)" stroke-opacity="param(outline-opacity)" stroke-width="param(outline-width) 0.2"/>
</svg>
