<svg version="1.1" width="512" height="512" viewBox="0 0 512 512" xmlns="http://www.w3.org/2000/svg">
 <path d="m258.94 445.15c11.989-1.4101 14.625-31.92 24.201-19.333 9.0659-21.482-9.7263-44.744-10.378-67.393-1.8892-27.57-16.383-54.661-7.253-82.381 30.592-2.3312 61.267 2.9332 91.419 5.6379 17.757-3.6274 39.536-22.927 54.435-3.1382 12.266 13.701 36.226 16.678 41.798 34.604 8.9108 21.646 2.7834 46.103-4.8451 67.213-2.7887 23.109-30.33 26.071-39.786 39.541 5.1368 5.9045 30.983-0.50565 15.652 9.2358 9.6256 7.7291 36.164 8.0824 37.283-9.8753 25.75-1.1308 15.617-34.796 22.242-52.018-2.0501-20.622 22.239-43.064 6.9489-60.181-16.176-10.93-25.791-31.232-31.446-48.448 4.7242-20.256 18.273-40.14 10.675-61.622 1.872-8.7365-4.1739-30.556 7.4702-12.25 9.7763 21.398 2.169 45.623 0.74263 67.886-6.4878 13.694 15.292 48.6 16.075 17.097 3.8777-22.086 0.7315-44.783-3.1171-66.591-3.0038-19.286-13.676-36.126-29.602-47.482-16.583-10.885-35.625-27.509-56.049-24.198-28.677 0.5667-57.076 11.331-85.7 4.5822-14.615-1.5265-30.251-5.6538-42.875-10.303-14.102-7.7222-33.736-17.566-51.106-10.973-15.889 8.6407-28.832 21.448-39.061 35.884-6.3625 10.798-20.162 16.161-28.572 25.126-5.6692 3.6764-28.294 22.019-21.731 10.04-17.455 4.229-48.968 19.716-59.227 4.0307 7.5011-20.649 32.978-28.024 38.288-50.257 4.4193-24.053 23.744-39.378 37.33-58.267 8.7716-7.2605 17.442-37.375 4.7547-14.26-14.384 23.286-43.768 35.329-50.314 63.604 0.45157 12.351-31.527 40.026-16.277 13.911 7.4641-19.813 6.3481-42.741 20.59-59.981 7.8251-8.7085 15.638-41.979 3.9587-15.757-10.974 19.052-28.5 34.691-31.979 57.563-1.8557 25.269-31.683 31.521-37.619 54.836-5.1728 20.976-19.888 38.284-19.673 61.602-1.8984 20.369-17.674 40.513-12.456 59.521 18.477 23.091 30.939-11.839 47.488-18.542 16.791-2.9661 31.632-9.1546 48.51-8.7634 12.297-0.75802 25.607-10.751 35.141-7.3218 17.195 0.53938 33.762 4.4593 50.865 10.03 12.392 2.9714 31.832 6.3883 36.59 24.316 2.1508 8.4272 11.413 16.361 9.2085 25.091-0.87901 19.961 8.9789 40.224 5.0173 61.005 0.88823 25.848-22.964 34.752-38.073 47.205 16.466 11.793 29.441-3.3875 40.381-12.884 17.446 1.5194 3.5065-34.609 8.6164-48.025 1.3319-24.742 11.599 16.086 11.268 23.284 2.6688 22.177-17.394 32.95-30.663 44.33 5.3941 4.9365 14.207 6.3248 20.857 3.072zm177.86-28.682c8.3358-12.887 23.289-3.2946 22.264-24.57 3.3765-17.296 6.4302-40.016 15.288-52.788 0.0126 24.614-3.1779 51.709-19.625 71.234-2.8822 2.1803-19.019 15.614-17.927 6.124z" fill="param(fill)" fill-opacity="param(fill-opacity)" stroke="param(outline)" stroke-opacity="param(outline-opacity)" stroke-width="param(outline-width) 0.2"/>
</svg>
