<svg version="1.1" width="512" height="512" viewBox="0 0 512 512" xmlns="http://www.w3.org/2000/svg">
 <path d="m113.17 427.85c-17.308-16.075-20.481-40.541-32.382-60.096-11.085-16.869 39.593-25.828 6.3553-33.197-12.409-8.3777-24.925-10.314-26.76 8.2614-12.751 19.45 16.972 38.274-1.1973 55.081-12.149 1.3738-10.5-24.273-16.137-33.229 8.7412-16.537 5.5522-44.963 21.158-53.876 18.613 3.7077 40.021 11.392 57.64 10.37-14.404-10.962-24.201-26.953-33.552-41.979-10.373-15.922-21.853-36.605-35.539-47.028-9.6897-2.1548-22.548 4.5424-27.571 12.942-6.8261 11.416-12.836 5.1681-17.438-6.4299 3.7998-19.411 22.909-33.078 27.958-52.921 13.525-15.568 13.468-38.214 25.259-55.696 13.777-14.56 11.425-37.092 11.832-57.752 7.075 28.045 1.6866 37.796 2.9613 42.734 6.6516-10.175 2.9749-18.005 4.2368-41.319 10.055 30.731 0.77016 51.303-9.7388 73.76-6.5344 14.387 4.7627 2.2719 10.574-5.3099 2.3188-3.0253 5.245-6.9092 6.2217-6.1134 1.0235 0.83395-0.0025 6.5631-2.0157 12.881-0.06556 6.7149 10.765-1.997 15.064-3.3273 0.9259-0.28649-0.13944 3.2079-3.4015 8.8568-3.7707 16.578-30.412 20.47-11.78 37.205 12.137 21.976 29.566 43.321 54.235 50.796 23.981 2.0902 46.977-11.076 70.877-4.2482 27.818 3.5737 56.196 1.247 84.135-0.14369 24.21-3.7736 51.282-12.439 73.613 2.2374 19.232 8.9617 37.777-6.6146 48.536-21.104 5.6738-13.967 18.99-32.734 29.989-36.766 3.5643-20.335 1.0627 8.2382 2.7146 11.531-2.0469 12.408-19.001 25.697-27 39.091-6.8007 13.429-37.151 13.307-38.865 23.289 2.1469 12.053 3.786 20.871 16.549 7.016 6.4243 9.1084 9.1711 20.764 18.031 4.9857 17.241-24.322 26.422 18.439 32.944 30.663 4.375 19.126 21.459 31.751 37.1 15.945 12.409-1.1151 24.008 2.2047 7.2947 9.8745-14.265 15.824-44.922 12.043-49.387-11.166-5.0021-13.352-20.738-42.194-30.253-15.767 7.9414 15.995 14.2 40.441 31.815 46.356 12.015-8.9368 43.509 2.5708 36.737 11.887-17.481-6.5268-41.857 7.5713-55.393-6.3956-7.6841-13.39-14.532-27.234-21.706-40.899-8.6147 14.513-22.005 35.422-41.52 29.188-11.815 10.709-37.036 29.172-50.874 13.19-8.0237-26.9-35.703-21.271-57.193-14.602-32.184 12.365-67.98 12.459-100.96 3.1173-5.2081 10.893-14.691 16.284-26.466 8.0502-12.401 5.1032-27.636 6.1504-37.407 15.43 0.24883 25.682 30.501 37.956 30.307 61.914-0.0493 6.8124-6.0488 9.9749-9.6051 2.7091z" fill="param(fill)" fill-opacity="param(fill-opacity)" stroke="param(outline)" stroke-opacity="param(outline-opacity)" stroke-width="param(outline-width) 0.2"/>
</svg>
