<svg version="1.1" width="512" height="512" viewBox="0 0 512 512" xmlns="http://www.w3.org/2000/svg">
 <path d="m356.4 498.34c-21.334-8.0208 11.845-33.152 12.936-48.595 8.6335-23.06 23.606-45.945 18.279-71.63-4.6112-26.79-13.194-53.268-23.697-78.022-14.706 5.2184-25.558 19.983-42.669 9.3038-26.673-1.8299-54.699-3.2784-79.139-14.577-6.1311 16.422 2.1952 38.935 0.12627 57.668 0.94164 29.801-1.8986 59.967 6.1159 89.095 6.4332 17.433-4.8884 36.426-12.27 48.762-17.363 1.9888-50.3-4.3136-31.436-27.606 11.615-22.168 6.5931-48.201 4.5147-72-11.052-28.689-5.1814-60.354-14.965-89.296-18.864-5.8315-38.265-12.469-45.231-34.494-11.247-18.764-27.745-33.5-45.222-46.214-6.9624-20.306-4.2259-45.733-10.948-68.25 2.4519-31.965-34.966-24.108-47.055-46.107 12.214-8.3861 55.417 12.5 42.813-17.678-18.485-10.019-55.364-20.459-40.7-49.262 3.6639-8.7446 29.61-36.924 14.787-13.509-17.222 21.192 1.7034 47.106 27.13 42.638 12.77-0.0049 18.856 23.475 27.573 5.2095 15.704-12.073 49.779-9.1786 41.369-39.451-0.87517-9.8453-14.766-38.461 1.0379-16.51 14.678 17.643 15.292 47.356-9.3263 56.725-18.934-0.40341-28.344 35.797-3.7603 21.944 12.337-3.6538 33.611-14.312 41.297-13.051-8.7174 23.108-36.456 26.115-48.456 43.849 7.2868 23.992 39.541 21.864 57.701 12.404 23.288-15.615 47.806 4.5024 69.454 13.485 31.823 10.965 66.561 2.2334 98.879 11.181 30.059 4.1005 59.329 15.053 84.923 31.161 20.969 16.091 31.64 48.75 13.615 70.95-10.145 14.985-25.965 30.97-36.658 38.337-11.923 20.648 3.0486 40.527 10.079 59.752-9.3287 22.871-16.722 46.599-22.301 70.779-5.5539 20.301-12.696 45.853-26.047 57.455-11.528-0.44818-21.504 8.3566-32.751 5.5532zm31.061-32.84c4.9463-13.744 19.36-44.638 13.304-50.306-7.6894 17.722-21.753 47.138-18.946 60.493 2.249-3.1834 3.8945-6.7222 5.6419-10.187zm-160.05 0.19522c11.499-23.101 1.3883-51.591-3.1574-75.715-2.8147 23.12 10.965 48.52-1.74 70.062-5.0637 7.6853-6.1234 12.719 4.8974 5.6529zm204.77-182.64c18.71-9.0883 36.404-31.087 28.448-52.738-7.9583 14.89-24.145 35.595-33.46 53.367l0.45786 0.57519z" fill="param(fill)" fill-opacity="param(fill-opacity)" stroke="param(outline)" stroke-opacity="param(outline-opacity)" stroke-width="param(outline-width) 0.2"/>
</svg>
