<svg version="1.1" width="512" height="512" viewBox="0 0 512 512" xmlns="http://www.w3.org/2000/svg">
 <path d="m277.09 499.24c-18.721 0.47529-21.656-19.387-4.4758-25.443 5.0351-7.0839 30.502 3.6747 23.642-7.1483-9.3574-12.69-15.137-27.978-26.323-39.896-6.9454 14.057-4.6826 26.993-9.4674 43.543-9.2238 17.083-32.172 0.94397-47.199 9.4648-14.506 7.3739-57.554-3.7973-31.541-21.471 16.811-4.0485 43.234-5.2131 32.062-30.032-3.0078-18.562-21.715-32.116-17.036-52.054 1.8912-13.063 8.56-31.301-2.6932-38.042 12.564-14.598 0.9628-28.698 0.85708-46.587 1.566-9.1011 3.2264-29.302-11.105-21.57 4.5987 22.282-23.156 21.287-32.59 5.8536-21.648-15.128-8.5465-41.436 10.32-51.464 18.567-10.553 11.803-32.912 17.084-49.709 4.0619-9.4155 19.175-25.767 3.4974-23.508 5.2522-9.6974 3.5285-22.998 6.9119-26.228-4.8016-8.2718 12.086-28.656-9.1345-27.688-16.734 2.4567-27.398-7.9908-26.357-21.432-12.364-7.6361-15.095-25.713 3.3794-24.63 18.046-0.74523 24.442-18.453 37.949-27.293 9.8887-12.522 30.994 1.1618 43.523-11.828 17.074-5.3235 7.7306 15.261 17.463 20.811 12.237 14.281 27.987 26.004 34.903 44.144 9.41 20.312 33.583 27.813 43.886 47.076 7.1372 19.844-1.0517 41.16 3.5241 61.54 3.9877 34.665 20.654 66.491 24.342 101.11 2.6987 21.412-7.5582 41.118-9.6755 61.904 2.8149 17.691 10.756 33.555 9.7729 51.799 4.4248 17.504-6.4798 31.952-8.7848 49.323-10.494 13.752 6.096 43.73-18.171 47.504-19.496-0.0601-39.468 4.9058-58.564 1.9539z" fill="param(fill)" fill-opacity="param(fill-opacity)" stroke="param(outline)" stroke-opacity="param(outline-opacity)" stroke-width="param(outline-width) 0.2"/>
</svg>
