<svg version="1.1" width="512" height="512" viewBox="0 0 512 512" xmlns="http://www.w3.org/2000/svg">
 <path d="m322.08 441.33c-15.643 5.2637-33.919-14.906-11.018-19.781 25.745-1.2207 23.517-27.542 20.926-46.053 8e-3 -21.891 5.8568-42.85 14.622-62.731-14.591-5.8799-38.515-2.1178-55.29-11.525 1.6317 20.776 2.8392 41.686-2.5199 62.06 1.7978 22.361-10.547 39.676-23.921 56.151-6.235 24.09-33.721 14.913-52.559 17.47-18.448 3.6812-31.855-16.978-10.848-24.608 14.885-6.1481 32.134-5.2858 32.01-25.908 2.7084-7.6549-4.8764-14.567-6.7601-21.89-7.7974-10.898-7.9073-37.929-24.93-31.203-26.392 9.2246-53.906 14.201-81.694 16.573-16.086 9.8317-38.074 15.924-43.417 36.255-8.6247 2.2233-25.227 6.3983-21.258-7.8408-1.4484-14.474-3.0471-29.396 7.5323-41.018 4.9108-9.7212 17.939-10.899 25.909-17.488 15.438-8.7156 30.894-17.406 46.612-25.61 1.8127-10.323 3.2814-20.715 5.564-30.949-13.137 3.4394-30.434 2.1324-33.815 19.129-3.8936 5.9364-4.9647 16.151-14.257 13.904-25.856-7.5117-18.508 24.325-37.958 32.15-12.413 11.583-3.4525-14.461-17.211-3.8897-12.844 5.0294-19.695-1.151-16.283-13.409-0.33795-10.427 1.4137-21.539-0.21204-31.543-9.0479-16.555-4.4793-37.968-3.455-56.303 3.1036-12.594-22.556-30.942-7.6257-40.757 8.612 7.1017 17.23 11.83 19.47-2.9425 12.248-4.8388 27.313 11.074 33.814-8.2631 13.101-12.749 27.111-24.943 41.499-36.084 29.377-11.042 58.671-23.268 88.96-31.16 17.93 0.73328 35.959 3.1601 53.782 3.5061 28.398-8.753 57.857-14.901 87.333-17.592 18.073 2.5317 36.602 3.7399 54.398 7.0744 18.199 11.579 37.652 21.512 55.056 34.133 11.681 11.54 24.423 22.331 35.458 34.327 6.3312 14.952 13.798 29.621 19.445 44.743 0.4289 14.136 2.9771 28.466 2.1289 42.485-6.1596 25.129-13.158 50.095-20.651 74.797-0.53246 15.268-3.4105 30.943-1.7604 46.105 3.0724 14.592 9.0024 29.56 5.4342 44.521-8.685 6.4515-18.615 12.689-28.801 16.483-19.552 2.3833-42.966 12.35-59.188-3.2691-8.8023-17.773 37.427-9.626 27.458-23.981-17.194-3.5472 1.155-38.744-14.735-16.919-5.7105 8.0124-14.82 14.394-18.699 23.325-2.3333 8.915-3.5799 23.676-14.24 25.332-17.806 3.6236-36.258 2.853-54.308 2.1918z" fill="param(fill)" fill-opacity="param(fill-opacity)" stroke="param(outline)" stroke-opacity="param(outline-opacity)" stroke-width="param(outline-width) 0.2"/>
</svg>
