<svg version="1.1" width="512" height="512" viewBox="0 0 512 512" xmlns="http://www.w3.org/2000/svg">
 <path d="m266.96 446.64c-10.167-1.1619-30.303 2.4277-30.395-14.674 5.4523-9.8262 34.784-19.557 18.107-33.894-8.2856 5.2196-18.896 1.421-26.56 0.0405-3.6229-17.284 21.164-21.954 26.803-36.911 1.4226-11.07 0.36178-23.145-0.54788-34.46-3.2115-9.7342-7.5179-3.9472-15.317-5.2629-9.118 2.4968-17.257-2.7361-22.442-8.2336-4.9297-2.5605-10.766-17.87-16.526-3.2978-9.7908 6.5322-15.469 20.447-29.598 19.624-17.027 0.21738-32.388-7.71-45.433-18.043-13.659-2.9726-26.046-5.939-39.546-9.5262-17.685 7.8016-19.321-12.607-9.9671-24.264 8.565-12.347 20.867-32.86 39.158-24.793 11.605 8.896 37.285 17.377 44.649-0.51811 11.436-13.59 6.4396-21.232-6.3883-31.577-5.4535-14.251-4.7871-30.628-12.169-44.886-2.1636-16.962 0.29382-36.056-13.739-48.578-6.6642-12.738-14.539-31.588-0.41631-42.476 15.766-6.7923 33.855 4.2366 47.107 12.92 16.242-1.5955 33.646-6.1453 49.309-3.0714 18.04 8.1341 28.275-8.8843 41.402-17.637 13.98-10.52 32.22 1.737 29.587 19.355 1.0948 14.53-4.998 27.444-13.218 38.582-10.042 6.8773-6.5668 17.36 5.5051 11.747 17.573-3.1405 35.475-7.1371 52.555-0.87012 8.8161 3.9373 18.628 5.0134 26.026 10.793 11.737 5.1635 17.97 15.528 28.909 21.988 3.5888 12.448 16.316 18.749 17.884 31.88 4.1182 13.066 0.88115 28.798 4.6472 43.491-3.6023 11.906-4.8166 29.14-8.047 40.241-4.7962 13.656-8.8668 28.815-11.25 44.399-6.5245 16.489-8.456 33.137-9.3671 50.898-9.2126 15.127-25.702 11.893-38.119 11.829-16.13 3.7942-25.996-16.815-8.5074-23.053 10.499-9.4011 14.698-23.091 11.088-37.612-3.2332-11.041-1.2147-41.446-19.243-31.677-10.9 10.68-7.8098 31.728-11.341 46.57-0.58332 14.163-9.239 26.558-11.971 40.626-5.1019 16.577-4.9872 38.538-20.282 49.455-7.5438-0.57966-15.698 2.191-22.346 0.87517z" fill="param(fill)" fill-opacity="param(fill-opacity)" stroke="param(outline)" stroke-opacity="param(outline-opacity)" stroke-width="param(outline-width) 0.2"/>
</svg>
