<svg version="1.1" width="512" height="512" viewBox="0 0 512 512" xmlns="http://www.w3.org/2000/svg">
 <path d="m218.52 403.33c6.4806-8.1231 9.2804 7.7076 13.058-2.8908 16.584-9.1738 43.239 2.6429 52.603-16.305 3.8491-7.9159 12.466-14.619 9.5312-24.256-1.7651-12.879-2.4454-25.593 5.4396-26.647 3.843 0.42092-3.0015-12.302 5.4369-7.9288-0.59844-8.5362 5.9039-13.42-2.8528-24.051-6.7628-14.664 20.953 4.1201 18.951 3.9273 5.0158 4.7812 14.459-2.047 20.975 2.8258 2.6205-5.7793 6.4802 6.8767 7.4185-3.1838 5.9193 18.308 22.963 35.152 15.46 55.593 2.3124 16.277-18.084 8.1317-23.575 20.078-2.6155 11.398 13.065 10.911 19.003 12.047 12.159 2.3632 32.295-1.9912 45.043-12.066 5.9409 10.407 18.483-4.2218 14.54-11.877 9.7104-1.561-1.8941-16.171 8.871-10.394-1.6738-7.3039-7.7035-19.259 2.2211-17.197-3.1095-9.6463-6.9472-24.83 6.7891-11.556 15.567 7.1967 24.556 24.492 5.124 34.099-9.0321 4.571-9.6226 20.219 0.12968 12.73 7.9714 3.1035 27.977-1.2418 39.491-11.702 19.085-8.9275 24.413-31.585 14.162-47.539 9.4109 4.2279-9.9356-20.497-16.573-23.37 0.0602-2.224 3.1983-3.7098-2.0342-5.5688 5.1978-3.0271-12.387-1.4649 0.63475-6.5705-4.9012-4.8128-5.8417-6.9275-14.243-13.333 13.603-1.142-8.6318-28.803 5.7006-26.498-5.6671-14.484 7.4239 4.5678 2.1432-10.72-4.8982-17.8 10.311 10.727 3.3011-8.999-2.4298-5.8988-6.2043-19.142 3.4297-7.9471-2.7454-7.8487-9.7582-14.458-2.2872-15.781-8.8139-13.533 13.296 3.121 2.8306-10.361-3.6182-4.3426-6.3128-9.2386 1.3897-5.1447-11.482-13.271-13.898-19.554-28.205-32.804-17.525-16.731-41.999-21.492-65.37-22.026-11.87-1.683-31.69-6.5383-37.382-12.078 19.185 3.4456-21.194-16.849-29.703-12.433-13.673-3.8221-40.687 3.6324-46.174 0.76241 2.5844-6.0177-20.655-4.7151-9.3826-9.5312-43.001-0.60625-75.6 30.615-111.05 50.069-5.5914 3.9718-8.0853 11.943-14.466 4.6982-6.8719 10.877-7.2927 13.085-8.4597 3.7034-8.5101 7.1186-11.857 21.429-22.541 5.705-13.819-2.3002-16.695 16.509-25.055 17.264-7.6548 1.4485-5.5778 18.535-22.97 17.053-19.489 8.88-26.586 35.218-49.834 41.563-8.0557 17.182 23.081 16.198 25.094 22.084-8.8853-2.0144-26.892-0.42409-9.2954 7.508 14.436 6.6162 30.541 7.3393 46.15 8.3182 3.9523 5.4432 19.347 30.976 14.168 14.97-0.61747-2.5248 10.169 4.1736 9.2088-5.1413 9.2355 0.0433 17.272 12.372 19.082-4.2909 6.909 9.7753 7.3074 6.0042 8.6316-2.4675 6.3398-2.216 8.8623 8.1591 11.993 4.9647 9.3457 15.169 2.5674-14.606 15.784 0.9783-6.9263 16.62-26.363 31.793-33.992 50.58-9.2475 8.4223-8.4022 29.658-23.168 27.638-11.497-0.75105-37.007 13.637-21.691 15.912-2.7456 8.9517 12.258-1.8837 13.951 7.2098 7.0683-11.792 16.11 7.5455 18.119-3.3881 11.395-0.47332 23.667 1.2382 34.514-0.60056 7.5042-7.3895 13.468-21.788 21.479-12.733 2.4125-9.1078 5.5593-13.231 9.0074-7.7217 2.5906-10.068 15.843-20.851 22.061-18.614 5.4041-14.437 19.758-20.307 24.646-35.485 6.0249-10.729 1.305 20.129 8.6357 23.39 14.758 10.354 1.1857 35.497 8.4009 40.831-7.5303 7.7141-32.391 18.335-29.676 24.823 11.26-2.0135-0.50747 18.25 10.017 5.5947 3.656-0.73629 1.9287 10.102 5.3588 4.2769z" fill="param(fill)" fill-opacity="param(fill-opacity)" stroke="param(outline)" stroke-opacity="param(outline-opacity)" stroke-width="param(outline-width) 0.2"/>
</svg>
