<svg version="1.1" width="512" height="512" viewBox="0 0 512 512" xmlns="http://www.w3.org/2000/svg">
 <path d="m201.28 393.32c-2.6616-0.69554-1.9099-2.088 1.9639-3.638 3.2997-1.3203 3.8723-2.1157 6.6074-9.179 4.0414-10.437 3.9363-12.767-0.74516-16.529-4.232-3.4009-13.216-16.526-13.298-19.428-0.0675-2.3942-3.0303-13.784-3.9728-15.273-0.38164-0.60268-2.3968-1.3835-4.4782-1.7352-2.9179-0.49297-4.117-1.2826-5.2372-3.4488-1.4342-2.7734-1.4845-2.7887-3.9191-1.1935-2.4148 1.5823-2.5105 1.5605-4.5861-1.0425-1.8692-2.3443-2.3077-2.5025-3.7096-1.339-1.4 1.1619-1.831 1.017-3.6101-1.2142-1.3985-1.7539-2.6076-2.3801-3.9284-2.0347-1.168 0.30546-2.9826-0.34555-4.6788-1.6786-1.5712-1.2348-4.2074-2.2317-6.0891-2.3026-5.2333-0.19736-12.261-2.1726-18.309-5.1461-3.0625-1.5057-6.4545-2.7511-7.5377-2.7676-1.0832-0.0165-2.7925-0.65248-3.7985-1.4133-1.1142-0.84274-3.9397-1.3834-7.2299-1.3834-6.3836 0-9.7027 2.2415-13.75 9.2859-1.3829 2.4069-3.2826 5.3874-4.2215 6.6233-0.93888 1.2359-1.7112 3.1439-1.7163 4.24-0.01127 2.4388-3.7011 9.9077-7.7896 15.767-1.6702 2.3938-3.759 5.6798-4.6418 7.3022-2.4357 4.4764-5.6794 4.0327-9.4312-1.2902-2.5002-3.5471-3.4906-4.24-6.0607-4.24-6.3104 0-7.6764-1.4321-10.725-11.244-1.6915-5.4445-3.4946-9.4653-4.5366-10.116-0.95113-0.59399-4.1265-1.3795-7.0565-1.7456-3.9173-0.48943-6.6158-1.5722-10.196-4.0912-7.2898-5.1286-8.1845-6.8104-9.2746-17.433-0.55796-5.4374-1.7605-11.108-2.897-13.662-1.2694-2.8524-2.2203-7.7867-2.7427-14.233-0.43978-5.4267-1.1874-9.996-1.6614-10.154-0.47396-0.15798-0.66608-2.6468-0.42692-5.5307 0.34635-4.1765-0.0054-6.1249-1.7285-9.575-2.0862-4.1772-2.1212-4.636-0.98309-12.869 0.64911-4.6956 1.7508-9.7123 2.4481-11.148 0.71146-1.4649 1.0455-3.9815 0.7611-5.734-0.51768-3.1901 0.80643-6.5447 6.1689-15.629 1.3594-2.3028 3.3196-6.8948 4.3561-10.205 1.9621-6.2656 3.5493-7.8863 4.0771-4.163 0.39633 2.796 2.1529 2.1992 3.849-1.3076 0.73183-1.5131 1.6789-3.4763 2.1047-4.3627 0.42576-0.8864 0.52363-2.2644 0.21748-3.0622-0.70314-1.8324 0.53398-1.8541 3.1032-0.0546 1.7332 1.214 2.14 1.219 3.1196 0.0386 0.68387-0.82401 0.87926-2.4833 0.49724-4.2227-0.49384-2.2484-0.30894-2.8652 0.85888-2.8652 0.8185 0 1.5069-0.742 1.5298-1.6489 0.02499-0.9894 0.77516-0.26013 1.8756 1.8234 2.7349 5.178 3.8812 5.3929 3.2086 0.6015-0.31454-2.2406-0.71645-4.5548-0.89313-5.1428-0.23888-0.7949 0.39613-0.79823 2.4765-0.013 2.2107 0.83444 2.9631 0.7884 3.586-0.21944 0.63355-1.0251 1.3425-0.86568 3.612 0.8122 1.553 1.1482 4.0412 2.1484 5.5293 2.2227 1.4881 0.0743 3.291 0.92544 4.0065 1.8914 1.918 2.5895 6.9555 4.3839 12.307 4.3839 5.7659 0 6.0563-0.45288 10.4-16.217 2.6701-9.6908 3.6599-11.853 8.1253-17.747 2.7967-3.6915 5.0848-7.1462 5.0848-7.6771s2.1481-3.3157 4.7735-6.1883c3.8765-4.2415 6.4882-5.9967 13.898-9.3401 5.5495-2.5041 11.708-4.508 15.72-5.115 3.6275-0.54888 11.895-2.2571 18.373-3.7959 23.369-5.5517 24.461-5.6618 50.212-5.0609 14.027 0.32728 27.417 1.1456 32.703 1.9986 4.9231 0.7944 12.828 1.784 17.567 2.199 4.7388 0.41506 9.0157 1.0017 9.5041 1.3035 0.48845 0.30189 14.207 2.4938 30.486 4.871 31.454 4.5931 37.437 5.7461 49.384 9.5166 4.1458 1.3083 12.706 3.4078 19.022 4.6654 14.612 2.9092 18.234 4.12 30.915 10.333 10.982 5.3809 36.257 21.185 43.189 27.006 3.2347 2.7164 4.9863 5.4142 8.0487 12.397 4.6565 10.618 5.3634 14.244 6.6821 34.282 0.80717 12.265 1.3728 15.91 2.86 18.43 2.4336 4.1246 5.5181 16.677 5.9856 24.359 0.20453 3.3604 1.0607 7.4418 1.9026 9.0698 0.84188 1.628 2.5868 6.3031 3.8775 10.389 1.2908 4.086 3.1514 8.1572 4.1348 9.0472s3.1575 4.4 4.8313 7.8c2.5989 5.279 2.9552 6.8194 2.4397 10.548-0.36046 2.6072-0.0466 7.0227 0.77916 10.961 2.1667 10.335 5.3606 29.411 6.3103 37.689 0.4756 4.1458 1.2176 8.3857 1.6488 9.4222s1.4744 3.9313 2.318 6.4329c1.463 4.3383 1.4471 4.7186-0.34457 8.2306-1.0332 2.0252-2.933 4.3731-4.2219 5.2176-1.3847 0.90727-2.3434 2.4321-2.3434 3.727 0 3.0224-1.288 3.6186-9.4222 4.3614-3.8866 0.35487-9.4411 0.93211-12.343 1.2827-4.4906 0.54255-5.3695 0.39551-5.9001-0.98701-0.76146-1.9844 2.3238-7.2378 5.4559-9.29 3.5043-2.2961 4.68-7.3619 4.7318-20.389 0.0531-13.373-2.0218-22.143-6.8127-28.794-1.4707-2.0418-2.9537-4.4543-3.2954-5.3612-0.34175-0.90689-1.2707-1.6489-2.0643-1.6489-0.80744 0-1.4429-0.81749-1.4429-1.8562 0-1.0209-1.2536-2.783-2.7857-3.9158-1.5321-1.1328-3.2139-3.288-3.7373-4.7893-0.82845-2.3765-1.1996-2.5971-2.8676-1.7044-1.0538 0.56398-1.916 0.64617-1.916 0.18264 0-0.46351-1.4799-2.7044-3.2886-4.9798-1.8088-2.2754-3.2927-4.8923-3.2978-5.8155-5e-3 -0.92316-0.59182-1.902-1.304-2.1753s-2.8804-2.7991-4.8184-5.613c-1.938-2.8139-3.9332-4.863-4.4338-4.5536-0.50059 0.30939-1.5363-0.33144-2.3016-1.4241s-1.9869-1.9866-2.7147-1.9866c-0.72779 0-2.2938-2.014-3.4799-4.4755-1.7462-3.6238-2.5601-4.4182-4.2766-4.1744-1.7266 0.24521-2.12-0.14817-2.12-2.12 0-1.7929-0.48892-2.4211-1.8844-2.4211-1.3819 0-1.8844-0.62815-1.8844-2.3556 0-1.8692-0.47481-2.3555-2.2999-2.3555-1.265 0-2.562-0.424-2.8823-0.94222-1.1305-1.8291-2.2791-0.86966-7.473 6.2425-3.4848 4.7717-5.2469 8.0944-5.2469 9.8933 0 2.0537-0.44251 2.7086-1.8303 2.7086-1.4797 0-1.8858 0.76709-2.12 4.0044-0.25823 3.569-0.52931 3.9784-2.4932 3.7652-2.0519-0.22278-2.1622 5e-3 -1.604 3.3086 0.46828 2.7718 0.0743 4.5354-1.801 8.0624-2.5212 4.7416-3.1208 9.913-1.3544 11.68 1.466 1.466-1.098 8.8093-5.7955 16.598-2.0518 3.4019-3.7305 6.5554-3.7305 7.0078 0 1.5186-11.508 18.524-17.366 25.663-7.6978 9.3802-9.0136 11.606-9.0308 15.278-0.0253 5.4099-0.87165 5.8894-11.023 6.2446-26.1 0.91321-28.024 0.61313-25.904-4.0399 0.59018-1.2953 2.1475-2.6248 3.4606-2.9544s2.3876-0.92783 2.3876-1.3294c0-0.40159 0.82825-0.94677 1.8406-1.2115 1.0123-0.26473 3.4836-3.0235 5.4919-6.1306 2.0082-3.1071 5.5496-7.922 7.8696-10.7 6.6174-7.9226 9.797-13.373 13.599-23.31 2.623-6.8561 2.2014-10.413-2.1186-17.873-1.3049-2.2534-3.0722-6.2814-3.9274-8.9511l-1.5549-4.854-4.5878-0.29177c-2.5233-0.16047-7.1947 0.11409-10.381 0.61014-6.1922 0.96405-28.076-0.70677-32.669-2.4943-3.6678-1.4274-16.664-3.2095-18.698-2.5639-1.406 0.44626-1.9459 1.8471-2.4756 6.4241-0.37262 3.2194-1.2438 7.738-1.9359 10.041-0.85428 2.8431-0.95359 4.5552-0.30926 5.3316 0.98094 1.182 0.28985 9.4828-1.103 13.249-0.41488 1.1216-1.6693 2.3298-2.7876 2.6847-1.4795 0.46956-1.7508 0.92778-0.99619 1.6824 1.2005 1.2005 1.4009 4.429 0.27493 4.429-0.41917 0-1.5399 0.56873-2.4906 1.2638-1.6608 1.2144-1.6639 1.4329-0.0796 5.5812 1.6106 4.2172 1.8266 4.3791 9.3166 6.9805 7.0934 2.4637 7.8992 3.0161 10.757 7.3743 4.0137 6.1217 5.5414 11.1 4.2658 13.9-0.90761 1.9929-1.4834 2.1084-9.8077 1.9679-4.8639-0.0822-10.037-0.61212-11.496-1.1778-1.4588-0.56565-4.399-1.0285-6.5337-1.0285s-6.3697-0.69821-9.411-1.5516c-6.6376-1.8624-7.4003-1.3689-8.0311 5.196-0.35883 3.7343-0.0493 5.2623 1.5096 7.4515l1.961 2.7539-4.9099 1.0926c-15.25 3.3936-27.698 4.6226-32.941 3.2524z" fill="param(fill)" fill-opacity="param(fill-opacity)" stroke="param(outline)" stroke-opacity="param(outline-opacity)" stroke-width="param(outline-width) 0.2"/>
</svg>
