<svg version="1.1" width="512" height="512" viewBox="0 0 512 512" xmlns="http://www.w3.org/2000/svg">
 <path d="m225.36 420.41c-20.98-12.981 14.151-29.6 12.397-47.519 5.8771-17.418 3.912-46.827-21.255-41.252-19.078-0.98477-36.703-16.875-52.031 1.4526-21.59 4.2223-36.547 23.032-58.136 27.423-10.479 14.267 0.32024 39.712-14.947 48.19 2.9433 20.755-24.453 9.9462-30.831 4.7305-2.2444-23.427 21.833-36.986 27.118-57.927 15.788-24.006 44.839-36.246 59.562-61.121-14.959-20.716-34.981-37.446-51.634-56.863-21.179-6.8736-31.369 17.683-49.893 20.201-24.02 5.3658-46.821-27.558-22.103-42.435 12.913-10.28 3.626-24.418 6.9895-35.596 14.626-17.14 2.2117-32.865-6.8112-48.335-7.8847-30.991 20.701 7.961 25.443 4.9966-7.6546-17.561-3.012-43.351-25.541-50.79-14.961-8.4208 22.731-0.89825 25.68 8.2368 7.3527 16.851 10.187 45.782 35.336 42.999 18.126 7.6928 40.645-8.6104 42.693-27.943-2.533-16.477 25.363-32.449 29.959-28.408-21.407 11.532-19.142 34.824-26.523 54.192-5.6913 9.7677-22.062 16.835-0.38725 15.479 9.8001 4.8834 33.4-7.2873 35.352-0.95591-10.002 8.8426-16.783 15.275 1.5835 16.203 35.102 1.6581 70.377-3.8672 105.35 1.0155 36.917 1.0496 74.605 3.4121 110.6-6.573 21.691-4.0578 44.612 1.2222 60.426 16.939 14.718 12.895 47.412 12.125 42.595-14.378-3.4101-23.453-30.587-33.216-50.975-37.658-33.329-6.8072-68.758-6.2721-100.27 7.7047-15.054 4.7553-29.542 12.434-44.808 15.941-14.209-0.3383-29.064 1.2702-42.622-3.4048 11.419-5.5937 20.491-8.1368 3.5389-10.553 14.069-7.4253 30.433-11.551 45.103-2.6142 19.422 2.2787 38.128-10.73 57.462-13.836 39.128-9.5985 83.237-7.6765 118.83 12.384 19.093 9.6363 29.747 34.146 18.92 53.587-3.7995 16.482-34.536 8.8727-34.426 15.534 17.97 25.291 12.283 57.152 12.641 86.1 11.8 17.289 19.361 37.884 13.944 60.168-5.6906 19.118 13.427 43.774 1.7672 57.707-8.9035-14.243-11.425 21.008-28.224 14.436-5.3727-5.5635-24.39-0.6454-10.552-12.998 14.321-12.345 26.464-33.063 18.295-51.935-6.6026-15.04-15.611-43.256-35.9-32.502-8.2079 8.5995-16.786 12.702-19.317 18.068-6.4816 19.719-30.73 26.486-43.869 42.073-15.635 11.383-17.621 31.861-37.532 38.847-8.3612 0.61813-33.568-2.7731-19.236-16.155 14.443-16.872 40.307-18.817 52.035-39.916 16.039-14.149 19.523-41.854-3.5504-50.921-9.6856-4.7928-16.191-22.826-28.063-11.603-22.031 10.724-41.584 28.269-67.149 29.574-9.3878 10.436 2.7701 36.123 2.3779 51.336 5.7489 10.538 3.2106 23.886-7.4688 13.973-0.29748 16.245-15.145 37.2-31.938 24.7z" fill="param(fill)" fill-opacity="param(fill-opacity)" stroke="param(outline)" stroke-opacity="param(outline-opacity)" stroke-width="param(outline-width) 0.2"/>
</svg>
