<svg version="1.1" width="512" height="512" viewBox="0 0 512 512" xmlns="http://www.w3.org/2000/svg">
 <path d="m403.44 384.22c-0.21018-19.097 6.4273-36.848 11.295-55.043 16.169-18.489-3.4592-34.361-7.0215-52.789-6.0429-19.959 11.165-36.703 8.9315-56.375 3.756-11.816-15.363-26.622-9.9644-33.595 25.279-14.367 56.517-19.477 76.07-42.667 11.139-2.4661 19.67-25.864 13.864-27.867-8.6502 9.9075-16.306 18.587-23.743 29.951-19.055 17.146-45.829 19.709-68.889 28.834-22.176 5.13-44.493-4.6908-66.894-1.4746-28.962 0.87219-58.93 3.5841-86.302-8.2025-18.706-7.7737-40.344-10.85-58.406 0.46563-25.886 12.146-49.004 29.219-68.892 49.686-14.957 19.128-21.39-23.004-29.71-14.42 8.9239 9.4073 12.45 24.537-4.4707 25.733-15.714 10.508-33.033 18.397-49.454 27.789-26.582 11.633-17.19-23.897-25.788-36.056-4.1891-1.1694 1.2248 19.138-3.7265 25.934-3.4838 21.017 22.851 29.526 38.536 21.252 12.464-2.4938 34.496-24.817 33.445 0.26953 5.984 16.997 23.91 27.027 24.261 47.379 16.179 12.936 32.904-4.8331 36.922-20.138 17.369-15.043 3.9034 17.61-0.87874 24.486-6.0546 20.117-18.226 37.422-33.665 51.244-13.028 9.9144-13.405 20.785 5.2795 16.61 14.749 1.0771 12.341-21.188 24.814-27.349 6.6355-17.833 21.235-31.949 34.255-44.961 10.598-15.304 18.645 8.4848 32.462 4.4321 12.901 0.91881 29.21-25.065 26.941 1.4711-4.0141 22.679 19.671 32.419 35.321 42.236 12.836 2.7286 50.27-12.276 30.243-25.733-14.537-5.3896-21.654 17.092-36.34 3.8291-14.411-12.42-3.0893-48.18 17.53-44.643 19.244-11.519 14.025 30.152 29.448 10.4 7.205-10.478 18.422-29.738 28.08-9.2435 14.143 17.148 3.7419 41.485-9.8577 55.515-5.1539 9.4144-38.96 36.326-10.645 33.141 7.9213 0.64136 15.751 1.3967 13.898-9.0534 11.88-17.863 17.776-39.876 34.212-55.045 6.9968-9.6928-6.7914-46.085 13.897-24.869 25.26 7.8191 26.983 34.335 14.852 54.19-0.56376 13.915-32.462 38.468-4.156 35.439 4.6085-0.29902 9.9924 1.4305 14.245-0.7628z" fill="param(fill)" fill-opacity="param(fill-opacity)" stroke="param(outline)" stroke-opacity="param(outline-opacity)" stroke-width="param(outline-width) 0.2"/>
</svg>
