<svg version="1.1" viewBox="0 0 512 512" xmlns="http://www.w3.org/2000/svg">
 <path d="m210.32 471.92c-1.967-0.85521-3.5764-2.005-3.5764-2.555 0-0.55005 1.1001-2.4424 2.4446-4.205l2.4446-3.205-5.233 0.61505c-4.4202 0.51947-5.7681 0.28437-8.6784-1.5143-4.2878-2.6499-3.9188-3.1842 6.567-9.5183 10.657-6.4371 11.283-7.258 11.489-15.055 0.0934-3.5452 0.72046-10.523 1.3933-15.506 1.4292-10.585 0.71168-32.432-1.3794-41.996-2.7674-12.659-4.2204-22.771-5.232-36.411-0.57234-7.7177-1.6761-16.471-2.4528-19.453-1.9794-7.5998-10.071-28.939-16.897-44.561-5.6664-12.969-5.8929-13.308-13.343-20.028-4.6856-4.2263-9.7821-10.112-13.352-15.419-10.443-15.527-13.478-18.938-21.461-24.125-8.3303-5.4124-12.145-9.5735-19.189-20.93-11.904-19.193-19.357-37.037-24.406-58.424-4.6307-19.618-7.7777-30.039-10.713-35.475-2.6434-4.8949-7.6324-8.7984-22.393-17.521-8.4961-5.0204-8.9891-5.1815-15.85-5.1815-6.6739 0-7.4106 0.21958-12.794 3.8149-3.142 2.0982-6.6944 3.8149-7.8941 3.8149-2.6641 0-12.952-7.58-16.37-12.061-2.3012-3.017-2.4074-3.5581-1.3744-7.0058 1.2117-4.0444 4.907-8.9795 7.938-10.602 1.0422-0.55778 10.545-3.3098 21.117-6.1154 10.572-2.8058 22.87-6.4532 27.329-8.1056 7.7583-2.8752 9.1307-3.0594 31.95-4.287 13.114-0.70563 24.809-1.5776 25.989-1.9377 3.211-0.97975 2.7925 1.6694-1.7466 11.056l-3.8925 8.0492 1.985 4.0857c2.3608 4.859 2.4618 5.9423 0.55445 5.9423-1.8946 0-1.9236-0.09588 1.8699 6.2036 4.0978 6.8049 6.9462 14.229 12.256 31.945 4.877 16.27 11.882 35.516 16.87 46.347 4.1088 8.9228 9.3689 15.245 13.425 16.136 4.2987 0.94418 12.76-3.5607 27.584-14.687 7.0812-5.3147 16.223-11.41 20.314-13.544 6.6801-3.4851 8.6568-4.0228 19.374-5.27 14.049-1.6347 20.115-3.7139 35.556-12.187 25.685-14.094 35.524-18.251 46.779-19.766l7.3422-0.98809 19.482 10.436c48.166 25.801 51.624 27.19 89.579 35.965 9.0322 2.088 14.512 4.851 20.758 10.466 4.888 4.3946 12.102 14.854 14.953 21.679 0.81268 1.9457 4.2592 8.2106 7.6587 13.922 5.9028 9.9168 19.182 40.469 18.247 41.985-1.1792 1.908-2.67 32.448-1.7862 36.592 0.73073 3.4263 0.67731 4.3178-0.23788 3.9664-1.3895-0.53315-2.8098 10.069-1.9454 14.521 0.51697 2.6626 0.4679 2.6384-1.1247-0.55401-1.3514-2.7088-1.7568-6.8434-2.1509-21.935-0.43947-16.828-0.61697-18.371-1.866-16.213-1.3008 2.247-1.5007 1.6319-3.4729-10.687-2.8423-17.754-7.2785-37.937-8.2117-37.359-0.42009 0.25948-0.76382 3.7944-0.76382 7.8549 0 4.0605-0.45369 13.041-1.0082 19.956-1.6983 21.179 0.33048 31.489 10.94 55.606 2.4433 5.5533 6.398 13.493 8.7881 17.644 4.9465 8.5901 7.0304 13.787 7.0304 17.533 0 1.4273-1.7837 5.3403-3.9668 8.7021-9.1384 14.072-19.548 41.351-33.588 88.017-3.7073 12.322-4.7427 14.678-7.8472 17.857l-3.5765 3.6627 1.1232 4.866c1.5803 6.8459 1.5211 7.1358-2.3258 11.394l-3.449 3.8175-12.049-0.0219c-9.7543-0.0183-12.806-0.36488-16.025-1.8264-8.6308-3.9189-7.0545-7.6156 6.3606-14.917 8.3102-4.5227 12.398-7.6071 12.398-9.3539 0-0.5439 2.9592-7.2287 6.5758-14.855 8.5254-17.976 20.516-48.067 22.956-57.608 2.9054-11.36 3.5161-23.728 1.512-30.621-2.1309-7.3301-8.9744-24.552-10.243-25.776-0.67573-0.65219-0.79676-0.31839-0.38289 1.0564 0.39808 1.322-0.67869 4.75-3.1455 10.014-12.22 26.076-29.008 70.805-35.803 95.387-0.81562 2.9511-3.0354 7.6225-4.9326 10.38-3.505 5.0954-3.6857 6.4338-1.7582 13.023 0.4451 1.5216 0.0146 2.4498-1.6319 3.5279-3.8303 2.5064-13.257 4.4213-21.766 4.4213-7.198 0-8.5883-0.28986-11.777-2.4564-1.9882-1.351-3.454-2.9604-3.2575-3.5764 0.52154-1.6344 8.3486-7.2789 14.728-10.621 5.1705-2.7088 5.7787-3.4034 9.3452-10.672 2.0982-4.276 5.0212-9.3243 6.4957-11.219 4.0078-5.1489 6.7892-12.119 13.496-33.824 9.4344-30.533 10.329-34.557 9.7777-43.986-0.63805-10.908-2.5543-15.876-10.279-26.647-7.0238-9.7946-19.119-32.952-21.071-40.341-1.0528-3.9862-0.96133-5.3081 0.77558-11.206 1.0831-3.6777 1.5901-6.6867 1.1267-6.6867s-4.1586 1.9177-8.2117 4.2618c-13.66 7.8992-45.04 19.34-67.932 24.766-19.868 4.7097-33.622 5.4168-47.159 2.424-4.6944-1.0377-10.557-1.8868-13.029-1.8868-5.9661 0-8.1261 2.6088-12.342 14.905-3.2271 9.4121-3.2278 9.4183-3.5761 30.635-0.2802 17.069-0.0529 22.399 1.1616 27.242 1.9366 7.7217 1.9318 21.482-0.01 30.395-2.4399 11.196-1.2257 52.287 2.1711 73.469 2.4898 15.528 2.5107 15.998 0.79673 17.892-2.804 3.0984-10.489 4.8524-23.383 5.3374-9.646 0.36268-12.604 0.15152-15.498-1.1067z" fill="param(fill)" fill-opacity="param(fill-opacity)" stroke="param(outline)" stroke-opacity="param(outline-opacity)" stroke-width="param(outline-width) 0.2"/>
</svg>
