<svg version="1.1" width="512" height="512" viewBox="0 0 512 512" xmlns="http://www.w3.org/2000/svg">
 <path d="m270.74 500.73c-0.58014-0.23946-0.85232-1.4946-0.60483-2.7892 0.39443-2.0633 0.10888-2.3539-2.3135-2.3539-4.3098 0-7.2907-2.5502-6.5438-5.5982 0.84512-3.449 7.6119-10.181 12.582-12.517 8.3459-3.923 9.7844-11.856 9.8387-54.254 0.0303-23.646-0.0842-25.331-1.9714-29.031-3.3567-6.5797-4.6211-11.086-5.6696-20.206-1.4024-12.198-3.5845-18.94-14.261-44.064-5.1333-12.079-11.339-27.31-13.79-33.847-4.8221-12.86-7.3547-17.665-9.8065-18.605-5.2851-2.0281-13.444 15.988-22.242 49.111-2.1621 8.1403-5.8215 19.203-8.1321 24.584-2.6182 6.0976-4.7588 13.016-5.6814 18.362-1.722 9.9784-4.0649 16.639-7.4418 21.156-2.5302 3.3843-6.9145 17.781-16.429 53.947-3.9778 15.12-5.3076 21.825-5.3076 26.763 0 11.68-3.1694 13.765-21.943 14.432-14.413 0.51196-20.071-0.74342-20.071-4.4535 0-1.1394-1.0565-2.4104-2.6259-3.1592-2.1361-1.0192-2.6792-1.9793-2.9119-5.1478-0.18887-2.5722 0.19684-4.2956 1.1358-5.0749 0.78197-0.64898 5.2295-1.5372 9.8834-1.9737 13.605-1.2762 16.875-3.3204 19.747-12.343 0.90304-2.8372 4.3837-10.572 7.7348-17.188 4.5899-9.0618 7.1982-15.916 10.574-27.785 4.2842-15.065 4.512-16.488 5.1979-32.466 0.39454-9.1906 1.1821-18.429 1.7501-20.53 1.5798-5.8427 1.2675-13.603-1.3448-33.42-1.3153-9.9784-2.6605-23.144-2.9893-29.257l-0.59776-11.114-15.376-5.483c-21.278-7.5878-28.197-11.16-36.361-18.773-14.708-13.715-24.497-33.752-33.27-68.1-5.3572-20.975-7.3165-32.268-8.3655-48.221-1.7255-26.239-2.2313-29.218-6.2331-36.703-6.8077-12.733-8.2546-15.814-8.8831-18.915-0.5753-2.8383-1.5762-3.58-11.577-8.5794-6.0211-3.0099-11.65-5.9845-12.509-6.6104-1.2329-0.89819-2.7105-0.77668-7.0134 0.57677-12.29 3.8657-22.7-1.4772-19.692-10.107 0.85969-2.4661 0.78797-3.3565-0.37377-4.6402-2.8828-3.1855-1.8046-7.9864 3.1457-14.007 2.5208-3.0657 5.9786-7.7917 7.684-10.502 1.7054-2.7105 3.7729-5.1861 4.5944-5.5014 0.82154-0.31525 10.577-0.99362 21.678-1.5075 11.101-0.51386 21.605-1.3452 23.341-1.8474 1.736-0.50222 5.368-2.502 8.071-4.4439l4.9146-3.5308 12.098 0.61232c10.972 0.5553 12.551 0.4242 16.959-1.4078 10.275-4.27 14.627-0.88872 24.91 19.353 6.662 13.114 7.0801 14.311 7.4844 21.437 0.34835 6.1395 0.0253 8.7043-1.7325 13.754-1.3967 4.0121-2.3165 9.3286-2.6011 15.036-0.49482 9.9209 1.0804 32.142 3.2134 45.33 2.54 15.705 4.4987 17.471 19.322 17.424 12.08-0.0382 14.611-0.94056 22.266-7.9371 5.6944-5.2048 12.786-15.131 22.625-31.665 9.0134-15.148 14.532-22.119 23.577-29.781 9.0466-7.6632 12.911-12.756 15.325-20.2 4.6996-14.49 13.376-25.021 25.174-30.552 5.3344-2.5011 7.5041-2.939 16.377-3.3045 11.799-0.48615 18.558 1.0917 24.043 5.6129 4.5471 3.7481 5.8756 6.9818 9.6847 23.573 3.7294 16.245 6.3384 22.198 11.948 27.267 6.8536 6.1918 7.2712 5.8457 18.109-15.009 11.905-22.908 13.891-24.849 25.458-24.893 5.9362-0.02221 7.6309 0.41827 14.311 3.7195 4.7096 2.3276 9.4522 5.6199 12.532 8.6999 4.9127 4.9127 5.0094 5.1258 11.299 24.901 3.489 10.97 7.0427 21.6 7.8972 23.622 0.85444 2.0216 4.86 7.338 8.9013 11.814 8.5019 9.4168 13.562 17.827 20.626 34.284 9.3109 21.69 9.336 21.831 9.353 52.397l0.0148 26.736 2.5566 4.3486c1.5985 2.7191 4.8189 5.9339 8.5938 8.5789 3.3205 2.3266 7.716 5.7409 9.7679 7.5872 5.888 5.2983 10.581 17.203 6.7816 17.203-2.1738 0-19.093-9.0468-27.012-14.444-3.8744-2.6403-7.6111-4.583-8.3038-4.3172-1.2276 0.47107-6.1034 19.277-11.549 44.542-3.5306 16.382-4.2294 36.926-1.7962 52.806 1.6476 10.753 1.6528 12.175 0.11432 31.033-0.88679 10.87-1.6074 28.358-1.6013 38.861 0.0128 22.048 2.3038 54.682 4.4243 63.021 3.4725 13.656 3.6128 14.619 2.4896 17.084-2.1107 4.6326-5.432 5.8379-15.939 5.7842-11.871-0.0606-14.609-0.70503-15.01-3.5334-0.22567-1.5888-1.0495-2.2309-3.1695-2.4701-3.7606-0.42429-5.2518-1.7599-5.2518-4.7039 0-1.7922 2.18-4.4614 8.5431-10.461 12.01-11.323 11.893-10.916 11.235-39.172-0.84725-36.403-2.3342-54.562-5.1282-62.627-2.9926-8.6379-3.9105-19.923-2.2002-27.052 2.5301-10.547-0.84465-23.926-12.125-48.068l-5.5769-11.936-0.47743-16.233c-0.26259-8.928-0.82507-16.77-1.25-17.426-0.42487-0.65648-2.0252-1.1936-3.5562-1.1936-2.145 0-3.1336 0.67668-4.3087 2.9489-2.1423 4.1427-21.766 64.568-24.161 74.396-1.0878 4.464-2.8999 14.347-4.0268 21.962-2.7402 18.516-4.8232 24.598-16.634 48.568-9.5657 19.414-12.797 27.926-17.747 46.754-1.2629 4.8035-3.3432 9.7727-5.2546 12.551-2.419 3.5166-3.2329 5.7927-3.4562 9.6654-0.40286 6.9862-2.7464 8.2924-16.374 9.1263-5.5973 0.34248-10.174 0.87965-10.171 1.1937 4e-3 0.31407 0.86001 1.8601 1.9034 3.4357 5.1628 7.7955-1.0121 14.667-14.997 16.689-6.6479 0.96124-16.163 1.1667-18.046 0.38974zm41.967-48.118c9.8903-10.456 14.871-22.262 22.547-53.446 6.3759-25.901 6.5897-28.322 6.5567-74.267-0.0163-22.716-0.38589-41.522-0.82131-41.792-0.43543-0.26911-4.1512 0.88889-8.2572 2.5733-6.4343 2.6396-8.6525 3.0705-16.059 3.1194-4.7266 0.0312-10.137-0.30046-12.022-0.73706l-3.4283-0.79381-0.6135 17.504c-0.33743 9.6272-1.2654 22.644-2.0622 28.926-1.8168 14.324-1.8199 20.057-0.0162 29.483 2.0104 10.506 1.8004 16.712-1.0776 31.841-3.2902 17.296-3.4517 37.698-0.41588 52.55 1.0968 5.3658 2.4174 10.869 2.9348 12.23l0.94066 2.4741 2.959-1.7265c1.6274-0.94958 5.6032-4.522 8.8351-7.9386z" fill="param(fill)" fill-opacity="param(fill-opacity)" stroke="param(outline)" stroke-opacity="param(outline-opacity)" stroke-width="param(outline-width) 0.2"/>
</svg>
