<svg version="1.1" width="512" height="512" viewBox="0 0 512 512" xmlns="http://www.w3.org/2000/svg">
 <path d="m337.29 460.13c-7.1932-2.2334 12.938-10.873-3.4713-5.8802-9.3244-0.31365-39.302 7.8841-34.92 0.24879 11.996-7.2044-19.88-0.52901-14.984-7.2272-11.784-1.4863-21.142-2.3-21.328-8.1998-4.9822-13.166-29.036 2.8232-44.907-0.26793-13.962 3.6521-35.977 3.7701-39.653-13.565-3.2393 23.934-35.342 16.999-51.054 11.878-19.998 0.86109-38.196-21.299-16.902-35.207 15.256-7.4895-3.0462-17.671 5.9024-29.217-8.1674 7.4163 0.20423-15.672-8.3952-8.3681 2.8607-7.0309 2.1866-23.024-2.7187-17.015 0.12019-12.484-2.1341-15.699-5.2966-12.635 1.3021-6.5359 3.7889-14.422-4.1716-11.771 1.5019-9.1716 5.8376-16.346-4.3886-14.651 0.04866-10.953-1.246-38.994-10.824-27.395 1.5591-12.152-2.8671-18.754-6.2538-28.148 1.1952 19.632-4.508-14.42-10.216 2.3104-2.3853-6.6668-2.1335-22.58-9.5721-8.372-3.4926-5.9051-0.18845-31.128-6.5237-20.923-4.5515-9.2974-1.9231-29.187-12.144-25.908 1.0059-11.311-2.1618-18.534-6.7896-21.028 6.8172-13.334 9.9958-29.033 25.389-34.549-4.9276-3.3644-16.392-6.2758-0.76169-8.1365-7.7668-3.9009 13.895-9.4488-1.4371-8.6758 8.4436-6.8654 4.7303-13.665 3.0658-15.221 8.5218-6.4849 7.0681-12.196 1.2608-11.452 11.397-6.8663 7.6115-18.718 2.5362-29.309s-5.7634-12.251 10.421-11.118c17.478 3.6607 34.965 14.536 52.282 5.5017 10.992 0.25065 24.873-2.0582 36.958 1.8967 15.421 0.06046 36.116-12.765 49.005-12.97 0.83189 15.307-18.416 37.526 1.3999 37.276-14.16-2.1835 10.669 11.884-0.42889 6.6183-14.444-4.354 1.6355 9.8189-6.8834 8.1857 1.2842 13.183 32.963 11.655 29.891 20.581-8.2223-0.45792 10.364 13.339-3.3431 8.6735 9.4788 13.581 6.198 17.926 23.9 22.591 13.574 12.868 25.403 19.27 42.252 29.334 14.013 9.0463-9.0745 4.0157 1.8283 11.292 4.2964 3.8509 14.99 14.689 6.0429 12.538 7.9246 6.1225 26.77 26.057 14.53 22.001 13.902 8.4361 18.163 28.154 20.793 33.389 0.73409 3.7575 23.297 24.577 4.6794 14.113-3.3161 3.9684 11.187 14.208 7.0774 18.634 6.3647 6.0672 24.024 23.909 3.578 14.465 1.0862 6.3813 8.2959 24.791-1.1842 13.162 0.94319 9.2648 7.0536 27.331-1.5724 22.523-3.6684 5.4586-2.7304 32.214 1.8046 18.592 0.86142-6.9312 19.149 18.667 18.796 1.6518 9.336 2.9186 16.398 13.292 16.822 2.9738 8.7105-0.26312 24.412 25.716 21.082 7.1381 9.6974 1.6765 16.354 29.211 18.331 9.2254 11.272 7.1034 3.2042 30.843 20.266 25.708 12.921 5.1869 28.65 22.375 32.407 35.75-13.787-2.2408 7.6126 8.8428-8.012 2.7555-11.38-6.6173-12.286 1.5366-25.935-6.555-4.6234-7.1495-2.0506-10.908-6.3867 2.6128-5.2225 1.8651-8.8496-4.7944-15.669 1.7029-8.0014 11.098-19.105 3.4508-33.147 8.0815 16.54-16.493-18.438 1.9999-27.934 0.43421-8.2668 1.0598-16.947 2.2837-25.095-0.0741z" fill="param(fill)" fill-opacity="param(fill-opacity)" stroke="param(outline)" stroke-opacity="param(outline-opacity)" stroke-width="param(outline-width) 0.2"/>
</svg>
