<svg version="1.1" width="512" height="512" viewBox="0 0 512 512" xmlns="http://www.w3.org/2000/svg">
 <path d="m77.528 487.69c-7.3591-1.7234-9.9962-6.4774-6.9068-12.451 1.7976-3.4762 4.1596-4.9728 13.212-8.3711 13.991-5.2523 15.15-7.0705 18.962-29.749 3.8383-22.836 9.313-65.806 9.3068-73.048-7e-3 -8.8003-0.96848-11.771-9.9578-30.785-9.9148-20.971-11.742-25.854-15.982-42.71-5.1829-20.603-7.7574-28.069-15.025-43.574-3.6446-7.7753-8.0013-17.723-9.6816-22.106-3.5556-9.275-8.3745-14.906-14.213-16.609-2.1278-0.62066-7.9073-1.8576-12.843-2.7487-14.562-2.629-20.315-7.6294-25.314-22.003-4.2004-12.078-2.5472-16.218 9.2152-23.076 4.6535-2.7132 7.4495-5.2957 10.981-10.142 5.4782-7.5191 10.165-11.004 22.936-17.053 5.0549-2.3945 9.5901-5.1 10.078-6.0122 0.51973-0.97113 0.53795-3.4712 0.04394-6.0322-1.1162-5.7868-1.1441-11.686-0.05525-11.686 0.48033 0 2.2173 2.0943 3.8598 4.6541 1.6426 2.5597 4.3048 5.9171 5.9162 7.4608 3.4583 3.3133 4.8229 2.6765 8.0624-3.7625 1.0972-2.1808 3.5657-6.0456 5.4856-8.5886l3.4908-4.6235 5.0041 12.423c8.1093 20.132 7.06 18.675 26.399 36.656 3.2758 3.0457 10.047 11.252 15.047 18.236s10.945 14.407 13.212 16.496c3.9099 3.604 10.976 7.7425 15.738 9.2172 1.199 0.37131 3.4131 1.9082 4.9202 3.4153 5.5954 5.5954 27.846 7.4414 70.588 5.8566 15.72-0.58292 61.487-1.4201 101.7-1.8604 79.191-0.86701 81.661-1.0399 90.718-6.3476 9.3167-5.4599 14.347-17.569 18.843-45.36 4.3129-26.656 5.3796-36.902 5.4311-52.16 0.0562-16.67-1.169-23.596-6.8127-38.511-3.771-9.9656-5.3386-11.354-16.034-14.2-14.871-3.9567-22.267-9.4467-23.13-17.169-0.56307-5.0405 2.0194-9.0738 6.4303-10.043 5.0523-1.1097 27.017 3.9553 35.817 8.2594 23.428 11.458 33.518 37.407 33.518 86.199 0 27.468-3.2752 44.761-14.749 77.871-3.7572 10.842-7.9464 24.101-9.3094 29.463-3.6322 14.29-3.0441 18.015 5.5414 35.099 8.8173 17.544 9.6436 22.18 7.965 44.682-2.1766 29.177-1.7418 32.874 6.3248 53.789 5.718 14.825 12.679 28.727 17.776 35.498 4.8738 6.475 5.5045 9.2668 5.3061 23.487-0.22511 16.132-5.9632 45.75-11.124 57.416-3.9495 8.9285-6.502 10.259-22.541 11.751-12.543 1.1666-15.53 0.42353-17.836-4.4373-2.2376-4.7154-0.64374-9.1083 5.0101-13.808 9.6227-7.9996 17.15-33.201 12.565-42.067-1.6292-3.1506-6.3848-6.2907-21.407-14.135-18.405-9.6107-26.972-16.077-44.238-33.391-8.7345-8.759-16.026-15.925-16.202-15.925-0.17684 0-0.52834 3.1808-0.78111 7.0685-0.36972 5.6861-1.2932 8.8799-4.722 16.331-2.3443 5.0942-5.2663 10.228-6.4934 11.409-2.7359 2.6331-2.9715 8.6756-0.71728 18.396 1.503 6.481 1.496 6.563-1.0005 11.666-2.9946 6.1206-9.5425 13.63-22.866 26.222-26.097 24.665-45.792 33.493-63.194 28.325-5.6245-1.6703-9.9997-6.004-9.9997-9.9048 0-3.4761 2.7223-8.7863 5.7297-11.177 2.2302-1.7726 3.4308-1.9614 9.3822-1.4754 9.513 0.77692 13.247-1.109 24.369-12.307 15.232-15.336 16.551-21.29 9.4489-42.629-5.3918-16.2-11.567-40.751-12.402-49.305l-0.67254-6.8943-8.9096 1.403c-10.781 1.6976-32.908 1.9622-65.055 0.77795l-23.972-0.88314-0.85513 21.845c-0.47032 12.015-0.87061 27.11-0.88954 33.544-0.0335 11.413 0.0443 11.844 3.1767 17.618 1.7661 3.2551 6.8787 10.435 11.361 15.954 12.948 15.944 16.279 24.019 14.098 34.185-1.7895 8.344-7.1036 12.84-15.177 12.84-8.6383 0-12.387-5.32-11.376-16.146l0.60029-6.4283-9.2692-9.5122c-9.8079-10.065-14.244-16.808-22.314-33.916-6.5545-13.896-12.039-27.974-16.04-41.174-1.8961-6.2555-3.5608-11.487-3.6993-11.625-0.78342-0.78343-7.6938 12.66-14.251 27.722-4.1436 9.519-9.7441 22.133-12.446 28.032s-7.1294 16.692-9.84 23.986c-7.2452 19.496-8.7644 22.325-11.988 22.325-2.9126 0-4.2948 1.4674-10.917 11.59-5.399 8.2529-8.529 9.888-18.684 9.7608-4.2982-0.0539-9.5553-0.50551-11.682-1.0037z" fill="param(fill)" fill-opacity="param(fill-opacity)" stroke="param(outline)" stroke-opacity="param(outline-opacity)" stroke-width="param(outline-width) 0.2"/>
</svg>
