<svg version="1.1" width="512" height="512" viewBox="0 0 512 512" xmlns="http://www.w3.org/2000/svg">
 <path d="m187.99 481.15c-8.2246-1.5664-14.26-3.7043-15.515-5.4962-2.9185-4.1668-1.8581-7.3848 4.4575-13.527l5.8845-5.7225-0.67936-4.974c-0.81864-5.9938-9.9678-40.18-14.076-52.598-2.8883-8.7291-8.3091-18.409-12.27-21.911-1.9678-1.7396-2.1135-1.6634-9.1028 4.7578-17.799 16.352-27.94 23.353-49.643 34.271-17.688 8.8981-19.779 11.123-28.052 29.845-6.771 15.322-9.2257 17.897-16.603 17.416-5.952-0.38771-8.3846-3.3355-8.3846-10.16 0-5.589 6.3538-25.418 11.466-35.784 4.2895-8.6974 16.552-22.626 41.385-47.009 10.145-9.9614 18.246-18.304 18.003-18.539s-3.9286-2.7473-8.1883-5.5821c-13.201-8.7854-21.794-18.309-37.015-41.023-7.493-11.181-15.736-22.386-18.318-24.899l-4.6949-4.5691-5.6995 2.8749c-7.3864 3.7258-13.71 3.8642-20.562 0.44997-2.6764-1.3337-5.8486-3.4706-7.0492-4.7486-2.1784-2.3188-2.1797-2.3399-0.61133-10.029 0.86442-4.2381 1.9758-13.537 2.4696-20.664 1.1603-16.744 2.4407-20.926 8.9392-29.194l2.8694-3.651-6.2863-6.6638c-4.2474-4.5025-6.9118-8.3421-8.2147-11.838-2.2534-6.0467-4.4904-16.228-3.7321-16.986 0.41802-0.41802 11.591 2.8874 17.814 5.27 0.94867 0.36324 1.0037-0.12001 0.24202-2.1235-0.54238-1.4266-0.98614-4.5525-0.98614-6.9465v-4.3527l4.5984 0.6564c10.966 1.5653 22.019 7.1559 30.845 15.602 4.9512 4.7377 5.582 5.0429 11.759 5.6897 14.639 1.5327 26.179 7.0051 38.958 18.474 18.26 16.388 30.447 21.244 59.344 23.647 15.698 1.3051 33.001 0.26847 58.481-3.5037 58.277-8.6275 69.464-9.6218 108.22-9.6196 28.514 2e-3 29.245 0.051 40.176 2.7136 14.699 3.5805 16.863 3.9285 19.818 3.1868 4.1111-1.0318 9.7442-6.9432 12.529-13.147 6.6464-14.81 6.9754-33.591 1.0348-59.069-7.9242-33.985-8.4476-37.285-7.9091-49.857 0.32618-7.614 1.2104-14.119 2.566-18.878 2.908-10.208 9.7652-23.787 15.004-29.71 12.692-14.352 36.762-23.485 54.602-20.717 13.033 2.0222 21.972 7.5473 25.917 16.021 2.7602 5.9276 2.8799 9.7115 0.43397 13.723-4.3101 7.0684-11.029 10.124-27.205 12.373-12.98 1.8045-19.238 4.7285-23.666 11.056-2.9109 4.1607-2.9368 4.3105-2.926 16.942 8e-3 8.7141 0.8884 19.019 2.786 32.59 3.3204 23.745 4.4315 53.215 2.5337 67.197-2.4215 17.839-7.7874 31.532-18.155 46.327l-5.3655 7.6572 1.111 6.45c0.61104 3.5475 1.5197 10.153 2.0192 14.679 0.49952 4.5258 1.5997 11.182 2.4448 14.791 3.5767 15.275 4.506 26.698 4.2314 52.008-0.31313 28.861-0.16591 29.549 10.293 48.045 7.0238 12.422 9.474 18.5 11.498 28.523 4.5547 22.558 1.942 44.279-6.48 53.871-5.3161 6.0547-12.995 8.3573-19.873 5.9595-5.7118-1.9912-6.4524-7.1368-2.3022-15.997 2.4545-5.2401 2.6623-6.618 2.6623-17.66v-11.977l-8.2288-7.3597c-14.183-12.685-34.776-33.247-40.872-40.81-3.2185-3.9934-6.1619-7.3832-6.5407-7.5328-1.4936-0.59-20.22 20.184-26.001 28.844-3.3718 5.051-9.663 16.285-13.981 24.965-7.6287 15.336-8.1381 16.076-18.072 26.25-11.528 11.807-19.214 16.539-26.865 16.539-8.2931 0-14.045-4.148-14.045-10.128 0-5.6063 2.0488-7.9 16.651-18.642 7.1515-5.2608 8.9278-8.2314 11.162-18.666 2.2325-10.429 2.7457-22.043 1.9323-43.727l-0.71429-19.041-4.0082 1.4142c-8.8155 3.1103-21.232 4.5504-39.35 4.5639-20.298 0.0151-31.977-1.6015-45.5-6.2986-4.5258-1.5719-9.0416-3.1138-10.035-3.4264-1.7424-0.54827-1.7766 0.18035-0.96809 20.63 1.2968 32.8 0.95339 58.42-0.92221 68.809-3.8058 21.08-11.414 31.595-21.474 29.679z" fill="param(fill)" fill-opacity="param(fill-opacity)" stroke="param(outline)" stroke-opacity="param(outline-opacity)" stroke-width="param(outline-width) 0.2"/>
</svg>
