<svg version="1.1" width="512" height="512" viewBox="0 0 512 512" xmlns="http://www.w3.org/2000/svg">
 <path d="m264.64 485.32c0.83267-6.8635-11.672-2.6734-12.237-2.0691 1.879 6.6393-4.731-7.8545-10.673-6.1582-9.032-1.9422-17.066-23.98-20.631-20.996 7.5632 3.2174 10.085 24.714 2.252 14.718 2.4831 7.0724-11.775 0.0703-13.041 5.9407-3.9483 0.20688-13.315-8.9746-10.479 2.087-5.5932-7.9655-25.014-15.359-30.382-10.48-15.015 15.21-40.192-1.7523-58.532-3.1669-18.537 0.48426-48.354-23.763-17.184-32.201 14.148-5.0239 39.004 3.3014 46.028-5.5665-6.4101-9.4175-7.6952-38.345 7.0046-20.622 1.0211-41.804 7.4585-83.276 15.332-124.26 8.625-34 26.075-66.638 52.474-90.087 17.048-7.1552 32.447-15.856 45.454-29.375 5.3304-7.1144 2.1405-24.024-10.359-14.468-14.756 5.4489-5.7649-22.198-17.889-11.937-19.495-6.0397-2.7065-28.041-8.7068-42.205 2.9694-13.438-21.291-37.385-8.093-43.563 15.545 7.0265 28.44 23.871 46.322 12.061 20.706 1.3947 25.213-22.948 38.459-34.093 16.081-19.544 26.034 9.6164 22.386 23.8-1.8717 17.182 3.3379 33.857 1.6767 51.175-0.053 12.544-1.2371 25.227 3.3301 37.202 7.4676 29.263 12.888 60.073 9.0048 90.255-10.984 39.447-11.144 80.725-18.409 120.86-3.059 26.251-4.1141 53.154-0.86235 79.376 3.9405 17.108 33.719 19.76 31.222 40.746-3.236-7.1685-8.7425-7.877-8.3608 2.378-3.3421-8.7594-17.875-2.3777-14.163 1.8563-6.0242-9.9535-23.245-16.392-32.586-18.011-6.1603 0.51884-26.364-6.5525-26.721 0.55758 7.9116 4.6463 15.373 18.921 9.8191 25.638-4.7458-19.306-7.5366 5.8343-11.456 0.61015zm-113.19-30.569c-5.6445-8.4397-19.41 1.3242-2.5134 1.8503 1.1132 1.2155 3.9797-0.18997 2.5134-1.8503zm109.71-20.149c12.132-7.7182 40.175 9.6121 32.823-13.538-1.2326-6.4542 0.35463-36.711-5.782-17.393-6.618 15.507-25.212 21.442-35.234 32.051 2.6995 0.50998 5.5087-0.94914 8.1928-1.119zm27.237-92.101c-4.2882-13.986 5.19-50.045-19.88-33.674-1.5469 7.3478-15.257 28.343-2.6565 28.829 12.02 0.22092 21.399 17.893 24.607 21.542-0.63041-5.5727-1.352-11.135-2.0712-16.696zm-72.399-207.26c10.13-11.438 0.95987 2.7485 0 0z" fill="param(fill)" fill-opacity="param(fill-opacity)" stroke="param(outline)" stroke-opacity="param(outline-opacity)" stroke-width="param(outline-width) 0.2"/>
</svg>
