<svg version="1.1" width="512" height="512" viewBox="0 0 512 512" xmlns="http://www.w3.org/2000/svg">
 <path d="m204.59 437.98c-4.1205-4.1204-3.7988-7.3416 1.1935-11.95 2.2302-2.0589 4.8731-4.0031 5.8732-4.3205 2.698-0.85632 2.3118-3.6149-2.6875-19.195-8.3548-26.038-13.414-33.657-26.798-40.357-11.855-5.9345-17.378-6.5958-26.06-3.12-3.5725 1.4302-10.569 3.4197-15.547 4.4212-12.609 2.5365-17.844 5.4337-32.798 18.153-7.1703 6.0988-16.383 12.959-20.472 15.245-14.509 8.1111-21.241 12.696-29.46 20.062-21.189 18.99-32.114 24.651-42.286 21.912-4.7114-1.2686-11.552-7.4673-11.552-10.468 0-3.0114 3.3545-6.5653 8.0046-8.4805 10.838-4.4638 13.333-6.1148 22.665-14.998 43.057-40.987 48.632-48.081 49.972-63.588 0.33455-3.8728 1.7082-11.581 3.0525-17.13 3.4788-14.359 3.418-14.829-2.2029-17.014-3.9658-1.5413-7.6012-1.8128-24.717-1.846-22.761-0.0442-25.299-0.68597-32.706-8.2707l-3.7696-3.8604 2.0862-8.1793c1.1474-4.4986 2.0887-9.4865 2.0917-11.084 0.01162-6.1854 2.0763-10.314 8.9296-17.856 8.834-9.7216 9.3752-11.083 6.8975-17.352-1.064-2.6919-2.1573-5.8862-2.4297-7.0986-0.4932-2.1954-0.48478-2.197 2.1055-0.39444 2.9607 2.0603 9.0462 4.3104 9.751 3.6056 0.25861-0.2586 0.0178-1.0314-0.53514-1.7174-1.7846-2.214-2.3418-7.0587-1.0149-8.8236 1.1388-1.5147 1.7377-1.2569 6.6356 2.8566 7.3741 6.1932 14.339 9.0932 24.428 10.172 45.88 4.9047 47.501 4.9058 62.889 0.0423 6.6212-2.0927 13.901-4.1119 16.176-4.4872 2.3498-0.38751 11.142 0.068 20.347 1.0544 18.168 1.9466 15.261 2.2446 47.952-4.9166 24.954-5.4665 37.22-6.8163 62.158-6.8402 12.114-0.0117 28.883 0.48191 37.265 1.0968 26.388 1.9357 33.113 0.0463 54.101-15.2 14.526-10.552 18.089-12.686 34.961-20.935 11.64-5.6915 14.001-7.2708 19.238-12.869 10.854-11.603 12.503-21.568 7.0131-42.381-7.8621-29.804-7.6859-36.877 1.2522-50.262 7.2121-10.8 17.781-17.094 30.737-18.303 5.3078-0.49565 6.3101-0.30826 8.1403 1.522 4.448 4.448 1.6374 12.732-8.6786 25.58-8.3083 10.348-8.5902 11.903-5.3533 29.542 3.4377 18.733 3.1486 33.064-0.91956 45.585-3.4982 10.767-12.192 23.715-21.434 31.919-3.8747 3.4398-11.23 9.9755-16.344 14.524-11.202 9.9618-17.702 17.777-21.667 26.05-3.4184 7.134-3.8783 5.7283 6.2386 19.067 7.0352 9.2759 8.4323 12.35 12.996 28.597 1.966 6.9989 4.9013 15.222 6.523 18.274 5.3665 10.099 19.342 22.463 31.977 28.292 4.2708 1.97 4.8766 2.7518 9.7015 12.518 2.8304 5.729 6.6448 14.381 8.4764 19.226 1.8316 4.8454 5.9741 13.906 9.2056 20.135 3.7098 7.1504 6.1126 13.104 6.5186 16.151 0.35367 2.6546 1.1087 5.782 1.6778 6.9498 1.2203 2.504 0.25822 10.322-1.7476 14.201-2.0077 3.8825-5.1851 5.7008-9.9619 5.7008-5.6599 0-8.3252-2.7855-10.888-11.379-4.324-14.498-14.74-32.681-23.095-40.317-6.2222-5.6867-12.059-8.0464-34.336-13.881-8.5808-2.2474-19.069-5.6402-23.307-7.5395-8.8068-3.9465-8.9584-3.8798-9.9934 4.4046-1.0052 8.0452 3e-3 12.271 4.8804 20.468 6.2257 10.461 6.1369 13.11-0.74474 22.217-12.072 15.977-26.679 29.154-38.114 34.384-6.136 2.8063-23.421 5.02-30.058 3.8495-7.4983-1.3225-10.141-5.6779-7.2033-11.87 2.2556-4.7533 6.5193-7.1802 12.622-7.1847 4.796-4e-3 5.1862-0.23048 14.384-8.3648 5.1997-4.5986 10.382-9.8629 11.516-11.698 1.9124-3.0944 1.9541-3.5466 0.57265-6.2181-1.4294-2.7642-21.306-22.069-29.445-28.598-6.1667-4.9467-11.258-6.7256-23.678-8.2723-6.359-0.79193-16.187-2.34-21.84-3.4401-5.653-1.1001-18.207-2.6199-27.898-3.3773-9.6908-0.75739-20.122-1.6804-23.18-2.0511l-5.5604-0.67405-0.69323 3.6953c-1.3512 7.2024 0.29728 20.052 4.3757 34.107 4.7996 16.541 6.44 27.066 5.5591 35.664-1.2434 12.137-5.0506 16.358-16.622 18.431-10.479 1.8774-12.116 1.7159-15.345-1.5133z" fill="param(fill)" fill-opacity="param(fill-opacity)" stroke="param(outline)" stroke-opacity="param(outline-opacity)" stroke-width="param(outline-width) 0.2"/>
</svg>
