<svg version="1.1" width="512" height="512" viewBox="0 0 512 512" xmlns="http://www.w3.org/2000/svg">
 <path d="m143.17 354.46c10.121-3.3676 11.358-4.2898 14.053-10.477 2.7855-6.3949 6.9421-9.2425 23.136-15.85 18.493-7.545 19.579-8.1533 20.794-11.638 0.56739-1.6276 1.1959-2.9592 1.3967-2.9592 0.20081 0 2.4453 0.7088 4.9877 1.5751 3.0225 1.0299 6.7366 1.4405 10.729 1.1862 5.2705-0.33561 7.4394-1.1499 15.837-5.9462 5.3514-3.0566 13.094-6.9276 17.206-8.6024 4.112-1.6748 7.7257-3.6945 8.0303-4.4884 0.81741-2.1301-1.0517-4.9816-4.4004-6.7134-2.2273-1.1518-2.8034-1.9887-2.3506-3.4152 0.3686-1.1614-0.97636-5.4832-3.4901-11.215-3.2451-7.3994-3.9718-10.053-3.5183-12.848 1.1169-6.8827 3.2826-7.9365 32.721-15.921 13.649-3.7021 19.985-6.8172 25.079-12.33 3.2329-3.4986 4.86-4.4299 9.1662-5.2466 8.5008-1.6122 12.356-1.1981 30.847 3.3126 38.037 9.2789 54.659 11.79 78.122 11.799 21.707 9e-3 23.36-0.36507 40.88-9.2522 6.3713-3.2319 12.666-5.8761 13.988-5.8761 1.3223 0 5.7406 1.7578 9.8183 3.9061 8.4871 4.4714 13.72 5.0865 16.829 1.9779 6.9473-6.9473 0.65956-17.537-13.538-22.799-9.9614-3.6923-13.011-3.434-26.401 2.236-20.251 8.5753-29.451 9.9723-48.9 7.4258-16.042-2.1004-35.059-5.9687-64.939-13.209-13.427-3.2535-26.83-6.1957-29.784-6.5382l-5.3709-0.62269-33.461-32.764-8.1708-2.5948c-23.985-7.6169-44.67-11.234-64.243-11.234-17.091 0-25.729 1.8611-45.243 9.7474-15.236 6.1575-17.684 6.8626-25.633 7.3838-4.8338 0.31691-13.536 1.4885-19.337 2.6036-12.375 2.3784-12.536 2.3486-29.828-5.5133-6.2588-2.8457-13.744-5.9456-16.633-6.8886-4.0365-1.3175-6.6669-3.1566-11.359-7.9416-4.9431-5.0414-6.6913-6.227-9.1814-6.227-1.9156 0-3.3014 0.58796-3.674 1.5588-0.43163 1.1248-1.3709 1.4042-3.374 1.0036-1.8722-0.37443-3.1775-0.0583-4.0097 0.97097-2.5391 3.1406-5.3232 5.5744-11.795 10.311-7.0946 5.1928-10.425 9.5151-10.431 13.539-2e-3 1.6606-1.4839 3.923-4.4763 6.8357-2.46 2.3944-5.1309 5.6064-5.9353 7.1377-1.4171 2.6976-1.3432 2.9253 2.3769 7.3239 2.2226 2.6279 4.825 4.6627 6.1794 4.8318 4.2463 0.52993 5.2272 1.1174 3.968 2.3766-1.81 1.81-1.3323 5.4601 0.86879 6.6381 1.5652 0.83769 3.5413 0.60061 8.9523-1.0741 20.95-6.4838 32.141-0.51376 56.931 30.369 10.935 13.623 15.451 17.768 23.551 21.618 5.2058 2.4744 7.697 2.9633 18.881 3.705 7.0862 0.46994 13.086 1.0565 13.333 1.3034 0.24692 0.24692-0.66929 5.3046-2.036 11.239-3.3345 14.479-3.2729 15.367 1.3734 19.787 4.7032 4.4741 18.712 11.652 22.74 11.652 4.358 0 2.3172 1.8549-8.7891 7.9882-5.1738 2.8572-11.949 7.542-15.056 10.411-11.464 10.585-16.805 29.619-8.2494 29.397 1.1427-0.0296 6.0161-1.3643 10.83-2.9661zm67.905-60.702-3.4178-2.1935 6.1416-0.29172c3.3778-0.16045 8.6511-0.15385 11.718 0.0147l5.5768 0.30639-4.3944 2.1611c-5.7166 2.8113-11.247 2.8124-15.624 3e-3zm-47.179-2.0543c-4.5138-1.886-4.6946-4.3791-0.76634-10.573 3.3022-5.2071 4.7343-6.3132 6.2331-4.8143 0.79544 0.79543 0.25172 1.9444-2.0382 4.3069-5.4402 5.6129-4.3655 7.6679 6.0385 11.546l4.9982 1.863-5.4324-0.412c-2.9878-0.2266-7.0526-1.089-9.0329-1.9164z" fill="param(fill)" fill-opacity="param(fill-opacity)" stroke="param(outline)" stroke-opacity="param(outline-opacity)" stroke-width="param(outline-width) 0.2"/>
</svg>
