<svg version="1.1" width="512" height="512" viewBox="0 0 512 512" xmlns="http://www.w3.org/2000/svg">
 <path d="m277.27 494.08c18.986 1.7014 36.346-18.028 57.965-13.398 21.86 1.2614 19.256-21.36 19.2-33.23-1.0736-13.67 8.6606-24.534 1.2813-41.884 7.4436 0.0595-4.0054-19.911 9.7724-10.176 22.767-2.6321 26.872 18.657 18.748 32.584 3.4798 11.363-10.811 20.251-18.111 22.084-6.4077 10.52-13.509 32.855 4.6996 25.774 13.321-2.2444 28.755-35.579 41.452-14.402 6.6032 20.119 14.023-16.535 11.596-23.684 5.0826-20.766 10.518-44.719 5.1898-66.385-10.335-17.441-32.372-26.91-52.216-31.632-22.564-11.903 6.0492-20.987 12.918-30.588 17.206 6.0366 28.483-23.262 33.016-37.305 14.801-4.4731 8.4316-35.009 14.384-47.352-0.84679-13.515-12.046-34.349-18.109-50.029-2.3388-12.073-23.702-27.318-19.212-38.718-13.472-15.05-10.574-35.454-23.025-48.218-14.261-11.412-21.295-21.844-33.356-33.555-15.111-14.301-33.15-25.164-54.187-27.527-14.737-7.5676-35.119-6.2489-52.285-0.70465-19.719-7.9272-43.463-18.183-65.687-8.1599-18.049 5.8266-38.077 21.214-34.318 42.481-18.293 9.3664 6.7583 29.739-9.8322 43.353-4.461 20.561-3.6275 40.955 4.1352 60.658 11.226 10.987-4.9392 33.21-0.76395 50.119 0.4561 14.394 7.3253 31.749-8.444 44.167-15.819 12.987-22.932 32.316-30.46 50.512-5.1659 13.338-13.616 32.869-18.115 36.912-1.3304 15.315-12.221 32.403-8.6857 50.305 1.4823 20.361 10.083 44.637 30.642 52.383 24.156 5.6136 29.517-17.559 29.854-34.524 0.81217-12.778-12.495-18.673-15.44-2.2594-13.925 8.1325-2.1032-10.662-8.2898-18.002-5.0045-22.456 11.195-35.465 27.671-47.487 26.87-23.48 55.987-51.044 61.702-87.929 4.0498-17.059-9.336-24.089-3.2585-41.959 4.329-15.94 7.9365-36.912 10.755-55.543 5.3827-17.321 12.586 33.908 14.269 17.037 8.1262 12.716 21.542 21.011 33.973 27.808 8.752 5.9605 12.614 8.9178 19.237 11.417 0.66131 13.127 14.947 29.698-3.8375 35.866-12.696 11.538-24.365 30.127-21.46 47.168-8.4768 16.611-17.572 32.542-25.429 49.221-2.2754 20.637-17.253 37.223-17.943 58.457-6.6759 23.083-10.266 47.366-7.1598 71.318 2.8654 12.991 13.281 12.421 18.075 9.25 8.8333 3.8285 13.177-5.6851 22.37 0.18919 3.644-5.26 19.7-10.001 11.458-17.944-13.574 3.6999 0.4747-27.257-1.0797-37.442 2.671-9.3763-7.5445-23.056 2.1516-29.493 12.406-15.561 21.026-33.963 33.936-49.326 7.9369-10.615 12.273-23.22 17.669-35.185-0.30967 15.668 12.831 31.401-1.0239 44.565-5.726 14.501 0.0278 32.626 1.9315 45.238 7.9201 20.033 0.82321 44.37-24.537 43.345-22.1 0.53478-23.494 24.192-17.359 38.888 8.8624 2.4118 23.629-19.287 13.275-0.0854 0.62704 4.8275 6.9921 5.8911 10.299 3.0269z" fill="param(fill)" fill-opacity="param(fill-opacity)" stroke="param(outline)" stroke-opacity="param(outline-opacity)" stroke-width="param(outline-width) 0.2"/>
</svg>
