<svg version="1.1" width="512" height="512" viewBox="0 0 512 512" xmlns="http://www.w3.org/2000/svg">
 <path d="m253.28 488.74c-22.674-5.4509 11.896-24.701 9.7004-39.078 13.257-33.06-1.5194-69.232-20.987-96.501-7.4226-7.9178-8.8527-28.378-22.735-19.381-7.8612 7.6986-33.973-5.0751-28.172 11.118 1.4301 22.375-8.7619 44.058-7.1674 66.745-2.6459 8.7775 4.2904 24.315-2.2054 30.04-9.6754 0.9858-3.5197 14.175-5.4509 21.13 5.4404 20.539-22.607 14.692-34.91 13.788-23.053-5.0924 10.737-30.185 10.619-45.46 6.9761-25.529 12.096-51.933 5.6471-78.123-3.5286-16.035-1.9443-32.861-3.4261-48.844-16.791-32.673-33.527-65.375-50.616-97.893-17.222 10.719-41.68 8.461-54.922-5.4903-7.2879-22.08 14.036-35.644 14.837-55.941-12.355-6.7488-43.351 5.4561-54.849-12.976 6.1183-23.695 36.371-32.911 57.7-26.167-12.26-8.9416-33.962-23.189-30.732-44.103-1.6971-9.7807 11.151-39.063 18.469-24.355-11.377 18.926 7.4216 38.126 25.669 38.094 17.798-10.398 40.51-2.5277 60.235-6.8522 11.176 4.1369 26.502 4.5483 14.362-11.784-6.8157-9.5114-32.809-31.32-5.3638-24.53 23.098 6.6404 43.143 33.28 30.174 56.823-3.4072 8.0044-25.88 22.444-4.331 17.412 19.168-7.1952 35.249 7.6754 53.258 8.2019 50.14 0.67888 101.21 6.0633 150.15-7.8117 30.763-4.8671 66.959-13.132 93.896 7.6265 28.1 32.291 23.859 78.212 23.255 118.1 0.22846 16.479-3.3945 33.231-3.3655 49.432 7.0711 13.944 16.714 33.721-2.6739 42.935-12.527-1.4987-17.531-25.11-12.822-37.073 11.189-36.851 9.7842-76.233 9.4778-114.34 2.2233-13.196-17.02-45.502-6.6082-15.969 4.9591 22.917 4.1383 46.904 3.186 70.131-5.3723 26.354-15.62 52.703-13.091 79.789 12.823 23.438-13.094 44.101-11.995 68.221-9.1306 18.029 8.7868 41.021-7.9899 54.406-6.9852 11.803 5.7028 32.001-16.152 33.023-17.239 4.8103-40.754-5.3492-22.83-22.383 4.6367-9.8476 18.989-16.993-0.98475-18.831 1.698-15.739 21.241-30.63 19.607-51.327 3.1606-17.067 5.2247-51.101-12.489-54.907-8.112 3.8434 2.6134 29.061-12.659 15.457-11.167-14.221-4.8139 23.009-18.979 3.4878-10.852 19.421-7.4256-11.776-21.125-12.476-9.1317-14.323-19.841-8.2356-31.844-1.9268-16.306 8.6412-40.581 5.4494-54.262 8.8935 9.9132 39.022 20.599 77.886 28.782 117.32-20.03 6.1901 1.1843 36.236-22.506 40.584-10.029 2.2135-20.635 4.9433-30.784 1.766z" fill="param(fill)" fill-opacity="param(fill-opacity)" stroke="param(outline)" stroke-opacity="param(outline-opacity)" stroke-width="param(outline-width) 0.2"/>
</svg>
