<svg version="1.1" width="512" height="512" viewBox="0 0 512 512" xmlns="http://www.w3.org/2000/svg">
 <path d="m151.17 411.5c-1.1803-0.7977-0.83026-1.5511 2.1291-4.5817 1.9479-1.9949 3.5417-4.2384 3.5417-4.9856 0-0.74718-1.3084 0.22885-2.9076 2.169-2.6057 3.1611-5.6395 4.6905-5.5898 2.8178 0.0104-0.39033 2.3558-3.9033 5.212-7.8066 2.8562-3.9033 6.5949-9.0263 8.3081-11.385 2.4653-3.3934 3.5824-6.5153 5.3563-14.968 2.0891-9.9556 2.161-11.271 1.0577-19.369-0.73203-5.3729-1.0637-15.909-0.8692-27.613 0.40048-24.101-0.13666-26.328-8.1015-33.592-14.607-13.322-17.322-16.532-21.692-25.647-2.3442-4.89-4.9806-11.852-5.8586-15.472-1.021-4.2091-5.3995-14.12-12.149-27.499-5.8039-11.505-10.978-21.934-11.499-23.174-1.0401-2.4799-11.255-8.4412-18.811-10.978-4.2802-1.4371-4.8556-1.4367-7.8796 6e-3 -3.1174 1.4866-3.4244 1.4645-6.9134-0.49637-3.164-1.7783-4.022-1.8984-6.4312-0.90047-2.8677 1.1878-9.2207 0.57712-10.182-0.97879-1.0998-1.7796-5.3888-0.77082-7.8338 1.8424-4.7952 5.1253-9.1901 6.0622-18.439 3.9312-4.3509-1.0025-6.0273-1.9355-7.9077-4.4008-1.3125-1.7211-3.8319-4.0224-5.5987-5.1143-6.603-4.0809-4.8275-11.134 5.6436-22.418 14.764-15.911 20.419-24.705 22.764-35.401 0.30463-1.3896 3.3221-5.5431 6.7055-9.2299 3.3834-3.6868 6.1516-7.4585 6.1516-8.3816 0-0.92305 0.85163-2.4075 1.8925-3.2987 1.0409-0.89122 1.8925-2.6741 1.8925-3.962 0-2.9084 1.816-3.8737 8.7528-4.6526 3.7982-0.42647 5.441-0.28534 5.441 0.4674 0 0.70391 1.15 0.89172 3.3119 0.54088 2.498-0.40537 3.3119-0.20325 3.3119 0.82244 0 2.4099 3.8507 1.4511 7.8212-1.9475 6.0392-5.1693 11.079-7.1587 20.302-8.0138 9.4499-0.87615 16.021-0.14074 19.58 2.1912 2.8365 1.8585 3.076 3.0067 0.88327 4.2338-1.2501 0.69957-1.4449 1.7454-0.97032 5.2079 0.43595 3.1806 0.22286 4.7035-0.80146 5.7279-3.0254 3.0254-1.7334 5.0512 4.5188 7.0856 15.999 5.2061 25.28 6.5573 52.754 7.6804 24.032 0.98247 38.608 2.821 63.872 8.0566 14.136 2.9295 19.813 3.5616 46.828 5.2146 38.479 2.3544 49.097 2.3583 64.184 0.0237 33.193-5.1365 63.02-6.6803 85.809-4.4412 23.574 2.3162 27.163 4.2992 30.778 17.007 1.0636 3.7386 2.5598 8.7135 3.3247 11.056 2.0794 6.3664 1.9132 51.779-0.26793 73.213-1.74 17.099-2.0138 31.768-0.7954 42.612 0.7238 6.4419 0.82475 6.6285 7.2669 13.435 3.5931 3.7962 6.5329 7.4244 6.5329 8.0627 0 0.63831-1.0645 0.16049-2.3656-1.0618-3.1066-2.9185-3.0011-2.3478 1.0354 5.5977 2.7614 5.4356 3.4965 8.0874 3.9086 14.1 0.53853 7.8569-0.64153 12.111-3.098 11.168-0.91423-0.35081-1.6691 0.71875-2.4526 3.4751-1.7696 6.2253-2.7 6.2756-2.7653 0.14955-0.0507-4.7642-0.20768-5.2664-1.0203-3.2646-1.119 2.7566-1.3629 8.9074-0.48765 12.301 0.33552 1.3011-0.4559 0.23656-1.7587-2.3656-2.1138-4.222-2.3542-5.8007-2.2332-14.667 0.0875-6.4118-0.30501-10.942-1.1067-12.774-1.2398-2.8331-1.2436-2.8275-1.8948 2.8388-0.35886 3.1226-1.5763 7.8066-2.7054 10.409-1.1291 2.6022-1.8236 3.6667-1.5433 2.3656 1.6641-7.7245 1.6087-9.9565-0.46025-18.546-1.8865-7.8318-2.0265-9.6252-1.0734-13.754 1.3784-5.9717 1.3791-10.591 5e-3 -30.626-0.97542-14.217-0.92114-16.878 0.46704-22.897 0.87662-3.8009 1.5409-10.491 1.5033-15.14l-0.0675-8.3295-2.14 7.57c-3.1106 11.003-5.827 17.907-10.552 26.819-5.3273 10.048-9.1779 14.891-13.657 17.176-4.5285 2.3103-8.2168 6.6859-9.4127 11.167-1.9131 7.1684-4.3152 23.548-4.1975 28.623 0.0846 3.6466 0.9044 6.7903 2.6893 10.313 2.7591 5.4448 2.7652 6.0589 0.17424 17.56-2.2744 10.097-4.5721 36.544-4.2336 48.732 0.30204 10.877 0.30127 10.882-1.8683 10.579-2.0865-0.29133-2.1458-0.11723-1.5337 4.4973 0.86629 6.5305-1.0216 13.176-4.0724 14.336-2.6567 1.0101-8.5809 1.1186-14.768 0.2705-3.8898-0.53314-4.2556-0.78688-3.4106-2.3656 1.1359-2.1225-0.27796-2.3745-1.9589-0.34904-1.786 2.1519-2.8414 1.7084-2.8148-1.1828 0.0138-1.5016 1.6162-4.8034 3.7887-7.8066 8.4876-11.733 10.582-15.148 11.332-18.474 1.5258-6.7651 2.0477-25.602 1.022-36.882-1.5008-16.504-2.3769-18.73-4.7476-12.065-0.69416 1.9516-4.3651 10.631-8.1576 19.287-6.5434 14.935-6.849 15.946-5.9843 19.794 0.8849 3.9384 0.80289 4.1668-2.8422 7.9176-3.0398 3.1279-3.9477 4.9333-4.7754 9.4959-0.56208 3.0985-1.3397 5.9202-1.7281 6.2703-2.1695 1.9559-12.297 4.7377-15.348 4.2156-7.5743-1.2963-8.542-1.6468-8.542-3.0932 0-0.81957 2.6358-4.9374 5.8573-9.1508 5.2463-6.8615 7.835-11.878 13.963-27.059 7.2809-18.037 6.8834-44.697-0.92795-62.246l-1.9874-4.4649-2.3018 2.655c-1.266 1.4602-2.3018 3.668-2.3018 4.9062 0 1.2382-0.4218 3.3606-0.93731 4.7166-1.3936 3.6654-4.5304 1.669-5.3408-3.3993-1.0878-6.8029-5.3478-5.7982-6.4453 1.52-0.34533 2.3028-1.4475 5.1633-2.4493 6.3567-2.7401 3.2643-3.9809 0.78906-3.2998-6.583 0.5112-5.5333 0.41972-5.9141-1.4208-5.9141-2.1488 0-4.0462 3.5383-5.201 9.6991-0.4029 2.1493-1.2023 3.5484-2.0275 3.5484-2.0831 0-4.1145-5.8292-3.4527-9.9074 0.50386-3.1049 0.35711-3.4909-1.212-3.1888-1.3372 0.25752-1.9496 1.4929-2.4402 4.9222-0.89718 6.2721-1.3724 7.2277-3.5938 7.2277-2.1422 0-2.1385 0.0133-2.2882-8.362-0.0904-5.0578-0.45098-6.275-2.3037-7.7764-3.9842-3.2285-8.2947-3.3299-19.408-0.45659-11.078 2.8642-11.417 2.8654-31.432 0.11408-14.325-1.9692-39.627-3.5994-45.374-2.9234-5.6581 0.66555-21.497 4.2688-22.408 5.0977-0.35424 0.32224-0.0836 7.3989 0.60152 15.726 1.128 13.711 1.5014 15.587 3.956 19.871 2.5484 4.4486 2.7722 5.7311 3.7456 21.468 0.79106 12.789 1.4033 17.253 2.5957 18.925 0.85824 1.2035 2.2553 3.1482 3.1046 4.3216 2.0609 2.8473 1.955 6.6457-0.23003 8.2509-1.7027 1.2508-1.7075 1.417-0.11829 4.1218 1.9436 3.308 2.0832 5.7579 0.52323 9.1816-1.9032 4.177-7.2637 6.165-18.31 6.7905-12.366 0.70031-13.608 0.0339-10.676-5.7317 1.0987-2.1609 3.5964-6.2884 5.5504-9.172 5.985-8.8327 7.1242-16.75 3.7192-25.851-1.0583-2.8286-3.1922-6.7834-4.7419-8.7883-6.1598-7.9692-8.4739-12.115-8.4739-15.182 0-3.3203-4.3226-24.801-5.1591-25.637-0.2725-0.2725-1.4587 1.593-2.636 4.1455-1.8201 3.9461-2.1065 5.9868-1.913 13.63 0.3234 12.773-1.2201 22.983-4.568 30.214-1.8586 4.0148-3.3443 9.5625-4.3671 16.307-1.4447 9.5273-1.4426 10.341 0.0303 11.968 2.1146 2.3366 1.9928 4.5129-0.34423 6.1498-1.7499 1.2257-1.8322 1.7598-0.90716 5.8877 1.1368 5.0725 1.1346 5.0759-5.2114 8.001-4.4789 2.0645-23.726 3.536-26.015 1.9889z" fill="param(fill)" fill-opacity="param(fill-opacity)" stroke="param(outline)" stroke-opacity="param(outline-opacity)" stroke-width="param(outline-width) 0.2"/>
</svg>
