<svg version="1.1" width="512" height="512" viewBox="0 0 512 512" xmlns="http://www.w3.org/2000/svg">
 <path d="m164.92 403.65c6.0838-16.166 5.7773-38.933 13.756-56.733 3.1315-7.5353 10.893-25.116 15.396-25.955-0.0925 12.894 10.274 22.954 10.368 35.278-0.61745 13.141 0.58647 26.047 5.2482 38.353 25.446 6.3154 4.9343-30.526 12.045-44.692 6.9139-17.96-8.7104-44.145 14.786-54.088 14.709-15.973 35.192-20.027 55.161-12.133 18.997-1.636 36.802 3.6584 54.274 8.7509 9.7182-4.9861 20.44-25.458 32.668-9.8756 22.241 12.404 31.529 43.587 17.244 65.294-5.2226 13.216-28.747 34.875-15.078 45.09 7.6104-2.0302 22.601 3.957 21.242-8.6174 7.882-25.197 23.214-47.522 37.326-69.65 12.299-12.545 9.089 25.264 13.647 33.783 9.6142 15.562-19.628 51.087 7.0855 49.55 15.797 3.4249 6.709-19.278 10.355-27.934 3.3671-20.972 3.9705-42.755 11.575-62.736-9.6886-23.439-10.529-49.709-3.3477-74.05 2.338-5.2216 6.3094-38.409 7.1168-28.417 3.284 30.193-1.024 60.221-5.4307 90.031 8.4 10.051-1.1891 30.912 12.199 32.495 3.093-3.842-1.4656-20.876 5.6873-27.561 3.286-8.6285-0.30804-18.821 0.25977-27.957-5.4315-42.355-3.0226-85.207-2.7405-127.79 10.13-20.985-12.448-36.121-28.697-44.266-29.61-9.6431-61.239-6.3099-91.423-1.7997-26.98-0.26558-53.992-0.72827-80.925 0.55917-32.127-6.8761-64.627 1.7483-96.395 6.6102-23.871 7.0501-48.006 19.048-63.717 38.935-9.165 19.82-15.41 41.903-31.041 58.15-16.799 18.408-29.498 40.175-46.036 58.68-14.027 4.2574-32.35 0.0544-29.314 22.518-8.2166 21.754-6.9656 45.29-12.895 67.64-9.1628 16.023-0.7677 41.928 20.379 29.808 20.385-6.2182 32.975-23.54 48.531-36.716 16.349-12.12 13.33-39.374 37.4-44.849 18.276-5.4337 26.561 14.421 44.327 12.256-9.5253 24.012-5.9336 51.067-16.184 75.029-7.1845 15.826-0.92377 21.412 15.146 17.012z" fill="param(fill)" fill-opacity="param(fill-opacity)" stroke="param(outline)" stroke-opacity="param(outline-opacity)" stroke-width="param(outline-width) 0.2"/>
</svg>
