<svg version="1.1" width="512" height="512" viewBox="0 0 512 512" xmlns="http://www.w3.org/2000/svg">
 <path d="m185.3 439.16c-19.017-11.938 26.003-24.775 19.029-44.596 5.0528-21.737-8.3584-41.124-5.1298-62.889 3.111-18.043-22.35-7.6177-32.85-14.109-9.9441-1.0701-15.054 11.082-22.546 15.845-13.445 16.71 32.198 26.17 10.582 41.58 12.782 9.4862 3.0963 34.135-6.0441 43.011-16.903-12.404-11.52-35.626-22.342-51.7-12.262-17.913-28.643-40.218-4.2865-56.773 8.9598-6.7896 15.162-15.62 2.55-23.434-18.418-15.644-6.5555-45.61-32.564-52.04-18.727 0.86411-36.201-13.553-55.249-16.812-19.511 5.2874-43.727-33.529-15.036-36.911 15.817-10.647 29.318-30.371 34.365-44.948-10.159-13.771-5.1968-38.201-9.9136-49.717 23.543-0.76373 12.944 39.64 33.179 37.713 10.232-2.6898 32.28 17.001 29.568-4.3166-5.7179-8.9172-1.5302-42.784 7.9572-31.409 5.2641 15.822 13.136 43.867 11.674 52.675 11.957-11.049 46.037-8.1404 24.375 10.722-6.7552 10.11-17.08 15.245-6e-3 17.834 20.203 6.68 43.688-0.13426 64.754-2.4793 22.387-6.8168 45.803-6.3928 68.769-3.3785 39.15 2.8044 77.352-8.0997 116.18-9.9967 29.782 0.88747 63.046-1.8164 88.757 15.994 21.187 17.861 12.948 54.964-12.123 65.013-5.5958 17.911-6.3527 44.358-0.0397 63.333 18.457 15.917 13.074 37.825 6.8834 58.04-8.8793 19.423 1.2475 52.968-17.704 63.636 4.1074 25.39-25.867 22.093-42.263 16.423 10.513-18.523 33.461-29.064 33.271-53.453 3.128-20.664 0.53308-44.475-8.3482-62.666-12.65-7.2641 5.2252 22.119-12.204 24.339-17.718 14.973-34.162 32.531-41.714 54.956-10.713 4.0064-19.299 11.527-23.221 20.07-12.983 2.7837-50.157 4.8689-29.029-14.552 21.979-8.8694 38.659-24.551 50.245-45.922 3.4566-5.0527 21.552-35.864 7.1884-30.983-7.065 2.3065-3.6458 26.911-15.607 13.282 0.772-16.056-23.095-13.464-19.411 2.0756-15.523 9.0096-5.0268-17.697-16.87-18.724-11.744-7.8328-21.71-15.676-35.868-7.8512-24.458 4.3739-49.614 5.0503-74.232 1.7075-3.0876 20.315-12.278 40.188-12.151 61.212-2.304 18.249 13.681 42.974-9.0123 49.54 0.5 17.228-23.091 9.3293-33.566 10.659z" fill="param(fill)" fill-opacity="param(fill-opacity)" stroke="param(outline)" stroke-opacity="param(outline-opacity)" stroke-width="param(outline-width) 0.2"/>
</svg>
