<svg version="1.1" width="512" height="512" viewBox="0 0 512 512" xmlns="http://www.w3.org/2000/svg">
 <path d="m184.69 504.52c6.5907-18.081 1.6489-42.077 5.7733-63.25 1.8434-13.958-0.55232-50.655 4.3407-49.912 6.8005 29.905 7.1014 60.855 13.69 90.759-18.546 21.172 37.946 19.122 19.446-2.9912-1.6857-26.92-11.433-52.731-11.508-79.962-1.6882-26.541-4.5176-53.82-0.41011-80.135 7.6439-16.696 16.482-32.778 29.066-46.29 9.7332-19.63 43.327 3.5289 62.333 0.8261 16.431 3.0748 33.391 4.781 49.778 6.9246 14.04 8.5003 31.659 12.907 42.204 25.712 2.5491 48.209-11.389 97.418-39.546 136.88-8.4685 14.981-45.105 51.086-11.12 56.89 26.761 3.6549 16.909-27.318 30.129-42.34 18.989-50.68 39.417-101.57 46.902-155.51 15.879 5.2584 34.54 13.899 31.438 34.189 1.3995 45.643 7.3122 91.748 8e-3 137.13-16.247 28.864 41.675 31.986 27.026 3.2107-2.0676-23.626-5.8191-47.528-6.4836-71.459-2.0678-31.302 1.2665-63.531-7.0001-94.062-12.733-25.219-40.523-38.216-56.858-60.897-8.601-8.1397-19.747-35.748-0.93619-14.89 5.3094-17.187 6.3523-46.871-2.6992-66.286-14.667-20.259-27.17-46.86-54.943-50.994-48.853-8.3013-98.284 3.4046-146.2 12.573-17.656-1.0903-54.352 30.737-48.769-4.9128-1.8543-18.226-4.0184-36.593-9.5249-54.135 25.257-1.767 31.912-32.358 40.976-51.421 8.4684-26.992-15.275 11.693-28.362 5.4606-26.844-0.82053-36.168 26.771-61.16 28.885-12.253 9.7231-20.119 5.4627-28.976-5.9066-14.062-5.8673-38.213-29.813-48.994-19.156 1.2174 23.154 14.281 53.868 42.211 51.263 17.071-1.1171 4.0971 29.068 15.424 39.015 12.339 18.568 23.483 36.899 35.294 55.75 18.711 17.968 24.268 44.525 41.201 63.605 10.295 7.2662 21.237 12.538 23.569 26.008 11.718 19.473 12.126 41.425 1.4231 61.442-11.949 28.735-15.732 59.556-17.566 90.356-3.7271 23.42-1.6864 48.072-7.6986 70.844-12.442 19.379 15.389 18.732 26.523 16.789z" fill="param(fill)" fill-opacity="param(fill-opacity)" stroke="param(outline)" stroke-opacity="param(outline-opacity)" stroke-width="param(outline-width) 0.2"/>
</svg>
