<svg version="1.1" width="512" height="512" viewBox="0 0 512 512" xmlns="http://www.w3.org/2000/svg">
 <path d="m236 500.82c33.761-20.746 1.7244-71.453 14.135-104.21 6.7857-26.582-5.0139-80.281 39.608-64.056 28.793 6.4073 66.304-10.769 84.792-14.269 7.7483 36.185 20.826 75.828 0.52 110.53 4.1795 25.452-45.587 40.938-28.527 59.572 37.346-5.7619 38.453-50.955 51.997-78.587 11.236-18.15 10.405-49.325 13.47-61.94 29.78 17.19 35.188 61.985 24.824 89.589-34.875 36.601 44.235 10.488 23.673-20.367-8.8188-34.464 5.0622-75.769-27.255-98.346-9.977-15.518 10.008-31.875 13.981-46.941 14.542 22.731 9.7356-22.839 13.963-35.249-11.841-23.579-39.845-36.459-62.947-47.002-57.507-4.2054-113.94 16.826-171.53 9.9894-26.739 9.8235-48.288-7.1438-51.282-34.872-13.991-25.654 25.187-33.305 23.291-59.959 24.667-20.705 46.686-35.655 70.744-66.843 19.384-31.695-0.49977-17.187-12.007 3.9942 4.5778-6.0738-5.8367-43.981-7.0469-13.507 3.2229 16.251-21.273 45.26-30.219 15.63-3.0535-13.238-16.442-38.52-10.406-4.385 21.474 32.91-11.696 55.222-37.528 50.758 11.428-11.603-1.5578-67.416-7.1975-44.044 7.7338 21.544-3.799 62.133-28.495 61.208-8.8672-8.9171-17.734-17.834-26.602-26.751 13.374-6.0125 35.809-18.828 6.5797-10.71-25.183 2.8547 4.9519-59.437-17.45-25.142-8.6523 45.069-5.8731-55.728-14.531-14.539-6.0378 29 19.568 57.489-6.0378 29-14.548-8.5053-13.843-72.875-20.256-39.716 1.6556 29.92-2.5782 13.583-15.723 5.3608-14.891-3.7085 20.277 30.879 26.799 42.676 8.6272 6.8934 39.496 33.383 8.661 18.303-8.7677 28.463 12.043 45.707 24.383 57.605-12.666 17.608-16.825 14.432-14.601 20.096 7.4276 18.922 7.0088 17.468 23.201 18.814 14.395 31.579 15.744 70.938 45.799 93.612 12.55 25.093 33.28 47.235 41.765 74.137 6.5529 39.325 9.7665 80.364 2.4722 119.73-8.8104 9.9383-39.253 38.366-8.4489 27.866 41.293-8.5893 22.241-61.187 33.009-90.907-0.46922-39.365 10.57 11.413 10.762 26.539-1.5646 15.05 2.3183 31.845-2.8322 45.745-7.6564 9.2775-27.082 29.822 2.4903 21.593zm-127.16-399.75c9.5294 7.2345 5.0923 20.023 0 0z" fill="param(fill)" fill-opacity="param(fill-opacity)" stroke="param(outline)" stroke-opacity="param(outline-opacity)" stroke-width="param(outline-width) 0.2"/>
</svg>
