<svg version="1.1"  width="512" height="512" viewBox="0 0 512 512" xmlns="http://www.w3.org/2000/svg">
 <path d="m173.52 501.25c3.3226-1.6079 5.0155-6.3942 5.5636-15.729 0.28003-4.7697 0.93405-12.575 1.4534-17.344s1.6205-18.062 2.4471-29.538c1.7233-23.927 3.3191-34.716 6.8186-46.103 0.73293-2.3848 1.7671-7.9003 2.2982-12.257 0.53107-4.3562 4.0112-18.882 7.7335-32.28 7.5617-27.216 12.906-49.367 14.634-60.655 1.3267-8.6668 0.29366-8.0791 15.54-8.8412 10.008-0.50028 8.5796-1.4355 21.102 13.821 25.881 31.531 44.157 56.545 44.157 60.437 0 2.8088-9.654 58.712-11.126 64.428-7.1774 27.867-9.3644 34.263-13.425 39.261-6.7396 8.296-7.9647 12.205-4.4196 14.103 2.3612 1.2637 10.231 1.2964 12.556 0.0522 3.873-2.0728 11.704-25.542 13.992-41.934 1.7882-12.81 5.0255-26.527 10.098-42.784 9.7538-31.263 10.61-43.754 3.8115-55.635-1.5737-2.7505-3.7395-7.5312-4.813-10.624-1.8655-5.3745-8.6005-32.205-8.6005-34.263 0-1.9211 3.2956 1.8173 15.889 18.024 13.026 16.763 19.306 23.414 26.249 27.796 3.1453 1.9855 4.2617 3.4972 5.6017 7.5851 0.92048 2.808 3.4036 8.5685 5.518 12.801 5.3258 10.661 10.041 23.178 12.267 32.561 1.9032 8.0246 6.9718 46.763 8.5298 65.191 0.73367 8.6782 1.1456 10.293 3.0114 11.804 2.9051 2.3524 5.1679 2.2036 8.3697-0.55052 3.3272-2.8619 3.4219-7.0316 0.42918-18.898-1.6378-6.4942-2.2602-13.15-3.0051-32.138-0.72471-18.474-1.6174-28.249-3.9053-42.763-4.6153-29.279-8.2701-40.161-17.293-51.487-9.4022-11.803-12.9-23.491-12.929-43.202-0.019-12.734 0.25722-15.024 3.1181-25.848 1.7264-6.5317 4.4037-14.12 5.9496-16.863 3.9593-7.0245 5.8001-15.051 5.7755-25.183-0.0292-12.033-1.5107-14.898-14.228-27.513-8.2538-8.1876-12.424-11.457-20.809-16.313-18.978-10.992-26.437-13.546-39.572-13.546-8.002 0-24.865 2.6786-38.838 6.169-12.873 3.2158-23.906 5.3636-31.989 6.2273-6.2932 0.67244-6.9496 0.5657-8.8301-1.436l-2.0315-2.1624 4.9874-21.984c2.7431-12.091 5.1742-22.635 5.4026-23.43 0.22839-0.79495 2.3999-2.2598 4.8255-3.2553 2.9724-1.2198 5.2308-3.0497 6.9268-5.6127 2.3331-3.5256 9.0683-24.95 10.742-34.169 0.88826-4.8934 3.333-8.8109 6.1682-9.8838 1.1647-0.44075 6.0202-1.7685 10.79-2.9505 9.2003-2.28 11.359-3.5716 13.711-8.2046 0.80777-1.5912 2.8857-4.2104 4.6176-5.8206 3.7385-3.4758 5.1271-7.8012 5.9288-18.468 0.48975-6.5165 0.3059-8.3449-1.0467-10.409-1.5068-2.2997-2.01-2.4506-6.1624-1.8479-8.99 1.3048-18.906 4.3137-21.222 6.4398-1.2941 1.1877-4.632 5.1947-7.4175 8.9044s-6.6044 8.2158-8.4864 10.013l-3.4217 3.2684-8.9483-0.51021c-5.1572-0.29405-9.9768-0.0927-11.376 0.47526-1.3352 0.54201-5.2705 0.91237-8.745 0.82303-5.0072-0.12875-7.4638 0.36243-11.846 2.3685-4.9959 2.2872-5.732 2.3958-7.6427 1.1271-1.1629-0.77212-4.532-5.8992-7.4869-11.393-3.7364-6.9472-6.2689-10.513-8.3157-11.708-1.6187-0.94536-7.4137-2.6401-12.878-3.7661l-9.9348-2.0473-1.8757 2.3024c-1.6574 2.0344-1.8176 3.3709-1.3767 11.482 0.5742 10.564 2.1842 15.219 6.2699 18.128 1.5909 1.1328 3.1417 3.0522 3.4462 4.2652 1.0789 4.2985 5.5589 7.3068 14.016 9.4117 4.4142 1.0986 9.7077 2.6705 11.763 3.4929 6.4826 2.5938 13.421 14.391 11.983 20.374-0.3435 1.4293-4.956 16.908-10.25 34.397-11.8 38.982-15.668 47.436-26.456 57.815-7.3796 7.0999-10.506 12.24-13.822 22.727-3.8233 12.091-5.2823 22.804-5.3031 38.942-0.0192 14.901 0.10332 15.868 3.6573 28.87 2.0225 7.3991 4.647 15.646 5.8322 18.326 1.7344 3.9219 2.2868 7.5019 2.8307 18.345 0.69651 13.887 2.7747 34.148 4.5445 44.307 3.0738 17.644 4.3626 81.631 1.9788 98.241-0.68109 4.7457-3.1616 16.321-5.5123 25.722-2.3507 9.4015-4.274 17.79-4.274 18.642 0 1.7415 5.4305 4.3404 9.0693 4.3404 1.3124 0 3.5672-1.0159 5.0108-2.2576 2.5211-2.1686 2.6566-2.767 3.4361-15.176 0.4463-7.1053 1.282-15.737 1.857-19.182 0.57503-3.4448 1.4021-15.586 1.8379-26.98 0.53463-13.977 1.6293-26.203 3.365-37.58 1.4149-9.2744 2.5601-19.681 2.5449-23.126-0.0152-3.4448 0.56918-12.551 1.2987-20.235 2.6987-28.428 2.6814-39.934-0.0843-55.989l-0.59837-3.4737 4.1577-0.66484c2.2867-0.36567 5.9478-1.4567 8.1356-2.4245l3.978-1.7596 2.5259 7.8254 2.5259 7.8254-1.8702 16.381c-3.0226 26.475-6.6749 48.621-9.2962 56.369-2.1843 6.4563-2.3881 8.2542-1.9117 16.863 0.35155 6.3524-0.27536 19.322-1.8398 38.061-3.365 40.307-4.3262 47.484-7.5976 56.731-2.6688 7.544-1.7979 14.649 2.008 16.383 2.856 1.3013 4.9594 1.287 7.7272-0.0524z" fill="param(fill)" fill-opacity="param(fill-opacity)" stroke="param(outline)" stroke-opacity="param(outline-opacity)" stroke-width="param(outline-width) 0.2"/>
</svg>
