<svg version="1.1" width="512" height="512" viewBox="0 0 512 512" xmlns="http://www.w3.org/2000/svg">
 <path d="m200.81 503.74c8.9545-3.1398 11.163-5.5214 12.409-13.379 1.7384-10.966 2.7585-13.849 4.6202-13.057 0.90494 0.38504 3.1797 1.2589 5.055 1.9419l3.4096 1.2419 0.64431-15.743c0.75244-18.384 1.6958-25.896 6.3205-50.326 3.8467-20.32 6.0832-35.92 6.2852-43.838l0.13664-5.358 0.82203 5.358c1.37 8.9296 5.775 69.027 5.7682 78.697-7e-3 10.006-0.83421 12.311-9.3606 26.088-5.4821 8.8578-6.8433 12.642-5.2414 14.572 1.8054 2.1754 16.327 1.9181 24.831-0.44004 9.1047-2.5246 10.223-4.0353 10.223-13.814 0-4.227 0.32878-7.6791 0.73063-7.6713 0.40185 8e-3 2.6497 0.68249 4.9952 1.4993s4.4718 1.2779 4.7252 1.0246c0.25332-0.25332-0.68948-4.3254-2.0951-9.0492-5.329-17.908-5.3474-38.931-0.0609-69.475 1.3446-7.7691 2.7261-18.201 3.0698-23.181l0.62503-9.0556 2.5291 0.53235c19.081 4.0162 47.691 5.6882 57.97 3.3878 7.4118-1.6587 8.9124-0.77982 15.566 9.1167 4.93 7.3334 6.5588 8.9127 14.577 14.135 14.599 9.5073 20.053 17.035 20.094 27.731 0.0238 6.2599-3.0848 27.013-5.5062 36.759-2.5905 10.427-4.8649 14.495-12.776 22.853-4.1465 4.3805-8.602 9.9681-9.9011 12.417-2.2953 4.3267-2.3134 4.5266-0.64099 7.079 2.7066 4.1307 8.6881 6.3222 17.156 6.2856 13.885-0.06 17.211-2.6529 23.023-17.948 1.4253-3.7506 2.748-7.0036 2.9394-7.229 0.19143-0.22537 1.3327 0.48702 2.5361 1.5831 3.178 2.8944 6.2112 4.2619 7.9626 3.5898 2.1875-0.83944 2.0312-10.734-0.26509-16.778-1.5745-4.1436-1.6958-6.1274-0.98027-16.024 0.44915-6.2122 2.5729-21.908 4.7194-34.879 2.1465-12.971 3.9028-24.824 3.9028-26.338 0-1.99-1.6886-4.6734-6.0886-9.676-9.4988-10.799-13.121-15.581-16.298-21.515-3.46-6.4624-3.722-8.1649-0.71482-4.6462 1.1863 1.3881 7.1459 8.183 13.244 15.1 11.872 13.467 32.884 41.685 36.818 49.445 4.5812 9.0367 6.3201 18.3 6.4485 34.353 0.13915 17.401 0.55267 16.427-12.147 28.632-4.739 4.5543-8.6118 8.9886-8.6063 9.854 0.0163 2.5802 3.6345 6.4015 8.1148 8.5704 5.8524 2.8331 17.84 2.852 23.655 0.0372 4.9894-2.4153 6.4836-4.5507 8.6922-12.422 1.8195-6.4846 2.8333-7.1219 7.2829-4.5783 4.5687 2.6117 5.2048 2.0246 4.4861-4.1403-0.35919-3.0808-1.6948-7.5994-2.9679-10.041-2.9152-5.5911-4.0809-16.666-5.3773-51.088l-0.95391-25.329-6.5741-12.664c-14.747-28.409-20.822-41.235-22.378-47.248-2.3038-8.9049-1.9726-20.334 1.101-37.993 3.1626-18.17 3.1197-30.83-0.12894-38.043-2.2366-4.9658-27.318-33.016-35.591-39.805-6.3518-5.2117-16.75-10.338-24.046-11.856-9.81-2.0403-25.567-0.63208-48.752 4.357-24.975 5.3741-31.254 6.162-58.533 7.3446-24.366 1.0563-38.223 0.15835-51.341-3.327-15.961-4.2405-25.78-10.696-32.991-21.689-2.0214-3.0816-4.6948-6.8421-5.9407-8.3567-2.5375-3.0845-3.0364-9.4438-1.0131-12.914 3.1127-5.339 5.3689-7.0688 11.443-8.773 7.937-2.227 12.499-6.6713 18.438-17.96 4.006-7.6155 4.3525-8.8496 4.4686-15.913l0.12584-7.6575 9.6893-5.786c16.043-9.5802 27.664-18.984 31.057-25.131 3.0306-5.4911 7.5627-10.448 15.576-17.036 8.2419-6.7759 12.949-21.048 11.18-33.899-0.78023-5.6673-7.1779-19.216-9.4279-19.966-0.62149-0.20716-1.9251 0.83701-2.8969 2.3204-1.4782 2.2564-1.7669 4.7728-1.7669 15.404 0 14.102-0.74916 16.681-6.854 23.591l-3.2938 3.7283-0.0405-7.5499c-0.0223-4.1524-0.39277-7.5499-0.82325-7.5499-0.43049 0-1.6573 1.5304-2.7263 3.4008l-1.9436 3.4008-1.162-10.398c-0.86588-7.7484-1.8928-11.96-4.0297-16.526-3.0486-6.5148-10.566-15.382-13.746-16.213-2.2782-0.59576-2.2739-0.65375-0.45131 6.1367 0.79098 2.9469 1.4434 5.4544 1.4497 5.5722 7e-3 0.1178-1.5829-0.86785-3.5317-2.1903-3.5685-2.4216-10.389-4.745-12.179-4.1485-0.5306 0.17687 0.54014 2.2924 2.3794 4.7013 4.591 6.0127 8.7362 14.511 11.767 24.123 3.5367 11.217 3.5641 22.783 0.076 32.05-2.7268 7.2445-6.9383 14.314-10.547 17.704l-2.3428 2.2009-1.1231-6.6409c-1.1249-6.6515-4.842-19.246-5.4892-18.598-0.18936 0.18936-1.4313 5.4765-2.7599 11.749-2.8304 13.363-5.9965 19.83-11.658 23.813-4.4667 3.1423-10.147 5.6765-10.942 4.8816-0.28242-0.28243 0.21953-3.035 1.1155-6.117 3.242-11.152 0.77647-27.513-5.6463-37.47l-2.1995-3.4096-0.5915 14.613c-0.6938 17.14-1.3116 19.183-9.8026 32.414-8.0271 12.509-10.597 15.894-11.595 15.277-0.45513-0.28129-2.7078 0.8588-5.006 2.5335-3.6415 2.6536-4.7826 2.9885-8.8784 2.6053-2.811-0.26296-5.7474-1.2808-7.3063-2.5327-1.4335-1.1512-3.5231-2.4902-4.6435-2.9756-2.4242-1.0503-7.9113-9.3148-9.7741-14.722-0.72913-2.1163-1.959-9.5679-2.7329-16.559-1.4444-13.046-3.6568-19.938-6.4007-19.938-1.2234 0-1.5463 2.7757-1.9833 17.048-0.28714 9.3765-0.88202 17.815-1.322 18.753-1.1677 2.4888-4.2843 2.0828-10.244-1.3346-7.167-4.1098-13.558-10.735-18.473-19.152-2.2595-3.8687-4.4803-7.0341-4.9351-7.0341-1.2099 0-2.0048 2.5873-2.0446 6.6554l-0.03507 3.5735-2.4366-2.9225c-1.3401-1.6074-4.2834-6.6157-6.5407-11.129-3.5611-7.1213-4.1495-9.2065-4.4477-15.763-0.33182-7.2962-0.17409-7.9382 4.5878-18.673 6.6428-14.974 8.1388-22.14 4.622-22.14-1.8007 0-8.9399 7.8548-11.068 12.177-1.0551 2.1432-2.4481 5.5345-3.0955 7.5363-0.64739 2.0018-1.6519 3.9331-2.2323 4.2917-1.9794 1.2233-0.05485-13.449 3.0113-22.958 1.6284-5.0501 2.7373-9.5435 2.4642-9.9853-1.9151-3.0986-11.88 5.555-14.517 12.606-2.0773 5.555-3.2873 7.2323-4.6221 6.4073-0.65629-0.40561-0.77522-4.6301-0.34476-12.247l0.65713-11.628-4.031 2.2656c-7.5419 4.2388-9.9381 11.078-7.3892 21.09l0.82091 3.2247-6.0435-0.68374c-5.8143-0.65781-6.0044-0.61064-5.012 1.2437 1.3204 2.4671 8.413 8.2726 12.823 10.496 3.7397 1.8854 7.7934 5.2755 7.7934 6.5175 0 0.43452-1.4247-0.07864-3.1661-1.1404-7.75-4.7253-8.4881-1.2599-2.1919 10.291 4.2588 7.8129 4.3838 8.2878 4.3846 16.66 6.63e-4 7.4663 0.37451 9.4077 2.7981 14.531 4.4268 9.3572 7.7119 12.365 19.911 18.231 5.9948 2.8827 12.434 5.8289 14.309 6.547 1.8753 0.71814 3.5356 1.3926 3.6896 1.4988 0.15401 0.10619-0.22679 1.3054-0.84622 2.6649-2.3696 5.2007 2.2385 21.329 8.4033 29.411 3.385 4.4379 7.5062 6.9164 14.553 8.7518 6.5783 1.7134 10.245 4.66 10.245 8.233 0 1.3697 0.82835 4.6907 1.8408 7.3801 1.0124 2.6893 2.7072 9.4927 3.7662 15.119l1.9254 10.229-5.591 15.631c-6.8823 19.241-7.7865 23.352-7.7865 35.406 0 16.235 4.9756 30.914 15.805 46.628 7.4697 10.839 17.018 19.945 31.919 30.44 26.552 18.701 31.171 23.438 34.649 35.536 1.748 6.0804 1.6793 10.873-0.48974 34.179-0.55448 5.9578-0.56992 15.511-0.0394 24.354 0.84412 14.07 0.36503 23.665-2.04 40.854-1.785 12.758-2.3626 13.902-12.047 23.864-8.6324 8.88-12.228 13.234-12.228 14.807 0 1.7539 6.4528 3.8062 13.407 4.2643 6.2939 0.4145 8.6353 0.11145 14.192-1.8368zm-139.64-422c-0.94435-2.1432-2.0079-5.6502-2.3634-7.7934-0.60407-3.6415-0.44965-3.4875 2.358 2.3512 1.6524 3.4364 4.5234 8.3173 6.38 10.846 1.8566 2.5292 3.3756 4.9576 3.3756 5.3964 0 1.8335-8.1721-7.219-9.7503-10.801z" fill="param(fill)" fill-opacity="param(fill-opacity)" stroke="param(outline)" stroke-opacity="param(outline-opacity)" stroke-width="param(outline-width) 0.2"/>
</svg>
