<svg version="1.1" width="512" height="512" viewBox="0 0 512 512" xmlns="http://www.w3.org/2000/svg">
 <path d="m308.54 425.34c20.484-13.51 29.715-37.305 41.001-58.026-2.5658-19.532-19.805-37.683-6.3255-58.856 4.7242-27.612 23.24 14.08 37.939 17.127 21.419 14.773 46.897 25.008 73.338 22.355 14.371-0.0597 40.957-4.5532 46.244-13.248-28.809-16.693-63.093-22.072-91.817-39.403-20.153-12.589-41.755-24.434-55.584-44.405-21.57-27.04-57.786-31.794-88.064-43.875-21.51-8.3457-45.315-8.4111-66.16-18.488-19.648-3.4327-43.484-6.9179-52.127-27.791-15.309-16.635-26.19-36.921-43.859-51.38-12.964-8.5485-19.156-31.786-28.109-37.013 0.47869 21.568-8.4601 35.859-25.844 47.996-4.3784 19.8-58.224 19.481-29.431 42.766 15.326 12.521 51.961-0.70672 45.922 30.332 1.3074 19.657 14.423 35.939 17.746 55.284 1.7866 20.96 20.703 33.043 33.174 48.005 5.4545 5.8583 12.129 11.013 12.914 19.566 5.735 22.947 12.967 46.727 11.188 70.517 5.8218 19.558-40.978 23.507-16.925 36.068 25.401 9.8184 38.688-13.258 43.921-34.13 2.9002-23.818 3.8493-47.807 5.1262-71.785 23.142-0.33977 46.403-1.6108 68.721-8.2675 11.884-5.7519 14.457 6.0682 18.711 14.028 10.857 18.705 25.719 38.41 46.593 45.915 24.365 6.2912-6.9468 42.413-24.067 40.947-25.166 12.8 15.713 31.92 25.774 15.76z" fill="param(fill)" fill-opacity="param(fill-opacity)" stroke="param(outline)" stroke-opacity="param(outline-opacity)" stroke-width="param(outline-width) 0.2"/>
</svg>
