<svg version="1.1" width="512" height="512" viewBox="0 0 512 512" xmlns="http://www.w3.org/2000/svg">
 <path d="m155.93 414.98c0.79208-0.28821 2.5202-1.4955 3.8404-2.6828s3.6911-2.7569 5.2688-3.4879c1.5777-0.73101 2.9961-2.1899 3.152-3.242 0.15588-1.0521 3.4015-8.3745 7.2124-16.272l6.929-14.359-0.38119-9.1632c-0.6399-15.382-0.53193-19.017 1.1704-39.406 2.0758-24.861 2.9424-30.68 6.0206-40.424 2.3721-7.509 2.6689-12.511 0.96982-16.341-0.61632-1.3893 0.86206-1.6122 13.526-2.0396 11.69-0.3945 15.74-0.93557 22.779-3.0429 13.613-4.0756 17.37-6.0821 31.999-17.09 18.298-13.769 22.24-15.663 39.522-18.995 21.02-4.0528 24.107-4.3044 29.763-2.426 7.7371 2.5699 9.9124 7.1593 13.579 28.648 2.686 15.743 6.3416 25.608 10.887 29.38 0.79609 0.6607 2.3754 3.1182 3.5096 5.4611 2.5611 5.2906 18.947 20.747 30.225 28.51 10.29 7.083 10.504 7.732 9.7305 29.481-0.77374 21.759-2.1494 25.923-8.5653 25.923-4.0027 0-6.4514 1.6314-7.9955 5.327-0.74738 1.7887-1.3589 3.6504-1.3589 4.1371 0 1.0589 21.991 2.5202 24.75 1.6446 1.0596-0.33632 2.4109-1.7852 3.0028-3.2198 0.80897-1.9606 4.8575-36.632 4.8863-41.846 6e-3 -1.04 6.0054 3.3494 10.847 7.936 5.244 4.9676 6.8981 11.172 6.6806 25.061-0.0951 6.0726-0.72842 13.201-1.4074 15.842-1.0337 4.0197-1.6248 4.8415-3.6347 5.0526-6.3862 0.67097-9.2313 2.1187-10.855 5.5238-2.1249 4.4559-2.0546 6.2252 0.24718 6.2252 1.0303 0 4.3614 0.64806 7.4024 1.4401 7.5324 1.9619 13.994 1.8609 16.613-0.25968 1.8812-1.5233 2.2401-3.3113 3.4563-17.219 0.74641-8.5354 2.0098-19.865 2.8076-25.176 0.7978-5.3117 1.4506-12.004 1.4506-14.871 0-6.523-2.3066-9.8075-18.092-25.762-6.1386-6.2046-10.898-11.281-10.576-11.281 0.32208 0 3.1236 1.1277 6.2256 2.506 8.8725 3.9423 22.671 7.095 31.052 7.095 8.6555 0 19.951-2.6483 28.643-6.7154 8.7825-4.1096 22.107-17.837 19.674-20.269-0.6445-0.64449-2.837 0.64331-6.6234 3.8902-6.9452 5.9558-18.772 11.944-27.742 14.047-7.9203 1.8567-22.998 1.3786-30.794-0.97633-6.0656-1.8323-17.343-9.6549-21.815-15.132-4.5001-5.5115-10.858-17.761-11.649-22.445-0.46676-2.7627 0.28051-7.5008 2.7901-17.69 7.062-28.674 5.3993-38.243-10.208-58.755-12.89-16.94-29.521-26.493-53.159-30.534-8.6591-1.4804-20.752-2.1907-56.385-3.312-36.157-1.1378-47.408-1.8054-55.443-3.29-14.103-2.6057-27.765-3.3727-36.964-2.0751-4.2244 0.59593-10.562 1.3364-14.084 1.6454l-6.4035 0.56193-13.758-13.354c-7.5672-7.3447-22.183-20.223-32.48-28.617-10.297-8.3948-18.985-15.653-19.306-16.13-0.32155-0.47656-1.0923-3.1348-1.7127-5.9071-0.93538-4.1797-1.6554-5.3122-4.2158-6.6305-1.6983-0.87443-4.2602-2.5323-5.6933-3.6841-2.5777-2.0719-2.647-2.0755-6.4961-0.33982-3.8653 1.743-3.9055 1.7404-6.181-0.39725-1.2597-1.1834-4.0182-2.3834-6.1299-2.6667-3.7685-0.50547-3.8739-0.43742-5.6989 3.6791-2.2137 4.9933-3.2266 5.9102-12.069 10.924-5.3503 3.034-7.6155 5.0605-10.687 9.561-4.7637 6.9796-9.0872 9.767-25.261 16.285-8.3664 3.3718-12.327 5.4557-12.548 6.6019-0.40318 2.0935 3.654 5.8934 10.962 10.266l5.6154 3.3603 14.908-0.32189c10.708-0.23123 15.313-0.68372 16.348-1.6064 0.99484-0.88733 4.9863-1.3598 12.909-1.528l11.469-0.24344 2.0852 3.29c1.8254 2.88 5.1459 8.6151 10.799 18.651 0.89227 1.5842 5.3425 8.9326 9.8895 16.33 10.348 16.835 11.741 19.605 19.064 37.916 8.3306 20.83 18.207 40.52 24.472 48.788 2.9272 3.8632 5.3222 8.0167 5.3222 9.2299 0 1.2133 1.3407 9.5016 2.9792 18.418 4.3527 23.687 4.567 26.665 3.55 49.336-1.1577 25.805-2.6747 36.873-5.9796 43.628-2.3751 4.8545-2.8154 5.2281-7.4806 6.3473-2.758 0.66163-6.0164 2.2486-7.3451 3.5773-2.3167 2.3167-2.3335 2.4281-0.5617 3.7236 1.0045 0.73454 3.5254 1.6072 5.6018 1.9392l3.7754 0.60371-4.7105 2.3645c-5.4507 2.7361-8.0708 4.8387-8.0708 6.4767 0 2.6006 15.766 6.1907 20.162 4.5912z" fill="param(fill)" fill-opacity="param(fill-opacity)" stroke="param(outline)" stroke-opacity="param(outline-opacity)" stroke-width="param(outline-width) 0.2"/>
</svg>
