<svg width="512" height="512" version="1.1" viewBox="0 0 512 512" xmlns="http://www.w3.org/2000/svg">
    <path
       id="dog"
       d="m 67.12784,117.2967 c -6.61915,8.09381 -30.30871,18.46412 -43.590369,25.13937 -12.015116,6.03866 -12.732121,16.56048 -0.436496,27.13533 10.028836,0.0642 9.978336,-9.70466 2.02179,4.16177 8.853857,17.03289 72.345021,-16.50026 82.150975,9.54596 9.27703,28.02552 10.27326,57.97446 16.31726,86.71957 11.56872,18.2254 31.67015,31.14544 31.62422,55.56446 5.36383,25.30587 7.23048,51.7669 2.36878,77.3248 -12.0738,9.11722 -21.11174,21.74238 -0.28136,21.14714 -14.56181,18.82837 30.21044,15.95237 34.4522,1.18247 0,0 2.21029,-43.62995 5.4441,-65.45657 5.87338,-15.15776 1.5147,-49.9199 21.60533,-49.08997 40.228,1.3403 82.02796,-1.96296 117.78951,-22.74551 25.57983,-10.57789 34.16732,28.71726 49.8554,42.70467 12.05149,23.10807 22.58194,47.84355 16.55329,75.55959 -9.84692,8.49013 -15.12863,24.60974 5.94429,21.53634 18.11556,5.04065 5.58151,-95.2951 27.8374,-13.62275 -6.14416,11.03767 -10.90368,37.41687 9.93116,24.92936 15.33365,-20.8206 6.11003,-52.30859 0.55515,-75.49468 -13.75867,-18.14703 -15.45533,-40.03005 -13.89514,-62.00449 -0.82364,-23.00534 2.08273,-53.67293 -1.83864,-69.22707 -3.92138,-15.55415 -23.47209,-41.66703 -5.83945,-24.05664 20.73616,21.49536 22.01281,53.24251 34.40309,79.14039 3.03717,18.93416 39.16392,14.56551 32.74505,-3.84634 -32.74505,3.84634 -20.03387,-62.34628 -52.62457,-92.82567 -15.3879,-26.79193 -44.71915,-20.79947 -65.85997,-19.05766 -28.79983,-6.48569 -58.8218,-2.23942 -88.03866,-0.13206 -26.69025,1.47333 -61.95147,7.52268 -85.71148,0.50794 0,0 -42.38696,-8.88596 -35.04846,-22.04604 5.13952,-9.21677 -10.58712,-25.35739 -17.97355,-38.77635 C 130.82006,80.750376 117.14831,84.08913 106.48867,89.334067 95.829035,94.579016 95.575635,90.677027 67.12784,117.2967 Z m 13.049138,4.09513 c 5.161214,0.99812 2.069314,7.39337 -0.914567,7.39726 -3.172417,0.003 -4.246646,-8.39538 0.914567,-7.39726 z"
       fill="param(fill)" fill-opacity="param(fill-opacity)" stroke="param(outline)" stroke-opacity="param(outline-opacity)" stroke-width="param(outline-width) 0.2"/>
</svg>
