<svg version="1.1" width="512" height="512" viewBox="0 0 512 512" xmlns="http://www.w3.org/2000/svg">
 <path d="m237.23 482.79c18.618-3.9192 7.2181-33.564 17.35-46.498-3.6416-32.087 2.0841-64.4 3.2883-96.534 8.3143-19.205 39.463-22.523 58.402-17.399 15.684 7.8912 22.663 25.653 31.024 40.193-1.8854 18.294 4.1928 41.291-13.596 53.286-21.255 11.019-2.7166 26.346 13.628 20.795 13.009 2.5775 27.797-5.588 24.864-19.899 1.5021-23.157 4.3728-46.271 5.4473-69.404-3.134-11.989-15.323-21.12-12.322-34.488-4.7443-18.477 18.922-37.169 26.288-12.656 15.484 30.006 26.163 62.457 34.842 94.99 2.2001 19.601 6.5492 42.677-10.978 56.72 14.601 13.704 47.55 10.616 40.526-15.732-1.6662-22.611-0.15286-45.501-2.5699-67.948-11.297-26.142-2.4628-54.693-8.5489-81.747-6.0101-31.185-3.0424-64.889-19.407-93.303-6.3982-17.413 17.446 16.589 26.249 15.539 10.099 9.6288 40.828-0.9119 18.244-10.291-31.554 0.89598-40.158-42.576-71.28-42.37-36.354-1.4479-73.996-7.7223-109.34 3.7489-22.601 6.2577-46.83 11.062-68.572-1.147-16.392-6.8815-27.389-21.414-39.919-33.397 1.3932-26.995 17.769-52.532 10.308-79.872-16.059-17.606-28.95 22.888-42.935 30.937-18.12 9.4341-39.476-2.7363-41.742-23.167-2.2308-11.559-15.647-36.145-20.166-12.333-9.5788 20.532 4.4643 46.106-18.21 58.987-4.8812 21.587-25.431 34.011-35.594 52.878-11.503 19.982 10.125 47.29 33.244 43.238 16.963 1.3929 40.762-12.823 45.967 11.751 1.1572 26.542-0.26318 53.579-2.1008 80.198 4.0896 13.702 11.891 26.822 10.115 41.704-0.81606 35.913 11.923 71.506 6.2644 107.32-1.6458 15.142-37.908 34.692-6.3805 37.743 23.334 2.3098 39.632-23.933 37.116-45.292 2.9464-31.597 0.81424-63.682 5.8435-95.022 17.361-11.512 57.437-6.2753 56.588 21.993 1.1781 31.996 1.4032 64.408-2.9087 96.146-2.1365 12.266-26.708 28.47-0.88456 30.304 7.2426 0.96399 14.602 0.85123 21.851 0.0287z" fill="param(fill)" fill-opacity="param(fill-opacity)" stroke="param(outline)" stroke-opacity="param(outline-opacity)" stroke-width="param(outline-width) 0.2"/>
</svg>
