<svg version="1.1" width="512" height="512" viewBox="0 0 512 512" xmlns="http://www.w3.org/2000/svg">
 <path d="m175.57 427.71c16.447-3.047 27.646-12.631 25.739-30.352 9.9347-22.43 37.111-9.9814 55.93-16.519 26.279-4.5865 51.174-16.139 77.926-17.834 23.479-4.3873 31.515-5.0242 44.313-10.522 20.023-6.1665 26.089-9.6288 36.829 5.5462 17.522 13.977 6.081 38.155-7.9902 47.951-16.104 24.919 25.802 21.287 36.949 12.327 7.0181-16.579 10.041-34.195 20.623-49.253-4.091-17.165-3.4156-31.37 6.3747-46.761 6.7758-20.548 12.654-45.743-4.8237-62.81-11.275-8.8316-10.364-17.004-0.6056-26.94 25.338-42.712 24.422-95.847 9.4265-141.91-10.169-8.4663-10.622 22.497-10.781 30.598-0.57413 27.784 8.1418 59.102-10.314 83.179-7.099 7.8212-13.28 19.936-22.603 24.142-49.378-2.6716-97.876 8.6088-146.58 14.511-19.425 4.8858-35.366-9.6877-52.266-9.0372-6.1653-16.492-31.804-8.8346-36.544-29.336-12.872-23.084-30.17-43.153-47.214-63.167-19.406-4.6072-41.924-11.991-60.465-0.80805-12.749 10.634-21.53 24.564-41.376 24.165-15.391 2.6454-33.115 12.157-18.955 28.388 4.7482 24.387 31.187 25.663 49.308 31.55 15.087-0.79157 4.764 27.997 18.026 34.441 11.298 9.5983 2.5903 27.824 18.87 33.995-1.6631 20.816 11.1 37.98 24.304 52.685 13.263 12.562 40.883 16.055 31.873 40.628 3.2776 14.96-31.226 27.236-19.224 36.539 9.0328-0.41192 18.25-0.4572 23.246 4.6053z" fill="param(fill)" fill-opacity="param(fill-opacity)" stroke="param(outline)" stroke-opacity="param(outline-opacity)" stroke-width="param(outline-width) 0.2"/>
</svg>
