<svg version="1.1" width="512" height="512" viewBox="0 0 512 512" xmlns="http://www.w3.org/2000/svg">
 <path d="m129.3 437.41c-33.655-0.61943 7.5535-20.74 7.359-35.828 3.0969-27.427 1.1653-55.414-1.4722-82.82-2.4937-20.976-14.649-37.918-23.945-56.057-8.7541-20.427 4.1686-43.817-7.6342-63.793-7.6643-19.767-23.133-40.219-46.994-36.451-12.025-3.1442-28.476 3.067-37.998-5.7368-12.515-10.133-17.303-28.903 4.4153-29.767 21.419-1.7957 31.9-21.821 50.902-28.537 15.307-0.08687 16.995-49.854 22.909-22.47-2.3183 23.946 25.346 32.56 34.158 52.875 15.094 16.522 24.449 40.085 45.269 50.313 37.865 13.048 78.487 14.835 117.97 19.923 35.57 3.1314 71.091 7.1652 106.88 5.7926 33.374 0.26362 66.747-1.2209 100.11-0.94483 8.8349 7.2208-22.731 6.3947-29.874 7.5535-34.248 3.5338-68.756 4.9992-102.91 9.018 5.7291 20.175 9.3074 45.17 4.3958 67.94-4.4644 26.816 17.186 46.561 35.982 61.732-2.4762 26.124-1.9268 52.482-4.8179 78.533-4.1487 18.232-54.964 9.5776-26.825-7.8405 16.041-16.258 16.415-46.744-2.0666-61.572-18.152-19.129-47.19-27.939-56.579-54.644-0.53199-23.199-29.503-4.3576-31.338-26.706-20.663-7.7031-39.861 7.9242-59.674 11.893-15.749 12.714-47.05 1.4501-55.043 18.212-8.3161 26.048-13.341 53.834-11.597 81.222 3.3781 12.299-11.829 21.417-8.7305 36.968-0.51856 12.665-13.768 11.95-22.844 11.194z" fill="param(fill)" fill-opacity="param(fill-opacity)" stroke="param(outline)" stroke-opacity="param(outline-opacity)" stroke-width="param(outline-width) 0.2"/>
</svg>
