<svg version="1.1" width="512" height="512" viewBox="0 0 512 512" xmlns="http://www.w3.org/2000/svg">
 <path d="m147.71 412.71c-22.543-7.4578 6.1078-17.937 11.618-25.791 5.8755-9.7507 7.7086-33.927-1.4986-11.655 1.4485 19.281-35.112 29.733-35.12 9.3893 11.267-6.5343 23.973-4.1515 23.313-21.474 5.8545-27.373 3.1974-55.996 0.27569-83.625-0.37577-22.156-24.434-32.197-26.443-53.498-5.0062-19.809-18.237-35.992-31.69-50.722-10.968-2.1445-24.427-1.2872-25.194-16.11-17.847 0.48882-42.465 0.86424-51.385-18.813-12.801-23.393 28.161-15.037 38.333-28.359 10.304-18.777 38.241-16.216 56.028-12.445 26.143 21.126 47.26 51.712 82.112 59.016 17.275 3.3886 34.088 11.614 52.019 8.9888 41.725-2.637 85.171-8.9744 125.63 5.1636 13.946 4.2227 28.95 0.9683 43.346 1.9775 20.922 2.4011 40.855-5.2463 56.579-18.824 10.768-6.2046 29.205-26.286 37.194-20.623-21.02 20.688-40.376 48.628-72.26 51.591-13.371 4.8421-42.318-3.504-46.697 12.232 8.607 16.395 13.416 34.77 9.8144 53.326-5.0756 26.303 1.1924 55.516 21.935 73.682 7.2492 8.7119-1.3519 22.966 1.697 33.626-0.96825 12.8 1.9496 26.353-0.4775 38.756-0.86485 17.859-42.33 14.131-29.872-3.1752 12.895 1.9974 16.181-30.282 11.319-11.33-11.031 20.2-49.98-0.26886-17.367-9.4089 12.649-11.627 7.7144-40.651-6.1337-52.848-16.303-17.909-34.961-34.707-42.879-58.362-5.296-26.708-26.194-10.069-41.719-3.569-30.24 7.8334-60.83 16.624-92.024 18.54-8.2284 21.799-7.5236 45.923-9.547 68.915 4.8826 23.22-13.344 37.533-16.625 59.116-4.6193 9.2767-15.991 6.6577-24.285 6.313z" fill="param(fill)" fill-opacity="param(fill-opacity)" stroke="param(outline)" stroke-opacity="param(outline-opacity)" stroke-width="param(outline-width) 0.2"/>
</svg>
