<svg version="1.1" width="512" height="512" viewBox="0 0 512 512" xmlns="http://www.w3.org/2000/svg">
 <path d="m188.21 472.66c20.278-11.479 0.58696-41.806 10.786-60.601 1.2416-21.699-1.6967-43.777 2.6362-65.53 4.4873-17.998-1.9831-53.825 25.901-51.221 22.794-2.2787 45.149-9.809 64.687-21.615 10.449-9.388 27.799-20.334 24.229 3.0279 2.8004 26.273 16.724 49.754 36.188 67.212 18.605 13.316 12.474 53.17-12.538 52.356-11.692 3.2423-19.798 17.805-0.77636 15.219 26.97 6.844 42.368-19.085 46.712-41.748 19.671-27.452-22.378-36.687-17.329-63.198 0.37864-11.869 3.6682-44.215 15.809-20.007 11.715 19.207 27.075 35.2 44.629 49.152 14.574 15.331 32.531 28.601 43.091 47.03 5.356 19.491 4.2829 42.033-9.1683 56.846 15.356 16.256 43.469-1.9227 31.677-24.089-2.1242-16.918 4.5699-36.644-0.86533-52.21-27.816-11.826-35.137-44.722-45.947-69.952-12.953-26.667-5.1145-61.965-28.979-83.264-7.2302-18.192-33.502-31.985-14.133-51.294 3.4301-32.749-24.895 5.3064-35.009 8.8106-30.35-4.1016-60.965-0.9227-91.372-2.9482-27.722-5.0227-54.191-15.177-81.23-22.873-23.07-23.817-43.201-50.929-67.696-73.66 4.3334-23.91-22.913-17.095-37.092-23.602-18.234 8.4125-49.145-4.0232-52.947 25.981-6.2183 11.273-3.3246 22.463-19.191 26.703-0.87725 15.017-9.4806 35.744 13.761 42.025 16.726-0.4519 37.459 10.622 50.034-6.4211 22.135 12.592 26.508 40.576 21.838 63.608-4.1176 22.698-8.5881 49.312 7.527 68.587 15.969 18.709 16.851 43.267 18.212 66.54 2.2936 29.875 6.5364 59.63 7.6962 89.566-6.7326 8.3161-13.117 21.164 4.6852 20.449 15.621 3.2232 23.898-9.0556 19.281-22.323 4.6639-22.563 2.1876-46.824 1.115-71.527 1.6169-18.374 9.1719 26.191 9.0631 34.825 0.87965 23.805 5.5125 48.286 1.0276 71.814-13.69 6.8112-13.122 20.533 3.8068 18.898 3.2991 0.1628 6.6418 0.22336 9.8831-0.56843z" fill="param(fill)" fill-opacity="param(fill-opacity)" stroke="param(outline)" stroke-opacity="param(outline-opacity)" stroke-width="param(outline-width) 0.2"/>
</svg>
