<svg version="1.1" width="512" height="512" viewBox="0 0 512 512" xmlns="http://www.w3.org/2000/svg">
 <path d="m477.42 474.67c24.923-10.902 7.7941-38.66 5.4313-57.978 2.5567-21.299 2.5841-41.901-18.863-53.12-15.318-17.579-13.165-43.251-12.193-65.003 6.2479-28.734 2.1614-61.642-20.343-82.523-9.2402-10.08 4.3895-25.488 5.0082-37.435 7.7703-37.854 7.4798-78.42-4.5564-115.39-3.1904-14.244-21.644-38.914-32.08-33.362 26.528 48.787 35.451 109.62 11.68 161.31-0.71326 10.749-12.338 5.6182-19.598 6.8392-48.657 1.0419-97.66 8.9781-146.18 2.5842-28.502-13.873-63.55-22.013-81.506-50.494-8.3727-19.075-16.452-46.461-41.462-47.973-18.255 1.0515-40.631 1.9364-53.753 16.094-10.594 19.524-56.998 0.58965-50.916 31.141-1.358 9.986 0.789 18.932 9.0087 25.516 16.67 18.136 57.079 2.2373 59.804 33.984 8.2465 24.865 15.524 50.025 19.16 75.989 3.6858 26.797 25.342 45.265 32.879 70.114 8.0837 29.236 10.426 59.453 10.628 89.655-14.415 11.827-9.4852 42.286 12.464 27.68 14.344-8.7191 11.653-28.698 21.567-38.743v-91.258c33.8-3.4424 67.945-5.0517 101.05-13.176 18.431-3.7142 28.961 23.569 48.117 6.6536 10.952-5.5802 27.975-19.267 39.484-10.474 16.107 17.822 24.104 42.61 46.287 54.708 23.879 19.104 44.927 51.29 32.872 82.696-0.55405 17.92 13.268 12.412 26.013 11.971z" fill="param(fill)" fill-opacity="param(fill-opacity)" stroke="param(outline)" stroke-opacity="param(outline-opacity)" stroke-width="param(outline-width) 0.2"/>
</svg>
