<svg version="1.1" width="512" height="512" viewBox="0 0 512 512" xmlns="http://www.w3.org/2000/svg">
 <path d="m175.37 437.07c-19.638-9.8301 19.935-20.599 11.044-36.634 0.38893-15.663 0.17796-49.276-7.0723-53.159-5.3076 21.232-17.718 40.086-20.099 61.72-7.2964 13.293-57.615 11.736-34.927-5.4565 11.415-4.8258 18.69-12.887 18.799-25.936 4.5543-23.496 10.032-47.905 5.2877-71.765-16.25-15.734-27.013-36.027-32.209-57.986 2.0485-14.805-3.3085-10.863-7.7077-11.451-0.31837-12.652 3.1387-26.862-15.141-29.885-19.387-8.4752-44.855 21.004-59.704 1.7962-15.376-1.2597-39.456-25.498-13.149-31.366 17.961-11.517 21.989-33.892 36.703-48.173 9.1983-4.2802 2.253-12.479 0.63468-19.384-4.4566-10.161-14.572-38.976 5.295-23.507 10.523 11.918 13.919 9.4626 11.781-3.8448-4.2255-32.652 23.974 0.78838 34.021 9.3197 13.206 9.9132 16.753 27.086 26.038 39.588 7.7731 5.505 19.511 19.582 24.617 18.554 9.3572 3.638 17.673 18 29.657 22.713 12.998 1.4375 26.092 3.4369 38.246 8.4868 41.297 6.1389 80.818-13.344 122.09-10.072 27.47 3.9409-11.138-19.182-3.8194-34.625-1.8779-37.148 35.98-67.212 71.792-62.14 35.503 2.7098 74.922 22.724 83.067 60.225 8.3754 31.817 10.594 70.345-11.747 97.208-13.899 18.632-38.045 20.706-57.81 25.545 0.18418 23.284-25.945 45.487-10.083 67.845 17.895 13.97 21.746 31.888 12.64 52.322-6.4401 16.994-0.0971 42.395-16.696 52.933-13.149 8.294-53.215 8.743-26.047-11.711 19.444-7.8258 12.699-34.134 13.255-50.79 2.2452-21.524-19.529-30.09-32.833-41.911-13.73-15.609-2.6976 14.155-0.49731 21.385 18.916 17.704-8.5178 36.671-13.598 54.673-3.1905 8.7661-8.835 15.357-18.569 16.803-15.618 6.5438-46.212-3.7986-16.004-14.352 20.96-3.4606 27.336-31.162 22.564-48.458-14.382-17.573-44.736-23.628-45.159-50.589-1.3805-33.775-28.606 9.5151-45.128 11.283-15.983 7.7635-43.654-2.3348-38.613 24.394-3.3466 25.37-5.8662 51.2-0.47777 76.476 6.9927 25.368-26.171 18.185-40.442 19.928zm-3.7644-123.58c-6.3376-5.2042-3.7771 2.292 0 0zm259.16-104.86c26.764-7.4172 15.533-54.465-12.643-43-24.109 7.0662-11.554 54.068 12.643 43z" fill="param(fill)" fill-opacity="param(fill-opacity)" stroke="param(outline)" stroke-opacity="param(outline-opacity)" stroke-width="param(outline-width) 0.2"/>
</svg>
