<svg version="1.1" width="512" height="512" viewBox="0 0 512 512" xmlns="http://www.w3.org/2000/svg">
 <path d="m186.17 479.09c-9.3595-7.2317-17.074-12.227-30.331-10.28-22.421-10.594 18.802-37.936 13.169-58.597 2.3538-21.6-9.5026-41.107-7.8572-62.69-3.0731-21.991-9.7607-44.151-22.756-62.209-20.124-16.39-4.241-44.204-12.994-64.91-8.1053-24.26-32.42-22.442-46.34-6.722-24.634 5.0397-22.793 54.513-54.395 33.539-17.465-16.744-6.8503-40.19 0.93594-58.672 11.056-19.446-4.0596-43.679 12.147-60.492 15.548-13.458 20.031-31.538 4.0114-46.491-4.189-12.443-14.308-44.884-0.15432-48.1 14.333 15.677 20.949 43.196 40.909 50.385-0.9909-24.907 26.027 10.535 38.956-8.3284 21.934-7.4422 40.446-30.169 65.135-24.008-4.6274 21.172-27.665 33.259-44.533 45.644 1.7474 16.235 30.845 24.398 44.818 32.732 9.0487 14.564 30.834 11.881 34.179 27.028 15.5 2.0433 32.312 19.126 51.754 13.285 22.168-4.9963 45.461-4.7647 67.726-3.1299 21.293 0.11118 42.491 6.0586 62.954 12.022 24.335 6.7385 40.32 24.057 53.223 44.116 12.612 8.5944 41.066 30.359 37.555 38.906-5.4865-14.107-17.616-13.03-7.523 1.5301 6.8959 11.12 6.0312 18.562-1.798 3.7712-9.3293-11.466-19.218-4.2073-26.319-14.806 0.23689 6.9936 27.341 33.837 9.0427 18.906-17.534-11.589-21.2-37.164-31.473-49.667-6.8097-14.127-26.356-34.235-48.085-32.4 10.731 12.841 14.537 37.398 9.7583 55.221-10.291 19.881-11.78 42.612-19.39 64.035-0.0143 22.899 13.479 46.538-0.93594 68.597-2.673 22.671 5.6499 46.244-0.98442 67.69-2.8684 13.45-27.374 21.94-35.239 12.801-0.9479-22.485 18.732-41.806 16.448-65.553 1.5404-22.686-1.5079-45.308-7.1938-67.115 2.2524-12.062-11.737-36.108-16.893-14.332 0.32175 13.435 27.779 24.462 11.611 36.234-15.956 13.789-16.396 36.15-26.131 52.903 13.918 18.746 1.4862 45.995-18.519 49.319-6.9724-19.582-17.046-41.645-8.6104-62.474 7.8523-19.224 37.841-42.581 13.222-61.534-4.8064-19.434-20.819 0.0782-31.633-6.9883-7.7165-2.4038-24.155-11.98-22.276-2.4751-23.821-19.306-24.855 19.851-26.586 33.802-5.0134 28.9-7.5785 58.49-1.9374 87.475-2.3314 12.27-13.586 15.937-9.5267 30.464-3.8244 11.066-17.104 12.79-27.139 11.567z" fill="param(fill)" fill-opacity="param(fill-opacity)" stroke="param(outline)" stroke-opacity="param(outline-opacity)" stroke-width="param(outline-width) 0.2"/>
</svg>
