<svg version="1.1" width="512" height="512" viewBox="0 0 512 512" xmlns="http://www.w3.org/2000/svg">
 <path d="m188.49 484.55c-7.4362-4.2848-8.79-11.005-17.628-14.038 5.6232-20.457 24.009-37.46 19.389-61.212-1.8847-30.582 2.7047-63.475-11.98-91.535-15.347-15.986-14.531-39.703-26.62-57.574-8.4951-22.473-20.227-43.173-28.231-66.005-12.238-23.853-43.344-7.4811-62.448-2.2223-5.8628 21.821-48.573-8.8091-16.835-14.282-4.3185-15.102-35.398 12.523-31.979-11.981-1.605-22.422 23.023-28.91 37.513-39.607 16.671-12.765 34.682-24.333 55.82-27.434 2.2086-11.281-0.0774-29.792-1.0232-44.586-7.406-32.835 13.141 7.8667 13.161-1.0613 0.24154-9.488 2.0609-29.181 10.153-10.305 14.07 12.083 7.0927 47.068 15.547 49.377 2.7442-4.0229 2.6357 14.111 5.1636 3.6174-0.30875 15.489 7.2986-8.9432 6.2616 10.392 4.123-11.86 1.1778 6.2477 5.5083-1.5068 8.6515-5.8083-2.0227 17.456 7.65 5.7579-2.2958 12.174 10.778 2.0126 5.8133 13.747 10.069-11.102-0.65404 6.8391 9.1826 0.9992-5.33 8.0257 7.6706-1.102 5.7979 7.3496 6.9981-6.547-7.2684 14.044 5.5065-0.47308-7.6935 10.354 9.3913-4.65 1.6166 8.9612 3.8372 0.87921 14.365-1.8967 7.4309 7.6621 16.749-13.582-6.4733 9.4565 8.0974-0.4038 7.7247-1.8047-4.1681 7.5479 6.0465 2.2282-3.9975 4.1947 2.7972 1.8566-0.5101 5.1392 2.1982 1.1402 12.111 5.4422 13.35 8.6609 6.4067 9.119 23.985 5.101 40.708 11.134 31.696 7.2164 64.512 5.7341 96.738 4.5306 34.116-9.5577 68.853 5.5378 93.639 28.163 12.137 13.59 23.849 27.342 19.702 37.574-7.288 28.949 3.3784 58.069 14.668 84.461-4.6789 15.732-2.0906 39.797-6.4492 58.314-0.27906 12.533-1.3832 32.226-6.7763 8.3524-6.0336-23.821-10.155-48.886-9.5855-73.71 0.35863-10.505 5.7548-48.148-0.65654-44.98-1.4553 21.937-14.537 41.832-11.79 63.924-6.7034 20.939 19.237 32.127 12.45 54.642-4.8572 20.996-3.4649 42.766-5.8828 63.864-5.9973 14.364-24.986 36.033-39.301 19.017 0.027-8.9718 15.514-27.777-0.2497-14.303 4e-3 21.247-47.176 15.732-25.777-5.3946 18.357-17.568 17.897-42.749 16.143-66.35-0.47985-32.056-40.146-43.245-45.018-73.741-21.505 11.005-46.894 12.053-70.924 10.512-19.251 2.0378-48.009-11.538-61.286 3.5096-11.851 23.032-14.878 48.243-15.763 73.54-4.2532 19.898 3.7737 46.845-9.249 62.484-3.8578 15.091-12.437 16.998-27.094 14.789zm257.61-40.09c3.3467-16.528 4.715-50.208-2.3626-57.159-6.1607 23.083-7.5951 46.86-7.0851 70.665 3.6175-4.1252 9.2812-7.3584 9.4478-13.506zm-249.14-310.08c-3.5873 1.932-1.7647 5.213 0 0zm-33.822-27.337c-3.295 0.68689-0.91789 6.0956 0 0z" fill="param(fill)" fill-opacity="param(fill-opacity)" stroke="param(outline)" stroke-opacity="param(outline-opacity)" stroke-width="param(outline-width) 0.2"/>
</svg>
