<svg width="850" height="850" version="1.1" viewBox="0 0 850 850" xmlns="http://www.w3.org/2000/svg">
  <path
     d="m 392.09965,762.13134 c 8.49771,-43.90376 -20.53654,-85.53704 -10.69476,-129.80071 7.24898,-37.27528 -3.43171,-59.98358 11.85331,-88.59921 51.75179,12.2879 92.08723,28.66293 145.11514,30.35947 6.07932,13.28818 6.28356,8.70911 8.94076,21.70118 6.32675,30.93385 23.99591,22.59362 20.76447,70.81068 -12.2614,35.52912 -65.18344,81.9093 -9.77669,75.54838 24.77845,1.23363 49.57693,0.0469 74.35914,-0.39685 4.04844,-60.25765 1.00739,-107.80137 7.2222,-167.93108 25.65136,-90.44638 0.0992,-4.51361 0,0 -15.41983,62.21648 31.95116,64.00169 26.78942,109.47864 -17.86388,28.35859 -61.64505,76.5853 -15.53362,72.42241 24.55648,-6.58615 99.71416,13.82643 98.32589,-23.96358 1.82664,-51.99822 -1.51663,-106.2805 15.65823,-156.20009 19.70019,-41.53837 25.13264,-81.73896 34.54031,-127.37626 4.12013,-18.9751 6.56016,-22.55171 6.25099,-0.93073 0.98105,75.65993 13.0724,139.20624 -6.55969,213.16626 -4.25907,19.56262 -7.73839,74.22084 12.99461,26.50235 2.60773,-54.36724 3.67634,-81.91391 9.16354,-136.20959 3.71261,-71.44456 15.65362,-161.99176 7.36061,-214.64671 -8.29301,-52.65497 -19.35049,-67.81062 -36.38168,-98.70753 -31.3282,-45.14755 -97.89716,-70.65391 -174.9757,-71.66631 -65.42407,-0.85932 -91.35336,33.35558 -228.35206,12.93873 -136.9987,-20.41685 -209.81435,-7.57786 -254.99794,13.80137 -45.183586,21.37922 -35.805265,16.56062 -61.752881,48.20797 -25.947616,31.64735 -28.467663,72.6427 -38.732871,128.09201 1.68584,36.61387 -10.496573,104.04148 -0.65645,142.61819 8.256254,45.46972 7.910243,64.14466 9.512193,105.77209 5.412993,69.44749 9.318172,56.85799 26.950058,91.63589 13.932283,27.48064 25.485804,27.51529 39.956441,11.87725 22.80696,-9.39432 24.34666,-16.15752 -5.93938,-35.99686 -24.053497,-31.22737 -5.304311,-72.87848 -5.11225,-108.34906 3.71914,-35.66853 1.300519,-78.99303 12.42113,-113.37955 4.62404,-25.34729 7.93299,-13.40838 3.28819,3.5802 -4.57246,16.724 25.77013,-5.26235 51.7957,-18.68823 19.56762,-10.0944 37.48247,-10.1921 50.13132,-14.01598 15.20325,-0.45988 41.63765,17.74071 40.861,36.08946 4.32783,62.80461 20.38207,115.33223 23.06743,178.19769 3.73544,29.40538 -60.27932,75.33708 1.58502,71.54812 9.15885,6.00589 -36.97341,46.1996 2.32073,43.06896 35.38819,3.54461 70.97577,3.67579 106.5043,3.57977 0.57796,-1.37956 1.15588,-2.75917 1.73384,-4.13874 z M 174.024,324.07024 c 0.70032,35.28425 18.7588,105.97815 41.34683,80.15607 22.58803,-25.82208 132.35497,-51.21437 130.87949,-88.56732 -1.47547,-37.35296 -71.75987,-110.32648 -129.98098,-127.11792 -29.01224,-8.62347 -57.03041,43.2267 -62.73987,26.29547 24.0361,-25.09819 55.97913,-51.17151 81.74064,-29.3232 46.90928,17.91685 135.83366,99.96128 119.20558,136.29645 -16.62808,36.33517 -125.809,66.7863 -146.04371,95.35817 -26.051,17.24844 -42.10617,-77.6043 -34.40798,-93.09772 z m -84.857235,10.64861 c 2.15023,-17.49325 24.255205,-2.38886 13.390305,3.55811 -4.933267,3.69077 -9.193966,1.08311 -13.390305,-3.55811 z" fill="param(fill)" fill-opacity="param(fill-opacity)" stroke="param(outline)" stroke-opacity="param(outline-opacity)" stroke-width="param(outline-width) 0.2"/>
  <path
     d="m 94.571531,438.9357 16.462059,2.93541 c 0,0 -27.903904,63.22228 -50.758012,73.38497 -22.854108,10.16269 -53.5016918,-2.9354 -53.5016918,-2.9354 0,0 30.6353488,5.61912 49.3861768,-5.8708 18.750829,-11.48992 38.411468,-67.51418 38.411468,-67.51418 z"
     fill="param(fill)" fill-opacity="param(fill-opacity)" stroke="param(outline)" stroke-opacity="param(outline-opacity)" stroke-width="param(outline-width) 0.2" />
</svg>
