<svg width="850" height="850" version="1.1" viewBox="0 0 850 850" xmlns="http://www.w3.org/2000/svg">
  <path
     d="m 392.09965,762.13134 c 8.49771,-43.90376 -20.53654,-85.53704 -10.69476,-129.80071 7.24898,-37.27528 3.41761,-80.53153 18.70263,-109.14716 51.75179,12.2879 87.97764,16.33417 141.00555,18.03071 6.07932,13.28818 3.54383,41.58582 6.20103,54.57789 6.32675,30.93385 23.99591,22.59362 20.76447,70.81068 -12.2614,35.52912 -65.18344,81.9093 -9.77669,75.54838 24.77845,1.23363 49.57693,0.0469 74.35914,-0.39685 4.04844,-60.25765 1.00739,-107.80137 7.2222,-167.93108 25.65136,-90.44638 0.0992,-4.51361 0,0 -15.41983,62.21648 31.95116,64.00169 26.78942,109.47864 -17.86388,28.35859 -61.64505,76.5853 -15.53362,72.42241 24.55648,-6.58615 99.71416,13.82643 98.32589,-23.96358 1.82664,-51.99822 -1.51663,-106.2805 15.65823,-156.20009 19.70019,-41.53837 25.13264,-81.73896 34.54031,-127.37626 4.12013,-18.9751 6.56016,-22.55171 6.25099,-0.93073 0.98105,75.65993 13.0724,139.20624 -6.55969,213.16626 -4.25907,19.56262 -7.73839,74.22084 12.99461,26.50235 2.60773,-54.36724 3.67634,-81.91391 9.16354,-136.20959 3.71261,-71.44456 15.65362,-161.99176 7.36061,-214.64671 -8.29301,-52.65497 -19.35049,-67.81062 -36.38168,-98.70753 -31.3282,-45.14755 -57.49683,-65.32754 -131.14008,-88.10467 -73.64325,-22.77713 -185.51948,-17.37089 -289.9959,-3.49962 -56.77971,11.0725 -102.69978,13.71161 -161.84725,17.91095 -37.58538,0.12499 -83.89724,-19.67889 -116.026858,14.20798 -32.129614,33.88687 -40.981978,86.63978 -63.274842,121.3799 -13.915021,21.6845 1.757464,32.21005 3.473478,69.47923 1.68584,36.61387 -10.496573,104.04148 -0.65645,142.61819 8.256254,45.46972 7.910243,64.14466 9.512193,105.77209 5.412993,69.44749 9.318172,56.85799 26.950058,91.63589 13.932283,27.48064 25.485804,27.51529 39.956441,11.87725 22.80696,-9.39432 24.34666,-16.15752 -5.93938,-35.99686 -24.053497,-31.22737 -5.304311,-72.87848 -5.11225,-108.34906 3.71914,-35.66853 1.300519,-78.99303 12.42113,-113.37955 4.62404,-25.34729 7.93299,-13.40838 3.28819,3.5802 -4.57246,16.724 25.77013,-5.26235 51.7957,-18.68823 19.56762,-10.0944 37.48247,-10.1921 50.13132,-14.01598 15.20325,-0.45988 41.63765,17.74071 40.861,36.08946 4.32783,62.80461 20.38207,115.33223 23.06743,178.19769 3.73544,29.40538 -60.27932,75.33708 1.58502,71.54812 9.15885,6.00589 -36.97341,46.1996 2.32073,43.06896 35.38819,3.54461 70.97577,3.67579 106.5043,3.57977 0.57796,-1.37956 1.15588,-2.75917 1.73384,-4.13874 z M 208.41821,383.00467 C 188.0669,372.48326 166.11267,336.97698 174.024,324.07024 c 0.70032,35.28425 47.52592,67.62199 70.11395,41.79991 22.58803,-25.82208 52.90292,-18.33766 51.42744,-55.69061 -1.47547,-37.35296 -41.62289,-85.66895 -83.40564,-107.93984 -22.16292,-14.10292 -52.92082,29.52807 -58.63028,12.59684 24.0361,-25.09819 62.7632,-36.29828 85.85023,-7.40539 23.62161,24.76617 78.29941,78.04347 61.67133,114.37864 -16.62808,36.33517 -46.35694,32.53972 -66.59165,61.11159 -7.76851,5.63228 -18.06237,4.17594 -26.04117,0.0833 z M 53.166765,326.71885 c 2.15023,-17.49325 24.255204,-2.38886 13.390307,3.55811 -4.933269,3.69077 -9.193968,1.08311 -13.390307,-3.55811 z" fill="param(fill)" fill-opacity="param(fill-opacity)" stroke="param(outline)" stroke-opacity="param(outline-opacity)" stroke-width="param(outline-width) 0.2"/>
</svg>
