<svg version="1.1" width="512" height="512" viewBox="0 0 512 512" xmlns="http://www.w3.org/2000/svg">
 <path d="m104.25 428.07c-6.743-3.2007-7.25-3.6622-7.25-6.5994 0-5.4714 4.6427-10.951 9.297-10.972 0.66162-3e-3 2.862-0.46635 4.8896-1.0295 5.7503-1.5971 7.3452-5.258 8.8316-20.272 2.0648-20.857-0.32657-39.932-6.5543-52.282-4.8942-9.7053-8.2692-13.495-15.406-17.299l-6.0916-3.2468 0.65997 5.6153c0.63399 5.3943 0.42131 6.1152-5.4037 18.318-9.0361 18.929-24.223 60.903-24.223 66.948 0 3.5631-4.1389 7.2077-11 9.6866-6.1612 2.226-6.987 2.288-15.843 1.1913-10.089-1.2495-12.157-2.5396-12.157-7.5827 0-5.0586 4.3425-9.6063 12.067-12.637 4.971-1.9503 7.8951-3.7986 9.6503-6.0997 3.5898-4.7064 10.565-27.194 14.228-45.868 2.9075-14.824 3.0573-16.601 2.101-24.949-0.56628-4.9434-1.0333-9.3013-1.0378-9.6843-0.0045-0.38296-2.7313-1.6892-6.0595-2.9027-4.7982-1.7495-7.2314-3.4869-11.75-8.39-3.1343-3.401-6.9324-6.9815-8.4402-7.9568s-4.8324-5.2114-7.3879-9.4137c-8.5311-14.029-10.649-31.734-8.4518-70.641 0.81716-14.467 2.756-24.354 9.739-49.664 3.2072-11.625 3.4409-13.39 2.8468-21.5-0.35602-4.8597-0.70328-13.336-0.77168-18.836-0.11417-9.1801 0.11-10.451 2.7341-15.5 1.5722-3.025 3.3906-7.2768 4.0409-9.4484s1.6589-4.1072 2.2412-4.3013c1.1343-0.37808 17.258 20.493 21.74 28.141 2.6498 4.5216 2.7977 4.609 7.8557 4.6432 2.8352 0.0192 8.755 0.70267 13.155 1.5188 16.902 3.1352 16.986 3.132 22.783-0.8553 8.3344-5.7325 15.586-8.5892 24.125-9.5041 6.3238-0.67755 7.8937-0.57087 8.33 0.5661 1.4625 3.8113-10.565 32.107-15.68 36.887l-3.2568 3.0437 10.052 4.0228c1.8748 3.6748-2.0221 4.9209-2.8078 14.404-0.70509 8.5108-5.4065 11.463-7.8924 16.382-4.9679 9.8299-4.9607 10.032 0.47987 13.483 5.6682 3.5947 5.6752 3.595 19.774 0.88578 10.135-1.9475 12.128-2.0328 23.092-0.98856 6.6 0.6286 15.237 1.1378 19.193 1.1315 5.3362-8e-3 9.4728 0.7523 16.024 2.9471l8.8306 2.9585 7.4763-1.9707c9.8637-2.6 24.857-3.5433 32.142-2.0223 3.6031 0.75223 9.0029 3.2043 14.832 6.7351l9.1658 5.5523 9.6683-4.8163c9.1466-4.5564 10.181-4.8374 19.168-5.2086 10.838-0.44753 27.731 1.0414 37.708 3.3236 22.427 5.1299 33.144 7.6663 35.792 8.4705 11.688 3.5502 55.63 13.086 74.5 16.167 18.201 2.972 30.438 2.1674 39.959-2.6273 3.8198-1.9236 8.4886-4.8527 10.375-6.5091 3.8396-3.3712 6.0502-3.8967 5.3077-1.2616-0.2712 0.9625-1.0303 5.125-1.687 9.25-1.3916 8.7424-2.1746 10.437-10.122 21.911-11.895 17.173-37.933 34.369-57.038 37.669-4.5622 0.78804-9.645 1.9306-11.295 2.539-4.2174 1.5552-27.518 2.2534-36.543 1.0951-4.9026-0.62925-12.079-2.753-20.5-6.067-7.1263-2.8044-19.482-6.7081-27.457-8.6748-17-4.1926-21.259-6.0498-34-14.829l-9.5-6.5459-0.27555 14.86c-0.26231 14.146-0.13166 15.309 2.7182 24.206 1.6465 5.1402 4.2883 11.369 5.8706 13.842 4.5771 7.1531 18.976 20.194 24.726 22.394 9.0599 3.4664 10.251 5.4851 12.451 21.102 0.61976 4.4 3.1616 14.75 5.6484 23s4.7634 15.858 5.0588 16.907c0.30274 1.0746-0.895 4.8676-2.7439 8.6896-3.1394 6.4894-3.4794 6.8268-7.8672 7.8057-2.5223 0.56273-8.5402 1.3195-13.373 1.6818-7.6029 0.56987-9.0517 0.41923-10.75-1.1177-1.0796-0.97699-1.9612-2.4941-1.9591-3.3714 8e-3 -3.3402 4.0586-8.1439 8.7339-10.357 6.7095-3.1765 6.7736-5.8662 0.52123-21.872-4.8521-12.421-10.757-21.893-15.442-24.771-1.258-0.77291-9.5739-3.3163-18.48-5.652-11.824-3.1012-17.404-5.0807-20.686-7.3385-3.9511-2.7184-18.873-15.564-28.472-24.51l-3.3206-3.0946 0.68572 6.5c0.91222 8.6471 4.8363 15.061 10.6 17.325 4.0395 1.5868 4.1149 1.7044 3.5918 5.6045-0.29388 2.191-2.5963 8.6158-5.1164 14.277-2.5202 5.6615-7.4996 18.169-11.066 27.794-7.7006 20.786-8.3341 21.528-19.251 22.551-11.514 1.0789-18.154 0.24239-23.115-2.9119-3.5218-2.2393-4.2544-3.2173-4-5.3394 0.4836-4.0338 6.2909-8.0071 14.828-10.145 7.3453-1.8397 7.5443-1.974 10.77-7.2641 3.0733-5.0399 3.9724-7.5884 7.1941-20.39 4.6753-18.578 4.5688-20.5-1.1352-20.5-3.7472 0-8.9282-2.1879-15.96-6.74-4.1112-2.6613-6.9231-5.6216-10.5-11.054l-4.8852-7.4196-8 0.75137c-10.638 0.99914-13.01 1.0087-19.518 0.0785l-5.5185-0.78866-4.135 9.3363c-7.1064 16.045-11.296 42.539-10.585 66.933l0.48402 16.597-5.2494 4.4034c-2.8872 2.4219-7.6681 6.5409-10.624 9.1534-2.9562 2.6125-5.9889 4.75-6.7393 4.75-0.75042 0-2.6582 0.22667-4.2394 0.50371-1.985 0.34779-5.1192-0.56157-10.125-2.9377z" fill="param(fill)" fill-opacity="param(fill-opacity)" stroke="param(outline)" stroke-opacity="param(outline-opacity)" stroke-width="param(outline-width) 0.2"/>
</svg>
