<svg version="1.1" width="512" height="512" viewBox="0 0 512 512" xmlns="http://www.w3.org/2000/svg">
 <path d="m22.428 424.91c-13.664-23.701 23.024-32.64 21.771-55.806 6.5157-18.265 22.423-31.405 30.595-49.027 14.19-18.251 5.6058-41.54 2.0322-61.864 0.53232-19.057-7.1167-30.149-21.808-40.442-10.688-16.078-6.2335-36.144-8.788-54.24-15.425 2.4306-32.93-8.3312-31.303-25.553-1.2376-17.609 27.69-34.104 37.863-15.476 4.6395 3.1839 15.537-16.459 26.838-15.78 11.754-9.6281 32.838-1.6802 41.295-6.7667-6.4475-23.974 31.37-31.793 38.613-9.7802 10.48 12.044-15.481 31.256 9.6176 29.737 24.739 1.5409 44.145 19.117 68.153 23.695 43.407 12.177 89.928 9.1433 132.46 24.619 32.845 12.988 51.841 45.589 66.965 75.636 11.693 23.6 9.7684 51.002 18.909 75.213 8.6449 19.125 30.914 26.561 41.491 43.664-2.1067 19.503-4.3213 46.697-22.628 57.452-14.98 7.5514-18.913-0.41612-26.925 0.84407 8.1375-8.5549 26.543-29.681 4.0725-35.585-28.392-10.663-58.66-20.206-80.453-42.428-13.193-11.255-7.0893 22.211-7.7171 31.046 5.947 15.042 12.941 28.824-8.7507 33.971-18.167 11.2-39.909 12.368-60.011 6.4069-14.001-10.825 25.621-13.528 29.008-18.896-14.778-16.49-33.294-30.314-44.178-49.875 4.9792-23.644-26.481-27.178-40.517-23.896-5.7514 23.636-19.39 44.732-35.591 62.543-15.418 6.4852-29.341-6.8238-43.729-5.1273-2.3415-5.5698-25.303 1.9308-11.78-11.333 13.563-7.4392 30.048-5.9782 29.336-26.356 0.9276-10.025 7.8604-21.369 1.2956-30.607-7.4042-11.752-34.458-23.822-33.24-0.43664-8.2642 27.52-26.172 56.301-55.967 63.06-16.692 8.6788-27.005 24.905-41.354 36.594-7.3844 3.3453-17.251 22.498-25.571 14.795z" fill="param(fill)" fill-opacity="param(fill-opacity)" stroke="param(outline)" stroke-opacity="param(outline-opacity)" stroke-width="param(outline-width) 0.2"/>
</svg>
