<svg version="1.1" width="512" height="512" viewBox="0 0 512 512" xmlns="http://www.w3.org/2000/svg">
 <path d="m239.32 506.9c-14.54-6.9915 1.9449-31.561-3.6594-45.735-0.23787-26.168-1.8552-52.649-11.035-77.418-0.83388-17.708 7.9228-36.078-2.6184-53.514-2.8379-8.1354-12.058-38.263-11.048-14.208 0.11772 16.535-0.82159 33.41 0.24513 49.79 10.982 13.697-0.0485 28.034-2.5887 42.131-1.2117 27.424-8.3976 56.136 1.5722 82.718 0.20293 14.687-27.833 4.2602-14.917-9.3854 7.3628-24.696 4.0059-50.989 5.7698-76.424-1.6434-17.493-2.3396-35.392-7.6946-52.418-1.5006-8.5878-9.5626-34.905-4.8212-11.744 7.3695 18.229-0.63177 37.184 2.5826 55.555 1.8577 6.7325 9.5669 29.23 4.1579 27.702-0.49078-10.772-6.3966-14.381-4.8765-0.9032-1.4505 8.7654-6.3794 42.825-10.919 17.638-1.8538 1.4146-5.587 16.119-4.2366 1.2803 2.6362-16.285 3.4929-41.528 3.5028-52.822-4.2682 7.2262-1.6322 34.699-6.5946 30.333 0.88-25.184 3.5059-50.435 7.7939-75.265 10.439-16.59-6.979-34.556-7.5193-52.071-0.94726-24.654 1.1749-50.456 12.706-72.715 17.426-13.432 39.403-22.525 50.117-43.116 9.6499-16.666 22.296-31.396 37.533-43.111 9.8421-18.105 17.737-37.365 25.761-56.377-13.946 12.009-25.139-3.7964-14.12-15.985 4.6386-9.9614-4.6482-21.07 6.7078-27.034 1.3236-7.5181 11.896-34.709 14.58-13.806 2.3854 15.347 10.598-22.317 17.169-3.106-4.9669 8.1259-2.9321 28.594 9.0272 15.887 14.656-9.9617-2.0643 10.923-0.83559 15.401-13.105 2.3701-5.7575 27.548-14.708 37.835-8.5017 36.038-18.402 71.915-23.878 108.56 0.90705 27.882 8.6642 55.38 8.1781 83.42-8.4832 34.782-26.744 68.286-24.886 105.05 5.2608 16.543-0.23396 34.25 2.2686 51.342 0.96212 22.608 9.1423 44.043 17.237 64.828-4.6404 7.1718-23.822 4.3799-18.418-8.2743-7.5783-25.307-4.86-52.324-10.953-78.019-4.3751-17.413-5.9386-35.445-2.2281-53.106 1.1922-16.483 1.5529-33.026 3.3364-49.468-13.13-13.839-14.68 19.651-15.509 29.019-2.8505 18.044 4.8275 35.39 2.7541 53.018-13.937 36.426-3.6387 75.499-2.1616 112.99-2.5001 3.283-9.0989 1.6259-12.771 1.5354zm-54.746-85.512c0.27116-23.37-6.9324 28.529-0.43976 7.0744l0.32835-3.0198z" fill="param(fill)" fill-opacity="param(fill-opacity)" stroke="param(outline)" stroke-opacity="param(outline-opacity)" stroke-width="param(outline-width) 0.2"/>
</svg>
