<svg version="1.1" width="512" height="512" viewBox="0 0 512 512" xmlns="http://www.w3.org/2000/svg">
 <path d="m394.34 505.52c0-1.2045-1.2935-3.249-2.9231-4.6202-1.6077-1.3528-2.9231-3.2929-2.9231-4.3114 0-1.0185 2.2479-4.334 4.9953-7.3678l4.9953-5.516-0.85205-5.9431c-1.9843-13.84-0.0433-36.156 5.6414-64.859 3.7476-18.922 3.5387-25.987-1.1218-37.932l-3.192-8.1814 0.52961-17.639c0.50285-16.748 0.73324-18.402 4.562-32.742 4.0716-15.249 5.8782-19.554 5.8782-14.005 0 4.0727 5.0871 21.737 8.8036 30.569 2.5757 6.1212 3.2883 9.6016 4.389 21.436 0.72271 7.7705 1.7241 15.476 2.2253 17.123s1.2086 7.3469 1.5719 12.667c0.81865 11.986-1.0941 20.324-7.6624 33.403-2.4506 4.8795-4.4557 9.5124-4.4557 10.295 0 2.0338 1.8034 2.8721 3.3743 1.5684 1.0345-0.85857 1.553-0.73198 2.2733 0.55499 1.002 1.7904 4.4608 2.0068 9.4551 0.59168 3.3064-0.93691 3.4433-1.4542 5.2085-19.689 0.79928-8.2569 0.71772-11.265-0.42272-15.59-0.77719-2.9474-1.8707-13.471-2.4301-23.385-1.0739-19.034-4.6885-41.109-9.1736-56.026-1.2891-4.2872-4.0944-15.797-6.2341-25.577-5.0152-22.924-7.1889-27.775-16.101-35.933-10.829-9.9129-20.288-13.666-61.387-24.353-13.356-3.473-26.509-7.3792-29.231-8.6805-8.4002-4.0164-14.389-9.2752-19.599-17.211-5.5724-8.4872-13.031-17.57-18.016-21.94-3.2039-2.8084-16-11.305-25.631-17.019-7.0124-4.1602-16.171-18.169-38.109-58.286-17.063-31.204-22.045-38.403-36.308-52.467l-12.201-12.031 3.6591-8.2119c2.0125-4.5165 3.4877-8.3817 3.2783-8.5892-0.39753-0.39389-3.9128 1.2598-11.975 5.6332-6.3089 3.4224-17.484 3.7514-20.852 0.61374-3.476-3.2384-3.661-6.2813-0.72579-11.939l2.6254-5.0603-3.4692-3.1792c-6.1216-5.61-9.0677-3.5639-11.159 7.7502-0.56236 3.0421-2.1392 7.7349-3.5041 10.428-2.3058 4.5503-2.8784 5.011-8.0811 6.5028-3.0797 0.88302-6.11 2.0135-6.7338 2.5121-0.62387 0.49864-2.2608 3.7205-3.6376 7.1596-6.6143 16.522-11.476 25.261-16.832 30.253-5.0962 4.7503-5.3382 5.2061-6.3373 11.938-0.80239 5.4061-0.76304 7.3309 0.17286 8.4586 1.6445 1.9814 3.2551 1.8345 5.3576-0.48881 1.0747-1.1876 3.001-1.9487 4.9316-1.9487 2.2076 0 5.4462-1.5391 10.683-5.0768 6.4262-4.3414 8.3997-5.1684 13.623-5.7091 4.955-0.51286 7.4788-1.4862 13.363-5.154 7.6418-4.7629 10.739-5.3921 17.415-3.5376 4.5842 1.2734 14.809 11.877 17.525 18.172 3.339 7.7422 8.4952 27.7 13.125 50.804 6.8417 34.141 10.921 44.702 30.561 79.117 9.4305 16.525 9.5995 17.212 7.4306 30.214-2.8534 17.105-2.1648 21.6 6.4905 42.376 8.1765 19.626 16.63 43.897 21.796 62.581 2.7656 10.001 3.6138 15.238 4.321 26.673 0.72507 11.725 1.4043 15.807 3.8604 23.2 4.8795 14.687 5.3698 20.64 4.0193 48.803-1.4673 30.599-2.0948 34.845-6.3517 42.979l-3.3704 6.4407 7.4778 0.56554c7.7806 0.58845 19.96-0.14454 19.479-1.1723-3.8104-8.1406-3.9399-9.348-1.8281-17.046 2.4462-8.9166 2.4846-11.277 0.49093-30.218-1.0204-9.6951-1.3925-19.681-1.0923-29.319 0.39246-12.6 0.82053-15.69 3.1045-22.41 2.4404-7.1801 2.5647-8.2659 1.577-13.767-1.9522-10.872-2.2532-20.187-1.0663-33.003 0.64521-6.9667 1.3918-19.024 1.659-26.795 0.5542-16.115 1.1401-17.539 7.2205-17.539 2.0387 0 7.9996 1.5774 13.246 3.5054 18.406 6.7633 28.364 8.1167 45.594 6.1963 10.61-1.1825 11.295-1.1508 13.244 0.6131 2.7791 2.515 4.3358 5.7201 7.2333 14.892 1.5765 4.9906 4.5271 10.921 8.2693 16.62 3.2 4.8733 6.8554 10.939 8.1232 13.479 3.6976 7.4078 10.495 28.2 11.084 33.903 0.68746 6.6609-1.5639 66.572-2.74 72.915-0.85057 4.587-2.1985 6.7582-14.732 23.73-1.6792 2.2738-2.804 4.3833-2.4996 4.6877 0.30442 0.30441 6.9575 0.81295 14.785 1.1301 14.22 0.57616 14.231 0.57492 14.231-1.5839z" fill="param(fill)" fill-opacity="param(fill-opacity)" stroke="param(outline)" stroke-opacity="param(outline-opacity)" stroke-width="param(outline-width) 0.2"/>
</svg>
