<?xml version="1.0" encoding="UTF-8"?>
<svg width="256" height="512" version="1.1" viewBox="0 0 256 512" xmlns="http://www.w3.org/2000/svg">
 <path d="m132.06 447.92c-2.9019-11.003 11.278-28.108 8.5118-43.216 0.96088-21.696 1.2251-43.472-2.5054-64.925-0.51081-23.566-10.601-45.022-18.361-66.754 0.28547-17.743-12.841-33.928-7.8089-51.45 9.3171-15.777 4.4488-31.518-12.454-39.159-21.638-19.731-41.379-41.718-57.328-66.299 0.71048 8.236-15.022 25.679-19.505 8.1069 3.6329-13.683-1.3088-28.035-6.1448-39.998-0.40284-4.7671-23.506-14.272-8.5935-16.352 9.7138 3.0528 15.793 2.6798 13.728-9.5072-1.7635-11.277 10.5-15.229 8.0381-1.2295 8.3233 17.068 10.961-26.104 17.195-5.2665-1.6013 11.965 3.2769 24.054 16.87 16.612 17.488-0.51122-6.7947 14.362-6.2656 16.519 20.491 17.216 38.474 40.059 65.765 45.925 15.221 2.9451 33.297-5.7049 44.499 8.9849 13.652 12.54 26.538 27.838 45.805 31.466 17.473 6.0726 27.746 22.78 35.733 38.376 5.2684 15.382 5.9702 31.052-0.91621 46.159-5.6537 15.708-5.2989 30.973-0.92028 46.723 3.0482 14.832 1.0705 32.366-0.92772 45.485-3.8384-9.9463-4.0269-28.851-8.0038-33.931-3.9411 26.519-2.0983 53.681 1.4366 80.177-8.3538 7.7965 2.1468 23.289-14.903 20.197-15.243-1.0185 8.1133-20.951 1.7881-31.542-1.6822-10.37 1.2193-36.015-5.1156-37.16-7.0732 20.083-12.424 40.965-14.359 62.178-3.4598 10.106-8.0802 22.845-2.209 30.823-3.5426 13.111-28.418 14.864-19.334-3.2549 0.62818-14.238 0.69505-28.687-1.7703-42.896-1.5001-14.742-4.2332-29.579-10.007-42.843 1.8806-21.797-5.125-42.9-12.419-63.123-3.8805-12.109-19.184-9.3074-12.447 3.8523 2.5886 19.887 3.7778 39.957 6.8068 59.777-5.5533 24.493-3.1641 49.809-5.3399 74.649-2.2438 12.246 3.6106 25.635-15.712 23.688l-2.822-0.79214zm65.016-45.003c6.8775-23.578 13.838-47.641 13.974-72.418 0.56477-10.353 6.1207-21.631-0.561-31.056-5.6733-8.5807-10.435-31.137-19.247-29.751-7.0408 2.0534-4.2377 9.6976-4.6426 16.137 0.20494 21.171-0.48277 42.655 5.5296 63.149-3.9246 18.465-0.9021 37.555 2.4668 55.946l0.63131 0.97504 1.8491-2.9848zm42.301-112.88c3.9667-23.252-9.5693 21.648-1.2101 2.5005z" fill="param(fill)" fill-opacity="param(fill-opacity)" stroke="param(outline)" stroke-opacity="param(outline-opacity)" stroke-width="param(outline-width) 0.2"/>
</svg>
