<svg width="512" height="512" version="1.1" viewBox="0 0 512 512" xmlns="http://www.w3.org/2000/svg">
 <path d="m202.21 469.32c-29.465-11.191 7.2939-54.037-10.461-79.818-9.581-32.5-2.3721-75.38-37.951-92.427-24.492-25.894-36.863-60.628-54.356-91.232-2.264-25.744-28.521-39.495-46.444-18.889-27.032 4.7815-33.454-33.33-44.091-50.846 13.792-5.6857 38.812 41.103 31.654-0.10439 0.45544-26.178-21.98-76.824 22.708-74.255 15.775 8.0706 29.722 21.261 41.488-3.4653 31.533-31.311 90.946-20.531 107.82 21.159 11.661 22.914-7.5321 56.927 31.477 53.086 31.598 13.313 66.527 5.6911 99.729 5.3757 33.568-10.314 67.96 6.1994 98.458 19.437 35.748 14.73 30.239 60.432 20.207 90.489-3.1418 20.781-19.372 45.722 3.1612 61.659 35.653 17.892 40.559 52.395 35.486 88.545 11.51 26.744-8.0641 69.418-32.506 38.328 14.795-17.562 9.5894-76.491-7.4825-77.397-12.951 27.367-6.6375 65.452-17.507 84.975-16.66 12.974-44.083 5.2631-20.983-15.498 11.374-32.215 9.4702-69.624-12.467-97.044-14.145-40.6-49.848 14.481-78.206-5.4906-30.42-6.8717-64.233-27.13-94.185-14.102-7.0974 39.101-19.59 79.46-6.2861 118.89 9.8963 24.243-0.0854 44.172-29.262 38.62zm-117-304.16c3.5544-10.724-23.22 10.71 0 0zm-3.8111-6.5825c24.232-24.704-34.038-21.424-15.12-12.771 27.299-9.697-6.5115 7.1366 4.8192 15.184l2.947-0.22561zm114.3-0.66779c15.252-1.0992 25.777-38.042 7.8562-12.11-17.942 18.516-48.059 6.5731-58.678-10.854 5.7148 20.48 31.439 32.285 50.822 22.964zm-19.685-33.325c16.157-26.457-29.476-57.784-46.518-31.589 17.51-13.915 38.967-0.126 16.844 15.674-17.112 15.742 15.908-5.9771 18.531 15.953l5.7608 2.7862zm-107.6-4.9463c6.5338-12.532-16.456 3.3977 0 0zm51.443-5.479c8.5531-12.534-26.698-2.2396-4.5883 1.6194z" fill="param(fill)" fill-opacity="param(fill-opacity)" stroke="param(outline)" stroke-opacity="param(outline-opacity)" stroke-width="param(outline-width) 0.2"/>
</svg>
