<svg version="1.1" width="512" height="512" viewBox="0 0 512 512" xmlns="http://www.w3.org/2000/svg">
 <path d="m206.91 492.92c13.428-16.59 8.223-41.892 2.7551-61.492-6.0836-30.045 2.0905-59.943 5.4886-89.741 4.4029-15.183-3.0093-48.102 22.999-33.075 29.852 6.4073 60.726 0.30676 89.15-9.4184 12.537 11.181 29.715 17.236 35.113 34.771 18.012 26.838 20.055 60.512 12.765 91.243-1.9093 20.208-17.021 34.242-28.33 49.666 10.222 9.5338 34.059 7.7448 34.784-11.034 14.525-16.064 5.5532-45.123 14.281-65.666 2.2472-10.592 3.4098-50.525 16.93-25.756 11.163 19.44 24.839 40.542 24.445 63.602-0.28973 13.081-31.407 19.142-6.0171 22.527 24.332 10.305 22.83-21.948 26.864-35.799-9.3325-25.018-21.813-48.85-31.946-73.407-1.8652-24.764-33.769-28.649-42.575-48.862-2.5549-15.782 3.3653-49.118 16.223-51.42 13.331 21.016 7.3542-26.833 6.3783-36.557-9.4007-17.18-27.088-29.353-43.86-39.169-25.558-12.25-55.029-7.9375-82.475-8.0682-21.587 4.7205-44.131 7.5652-65.164-1.4619-19.423-9.44-52.77 4.3824-50.474-27.948-8.895-19.702-6.168-43.348 17.568-48.981 8.4822-6.4758 13.536-19.163-1.8272-18.474 22.287-14.323 46.126 10.27 47.135 32.535 0.51899 13.685 19.773 19.091 9.1384 1.3559-10.743-22.129-5.642-55.059-31.463-67.409-20.316-10.87-43.26 1.9816-60.31 13.403-25.037 12.834-43.615-23.35-69.267-15.775-25.574 5.0265-21.929 34.322-28.582 53.233-6.2955 7.2824-10.763 36.427 2.3209 16.923 3.3128-19.457 17.753-52.999 41.778-32.735 3.2992 3.1791-28.379-3.4953-12.953 11.271 18.321 11.262 33.338 25.57 32.791 49.729 8.4796 22.06 0.53497 46.65 6.562 69.443 13.118 21.095-8.055 50.121 13.655 66.936 17.827 14.721 29.943 35.042 36.022 57.365 5.6015 20.097 5.2699 41.506 13.571 60.896 2.8085 21.62 11.819 46.458 0.57135 66.727-11.603 12.511-22.899 26.724 2.9255 25.668 14.783-2.4835 0.89161 23.831 23.029 14.957z" fill="param(fill)" fill-opacity="param(fill-opacity)" stroke="param(outline)" stroke-opacity="param(outline-opacity)" stroke-width="param(outline-width) 0.2"/>
</svg>
