<svg version="1.1" width="512" height="512" viewBox="0 0 512 512" xmlns="http://www.w3.org/2000/svg">
 <path d="m441.97 482.04c-6.8944-18.187 2.1662-46.306-4.7136-68.34-2.3682-10.115-6.7303-43.95-19.888-37.22-6.2611 19.001-7.9986 47.959-18.416 63.666 11.756 20.067-47.04 23.881-28.869-0.9738 7.267-23.85 20.883-46.93 20.606-72.353-4.2197-20.154-25.384-40.705-37.893-47.945-29.987 7.7396-61.199 13.762-92.017 6.8891-13.568-2.8528-29.439-8.5834-27.444 11.172-4.6053 25.179-5.1317 50.922-7.4959 76.287 0.66798 21.065 13.498 57.623-18.648 60.277-28.18 4.206-21.879-22.081-8.4649-34.07 0.97948-20.374-2.8198-40.446-6.4902-60.388-9.3606 23.927-15.905 49.619-14.109 75.566-14.851 3.3226-47.985 2.746-29.181-19.799 15.64-27.67 11.173-60.05 18.084-89.978 9.9247-20.688 2.9909-35.426-18.096-42.626-8.4049-7.1305-21.436-10.923-23.91-22.913-3.1133-18.727-11.445-35.638-22.937-50.827-11.038-12.18-11.652-28.981-17.566-43.606 1.2244 12.888-18.767 17.389-11.376-0.15311 17.175-26.231-39.41-3.4191-28.375-33.944-1.6129-9.4227 1.9408-17.675 6.4484-25.712 3.5707-5.8718-1.8542-15.011-4.8539-19.545-17.115-2.4667-36.825-12.969-38.549-31.924 13.464-8.9433 43.087 20.05 56.05-0.41131 14.316-5.4613 8.4796-44.662 20.974-36.297 6.6298 13.305-18.648 45.322 9.0566 31.406 8.9781-9.2047 31.922-28.511 39.214-22.031-15.588 6.4223-25.295 31.6-1.4355 21.031 13.96 9.9247 12.477 32.904-1.8302 41.924 1.8716 18.729 1.3095 41.176 19.412 52.353 12.91 7.2795 30.787 0.23931 46.079 2.5825 11.433-2.2134 20.587 4.0708 31.181 6.1715 33.202 0.67885 64.699-13.234 97.958-13.45 26.677-1.1466 53.412-0.75049 79.826-5.1219 24.409-0.13604 37.66 25.899 54.078 40.412 19.976 17.028 14.243 45.529 28.02 65.639 4.2174 9.2292 20.407 24.207 7.4636 21.776 10.125 13.526-5.425 0.9168-2.6231 6.2475 2.3842 6.6699-7.25-3.9444 0.71993 7.9494-11.506-9.0765-8.01 0.38318-5.3498 2.7364-23.361-7.2023-26.937-31.479-26.395-52.506-3.7815-20.042-15.777 4.8685-7.6331 7.0152-2.8341 1.8242 0.82895 7.3687-6.7518 10.822-4.5237 22.738-11.011 45.932-4.3918 68.985 6.3535 20.619 25.384 37.795 16.705 62.145 5.7269 23.227 3.9453 48.016 13.36 70.312 0.48312 14.978-17.926 19.192-29.531 18.767z" fill="param(fill)" fill-opacity="param(fill-opacity)" stroke="param(outline)" stroke-opacity="param(outline-opacity)" stroke-width="param(outline-width) 0.2"/>
</svg>
