<svg version="1.1" width="512" height="512" viewBox="0 0 512 512" xmlns="http://www.w3.org/2000/svg">
 <path d="m355.89 500.42c15.897-7.547 46.401-5.142 47.116-28.349-3.5145-18.656-8.4353-37.621-15.351-55.277-15.174-14.106-23.554-31.414-20.437-52.616-7.2361-20.397 3.4706-37.071 10.659-55.364-0.58144-27.751-4.508-55.406-8.3656-82.857-9.1426-28.413-18.882-56.901-31.151-84.162-15.49-12.592-32.517-23.786-44.792-40.315-13.666-13.048-38.747-17.901-39.923-40.204-2.7813-25.805-25.144-50.247-51.772-50.933-22.252 3.6615-32.568 26.799-49.047 39.603-9.0579 9.5578 4.1097 23.961-10.714 32.76-10.769 15.274-16.569 35.68 3.668 45.836 7.7649 18.807 3.5697 40.422 4.8693 60.421-2.2763 32.043 9.1124 64.022 1.2096 95.751-8.0238 37.644-29.229 70.414-44.026 105.42-2.5488 20.065-6.3403 42.958 1.4878 61.894 13.359 9.9009 43.964 9.9044 52.474-5.4061 0.80343-12.581-12.994 4.7122-9.8293-9.5694-19.18-3.1429-2.9391-22.892-7.1012-35.901 3.1754-11.563 19.031-16.365 26.617-25.495 13.228-11.97 20.779-30.331 29.681-44.074-9.3476 24.59 1.0204 50.959 15.878 70.957 12.001 13.514 14.396 32.183-8.5163 22.049-22.648-5.7208-36.58 36.112-12.165 41.55 20.627 3.9264 39.986-7.5738 60.317-8.991 10.596-6.6465 5.1387-21.767 6.4415-32.559 12.989-0.83973 36.189 1.1578 34.183-17.502-1.7194-11.765-24.312-13.363-7.4078-22.768 5.192-7.8135-1.9514-34.545 2.8765-30.277 11.382 17.509 19.601 36.547 28.594 55.212 10.72 12.455 24.175 27.919 27.678 42.528-12.144 10.768-44.557 23.42-25.808 42.495 8.4846 8.5759 21.671 8.6096 32.655 6.1402zm-144.81-191.62c7.0171-12.167 5.5866-33.235 13.76-41.419 12.409 7.7203 25.517 19.926 5.3619 28.28-8.2265 5.9595-17.742 15.163-22.457 21.956 0.84794-3.0341 2.1342-5.9143 3.335-8.8172z" fill="param(fill)" fill-opacity="param(fill-opacity)" stroke="param(outline)" stroke-opacity="param(outline-opacity)" stroke-width="param(outline-width) 0.2"/>
</svg>
