<svg version="1.1" width="512" height="512" viewBox="0 0 512 512" xmlns="http://www.w3.org/2000/svg">
 <path d="m223.18 498.25c-1.1946-0.50352-4.0456-2.2046-6.3356-3.7802-3.3116-2.2784-4.2814-3.5858-4.7389-6.3881-1.4553-8.9138-1.3513-8.7118-4.5369-8.812-4.573-0.14377-7.6769-1.2507-7.9844-2.8473-0.15274-0.7931 1.3822-3.537 3.411-6.0975 4.5935-5.7975 7.7179-11.868 7.7179-14.997 0-1.3137 0.79792-4.4886 1.7732-7.0551l1.7731-4.6666-2.8064-2.663c-1.5435-1.4647-4.6705-5.5321-6.949-9.0387l-4.1426-6.3756 1.0285-81.624-1.9172 1.7351c-1.901 1.7204-1.9095 1.7082-1.0078-1.4361 0.86654-3.0215 0.70867-3.3428-3.3444-6.8073-4.8516-4.1471-8.9631-10.572-8.9631-14.006 0-1.6552-1.5064-3.6347-5.1787-6.8051-3.5868-3.0966-5.9819-6.2096-7.7917-10.127-1.9324-4.1828-3.0271-5.5524-4.203-5.2584-1.3649 0.34128-1.697-0.82461-2.3451-8.2337-0.41528-4.7472-0.722-9.0563-0.68161-9.5758 0.0404-0.51944 0.37865-4.7189 0.75167-9.3321 0.6081-7.5205 0.51948-8.3268-0.8572-7.7985-1.2591 0.48317-1.1961 0.11265 0.35011-2.0588 1.037-1.4564 2.1678-3.8971 2.5127-5.4237 0.34494-1.5267 3.3517-8.563 6.6816-15.636 6.779-14.4 10.181-23.5 8.7839-23.5-0.51216 0-2.5973 0.85-4.6337 1.8889-2.0364 1.0389-4.0382 1.8684-4.4485 1.8435-0.41028-0.0249 1.714-1.315 4.7207-2.8667 3.4904-1.8014 5.795-3.685 6.375-5.2105 1.179-3.1009 1.1613-5.3674-0.0361-4.6274-2.6902 1.6626 0.91797-4.9039 4.6379-8.4406 1.6047-1.5257 2.9176-3.242 2.9176-3.8142 0-0.57215 0.84357-2.6949 1.8746-4.7172 1.031-2.0223 1.7748-3.7676 1.6528-3.8783-0.12201-0.11076-2.5593-0.63339-5.4163-1.1614l-5.1944-0.95998 12.227 0.30501 1.277-3.7778c1.7774-5.2583 1.2111-19.282-0.83063-20.57-1.2504-0.78874-1.3384-1.7014-0.5491-5.6935 1.9172-9.6966-4.7396-34.658-12.215-45.803-2.8616-4.2663-5.3026-9.6754-7.5055-16.631-1.7956-5.6698-3.2688-10.77-3.2739-11.333-5e-3 -0.56352-1.048-3.2558-2.3177-5.9829-2.1359-4.5878-2.1796-4.9583-0.58381-4.9583 1.5696 0 1.7825-1.3371 2.3689-14.875 0.64518-14.897 0.13716-20.457-2.5932-28.382-1.2755-3.7022-1.2525-3.9656 0.34622-3.9656 1.4439 0 1.5883-0.4332 0.9203-2.7622-0.88795-3.0961-0.4917-3.8489 2.0259-3.8489 1.1019 0 1.7315-0.68687 1.7315-1.8889 0-3.849 1.9608-1.656 6.122 6.8472 2.4475 5.0012 8.6611 14.631 14.534 22.525 12.905 17.347 17.369 24.859 21.28 35.813l3.1067 8.7012 0.55036-8.8462c0.39731-6.3862 1.6644-12.654 4.5568-22.541 3.3863-11.575 4.0224-15.083 4.1092-22.667 0.0565-4.9347 0.42519-9.4893 0.81926-10.121 0.39406-0.63199 2.7927-2.1919 5.3302-3.4664 3.691-1.8539 4.7146-2.0547 5.1177-1.0041 0.27717 0.72231 1.4784 1.5597 2.6694 1.8608 1.2886 0.32584 2.8226 1.9625 3.7884 4.042 0.89266 1.922 2.518 4.982 3.6118 6.8 1.7801 2.9586 1.9128 4.0985 1.2649 10.861-1.1562 12.067-0.6812 22.913 1.442 32.923 3.3747 15.912 2.1712 28.735-3.7981 40.47-2.2504 4.4239-2.2317 4.8615 0.18101 4.2306 1.4416-0.37699 1.8181-0.15523 1.4167 0.83429-0.30075 0.74127-0.79663 1.964-1.1019 2.7171-0.38028 0.93808 0.5555 1.8334 2.9712 2.8427 3.4777 1.4531 3.5022 1.5 1.7754 3.4082-2.5298 2.7954-0.99582 4.5501 6.7452 7.7155 6.4963 2.6564 10.695 5.8065 11.14 8.3578 0.12803 0.73379 0.56068 2.3108 0.96145 3.5045 0.40077 1.1937 0.33323 2.6812-0.15008 3.3056-1.1584 1.4965-5.6674 16.407-6.0554 20.024-0.19887 1.8539 1.0017 5.5249 3.4732 10.62 4.3763 9.0219 3.3274 8.8109 16.527 3.3252 10.218-4.2465 20.908-7.33 22.801-6.5768 0.73597 0.29287 0.38175 0.54206-0.83137 0.58485-6.8836 0.24283-34.247 11.201-34.247 13.715 0 1.8614-0.46173 1.9085 9.5727-0.97829 4.6813-1.3468 8.6938-2.2664 8.9166-2.0436 0.22281 0.22282-3.2692 1.431-7.7599 2.6848-9.8473 2.7494-13.44 4.782-6.4141 3.6289 2.5614-0.42039 6.5696-0.73455 8.9071-0.69812 3.1076 0.0485 2.3459 0.28122-2.8333 0.86602-10.04 1.1337-11.333 1.5496-11.333 3.646 0 1.5237 0.81063 1.8782 4.9583 2.1684l4.9583 0.34688-5.8017 0.1747c-7.3967 0.22273-8.693 2.1906-2.8813 4.3742 3.5668 1.3401 2.4533 1.3465-2.6503 0.0153-2.6502-0.69131-5.7454 4.5412-3.6935 6.244 0.74332 0.6169 1.9891 3.315 2.7684 5.9957 2.0448 7.034 9.3895 13.791 23.12 21.269 14.399 7.8426 21.573 13.009 30.805 22.185 8.2508 8.2005 15.133 18.001 18.36 26.145 3.4142 8.6174 6.4736 20.136 5.5068 20.734-0.49444 0.30557 0.75987 2.647 2.7874 5.2033 2.0275 2.5562 5.0381 7.3352 6.6902 10.62 4.1378 8.2266 10.402 25.529 9.368 25.874-0.4664 0.15547-0.94227 4.7412-1.0575 10.19-0.12084 5.7157-0.64795 10.307-1.2458 10.852-0.56998 0.51944-1.5262 4.8176-2.125 9.5515-1.4194 11.222-1.3826 12.643 0.328 12.643 0.77917 0 1.4167 0.79687 1.4167 1.7708 0 1.2258 0.90361 1.9516 2.9356 2.358 1.983 0.3966 2.7723 1.0127 2.4324 1.8985-0.27678 0.72127 0.12889 2.2139 0.9015 3.3169 1.7056 2.4351 1.9144 8.4949 0.39075 11.342-0.61275 1.1449-2.4682 2.8945-4.1232 3.8879-1.655 0.99341-3.8592 3.3943-4.8981 5.3353-2.7263 5.0936-7.1649 7.3558-14.477 7.378-5.6954 0.0174-6.0774 0.16245-7.507 2.8516-1.4443 2.7169-1.5281 2.7472-2.039 0.73664-0.31584-1.243-0.9559-1.8198-1.5719-1.4167-2.6523 1.7356-3.2583 5.1956-3.0016 17.137 0.15842 7.368-0.11782 12.616-0.69482 13.2-1.5052 1.5236-12.649 3.5424-31.626 5.7292-21.867 2.5199-23.419 2.9424-29.749 8.0977-2.9702 2.4192-6.1487 4.2104-7.4716 4.2104-1.2663 0-4.494 0.50588-7.1726 1.1242-3.8318 0.88449-5.2713 0.87373-6.7512-0.0504-1.3074-0.81649-3.8335-0.98227-8.2844-0.5437-5.5834 0.55018-6.5922 0.9497-7.8775 3.1199-3.5973 6.0738-9.6501 8.8528-14.672 6.7361zm15.866-14.367c0-3.8063 13.82-14.264 22.868-17.304 2.2266-0.74819 11.332-2.1741 20.233-3.1686 16.09-1.7977 22.869-3.6393 26.933-7.3173 1.916-1.7339 3.1881-10.127 2.2738-15.001-0.61095-3.2566-0.72371-3.3332-4.0032-2.7179-1.856 0.34819-6.0486 2.657-9.3169 5.1308-4.1822 3.1655-9.6721 5.9313-18.535 9.3376-17.637 6.7788-21.113 8.4484-27.971 13.436-4.7416 3.4486-7.1286 4.5243-11.156 5.0275-5.2117 0.65116-10.771 4.0653-10.771 6.6148 0 1.6839 7.418 8.2502 8.5382 7.5579 0.49841-0.30803 0.90619-1.0261 0.90619-1.5957zm1.9317-33.864c10.503-3.7572 20.528-9.2139 22.994-12.516 1.8012-2.4126 1.8418-2.8127 0.52284-5.1625-1.613-2.8738-4.5107-3.8586-5.7233-1.9452-0.59435 0.93786-0.81086 0.74689-0.82151-0.72463-0.0186-2.5739-6.058-14.668-8.3692-16.759-1.7118-1.5492-2.0308-0.96479-9.3208 17.078-8.5918 21.265-9.1828 22.929-8.1424 22.929 0.41459 0 4.4019-1.305 8.8608-2.9zm-11.866-41.016c5.0236-11.633 5.3785-12.894 4.0538-14.403-0.79847-0.90929-1.7432-2.6095-2.0993-3.7782-0.71793-2.3559-1.5166-2.6398-3.0664-1.09-0.7504 0.75039-1.2178-0.0468-1.6997-2.8991-0.36557-2.1638-1.1536-4.1211-1.7511-4.3496-1.0793-0.41272-1.2625-14.057-0.25917-19.304 0.37858-1.9801-0.15896-2.7321-3.2067-4.4861-2.0138-1.159-3.896-2.1073-4.1827-2.1073-1.2068 0-0.47108 40.013 0.90401 49.168 1.4344 9.55 3.439 15.998 4.9734 15.998 0.45557 0 3.3058-5.7373 6.3339-12.75zm-1.3991-282.45c0-0.81215-0.71679-6.0184-1.5929-11.569l-1.5928-10.093-1.1993 5.6667c-1.2967 6.127-1.6273 13.584-0.70842 15.978 0.7576 1.9743 5.0934 1.989 5.0934 0.0173zm83.111 99.894c-5.4542-2.9339-14.167-6.9233-19.361-8.8654-5.1944-1.9421-8.9422-3.5483-8.3283-3.5694 3.7107-0.12738 30.75 11.87 36.213 16.068 3.5297 2.7122 2.2914 2.1844-8.5238-3.6333zm33.056-9.6398c-1.8696-0.59875-1.9679-0.75616-0.47222-0.75616 1.0389 0 2.9514 0.34028 4.25 0.75616 1.8696 0.59875 1.9679 0.75616 0.47222 0.75616-1.0389 0-2.9514-0.34027-4.25-0.75616zm-14.639-2.9269c-6.3404-1.2919-7.1802-1.6089-3.3056-1.2477 5.4285 0.50603 16.979 3.0366 13.694 3.0004-1.0389-0.0114-5.7139-0.80017-10.389-1.7527zm-13.458-2.4464c0.90903-0.23755 2.3965-0.23755 3.3056 0 0.90902 0.23755 0.16527 0.43192-1.6528 0.43192-1.8181 0-2.5618-0.19437-1.6528-0.43192zm-7.0723-0.96138c1.1748-0.2259 2.8748-0.21733 3.7778 0.0191 0.90297 0.23638-0.0583 0.42122-2.136 0.41074-2.0778-0.0105-2.8166-0.2039-1.6418-0.4298zm-8.511-0.943c1.1688-0.22512 3.0812-0.22512 4.25 0 1.1688 0.22511 0.2125 0.40929-2.125 0.40929s-3.2938-0.18418-2.125-0.40929zm-10.372-0.96239c1.6975-0.21019 4.2475-0.20586 5.6667 0.01 1.4192 0.21551 0.0303 0.38748-3.0864 0.38218-3.1167-6e-3 -4.2778-0.18161-2.5803-0.39181zm13.205-8.5168c3.766-0.17927 9.9285-0.17927 13.694 0 3.766 0.17927 0.68472 0.32595-6.8472 0.32595-7.5319 0-10.613-0.14668-6.8472-0.32595zm-2.125-6.4085c2.0778-0.68478 4.6278-1.2397 5.6667-1.2332 1.0389 7e-3 -0.23611 0.60317-2.8333 1.3259-5.9088 1.6442-7.9052 1.5789-2.8333-0.0926zm8.7951-2.0354c0.68177-0.27282 1.4964-0.23928 1.8102 0.0745 0.31383 0.31383-0.24399 0.53704-1.2396 0.49604-1.1002-0.0453-1.324-0.26911-0.57061-0.5706zm3.7778-0.94445c0.68176-0.27282 1.4964-0.23927 1.8102 0.0745 0.31383 0.31383-0.24399 0.53705-1.2396 0.49604-1.1002-0.0453-1.324-0.26911-0.5706-0.57059zm3.7188-0.92477c0.6493-0.262 1.7118-0.262 2.3611 0 0.6493 0.262 0.11805 0.47637-1.1806 0.47637s-1.8299-0.21437-1.1806-0.47637zm6.2352-1.2886c1.4814-0.44404 5.0939-1.0283 8.0278-1.2983 5.2514-0.48334 5.2315-0.47043-1.2768 0.83048-7.3378 1.4667-10.909 1.7142-6.751 0.46783zm-152.86-2.4169-9.4444-1.2176 8.5 0.50977c9.5938 0.57537 19.512 1.9856 13.694 1.9472-1.818-0.012-7.5556-0.56975-12.75-1.2394zm168.35-0.11329c1.1688-0.22512 3.0812-0.22512 4.25 0 1.1688 0.22511 0.2125 0.40929-2.125 0.40929s-3.2938-0.18418-2.125-0.40929zm9.4234-0.95956c1.6766-0.20863 4.6516-0.21206 6.6111-8e-3 1.9595 0.20445 0.58773 0.37515-3.0484 0.37934-3.6361 4e-3 -5.2393-0.16308-3.5627-0.37172z" fill="param(fill)" fill-opacity="param(fill-opacity)" stroke="param(outline)" stroke-opacity="param(outline-opacity)" stroke-width="param(outline-width) 0.2"/>
</svg>
