<svg version="1.1" width="512" height="512" viewBox="0 0 512 512" xmlns="http://www.w3.org/2000/svg">
 <path d="m210.08 488.92c-30.545 1.8576-17.97-33.047 2e-3 -41.838 11.209-12.401 8.0071-37.451-7.7817-18.661-7.4827 19.352-17.66 38.401-42.384 32.178-16.46 0.56025-54.73 1.5911-34.507-24.839 12.302-15.815 43.475-14.127 33.848-42.053-1.7988-19.147-24.969-30.455-23.735-51.893-7.7573-9.6678-36.806-0.9642-44.362-17.402-11.861-25.022 4.734-51.368 7.5875-76.606 0.21841-21.627 12.277-39.982 22.743-56.397-8.3388-23.036-26.135-38.366-44.051-54.241-21.386-25.6-31.057-58.724-49.439-86.199-12.913-4.1595-14.512-24.872 0.68561-11.905 23.397 11.74 48.306 21.592 67.73 39.867 28.209 23.203 49.818 53.296 63.786 86.962 6.4549 17.971 29.23-4.0601 25.59-17.748 2.1883-31.855 5.891-66.545 29.682-90.407 17.444-13.375 35.019-32.721 57.271-36.076 22.245 11.462 13.344 46.424 13.852 68.007-2.5301 31.136-19.544 58.7-41.798 79.779-13.991 19.819-7.0626 51.701 19.752 29.615 37.332-16.72 80.283-24.099 119.96-11.176 26.92 5.975 53.463 18.125 69.478 41.592 25.381 29.532 28.66 70.013 28.882 107.24 3.3612 23.065-17.443 41.091-12.413 63.174 0.45982 23.146 2.6541 55.675-28.716 57.694-14.689 2.9555-26.964 13.77-41.244 17.089-13.882-0.32779-28.143 0.98791-41.795-0.33222-26.132-6.6478-12.367-31.379 2.9671-42.554-15.273-0.76661-37.478 2.2767-55.485 1.2254-7.2114 1.4577-17.686-2.9369-22.813 2.26-9.8753 15.506-19.438 31.616-23.25 49.793-14.736 8.056-33.854 3.1218-50.04 3.8492z" fill="param(fill)" fill-opacity="param(fill-opacity)" stroke="param(outline)" stroke-opacity="param(outline-opacity)" stroke-width="param(outline-width) 0.2"/>
</svg>
