<svg version="1.1" width="512" height="512" viewBox="0 0 512 512" xmlns="http://www.w3.org/2000/svg">
 <path d="m213.87 390.07c10.726-1.5806 20.372-7.5043 25.724-15.796 4.5321-7.022 8.9798-10.952 14.464-12.781 6.1325-2.0454 9.3532-1.9604 15.536 0.40979 8.9329 3.4245 25.363 5.885 39.205 5.8712 13.777-0.0137 18.388-0.90838 29.213-5.6683 12.659-5.5659 18.019-6.5922 27.369-5.2403 8.9767 1.2979 7.913 1.5483 24.463-5.7586 2.7998-1.2362 5.429-1.906 5.8427-1.4885 1.0583 1.068-13 13.752-17.984 16.226-2.5286 1.255-7.2519 2.334-12.186 2.7838-4.4314 0.40391-9.1463 1.3528-10.478 2.1088s-4.352 2.0317-6.7125 2.8351c-4.8438 1.6485-7.0453 4.1459-5.2433 5.9479 1.7485 1.7485 44.959 1.7536 51.894 6e-3 8.4631-2.1324 12.187-4.4563 15.242-9.5114 1.5251-2.5238 5.8929-7.7772 9.7064-11.674 5.3048-5.4213 7.5695-8.6391 9.6409-13.698 2.9802-7.2786 6.2212-10.994 9.5897-10.994 3.5192 0 7.1876 4.7114 8.7252 11.206 0.75979 3.2092 2.3455 8.978 3.5239 12.82 2.7235 8.8788 2.4047 11.85-1.5457 14.407-5.6732 3.6722-9.5855 5.8084-12.967 7.0798-3.5638 1.3402-7.8335 4.8301-7.8335 6.403 0 0.55338 1.9712 0.70623 4.795 0.37178 3.3771-0.39997 5.112-0.18598 5.8669 0.72366 1.3212 1.5919 20.373 1.9254 25.076 0.43894 1.7138-0.54169 4.433-2.4848 6.0426-4.318 2.4741-2.8178 3.3776-3.2429 5.8446-2.7495 2.5685 0.51369 2.9971 0.2687 3.5778-2.045 0.36286-1.4457 0.36257-5.5292-6.4e-4 -9.0743-1.1037-10.772-12.066-51.653-16.575-61.81-0.60943-1.3728-0.39964-1.6011 1.0511-1.1437 1.6812 0.53007 1.6891 0.49208 0.10842-0.52422-1.7705-1.1384-2.3146-4.4018-0.88166-5.2874 0.45235-0.27956 3.1358 0.37069 5.9632 1.445 6.071 2.3068 7.7984 1.8776 1.916-0.47611-5.8689-2.3483-6.9918-3.7678-6.0021-7.5874 0.67279-2.5964 1.532-3.3935 4.6619-4.3252 2.1104-0.62825 5.5899-0.95639 7.7322-0.72921 2.8724 0.30461 3.3838 0.18134 1.9476-0.46951-1.863-0.84427-1.8419-0.92344 0.48689-1.8238 4.955-1.9157 5.2844-2.1592 2.1894-1.6185-2.8603 0.49969-12.271-1.7609-14.078-3.3818-1.3717-1.2305 0.83587-2.8643 8.7418-6.4694 4.4286-2.0195 7.9051-3.8188 7.7254-3.9984-0.17962-0.17962-3.7684 0.99875-7.9752 2.6186-7.7695 2.9918-10.237 3.1118-10.237 0.49777 0-0.97384 2.9757-2.4223 9.0074-4.3846 4.9541-1.6117 7.4737-2.7287 5.5992-2.4823-2.1169 0.27828-0.45661-0.62578 4.382-2.3861 9.5328-3.4681 8.6056-3.7191-2.634-0.71307-4.6622 1.2469-8.2936 1.9709-8.0698 1.6089 0.22375-0.36203 6.3388-4.2902 13.589-8.7293s13.182-8.2336 13.182-8.4322-4.966 2.2697-11.036 5.4851-11.876 5.8329-12.903 5.8166c-1.7491-0.0278-1.7581-0.093-0.14245-1.0336 0.94852-0.55221 1.4244-1.4898 1.0575-2.0834-0.43558-0.70479-0.0872-0.85686 1.0039-0.43819 0.91904 0.35267 1.4564 0.29408 1.1942-0.13021-0.26223-0.42427 1.906-2.1966 4.8183-3.9385 2.9123-1.7419 5.2951-3.3401 5.2951-3.5514 0-0.21137-3.177 1.0945-7.0599 2.9019-3.8829 1.8074-8.5936 3.552-10.468 3.8768l-3.4082 0.59059 3.4082-2.037c3.5072-2.0962 3.1978-2.0368-5.7517 1.1038-5.9025 2.0714-6.7313 2.224-5.3981 0.99429 1.7128-1.5798 14.013-5.1398 15.265-4.4181 0.72317 0.41675 0.90151 0.34514 0.42774-0.17172-0.44689-0.48755-3.1435-0.88646-5.9925-0.88646-2.849 0-4.7839 0.24497-4.2998 0.54437 0.48408 0.29939-1.387 0.57856-4.1581 0.62036-6.6103 0.0997-5.1074-0.57108 12.555-5.6037 8.1511-2.3225 14.698-4.3451 14.548-4.4947s-5.3961 0.81336-11.659 2.1398c-6.2628 1.3265-12.371 2.3934-13.574 2.371-1.8643-0.0348-1.684-0.31645 1.2208-1.9067 1.8745-1.0262 2.8164-1.8843 2.0932-1.9067-2.4209-0.0752 9.038-7.1256 14.461-8.8976 7.0228-2.2948 4.4837-2.2681-5.8182 0.0611-4.539 1.0262-8.3522 1.7664-8.4738 1.6447-0.12161-0.12162 4.1398-3.6688 9.4699-7.8827 5.33-4.2139 9.691-7.8049 9.691-7.9802 0-0.17521-5.4372 3.3701-12.083 7.8785-7.7243 5.2403-13.432 8.4242-15.824 8.8269-2.0577 0.34641-5.1569 1.0623-6.887 1.5908-5.5084 1.6828-5.8945-0.28051-0.58957-2.9974 18.566-9.5085 26.619-13.774 26.619-14.101 0-1.1348-7.5581 1.6937-16.354 6.1204-5.5135 2.7747-10.43 4.7941-10.926 4.4876-0.49598-0.30654-2.27 0.15018-3.9422 1.0149-8.2261 4.2539-1.0447-2.4388 9.3128-8.6791 6.0277-3.6316 6.6554-4.6971 1.1689-1.9841-2.3238 1.1491-1.1351-0.4142 4.6738-6.1467 9.4352-9.311 12.085-12.443 7.7902-9.2073-7.021 5.2895-17.192 10.892-19.775 10.892-0.34388 0 2.6393-3.2865 6.6294-7.3033 3.99-4.0168 6.7178-7.3033 6.0617-7.3033-0.65606 0-1.1928 0.46406-1.1928 1.0312s-0.44905 0.75371-0.9979 0.41451c-0.54885-0.33921-0.8775-0.17485-0.73034 0.36525 0.25499 0.93582-14.141 14.494-18.234 17.173-2.5173 1.6475-8.2771 2.851-8.2771 1.7296 0-0.47559 2.6292-2.5662 5.8427-4.6458 5.7337-3.7105 7.7396-5.4657 3.8951-3.4082-1.0712 0.57326-1.9476 0.83841-1.9476 0.58922 0-0.24918 3.9438-2.7292 8.764-5.5111 4.8202-2.7819 8.764-5.2289 8.764-5.4379s-2.6167 0.94104-5.8149 2.5555c-7.0696 3.5687-7.8541 3.649-4.8967 0.50091 3.6768-3.9138 1.4567-2.8056-3.8866 1.94-4.463 3.9638-11.424 8.2846-13.347 8.2846-0.41632 0 5.8106-6.6464 13.838-14.77 8.027-8.1234 12.403-12.901 9.7256-10.617-7.8513 6.6975-11.143 7.6676-5.5992 1.6502 2.3134-2.5111 2.0679-2.4189-1.8044 0.67705-6.0759 4.8578-8.2862 4.5576-2.821-0.38316 3.5438-3.2038 3.7125-3.4827 0.88186-1.458-3.8169 2.7302-5.2954 3.186-4.1722 1.2863 0.39584-0.66947-0.67417 0.25367-2.3778 2.0514-1.9864 2.0962-3.6497 3.0567-4.637 2.6779-0.84671-0.32492-1.7366-0.59076-1.9774-0.59076s1.3984-2.5196 3.6429-5.5992c3.2516-4.4614 3.5228-5.1045 1.3344-3.1648-2.8416 2.5187-2.602 1.6066 0.89197-3.3945 1.1172-1.5992 2.6098-4.0093 3.3168-5.3558s2.6351-4.8582 4.2846-7.8039c3.9743-7.097 2.2302-5.2369-4.1089 4.382-5.718 8.6764-8.8229 12.318-13.146 15.419-2.0448 1.4667-0.47489-1.1165 5.2323-8.6095l8.1536-10.705-6.6163 7.3033c-9.8533 10.877-19.016 19.476-20.752 19.476-0.94465 0 0.70064-2.3454 4.2694-6.0861 15.958-16.727 21.224-22.43 19.451-21.062-1.0712 0.82575-5.7258 4.6428-10.344 8.4823-4.6178 3.8395-8.7069 6.9809-9.0869 6.9809-1.4696 0 3.7905-7.5093 8.0927-11.553 3.1482-2.9592 3.6397-3.6985 1.6182-2.4344l-2.9032 1.8154 2.7879-4.8689c1.5333-2.6779 3.6423-6.293 4.6867-8.0337s1.6538-3.1648 1.3543-3.1648-3.5684 4.4916-7.2643 9.9812c-4.1134 6.1098-7.9695 10.705-9.9417 11.848l-3.2218 1.8667 2.3349-3.3274c3.5203-5.0167 14.564-20.397 17.421-24.263 4.8112-6.5091-10.184 9.2749-16.883 17.77-3.695 4.6863-6.9042 8.5206-7.1317 8.5206-0.38486 0 5.023-10.065 8.3713-15.58 3.5136-5.7877-1.1414 0.36968-7.4721 9.884-6.3569 9.5536-12.092 15.523-13.531 14.084-1.0379-1.0379 1.2588-4.8086 8.9826-14.748 4.1486-5.3387 6.0997-8.3921 4.3358-6.7853l-3.2071 2.9213 2.1951-3.8951c2.1387-3.795 2.1408-3.8263 0.0826-1.2172-1.1619 1.4728-2.6237 2.6873-3.2485 2.6989-0.62479 0.0115-2.8739 2.4466-4.9981 5.4112-5.1543 7.1937-6.3626 8.1515-6.3626 5.0439 0-1.4851 2.317-5.3911 5.9914-10.1 8.7669-11.236 8.7916-11.385 0.42074-2.5262-4.1964 4.4407-7.8126 7.8912-8.036 7.6678-0.86639-0.86639 4.8339-12.067 8.259-16.229 5.2269-6.3505 6.7828-8.8628 2.8646-4.6254-1.8571 2.0084-3.8484 3.6517-4.425 3.6517-0.57663 0-1.3046 0.80709-1.6176 1.7935-0.31309 0.98645-1.7083 2.8488-3.1005 4.1386l-2.5313 2.345 0.63731-2.9803c0.35053-1.6392 0.21032-4.0493-0.31158-5.3558-0.91841-2.2991-0.95089-2.2756-1.0106 0.73184-0.0648 3.2571-1.4914 5.08-2.3361 2.9849-0.27126-0.67281-0.52778-0.087-0.57006 1.3019-0.0761 2.498-8.9327 16.226-11.438 17.729-0.71376 0.42829-1.2977 1.3884-1.2977 2.1335 0 0.74514-0.45577 1.6365-1.0128 1.9808-1.5392 0.95125-0.0558-4.3199 2.3313-8.2847 1.1232-1.8654 2.1085-3.8441 2.1896-4.397 0.29577-2.0151 7.8544-13.146 8.4933-12.507 0.36171 0.36171 0.65766-0.23268 0.65766-1.3209s0.79281-3.0236 1.7618-4.3008c2.1202-2.7947 6.1039-9.6256 5.6136-9.6256-0.19204 0-4.8405 6.3539-10.33 14.12-5.4894 7.7659-10.195 14.12-10.458 14.12-0.26233 0-0.25278-1.6432 0.0212-3.6517 0.4175-3.0602 7.3722-15.372 17.052-30.187 0.78737-1.205 1.2269-2.191 0.97672-2.191-0.25017 0-3.8194 4.8025-7.9315 10.672-7.8327 11.18-10.239 13.794-8.9197 9.686 0.41401-1.2888 0.81168-3.2874 0.88373-4.4413 0.0721-1.1539 0.41373-1.9233 0.75929-1.7097s0.89331-0.30231 1.2172-1.1464c0.90236-2.3515 0.71548-2.6927-0.79038-1.443-1.095 0.90874-1.4732 0.78276-1.8346-0.61109-0.38317-1.4777-0.47318-1.4324-0.56825 0.28618-0.10463 1.8916-4.0081 7.4925-4.0081 5.7511 0-0.43009-1.2857 0.99281-2.857 3.162-1.5714 2.1692-3.3242 4.2327-3.8951 4.5856-1.6929 1.0463-1.1867-2.5532 0.66602-4.7357 1.623-1.9119 1.623-1.9446 0-0.68777-1.4384 1.1139-1.7041 1.1088-1.7041-0.0322 0-1.2496 5.0181-10.366 9.1688-16.658 3.3813-5.1253 0.82373-2.6388-3.23 3.1401-2.2446 3.1999-4.637 6.3768-5.3165 7.0599-0.67947 0.68304-1.7414 2.1183-2.3599 3.1894-1.0402 1.8015-1.1352 1.7285-1.2671-0.97378-0.0988-2.0246-0.28004-2.3235-0.59041-0.97378-1.6042 6.9762-2.4508 9.2402-3.2668 8.7359-0.51059-0.31556-0.92834 0.0836-0.92834 0.88692 0 0.80337-0.50308 1.7716-1.118 2.1516-0.82559 0.51024-0.98114-1.8303-0.5948-8.95 0.28774-5.3025 0.3235-8.4358 0.0795-6.963s-0.89014 2.6779-1.4358 2.6779c-0.63442 0-0.79917-2.7212-0.4569-7.5468l0.53529-7.5468-2.2959 10.225c-1.6647 7.4136-2.353 9.2876-2.5035 6.8164-0.13198-2.1675-1.0952 1.1312-2.6461 9.0619-1.3412 6.8586-2.5964 12.312-2.7893 12.119-0.19288-0.19287 0.73206-8.8601 2.0554-19.261 1.3234-10.4 2.3898-19.141 2.37-19.423-0.0199-0.28208-1.5449 3.8691-3.3889 9.2249l-3.3527 9.7378 0.46757-5.5992c0.25717-3.0796 0.74155-8.1189 1.0764-11.198 0.94457-8.6873-0.12-5.8202-2.9829 8.0337-1.4388 6.9625-3.319 14.412-4.1783 16.554s-1.818 5.832-2.1304 8.1992c-0.31779 2.4077-1.1684 4.5028-1.9305 4.755-1.0938 0.36196-1.2288-0.39059-0.68459-3.8172 0.37279-2.3474 1.0954-4.4142 1.6058-4.5927 0.51041-0.17853 0.93369-1.274 0.94059-2.4344 7e-3 -1.1604 0.89138-4.9136 1.9655-8.3403 2.3406-7.4672 1.9037-9.0424-0.58693-2.1162-0.96797 2.6918-1.9158 4.7384-2.1063 4.5479-0.19049-0.1905 0.34288-5.938 1.1853-12.772 0.84239-6.8342 1.3003-12.657 1.0176-12.94-0.28268-0.28268-0.51397 0.68042-0.51397 2.1402 0 1.6547-0.39656 2.4091-1.053 2.0034-0.6324-0.39085-0.96158 0.0724-0.82412 1.1598 0.1259 0.99581-0.0274 2.4679-0.34063 3.2712-0.31325 0.80337-1.2834 5.8325-2.1558 11.176s-1.7507 9.8797-1.9518 10.081c-1.1769 1.1769-1.544-8.0193-0.61077-15.297 0.6014-4.6894 1.0412-9.373 0.97738-10.408-0.13581-2.2014-2.3579 7.7985-3.9095 17.594-0.59387 3.749-1.4065 7.1745-1.8058 7.612-0.39931 0.43757-1.113-4.1635-1.5859-10.225l-0.85984-11.02-0.48689 16.067c-0.31739 10.474-0.74115 14.923-1.2172 12.781-0.40169-1.8076-0.73034-4.7654-0.73034-6.573 0-1.8076-0.4382-3.2865-0.97377-3.2865-0.53558 0-1.0114 2.3006-1.0575 5.1123-0.0735 4.4907-0.18689 4.7673-0.93236 2.2744-0.46676-1.5608-0.60814-3.227-0.31419-3.7027s0.65704-5.7716 0.80686-11.769l0.27241-10.904-3.5328 22.397 0.46707-9.2509c0.25689-5.088 0.6713-11.88 0.92091-15.094 0.55543-7.1502 0.31372-6.5654-2.5472 6.1626-1.8223 8.1072-2.4218 9.6224-3.0911 7.8131-0.77402-2.0924-0.60822-3.8093 0.80013-8.286 0.48307-1.5355 0.38555-1.5134-0.67563 0.15298-1.2087 1.898-1.2597 1.8856-2.0079-0.48689-0.61215-1.9412-0.6728-1.7739-0.29931 0.82546 0.51214 3.5644-0.27919 7.9385-1.4362 7.9385-0.40167 0-1.2676-5.368-1.9243-11.929-0.65671-6.5608-1.297-12.032-1.423-12.159-0.12595-0.12659-0.17519 7.3228-0.10942 16.554 0.0657 9.2314-0.047 15.279-0.25066 13.44-0.2237-2.0207-0.66151-2.8729-1.1062-2.1533-0.42091 0.68102-1.2652-1.7704-1.9721-5.7259-0.67985-3.8042-1.4287-6.7241-1.6642-6.4887-0.23545 0.23545 0.0251 3.2215 0.57916 6.6357 1.3614 8.3902 1.0984 10.33-0.51149 3.7731-1.295-5.2747-1.3084-5.2894-0.88594-0.97377 0.23592 2.4101 0.6918 6.7921 1.0131 9.7378 0.39393 3.6119 0.27449 4.9134-0.36682 3.9972-0.77469-1.1068-1.0283-1.0165-1.3685 0.48689-0.56168 2.4827-2.0166-13.71-2.1262-23.665-0.095-8.6314-0.50221-8.9893-2.5507-2.2421-1.1284 3.7166-1.3876 4.0123-1.7073 1.9476-0.2073-1.3389-0.82236-2.8726-1.3668-3.4082-0.66993-0.659-0.79296 0.91485-0.3806 4.8689 0.38422 3.6844 0.21173 6.3822-0.46697 7.3033-0.81788 1.11-0.93717 0.40864-0.4969-2.9213 0.40754-3.0824 0.29089-3.9488-0.39332-2.9213-0.73381 1.1019-0.99577 0.50405-1.0667-2.4344l-0.094-3.8951-1.2494 2.8309c-0.85342 1.9337-1.4213 2.3966-1.7916 1.4607-0.29818-0.75362-0.57675 0.68536-0.61903 3.1978-0.11971 7.113-2.0054 6.7851-2.1396-0.37195-0.0634-3.379-0.44976-7.4582-0.8586-9.0649-0.64327-2.528-0.75887-2.2526-0.85857 2.0457-0.12534 5.4035-1.7326 11.1-3.1318 11.1-0.48318 0-0.87852 0.96404-0.87852 2.1423 0 4.3011-2.1805 0.0216-2.9145-5.7201-0.6594-5.158-0.74731-5.3194-0.96824-1.778-0.30881 4.9501-0.35171 3.7325 0.42886 12.172 0.7854 8.492 0.0756 8.278-4.0579-1.2237-1.5743-3.6187-3.1136-6.3281-3.4208-6.0209-0.30722 0.30721-1.0501-0.93077-1.6509-2.7511-0.60075-1.8203-2.0036-5.0266-3.1175-7.1251-1.7346-3.2679-1.9117-3.3962-1.234-0.89415 0.43522 1.6067 0.78741 4.5568 0.78265 6.5558-5e-3 1.999 0.31097 3.1173 0.70162 2.4852 0.43632-0.70598 0.95524-0.0421 1.3454 1.7213 0.34933 1.5788 0.80389 3.4183 1.0101 4.0878 0.20625 0.66947-0.0696 1.2172-0.61302 1.2172-0.54341 0-1.9991-2.1823-3.2348-4.8494-2.3643-5.1032-4.0608-5.8319-2.2194-0.9533 0.86415 2.2894 0.71339 3.9127-0.76828 8.2717-1.0139 2.9828-2.179 5.6306-2.589 5.8841-1.1689 0.7224-2.705-6.0964-2.2745-10.097 0.21379-1.9868 0.1502-2.84-0.14132-1.8962-0.29151 0.94381-0.88989 1.4936-1.3297 1.2218s-0.73534 0.70875-0.65664 2.1791-0.28301 2.8354-0.80378 3.0335c-1.1241 0.42761-6.1987-8.3522-6.2918-10.886-0.0356-0.96887-0.48425-1.5023-0.99701-1.1854-0.51278 0.31691-1.6195-0.75273-2.4594-2.377-0.83994-1.6242-1.7424-2.9532-2.0054-2.9532-0.26306 0 0.56307 2.0814 1.8358 4.6254 2.2531 4.5034 4.1256 13.366 2.6285 12.441-0.41117-0.25412-1.3064-2.4578-1.9893-4.897-2.3235-8.2987-2.0521-3.6756 0.33643 5.7307 1.308 5.1511 2.2357 9.3657 2.0615 9.3657-0.17418 0-2.5675-4.1629-5.3185-9.2509-2.751-5.088-5.1698-9.2509-5.375-9.2509-0.20526 0 1.7956 4.6445 4.4463 10.321 4.6787 10.02 5.3633 13.541 2.1204 10.906-1.3316-1.082-1.4641-1.0185-0.91765 0.43961 0.35126 0.93726 0.25757 1.7041-0.20819 1.7041-0.46575 0-0.80488-1.4797-0.75362-3.2882 0.0575-2.0297-0.61074-3.9864-1.746-5.1123-1.7983-1.7836-1.8211-1.7808-1.0256 0.12341 0.44746 1.0712 1.0217 3.2622 1.276 4.8689 0.91489 5.7796-1.9841 0.79593-3.2367-5.5642-0.92126-4.6778-1.228-5.3289-1.3009-2.7616-0.12746 4.4884-1.8817 2.7487-3.5734-3.5437-0.6927-2.5766-1.3002-3.8083-1.3501-2.7372-0.0643 1.3805-1.0579 0.42964-3.4125-3.2656-5.0551-7.9332-5.098-7.3345-0.14991 2.0901 4.2166 8.0314 5.5206 12.374 3.7156 12.374-0.84226 0-5.0629-8.1764-5.0629-9.8081 0-0.54559-1.0955-2.0875-2.4344-3.4264s-2.4344-2.9258-2.4344-3.5262c0-0.6005-0.24856-0.84325-0.55236-0.53946-0.3038 0.3038 0.59776 2.822 2.0034 5.596 1.5742 3.1065 2.4408 6.2292 2.2565 8.1305-0.27915 2.8786-0.55306 2.5743-4.0612-4.512-3.7378-7.5505-5.8046-9.8457-3.1566-3.5056 2.7331 6.544 4.4494 14.987 3.6497 17.954-0.76636 2.8436-0.81134 2.8009-2.8934-2.7473-1.1632-3.0997-2.115-6.2766-2.115-7.0599 0-0.78328-0.40606-1.4241-0.90238-1.4241-0.4963 0-1.1135-0.76685-1.3716-1.7041-0.25809-0.93726-0.283 0.26779-0.0554 2.6779 0.31877 3.3749 0.19074 3.9344-0.55703 2.4344-0.71931-1.4429-0.82099-0.74892-0.39236 2.6779 0.3182 2.544 0.20014 4.624-0.26236 4.6223-0.46249-2e-3 -2.9722-3.7264-5.5771-8.2771-2.6049-4.5507-4.8598-8.2739-5.0108-8.2739-0.15105 0 1.208 3.396 3.0202 7.5468 1.8122 4.1507 3.3002 8.411 3.3067 9.4673 0.0232 3.7389-3.6926-1.4794-6.2309-8.7504l-2.3749-6.803 0.35738 5.1123c0.54858 7.8472-1.2778 6.8797-5.0546-2.6779l-2.1164-5.3558 0.28932 4.4816c0.15913 2.4649 0.82281 6.0981 1.4749 8.0738 0.65206 1.9758 0.96075 4.1781 0.68599 4.8941-0.27476 0.71602-0.11804 1.6839 0.34827 2.1508 0.46632 0.46695 1.0966 2.8209 1.4006 5.231 0.39731 3.1496 0.29364 3.8343-0.36861 2.4344-0.50675-1.0712-0.95218-3.1785-0.98981-4.6829-0.0377-1.5044-0.44159-2.5047-0.89764-2.2229-1.1042 0.68242-3.0503-5.9974-3.1276-10.735-0.0573-3.5155-0.1303-3.6105-1.0346-1.3477-0.53506 1.3389-0.75243 3.749-0.48303 5.3558 0.26939 1.6067 0.18671 4.6314-0.18372 6.7214-1.0768 6.075-2.9848 2.3116-3.958-7.807l-0.83219-8.6522-0.16663 7.3033-0.16662 7.3033-2.3946-2.9213c-1.4685-1.7915-2.3965-4.1676-2.3994-6.1436-3e-3 -1.7722-0.40561-2.9746-0.89544-2.6718s-1.0902-6e-5 -1.3342-0.67286c-0.24396-0.67281-0.34541 0.20986-0.22545 1.9615 0.11996 1.7516 0.50124 3.4679 0.84728 3.814 0.34605 0.34605 0.59359 2.6376 0.55009 5.0923l-0.0791 4.4631-1.3376-2.9213c-1.888-4.1231-1.7328-2.6024 0.60334 5.9128 2.1566 7.861 1.8751 10.697-0.51512 5.1895-0.79062-1.8217-1.4546-2.7107-1.4756-1.9757-0.0888 3.1144-3.0062-1.3433-5.0673-7.7429-2.6411-8.2004-3.5416-8.1887-1.2395 0.0161 1.8156 6.4709 1.6535 7.5026-0.88727 5.6448-1.1741-0.8585-1.8971-3.4847-2.4773-8.9974-0.45059-4.2818-0.89731-6.2513-0.99271-4.3768l-0.17345 3.4082-1.4314-2.9213c-0.78729-1.6067-1.241-2.2105-1.0082-1.3417 0.23278 0.86879 0.70131 3.7171 1.0412 6.3296 0.45839 3.5236 0.35234 4.3313-0.41076 3.1284-0.85501-1.3478-1.429-5.9334-1.924-15.371-0.17579-3.3518-1.9302 0.81263-2.2358 5.3071-0.31416 4.6205-0.39306 4.7447-1.5466 2.4344l-1.2155-2.4344 0.51128 2.4344c0.28121 1.3389 0.73493 4.8445 1.0083 7.7902l0.49698 5.3558-1.5798-3.4082c-0.86888-1.8745-1.908-6.4756-2.3092-10.225l-0.72944-6.8164-0.26834 10.225c-0.14757 5.6236-0.16756 11.977-0.0444 14.12 0.30164 5.2471-1.3248 3.5994-4.4539-4.5123-1.3153-3.4096-2.196-5.2133-1.9571-4.0082 0.23889 1.205 8e-3 2.191-0.51389 2.191-0.52153 0-0.68132 0.98595-0.3551 2.191 0.54779 2.0235 0.48101 2.0049-0.87365-0.24345-1.5935-2.6448-2.1065-5.3112-0.56202-2.9213 0.66005 1.0214 0.94844 1.0854 0.95887 0.21288 8e-3 -0.68628-0.63988-1.499-1.4402-1.8062s-1.2773-0.84592-1.0601-1.1974-0.26882-1.5106-1.0801-2.5758c-1.4205-1.8652-1.4484-1.8468-0.7538 0.49762 0.39667 1.339 0.90442 3.0918 1.1283 3.8951 0.2239 0.80337-0.95595-0.94943-2.6219-3.8951-1.6659-2.9457-2.7309-4.4794-2.3666-3.4082 1.5195 4.4679 5.1286 13.883 6.6139 17.253 0.87746 1.9912 1.5808 4.6204 1.563 5.8427l-0.0324 2.2223-1.8594-2.2301c-1.5384-1.845-4.7354-9.3024-8.1836-19.089-0.35724-1.0139-0.9076-1.5854-1.223-1.27-0.31542 0.31542 0.13182 2.6434 0.99387 5.1734 1.8418 5.4055 1.4038 6.7026-0.81463 2.4126-0.85661-1.6565-1.7766-3.0118-2.0444-3.0118-0.26779 0 0.18166 1.2928 0.99878 2.873 0.81712 1.5801 1.4857 3.712 1.4857 4.7376 0 1.0255 0.85069 2.9461 1.8904 4.2679 2.3396 2.9743 5.2407 10.061 4.7372 11.572-0.54377 1.6313-8.4858-9.0317-9.587-12.872-0.51462-1.7943-1.0093-5.2372-1.0994-7.6508-0.15277-4.0956-0.20396-3.9986-0.7672 1.4542l-0.6035 5.8427-2.1327-4.382c-1.173-2.4101-2.1424-5.8792-2.1541-7.7091-0.0118-1.8299-0.33796-3.0105-0.72488-2.6236s-0.59724 4.0751-0.4674 8.196c0.22112 7.0177 0.14447 7.3382-1.2096 5.058-0.7951-1.3389-1.4612-2.0238-1.4801-1.5219-0.019 0.50188-1.2396-0.16805-2.7124-1.4887-6.1435-5.5088-7.6098-6.3682-4.359-2.5547 1.728 2.027 3.1417 4.5109 3.1417 5.5196 0 1.0087 0.24937 2.6367 0.55415 3.6178 0.30478 0.98106-0.1179 0.68825-0.93927-0.65069-1.7237-2.8098-1.8671-2.0406-0.63567 3.4082l0.8803 3.8951-2.8161-3.3296c-1.8282-2.1615-3.0209-4.8944-3.3999-7.7902-0.88669-6.7758-1.3484-7.9026-1.1295-2.7565 0.10821 2.544 0.034 4.6254-0.16486 4.6254-0.19888 0-2.0989-1.8624-4.2223-4.1386-3.8068-4.0808-3.7979-4.0539 0.63847 1.9262 4.007 5.4013 4.4681 6.5463 4.2153 10.467-0.15614 2.4214-0.3513 4.403-0.43369 4.4034-0.0824 4.3e-4 -2.2596-2.6056-4.8383-5.7913-2.5787-3.1856-4.8413-5.6393-5.028-5.4526-0.18671 0.18671 0.78548 2.5595 2.1604 5.2728 1.375 2.7133 2.4999 5.218 2.4999 5.5659 0 0.34791-1.7705-0.96702-3.9345-2.9221-2.164-1.955-4.3296-3.3105-4.8125-3.012-0.48286 0.29842-1.6139-1.0084-2.5134-2.904-0.89952-1.8956-2.0028-3.6736-2.4518-3.9511-0.97099-0.6001 0.93378 5.3765 2.2521 7.0663 0.50398 0.64601 0.59179 1.6997 0.19514 2.3415-0.4128 0.66793-0.30986 0.91268 0.24076 0.57238 0.52907-0.32698 0.96195 0.0435 0.96195 0.82332 0 0.7798-0.17935 1.4178-0.39856 1.4178s-3.104-2.0551-6.4107-4.567c-3.3067-2.5118-5.1357-3.533-4.0646-2.2693 1.6627 1.9615 1.7028 2.2085 0.27464 1.6881-3.0876-1.1249-2.797 1.1202 1.1964 9.2451 4.0718 8.2843 3.6578 8.2564-3.2662-0.22029l-2.7689-3.3898 0.51669 3.6517c0.28419 2.0084 0.33355 3.6517 0.1097 3.6517s-1.4905-2.0814-2.8148-4.6254c-2.6634-5.1165-3.3715-3.5445-0.98074 2.1773 2.6737 6.3991 0.90655 4.6241-3.872-3.8891-4.9398-8.8005-6.4602-10.601-3.899-4.6178 0.85973 2.0084 1.6485 4.1336 1.7528 4.7227 0.10433 0.58904 0.88315 2.1293 1.7307 3.4229 1.8763 2.8636 8.6124 16.157 8.6124 16.996 0 0.3314-3.1048-2.6155-6.8996-6.5487l-6.8996-7.1512 6.0985 7.7902c9.0311 11.536 8.9363 11.599-1.4699 0.97378-7.3159-7.47-8.4439-8.3771-4.8437-3.8951 2.5813 3.2135 6.3575 7.7727 8.3917 10.132 6.5649 7.6131 2.8942 5.5993-6.3373-3.4768-4.937-4.8539-9.8052-9.1138-10.818-9.4665-1.3916-0.48449-1.6094-0.33825-0.8908 0.59829 0.52308 0.68173 3.4334 4.3931 6.4673 8.2474 3.0339 3.8544 5.5162 7.2667 5.5162 7.5831 0 1.0314-12.051-7.5673-16.97-12.109-2.6389-2.4362-4.4754-3.8817-4.0811-3.2123s0.23811 1.2172-0.34714 1.2172-1.969-1.5337-3.075-3.4082c-3.1963-5.4174-3.0978-3.9578 0.16988 2.5154 3.4579 6.85 4.9854 10.631 4.2953 10.631-0.2665 0-2.5562-1.8624-5.0882-4.1386-3.0088-2.7048-2.1757-1.5418 2.4046 3.3569 6.687 7.1518 10.501 12.648 9.4835 13.665-0.25936 0.25936 0.1963 1.0259 1.0126 1.7034 0.81632 0.67747 1.4834 1.7259 1.4824 2.3298-9.64e-4 0.6039-2.4584-1.5312-5.4609-4.7447-4.9366-5.2834-5.6713-5.1021-0.9868 0.24344 2.8941 3.3024 1.4823 2.712-7.7379-3.236-10.136-6.539-10.146-5.7082-0.01743 1.5353 4.0335 2.8846 7.2011 5.3772 7.0392 5.5392s-2.3643-0.41093-4.8943-1.273c-8.3355-2.8402-5.643-0.77852 3.544 2.7136 5.767 2.1921 9.1159 4.0021 9.3176 5.0359 0.45736 2.3442-1.0477 2.0949-16.711-2.7682-7.7625-2.4101-14.479-4.3664-14.926-4.3473-0.44686 0.0191 4.8841 2.2448 11.847 4.946s13.721 5.3328 15.019 5.848c2.0747 0.82353 2.187 1.1093 0.93001 2.3663-1.257 1.257-2.8849 0.84115-13.481-3.4439-6.6284-2.6804-12.206-4.7192-12.394-4.5307-0.18857 0.18856 4.6971 2.6882 10.857 5.5547l11.2 5.2118-1.9264 2.0505c-1.4256 1.5175-1.9307 3.4265-1.9432 7.3435-0.06972 21.881-6.2861 44.578-20.679 75.499-3.4659 7.4462-6.5928 15.138-6.9486 17.092-0.35583 1.9546-1.2927 4.0897-2.0819 4.7447-1.7469 1.4498-1.852 7.3747-0.18914 10.661 1.8525 3.661 7.242 6.8457 11.585 6.8457 2.3001 0 6.1467-1.1952 9.8296-3.0544 5.9961-3.0268 6.1958-3.056 22.126-3.2246 13.392-0.14181 17.131-0.51325 22.404-2.2258 3.4813-1.1306 12.683-2.9858 20.449-4.1227 25.2-3.6894 38.883-8.3919 51.143-17.577 8.4586-6.3372 12.11-7.2615 16.058-4.0648 3.5482 2.8732 1.8741 7.3147-5.4724 14.518-6.9808 6.8448-11.651 9.552-19.094 11.069-2.8295 0.57662-6.24 1.8205-7.5789 2.7642s-4.0389 2.2444-6 2.8904c-5.2522 1.7303-5.568 3.8739-1.1254 7.6389 2.0445 1.7327 4.4003 3.1568 5.2352 3.1648 0.8349 8e-3 2.3686 0.65786 3.4082 1.4442 2.7003 2.0424 5.0443 1.8256 9.6885-0.89606 4.4146-2.5871 12.48-3.4324 19.238-2.0162l3.666 0.76826 12.922-12.62c14.27-13.938 15.007-14.33 29.177-15.528 5.7952-0.48987 7.3249-0.31713 8.3728 0.94551 2.0552 2.4763 0.45968 6.7226-4.5333 12.065l-4.5815 4.9021-8.9673 0.67584c-9.7133 0.73208-15.106 3.1236-15.663 6.9457-0.45988 3.1596 6.0466 7.5938 13.918 9.4854 7.2863 1.7509 10.523 1.8537 19.003 0.604zm254.35-105.95c-0.33656-1.0224 0.30492-1.1618 2.8456-0.61857 5.5783 1.1927 6.6844 2.4714 1.8952 2.1908-2.5757-0.15091-4.4809-0.78274-4.7408-1.5722zm-3.1251-18.139c0-0.90657 9.9034-5.4792 11.032-5.0937 0.62708 0.21416-1.0508 1.5333-3.7287 2.9314-4.6154 2.4097-7.3033 3.2055-7.3033 2.1623zm-5.5789-18.62c0.32358-0.32357 1.1635-0.35816 1.8664-0.0768 0.77682 0.31085 0.54607 0.5416-0.58832 0.58832-1.0265 0.0423-1.6017-0.18786-1.2781-0.51145zm0.71005-5.2474c3.1214-2.6211 10.555-5.9188 13.076-5.8007 0.95037 0.0445-14.867 8.5873-15.997 8.64-0.26779 0.0125 1.0468-1.2652 2.9213-2.8393zm-7.7902 0.58411c0-0.21049 0.68006-0.64367 1.5112-0.96263 0.86659-0.33253 1.2575-0.16929 0.91631 0.38271-0.57186 0.92529-2.4276 1.3686-2.4276 0.57992zm-399.74-5.46c-0.33101-0.53558-0.16362-0.97377 0.37195-0.97377 0.53558 0 1.2446 0.43819 1.5756 0.97377 0.33101 0.53558 0.16362 0.97378-0.37195 0.97378-0.53558 0-1.2446-0.4382-1.5756-0.97378zm-5.9595-11.437c-1.0733-1.4757-3.4008-5.2381-5.1722-8.3608-2.4838-4.3785-2.9554-5.9382-2.0611-6.8164 0.63782-0.62634 1.0188-0.69137 0.84667-0.14451-0.17215 0.54687 1.7684 3.1684 4.3124 5.8256 2.544 2.6572 4.6254 5.1774 4.6254 5.6005s1.6557 2.6217 3.6793 4.8859c5.5043 6.1589 6.2865 7.3421 5.5941 8.4624-0.72195 1.1681-8.7921-5.2832-11.825-9.4526zm13.263 3.5405c-4.1944-2.5182-7.6475-5.6268-8.9634-8.0694-0.83285-1.5458 2.4984 0.7618 12.811 8.8746 2.4815 1.9522-0.1841 1.3943-3.8478-0.80524zm379.77-0.84935c0-0.52537 1.1371-1.2406 2.527-1.5894 1.6832-0.42246 2.127-0.88143 1.3291-1.3746-1.2961-0.80104 0.49016-2.0479 5.5727-3.8898 2.2856-0.82831 1.931-0.26595-2.1254 3.37-4.7129 4.2244-7.3033 5.4601-7.3033 3.4838zm-366.12-16.832c0.02327-1.2906 3.278 2.4104 4.9375 5.6146 0.55478 1.0712-0.33408 0.51649-1.9753-1.2326-1.6412-1.7491-2.9742-3.721-2.9623-4.382zm6.7623-6.1276c-3.8472-6.726-6.7726-12.451-6.5008-12.723s1.4854 1.2697 2.697 3.4254 2.5293 3.7178 2.9281 3.4713c0.89409-0.55258 9.1522 9.1622 8.415 9.8994-0.29151 0.29151-2.1846-1.6862-4.2068-4.3949-2.0222-2.7087-3.8359-4.7658-4.0304-4.5713-0.19448 0.19448 1.351 3.1406 3.4345 6.5469 5.3967 8.8232 6.2571 10.575 5.1934 10.575-0.51427 0-4.0828-5.5031-7.93-12.229zm-2.5092 6.6298c-2.7074-3.0796-5.2203-6.9138-5.5843-8.5206l-0.66181-2.9213 2.3707 2.8425c4.2544 5.1009 10.398 14.199 9.5886 14.199-0.43489 0-3.0058-2.5196-5.7132-5.5992zm-25.698 0.24344c-1.2579-1.3389-2.0679-2.4344-1.8002-2.4344 0.26779 0 1.5161 1.0955 2.7739 2.4344 1.2579 1.339 2.0679 2.4344 1.8002 2.4344-0.26779 0-1.5161-1.0955-2.7739-2.4344zm367.61-3.4142c0.97235-1.0744 1.9791-1.7423 2.2372-1.4842 0.65431 0.65431-1.7744 3.4377-2.9997 3.4377-0.55301 0-0.20991-0.87909 0.76245-1.9535zm-324.3-5.8763c-1.483-2.1399-2.4551-4.132-2.1603-4.4268 0.62347-0.62347 7.5435 8.1781 7.5435 9.5945 0 1.4553-2.3703-0.82013-5.3832-5.1677zm345.84 0.0404c2.0778-2.1418 4.3522-3.8946 5.0542-3.8951 0.70204-4.8e-4 -0.74876 1.7519-3.224 3.8942-5.7731 4.9966-6.6769 4.997-1.8302 8.7e-4zm-337.72-7.3674c-0.31205-2.6729-0.14125-3.052 0.96237-2.1361 2.0898 1.7344 6.6742 8.7512 7.4808 11.45 0.62979 2.1071 0.13656 1.863-3.6681-1.815-3.097-2.994-4.5078-5.2096-4.7751-7.4991zm-24.639-0.4832c-1.6067-1.7396-2.264-2.7935-1.4607-2.3419 2.6281 1.4773 13.633 11.489 13.633 12.403 0 1.061-8.0305-5.5766-12.172-10.061zm351.21 7.2467c1.4028-1.4028 3.105-2.3658 3.7825-2.14 0.71375 0.23791-0.16355 1.3038-2.0859 2.5342-4.3713 2.798-4.7912 2.7004-1.6966-0.39421zm8.0609-1.911c2.1353-1.5614 3.464-1.7747 3.464-0.55608 0 0.98222-4.1694 3.0232-4.8674 2.3826-0.26695-0.24501 0.36455-1.067 1.4033-1.8265zm-314.96-7.2094c0-0.54344 0.32865-0.97872 0.73033-0.96729 0.88511 0.0252 6.0969 7.2599 6.0598 8.4119-0.0373 1.1588-6.7901-6.2449-6.7901-7.4446zm280.45 6.5254c0-0.15219 2.5053-2.6718 5.5673-5.5992 3.062-2.9274 4.7195-4.227 3.6833-2.8881-2.5124 3.2465-9.2506 9.4286-9.2506 8.4873zm-316.42-7.0266c0.0058-0.53558 0.87256 0.0607 1.9259 1.3251 1.0533 1.2644 1.9054 2.7981 1.8935 3.4082-0.01191 0.61014-0.87856 0.0138-1.9259-1.3251-1.0473-1.3389-1.8994-2.8726-1.8935-3.4082zm25.293-1.7041c-4.0384-7.0417-3.7123-9.1394 0.45806-2.9468 3.0084 4.4672 4.3192 8.0591 2.941 8.0591-0.25696 0-1.7865-2.3006-3.3991-5.1123zm34.068-2.9788c-9e-3 -1.5786 0.3969-2.4808 0.95887-2.1335 0.53558 0.331 0.96707 2.2192 0.95887 4.196-0.0111 2.6791-0.25525 3.2223-0.95887 2.1335-0.51918-0.80336-0.95067-2.6916-0.95887-4.196zm15.029-0.1547c-1.682-4.0255-1.8398-6.7408-0.33784-5.8125 1.5098 0.93313 3.9756 7.137 3.2824 8.2586-0.94554 1.5299-1.4628 1.1002-2.9445-2.446zm227.47 0.37221c0.59781-1.117 1.333-1.7849 1.6337-1.4842 0.30072 0.30072-8e-3 1.2146-0.68502 2.031-1.7507 2.1094-2.2242 1.8365-0.94867-0.54676zm-250.24-3.8117c-4e-3 -1.2984 0.087-1.2984 0.82149 0 0.4545 0.80337 1.1168 2.5562 1.4717 3.8951l0.6453 2.4344-1.4668-2.4344c-0.80673-1.3389-1.469-3.0917-1.4717-3.8951zm-18.848 3.8938c-0.28031-1.0719-0.11232-1.7033 0.37331-1.4032 0.48564 0.30014 0.88297 1.1771 0.88297 1.9489 0 2.0155-0.66169 1.7281-1.2563-0.5457zm259.31-0.56709c0-0.94139 11.944-15.078 12.375-14.647 0.79746 0.79746-9.5922 15.215-10.964 15.215-0.77586 0-1.4107-0.25579-1.4107-0.56843zm-205.66-3.5214c0.90886-0.90886 1.1685-0.64919 1.1685 1.1685s-0.25967 2.0774-1.1685 1.1685c-0.90886-0.90885-0.90886-1.4282 0-2.3371zm-21.894 0.0122c0.31085-0.77681 0.5416-0.54607 0.58832 0.58832 0.0423 1.0265-0.18787 1.6017-0.51145 1.2781-0.32358-0.32358-0.35817-1.1635-0.0768-1.8664zm26.98-0.31818c-0.43175 0.26683-0.96362-1.045-1.182-2.9153-0.21834-1.8702-0.20463-3.4004 0.0305-3.4004 1.1392 0 3.0095 3.6809 2.9687 5.8427-0.0252 1.3389-0.26784 1.884-0.53909 1.2112s-0.84642-1.005-1.2782-0.73814zm-32.157-3.1272c0-3.0524 0.46643-2.6992 1.3627 1.0317 0.4348 1.8099 0.31439 2.5441-0.34991 2.1335-0.55704-0.34427-1.0128-1.7686-1.0128-3.1652zm36.03-3.8951c0-4.3101 0.51035-3.918 1.2652 0.97192 0.33811 2.1903 0.19718 3.4449-0.34905 3.1073-0.50386-0.31139-0.9161-2.147-0.9161-4.0792zm188.92-2.7115c1.1552-1.8691 2.2836-3.3983 2.5078-3.3983 1.2877 0 0.0788 5.0241-1.7765 7.3827-1.7944 2.2812-2.2417 2.4765-2.5078 1.0952-0.17809-0.9247 0.62135-3.2105 1.7765-5.0796zm-173.85 4.3185c-0.35278-1.1115-0.38231-2.28-0.0656-2.5967 0.3167-0.31669 0.57582-0.0387 0.57582 0.61774 0 0.65645 0.40792 0.94143 0.90649 0.6333 1.1577-0.71551 2.3221 1.1079 1.528 2.3929-0.97486 1.5774-2.2563 1.1217-2.9446-1.0472zm-25.782-2.5808c0-3.0524 0.46643-2.6992 1.3627 1.0317 0.43481 1.81 0.3144 2.5441-0.3499 2.1335-0.55704-0.34427-1.0128-1.7686-1.0128-3.1652zm35.493-0.72273c-0.77603-1.8573-1.3938-4.5961-1.3729-6.0861l0.0381-2.7092 1.312 3.0136c1.6586 3.8097 2.8545 9.1586 2.0477 9.1586-0.33768 0-1.2489-1.5196-2.0249-3.3769zm-2.7563-0.0819c-0.33253-0.86659-0.16929-1.2575 0.38271-0.91631 0.52944 0.32722 0.96262 1.0073 0.96262 1.5112 0 1.4007-0.69797 1.092-1.3453-0.59494zm-13.178-2.8708 0.0536-1.9476 0.83689 1.9476c0.4603 1.0712 0.86099 2.6048 0.89042 3.4082 0.0476 1.2984-0.0513 1.2984-0.89042 0-0.51918-0.80337-0.91987-2.3371-0.89042-3.4082zm-17.423 0.94801c0.29982-0.29982 0.84431 0.24063 1.21 1.201 0.52845 1.3878 0.4166 1.4997-0.54512 0.54512-0.6655-0.66055-0.96469-1.4463-0.66488-1.7461zm180.81-0.7208c0.96173-0.95456 1.0736-0.84271 0.54512 0.54512-0.36568 0.96036-0.91018 1.5008-1.21 1.201-0.29982-0.29981-6.2e-4 -1.0856 0.66487-1.7461zm-130.94-4.1898-0.50505-3.8277 1.9576 3.4082c1.0766 1.8745 1.9759 4.269 1.9984 5.321 0.0756 3.5426-2.8931-0.67396-3.4509-4.9016zm165.18 2.4185c0.59781-1.117 1.333-1.7849 1.6337-1.4842 0.30072 0.30072-8e-3 1.2146-0.68502 2.031-1.7507 2.1094-2.2242 1.8365-0.94867-0.54676zm-18.005-8.3691c2.72-5.6233 4.7876-8.8928 5.0194-7.937 0.40731 1.6804-3.2147 9.6704-6.8509 15.113-3.64 5.4481-2.9309 2.67 1.8316-7.1759zm-150.32 7.9398c0.29981-0.29982 0.84431 0.24063 1.21 1.201 0.52845 1.3878 0.41661 1.4997-0.54512 0.54511-0.6655-0.66054-0.96469-1.4463-0.66487-1.7461zm-6.0009-0.94801c0-0.53558 0.42477-0.31648 0.94395 0.48689 0.51918 0.80336 0.94395 1.8989 0.94395 2.4344s-0.42477 0.31648-0.94395-0.48689-0.94395-1.8989-0.94395-2.4344zm143.42-0.66947c0.31085-0.77682 0.5416-0.54608 0.58832 0.58832 0.0423 1.0265-0.18786 1.6017-0.51145 1.2781-0.32357-0.32358-0.35816-1.1635-0.0768-1.8664zm-32.346-1.0346c0.0534-1.7406 0.41223-4.2603 0.79744-5.5992 0.58285-2.026 0.79617-1.6176 1.2713 2.4333 0.58875 5.0198 0.33001 6.3307-1.2495 6.3307-0.50397 0-0.87262-1.4242-0.81924-3.1648zm-79.932-0.0575c-8e-3 -0.43328 0.42329-0.51697 0.95887-0.18597 0.53558 0.33101 0.96707 1.3428 0.95887 2.2485-0.0129 1.4191-0.14538 1.4448-0.95887 0.18598-0.51918-0.80337-0.95067-1.8152-0.95887-2.2485zm-5.3403-6.6407-0.49212-7.1781 1.3719 4.0889c1.4408 4.2942 1.8303 6.9688 1.6025 11.005-0.27577 4.8862-1.9764-0.53672-2.4823-7.9154zm-22.606 6.7591c0.31085-0.77682 0.5416-0.54608 0.58832 0.58832 0.0423 1.0265-0.18787 1.6017-0.51145 1.2781s-0.35816-1.1635-0.0768-1.8664zm84.739-2.0084c0.27014-0.66947 0.49117-0.12172 0.49117 1.2172 0 1.339-0.22103 1.8867-0.49117 1.2172-0.27013-0.66948-0.27013-1.765 0-2.4344zm-50.473 2.1993c-0.70483-1.1404 2.457-11.694 3.5036-11.694 1.4716 0 1.9512 5.9033 0.74964 9.2262-1.21 3.3463-3.0503 4.4138-4.2532 2.4674zm53.176-7.7985c-0.10291-4.1873 0.79931-7.7902 1.9508-7.7902 1.0216 0 1.1413 8.1191 0.18844 12.781-0.64849 3.1727-0.6957 3.2022-1.3636 0.85206-0.38051-1.339-0.72953-3.9682-0.77561-5.8427zm-45.343 3.2534c-0.3464-1.3802-0.42171-2.7175-0.16734-2.9719 0.55966-0.55966 3.5274 4.9981 3.5274 6.6058 0 2.0095-2.6678-0.87576-3.3601-3.6339zm12.193 1.859c0.0376-0.93726 0.42563-2.5805 0.86219-3.6517 0.73362-1.8 0.84606-1.7488 1.4839 0.67499 0.71564 2.7194 0.0879 4.6808-1.4982 4.6808-0.50397 0-0.8855-0.76685-0.84786-1.7041zm13.873-1.3998c0.31085-0.77682 0.54159-0.54607 0.58831 0.58832 0.0423 1.0265-0.18786 1.6017-0.51144 1.2781-0.32358-0.32358-0.35817-1.1635-0.0768-1.8664zm-4.2932-1.8484c0.62249-1.5571 0.96071-1.8024 1.0016-0.72654 0.082 2.1585-1.1785 5.3663-1.6055 4.0855-0.18479-0.55439 0.087-2.0659 0.60387-3.359zm71.052-6.733 0.88331-4.382 0.0934 4.382c0.0514 2.4101-0.2263 5.4775-0.61704 6.8164l-0.71044 2.4344-0.26627-2.4344c-0.14645-1.339 0.13122-4.4063 0.61705-6.8164zm-65.008 2.4344c0.0713-3.3791 0.18543-3.5726 0.8618-1.4607 0.4288 1.339 0.81662 3.749 0.8618 5.3558 0.0626 2.2252-0.14278 2.5733-0.8618 1.4607-0.51918-0.80337-0.90699-3.2135-0.8618-5.3558zm-24.77-2.9213-0.57974-2.9213 1.3676 3.0289c0.75219 1.6659 1.6127 4.2951 1.9123 5.8427l0.5447 2.8138-1.3326-2.9213c-0.73292-1.6067-1.5935-4.2359-1.9123-5.8427zm27.136-1.4141c-0.31435-2.4357-0.16185-5.7432 0.3389-7.3499 0.81281-2.6081 0.91941-2.334 0.99413 2.5562 0.0461 3.0126 0.3397 6.9564 0.65257 8.764 0.41313 2.3867 0.29742 2.8993-0.42259 1.8724-0.54529-0.77776-1.2486-3.407-1.563-5.8427zm-9.8358 2.3338c0.36662-1.9542 0.91002-3.3097 1.2076-3.0122 0.29755 0.29755 0.24103 2.1399-0.12558 4.0941-0.36662 1.9542-0.91002 3.3097-1.2076 3.0121-0.29755-0.29754-0.24103-2.1399 0.12558-4.0941zm-4.6282-3.841c0.65273-2.8093 0.70365-2.7533 1.3278 1.4607 0.79838 5.3899-0.0706 8.5012-1.2135 4.3448-0.43619-1.5863-0.48764-4.1987-0.11433-5.8055zm73.642 5.1732c0.31085-0.77682 0.54159-0.54607 0.58831 0.58832 0.0423 1.0265-0.18786 1.6017-0.51144 1.2781-0.32358-0.32358-0.35817-1.1635-0.0768-1.8664zm-77.902-0.97378c0.31085-0.77681 0.54159-0.54607 0.58832 0.58833 0.0423 1.0265-0.18787 1.6017-0.51145 1.2781s-0.35817-1.1635-0.0768-1.8664zm12.679-2.0084c0.27013-0.66948 0.49116-0.12173 0.49116 1.2172 0 1.3389-0.22103 1.8867-0.49116 1.2172-0.27014-0.66947-0.27014-1.765 0-2.4344zm-1.0001-7.3033c0.24493-0.93726 0.44534-0.17041 0.44534 1.7041s-0.20041 2.6414-0.44534 1.7041-0.24493-2.471 0-3.4082zm190.31 133.47c-0.93726-0.24492-2.471-0.24492-3.4082 0-0.93726 0.24494-0.17041 0.44534 1.7041 0.44534s2.6414-0.2004 1.7041-0.44534zm-18.752-50.928c0.34115-0.55199-0.0497-0.71523-0.91631-0.3827-1.687 0.64736-1.9956 1.3453-0.59493 1.3453 0.50397 0 1.184-0.43318 1.5112-0.96263zm-251.79-68.744c-0.0467-1.1344-0.27747-1.3651-0.58831-0.58832-0.2813 0.70295-0.24671 1.5428 0.0768 1.8664 0.32357 0.32357 0.55373-0.25156 0.51144-1.2781zm46.741-12.659c-0.0467-1.1344-0.27747-1.3651-0.58832-0.58832-0.28129 0.70294-0.2467 1.5428 0.0768 1.8664 0.32358 0.32358 0.55373-0.25156 0.51145-1.2781zm101.2-2.3533c0-1.339-0.22103-1.8867-0.49116-1.2172-0.27014 0.66948-0.27014 1.765 0 2.4344 0.27013 0.66947 0.49116 0.12172 0.49116-1.2172zm6.8164-3.8951c0-1.339-0.22103-1.8867-0.49116-1.2172-0.27014 0.66947-0.27014 1.765 0 2.4344 0.27013 0.66947 0.49116 0.12172 0.49116-1.2172zm-76.836-2.8726c0.0424-2.3059-0.25296-3.0448-0.94173-2.3561-0.66446 0.66447-0.68531 1.7994-0.0617 3.3595 0.88488 2.2138 0.94546 2.1532 1.0034-1.0035z" fill="param(fill)" fill-opacity="param(fill-opacity)" stroke="param(outline)" stroke-opacity="param(outline-opacity)" stroke-width="param(outline-width) 0.2"/>
</svg>
