<svg version="1.1" width="512" height="512" viewBox="0 0 512 512" xmlns="http://www.w3.org/2000/svg">
 <path d="m227.82 399.55 3.6796-3.9857 2.9438 2.477c3.4326 2.8884 10.433 4.2723 13.448 2.6586 1.1187-0.59872 2.6849-2.3472 3.4804-3.8854 1.3186-2.5498 1.2786-3.1664-0.45214-6.9802-2.7857-6.1386-2.5718-14.264 0.54924-20.861 1.3696-2.895 2.8308-7.2874 3.2471-9.7607 0.41634-2.4734 4.2999-11.846 8.6301-20.827l7.8731-16.33 5.5561 0.59187c3.0558 0.32552 8.8188 1.4792 12.807 2.5638 26.49 7.2042 25.081 6.9483 38.67 7.0285 7.9454 0.0469 16.455-0.5216 21.752-1.4532 4.7854-0.84162 8.9676-1.2396 9.2938-0.88448 0.32622 0.35518 1.0466 2.0073 1.601 3.6714 0.77779 2.335 0.70376 3.3297-0.32432 4.3578-0.7327 0.7327-3.1933 5.0266-5.468 9.5421l-4.1358 8.2099-6.2838 0.57806c-7.4748 0.68764-16.655 5.5483-18.427 9.7561-1.4781 3.5113-0.87495 4.1487 5.0897 5.3786 6.3253 1.3043 36.649 1.3795 41.669 0.10332 4.7821-1.2157 10.116-6.1135 16.59-15.235 2.8688-4.0415 6.2246-8.2598 7.4574-9.3738 12.413-11.218 15.524-16.641 13.516-23.555-0.54676-1.882-0.86668-4.9444-0.71093-6.8054 0.2594-3.0994 0.7208-3.5638 5.4941-5.5291 2.866-1.18 6.6248-2.1588 8.3528-2.1752 2.7253-0.0257 3.1419 0.29487 3.1419 2.4182 0 1.3463 0.61445 3.9185 1.3654 5.7159 0.98088 2.3476 1.4158 8.2608 1.5442 20.996 0.0983 9.7502 0.13642 18.246 0.0847 18.88-0.0518 0.63357-2.7043 3.1604-5.8946 5.6153s-5.8005 5.0231-5.8005 5.7071c0 2.4091 3.6559 4.6941 6.7774 4.236 2.4406-0.3582 3.3435 0.0626 4.9377 2.3015 2.38 3.3424 4.902 3.4822 12.545 0.69547l5.607-2.0444 4.4386 2.1487c3.2158 1.5567 5.2939 1.9688 7.5433 1.4958 1.7076-0.35906 6.2228-0.94977 10.034-1.3127 3.8111-0.36291 7.2081-0.9391 7.5489-1.2804 1.5202-1.5224-2.5538-7.6549-7.633-11.49-2.9818-2.2513-5.6784-5.1167-5.9923-6.3676-0.31395-1.2509 0.10357-5.4357 0.92783-9.2996s1.7909-14.276 2.148-23.139l0.64937-16.114 3.3336-3.2212c5.1746-5.0003 6.7675-8.3289 8.481-17.722 2.7272-14.95 10.049-38.186 12.033-38.186 0.40321 0 1.3028 1.0645 1.9991 2.3656 1.955 3.6529 3.7278 3.7557 5.8071 0.33653 2.4328-4.0004 3.414-11.277 3.3628-24.937-0.0336-8.9773-0.65356-13.816-3.2202-25.135-7.4536-32.872-10.841-39.677-29.045-58.344-18.636-19.11-35.837-32.124-49.905-37.756-13.677-5.4753-23.58-6.4305-76.334-7.3636-47.889-0.84696-48.719-0.89585-89.424-5.2666-29.4-3.1568-43.011-4.2451-47.854-3.826-9.0109 0.77979-48.037 10.421-58.971 14.568-17.863 6.7754-33.053 15.909-45.016 27.067-4.0701 3.7962-8.3435 7.4071-9.4965 8.0242-1.153 0.61706-1.841 1.5351-1.5288 2.0402 0.31212 0.50503 0.14017 0.91824-0.38212 0.91824-0.52229 0-2.1794 1.0166-3.6823 2.2592-1.503 1.2426-6.7994 3.9324-11.77 5.9774l-9.0371 3.7182-6.3243-1.6852c-7.2213-1.9242-9.0322-1.2473-7.2322 2.7033 1.5734 3.4532 7.9249 10.229 9.5886 10.229 2.7738 0 0.57271 2.4804-6.1843 6.9688-8.7707 5.8261-11.384 9.8166-10.46 15.975 0.37073 2.4722 1.505 6.603 2.5206 9.1796 4.1391 10.501 1.6255 25.161-7.0572 41.161-6.774 12.482-12.438 18.953-15.994 18.273-1.5492-0.29615-2.1343-0.0492-1.8206 0.76832 0.55745 1.4527-3.6006 3.8775-5.0806 2.9628-0.63872-0.39475-0.83476-0.0923-0.5021 0.77462 0.67531 1.7598-2.2318 6.393-3.7828 6.0289-0.62451-0.14663-0.80919-0.0841-0.41041 0.1389 0.92546 0.51757 0.91565 4.265-0.01479 5.6582-0.39064 0.58491-1.3628 1.3119-2.1604 1.6155-1.1551 0.4397-1.1059 0.56754 0.24169 0.62833 1.3755 0.0621 1.6918 0.98008 1.6918 4.91 0 2.6586-0.37471 4.8337-0.83269 4.8337s-0.62053 1.1098-0.36123 2.4662c0.32737 1.7125-0.23066 3.2265-1.8259 4.9538l-2.2973 2.4876 2.1752-0.6686c1.6275-0.50026 2.1752-0.27945 2.1752 0.87701 0 0.85008-0.65255 1.796-1.4501 2.1021-0.79756 0.30606-1.4501 0.9915-1.4501 1.5232s0.65255 0.71634 1.4501 0.41028c0.99111-0.38032 1.4501 0.0556 1.4501 1.377 0 1.0634-0.65255 2.1839-1.4501 2.49-0.79756 0.30606-1.4501 0.94495-1.4501 1.4198 0 0.47482 0.65255 0.86331 1.4501 0.86331 1.995 0 1.8161 1.6044-0.5492 4.9262-1.0996 1.5443-1.5603 2.8078-1.0238 2.8078 0.53653 0 1.2444-0.43503 1.573-0.96674 1.0304-1.6672 2.3569-1.059 2.9638 1.3591 0.36034 1.4357-0.05269 3.2971-1.0793 4.8639-0.91466 1.396-1.4218 2.7793-1.127 3.0741 0.2948 0.29481 1.0216-0.37133 1.6151-1.4803 0.59349-1.109 1.5096-2.0163 2.0357-2.0163 1.6697 0 2.8692 4.6371 1.8756 7.2506-1.0919 2.8719 0.28325 3.2851 1.5441 0.46398 0.8214-1.8379 1.0047-1.8604 3.1129-0.38306 1.2321 0.86339 2.0396 2.0923 1.7946 2.7309-0.28904 0.75321 0.70479 1.1937 2.8289 1.2539 1.801 0.0511 6.4185 1.7199 10.261 3.7085 9.478 4.9049 22.901 8.1934 36.171 8.8614 12.507 0.62969 18.94-0.84912 33.572-7.7174 7.9052-3.7109 8.6539-3.8917 9.774-2.3598 1.8502 2.5302 2.7027 1.9766 0.98747-0.64122-1.3714-2.093-1.3663-2.3542 0.0567-2.9002 0.86017-0.33006 2.2938-0.60012 3.1858-0.60012 0.89203 0 2.1799-0.89356 2.862-1.9857 0.91465-1.4646 1.7982-1.8086 3.3669-1.3107 1.802 0.57193 1.9449 0.4558 0.93549-0.76043-0.99726-1.2016-0.36613-2.0039 3.8746-4.9253 9.34-6.4343 12.121-10.075 14.606-19.12l2.2392-8.151 3.1708 0.15537c1.744 0.0855 4.9857 0.84845 7.2038 1.6956 3.3668 1.2858 4.4651 2.4214 6.6493 6.875 1.439 2.9341 2.6164 6.0484 2.6164 6.9205 0 0.87216 1.241 3.5815 2.7577 6.0207 2.2389 3.6006 3.0729 6.7085 4.433 16.519 1.874 13.518 4.0324 23.019 5.6827 25.015 1.7563 2.1243-7.138 9.2173-14.807 11.808-9.7596 3.2972-18.382 7.7364-20.09 10.343-1.4473 2.2089-1.4312 2.4617 0.23501 3.68 3.1466 2.3009 11.731 4.2578 18.677 4.2578 4.8133 0 7.086 0.4148 7.9452 1.4501 0.89452 1.0778 3.2828 1.4501 9.3024 1.4501 4.4544 0 8.099 0.36762 8.099 0.81691 0 0.44931-0.87007 1.6043-1.9335 2.5667s-1.9335 2.9515-1.9335 4.4202c0 2.2772 0.64529 2.9169 4.3821 4.344 4.1823 1.5972 4.6498 1.5925 10.255-0.10471 3.2302-0.97804 6.8994-2.5855 8.1538-3.5722l2.2806-1.794 1.3798 3.3024c3.0835 7.3798 8.8124 8.3719 14.261 2.4696z" fill="param(fill)" fill-opacity="param(fill-opacity)" stroke="param(outline)" stroke-opacity="param(outline-opacity)" stroke-width="param(outline-width) 0.2"/>
</svg>
