<svg version="1.1" width="512" height="512" viewBox="0 0 512 512" xmlns="http://www.w3.org/2000/svg">
 <path d="m233.47 435.69c28.935 2.3705 23.359-31.468 29.121-50.062 3.2416-19.512-4.1975-44.495 10.769-60.011 15.593-3.7155 32.998 1.4261 49.446 0.89176 18.879-4.9534 31.207-1.0666 21.061 19.13-10.434 14.18-15.656 39.823 10.99 31.941 21.472-7.0599 30.752-32.585 35.292-52.912 2.5582-17.978 11.525-31.154 30.766-25.738 5.959 10.153 9.317 24.9 15.648 35.939 4.403 21.92-6.1038 41.558-12 61.763 6.2542 15.608 34.331 7.1758 41.195-6.1078 7.5083-12.65 11.607-27.318 16.195-40.759 0.10306-28.079-1.2068-56.577 7.7102-83.663 9.6387-36.979 19.851-78.173 2.2463-114.48-11.523-30.883-38.631-53.21-66.846-68.438-32.312-13.006-68.002-20.694-102.5-12.237-35.764 7.0072-69.936 20.218-105.35 28.695-19.349 10.65-41.095 7.5299-61.823 11.123-22.58-1.2282-43.553 4.5956-64.508 12.043-9.2594 1.4418-29.962-39.921-24.665-6.8421 14.769 16.913 0.12265 35.142-17.15 40.408 2.9635 20.926-2.3732 45.33-25.135 53.897-16.799 9.4245-22.843 42.855-8.8296 56.069 23.441 4.606 44.913 20.388 69.555 16.663 18.194 1.726 27.853-16.176 34.628-26.413 13.053 18.181 28.4 35.562 28.781 59.392 8.0196 21.543 18.496 45.834 8.2575 68.543-15.864 20.022 11.852 32.406 26.524 17.97 13.47-17.891 12.125-43.839 17.829-65.277 0.38235-26.739 7.4764 16.274 14.031 23.726 8.7079 18.188 8.4377 41.657-0.89907 59.7-6.4635 11.6 12.286 16.431 19.663 15.043z" fill="param(fill)" fill-opacity="param(fill-opacity)" stroke="param(outline)" stroke-opacity="param(outline-opacity)" stroke-width="param(outline-width) 0.2"/>
</svg>
