<svg version="1.1" width="512" height="512" viewBox="0 0 512 512" xmlns="http://www.w3.org/2000/svg">
 <path d="m163.8 362.1c19.44 3.1565 25.761-18.464 28.766-33.447 9.2247-21.237 19.23 26.051 0.26841 25.765-12.194 12.794 19.599 5.3258 26.775 7.2871 18.579-4.5038 10.41-32.644 12.722-46.956 1.6856-14.647 27.318 5.2264 37.2 4.2597 18.622 3.7993 37.495 6.9808 56.342 9.338 15.189-4.6473 30.835-8.745 46.225-13.258 11.811-8.8284 9.229 10.419 3.2787 15.737-4.3336 12.466-26.452 33.292-0.64584 30.722 17.87 6.8729 28.538-17.072 37.815-19.665 7.3305 10.725-11.911 12.786-11.738 18.523 13.822-3.8262 34.515 7.5492 42.257-4.9166 5.4669-15.012 10.666-30.149 14.113-45.784 10.747-8.4948 17.424-20.088 19.666-33.65 2.5262-6.6266 16.062-39.846 11.208-16.548-1.9235 19.476 17.836-19.071 14.518-28.621 1.1084-20.646-9.3889-43.053-27.01-54.13-36.165-19.596-73.783-38.559-115.15-43.784-48.299-7.0863-96.827 2.5283-145.3 1.3211-20.554-0.83136-39.427 7.1924-58.058 14.6-15.4 9.1418-31.111 17.611-45.391 28.582-13.837 21.851-41.486 30.38-53.719 53.733-7.2148 12.656-15.317 23.783-26.964 31.379 0.10821 9.7229 10.628 15.7 0.93723 24.324-6.0997 15.308-16.261 30.498-20.951 44.183 4.4284 19.107 23.857 30.627 42.774 25.477 20.686-5.1114 31.186-26.104 48.535-36.359 11.539 11.672 27.07 0.0668 33.105-10.408 16.895 14.462 19.043-33.798 22.311-6.834 3.7138 16.589 6.093 33.962-7.2909 47.032-24.267 14.035 0.7371 14.039 13.395 12.096z" fill="param(fill)" fill-opacity="param(fill-opacity)" stroke="param(outline)" stroke-opacity="param(outline-opacity)" stroke-width="param(outline-width) 0.2"/>
</svg>
