<svg version="1.1" width="512" height="512" viewBox="0 0 512 512" xmlns="http://www.w3.org/2000/svg">
 <path d="m380.92 457.29c20.791 1.894 34.265-12.224 25.485-32.79-1.5479-23.224-6.0176-46.523-4.6189-69.78 0.50741-10.243 14.546-19.921 9.1962-29.906-6.3387-12.718-32.922-14.619-33.016-30.136 9.0386-16.385 17.422-33.331 19.532-52.163 1.5536 6.4107 19.757 19.728 13.056 4.2809 24.968 24.558 47.165 52.828 76.745 72.002 12.27 7.0526 25.223 6.0594 15.593-9.7889-13.024-16.139-36.695-23.157-42.508-45.159-9.2518-27.93-25.398-57.73-53.903-69.465-22.343-6.0021-44.465 12.352-66.104-1.04-13.513-3.1417-27.979-5.2302-41.74-4.7037-22.938 7.0676-47.799 7.5494-71.345 3.8081-17.707-7.0362-34.049-17.797-48.867-29.728 15.432 0.18453 13.707-5.459 2.6779-10.846 14.996 3.043 17.51-5.8148 5.0631-12.754-7.6861-11.422-20.165-19.853-30.359-33.28-11.083-16.845-42.746-17.889-50.206-26.383 5.7317-9.4152 2.9168-28.415-6.4597-9.7701-7.4673 12.486-17.76-19.542-17.733 1.7795 3.5123 14.05-15.73 13.406-22.824 21.485-17.011 12.478-35.5 23.294-51.553 36.857-6.7857 22.632 18.866 28.629 33.571 18.496 15.397-0.36248 33.351-4.77 47.655-1.3538 12.51 20.599 12.228 45.915 21.309 68.012 1.6952 20.196-9.4945 41.53-0.46893 61.202 18.196 24.96-20.786 33.371-32.715 48.829-6.1445 19.744-1.2516 41.204-1.1092 61.738 3.6631 14.498 11.942 29.513 19.263 42.975 20.256-3.8683 7.3378-27.658-2.9429-32.833-1.985-19.979-6.798-41.566-1.3611-60.946 18.293-9.2186 39.268-11.141 59.449-13.069 9.3442-20.329 27.493-8.7438 28.715 10.287 7.5183 23.515 14.758 47.155 24.44 69.832 10.722 21.238-11.969 29.652-20.312 42.807 13.143 2.5045 39.079-3.9518 38.467-19.494-5.9481-19.984-14.099-39.839-11.816-61.123 1.3484-14.813-21.334-49.498 1.9053-51.413 30.107-1.3207 62.294-2.2951 88.189-19.738 23.274 25.995 48.531 50.384 73.661 74.307-4.7863 19.25-19.277 39.567 1.1332 58.052 21.537 15.308-5.5268 20.351-11.635 31.905 5.9177 2.1274 12.525-0.18451 18.49-0.99107zm2.7431-42.45c-11.774-4.6746 5.0457-40.39 4.2993-14.495-0.88329 3.0231 4.9624 23.689-4.2993 14.495z" fill="param(fill)" fill-opacity="param(fill-opacity)" stroke="param(outline)" stroke-opacity="param(outline-opacity)" stroke-width="param(outline-width) 0.2"/>
</svg>
