<svg version="1.1" width="512" height="512" viewBox="0 0 512 512" xmlns="http://www.w3.org/2000/svg">
 <path d="m28.516 372.4c13.287-13.931 23.824-34.114 38.137-45.153 1.4159 16.588 13.047 35.256 32.446 33.282 3.9685-6.8067-10.442-19.855-18.269-17.079 1.904-10.629-13.024-35.105 9.7119-30.19 27.205 2.605 55.094 2.6354 81.518-4.6911 25.942 0.51393 51.995 3.0135 77.868 1.3508 23.682-4.7211 43.528-22.21 67.929-23.311 19.933 0.83588 28.676 26.1 49.476 24.749 19.186-1.0575 42.442 2.0586 50.085 22.814 9.2294 15.079 17.645 37.671 37.974 39.09 23.908 3.8676-0.9645-25.047-11.124-14.538-0.26013-17.722-26.725-31.596-20.336-48.907 17.301 5.4884 27.81 22.484 41.011 34.17 9.8062 11.357 29.358 31.085 42.173 16.244-3.5505-14.812-20.009-9.3488-26.278-15.052-5.7749-18.465-26.965-26.492-35.614-43.86-6.4034-5.2594-6.9124-20.285-17.665-17.381-13.591-0.51437-35.492 3.9895-37.175-14.968 0.47328-21.04-9.516-39.114-22.108-55.065 19.116-15.242 36.761 10.208 56.612 7.966 6.8147-7.5588 26.567-5.9016 33.702-15.83-19.375-1.5372-36.919-11.759-55.934-15.693-15.915-0.65353-29.646 10.428-44.415 14.178-21.788-4.4655-44.564-6.2328-65.917 1.4076-25.674 6.9342-53.885 14.239-79.932 5.3948-5.1375-8.6695-18.808-9.5014-23.886-12.704 9.5838-7.5148-15.169 0.11911-12.764-8.7598 13.93-8.6812 0.49888-3.7756-6.0058-9.1639 20.832-10.599-21.359-5.3534-5.9501-12.542 17.462-5.0237-30.898-3.8264-7.2434-10.665 7.1828-4.6581-26.24-2.0899-12.246-12.23-16.148 8.4367-17.392-6.2518-17.681-7.9304-18.02 3.0473 13.452-9.5686-7.3922-6.7817-10.387 1.6868-9.5222-9.8841-18.129 2.9769-9.2769 9.8249-24.293-11.277-30.037-11.105-1.2941 0.0388-0.21914 3.0557-0.64927 5.602-1.7062-0.73531-4.8303-2.7985-5.5811-2.385-3.5887 1.9765 3.351 16.843-5.9884 19.248-1.0281 14.685-15.202 27.557-24.9 42.569-3.8649 18.095 20.757 27.784 28.367 8.5808 13.231-8.6493 33.147-22.314 37.713 2.2119 3.5186 13.854 12.154 26.281 15.397 39.079 0.39058 14.699 1.1305 29.445 2.8177 44.002-18.534 2.779-38.323-1.2693-55.936 6.4736-1.8794 8.6389 0.87171 18.351-6.2715 25.087-14.031 19.971-25.7 43.171-46.718 56.736-5.8614 7.5805 17.224 3.975 19.208 2.7747z" fill="param(fill)" fill-opacity="param(fill-opacity)" stroke="param(outline)" stroke-opacity="param(outline-opacity)" stroke-width="param(outline-width) 0.2"/>
</svg>
