<?xml version="1.0" encoding="UTF-8"?>
<svg width="512" height="512" version="1.1" viewBox="0 0 512 512" xmlns="http://www.w3.org/2000/svg">
 <path d="m159.66 453.65c2.446-0.52808 3.2156-1.9562 5.4602-10.131 0.81911-2.9831 2.5473-6.5655 3.8403-7.9608 2.8373-3.0616 3.213-5.6427 4.488-30.833 1.304-25.768 2.0155-34.493 2.9336-35.979 0.49875-0.80699 1.646 1.4955 3.2028 6.4275 4.0509 12.835 4.8084 18.643 4.3812 33.599-0.4783 16.741-1.3924 19.26-10.863 29.942l-6.4408 7.2645 2.6671 1.3982c1.5432 0.80893 6.6442 1.5899 12.105 1.8531 10.839 0.52257 10.388 0.87958 12.483-9.8988 0.73709-3.7941 1.8986-6.4534 3.4444-7.8859 3.0572-2.8333 3.0513-7.3948-0.0487-37.896-1.3038-12.828-2.8677-30.977-3.4754-40.33-1.1513-17.721-0.98-63.462 0.24226-64.682 0.38651-0.38551 16.567-1.5014 35.957-2.4799 57.244-2.8886 64.99-4.3835 93.344-18.018 9.4997-4.5682 18.929-8.5278 20.954-8.7996 3.4381-0.46112 3.976-0.16685 8.1246 4.4477 7.5336 8.3792 19.351 38.445 24.527 62.405 6.3568 29.424 6.8601 48.563 1.6579 63.086-8.4773 23.667-10.252 26.988-19.445 36.398-10.663 10.915-11.555 12.427-8.8962 15.086 1.6434 1.6434 3.2325 1.9659 9.6863 1.9659 9.5541 0 11.484-1.4001 15.349-11.135 2.1176-5.3337 3.5446-7.3857 6.7578-9.7183 6.2219-4.5161 7.0079-7.2462 11.917-41.395 2.8358-19.727 2.9385-20.118 8.3606-31.884 3.0194-6.5514 5.7001-13.526 5.957-15.499 0.25694-1.9731-0.44397-7.9209-1.5578-13.218-2.408-11.45-2.3405-10.292-0.59923-10.292 2.1705 0 14.998 13.125 21.82 22.326 7.2048 9.7171 15.661 26.612 18.739 37.441 2.0023 7.0444 2.2109 9.8399 2.2215 29.767l0.0114 21.993-7.7852 8.1337c-4.3033 4.496-9.0843 10.658-10.69 13.778-2.8421 5.5218-2.8641 5.6738-1.0185 7.0455 1.2735 0.94655 4.4032 1.4021 9.6328 1.4021 6.5351 0 8.4028-0.38468 11.944-2.46 5.3226-3.1193 6.5062-5.2789 7.1311-13.013l0.50402-6.2405 4.1414-1.3757c6.3595-2.1127 6.6107-3.3486 3.5687-17.555-4.0346-18.841-4.1854-20.074-4.3002-35.158-0.19384-25.445-1.496-44.903-3.219-48.107-0.86259-1.6035-4.3987-6.4142-7.8582-10.69-11.434-14.133-15.573-25.947-13.339-38.073 0.62165-3.3738 3.7526-14.555 6.9578-24.847 6.8141-21.881 8.7054-31.525 8.6981-44.352-7e-3 -11.498-0.74298-14.386-7.0322-27.584-3.6752-7.7122-4.6997-10.747-3.8981-11.548 2.1218-2.1219 4.3029 0.24135 8.6058 9.3252 6.8996 14.565 7.0596 15.965 8.6693 75.853l1.4368 53.451 6.4614 26.169c6.0539 24.519 6.6708 26.388 9.781 29.641l3.3194 3.4715-0.48597-6.8027c-0.46639-6.5294-0.44716-6.6073 0.47883-1.9437 2.3202 11.686 2.3073 11.652 4.5275 11.972 2.9905 0.43116 4.0923-2.9755 4.1288-12.764 0.0304-8.5887 0.81592-8.448 2.8757 0.51558 0.70197 3.0549 1.6475 5.3249 2.101 5.0448 0.45359-0.2805 0.84986-3.873 0.88069-7.984 0.0304-4.1109 0.41781-9.2234 0.86004-11.361l0.80406-3.8875 0.18016 3.4014c0.0988 1.8708 0.52941 4.2759 0.95644 5.3451 1.6639 4.1657 3.976-8.2899 5.0512-27.211 1.5188-26.73 0.53922-96.096-1.5407-109.1-2.4006-15.013-4.9734-24.173-9.212-32.801-5.0608-10.3-11.018-16.269-20.965-21.005-8.4598-4.0273-13.403-5.0178-33.151-6.6411-7.3549-0.60459-17.748-2.2697-24.58-3.938-16.598-4.0532-28.063-5.206-45.249-4.5496-12.83 0.49007-17.226 1.1504-36.057 5.4169-35.972 8.1497-37.168 8.3097-62.132 8.3154-30.708 7e-3 -49.794-3.295-67.141-11.615-8.8498-4.2451-11.781-7.1725-29.855-29.822-17.195-21.547-26.893-31.33-38.574-38.905-19.054-12.36-27.012-14.868-56.461-17.793-5.0482-0.50159-5.9429-0.99988-12.434-6.9243-3.8472-3.5111-7.2561-6.1223-7.5758-5.8027-0.31965 0.31965-0.08145 3.0698 0.52941 6.1113 1.6963 8.4461 0.36898 8.3006-5.6921-0.62474-2.1328-3.1407-4.3854-6.0243-5.006-6.4074-1.6382-1.0125-0.30912 9.0026 2.1721 16.368l1.9882 5.9019-6.7571 6.889c-7.7966 7.949-8.1941 8.6221-11.969 20.267-3.8213 11.79-7.9125 20.397-18.47 38.859l-8.9357 15.627 2.6179 4.9403c1.4398 2.7171 4.1421 7.0174 6.0053 9.5564 2.9609 4.0349 3.8312 4.6161 6.9095 4.6161 1.9372 0 5.2117 0.50619 7.2766 1.1248 3.2892 0.98547 4.0121 0.89517 5.8338-0.72883 1.1436-1.0196 3.3352-4.6362 4.8703-8.0372 3.1746-7.033 11.905-16.293 18.576-19.703 2.2664-1.1584 9.2903-4.0087 15.608-6.3344 6.3181-2.3255 12.387-4.7096 13.486-5.2976 1.532-0.81987 2.1982-0.76256 2.8542 0.24554 1.6532 2.5406 8.5009 25.05 11.969 39.346 1.9278 7.946 4.9707 18.164 6.7624 22.708 4.1224 10.455 4.0669 10.157 6.4169 34.499 3.2465 33.632 4.6187 38.548 13.464 48.24 5.0509 5.534 5.8745 7.0494 7.8513 14.443 1.2146 4.5431 5.019 17.444 8.4537 28.669 3.4351 11.225 6.9026 24.814 7.7061 30.199 0.8033 5.385 2.5505 13.912 3.8825 18.95 5.5123 20.846 6.4576 26.993 5.9676 38.802-0.62921 15.163-2.4022 20.508-8.865 26.725-2.7779 2.6725-7.5412 6.9638-10.585 9.5362-6.1421 5.1904-6.8487 7.5092-2.8622 9.3948 2.7648 1.3077 15.548 2.1773 19.491 1.3259z" fill="param(fill)" fill-opacity="param(fill-opacity)" stroke="param(outline)" stroke-opacity="param(outline-opacity)" stroke-width="param(outline-width) 0.2"/>
</svg>
