<svg version="1.1" width="512" height="512" viewBox="0 0 512 512" xmlns="http://www.w3.org/2000/svg">
 <path d="m323 476.6c14.083-2.5562 11.565-27.122 26.095-23.149 13.055-21.585 21.498-45.623 32.71-68.149 9.4846-2.2132 14.54 45.014 33.602 29.609 5.3368-13.779 2.5603-32.215-12.321-28.861 1.72-15.731 18.674-37.982 32.952-51.772 6.184 3.4921 0.19734 40.897 10.895 31.904 5.4413 17.044 15.192 12.329 21.94 26.454 8.3157-5.2595 3.9309-24.487 7.9422-3.8107 3.1232 7.1869 0.2077 2.604 8.1261 7.5744 9.803-17.404 1.1192-41.28 7.0523-60.933 7.8347-42.984 10.655-87.021 8.5065-130.65-1.6076-22.856-13.796-46.914-36.463-55.13-22.926-10.573-48.351 0.32482-72.284-5.6749-27.438-5.3318-55.619-4.2458-82.664 2.6128-15.351 2.5895-25.65 2.1131-31.804-8.047-19.751-3.7568-20.472-10.3-37.623-14.66-12.554-4.7872 16.927 3.8594 19.813-0.14772-12.531-9.6961-25.326-16.06-40.797-22.877-20.75-9.72 35.455 9.5558 7.7159-5.3408-19.282-5.9441-17.365-19.683-37.722-22.889-22.188-10.794-47.448-14.641-65.496-32.93-10.122-8.6301-24.197 0.61061-35.146-5.263-9.5588 6.1088-33.549-0.80428-36.241 5.2485 30.213 13.65-25.528 3.005-26.016 12.774 9.8621 4.5877 38.507 2.538 14.856 13.5-14.354-1.8795-22.141 1.4943-17.054 6.1433-25.285-13.864 11.2 15.591-6.8219 23.527-2.2797 17.221-8.3227 39.932-4.059 56.32 2.8009 1.1389 4.32 16.086 9.2488 1.2632-0.68734-12.172 2.3045 14.567 4.1239-3.5192 0.59327-11.695 2.5719-31.858 6.3572-9.0982 15.432 18.707 1.1268 45.872 11.707 64.473 10.226 12.889 34.658 1.9768 35.975-11.494-4.3652-18.221 0.14838-39.746 14.493-51.968 19.179 8.8926 17.996 34.672 21.249 52.614-9.2957 25.071-4.9444 49.917-0.28838 75.257-16.202 12.559-48.59 3.7546-50.95 32.068-6.3935 27.987-17.219 55.838-13.098 85.033-3.0463 13.96 15.641 44.242 20.068 16.06 12.448-17.807-21.389-23.923-2.4692-35.956 2.0519-20.409 0.55736-48.145 20.057-60.197 23.607 0.14907 46.749 6.7656 70.502 7.8229 22.726 8.8478 12.947 43.033 15.573 63.456-1.2726 27.589 2.3124 61.998-23.333 80.027-10.99 8.3741-8.3701 23.883 6.3266 18.698 21.429 8.8011 14.271-24.85 24.286-22.844 11.317-9.5866 4.0974-40.491 11.059-57.624 5.6157-20.522 0.83143-42.409 8.685-62.748-2.1486-20.846 11.2-31.26 30.919-26.217 22.281 0.35774 46.053-14.716 64.853-15.268 7.1338 24.393 31.789 37.193 43.23 59.199 16.78 14.642 20.851 37.408 10.505 57.025-10.178 26.509-34.686 42.742-53.495 62.613 5.1487 8.7904 16.277 6.7144 24.722 5.9417zm54.436-135.05c-10.159-10.984-15.691-36.099 7.312-24.286 9.6105 4.5485 35.303 2.3407 23.55 19.487-6.3508 3.7337-14.02 28.075-21.517 17.128-3.3963-3.8855-6.4356-8.0715-9.3445-12.329zm50.453-43.623c-14.042-7.1254-28.793-18.278-10.81-31.014 17.627-27.94 23.715-67.253 3.1812-95.455-6.6445-10.657 22.092 6.554 18.378 16.022 10.346 18.17-3.3183 38.473-2.6046 57.871-2.7931 18.907 0.0269 40.2 1.6089 57.375-3.4735-1.1166-6.5947-3.0299-9.7539-4.8003zm-228.74-217.59c5.9744-0.9524 0.0745 1.6612 0 0z" fill="param(fill)" fill-opacity="param(fill-opacity)" stroke="param(outline)" stroke-opacity="param(outline-opacity)" stroke-width="param(outline-width) 0.2"/>
</svg>
