<svg version="1.1" width="512" height="512" viewBox="0 0 512 512" xmlns="http://www.w3.org/2000/svg">
 <path d="m164.45 438.01c-3.7128-10.625 16.282-24.286 10.017-39.974 0.4681-22.102-9.843-42.233-11.585-64.087-2.9222-17.549-8.4428-34.555-13.627-51.471-14.04-9.0785-28.074-17.196-28.543-35.198-0.33923-21.22-21.952-29.699-33.588-44.512-8.4247-7.5211-23.741-28.321-21.925-30.583-23.272 5.9004-15.729 32.184-28.989 45.261-21.787 1.18-24.386-27.779-17.428-43.703 3.7056-18.07-11.955-35.233-2.7105-51.223-8.4885 1.7537 18.039-18.419 0.71811-20.663-9.423-9.8485-3.7533-31.767 6.8236-11.568 8.9765 5.5919 9.4271 6.6702 2.2733 13.165 5.8508-7.6236 17.94-18.212 26.313-11.32 6.6608-7.5227 14.546-24.589 13.33-4.6515-1.3336 9.6524-4.1628 18.695 1.3461 4.7535 17.277 5.5878 33.162 15.078 52.277 25.058 29.191 15.539 64.228 4.03 93.977 17.405 16.007 9.9886 37.015 16.041 57.089 13.542 32.205-2.5099 63.431-11.931 95.149-17.195 28.855-0.79218 52.208 19.483 77.556 30.121 15.229 8.9422 27.65 24.075 37.575 38.312-16.666-6.071 8.9431 12.165-3.7799-0.89628 12.051 7.8028 8.1343 15.89 20.649 27.277-1.2711 4.3707-8.3638-2.6545-3.7942 9.7056 3.2884 7.2045 9.8487 18.85-1.7809 11.081-0.14362 10.135 5.169 31.565-1.7206 21.93-3.6846 8.7533 8.2988 33.193 4.8905 33.457-3.0108-9.2004-6.5445-22.826-6.7762-6.2583-0.78909 7.108 1.78 17.663-1.7442 9.5865-4.796 8.7829-6.573 22.366-9.9956 32.131-3.9613 11.796-5.665 24.462-9.4179 25.038-2.3702 11.664-13.882 16.629-2.6443 3.2334-14.186 17.428 5.3118-16.251-8.2318-1.8914-0.71755 2.5485 17.777-26.951 10.059-29.293 1.9081 0.15038 0.45807-30.559-4.2638-19.176-5.9929-16.151 3.7876-45.386 2.4896-52.291-3.3524 3.4659 1.3214-17.27 2.6427-25.449-5.2205 10.541-0.15911-13.803-4.0578 0.75468-4.924 14.557-0.55883-12.162-3.9697-17.548-0.83224-4.9074-3.6842 4.1051-4.1111-9.4929-1.2957-8.7882-11.691-40.586-6.9399-17.609 4.0904 27.219-8.4878 52.222-17.843 76.831-8.0765 23.449 11.402 42.295 13.946 63.475-3.2816 26.697-6.1403 53.975-4.2552 80.765-4.9884 6.186-17.31 8.3441-9.1628 20.359-10.95 7.7808-36.311 1.9657-19.095-12.254 12.99-16.983 11.4-41.54 12.335-62.454-3.8939-21.808-18.369-39.622-27.426-59.505-9.1592-18.659-19.016-38.598-37.527-48.921-6.716-8.414-15.488 6.329-23.027 7.8368-23.574 16.337-51.735 26.152-80.661 24.286-20.971 0.18483-41.944-0.0325-62.915-0.0631 0.26845-24.493-2.9355 15.86 1.108 24.408 4.3175 26.54 5.0078 53.98 15.992 78.954 9.2515 12.978 3.4034 28.939-5.7398 35.936 4.9414 19.668-33.602 11.015-12.754-3.4573 13.271-16.333-4.897-39.631-1.6731-58.995-0.36497-10.129 0.18479-32.788-1.018-36.235-1.4023 27.601-2.5041 55.422 3.8334 82.541-3.4393 11.701-11.448 35.269-27.667 30.737zm302.91-81.004c-0.56327-5.5721-2.9048 9.254 0 0zm3.5137-12.414c4.7292-11.741-6.4437 10.685 0 0zm3.5208-17.389c5.7871 2.8152-12.154-28.822-3.8469-4.8555 3.7392 5.9994 2.354 22.735 4.013 7.1679zm-284.97-13.821c-1.3207 3.1423 0.93449 8.7823 1e-4 0zm294.4-18.652c11.058-25.419-17.587 22.281-2.1079 3.5638zm-6.3253 5.8849c2.1912-6.9293 0.48519 3.9605 0 0zm0.18918-8.5359c3.076-6.1658 5.2428-17.888-2.1536-3.6042-1.1013 7.9983-10.665 13.393 2.1536 3.6042zm-14.112-1.7777c3.2654-5.6282-2.3831-11.038-1.7491 1.7003 0.10781 8.8522 0.28862-7.7008 1.7491-1.7003zm9.629-1.5642c1.2414-4.7614 5.4103-12.291-0.62759-18.484-2.9973 1.5084 0.22146 28.884 0.62759 18.484zm0.11757-16.482c0.89717-3.6346 0.41506 4.2195 0 0zm-325.39 4.1507c-4.1797-4.1223-23.374-21.088-9.8541-8.5631 3.3085 2.768 6.0212 6.5631 9.8541 8.5631zm324.98-17.422c9.9612-19.907-8.2947 8.0193-4.7885 9.9537 1.4996-3.3637 3.1564-6.6534 4.7885-9.9537zm-278.61 4.6618c7.1176-7.4287 5.8789-14.197-1.1117-2.5225-5.0372 2.6137-5.1866 9.0929 1.1117 2.5225zm285.1-6.8674c4.5345-6.9209-5.5754 16.5 4.4768 0.83226-1.4089 21.844 5.5582-22.195-1.5955-8.6007 3.1741-20.551-16.666 30.071-4.6584 10.355zm-6.6803-16.064c1.6254-15.362-10.501 29.27-2.4394 7.9914 0.98336-2.5992 2.2303-5.1702 2.4394-7.9914zm3.4698 4.9173c3.4813-1.1765-2.037-9.4355-3.8261 1.3881-4.9676 12.77-0.90602 3.3917 3.3402-2.5422zm13.077-3.6446c-3.3624-13.216 2.6167-21.802-6.338-25.026 3.005 3.7885 4.3115 37.476 6.2972 33.769l0.0299-3.9365zm7.4105 4.2835c-6.1433-23.341-6.159 2.1773 0 0zm-372.69-2.1375c-3.1114-3.824 1.0624 4.8148 0 0zm355.53-8.3945c-4.0877-14.757-5.6812-9.8681-1.2946 2.0618 0.8864 3.2094 2.8434-1.8104 1.2946-2.0618zm-15.689-15.09c-4.6298-15.114-0.0756 27.89 0 0zm16.776 0.94872c-8.8376-14.852-7.2787-1.4959 0.74164 1.886zm-8.431-7.5272c-1.5989-13.102-5.971-26.127-10.703-25.206 3.9634 12.923 6.3482 23.705 12.045 28.622zm-434.92-0.72705c13.738-9.2189-21.593 7.0989-3.4145 1.6138zm423.86-7.2018c4.8968-0.87691-4.8271-29.396-9.479-24.239-13.985-24.942 7.9188 32.947 4.4468 17.361-1.1184-11.739 3.1529 16.228 5.3535 5.3161l-0.24491 1.1903zm-443.28-7.6648c-5.7686-11.11 4.7658 15.403 0 0zm14.947 1.0186c0.44476-16.234-4.9221 5.0756-5e-6 0zm90.327-13.1c-0.26701-6.5916-4.5988 12.898 0 0zm346.3 2.0122c-4.8464-7.9711-17.904-18.546-6.577-4.0057-0.67067 0.43656 7.5721 9.0997 6.577 4.0057zm-329.25-5.8157c-0.65592-7.4629-2.9833 13.159 0 0zm4.8088-0.80924c-1.697-13.418-1.3061 15.905 0 0zm-106.12-0.48554c-1.6846-0.314 1.0195 6.4887 0 0zm80.904-3.1028c5.5545-6.3051 4.8868-26.086 1.2261-8.7931-0.60356-20.6-1.1354 18.961-7.0284-2.4277-8.9369-10.248 2.9976 22.574 5.8023 11.221zm322.6-3.114c-16.821-28.545 8.7958 19.615 0 0zm-306.14 0.39023c-1.7387-13.195-0.9811 15.272 0 0zm-5.0013 2.974c-3.7236-5.2748-2.6435 4.283 0 0zm2.1364-8.9177c-2.1024-12.22-8.1164 7.1315 0 0zm16.346-3.8112c-3.7683-5.0086-9.839 5.268-2.1611 4.4538-0.71205 6.7456 2.6572-3.0608 2.1611-4.4538zm16.828 0.34242c0.78937-9.5301-5.9939-10.509-2.303 2.3721 1.0751 7.4983 0.44775-0.19329 1.8328-2.8411zm-64.223-2.0093c-3.712-15.735-3.0136 11.795 0.48812 3.2924zm-11.959-1.1416c-1.7109-1.842 0.61242 5.6035 0 0zm68.156-1.46c4.0934 3.4496-2.2622-20.439-1.5716-0.30008-0.61346 10.996 1.4694-6.4836 1.5716 0.30008zm-13.219-0.0573c8.6761-13.489-6.3252-13.008-10.815-5.0128-0.60185 3.4097 7.6609 5.9141 10.815 5.0128zm-59.731-9.2254c0.87384-8.0339-0.0015-34.148-1.7243-12.378-1.0988 6.9999 2.3699 34.248 1.7243 12.378zm8.3126 3.6416c0.30421-12.327-2.6852-22.399-2.2951-4.4312-2.478 9.7825 0.8292 8.3604 2.2951 4.4312zm57.316 0.97109c0.24333-10.765-2.7418 13.994 0 0zm-16.9-8.2045c6.0316-10.683-12.948-18.965-10.019-1.7714-0.77373 0.6508 10.384 22.416 10.019 1.7714zm-23.801 8.1006c5.713-9.8289-8.1-1.7158 0 0zm44.937-5.9469c-1.5926-1.3788 0.83647 8.2926 0 0zm10.672 1.4988c-1.7109-1.842 0.61247 5.6036 0 0zm9.3776-7.9617c-1.0577-21.402-1.7418 26.908 0 0zm-53.254 5.2305c3.9924-7.5571-0.2834-20.04-1.8857-16.791-6.0064-8.1943 1.3156 20.765 1.8857 16.791zm83.865-2.4277c-11.408-10.699 8.1496 10.703 0 0zm-144.07-10.046c-4.1404-21.766 1.7976 29.846 0 0zm35.78-5.9766c-2.7095-8.8281-3.1589 28.651 0.07277 7.2889l0.13125-2.8916zm115.1 12.928c4.6138-3.1655-17.842-10.894-0.88574 0.32394l1.5595 1.0437zm-153.72-4.4309c-4.0323-9.861-4.7314-10.245-0.61709-10.119-11.916-4.3614-27.816-33.382-17.168-8.5135 7.2458 2.5835 21.62 24.254 17.785 18.633zm-12.793-14.888c-10.214-7.0073 13.74 5.9311 0 0zm108.7 17.729c3.0749-15.393-10.765 2.9906 0 0zm14.229-0.41304c-3.0104-22.174-6.3316 6.3093 0 0zm46.132-1.7295c-3.304-2.518 6.4462-1.8415-2.7198-1.6828 0.86875 1.7475 9.387 7.2428 2.7198 1.6828zm-101.38 0.64854c7.246-3.1626-2.1618-16.482-8.357-19.555 0.43007 3.6132 8.0483 16.353 8.357 19.555zm47.481-1.9712c-3.557-10.822-2.3827 8.966 0 0zm60.208 2.4277c-2.9263-3.2037-2.9598 1.3182 0 0zm-27.112-1.9516c-5.8595-8.7303-5.7236-3.5935 0.64497 1.3622l-0.64498-1.3622zm-140.47-2.106c4.3676-9.9368-10.822 6.2104 0 0zm145.25 1.1594c-3.144-4.498-3.4202-0.76031 0 0zm-19.434-7.4302c-6.714-2.8969 1.6045 2.9967 0 0zm-119.74-4.0383c-1.7109-1.842 0.61242 5.6035 0 0zm26.581-8.4568c-5.6792-11.536 14.025 7.3493 3.988-6.738-7.6457-1.9786-20.51-15.649-9.8701-1.0251 5.2369 5.7403 7.9485 29.363 5.8821 7.7631zm14.216 0.30911c-17.969-10.186 9.8871 20.835 0 0zm-43.702 1.7946c-5.3435-8.1431-14.907-16.172-4.0707-2.5752 1.3312 1.82 9.8592 12.148 4.0707 2.5752zm-8.9718-1.9942c-15.385-21.061-2.6022 3.8861 0 0zm-22.054-6.6926c9.2718-22.085-10.586 10.618 0 0zm43.909-4.861c-4.5881-12.742 0.57975 14.452 0 0zm-35.284 0.53971c-0.82613-18.293-4.4093 11.951 0 0zm14.428-2.5491c-4.6607-9.2923-12.438-18.863-3.3904-3.0788 0.41301 0.74695 7.8127 10.07 3.3904 3.0788zm284.11 328.86c-7.3371-11.652 22.762-19.603 23.373-36.604 8.5868-17.182 19.997-34.739 16.196-54.878-2.9687-22.989-6.5351-45.981-10.593-68.808-2.0868-9.6593-12.8-29.39 2.9939-13.75 15.509 10.877 24.191 31.372 33.099 48.362 8.0288 20.785 2.531 40.225-9.0993 58.284-10.662 16.773-12.148 39.32-23.463 54.269-5.3539 3.5158-12.082 6.0841-16.05 12.741-5.0625 2.2787-11.2 1.5869-16.456 0.38482zm160.25-127.68c0.89717-3.6346 0.41505 4.2195 0 0zm0.11265-29.052c0.71247-5.647 0.42173 6.0849 0 0zm0.70827-45.884c-7.2737-7.9538 8.8902 8.2067 0 0z" fill="param(fill)" fill-opacity="param(fill-opacity)" stroke="param(outline)" stroke-opacity="param(outline-opacity)" stroke-width="param(outline-width) 0.2"/>
</svg>
