<svg version="1.1" width="512" height="512" viewBox="0 0 512 512" xmlns="http://www.w3.org/2000/svg">
 <path d="m127.15 389.67c35.553-1.0676 52.984-47.739 88.784-55.383-2.7206-29.117-25.011-90.975 21.836-94.302 22.249-6.8059 37.107-18.448 44.183-39.43 40.82 8.2436 82.633 18.308 124.56 9.8205 44.05-8.92 91.419-42.464 95.371-90.413-3.3628-16.234-16.025 44.722-40.588 47.638-36.568 28.392-89.001 28.239-128.67 11.446-14.482-5.16-37.291-17.668-55.961-26.728-35.867-22.013-82.85-32.361-120.36-7.8191-30.737 18.424-57.949 49.7-90.892 23.65 16.872-9.3564 32.381-62.558-1.4203-30.689-4.3076-4.8643-19.513-19.228-19.417 6.7658 8.9979 29.769-64.146 61.507-19.269 75.888 25.911-6.9947 44.995-19.136 59.851 10.003 34.456 6.552 34.376 65.996 75.748 47.129 14.352-19.219-34.07-10.222-6.7665-28.968 12.312 16.722 32.081 55.098 17.729 77.541-19.635 15.622-85.637 26.164-63.242 57.13 14.646-8.0986 7.965 12.449 18.533 6.7202z" fill="param(fill)" fill-opacity="param(fill-opacity)" stroke="param(outline)" stroke-opacity="param(outline-opacity)" stroke-width="param(outline-width) 0.2"/>
</svg>
