<svg version="1.1" width="512" height="512" viewBox="0 0 512 512" xmlns="http://www.w3.org/2000/svg">
 <path d="m193.87 496.42c21.995-17.908-5.8018-46.295 1.8757-69.152 3.7564-20.786 19.462 16.382 27.588 21.92 11.829 20.627 34.732 30.741 58.004 26.102 60.213-4.748 120.48-8.9235 180.9-9.7989 9.8605 1.0303 32.572-3.1434 10.443-7.803-47.567-11.579-97.059-12.96-145.52-6.9789-21.908 0.42118-48.862 5.4433-64.564-14.199-13.641-17.335-5.1429-41.808-4.7632-62.12 3.7201-28.016 8.0641-57.763-4.9858-84.231-8.9709-27.067-25.777-50.241-46.132-69.857-16.423-18.783-37.293-34.725-48.363-57.461 1.3019-22.731-26.693-39.892-14.076-61.706 1.6403-23.345-0.89573-46.716 7.497-69.284 7.9833-30.387-28.736-17.913-29.707 3.6324-7.1421 19.558-13.486-8.0361-20.737-12.752-6.5944-3.6732-26.997-13.603-22.852 0.8474-2.0481 16.972 24.008 28.153 14.802 43.448-2.6422 17.597-0.08536 36.078-2.3272 53.47-9.14 13.878-18.817 29.064-14.638 46.579 5.3553 28.751 3.2328 57.924-0.68218 86.713-3.4641 15.56-0.55434 51.045 20.348 45.122 6.579-20.796 3.8252 23.605-13.183 16.954-5.4896 19.665-28.697 43.581-22.734 63.203 16.871 2.6808 36.878-20.418 45.206 5.5772 13.135 18.234-1.5838 50.57 26.963 58.26 16.125 8.9783 27.205-14.538 34.573-18.335-1.9273 17.49 4.2501 48.333-23.444 40.33-26.691 0.9928-53.928-1.1382-80.071 5.3764 8.0063 9.34 40.459 5.1058 54.8 9.7212-17.179 5.8503-54.094 0.50184-59.443 15.617 35.678 4.0073 71.98 1.292 107.89 2.273 9.0964-0.29909 18.4 0.59588 27.334-1.4676z" fill="param(fill)" fill-opacity="param(fill-opacity)" stroke="param(outline)" stroke-opacity="param(outline-opacity)" stroke-width="param(outline-width) 0.2"/>
</svg>
