<svg version="1.1" width="512" height="512" viewBox="0 0 512 512" xmlns="http://www.w3.org/2000/svg">
 <path d="m120.38 417.49c1.5734-1.1021 2.813-1.2 5.5662-0.43982 2.524 0.69692 7.6629 0.56057 17.881-0.4744 7.8865-0.79882 26.586-1.7213 41.554-2.0499 17.885-0.39267 28.03-0.99392 29.592-1.7539 1.3075-0.636 2.7138-2.4269 3.1252-3.9798 0.4114-1.5529 0.11773-11.397-0.65261-21.877-1.8963-25.797-1.9343-56.486-0.0698-56.486 0.74706 0 4.0736 3.0627 7.3923 6.806 5.135 5.792 6.5047 6.806 9.1931 6.806 4.4025 0 8.9609-3.37 14.509-10.727 2.6086-3.4587 5.3692-6.435 6.1348-6.614 0.78951-0.18464 14.517 12.906 31.718 30.247 16.679 16.815 33.835 33.202 38.123 36.416 4.2881 3.214 8.406 6.578 9.1509 7.4755 0.9644 1.162 1.5551 1.307 2.0517 0.50361 0.49149-0.79524 2.0254-0.34997 5.1967 1.5085 3.6461 2.1368 4.3757 2.3144 3.847 0.93675-0.53985-1.4068-0.2474-1.6014 1.6951-1.1283 26.916 6.5555 65.21 7.3207 104.92 2.0966 14.679-1.9308 51.829-8.1848 52.479-8.8343 0.27943-0.27943-0.28723-1.0896-1.2592-1.8003-1.393-1.0186-11.687-1.3777-48.613-1.6957l-46.846-0.40347-9.7229-2.6522c-22.09-6.0255-37.994-15.437-55.005-32.551-16.206-16.304-28.906-36.162-41.751-65.282-7.0993-16.094-8.0405-18.787-6.3385-18.134 2.0829 0.79928 1.9577 0.27288-2.277-9.5762-2.0693-4.8128-6.2106-15.791-9.2029-24.396-7.1562-20.579-8.561-23.724-14.761-33.042-5.6697-8.5211-17.062-19.968-22.413-22.519-3.5356-1.686-4.3641-3.1736-1.7676-3.1736 2.0145 0-14.239-10.685-22.749-14.955-8.9606-4.496-18.399-7.7741-29.881-10.378-7.9474-1.8024-12.692-2.2091-26.231-2.2488-18.068-0.0529-26.33 1.1866-45.576 6.8367-1.2468 0.36604-1.5972 0.16955-1.1083-0.6215 0.41664-0.67414-0.57423-0.49013-2.3749 0.44103-1.6994 0.87879-3.552 1.4437-4.1169 1.2554-1.0338-0.3446-4.2825-11.343-5.5917-18.93-0.38752-2.2458-1.8711-5.8461-3.2969-8.0006-3.7398-5.6513-3.3814-7.1307 2.8886-11.923 3.0145-2.3041 8.027-6.2676 11.139-8.8077 3.1118-2.5401 6.1403-4.6184 6.7301-4.6184s0.78386-0.46665 0.43138-1.037c-0.3525-0.57034 0.1255-1.5974 1.0622-2.2823 1.1921-0.87168 1.3664-1.4534 0.58089-1.9389-0.71673-0.44296-0.81486-1.287-0.27157-2.3361 0.46785-0.90338 1.1546-3.7375 1.5262-6.2981 0.37157-2.5606 1.3026-6.1561 2.0689-7.9902s1.3933-3.6239 1.3933-3.9776c0-1.349-12.535 0.84061-21.191 3.7016-14.698 4.8583-16.768 7.037-21.046 22.158l-1.5128 5.3476-18.392-0.1828-4.0582-3.6664c-6.3525-5.739-12.943-8.1617-32.269-11.861-22.557-4.3178-25.985-4.7658-25.985-3.3958 0 0.59344 1.7939 1.9942 3.9864 3.1127 2.1925 1.1185 8.1591 5.9619 13.259 10.763 10.426 9.8152 14.213 12.086 23.346 13.997 3.4951 0.73127 6.8396 1.8196 7.4322 2.4185 0.67153 0.67869 1.0051 4.737 0.88537 10.773-0.15564 7.8493-0.55265 10.191-2.0954 12.357-1.2927 1.8154-1.7377 3.6022-1.387 5.5694 1.1499 6.4505 5.1359 20.258 6.4109 22.207 1.2217 1.8675 0.97261 3.0243-2.4363 11.317-3.5727 8.6909-3.7651 9.6677-3.2566 16.529 0.29724 4.0107 0.97464 7.438 1.5053 7.6163 0.5307 0.17826 0.97159 1.9284 0.97978 3.8892 0.0097 2.2898 0.30575 3.1064 0.82797 2.2828 0.58575-0.92377 1.7017 0.10249 3.9913 3.6704 1.748 2.724 5.0911 6.5879 7.4292 8.5864 3.9799 3.4019 4.3723 4.1909 6.1527 12.372 1.0459 4.8063 3.2814 18.146 4.9678 29.643 3.3792 23.039 3.5093 23.366 13.845 34.839 3.3245 3.6902 3.7175 4.6212 3.174 7.5186-0.48582 2.5897 0.02071 4.523 2.3353 8.9142 1.6257 3.084 2.9567 6.1074 2.9578 6.7187 3e-3 1.3159 2.7226 2.5278 3.9589 1.7637 0.47545-0.29385 1.7026-0.0857 2.727 0.46255 1.3394 0.71683 2.1074 0.66119 2.7342-0.1981 2.0968-2.8747 3.3913-9.1421 3.1269-15.139-0.34506-7.8278 0.68485-16.446 2.7488-23.003 2.1502-6.8301 7.4556-18.258 9.096-19.593 1.0495-0.85408 3.2976-0.70076 9.4764 0.64627 4.4553 0.97128 8.1877 1.9127 8.2943 2.092 1.3061 2.197 6.7376 21.568 6.8088 24.283 0.0698 2.6628 0.39776 3.3669 1.2419 2.6663 0.63087-0.52358 1.3562-0.60257 1.6118-0.17553 1.1915 1.9906 2.7281 12.388 2.1634 14.638-0.52968 2.1104-0.40623 2.333 0.75797 1.3668 1.164-0.96604 1.5689-0.24089 2.4841 4.4486 4.8685 24.948 7.3722 55.774 5.0912 62.686-0.63768 1.9322-1.8307 3.7706-2.6512 4.0855-4.0409 1.5506-26.26 3.4462-43.626 3.722l-19.446 0.3088-8.7506 4.0003c-6.8698 3.1405-10.382 4.1369-16.34 4.6358-4.1741 0.34952-8.6939 1.1388-10.044 1.7539-2.6781 1.2202-6.1879 7.1945-6.1879 10.533 0 1.7428 0.36925 1.9733 2.1877 1.3656 1.2032-0.40214 4.4614-0.65293 7.2404-0.55733 2.779 0.0956 7.5058-0.5393 10.504-1.4109 6.1432-1.7859 8.2643-1.4086 8.2643 1.4698 0 2.3739 0.24429 2.4015 4.0111 0.45361 2.2861-1.1822 3.8833-1.3208 7.1623-0.62141 2.3261 0.49611 4.8022 0.53108 5.517 0.078 1.9265-1.2213 2.7554-1.0285 2.7554 0.64068 0 1.1248 0.42268 1.2664 1.7151 0.57474 1.0308-0.55169 3.4553-0.58223 6.0768-0.0765 6.0766 1.1721 7.054 1.1208 9.3562-0.49178zm66.065-82.199c0.0587-24.456 1.7637-30.277 2.8006-9.5626 0.86615 17.304-0.13623 34.704-1.7828 30.948-0.65607-1.4967-1.0459-9.6879-1.0178-21.386zm-91.999-44.809c-0.61335-1.4808-1.9503-3.448-2.9709-4.3717-1.0962-0.99202-1.8557-2.9643-1.8557-4.8186 0-1.7266-0.89255-9.8288-1.9834-18.005s-1.8566-15.519-1.7015-16.317c0.1756-0.90394 1.367 0.11494 3.1588 2.7013 3.733 5.3885 13.375 14.096 19.261 17.393 4.2848 2.4007 4.5901 2.8189 4.025 5.5145-0.90178 4.3019-5.9208 17.024-8.1481 20.654l-1.9347 3.153-3.3675-1.6058c-1.8555-0.88483-3.8682-2.8146-4.4826-4.2981z" fill="param(fill)" fill-opacity="param(fill-opacity)" stroke="param(outline)" stroke-opacity="param(outline-opacity)" stroke-width="param(outline-width) 0.2"/>
</svg>
