<svg version="1.1" width="512" height="512" viewBox="0 0 512 512" xmlns="http://www.w3.org/2000/svg">
 <path d="m153.01 501.65c-2.3751-10.806-3.0663 13.122-5.5062-2.6492-3.5778-16.85-14.405 18.588-14.904-1.8816-5.9318-8.5956-7.6186 9.7763-9.9964-5.1797-1.3924-16.35 25.125-34.811 1.1503-46.987-17.884-9.8407-25.54-29.469-26.776-48.904-3.596-17.442 0.22534-33.182 3.9359-48.371 4.2616-14.796-4.5162-22.134 3.7865-32.298-6.4116-1.7753 0.88241-14.751 1.8622-26.378 4.5604-8.0721 6.0854-23.484 6.2292-27.356 4.4258-7.0297 10.406-19.755 17.178-28.844 5.6928-10.323 12.841-19.966 22.809-26.747 5.926-5.9766 9.7898-9.4804 16.225-14.052 13.093-6.5425 23.123-17.759 22.019-34 9.0409-12.496 5.1348-17.593-6.0195-18.72-0.60593-4.9769-7.3931-11.856-12.114-17.843-0.35546-13.187-14.76-12.23-21.016-22.155 4.5064-2.9922-7.3394-8.264 1.9654-5.0215-9.9634-8.2188 13.846 0.42537 4.9146-5.6007 4.5392-1.5934-3.3823-8.8456 5.2884-5.119-13.939-3.3974-8.1666-7.5455-13.686-9.3641 7.3745-1.8274 14.509-1.454 5.8916-5.9454 10.693-0.03759-6.2186-9.7932 7.1029-11.402-10.354-4.5389-9.5478-5.8544 1.8335-4.34 3.6676-3.6048 4.1293-12.239 16.898-4.5352-5.2269-6.9002 6.273-4.7851 4.8498-6.4947-7.3924-12.44 10.293 4.1073 5.6032-8.7679 5.4843 6.9033 3.3545 1.0074 7.3299 4.6268 3.919-4.6956 9.6942 1.1691 16.406 2.5627-4.6538-7.3528 9.6394 12.234 13.756 10.801 13.712 0.84195 12.368 20.542 22.276 29.057 11.088 4.3768 26.76 4.6635 35.835 7.9367 15.565 1.0836 34.962 20.959 46.706 3.8533 12.567-7.6688 24.358-5.0667 37.966-10.516 11.988-4.3834 24.681 6.3893 29.327 12.714-1.0924 4.4015 10.855 7.9309 5.4125 14.221 3.0261 4.9707 5.3176 9.4727 0.69672 13.444-10.348-2.7722 6.3492 7.6793-3.6481 6.3578 8.3493 10.598-6.5056-2.2109 0.47549 6.8869 1.7476-1.5596 5.2963 12.309-2.4696 3.3638 12.296 12.39-10.438-3.2225-5.9539 4.5281-4.7111 2.9919 2.7784 5.9067-2.3586 6.4719 11.243 14.553-13.747-3.488 0.2128 7.4449 9.4221 9.7372-16.205-12.574-7.024 2.1777-2.1854 1.2593 6.8854-0.51965 0.99982 3.8624-1.903 5.1112 7.5551 10.656-2.6804 3.2231-8.2566-5.3061 4.9702 10.775-5.2287-0.22541 12.572 15.783-7.9503-0.92156-9.0815 5.4799 3.1121 4.0718-7.7096-2.7617-5.4951 6.6478-15.058-2.2462-12.797 4.6867-23.877 3.3896-3.9426 21.065-13.038 41.155-25.709 59.01-9.2208 13.99-9.0264 24.564-5.9728 40.857 5.1716 14.972 1.5665 34.5 3.1305 48.016 6.0012 1.0039 26.983 6.8014 21.992 11.87 8.6643 1.9706 15.009 9.2171 14.946 13.83 9.342 7.0997 3.152 21.234 6.899 29.718-6.8417 3.709-3.2527 18.12-12.311 24.805-6.607 9.8112-29.182 29.372-4.7392 34.912 11.768 3.0289 33.917 12.238 30.615 25.19-6.7251-8.4062-5.1724 7.8917-8.4487 5.5736-11.365-0.44973-30.064-7.5114-42.773-7.1962-2.184 21.987-20.732-1.0498-27.816-5.9294-12.735-6.4531-8.0866-25.619-9.5917-32.576-5.6732 9.2624-34.635 17.991-22.368 29.151 6.4029 9.0177-9.887 31.767-9.592 18.815-2.8607 8.6057-7.4128 7.0682-4.7362-0.5454-8.2842 15.199-5.4949-7.0376-19.263-5.4477-8.2713 5.7286-14.656 28.168-13.172 5.4477 1.2061-23.491-17.092 26.965-15.012 0.3375 3.423-18.675-21-6.9681-7.5138 4.9296 2.5983 25.607-19.586-6.6956-25.767 9.4312-2.4158 1.472-12.574 20.469-11.904 10.451zm234.21-340.11c-2.2898-3.0871-5.5736 3.0843 0 0zm21.008-45.139c-4.933-1.7077-0.7145 2.0576 0 0z" fill="param(fill)" fill-opacity="param(fill-opacity)" stroke="param(outline)" stroke-opacity="param(outline-opacity)" stroke-width="param(outline-width) 0.2"/>
</svg>
