<svg version="1.1" width="512" height="512"  viewBox="0 0 512 512" xmlns="http://www.w3.org/2000/svg">
 <path d="m266.06 491.84c20.309-10.877 12.26-40.932 11.236-60.422 1.8285-9.5262-8.1221-41.872 2.618-37.455-2.1558-8.6036 5.983 3.6265 2.0905-11.918 1.4891-4.2321 14.635-12.404 6.5228-25.343 8.0335 4.0066-4.9182-17.628 10.11-11.455 12.664-2.5473 24.468-6.187 35.124-8.594 14.435 0.56692 29.144-10.398 41.783-11.862 13.463-10.942 16.3 18.69 30.66 20.651 20.251 12.742 8.275 41.096 10.517 61.033 0.55996 18.822-27.853 37.167-17.389 49.618 10.445 6.893 25.27-11.169 25.953-23.988 5.6078-17.222 10.614-47.831 14.645-55.618 0.23019 28.25-8.4181 55.959-23.107 79.812-17.774 18.422 16.274 25.023 21.2 3.5126 7.3774-19.262 14.983-39.717 19.638-60.438 9.3356-23.269 7.4411-48.618 8.8359-72.18 1.0747-19.856-12.499-42.785 0.0103-59.761 7.4934-18.062 7.5595-38.885 5.4003-58.197-5.6525-20.492-23.849-34.99-43.071-41.237-15.095-5.0106-29.214-8.5579-47.719-8.1048-18.434-2.7192-38.905 9.9784-55.564 4.4038-18.534 4.6937-39.287 7.2648-58.732 10.779-20.216 1.8064-38.04 11.386-57.922 10.729-18.183-3.0171-15.108-30.02-21.927-40.601 1.3849-8.6719-5.8082-27.917-5.9648-38.984-13.266-15.425-11.755-36.369-31.411-46.075-22.279-5.1243-29.385-26.161-45.175-40.238-16.259-12.506 15.114 43.058-2.8756 14.878-3.7862-12.544-21.585-23.707-10.228-2.3794 16.962 21.947-9.4968 28.611-23.95 38.65-25.294 2.0296-22.381 50.076 3.5449 31.108 12.464-5.7054 26.96 2.0389 39.971 2.1847 4.0842 19.572-6.776 36.847-0.48537 56.037 3.1496 16.513-0.13953 34.249 3.1013 48.527 5.0014 6.9978-6.4195 15.449 1.026 18.043 5.4435 4.4219 3.7118 13.392 4.8666 24.506 4.7342 0.22766-4.0044 11.364 5.3526 3.5485 0.23546 11.412-0.11317 20.718 7.157 19.723-3.2875 9.4604 9.8661 8.6016 9.2315 18.047 3.453 6.2361 9.8907 4.725 13.054 9.3586 6.493-1.792 14.183 15.806 17.367 8.7953 5.3598 12.857 2.309-6.603 10.44 6.7107 10.695 6.3429 8.0201-1.6705 15.525 9.7298 8.1816 9.9459 7.397 26.805 16.957 39.454 10.104 14.598 13.835 34.283 14.692 52.41 8.4649 19.654-17.075 38.928-16.158 49.432 2.1625 15.048 30.689 0.54359 27.496-16.662 7.9563-25.95-4.3397-53.359 3.4058-79.183 16.746 6.7738 13.591 42.026 17.41 60.516 6.8533 18.211-7.8329 43.548-6.8763 54.603 9.0929-2.7862-6.0344 12.601 11.613 3.8933z" fill="param(fill)" fill-opacity="param(fill-opacity)" stroke="param(outline)" stroke-opacity="param(outline-opacity)" stroke-width="param(outline-width) 0.2"/>
</svg>
