<svg version="1.1" width="512" height="512" viewBox="0 0 512 512" xmlns="http://www.w3.org/2000/svg">
 <path d="m235.85 389.53c-2.9328-0.35747-6.3694-1.2269-7.637-1.932-2.075-1.1543-2.2492-1.7497-1.7485-5.9774 0.30586-2.5825 1.273-6.0818 2.1493-7.7764 1.3952-2.698 1.4427-3.8794 0.38249-9.5049-1.3143-6.9735-6.553-17.99-11.687-24.578-1.777-2.2799-7.1672-8.7263-11.978-14.325-14.584-16.973-19.826-24.844-22.795-34.236-1.4279-4.5153-4.3856-5.8934-11.159-5.1991-7.3298 0.75142-15.891 4.4605-20.464 8.8657-3.5651 3.4346-4.5229 5.3734-7.9172 16.026-2.1238 6.6654-4.8568 16.7-6.0735 22.299-1.7027 7.8355-2.8235 10.85-4.8668 13.088-1.4601 1.5997-4.2818 6.1807-6.2705 10.18-4.1203 8.2857-10.464 16.652-18.102 23.874-8.1704 7.7257-9.1551 8.0325-21.139 6.5871-5.599-0.6753-12.435-1.2612-15.191-1.3019-7.3951-0.10933-8.0778-0.57766-8.0778-5.5413 0-5.5693 1.9779-10.182 5.2992-12.358 1.4604-0.95687 6.7758-2.5687 11.812-3.5818 5.0363-1.0131 9.9764-2.2806 10.978-2.8166 3.5231-1.8855 11.121-21.062 15.947-40.249 3.9196-15.583 4.0852-19.302 1.1874-26.662-1.3646-3.466-3.646-10.447-5.0698-15.512s-3.4852-10.956-4.5809-13.088c-1.0957-2.1329-4.4434-10.11-7.4391-17.728-5.2063-13.238-5.6802-14.041-10.731-18.193-5.1666-4.2471-13.591-8.1922-17.493-8.1922-1.0757 0-4.8492 1.7451-8.3857 3.8781-3.5365 2.1329-7.0245 3.8781-7.7512 3.8781-2.6258 0-6.6388-2.8751-10.725-7.6839l-4.1677-4.9046-5.0427 2.653c-7.344 3.8637-7.5818 3.806-1.6567-0.40224 8.9488-6.3558 6.8456-9.0788-4.3986-5.6948-6.8856 2.0722-6.3263 1.1701 1.2181-1.965 7.9758-3.3143 7.8334-3.2114 6.0682-4.3879-1.3215-0.88087-6.0934-0.60872-10.309 0.58797-0.97978 0.2781 0.27746-0.52481 2.7939-1.7842l4.5753-2.2899-2.8665-2.7463c-3.1218-2.9909-3.463-4.2553-4.8075-17.816-0.80069-8.0762-1.3012-9.7077-4.4186-14.403-4.12-6.2052-6.1455-14.781-4.6787-19.81 0.85736-2.9392 1.2246-3.1874 4.2639-2.8815 4.6319 0.46625 8.2547 2.5371 13.024 7.4448l4.0926 4.2109 4.686-3.3316c2.5773-1.8324 6.2436-3.7643 8.1474-4.2932 7.7906-2.1642 17.096-0.56822 23.572 4.0426 2.8623 2.0382 3.0685 2.0586 4.0564 0.40133 5.1857-8.6993 13.349-14.862 16.369-12.356 0.72288 0.59993 2.1146 4.5945 3.0926 8.8768 1.4078 6.1639 2.0981 7.6954 3.3132 7.3508 0.84418-0.2394 6.5521-0.71735 12.684-1.0621 9.1765-0.51591 13.122-0.26047 22.299 1.4436 14.209 2.6385 36.825 3.5474 50.9 2.0454 16.582-1.7696 36.924-6.1568 72.229-15.578 68.22-18.205 86.014-21.855 106.16-21.775 15.937 0.0633 19.118 1.0095 31.14 9.2629 9.7318 6.6812 24.353 21.234 27.757 27.627 5.4477 10.23 5.6768 12.756 5.371 59.208-0.252 38.284-0.10481 43.248 1.4868 50.152 2.3675 10.269 5.5728 18.876 9.3289 25.051 5.2787 8.6779 18.745 25.099 23.179 28.263 4.0699 2.9054 4.5666 3.01 14.058 2.9625 8.1188-0.0407 11.748-0.60036 20.757-3.2012 6.0051-1.7335 11.316-2.9061 11.802-2.6058 1.6624 1.0274 2.1484 6.2998 1.0627 11.53-1.2409 5.9774-5.9499 12.236-10.68 14.196-4.7196 1.9549-25.953 0.76039-34.432-1.9371-14.451-4.5972-27.898-13.799-33.565-22.969l-2.1238-3.4363-1.7392 2.2974c-3.5901 4.7424-10.432 18.995-11.882 24.751-2.6731 10.612-6.7248 19.863-9.656 22.047-2.4968 1.8601-4.0123 2.037-17.451 2.037h-14.717l-0.32253-3.3933c-0.43917-4.6205 1.2662-9.847 4.0735-12.484 1.2811-1.2036 5.3241-3.3828 8.9843-4.8429 6.001-2.3937 6.8788-3.1004 8.9316-7.1906 1.2521-2.4948 2.74-7.8381 3.3063-11.874 0.87856-6.261 0.79574-7.8286-0.56427-10.681-0.87668-1.8384-2.2379-3.3426-3.0248-3.3426-1.5896 0-5.7221 4.2316-13.054 13.367-9.5609 11.913-15.375 24.111-16.274 34.14-0.70243 7.8412-1.3097 9.0342-5.6462 11.092-2.8342 1.3449-5.1234 1.5396-12.395 1.0544-14.116-0.94198-20.925-2.3674-22.138-4.6344-1.1122-2.0781-0.46876-8.4585 1.1598-11.501 1.359-2.5394 5.5684-4.5091 14.262-6.6739 5.6542-1.4079 8.05-2.5288 9.7664-4.5691 3.4841-4.1418 7.3777-13.23 10.751-25.094l3.058-10.756-2.0135-5.3816c-2.8394-7.5891-6.5385-12.321-19.037-24.351-6.014-5.7887-12.577-12.909-14.584-15.823-4.366-6.3392-1.4318-6.4878-32.318 1.6369-25.576 6.7278-36.214 8.7145-46.664 8.7145-4.196 0-7.6291 0.40776-7.6291 0.90613 0 5.8898 6.529 27.071 20.466 66.396 9.6796 27.312 10.145 30.162 5.8794 36.048-3.4734 4.7932-9.2378 9.2144-12.598 9.6625-1.4289 0.19054-3.9069 0.53305-5.5066 0.76112-1.5997 0.22807-5.3081 0.12219-8.2409-0.23529zm167.42-120.51c-0.30949-0.77341-0.53923-0.54369-0.58574 0.58575-0.0421 1.022 0.18704 1.5947 0.50921 1.2725 0.32216-0.32217 0.35659-1.1584 0.0765-1.8582zm-1.1388-13.634c-0.29577-5.4657-0.9749-18.176-1.5092-28.246-0.5343-10.069-1.3835-19.013-1.8872-19.875-1.2114-2.0731-1.2147 7.6848-9e-3 26.299 0.95028 14.669 2.863 31.759 3.5544 31.759 0.21368 0 0.14653-4.4719-0.14923-9.9376z" fill="param(fill)" fill-opacity="param(fill-opacity)" stroke="param(outline)" stroke-opacity="param(outline-opacity)" stroke-width="param(outline-width) 0.2"/>
</svg>
