<svg version="1.1" width="512" height="512" viewBox="0 0 512 512" xmlns="http://www.w3.org/2000/svg">
 <path d="m28.797 360.53c-25.739-2.5674-10.319-29.107 8.3163-28.788 18.65-10.63 33.305-26.715 49.665-40.386 16.239-10.1 16.254-27.525 17.928-44.478-15.788-10.726-35.294 26.965-48.337 3.225-21.592-6.3588-10.939-28.486-10.498-44.884 3.4071-15.015 1.7826-32.817 21.182-35.419 6.8298-4.0689 14.346-4.6777 22.111-4.0339 19.207 1.2422 38.197-2.2277 56.385-8.2729 16.752-1.9165 33.777 3.8753 47.896 12.529 24.943 7.4999 51.418 9.1881 77.228 6.4446 26.386-0.19733 54.198-0.78854 77.661 13.323 16.401 3.9293 31.56-14.495 49.414-9.2208 25.168 2.4085 37.137 27.562 43.591 48.898 3.5671 16.563 15.776 34.607 35.036 31.583 20.665 3.7862 4.2876 19.829-8.8658 18.156-14.892-1.6577-30.419-10.982-36.011-25.726-7.8958-17.726-7.3746-42.439-26.491-52.688-12.913-7.3398-46.806 4.1612-30.829 21.211 4.5316 16.148 12.332 33.194 31.775 33.759 15.05 12.448 8.8599 37.861 15.701 55.447 9.0628 20.374-27.725 22.484-29.429 8.176 4.8277-10.615 11.241-21.579 2.5169-33.578-17.04 3.3859-34.008 14.923-51.669 7.9664-13.704 12.204-26.697 26.12-43.436 34.017-12.563 8.0203-35.373-4.5932-18.422-16.793 13.331-2.3724 23.842-10.787 32.517-20.693-15.535-2.4111-31.374-9.1277-46.811-2.0275-19.352-0.42662 6.2752 29.248-5.2594 42.975 1.4704 22.737-20.535 27.352-37.808 19.328-11.415-17.134 27.974-23.466 8.6453-41.668-5.9859-5.7304-4.1123-22.231-15.686-18.39-19.331 1.0369-38.987 4.2299-58.145-0.31745-16.423 7.454-31.579 18.885-48.797 25.732-18.794 9.1203-34.058 24.174-53.359 32.154-8.4475 5.5169-16.94 12.979-27.718 12.439z" fill="param(fill)" fill-opacity="param(fill-opacity)" stroke="param(outline)" stroke-opacity="param(outline-opacity)" stroke-width="param(outline-width) 0.2"/>
</svg>
