<svg version="1.1" width="512" height="512" viewBox="0 0 512 512" xmlns="http://www.w3.org/2000/svg">
 <path d="m112.59 409.96c-5.2876-0.62858-6.7159-1.7317-7.6298-5.8927-1.1174-5.0874 1.6257-8.1313 9.2575-10.273 3.6022-1.0107 6.8649-2.348 7.2504-2.9718 2.6107-4.2242 5.9677-20.97 7.5784-37.803l1.8352-19.18-5.6129-17.685c-3.0871-9.7268-6.3403-21.529-7.2295-26.227-1.4277-7.5434-2.3788-9.5908-8.1378-17.517-9.8651-13.578-19.227-32.05-19.809-39.087-0.2887-3.4882-1.364-3.31-2.9366 0.48679-0.70798 1.7092-3.6022 5.6126-6.4316 8.6742-4.9503 5.3566-5.3619 5.5665-10.911 5.5665-4.9896 0-6.2956-0.47767-9.693-3.5452-2.1595-1.9499-4.9495-4.2675-6.1999-5.1503-1.2504-0.88278-2.9068-3.5568-3.6808-5.9422-0.79442-2.4482-3.1248-5.8204-5.351-7.743-2.169-1.8733-5.3687-6.0206-7.1104-9.2164-2.7196-4.9898-3.2079-7.1688-3.4579-15.429-0.35759-11.815-0.60522-12.615-4.7428-15.32-2.1066-1.3772-4.9198-5.3269-7.7089-10.823-3.7342-7.3588-4.3102-9.3784-3.8471-13.488 0.98963-8.78 6.8805-9.925 19.963-3.8803 4.5175 2.0872 9.1158 3.795 10.218 3.795s7.0109-1.4662 13.13-3.2582c6.1188-1.792 15.76-3.7876 21.426-4.4347 6.4301-0.73443 12.449-2.1584 16.017-3.7896 6.8636-3.1375 10.996-3.3059 14.467-0.58963 1.9585 1.5325 7.2451 2.5902 21.79 4.3594 27.389 3.3314 32.879 5.2648 43.684 15.383 4.0077 3.7529 5.1194 4.171 14.638 5.5047 12.117 1.6978 45.013 1.6667 62.346-0.059 26.858-2.6739 57.968-0.89522 73.018 4.1747 14.55 4.9016 19.336 8.7213 44.084 35.184 33.627 35.957 38.213 40.098 52.132 47.073 15.358 7.696 33.002 8.8583 45.284 2.9829 12.244-5.8574 22.982-20.232 24.233-32.44 1.379-13.462-6.5833-24.551-17.629-24.551-3.1564 0-4.6886 0.78053-7.4497 3.795-3.7816 4.1286-5.4568 4.6912-6.4285 2.1591-0.97765-2.5477 0.95502-6.4039 4.8537-9.6844 3.2581-2.7415 4.1746-2.9612 10.794-2.5871 10.207 0.57675 16.606 4.6263 21.054 13.325 2.9262 5.7218 3.2694 7.4252 3.2694 16.228 0 9.2968-0.23671 10.31-4.3245 18.509-11.784 23.637-35.933 34.971-62.508 29.339-17.749-3.7621-34.193-13.465-52.04-30.708-11.614-11.22-11.697-11.276-12.381-8.2166-1.3876 6.21-1.8869 7.6184-6.4728 18.26-7.1545 16.602-9.5567 27.216-8.8334 39.034 1.1575 18.911 3.7901 29.643 10.048 40.96 1.4976 2.7084 1.4957 4.0145-0.019 13.011-0.92603 5.5004-2.1912 18.051-2.8115 27.891-1.232 19.542-2.221 23.557-6.0402 24.515-6.0786 1.5256-26.62 0.38804-29.022-1.6073-2.164-1.7976-2.3708-8.0662-0.3222-9.7664 0.8081-0.67068 3.3697-1.8617 5.6924-2.6468 5.0895-1.7202 7.3559-5.6749 9.703-16.932 2.5435-12.199 2.3456-21.394-0.58467-27.179-4.0177-7.9321-26.243-40.116-27.266-39.484-1.7249 1.066-1.0889 27.434 0.82639 34.26 2.011 7.1671 2.6788 5.2126-9.3775 27.446-3.231 5.9585-7.6066 15.961-9.7235 22.228l-3.8489 11.394-13.773 0.30322c-12.62 0.27785-13.957 0.11906-15.974-1.8975-4.4155-4.4155-1.5032-10.441 5.5952-11.576 2.5234-0.4035 5.9188-2.0193 7.9015-3.7601 6.2252-5.4658 14.662-24.445 14.662-32.983 0-2.4149-4.3102-14.711-11.32-32.291-6.2258-15.615-12.169-31.563-13.207-35.439-1.0383-3.8763-2.0094-7.2169-2.158-7.4236-0.14854-0.20672-3.5618 0.94104-7.585 2.5506-4.0232 1.6095-11.986 4.1544-17.695 5.6553-9.5367 2.507-12.408 2.7404-35.319 2.8708l-24.938 0.14194-5.1407 10.301c-2.8274 5.6653-8.1945 17.619-11.927 26.565-6.5619 15.726-6.7844 16.569-6.7255 25.48 0.0479 7.261 0.55933 10.173 2.4104 13.724 1.2922 2.4792 2.31 6.1386 2.2617 8.1321-0.0484 1.9934 0.37829 5.5976 0.94806 8.0092 0.74561 3.1559 0.63112 5.7388-0.40857 9.2164-0.79447 2.6574-1.4519 6.9274-1.461 9.489-0.0237 6.7292-3.5222 9.9803-10.739 9.9803-2.97 0-6.7534 0.51453-8.4075 1.1434-3.3705 1.2815-21.382 2.1669-28.022 1.3775z" fill="param(fill)" fill-opacity="param(fill-opacity)" stroke="param(outline)" stroke-opacity="param(outline-opacity)" stroke-width="param(outline-width) 0.2"/>
</svg>
