<svg version="1.1" width="512" height="512" viewBox="0 0 512 512" xmlns="http://www.w3.org/2000/svg">
 <path d="m300.87 389.74c19.59-9.7802 29.39-29.733 41.425-46.826-3.5072-7.7554-7.1701-18.199 5.8528-10.511 6.4384 2.9744 17.891 2.4658 14.841 12.472 0.1254 14.15-6.8564 20.377-19.211 24.115-21.223 16.506 17.162 17.147 26.964 8.6298 22.095-0.89219 17.112-28.977 24.792-44.113-0.60985-26.309 29.619-14.385 45.949-22.306 15.659-7.612 36.854-7.6067 45.792-24.655 8.6301-4.6871 19.676-37.104 3.1226-23.183-11.703 15.803-28.377 25.197-47.898 27.591-15.172 5.0978-30.972 0.16858-40.82-12.078-6.0592-8.376-7.7348-19.75-12.452-29.043-6.6302-18.528-14.228-36.869-27.302-51.84-8.161-5.6647-20.038-6.3219-29.624-9.2168-39.68-6.2612-79.983-8.6268-120.04-10.503-12.236 0.88049-44.635 6.78-41.86-10.51 11.714-10.075 25.228-35.106 8.3423-47.032-11.19-7.7777-25.174 3.4578-35.979 4.1578-9.6933-5.9755-20.752-10.64-31.491-15.208-12.983 3.5011-24.893 10.599-37.21 14.678-15.034-9.2229-48.121-8.9055-40.606 16.328 2.4776 19.772 20.668 28.491 26.615 46.993 2.6644 13.712 16.021 21.217 23.705 26.6 1.0282 17.973 3.1988 35.242 13.429 50.561 17.489 28.948 23.538 62.655 34.132 94.37 3.0959 8.7951-27.649 6.0595-19.333 18.393 10.438 19.103 33.406 7.0405 50.089 14.406 8.7451-2.0321 9.3906-10.422 11.084-17.675 5.1658-19.524 9.0592-39.453 15.487-58.593 16.796-1.6327 34.69 8.1349 52.205 5.2634 15.824 2.4275 41.219-17.136 47.129 5.9449 10.92 13.572 9.749 26.863-4.3369 37.08-4.0527 10.143-13.24 5.0794-20.756 9.27-12.641 1.7217-10.985 20.258 1.6751 16.297 12.045-1.1967 25.469 4.9137 36.288 0.14225z" fill="param(fill)" fill-opacity="param(fill-opacity)" stroke="param(outline)" stroke-opacity="param(outline-opacity)" stroke-width="param(outline-width) 0.2"/>
</svg>
