<svg version="1.1" width="512" height="512" viewBox="0 0 512 512" xmlns="http://www.w3.org/2000/svg">
 <path d="m393.81 396.87c-19.547-18.179 15.373-13.21 17.76-25.652 6.1513-13.409-4.9925-42.589-15.469-40.346 2.2654 21.335-16.248 35.809-27.671 51.372-8.6347 9.4257-41.287 8.5844-40.162-3.1639 19.937-4.0186 39.928-19.96 32.811-43.162-8.7656-24.968-16.906-50.201-24.253-75.588-12.624-12.989-32.118-3.5912-44.998 4.4018-20.03 11.204-43.281 15.68-65.926 11.238-14.776-4.1506-30.819-4.5233-30.77 14.944-8.3493 11.639-26.915 15.148-23.335 34.433-1.9493 18.547 3.2515 40.484-8.1176 56.299-11.803 9.2755-56.709 5.613-36.451-13.563 24.129-4.2617 7.3513-34.881 6.8283-51.256-6.2602-15.598-1.6802-40.138-16.853-49.053-16.954-1.045-13.043-24.124-24.972-34.035-1.7408-10.69-13.283-13.292-15.724-9.0807-11.601-3.3087-14.208-32.047-23.581-10.563-12.682 14.385-17.318-8.5784-26.996-12.525-20.034-14.1 1.6196-27.675 7.9858-42.983 2.5014-16.804 20.283-25.686 26.718-41.005 17-9.3281 39.883-13.825 55.47-11.594 8.7684 5.3096 20.053 5.153 32.966 8.2725-8.8561 8.453 9.0148 4.7549 11.736 11.669 9.9238 7.11 18.871 14.718 23.493 23.243-10.317 8.2751 5.8435-0.36006 3.8475 10.801 20.097 8.7327 43.132 3.3455 64.426 4.2227 20.457-0.13424 40.913-0.10384 61.276-1.2222 21.986 5.6897 43.248-3.6017 65.123-4.4148 21.977-2.2253 43.603 16.559 46.221 38.209 17.9 48.75 26.395 100.35 42.474 149.67 1.4285 8.538 25.696 17.049 10.414 14.544 9.4817 6.2421 22.63 23.095 7.1732 22.803 10.243 6.5628-20.666 7.8658-22.581-6.1543-8.6568-19.189-10.652-40.685-17.367-60.618-9.113-32.209-14.431-65.936-24.429-97.538-2.5488 17.658 1.1978 36.72 3.2485 54.715 2.4351 19.243 9.262 37.451 17.729 54.761-2.4284 19.192-8.822 38.335-15.259 56.755-3.2742 15.283-21.388 11.563-32.784 11.169z" fill="param(fill)" fill-opacity="param(fill-opacity)" stroke="param(outline)" stroke-opacity="param(outline-opacity)" stroke-width="param(outline-width) 0.2"/>
</svg>
