<svg version="1.1" width="512" height="512" viewBox="0 0 512 512" xmlns="http://www.w3.org/2000/svg">
 <path d="m493.45 454.91c-0.36953-0.59791-1.4797-0.87587-2.467-0.61769-0.98729 0.25818-3.749-0.6528-6.1371-2.0244-2.3881-1.3716-11.992-5.5963-21.342-9.3882-19.202-7.7875-22.078-9.9304-21.135-15.746 0.3136-1.9325 2.0309-5.7913 3.8161-8.5751 6.4374-10.038 10.819-19.643 10.819-23.719 0-5.6614-3.0578-18.507-3.989-16.758-0.41444 0.77841-1.3068 3.8903-1.983 6.9153-2.1734 9.7231-4.3792 13.149-11.465 17.808-3.562 2.3419-8.0345 4.909-9.9389 5.7047-3.9358 1.6445-17.62 4.8543-31.624 7.4175-8.8952 1.6282-9.4833 1.8852-9.2382 4.0377 0.40493 3.5553-1.5281 5.0294-6.6343 5.0593-2.8509 0.0167-7.304 1.1685-11.599 3-3.8341 1.6351-7.3738 2.973-7.866 2.973s-2.9802 1.4864-5.5288 3.303c-2.5487 1.8166-5.8926 3.8416-7.431 4.5-5.6543 2.4198-12.703 0.90872-12.703-2.7232 0-1.0174-1.125-2.5869-2.5-3.4879-2.8907-1.894-3.1565-4.6253-1.1886-12.212l1.3114-5.0556-7.5614 0.37128c-4.1588 0.2042-11.693 0.80675-16.743 1.339-6.0654 0.6393-10.075 0.62791-11.815-0.0336-1.4485-0.55071-3.7887-1.0013-5.2005-1.0013-3.3623 0-8.5781-3.2771-10.282-6.46-1.3409-2.5056-1.4394-2.5229-10.937-1.925-6.2846 0.39563-13.594 0.0722-21.232-0.93941-10.006-1.3254-12.472-1.3512-17.495-0.18361-3.7455 0.87068-6.3419 2.1047-7.2242 3.4336-1.6169 2.4352-4.3748 2.6934-6.1334 0.57442-2.1309-2.5676-5.5595-1.7663-8.405 1.9643-2.4571 3.2214-7.0706 6.1167-10.595 6.649-4.3618 0.65881-20.856-3.4146-22.195-5.4813-0.38241-0.59017 0.2037-2.5276 1.3025-4.3055l1.9978-3.2324-3.9291-2.0045c-3.5839-1.8284-5.1758-3.7256-5.1758-6.1686 0-2.1709 7.9119-9.4226 12.5-11.457 2.75-1.2194 9.275-3.2142 14.5-4.433 14.646-3.4162 18.212-4.7533 27.138-10.174 4.5553-2.7668 10.1-5.9467 12.322-7.0666 2.222-1.1198 4.1616-2.1399 4.3102-2.2667 0.14864-0.12686-1.3436-3.6289-3.316-7.7822l-3.5862-7.5516-6.934-0.69636c-4.0349-0.4052-6.9803-1.1766-7.0447-1.8449-0.4734-4.9119 2.5797-13.011 6.0875-16.149 4.9301-4.4098 8.4045-16.051 6.0844-20.386-0.86544-1.6171-0.84376-2.1144 0.0922-2.1144 0.67306 0 0.27645-0.88254-0.88135-1.9612-1.3418-1.25-1.9118-2.7005-1.5719-4 0.29324-1.1214 0.0587-2.0388-0.52132-2.0388-0.57997 0-1.0704-0.7875-1.0898-1.75-0.0194-0.9625-0.19098-4.3613-0.3812-7.5528-0.19021-3.1916-0.011-6.0097 0.39819-6.2626 0.40921-0.25291 0.64184-3.0416 0.51695-6.1972-0.16833-4.2532-0.92496-6.8316-2.925-9.9675-1.4839-2.3266-2.6979-4.7354-2.6979-5.353s-3.0375 1.5386-6.75 4.7916c-3.7125 3.2529-9.5428 8.0355-12.956 10.628-3.4135 2.5924-6.548 5.2647-6.9656 5.9385-0.41756 0.67383-1.0468 9.3252-1.3984 19.225-0.54921 15.465-1.0004 19.126-3.2046 26-1.411 4.4-3.9617 12.48-5.6684 17.955-1.7066 5.4754-3.6365 10.285-4.2886 10.688-1.7004 1.0509-19.75 0.0544-23.018-1.2708-2.391-0.96956-2.75-1.6676-2.75-5.346 0-5.4574 2.7798-9.555 10.5-15.477 4.5193-3.467 6.8244-6.2003 9.3406-11.076 3.319-6.4314 3.3364-6.5374 2.6885-16.451-0.35864-5.488-0.83322-10.159-1.0546-10.381s-2.7812 0.5374-5.6885 1.6862c-2.9073 1.1488-6.9267 2.374-8.932 2.7225-3.6157 0.62844-3.6773 0.7223-7.4028 11.292-2.0662 5.862-6.8435 17.144-10.616 25.071-7.2452 15.223-10.783 24.24-13.256 33.781-1.6089 6.2089-12.776 29.165-14.841 30.508-1.6926 1.1005-25.919 0.0177-27.15-1.2135-0.54341-0.54341-2.0118-0.98802-3.263-0.98802-2.0273 0-2.2074-0.35388-1.6545-3.25 0.97375-5.1003 5.2733-12.938 9.0662-16.527 2.855-2.7016 3.2473-3.5372 2.2338-4.7585-1.7226-2.0756-0.577-7.9495 2.4395-12.508 1.3696-2.0696 5.2102-5.856 8.5347-8.4141 3.7065-2.8521 6.3148-5.6938 6.7433-7.3468 1.3659-5.2693 0.68705-12.652-1.6732-18.196-2.2267-5.2301-5.0656-9.6499-3.6933-5.75 1.1294 3.2095-0.23814 1.8103-4.8869-5-2.5342-3.7125-4.3022-5.625-3.929-4.25 0.40753 1.5015-0.72023 0.37247-2.8237-2.8268-4.3471-6.6119-5.1004-7.3437-4.2962-4.1732 0.48681 1.9192 0.2377 1.7376-1.0722-0.78162-1.0687-2.0554-2.2301-3.0806-3.1081-2.7437-0.77097 0.29585-2.7457-0.59293-4.3883-1.9751s-3.3984-2.2584-3.9018-1.9473-0.91533-0.184-0.91533-1.1003c0-1.097-0.53166-1.462-1.5567-1.0686-0.95435 0.36621-2.5487-0.46299-4.1204-2.143-1.4101-1.5072-3.0069-2.6121-3.5486-2.4553-1.4024 0.40597-3.8379-1.8222-4.8226-4.4121-0.6158-1.6197-1.5285-2.1336-3.4204-1.9259-2.172 0.23842-2.4805-0.0319-1.9488-1.7072 0.42213-1.33 0.2605-1.761-0.48714-1.2989-0.69754 0.4311-1.3509-0.46863-1.735-2.3892-0.33888-1.6944-1.1211-2.9714-1.7383-2.8378-1.6595 0.35932-5.5215-3.3127-4.9768-4.732 0.25831-0.67315-0.23121-1.4928-1.0878-1.8216-0.85661-0.32871-1.5575-1.2868-1.5575-2.129 0-0.84226-0.7875-1.5383-1.75-1.5467-1.4686-0.0129-1.5133-0.16503-0.27802-0.94621 1.2616-0.79787 1.2267-1.025-0.24426-1.5895-0.94393-0.36222-1.472-1.0538-1.1735-1.5368 1.1571-1.8723-0.89792-7.9752-3.6581-10.863-1.5929-1.6668-2.8961-3.7096-2.8961-4.5396 0-0.83-0.38686-1.5091-0.85969-1.5091s-0.73148-1.8-0.57478-4-0.13144-4-0.64031-4c-0.50887 0-0.85255-0.3375-0.76374-0.75 0.08881-0.4125-0.36119-2.0168-1-3.5651-0.63882-1.5483-1.1615-3.2358-1.1615-3.75 0-0.51419-0.46583-0.9349-1.0352-0.9349-0.71358 0-0.71358-0.60093 0-1.9343 1.2194-2.2784 1.3336-3.3683 0.28518-2.7201-0.4125 0.25501-0.72707-2.4472-0.69904-6.005 0.02803-3.5578-0.32555-6.7013-0.78572-6.9858-0.46017-0.2844-0.78132-2.1681-0.71365-4.186 0.06767-2.0179-0.11542-4.6814-0.40686-5.9189-0.29144-1.2375-0.18709-2.25 0.23188-2.25s0.64314-2.0139 0.49814-4.4753c-0.145-2.4614 0.18322-4.7515 0.72937-5.089 0.65195-0.40293 0.63826-1.0412-0.03985-1.8582-1.1086-1.3358 2.4568-11.438 4.5099-12.779 0.59079-0.38571 0.97467-2.5241 0.85306-4.752-0.20197-3.7001 0.06895-4.1883 3.1298-5.6408 1.843-0.87457 3.8767-2.2237 4.5194-2.998 0.64264-0.77434 1.7883-1.4079 2.546-1.4079 0.75766 0 1.3776-0.45 1.3776-1s0.70156-1 1.559-1 1.31-0.40285 1.0057-0.89522c-0.81727-1.3224 2.5964-2.3436 3.8025-1.1376 1.5505 1.5505 2.9272 1.2424 2.2566-0.50507-0.36098-0.94069 0.08287-1.7574 1.143-2.1033 3.8571-1.2585 6.9184-2.9116 7.0458-3.8047 0.0742-0.52025 1.3642-1.1105 2.8667-1.3117 3.0038-0.40226 12.321-6.0509 12.321-7.4698 0-0.48983 0.41891-0.63171 0.9309-0.31528 0.512 0.31644 1.2181 0.11065 1.5691-0.45729s1.0061-0.80524 1.4558-0.52732c0.44968 0.27791 1.3737-0.16475 2.0533-0.98369 1.3715-1.6526 3.4654-2.0659 2.4927-0.49201-0.40754 0.65941 0.24965 0.66779 1.941 0.0247 1.4064-0.53468 2.5571-0.70322 2.5571-0.37448 0 0.32873 0.66968 0.0419 1.4882-0.63738 1.1906-0.98813 1.5932-0.96263 2.0133 0.12756 0.2888 0.74944 1.9477 1.4632 3.6864 1.5861 1.7387 0.12289 3.4314 0.66045 3.7615 1.1946 0.33011 0.53413 1.489 0.82952 2.5754 0.65642 2.6954-0.42946 5.7423 1.2872 5.1276 2.8891-0.33693 0.87803 0.11091 1.1496 1.3579 0.82356 1.0233-0.26761 2.4522 0.0172 3.1752 0.63283 6.1092 5.2021 7.6265 6.0778 10.533 6.0789 2.5528 9.7e-4 3.0903 0.33555 2.5984 1.6176-0.52361 1.3645-0.29526 1.4424 1.4656 0.5 2.9459-1.5766 3.4384-1.3978 2.2526 0.81793-1.6435 3.071-1.2874 3.6624 3.0711 5.1008 2.2584 0.74535 4.3316 1.9424 4.607 2.6601s1.2401 1.3192 2.1437 1.3367c0.90365 0.0175 2.4768 0.66343 3.4958 1.4354 1.7155 1.2996 1.5673 1.4589-2 2.1495-3.5756 0.69225-3.6729 0.79765-1.3528 1.4649 1.375 0.39545 3.9686 0.76386 5.7636 0.81868 3.2616 0.0996 6.4174 1.4554 9.0632 3.8936 0.89534 0.82513 2.9021 1.1102 5.5387 0.78691 2.274-0.27888 13.585-1.0114 25.135-1.6278 17.759-0.94779 22.157-0.89261 28.5 0.35763 9.5692 1.8862 11.76 0.92406 15.555-6.8329 3.5835-7.3244 4.0658-15.192 2.045-33.357-0.87981-7.9084-1.5997-16.613-1.5997-19.343 0-6.2894 3.2634-22.409 6.4335-31.78 2.6215-7.7485 10.756-20.847 13.43-21.625 0.89991-0.26184 2.8001-1.0649 4.2226-1.7845 2.3202-1.1738 2.9892-1.0349 6.5 1.3494 4.0361 2.741 5.0569 5.752 2.4136 7.1191-4.2826 2.2149-9.0273 3.9422-10.829 3.9422-3.0163 0-5.8721 4.3279-8.6424 13.097-5.078 16.075-5.6506 26.96-2.453 46.631 1.5086 9.2811 1.9869 16.071 1.75 24.843-0.3128 11.58-0.4746 12.37-3.9825 19.43l-3.6565 7.3588 2.6565 2.0484c7.9236 6.1098 13.047 11.998 15.984 18.368 3.9726 8.6186 5.03 16.477 4.4136 32.8l-0.4937 13.076 2.8764 1.1393c5.9403 2.3528 8.0742 2.403 12.221 0.28749 8.6937-4.4352 17.156-1.858 17.156 5.2249 0 3.0559-0.79406 4.5592-8.2447 15.608-2.1608 3.2044-2.1988 4.0874-0.1758 4.0874 1.2091 0 1.4354 0.65561 0.96533 2.7961-0.50436 2.2963 0.0623 3.5273 3.1706 6.8873 5.9091 6.3878 14.548 8.6481 34.285 8.9705 15.374 0.25115 20.131 0.75673 41.662 4.428 16.804 2.8654 44.775 13.702 57.838 22.408 13.345 8.8934 29.5 26.931 29.5 32.937 0 0.82855 1.9445 3.6958 4.3211 6.3717 6.0904 6.8574 8.1049 14.202 8.1466 29.701 0.0322 11.963 0.0205 12.023-3.7942 19.5-2.1046 4.125-5.8314 10.068-8.2818 13.206l-4.4554 5.7061 2.2818 1.4706c3.2278 2.0802 27.484 11.711 32.282 12.818 2.2 0.50735 5.2084 1.1666 6.6854 1.4649 1.7512 0.35376 3.191 1.637 4.1388 3.6885 2.7794 6.0165 2.9112 7.4496 0.78961 8.5851-2.4754 1.3248-2.8343 1.3222-3.6676-0.0262zm-125.89-46.998c0.84891-1.3736 3.3518-13.291 2.8939-13.779-0.7037-0.75061-7.1031 3.9029-11.37 8.2682-4.6519 4.7589-4.5652 5.1182 1.4236 5.9031 5.6147 0.73583 6.3818 0.69316 7.0526-0.39229zm-32.225-11.216c2.0197-1.5405 3.6721-3.1515 3.6721-3.58 0-1.2914-16.996-4.1329-24.677-4.1258-6.5712 6e-3 -7.3537 0.23071-9.264 2.6593-1.1476 1.459-1.9653 2.7739-1.8171 2.9221 0.14821 0.1482 3.192 1.4208 6.764 2.8279 5.2594 2.0719 7.9357 2.5146 14.072 2.3279 6.5634-0.19969 8.0695-0.60554 11.25-3.0314zm-291.83-149.7c0.33992-0.55 0.14148-1-0.44098-1s-1.059 0.45-1.059 1 0.19844 1 0.44098 1 0.7191-0.45 1.059-1z" fill="param(fill)" fill-opacity="param(fill-opacity)" stroke="param(outline)" stroke-opacity="param(outline-opacity)" stroke-width="param(outline-width) 0.2"/>
</svg>
