<svg version="1.1" width="512" height="512" viewBox="0 0 512 512" xmlns="http://www.w3.org/2000/svg">
 <path d="m331.11 505.44c2.9874-1.5588 3.7903-1.6419 5.2875-0.54716 2.2947 1.6779 9.5859 1.58 14.513-0.19491 2.1379-0.77019 5.1114-1.4069 6.6077-1.415 3.9463-0.0212 7.9835-2.4188 10.212-6.0646 3.2894-5.382 4.9777-13.04 7.1196-32.295 1.5693-14.108 2.837-21.004 5.3367-29.029 1.8032-5.7892 3.2785-11.182 3.2785-11.985s-1.3304-4.7821-2.9565-8.843l-2.9565-7.3836 0.98834-19.502c0.85684-16.907 3.1781-36.057 4.5352-37.414 0.23882-0.23884 1.1429 0.63263 2.009 1.9366 3.1611 4.759 13.991 14.419 21.211 18.918 15.498 9.6592 33.033 13.184 48.488 9.7451 16.686-3.7124 35.07-21.413 43.954-42.322 1.7044-4.0112 3.3887-8.2774 3.7429-9.4805 0.59597-2.0244 0.45323-2.1149-1.9145-1.2147-1.4072 0.535-4.8258 0.96268-7.597 0.95041l-5.0385-0.0224 3.6441-2.1122c2.0043-1.1617 3.6441-2.4125 3.6441-2.7796 0-0.9716-3.8073-1.8373-8.1473-1.8526-7.0712-0.0249-11.448 2.0077-17.72 8.2303-6.9344 6.8788-8.1442 10.558-8.1442 24.77 0 7.8459-0.22547 8.8915-2.5004 11.595-3.3846 4.0223-8.7017 5.326-18.308 4.4888-23.463-2.0446-37.803-14.295-43.823-37.436-2.3773-9.1385-5.3354-26.743-5.3354-31.753 0-2.3695 1.5217-11.217 3.3816-19.662 6.2184-28.234 7.6144-38.764 7.6136-57.423-7.1e-4 -15.223-0.26499-17.997-2.5202-26.455-6.2027-23.263-20.401-40.609-42.001-51.311-13.301-6.5902-15.916-6.933-50.296-6.5922-29.377 0.2912-30.508 0.23303-34.895-1.7946-5.4242-2.507-6.8739-4.5345-9.6275-13.464-1.1517-3.735-3.225-8.9773-4.6072-11.65-1.3822-2.6724-2.4141-5.2214-2.2931-5.6646 0.48246-1.7667-9.1218-18.31-12.768-21.993-4.3838-4.4277-3.6568-5.1098 1.6255-1.5251 1.9452 1.3201 3.5368 2.186 3.5368 1.9242 0-0.26175-1.1634-2.3257-2.5853-4.5866-3.0491-4.8481-9.0969-10.823-29.483-29.128-8.2843-7.4385-15.662-14.364-16.396-15.39-1.1796-1.6502-1.1236-1.8627 0.48588-1.8438 1.0005 0.01174 3.7869 0.88434 6.1921 1.9391l4.373 1.9178-5.2058-4.8877c-2.8632-2.6882-6.7988-5.6888-8.7459-6.668-2.9724-1.4948-16.541-4.9545-29.004-7.3957-2.0217-0.39598-6.4025 0.28623-12.493 1.9456-5.159 1.4055-9.5467 2.3886-9.7505 2.1848-0.6972-0.6972 5.7821-4.9214 8.7695-5.7173 1.8625-0.4962-0.0686-0.60728-5.1409-0.29568-4.4682 0.27449-9.6402 1.1325-11.493 1.9068-4.6762 1.9539-3.802-0.2906 1.2292-3.1556l3.8115-2.1705-6.8024-0.06696c-6.1243-0.06028-6.6086-0.20295-4.8588-1.4313 6.264-4.3973 6.264-4.5411 0-3.9107-7.3368 0.73834-13.358 3.6212-18.681 8.9447-4.7466 4.7466-5.1114 4.462-1.7706-1.3812 1.2987-2.2715 2.0972-4.13 1.7743-4.13s-2.4668 1.1016-4.7642 2.4479c-4.6785 2.7418-11.777 10.97-16.16 18.732-1.5982 2.8303-3.0789 4.9729-3.2905 4.7612-0.21163-0.21163 0.05131-3.4019 0.58436-7.0895 0.53303-3.6876 0.95947-7.3607 0.94767-8.1624-0.03557-2.4099-3.6375 5.0496-4.4577 9.2318l-0.76235 3.8871-0.51822-4.373-0.51822-4.3729-1.8897 2.7904c-1.2324 1.8198-2.0774 5.1882-2.4294 9.6838l-0.5397 6.8934-3.7581-6.4387c-2.067-3.5413-5.6784-8.555-8.0254-11.141l-4.2673-4.7027 4.8867 8.2097c4.7623 8.0007 7.8045 15.842 7.7222 19.905-0.03191 1.575-0.44375 1.274-1.9028-1.3911l-1.8621-3.4012-0.04072 4.5585c-0.02245 2.5072-0.41724 4.7912-0.8774 5.0756-0.46017 0.2844-2.8463-3.8441-5.3026-9.1744-4.8966-10.626-6.5993-12.923-3.0424-4.1039 1.2395 3.0732 2.5696 7.979 2.9557 10.902l0.70204 5.314-5.0548-3.312 3.025 7.2605-2.1546-1.9425c-1.1851-1.0684-2.9645-3.4735-3.9543-5.3447-1.3742-2.5979-1.8098-2.9339-1.8426-1.4212-0.02363 1.0896 0.83163 3.6965 1.9006 5.7931 1.0689 2.0967 1.9435 3.9383 1.9435 4.0925 0 0.8222-2.9487 0.05387-6.2472-1.6278l-3.7429-1.9082 2.2018 2.3437c1.211 1.289 3.5681 2.6469 5.238 3.0175 2.678 0.59432 2.8069 0.7642 1.0927 1.4398-1.0689 0.42126-3.6927 0.81057-5.8306 0.86513-3.6337 0.09274-3.7641 0.19222-2.0007 1.526 1.0375 0.78471 1.3396 1.4267 0.67147 1.4267-0.66817 0-0.94402 0.4382-0.61302 0.97377 0.88048 1.4246-7.1577 21.071-10.006 24.456-1.3378 1.5899-6.8494 6.4661-12.248 10.836-11.886 9.621-17.946 15.799-18.73 19.091-0.32222 1.3546-0.9811 2.9671-1.4642 3.5832-0.5268 0.67189-0.51491 1.2553 0.029736 1.4576 0.49944 0.1856 2.0628 4.7104 3.4742 10.055 1.4114 5.3447 3.9475 12.56 5.6357 16.034 2.8746 5.9154 3.0507 6.8896 2.7734 15.342-0.23393 7.1304-0.02381 8.9666 1.0008 8.7459 0.93244-0.20087 1.5487 1.769 2.1928 7.0088 0.49272 4.0085 1.0889 6.7389 1.3249 6.0675 0.74984-2.1337 2.2036-0.23903 2.2855 2.9787l0.07891 3.1009 1.2093-2.7332c1.0616-2.3994 1.3621-2.549 2.4606-1.2254 1.5191 1.8304 2.9746 1.1241 2.9746-1.4435 0-2.3465 1.9139-2.5221 2.0228-0.18558 0.04664 1.0006 0.67062 0.34464 1.516-1.5937 1.0754-2.4659 1.7153-3.0157 2.5445-2.1865 1.7817 1.7817 2.4408 1.3283 3.6866-2.5363 1.6067-4.9842 2.0029-5.5166 2.9697-3.9908 0.6028 0.95135 0.83956 0.67653 0.8503-0.987 0.01283-1.9882 0.22567-2.1305 1.5466-1.0343 1.2694 1.0535 1.6829 1.0323 2.4145-0.12395 0.48555-0.76735 0.91724-1.8325 0.9593-2.3669 0.04208-0.53448 0.55266 0.12147 1.1347 1.4576 0.97481 2.238 1.0922 2.2763 1.4904 0.48588 0.56842-2.5562 2.1652-4.2417 2.2554-2.3808 0.04179 0.86211 0.3785 0.65464 0.86746-0.53447 0.93946-2.2847 1.4502-1.2846 2.4783 4.8536l0.65023 3.8818 4.6816-5.4426 0.09689 7.0995c0.05326 3.9047 0.44697 8.1927 0.87489 9.5289l0.77804 2.4294 0.26142-2.4294c0.14378-1.3362 0.54478 3.0368 0.89112 9.7177 0.34634 6.6809 1.2267 14.041 1.9563 16.356l1.3266 4.2086 1.6096-3.1126c1.5917-3.078 1.6171-2.9628 2.2826 10.368 0.37017 7.4143 1.2295 16.323 1.9096 19.797 1.2694 6.4841 1.7688 6.2991 3.0161-1.1171 0.32805-1.9506 1.2408-4.0812 2.0284-4.7349 0.78757-0.65362 1.4374-1.0255 1.4441-0.82647 0.0068 0.19906 0.8489 7.0808 1.8716 15.293 1.4313 11.493 1.6426 16.278 0.91753 20.78-0.94249 5.8523-2.898 10.765-4.7379 11.902-0.53827 0.33267-0.97868 1.1021-0.97868 1.7099 0 1.6975 6.7124-5.0619 9.844-9.913l2.789-4.3203-0.02381 7.2356c-0.03012 9.1758-1.3475 14.951-4.5327 19.869l-2.5175 3.8871 2.4871-2.2825c1.3679-1.2553 3.032-3.5981 3.6981-5.2061l1.211-2.9237 1.2979 2.4771c0.71385 1.3624 1.7413 6.7662 2.2832 12.008 1.4457 13.985 1.8317 14.502 4.338 5.8123 1.1887-4.1214 2.4388-7.7709 2.7778-8.1099 1.05-1.05 3.6303 6.3706 5.949 17.108 1.2197 5.6482 3.8067 16.392 5.7489 23.874 5.1593 19.877 10.29 46.064 11.424 58.306 0.54457 5.8792 1.8315 16.293 2.8598 23.143 2.2011 14.661 2.4422 26.721 0.585 29.26-0.70657 0.96629-4.478 2.7693-8.3808 4.0068-7.9255 2.5128-12.006 5.7298-14.73 11.614-2.3783 5.137-2.3403 9.7056 0.1012 12.147 2.3726 2.3726 2.6648 2.3805 6.3058 0.16939 2.6422-1.6046 3.3249-1.6407 7.5567-0.40018 4.2281 1.2394 5.1643 1.1908 10.271-0.53391 5.5578-1.8769 5.6592-1.8771 9.2799-0.0195 4.4141 2.2646 7.2926 1.8003 13.237-2.1349l4.3168-2.8578 2.4546 2.351c4.7072 4.5087 8.9589 5.4875 27.158 6.2523 9.3955 0.39486 19.025 0.3553 21.399-0.0879 9.2228-1.7219 11.163-7.7785 5.7354-17.907-2.7617-5.1539-3.065-6.5478-3.0431-13.984 0.0259-8.8124 2.9392-26.905 6.2588-38.871 1.1121-4.0085 5.0324-16.877 8.7118-28.596 3.6794-11.719 7.3706-25.056 8.2029-29.639 2.8294-15.579 4.4238-17.856 13.323-19.026 2.7959-0.36767 9.0191-2.4384 13.829-4.6015 9.2682-4.1679 16.402-5.5366 19.689-3.7775 2.1229 1.1361 5.0793 8.1763 12.485 29.73 2.3809 6.9297 6.9313 17.486 10.112 23.459 14.691 27.588 15.735 42.374 4.5581 64.519-3.0141 5.9718-3.3602 6.3028-6.342 6.0654-7.9465-0.63257-21.124 11.976-20.394 19.513 0.49763 5.1348 5.3595 6.8286 20.949 7.2984l12.876 0.38797v2.617c0 3.8875 2.0343 5.9746 6.3506 6.5154 2.6557 0.33272 4.9474-0.0884 7.3752-1.3552zm-160.01-89.145c0.3046-19.241 0.83206-39.924 1.1721-45.962 0.53784-9.5493 0.82009-10.891 2.1682-10.304 0.85241 0.37099 4.2829 0.87999 7.6234 1.1311 3.614 0.27168 6.0715 0.90263 6.0686 1.5581-0.04 8.8312-2.4571 41.471-3.9103 52.804-2.3674 18.464-8.486 47.905-11.369 54.706-1.4567 3.4363-2.2665-21.48-1.7527-53.933zm172.08-45.499c-2.6262-14.219-4.9147-31.589-4.2497-32.254 0.61944-0.61945 8.4493 42.943 8.9972 50.057l0.48649 6.3165-1.3816-5.3709c-0.75989-2.954-2.4935-11.391-3.8524-18.749z" fill="param(fill)" fill-opacity="param(fill-opacity)" stroke="param(outline)" stroke-opacity="param(outline-opacity)" stroke-width="param(outline-width) 0.2"/>
</svg>
