<?xml version="1.0" encoding="UTF-8"?>
<svg width="850" height="850" version="1.1" viewBox="0 0 850 850" xmlns="http://www.w3.org/2000/svg">
 <path d="m181.01 702.61c-36.701-23.842 17.97-49.165 36.691-50.941-1.606-41.573-0.60419-84.53-10.701-125.42-14.571 31.297-4.0638-30.078-24.67-31.073-11.629-20.422-6.5322-2.1032-4.3294 7.222-7.6293-15.688-22.718-34.259-18.611-15.982-10.201-23.962-21.407-36.206-20.213-58.507-7.7427 15.148 3.7902 60.078-9.8535 22.566-7.6213-11.966-17.48-79.919-14.112-33.003 4.4056 13.986 13.481 41.902 0.18254 12.6-6.404-15.351 4.8595 25.474-9.7277-5.8426-19.756-15.993 11.318-49.217-9.1701-50.082 14.89-5.4366-14.705-32.436-10.851-36.152-8.7152 30.227-0.98418-47.384-17.798-17.878-29.727 11.333-16.107-45.663-33.943-42.422-36.525 6.6401-19.813 4.469-9.6125 2.7384 24.76-4.2004 8.3396-10.624 6.7684-10.754-63.285 1.8197 26.911-0.13313-3.5192-9.724-32.689-8.4274 23.76 3.2341 4.9716-15.529-9.5402-33.756 46.018-42.14 57.775-71.534 16.363-11.823-34.528-12.84-7.2693-36.111 14.902-2.6094 21.623-25.911 38.268-20.448 9.4255 5.5092 32.921-30.562 23.716-7.339 28.566-13.481 54.852-0.24335 52.987 2.5543 31.404-4.2768 49.481 25.675 74.792 37.345 19.361 13.005 12.161 57.681 45.57 41.029 1.6308 4.1106-25.206 7.0505-3.939 16.91 8.5901 12.976-20.552 29.667 8.1458 30.48-21.311 2.2394 25.327 4.6523-7.6979 3.8771-23.198-1.8208 33.324 3.4226 2.5718 7.4967 7.83 0.83913 47.826-10.521 19.778-2.0169 32.4 7.1771 24.126 44.289 54.945 48.761 60.058 4.9311 121.2-14.31 180.5 2.8148 41.72 6.3791 76.319 33.823 113.08 52.84 29.531 21.265 65.572 37.579 102.25 25.191 31.886-6.1369 43.386-47.194 21.402-70.288-20.152-36.142-65.572-36.353-95.949-13.428-18.492 12.638-66.493 3.3956-57.534-3.7428 13.127-20.161 35.952-43.253 63.242-40.693 38.696 4.9854 82.543 15.645 106.01 49.953 26.814 32.839 10.245 89.607-31.96 99.575-27.34 20.131-78.917 0.76311-95.551 11.971 16.185 35.097 25.068 72.924 40.519 108.4 7.5379 29.672 26.285 55.328 51.192 72.823 13.207 36.229 9.5064 39.4 25.337 92.461-16.381 10.348-37.454 16.077-59.824 15.413-34.992-13.228 10.283-41.382 9.5489-52.385-20.022-25.633-31.348-59.255-61.126-74.787-34.1-9.8329-51.799-44.508-85.339-55.293-31.376-25.842-56.701 41.407-24.902 60.944 27.809 21.648 30.998 49.96 3.6589 74.661-19.356 23.455-16.68 52.497-54.902 48.006-14.533 5.2181-54.191 1.0728-47.379-18.465 1.8746-42.991 58.573-4.6374 60.682-43.307 1.5484-34.299-42.016-48.465-63-69.995-23.992-16.794-11.836-73.21-45.014-68.052-27.605 12.404-65.777 5.6511-87.943 24.708-15.695 12.043-35.284 43.228 0.33475 38.502 30.836-9.813 46.297 26.866 17.157 42.064-9.1558 6.8781-23.507 1.2784-34.692 3.2816-16.464 0.15068-27.625-17.388-42.395-23.176-23.865-9.3364-7.4542-48.169-7.235-51.774-22.502 20.229-17.254 59.277-26.857 87.427-4.6063 27.703-4.4978 72.064-34.783 81.19-16.52-1.378-33.227 7.6911-49.667 0.32023zm-10.494-220.17c-2.6394-2.2842 1.3881 13.742 0 0zm-65.608-77.72c-7.3372-32.032 2.9337 33.172 0 0zm243.1-153c-12.62-11.257-33.612 7.9951 0 0zm-143.15 285.8c4.5978-15.049 3.5089 1.9856 0 0zm160.98-265.63c1.4867-6.0223 0.68731 6.9915 0 0z" fill="param(fill)" fill-opacity="param(fill-opacity)" stroke="param(outline)" stroke-opacity="param(outline-opacity)" stroke-width="param(outline-width) 0.2"/>
</svg>
