<svg version="1.1" width="512" height="512" viewBox="0 0 512 512" xmlns="http://www.w3.org/2000/svg">
 <path d="m290.11 406.86c27.205 0.37052 2.6742-30.571 10.969-38.324 0.49791-11.565-8.8885-27.675-1.9413-27.85 2.6194-10.201-9.7309-41.561 9.0733-21.381 7.7315-5.8094 27.096-9.5554 21.183 9.4159 1.5458 20.776-13.195 36.561-25.027 51.482 9.0954 18.923 47.495 12.102 45.483-12.995-1.7282-10.804 9.0669-30.206 14.699-30.323 6.2987 3.8532 13.82-10.42 18.357-13.177 6.713-6.5767 14.363-25.092 22.553-7.7969 17.352 11.842 28.201 28.595 29.494 49.895 3.0247 12.259-16.263 31.175 8.3561 27.246 26.713 5.8094 29.752-19.508 20.219-37.955-8.1689-18.045-4.4789-33.796-6.8785-53.098-4.2807-16.804-6.2196-26.652-10.972-43.604-2.0793-19.405 0.39381-41.326 24.819-40.292 7.4511-4.9499 20.575-17.896 17.535-25.916 9.6646-11.193 1.0848-14.339 2.4904-16.977 8.0456-7.7888 13.163-29.478-5.4724-17.169-17.491 13.271-17.985 44.667-43.25 47.678-9.6723-8.0371-19.081-23.575-32.168-30.677-20.788-15.312-44.049-26.922-67.943-36.439 1.1152-9.1764-30.575-9.2857-42.22-12.045-6.0832-0.7649-22.769-5.5562-7.9177-6.0989-18.25-9.3584-41.562-12.73-59.649-1.0447 7.4176-8.0334-6.9675-0.2303-6.6254-5.5319-9.6769 13.968-25.017-17.076-28.685-15.75 0.44932-7.0835-15.083 3.6199-15.93-4.7181-17.878 5.3951-32.076 3.1795-40.593 23.008-4.2827 20.27-13.43 37.914-27.174 53.182-5.6011 20.533-24.585 34.422-27.957 56.043-0.54473 11.297-7.995 17.117-19.772 15.4-24.488 4.7919-29.814-25.072-21.95-42.206 4.2961-15.813 19.201-32.925 27.426-41.529-24.769 10.789-41.274 35.829-43.9 62.392-7.9256-22.632-3.3009-50.046 15.845-65.757-15.78 3.7463-27.999 23.262-31.969 39.696-6.9787 22.748 1.1474 50.955 24.13 61.015 12.89 11.047 33.71 8.951 45.798 11.49 3.6433 24.011 20.042 53.917 47.907 52.277 18.745 1.5321 34.242-20.621 23.307-36.813-10.646-15.776-38.752 15.163-15.548 10.609 13.247-3.9549-8.2631 17.288-14.104 3.5099-14.899-13.094-11.423-41.207 0.0618-55.495 12.185-14.626 5.1604 18.351 13.933 16.68 12.42-8.7305 31.632-9.0257 43.859-4.973 9.2269 19.687 0.17736 42.353-7.1222 61.335-12.999 16.898-22.559 35.385-20.821 57.562-3.7358 13.549-17.777 31.284 7.9146 26.647 17.458 1.2468 32.109-9.8718 23.192-28.002 1.685-8.6371 11.698-13.147 15.668-18.004 9.3429-1.624 15.594-35.845 13.448-14.029 3.4055 6.4786 15.045-31.115 12.315-11.975 5.4443 1.2217 11.397-35.971 19.058-16.244 5.7829 23.532 15.341 45.732 25.387 67.667-1.7163 12.284-23.205 31.597 3.9459 30.07 5.7139 0.13581 11.459 0.34948 17.163-0.11006z" fill="param(fill)" fill-opacity="param(fill-opacity)" stroke="param(outline)" stroke-opacity="param(outline-opacity)" stroke-width="param(outline-width) 0.2"/>
</svg>
