<svg version="1.1" width="512" height="512" viewBox="0 0 512 512" xmlns="http://www.w3.org/2000/svg">
 <path d="m246.99 374.22c0-0.52566-1.7561-3.6576-3.9024-6.9598-2.1463-3.3022-4.2708-6.6053-4.721-7.3403s2.0134 0.0796 5.4747 1.8102c7.8709 3.9352 23.586 9.6175 24.392 8.8196 0.33155-0.32836-5.5574-6.5426-13.087-13.809-11.829-11.417-13.85-13.839-14.871-17.82-0.64973-2.5344-1.1194-4.608-1.0438-4.608 0.0756 0 1.9498 0.91509 4.1647 2.0335 2.215 1.1184 5.0087 2.0335 6.2084 2.0335 1.1996 0 4.9495 2.2005 8.333 4.89 6.2126 4.9382 12.784 8.4676 18.159 9.7528l2.9298 0.70049-3.578-4.3671c-1.9679-2.4019-5.312-7.1124-7.4314-10.468-2.1194-3.3553-4.6576-7.0157-5.6406-8.1341-2.091-2.379-3.4922-11.991-1.6644-11.417 0.63923 0.20071 3.2456 4.2244 5.792 8.9415 2.5464 4.7171 5.4019 9.663 6.3457 10.991l1.716 2.4143 0.71583-3.7792c0.3937-2.0786 0.41256-6.711 0.0419-10.294-0.62225-6.0153-0.51996-6.515 1.3336-6.515 4.0523 0 18.207 2.2008 22.944 3.5675 2.682 0.77369 4.8763 1.2475 4.8763 1.053 0-0.19455-1.4395-1.2564-3.199-2.3598l-3.199-2.0061 7.3053 0.51769c4.0179 0.28473 7.3053 0.18639 7.3053-0.21852s-1.0394-1.595-2.3098-2.6447c-2.3008-1.901-2.2798-1.9087 5.3896-1.9512 4.2347-0.0234 10.148-0.33395 13.141-0.68998l5.442-0.64732-7.8042-3.6069 17.538-0.1646 4.5767 4.6537c2.5172 2.5595 5.4447 5.1236 6.5055 5.698 1.7441 0.94444 1.8813 0.72425 1.433-2.3008l-0.49571-3.3452 2.4116 2.9851c2.9476 3.6486 2.9962 4.8749 0.36047 9.0987-2.0123 3.2248-17.16 16.568-22.882 20.157-2.8243 1.7712-7.2359 7.7781-6.354 8.6516 0.24775 0.2454 1.1658-0.14177 2.04-0.86037 2.2491-1.8488 2.5902-1.0373 1.5076 3.5872-0.51995 2.2212-0.92213 5.1824-0.89372 6.5804 0.0447 2.1957 0.31053 1.988 1.9525-1.5252l1.9009-4.067 0.15952 5.0838 0.15951 5.0838 1.4102-3.0503 1.4102-3.0503 0.0462 3.2445c0.0528 3.7036 1.6592 5.3234 2.5433 2.5646 0.32539-1.0154 2.4375-3.6314 4.6936-5.8133 4.7574-4.601 5.5732-2.9351 1.4847 3.0319-1.4395 2.1009-2.4688 3.9668-2.2874 4.1464 0.82952 0.82157 7.7856-3.4413 11.044-6.7683 1.987-2.0286 6.79-9.4449 10.673-16.481 3.8833-7.0358 8.1124-13.771 9.398-14.967l2.3374-2.1749 1.3307 3.6448c0.7319 2.0046 1.5844 3.6417 1.8944 3.6379 1.0998-0.0135 5.327-6.9675 7.1894-11.827l1.8899-4.9311 0.68167 6.0947c0.37491 3.3521 0.79349 6.7811 0.93018 7.6199 0.3337 2.0479 4.6669-6.2623 6.8922-13.218 2.0033-6.2616 2.1219-6.156 5.1364 4.5754l1.7137 6.1006 2.7651-6.1006c1.5208-3.3553 3.5749-9.4759 4.5646-13.601l1.7995-7.5008 4.8341 10.935 1.6888-7.1173c0.92886-3.9145 2.4399-8.5352 3.3579-10.268 0.91798-1.733 2.2234-5.3933 2.901-8.1341 0.67758-2.7408 2.1264-6.756 3.2196-8.9226 1.9684-3.9012 2.0334-3.9332 6.6948-3.3004 6.0086 0.8157 12.056 4.3373 17.508 10.196 2.3746 2.5516 4.304 3.9512 4.304 3.1222 0-1.9548 0.65017-1.8948 3.9479 0.36437 5.0351 3.4495 5.6967 3.6962 4.9848 1.8587-0.36054-0.93057-0.43098-1.6919-0.15652-1.6919 0.27445 0 4.9585 2.974 10.409 6.609 9.9174 6.6139 13.421 8.2405 10.232 4.7496-3.0819-3.3729-1.7873-3.294 5.4871 0.33425 3.9524 1.9713 7.1861 3.0873 7.1861 2.4799s-5.89-6.9441-13.089-14.082c-8.7757-8.7009-16.229-15.011-22.618-19.148-5.2412-3.3938-9.0038-6.3442-8.3613-6.5563 0.64247-0.21212-1.1599-1.819-4.0053-3.5708-9.3697-5.7688-13.39-12.761-21.398-37.214-6.2176-18.986-9.9112-27.17-14.7-32.572-3.7596-4.241-3.9434-5.3418-0.52095-3.1208 4.1398 2.6865 2.9556 0.203-2.3098-4.844-6.7492-6.4693-18.136-14.902-25.849-19.143-3.5595-1.9573-10.12-5.9532-14.579-8.8799-4.4591-2.9267-9.8332-6.2559-11.942-7.3983l-3.8349-2.0771 5.5208 0.64842c3.4168 0.40132 5.2897 0.27804 4.9144-0.32346-2.0004-3.2057-24.796-11.402-31.973-11.497l-3.1004-0.0407 3.0798-1.7386c3.0258-1.7082 2.7922-1.7482-13.346-2.2863-9.034-0.30124-15.848-0.64439-15.142-0.76257 0.70578-0.11817 1.2832-0.6724 1.2832-1.2316 0-2.6608-26.246 0.93754-39.524 5.4186-7.6923 2.5961-18.745 7.8245-23.355 11.048-3.3691 2.3558-3.5752 1.6703-0.70004-2.3288 5.0431-7.0146-5.1307-0.62624-17.715 11.124-12.757 11.912-18.139 14.909-31.552 17.577-15.442 3.0708-26.926 9.1356-37.557 19.834-4.9302 4.9617-5.5207 5.2931-5.8197 3.2663-0.28111-1.9058-1.8276-0.64968-9.9707 8.0988-5.3009 5.695-10.417 10.354-11.369 10.354-1.5036 0-11.857 3.2641-18.003 5.6757-1.8264 0.71666-1.8976 0.61615-0.64425-0.90986 1.7816-2.1692 1.8604-2.1773-6.6187 0.68127-7.9492 2.68-17.454 7.2577-23.324 11.233-2.1424 1.4511-4.1425 2.6383-4.4446 2.6383s-0.23595-1.4129 0.14701-3.1398c0.65628-2.9594 0.57078-3.0733-1.488-1.982-3.2375 1.7161-12.725 11.385-16.491 16.806-4.3168 6.2142-9.6673 17.916-11.395 24.92-0.9292 3.7679-1.4973 4.841-1.7416 3.2894-0.55279-3.5111-2.0689-1.7461-2.8325 3.2974-10.469 26.506-4.6159 16.322-6.3477 20.456-1.9001 4.2138-1.8888 7.3798-1.9078 14.401 1.0808 5.5197 2.6238 6.3347-5.4275 13.792-5.4316 5.031-9.9215 8.2038-13.836 9.7773-6.5756 2.6433-6.8712 3.492-3.6937 10.607 1.6519 3.6987 2.6249 4.7047 4.5502 4.7047 3.1595 0 26.292-6.5026 32.549-9.1496 6.0627-2.5648 7.201-2.5301 14.497 0.44132l5.9615 2.4278-1.5985-2.4162c-2.279-3.4448-2.0876-3.5852 2.637-1.9343 6.0704 2.1212 6.7764 1.8541 3.6479-1.3801l-2.7666-2.8601 8.4774 2.7954c7.1123 2.3453 22.336 5.2914 22.336 4.3224 0-0.15863-1.1549-1.4323-2.5665-2.8303-1.4116-1.398-2.5665-3.001-2.5665-3.5621 0-0.56913 3.5177-1.1515 7.956-1.3172l7.956-0.29695-3.0798-1.7386c-1.6939-0.95625-2.7394-1.757-2.3234-1.7794 0.41598-0.0224 6.5258 2.9333 13.577 6.5682 7.0516 3.6349 13.843 6.609 15.091 6.609 2.1858 0 2.1582-0.11974-0.7451-3.2259l-3.0152-3.2259 4.886 2.766c5.5491 3.1414 13.144 5.9943 13.918 5.228 0.28488-0.28216-0.32332-1.4337-1.3515-2.559-1.0282-1.1253-1.6401-2.2731-1.3598-2.5508 0.5628-0.55742 8.1355 1.9981 18.1 6.1081 8.3489 3.4437 10.526 3.1562 7.2524-0.95758-2.1773-2.7358-2.2077-2.9231-0.35458-2.1833 6.9169 2.7612 13.37 4.5908 18.376 5.2103l5.7393 0.71022-2.5624-4.4394c-1.4093-2.4417-2.5679-4.8105-2.5747-5.264-0.0261-1.7369 17.696 14.207 20.573 18.509l3.026 4.5247v-3.857c0-3.6022 0.12904-3.7648 1.9533-2.462 11.883 8.4865 25.765 16.77 25.765 15.376z" fill="param(fill)" fill-opacity="param(fill-opacity)" stroke="param(outline)" stroke-opacity="param(outline-opacity)" stroke-width="param(outline-width) 0.2"/>
</svg>
