<svg version="1.1" width="512" height="512" viewBox="0 0 512 512" xmlns="http://www.w3.org/2000/svg">
 <path d="m344.16 484.72c-5.7376-0.41932-13.82-1.5974-17.961-2.6179-6.3834-1.5732-8.3022-1.6934-12.609-0.78997-6.2533 1.3116-8.1984 0.35236-8.4251-4.1552-0.13517-2.6877 0.69988-4.1453 5.1111-8.9215 7.4174-8.0312 10.569-10.22 13.495-9.3727 1.304 0.3778 5.3582 0.78792 9.0094 0.91138s9.8392 0.51155 13.751 0.86241c5.4852 0.49197 9.102 0.19797 15.807-1.2849 8.4884-1.8773 16.631-5.1716 16.221-6.5622-0.11271-0.38214 0.98799-3.1885 2.446-6.2363 1.458-3.0478 2.4245-5.7679 2.1478-6.0447-0.27674-0.27674 0.31378-2.1045 1.3123-4.0617 0.99849-1.9572 1.612-3.7621 1.3632-4.0108-0.24872-0.24872 0.27067-3.3956 1.1542-6.993 1.2763-5.1968 1.5689-10.409 1.4239-25.366-0.17087-17.623-0.9216-23.235-2.9412-21.987-1.2153 0.75107-2.1117-2.1187-2.9523-9.4516-1.0358-9.035-2.822-17.828-3.8433-18.92-0.46368-0.49552-0.83913-2.2026-0.83435-3.7934 0.0142-4.7365-3.939-24.258-4.8041-23.723-0.4394 0.27156-1.0616-1.1185-1.3826-3.0889-0.32103-1.9705-0.98588-5.6455-1.4774-8.1666-0.49156-2.5212-0.65767-4.9659-0.36912-5.4328 0.84693-1.3704 1.2185-40.72 0.38448-40.72-1.418 0-3.8516 3.0834-3.3878 4.2923 0.54128 1.4106-6.8642 2.8153-9.8484 1.8681-1.0768-0.34177-1.8843-0.16426-1.8843 0.41421 0 0.55675-1.4685 1.0123-3.2633 1.0123-3.9729 0-5.2532 1.5888-2.2507 2.793 1.738 0.69703 1.0387 0.89274-3.3598 0.94033-4.5802 0.0496-5.4569 0.31449-4.9981 1.5102 0.40369 1.052-0.25806 1.613-2.4104 2.0435-2.7977 0.55954-2.8642 0.66876-1.1662 1.9159 1.5753 1.1571 0.97011 1.2383-4.8379 0.64914-6.0123-0.60992-6.5205-0.53065-5.3877 0.84043 1.1028 1.3348 0.82239 1.5492-2.3709 1.8121-2.2193 0.18275-3.5337 0.74585-3.3945 1.4542 0.1517 0.77162-0.95188 1.0869-3.3192 0.94836-1.9506-0.11418-3.4762 0.21916-3.3902 0.74076 0.0872 0.52937-2.2171 0.99318-5.216 1.0498-3.5499 0.067-5.2896 0.47584-5.1286 1.2052 0.16075 0.72815-0.56532 0.90068-2.1338 0.50701-1.3679-0.34331-2.3775-0.18802-2.3775 0.36569 0 0.64028-1.1107 0.62152-3.3184-0.056-4.0451-1.2415-5.1559-0.40824-2.8511 2.1385 2.056 2.2718 1.61 2.3791-2.0201 0.48583-4.5128-2.3536-8.0941-1.5682-5.7903 1.2699 1.0043 1.2372 0.89858 1.3387-0.7195 0.69093-4.3376-1.7365-5.2633-1.7711-4.6503-0.17351 0.43892 1.1438 0.19517 1.3946-0.93426 0.96119-0.84047-0.32253-1.5281-0.12465-1.5281 0.43971 0 1.2733-4.4372 0.50414-10.85-1.8807-2.5769-0.95839-4.8561-1.5717-5.0648-1.3629-0.20878 0.20877 1.4728 2.4179 3.7369 4.9091l4.1165 4.5295-4.7418-2.7126c-2.608-1.4919-5.0831-3.2844-5.5002-3.9832-1.0369-1.7374-3.5092-1.6069-3.5092 0.18521 0 1.1455-0.39105 1.2466-1.8344 0.47418-2.5304-1.3542-2.9462-1.2379-2.2316 0.62442 0.51481 1.3416 0.0556 1.2596-2.7879-0.49782-2.5024-1.5466-3.5124-1.7836-3.8123-0.89486-0.31539 0.9346-1.1963 0.8358-3.8803-0.4352-3.7416-1.7718-4.0193-1.624-2.4522 1.3042 0.92048 1.7199 0.83298 1.806-0.89553 0.88091-1.0536-0.56388-2.1823-1.4567-2.5082-1.984-0.3259-0.52729-0.97775-0.72064-1.4486-0.42966s-1.9986-0.21955-3.395-1.1345l-2.539-1.6636 2.4367 4.6709-2.2625-1.9417c-4.025-3.4543-5.9924-4.7743-5.2337-3.5113 0.9445 1.5721 0.86053 1.5501-4.5394-1.1894-5.5324-2.8068-8.3612-3.1054-7.4723-0.78882 0.44 1.1466 0.26174 1.3656-0.65198 0.8009-0.97373-0.6018-1.1335-0.15533-0.70788 1.9782 1.2304 6.1677 1.8785 14.867 1.0704 14.367-0.48388-0.2997-0.75739 3.4167-0.63521 8.6307 0.11802 5.0364-0.0243 8.6236-0.31612 7.9716-1.4606-3.2627-2.0707-0.27277-1.6448 8.061 0.32571 6.3735 0.17501 8.8198-0.48503 7.8734-1.5817-2.268-2.3408 2.8946-1.7096 11.626 0.30878 4.2712 0.32604 7.2324 0.0384 6.5804-0.28769-0.65199-0.97397-1.1854-1.5251-1.1854-0.9557 0-0.64582 5.4096 0.7334 12.803l0.53075 2.8451-1.441-2.3709c-1.3972-2.2988-1.442-2.2035-1.4746 3.1381-0.0185 3.03-0.38673 5.2908-0.81832 5.024-0.43158-0.26675-1.2644 9.2301-1.8507 21.104-0.89607 18.148-0.84814 22.63 0.30071 28.121 0.75168 3.5927 1.4634 9.8655 1.5817 13.94 0.19834 6.8342 0.0264 7.596-2.2217 9.8441-2.1011 2.1011-3.8597 2.6104-12.771 3.6986-5.6838 0.69409-12.579 2.1535-15.323 3.2431s-6.9049 1.9811-9.2465 1.9811-4.2574 0.43629-4.2574 0.96954-1.7198 2.8353-3.8218 5.1158c-2.7278 2.9593-4.8317 4.3174-7.3498 4.7444-3.2088 0.54412-6.8143 1.8678-16.331 5.9953-1.8256 0.7918-6.0932 1.634-9.4836 1.8715-5.0362 0.35284-7.3398-0.0168-12.587-2.0196-3.5327-1.3483-6.6008-2.4515-6.818-2.4515s-2.3936 1.7299-4.8364 3.8442c-4.8729 4.2174-8.2733 4.6951-8.767 1.2314-0.15972-1.1205-1.1868-2.2716-2.2826-2.5581-2.2701-0.59365-2.3923-0.35715 4.786-9.2694 7.2308-8.9774 7.8189-9.5446 9.3057-8.974 0.79098 0.30352 2.2798-0.0376 3.3086-0.75825 1.3609-0.95324 2.8522-1.0896 5.4743-0.50039 2.1402 0.48086 4.9095 0.43528 6.8185-0.11222 1.7681-0.50708 4.258-0.92196 5.5332-0.92196 3.8051 0 8.4644-3.889 11.128-9.2885 2.4722-5.0107 2.4761-5.0569 1.951-22.761-0.50599-17.057-1.03-23.526-4.0103-49.51-0.74784-6.52-1.6385-16.335-1.9793-21.812s-0.98165-10.914-1.4242-12.082c-0.44253-1.1683-1.6557-10.402-2.696-20.519-1.0402-10.117-2.5722-20.257-3.4044-22.533-0.83217-2.2761-1.9341-5.5265-2.4487-7.2232-1.7977-5.9269-12.978-28.799-13.473-27.562-0.36847 0.92116-0.51871 0.87174-0.57398-0.18882-0.0412-0.79011-0.89706-2.9706-1.9019-4.8455-1.0049-1.8749-3.4028-8.4834-5.3288-14.685s-4.0225-11.703-4.659-12.225c-1.1342-0.92945-2.0463-3.8063-3.0068-9.4836-0.26473-1.5648-0.82674-3.6986-1.2489-4.7418-2.3316-5.7616-3.1049-12.609-2.479-21.952l0.6591-9.8394-2.8574-0.57149c-1.9532-0.39064-2.956-1.2125-3.1688-2.5971-0.17126-1.1141-0.77351-1.9393-1.3383-1.8339-0.56482 0.10547-1.587-0.85474-2.2715-2.1338s-1.5992-2.3256-2.0327-2.3256-0.7881-0.64014-0.7881-1.4225c0-0.78239-0.3805-1.4225-0.84555-1.4225-0.46505 0-1.118-1.0854-1.4509-2.412s-1.3394-2.7135-2.2366-3.0822c-0.89719-0.36861-3.4565-1.9081-5.6873-3.4211-4.0454-2.7437-4.0963-2.7511-19.441-2.8451l-15.385-0.0942-4.9557-3.2269c-3.9214-2.5534-5.2871-4.1368-6.5438-7.5869-0.87346-2.398-2.8043-5.9353-4.2908-7.8607s-2.7027-3.9331-2.7027-4.4616 2.5182-3.0074 5.5961-5.5087 7.9508-7.5351 10.829-11.186c5.2549-6.6665 9.3386-10.449 20.324-18.826 3.26-2.4858 5.9272-4.9971 5.9272-5.5807s-1.3451-2.1839-2.9891-3.5563c-2.5451-2.1248-3.046-3.2619-3.372-7.6559-0.49328-6.6469 1.4785-9.9047 8.894-14.695 3.0405-1.964 10.299-6.7036 16.13-10.532 5.831-3.8289 10.919-6.9616 11.306-6.9616 0.38709 0 1.4842-0.70628 2.4381-1.5695 1.1634-1.0529 1.7343-1.1835 1.7343-0.39683 0 0.76397 1.1569 0.45771 3.3192-0.87872 1.8256-1.1283 3.3192-1.6116 3.3192-1.0741 0 0.59456 1.288 0.43914 3.2888-0.39683 4.0955-1.7112 4.8235-1.7274 3.4535-0.07669-0.89413 1.0774-0.43556 1.1802 2.7033 0.6062 2.079-0.38018 3.5531-0.32389 3.2756 0.12509s0.77994 0.81633 2.3498 0.81633c3.5228 0 12.567 1.8581 13.854 2.8463 0.5216 0.40044 2.3642 1.031 4.0946 1.4012 1.7304 0.37021 3.3764 1.273 3.6578 2.0062s0.94599 1.3331 1.477 1.3331c1.5533 0 12.461 5.0457 13.883 6.4218 0.71486 0.692 2.5348 1.5052 4.0442 1.8071 1.8267 0.36534 2.6606 1.0592 2.4937 2.0748-0.17358 1.056 1.0675 1.9678 4.0302 2.9609 2.3546 0.78921 4.8382 1.7986 5.5191 2.243 3.7911 2.4744 14.405 7.1278 17.492 7.669 1.9705 0.3455 3.376 0.96255 3.1235 1.3712-0.25258 0.40868 1.7627 1.6735 4.4783 2.8108 2.7157 1.1372 7.9249 4.6976 11.576 7.9118 3.6512 3.2143 9.0961 7.4009 12.1 9.3036 3.0037 1.9027 5.203 3.7178 4.8872 4.0336-0.53151 0.53152 10.987 4.5003 13.061 4.5003 0.83372 0 10.721 3.6421 15.473 5.6996 1.0432 0.4517 3.3904 1.0253 5.216 1.2746 12.924 1.765 17.469 2.6076 18.448 3.4205 0.61696 0.51203 6.0006 1.2002 11.964 1.5293 5.963 0.32909 15.963 1.4442 22.222 2.4781 6.2592 1.0339 15.648 2.2505 20.864 2.7037s12.471 1.2568 16.122 1.7858c3.6512 0.52905 8.8434 0.97587 11.538 0.99293 2.6949 0.0171 5.0482 0.47611 5.2295 1.0201 0.32443 0.97328 28.273 3.6789 38.711 3.7475 3.7228 0.0245 4.8087 0.29742 3.7934 0.95357-1.0831 0.69993-0.70319 0.92278 1.5919 0.93384 1.6579 8e-3 3.6546 0.65466 4.437 1.437 2.2904 2.2904 4.0368-0.39436 4.7349-7.2793 0.68273-6.7334-0.37008-11.698-3.26-15.372-1.4947-1.9002-1.6298-2.4806-0.57747-2.4806 1.1777 0 1.2046-0.77837 0.18801-5.4531-0.6522-2.9992-1.6649-6.651-2.2505-8.1152-0.63913-1.5981-0.68676-2.4286-0.11917-2.0778 0.52002 0.32139 0.94549 0.41259 0.94549 0.20266 0-1.3104-4.1308-11.76-7.0752-17.898-2.3952-4.993-3.5822-8.899-3.7997-12.503-0.17399-2.8831-0.63847-5.7632-1.0322-6.4002-1.3439-2.1745-0.48516-25.136 1.0802-28.883 0.79996-1.9146 1.7036-3.2319 2.0082-2.9274 0.30452 0.30452 1.9866-1.4617 3.7379-3.925s3.1842-3.9379 3.1842-3.277c0 0.84976 1.0999 0.64058 3.7556-0.7143 4.2922-2.1897 5.1678-2.3631 4.2243-0.83637-0.47562 0.76956 0.28505 0.90097 2.6486 0.45755 2.1908-0.41098 4.2485-0.13571 6.0643 0.81125 1.5116 0.78832 3.3071 1.4359 3.9898 1.4392 0.68278 0.0032 1.0145 0.37303 0.73711 0.82182s1.1585 1.5658 3.1908 2.4822c2.2234 1.0026 3.5089 2.1516 3.2275 2.8849-0.25879 0.67438 0.85612 2.0006 2.4964 2.9695 4.3729 2.5831 12.345 13.099 17.506 23.092 2.4941 4.8291 3.9869 8.4416 3.3172 8.0277-0.90524-0.55947-1.0296-0.28686-0.48484 1.0627 2.1957 5.4394 4.8472 13.903 9.5907 30.614 2.9069 10.241 6.3916 22.247 7.7438 26.68s2.5574 10.88 2.6784 14.326c0.23545 6.7056 4.9103 30.23 8.1781 41.153 1.0923 3.6512 3.431 9.5191 5.1972 13.04 1.7661 3.5208 2.8198 6.4014 2.3414 6.4014s0.50652 3.5208 2.1886 7.8239c3.0415 7.7807 6.1028 25.554 4.496 26.103-0.41892 0.14313-0.61149 1.4234-0.42794 2.8451 0.18353 1.4216-0.0688 3.1912-0.5609 3.9324-0.76211 1.148-1.2617 1.107-3.3732-0.2765-1.3632-0.89323-2.859-1.389-3.3239-1.1016s-2.172-1.0819-3.7937-3.0428c-2.1125-2.5544-4.1971-7.5291-7.353-17.547-2.4225-7.6903-4.5706-13.816-4.7736-13.613-0.65523 0.65523 1.6983 15.653 2.8791 18.347 0.62915 1.4355 1.8384 3.6769 2.6873 4.9809 1.9084 2.9315 3.0601 7.5868 1.877 7.5868-1.2198 0-0.13111 11.298 1.3766 14.286 1.0546 2.0902 0.90452 3.6222-1.0682 10.906-1.2623 4.6609-2.7084 9.7546-3.2135 11.319-0.5051 1.5648-1.2096 6.7805-1.5656 11.59-0.35596 4.81-0.99207 8.5323-1.4136 8.2718-0.42153-0.26051-1.0214 1.1386-1.333 3.109-0.31162 1.9705-0.79812 5.0764-1.0811 6.9019-0.28301 1.8256-0.8493 3.746-1.2584 4.2676-0.40912 0.52159-1.0372 2.9755-1.3958 5.453-0.35855 2.4776-1.005 4.5047-1.4366 4.5047-0.43159 0-1.0615 1.4756-1.3999 3.2792-0.33835 1.8036-1.2367 4.4708-1.9964 5.9272s-1.3839 4.65-1.3871 7.0968c-3e-3 2.4468-0.37223 4.6752-0.82004 4.9519-1.2632 0.78069-2.3984 11.347-2.4543 22.843-0.0279 5.7376-0.45296 11.058-0.94458 11.822-0.49163 0.76468-1.1582 2.8985-1.4813 4.7418-0.32308 1.8433-1.0489 3.2599-1.613 3.1481-0.56408-0.11186-1.5619 1.1684-2.2173 2.8451-0.65544 1.6767-1.7225 4.3288-2.3712 5.8935-0.64874 1.5648-1.8515 6.2592-2.6727 10.432-3.6523 18.557-7.367 35.047-8.104 35.976-0.44119 0.55569-1.1062 3.5227-1.4778 6.5934-0.37162 3.0707-1.2732 7.5517-2.0035 9.9578-0.73028 2.4061-1.3389 8.2156-1.3526 12.91-0.0137 4.6944-0.33832 9.0048-0.72153 9.5787-1.6349 2.4485-5.318 3.2241-15.31 3.2241h-10.47l-1.4532 2.8102c-1.7798 3.4418-3.8466 4.0069-22.304 6.0979-14.449 1.6369-23.092 1.7404-40.305 0.48244zm-175.98-44.308c4.6679-4.907 5.7282-9.1837 4.7449-19.139-0.43788-4.4336-1.2557-13.182-1.8174-19.441-0.56166-6.2592-1.4378-13.2-1.947-15.424-0.50918-2.2243-0.93232-5.8517-0.94031-8.061-0.0212-5.8772-1.5554-7.6492-2.1471-2.48-0.2615 2.2843-0.92137 5.8603-1.4664 7.9467-2.0573 7.8759-2.8357 23.74-1.9122 38.968 0.50323 8.2983 0.7022 16.475 0.44215 18.17-0.6276 4.0911 0.78194 3.9404 5.0432-0.5392zm297.39-273.51c-3.3494-19.597-6.7472-34.999-7.8788-35.713-0.51274-0.32373-1.4551-3.1492-2.0941-6.2788-0.63899-3.1296-1.5104-6.1222-1.9365-6.6502-0.42608-0.52805-2.1044-6.2893-3.7296-12.803-1.6252-6.5135-3.6349-13.977-4.466-16.584-1.8309-5.7453-14.821-29.483-15.318-27.992-0.19426 0.5828-2.6321-1.0957-5.4174-3.7299-5.5743-5.272-7.4032-5.8226-9.0596-2.7277-1.2952 2.42-0.47349 14.347 1.0227 14.846 0.52929 0.17643 0.96234 1.1655 0.96234 2.198 0 1.9974 7.3721 24.635 9.8377 30.209 0.80757 1.8256 1.5279 2.6791 1.6006 1.8967 0.0728-0.78239 0.73492 1.3343 1.4714 4.7037 0.73648 3.3694 2.1873 7.8785 3.224 10.02 1.3835 2.858 1.885 5.8473 1.885 11.237 0 4.1395 0.37442 7.112 0.85814 6.813 0.48991-0.30278 0.63145 1.1598 0.32984 3.4085-0.4152 3.0955-0.26238 3.7745 0.71378 3.1712 0.9218-0.5697 1.1061-0.24762 0.71473 1.249-0.45416 1.7367 0.41969 2.4662 6.2948 5.2549 3.9219 1.8616 8.1192 4.7154 9.873 6.7129 3.2364 3.686 7.4806 12.31 10.907 22.162 1.1432 3.2868 2.2141 5.3262 2.3799 4.532 0.16575-0.79424-0.81305-7.9644-2.1751-15.934z" fill="param(fill)" fill-opacity="param(fill-opacity)" stroke="param(outline)" stroke-opacity="param(outline-opacity)" stroke-width="param(outline-width) 0.2"/>
</svg>
