<svg version="1.1" width="512" height="512" viewBox="0 0 512 512" xmlns="http://www.w3.org/2000/svg">
 <path d="m467.91 495.55c-10.99-10.433 17.903-28.61 7.9153-45.538-0.63745-24.095-17.658-43.256-35.794-57.147 12.86 21.496-5.8352 39.19-16.117 58.447-10.532 16.186-18.12 44.5-41.366 40.53-1.6745-20.133 28.385-30.675 30.092-53.895 18.733-23.913-7.1111-43.888-14.597-66.206-5.636-34.461-38.924 6.5239-59.218-6.0262-22.798-9.2755-47.905-10.703-72.053-13.68-9.998 9.8125-30.717 10.887-27.576 31.774-2.9354 28.762-4.6572 59.053 3.9603 87.028 2.1099 13.308-17.51 33.069-25.593 21.735 10.663-15.472-12.143-21.823-17.918-34.751-6.3258-19.191-8.6648-40.228-17.797-58.792-10.174-21.029 13.582-31.252 24.285-45.043-2.7795-9.2276-23.136-23.248-30.762-21.054-10.982-4.1709-26.783-11.901-33.54-11.614-12.385 0.0971-28.292-6.8359-37.324-16.209-6.4847-4.4214-6.1222-2.9458-14.386-11.281-6.22-4.2656-4.2786-2.7389-13.829-8.7591-9.7932-6.7352-18.161-14.081-24.227-20.373-8.7633-6.9765-13.589-29.592-33.432-30.943-22.505-21.234 4.5274-36.424 25.084-39.519 16.319-3.6794 6.2358-28.41 26.832-15.384-7.488-18.978-41.86-21.233-49.787-44.476-4.9828-9.6425-6.6005-31.009-0.05488-8.9564 9.7861 19.814 33.125 33.927 54.347 36.402-16.154-14.987-31.927-35.703-22.744-58.867 1.3867 5.8073 0.17639 31.706 13.142 39.173 19.585 30.136 1.8749-48.061 11.472-13.69-4.7827 25.515 13.682 37.974 32.578 19.198 8.824-4.7192 9.8106-13.912 11.241-22.805 2.5221-15.389-9.7115-32.423 1.2436-46.671-6.2246 17.433 11.002 64.67 20.174 23.91 7.4962-27.258-19.467-51.85-10.897-79.169 2.0364 22.879 11.403 45.427 22.152 65.253 28.378 4.7703 12.226-32.246 19.176-40.608-2.8308 24.84 17.718 46.856 35.915 20.298-14.325 11.204-2.4411 22.215 6.9716 20.057-4.5708 5.5488 12.643 11.873-3.4792 7.5966-12.494-5.3178-22.967-8.8691-15.127 8.3622-0.0707 12.461 0.24456 36.878 16.117 18.417 30.015-21.529 31.075-62.495 26.692-95.776-2.0237-29.739 8.1019 18.819 7.9186 28.428 2.0741 17.109-13.099 51.518 17.958 43.378 13.17 5.7823 35.884-26.806 35.187-15.066-18.263 20.43 21.81 18.04 24.762 21.773-11.051 7.022 24.509 19.067-1.3256 12.848-21.887-14.764-47.82-11.128-72.385-7.6122-23.696 5.624-36.663 31.347-57.828 43.023-19.806 13.313-43.963 18.191-67.233 21.473-11.047 23.717 25.588 25.815 40.607 26.232 22.489 1.6633 45.053 0.65126 66.992-5.9264 25.84-2.2234 48.739 14.515 74.277 16.993 31.635 7.1835 63.661 11.949 96.158 12.302 26.739 2.0449 51.117 16.213 73.535 29.994 5.2128 16.09-6.8458 39.174-12.819 56.968-3.6382 23.641-9.1483 50.168 0.44901 72.85 21.556 17.572 25.218 42.597 26.48 68.908 3.8737 15.445-1.5577 48.791-24.501 42.485zm-240.73-38.908c-1.5122-22.448-14.915-42.909-9.3833-65.771-2.1728-29.554-28.773 16.415-14.904 29.53 0.0543 19.287 12.683 30.251 24.119 40.741zm-138.1-282.82c-5.8729-4.0629 1.6988 5.826 0 0zm57.581-15.077c22.537-4.7847 43.97-20.326 45.109-45.183 4.9274-18.079-4.2529-31.777-22.132-18.488-25.97 3.1847-22.907 35.706-39.558 50.549-10.442 6.5092-19.811 20.27-1.6755 15.569 6.1274-0.34901 12.303-0.87023 18.256-2.4478z" fill="param(fill)" fill-opacity="param(fill-opacity)" stroke="param(outline)" stroke-opacity="param(outline-opacity)" stroke-width="param(outline-width) 0.2"/>
</svg>
