<svg version="1.1" width="512" height="512" viewBox="0 0 512 512" xmlns="http://www.w3.org/2000/svg">
 <path d="m160.24 499.73c1.5728-16.039 33.442-19.702 30.279-42.963 2.7068-14.892 7.8742-29.998 4.2347-45.166-0.70087-24.052 3.8546-48.534-5.7465-71.885-4.4556-9.9654 2.4696-24.168-7.2179-31.301-12.347-14.553-24.715-30.85-31.827-48.211-2.5442-11.407-22.191-25.991-24.065-33.004 4.9674 14.645-13.527 38.514-20.805 15.008 4.2855-22.472-21.084-27.064-27.088-47.145-11.132-5.3623-19.522 12.347-30.556 1.0292-20.351 1.4326-23.154-12.628-14.451-29.243 9.1705-24.15 37.62-24.798 59.124-28.102 26.784-8.4626-18.18-9.2198-28.26-13.939-23.688 0.30863-40.9-26.405-30.731-47.969-0.33839-9.9883 9.7618-21.772 6.0406-3.885-5.9326 13.377 3.5836 37.639 15.09 34.948-13.319-4.129-14.661-45.469-3.6439-37.092-4.1448 10.183 13.429 38.437 13.901 17.062-12.005-8.2576-15.03-52.087-1.781-21.863 2.7017 13.991 9.2789-13.767 11.201 3.8985-6.9848 21.281 18.36 12.116 8.1746-5.0646-0.10787-33.346 9.5845 26.182 19.352 7.6252-3.3317-8.9191-0.80376-27.577 5.4347-9.3778-1.7892-8.9737 10.92-35.308 8.6916-11.717-3.6772 18.376 9.1703 13.36 15.329 2.3639 4.8407 13.91 14.36-7.3267 17.768 8.5763 10.074-13.032 10.101 16.864 14.804-4.4111 12.738-23.7-3.7043 14.389 11.963 9.4925-3.6381 7.0572-17.633 14.677-1.2894 12.809 8.8305 6.9545-7.1666 42.6 8.3332 21.329 4.625-13.408 1.418-41.642 16.219-43.477-8.2614 8.963-4.5512 50.63 6.3791 22.988 9.7496-21.2-4.3704-47.062 9.0056-67.257 17.797-11.726-4.521 19.865 2.6425 29.756-1.5326 19.454 13.999 38.108 23.993 11.986 7.4472-10.116 9.7109-46.105 17.952-42.615 2.0545 14.986-9.8164 34.575-5.599 47.463 19.461-2.8629 22.05-33.333 25.962-42.852 7.1024 12.144-0.13354 28.987 10.03 31.717-6.429 2.5679 17.557 0.85966 1.2235 8.2144-8.8694 2.6331 11.837 9.7166-5.0384 10.574-22.639 21.209-51.852 32.636-79.767 44.599-7.1815 8.1137-34.421 18.224-11.419 21.643 6.1255 17.887 38.441-2.508 50.926 13.277 12.874 3.4216 19.759 11.857 27.771 13.443 10.421 15.35 38.384 18.608 57.892 18.502 32.16-2.5959 65.908-4.9124 95.584 10.533 12.226 2.5016 27.999 18.682 14.786 25.553 15.701 21.458 6.013 44.776 2.2133 67.876-1.9259 23.874 14.599 42.374 25.438 61.886 5.0971 23.218 4.6212 47.704 10.02 71.081-0.45122 18.739 10.031 45.511 5.4869 58.59-7.3841 9.2756-20.209 30.823-33.333 17.089-6.253-10.224 16.212-13.593 13.271-26.422 4.5578-21.73 1.963-44.709-1.7513-66.411-9.7886-20.391-19.366-41.536-35.372-58.1-9.72-11.807-31.455-59.492-43.304-26-2.6618 20.972 0.86799 42.663-0.78782 63.494-15.537 26.375-20.386 56.913-29.909 85.528 0.44372 24.332-19.3 23.248-36.431 34.939-31.188-11.475 14.681-19.555 18.778-35.85 12.592-22.337 16.856-48.573 19.717-73.445-1.0561-25.053-4.0344-50.006-7.001-74.921-19.058 9.1992-39.566 15.788-61.005 13.987-12.519-3.3906-5.4169 14.52-8.3842 21.313 1.5928 25.957 5.227 52.168 10.565 77.647 3.7402 16.741 20.244 43.15 13.28 55.027-6.2523 10.413-23.973 24.935-37.989 13.188 20.629-14.292 22.542-35.753 14.386-58.227-1.9088-23.146-22.812-38.314-23.038-61.849-4.7307-19.185-10.094-53.438-29.479-57.495-2.1867 28.312-4.2614 56.812-11.223 84.381-12.736 20.464-8.2816 46.033-11.098 69.018 0.33919 10.38 0.96115 25.117-12.338 18.754-4.3743 12.434-21.644 9.8854-31.511 9.0696zm-43.915-379.21c-1.8175-14.808-16.371-13.809-5.5012-0.32407l2.7418 0.82592zm28.859-17.077c6.5114-10.064 8.444-21.515-5.7599-9.7424 0.96791 2.1435 3.281 21.051 5.7599 9.7424z" fill="param(fill)" fill-opacity="param(fill-opacity)" stroke="param(outline)" stroke-opacity="param(outline-opacity)" stroke-width="param(outline-width) 0.2"/>
</svg>
