<svg version="1.1" width="512" height="512" viewBox="0 0 512 512" xmlns="http://www.w3.org/2000/svg">
 <path d="m437.68 405.57c15.851-1.9674 32.403-8.3513 42.647-16.449 13.489-10.662 24.528-32.189 24.528-47.831 0-13.9-6.4154-30.74-17.22-45.2-9.8574-13.193-29.73-30.852-46.163-41.022l-5.4568-3.377-0.54694-13.822c-0.4598-11.62-1.1119-15.993-4.093-27.451-5.1684-19.866-8.6262-29.71-15.046-42.836-20.051-40.997-54.242-65.121-98.893-69.775-19.342-2.0162-41.044 1.2765-61.684 9.3588-8.2225 3.2198-10.51 3.6655-23.157 4.5126-32.414 2.171-46.481 8.7622-70.456 33.013l-13.17 13.322-8.4099 0.64643c-4.6254 0.35554-9.0294 0.88417-9.7866 1.1747-0.91965 0.3529-6.1404-5.4651-15.725-17.523-9.9399-12.506-14.94-18.052-16.275-18.052-5.3648 0-11.569 14.823-11.569 27.641 0 12.774 7.3521 34.369 12.95 38.037l2.4113 1.58-3.2409 7.6843c-1.7825 4.2264-5.1978 13.571-7.5896 20.765-2.3918 7.1942-5.4157 14.78-6.7198 16.856-2.7121 4.3188-7.298 15.432-8.1727 19.806-0.3249 1.6245-1.0651 2.9536-1.6449 2.9536s-2.825-1.6414-4.9894-3.6475c-3.0127-2.7924-2.7941-2.4173 0.9325 1.6 2.787 3.0044 4.0806 4.9701 3.0263 4.5987-1.4007-0.49343-1.6072-0.35209-0.86286 0.59052 0.5382 0.68156 0.96524 2.0122 0.94899 2.957-0.03242 1.8829-1.7794 1.6434-6.8537-0.93938-1.5222-0.77483-2.9594-1.2171-3.1936-0.98285-0.23426 0.23426 1.7779 1.374 4.4714 2.5327 5.8777 2.5285 6.5752 4.5054 0.88076 2.4962-5.8105-2.0501-5.9603-1.6407-0.36437 0.99545 2.9139 1.3727 4.1092 2.3256 2.9779 2.3741-1.7519 0.0752-1.7684 0.16984-0.22612 1.298 1.0505 0.76843 1.8862 3.1904 2.2674 6.5714 0.33209 2.945 1.0094 6.1446 1.5052 7.1103 1.4015 2.73 6.752 5.5402 10.513 5.5216 4.2429-0.021 16.074-4.1254 19.771-6.8588l2.7644-2.0438 3.7205 2.5783c9.0134 6.2463 20.237 17.159 26.601 25.865 1.6791 2.2969 1.6791 2.2633 0-0.87595-2.3633-4.4185-13.793-16.073-22.501-22.944-13.417-10.587-4.3761-6.8129 10.458 4.3649 4.2694 3.2171 10.268 8.5718 13.33 11.899 3.0622 3.3275 4.6118 4.6592 3.4436 2.9593-4.2-6.1116-20.563-19.499-32.153-26.305-0.2-0.11746-0.10023-0.90002 0.22172-1.739 0.49498-1.2899 1.6557-0.98645 7.5162 1.9649 3.812 1.9197 6.7033 3.1221 6.4252 2.6721-0.27813-0.45003-3.1682-2.0908-6.4224-3.6462-5.7694-2.7575-8.1072-5.2013-3.7263-3.8952 2.1548 0.64244 2.1588 0.62818 0.24338-0.87698l-1.9471-1.53 1.9471-0.0458c1.4908-0.0351 1.6327-0.24503 0.60543-0.89566-1.8729-1.1863-0.46883-3.0146 2.3152-3.0146 1.2754 0 2.6177-0.48336 2.9828-1.0742 0.44548-0.72081 2.7861-0.85487 7.1156-0.40752 7.8426 0.81034 29.506 5.2882 30.62 6.3295 1.094 1.0219-7.6212 2.2518-10.187 1.4375-1.3818-0.43857-1.8378-0.29911-1.3901 0.42521 0.39626 0.64116-0.0706 1.0778-1.1523 1.0778-1.0002 0-2.6689 0.64321-3.7082 1.4294-1.0394 0.78613-2.6427 1.4433-3.5629 1.4603-1.0774 0.02-1.4748 0.54799-1.1159 1.4831 0.99732 2.599-2.255 2.6322-7.3022 0.0746-2.7136-1.3751-5.277-2.4879-5.6964-2.4728-0.78403 0.0281 9.1979 5.8728 13.11 7.6765 2.1075 0.97157 2.8551 2.9895 1.5799 4.2647-0.33583 0.33583-2.4168-0.62155-4.6243-2.1275-3.9744-2.7113-9.3332-5.7214-8.3947-4.7153 0.26772 0.28698 3.8669 2.7775 7.9982 5.5344 4.1313 2.7569 9.5592 7.291 12.062 10.076 2.5027 2.7847 3.6531 3.7488 2.5563 2.1424-1.0968-1.6064-3.3484-4.2074-5.0037-5.78-3.8357-3.6443-3.8057-4.78 0.11112-4.2052 2.3264 0.34144 3.5923-0.0641 4.9736-1.5932 1.8371-2.0338 1.8389-2.0279 0.21271 0.70467-0.90206 1.5157-1.4055 3.3674-1.1186 4.1148 0.44181 1.1513 0.93647 1.1577 3.238 0.0414 5.4686-2.6523 11.559-5.2372 14.765-6.2667l3.2863-1.0554-0.48947 4.3425c-0.26921 2.3884-0.30248 4.3425-0.0739 4.3425 3.3046 0 11.638-8.1652 14.941-14.64 1.4267-2.7966 2.5-3.8462 3.5292-3.4513 0.81338 0.31216 6.4812 0.56755 12.595 0.56755s11.116 0.35064 11.116 0.7792c0 0.42857-2.2452 3.2982-4.9892 6.377-6.1146 6.8605-15.751 12.038-25.097 13.484-7.5139 1.1629-10.837 2.6844-13.637 6.2438-2.7204 3.4585-2.5613 4.4218 0.53583 3.2442 3.1428-1.1949 3.7534-0.71949 2.3777 1.851-0.57883 1.0816-1.0524 2.9591-1.0524 4.1723 0 1.7156 0.25962 1.9462 1.1683 1.0375 0.64253-0.64254 2.2509-1.1682 3.5741-1.1682s3.207-0.72504 4.1862-1.6112c0.9792-0.88615 1.7804-1.1311 1.7804-0.54422s-0.43809 1.3377-0.97354 1.6687c-0.53545 0.33092-0.97354 1.6507-0.97354 2.9328 0 2.2057 0.144 2.262 2.6772 1.0453 9.6336-4.6269 11.65-5.4435 13.435-5.4411 1.0977 2e-3 2.5215-0.52301 3.164-1.1656 0.90864-0.90864 1.1682-0.01 1.1682 4.0451 0 4.8735 0.11106 5.1179 1.7037 3.7501 0.93704-0.80478 2.4575-1.7302 3.3789-2.0565 2.4012-0.85036 10.28-11.888 11.491-16.098 0.71202-2.4753 2.6554-4.8991 6.369-7.9432 2.9394-2.4095 7.8128-6.4486 10.83-8.9756 3.017-2.5271 9.4257-6.8687 14.241-9.648 7.8097-4.5073 9.5022-5.1003 15.662-5.4874 6.9517-0.4369 24.603 1.9907 26.219 3.6058 0.87001 0.87001-2.3625 1.5048-12.985 2.5499-7.5567 0.74348-12.623 2.8122-20.614 8.4174-3.2742 2.2967-7.3083 4.6156-8.9647 5.1532s-3.162 1.7613-3.3457 2.7194c-0.27674 1.4433 0.11251 1.6299 2.2701 1.0884l2.6041-0.65358-1.5518 3.0008c-2.6861 5.1943-2.099 6.011 2.6526 3.6904 2.3124-1.1293 5.9267-3.4036 8.0317-5.0539 6.2026-4.8628 6.5298-4.7674 3.4494 1.0052-1.613 3.0226-2.6842 6.1431-2.3806 6.9344 0.63123 1.645 1.0887 1.3729 7.8479-4.668 2.2637-2.0231 4.6829-3.6784 5.3761-3.6784s2.8777-1.3332 4.8545-2.9627l3.5942-2.9627-2.3989 5.4243c-2.3088 5.2206-3.021 9.2898-1.8338 10.477 0.66144 0.66143 6.4207-5.5737 8.0905-8.7591 0.78817-1.5035 2.0331-2.1905 3.9695-2.1905 2.1628 0 3.659-1.0224 6.4111-4.381 1.9744-2.4095 4.1079-4.3809 4.7411-4.3809 0.63319 0 3.0177-1.3726 5.2989-3.0502l4.1477-3.0502 10.794 3.1101c5.9364 1.7105 13.306 4.3786 16.378 5.929s7.6055 3.3279 10.076 3.9499c2.4705 0.62206 4.4918 1.4878 4.4918 1.9238 0 1.367-8.0486 7.4601-13.415 10.155-3.7385 1.8778-7.7161 2.8448-14.597 3.5487-10.589 1.0833-15.094 2.7587-23.756 8.8347-3.2741 2.2967-7.3083 4.6156-8.9647 5.1532-3.9472 1.281-4.7773 4.3547-0.97995 3.6288 2.5981-0.49667 2.613-0.47044 1.0207 1.8029-0.88871 1.2688-1.6158 3.243-1.6158 4.387v2.0801l4.1944-2.0533c2.3069-1.1293 6.1854-3.6962 8.6188-5.7041s4.6961-3.6508 5.0283-3.6508-0.80819 2.6013-2.5341 5.7806c-2.2991 4.2352-2.85 6.0719-2.0603 6.8703 0.79246 0.80129 2.5036-0.21342 6.4645-3.8335 2.9627-2.7078 5.9195-4.9232 6.5705-4.9232 0.65105 0 2.9331-1.3855 5.0712-3.079l3.8875-3.079-2.5305 4.9937c-2.4192 4.7742-3.4016 10.9-1.7479 10.9 1.0934 0 6.5394-5.8748 7.8968-8.5185 0.77471-1.509 2.0024-2.1905 3.9458-2.1905 2.1628 0 3.659-1.0224 6.411-4.3809 1.9744-2.4095 4.0941-4.381 4.7104-4.381 0.61627 0 4.1778-2.2334 7.9144-4.9631 3.7367-2.7297 11.304-7.1259 16.816-9.7693 5.5123-2.6434 10.297-5.5215 10.632-6.3958 0.41823-1.0899-0.58407-2.5921-3.1882-4.7784-4.4378-3.7258-4.7894-3.5079 9.2955-5.7595 17.221-2.7529 33.797-8.34 41.935-14.135l2.8586-2.0355 7.8093 4.6453c17.306 10.294 34.826 25.585 42.844 37.392 14.853 21.873 12.96 43.885-5.3211 61.872-8.2992 8.1656-18.207 13.469-31.702 16.969-11.764 3.0513-38.473 3.7601-56.28 1.4936-33.664-4.2848-70.487-14.588-112.89-31.585-14.324-5.7423-22.239-7.4898-21.47-4.7402 0.42411 1.5158 20.063 11.31 38.764 19.331 36.233 15.542 70.571 25.796 102.5 30.611 12.378 1.8662 35.79 2.5709 45.475 1.3688zm-297.9-118.73c0-0.53545 0.65714-0.97354 1.4603-0.97354 0.80317 0 1.4603 0.43809 1.4603 0.97354s-0.65714 0.97355-1.4603 0.97355c-0.80318 0-1.4603-0.4381-1.4603-0.97355zm4.7844 36.021c0.0294-0.80317-0.37115-2.1174-0.8902-2.9206-1.1501-1.7796-1.1501-0.2425 0 2.4339 0.55168 1.2838 0.85491 1.4497 0.8902 0.48677zm5.8477-2.515c-0.0467-1.1341-0.2774-1.3648-0.58818-0.58819-0.28122 0.70278-0.24664 1.5425 0.0768 1.866 0.3235 0.32349 0.55359-0.25151 0.51132-1.2778zm-0.89668-2.7256c0-1.0448-2.8967-6.442-3.4574-6.442-0.26772 0 0.23734 1.4238 1.1224 3.164 1.8071 3.5533 2.335 4.2944 2.335 3.2779zm-6.8148-0.54323c0-0.50385-0.43308-1.1838-0.96239-1.5109-0.55187-0.34107-0.71507 0.0497-0.38262 0.91609 0.64721 1.6866 1.345 1.9952 1.345 0.59479zm13.63-13.167c0-1.0185-3.9094-7.3354-4.5398-7.3354-0.26772 0 0.50123 1.6428 1.7088 3.6508 2.6899 4.4728 2.831 4.6564 2.831 3.6846zm-20.444-23.886c-0.80318-0.51906-1.8984-0.94373-2.4339-0.94373s-0.3164 0.42467 0.48677 0.94373c0.80317 0.51905 1.8984 0.94372 2.4339 0.94372s0.3164-0.42467-0.48677-0.94372zm-12.656-0.97355c-0.80317-0.51905-1.8984-0.94372-2.4339-0.94372s-0.3164 0.42467 0.48677 0.94372c0.80318 0.51906 1.8984 0.94373 2.4339 0.94373s0.3164-0.42467-0.48677-0.94373zm12.839-6.5063c-0.70277-0.28123-1.5425-0.24665-1.866 0.0768-0.3235 0.3235 0.2515 0.55359 1.2778 0.51132 1.1341-0.0467 1.3648-0.2774 0.58819-0.58817zm-4.8677-0.97355c-0.70277-0.28123-1.5425-0.24664-1.866 0.0768-0.3235 0.3235 0.2515 0.5536 1.2778 0.51133 1.1341-0.0467 1.3648-0.2774 0.58819-0.58818zm-62.307 0c-0.70277-0.28123-1.5425-0.24664-1.866 0.0768-0.3235 0.3235 0.2515 0.5536 1.2778 0.51133 1.1341-0.0467 1.3648-0.2774 0.58818-0.58818zm57.5-0.95326c-0.66931-0.27007-1.7646-0.27007-2.4339 0s-0.12169 0.49104 1.2169 0.49104 1.8862-0.22097 1.2169-0.49104zm-62.063-0.32879c-1.0709-0.46018-2.8233-0.82381-3.8942-0.80807-1.5653 0.023-1.4698 0.18147 0.48677 0.80807 3.3287 1.066 5.8882 1.066 3.4074 0zm-54.753-0.57659c0.31713-0.31712 2.252-1.1741 4.2998-1.9044 2.0693-0.73794 2.8583-1.3286 1.7761-1.3297-2.0154-2e-3 -9.5787 3.6974-7.7072 3.7698 0.58008 0.0225 1.3141-0.21866 1.6313-0.53578zm46.478-1.3705c-1.3386-0.4287-3.5291-0.77129-4.8677-0.76133-2.1862 0.0163-2.1367 0.0938 0.48677 0.76133 1.6063 0.40874 3.7968 0.75134 4.8677 0.76132 1.5257 0.0142 1.4204-0.15054-0.48677-0.76132zm6.8148-1.7828c-0.80317-0.49624-2.5556-1.1952-3.8942-1.5533-1.6915-0.45246-1.9885-0.37582-0.97354 0.25125 0.80317 0.49624 2.5556 1.1952 3.8942 1.5533 1.6915 0.45245 1.9885 0.37581 0.97354-0.25126zm-15.839 0.13465c-0.94723-0.24684-2.2615-0.23061-2.9206 0.0361-0.65912 0.26669 0.11588 0.46864 1.7222 0.4488 1.6063-0.0199 2.1456-0.23803 1.1984-0.48487zm-6.8097-0.99749c-1.4798-0.22378-3.6703-0.21779-4.8677 0.0132-1.1974 0.23108 0.01344 0.41417 2.6906 0.40687 2.6772-8e-3 3.6569-0.19639 2.1771-0.42016zm-17.035 0.01c-1.211-0.23286-2.9634-0.22402-3.8942 0.0197-0.9308 0.24366 0.06007 0.4342 2.2018 0.42339 2.1418-0.0108 2.9034-0.21018 1.6923-0.44304zm50.311-0.6399c-0.22311-0.1952-1.5009-0.8765-2.8395-1.514-2.2949-1.0929-2.326-1.0727-0.54408 0.3549 1.5509 1.2425 4.7196 2.328 3.3836 1.1591zm-11.601-2.5657c-0.80317-0.51905-1.8984-0.94372-2.4339-0.94372s-0.3164 0.42467 0.48677 0.94372c0.80317 0.51906 1.8984 0.94373 2.4339 0.94373s0.3164-0.42467-0.48677-0.94373zm-13.63-1.0139c-2.945-0.98325-6.2307-1.7833-7.3016-1.7778-1.0709 6e-3 0.90053 0.83947 4.3809 1.8534 8.0215 2.3369 9.9934 2.2859 2.9206-0.0756zm8.7619-0.7689c-0.80317-0.49624-2.5556-1.1952-3.8942-1.5533-1.6915-0.45245-1.9885-0.37581-0.97354 0.25126 0.80317 0.49624 2.5556 1.1952 3.8942 1.5533 1.6915 0.45245 1.9885 0.37581 0.97354-0.25126zm-44.296-1.1378c1.2839-0.55168 1.4497-0.85491 0.48677-0.8902-0.80317-0.0294-2.1175 0.37115-2.9206 0.8902-1.7796 1.1501-0.2425 1.1501 2.4339 0zm54.518-1.4508c-2.1751-1.8078-8.3426-5.1418-6.8148-3.684 0.53545 0.51093 2.7259 1.913 4.8677 3.1156 2.1418 1.2026 3.018 1.4584 1.9471 0.56839zm-29.45 0.80601c-0.66931-0.27008-1.7645-0.27008-2.4339 0-0.66931 0.27007-0.12169 0.49104 1.2169 0.49104 1.3386 0 1.8862-0.22097 1.2169-0.49104zm-8.7945-1.0476c-2.8291-0.19729-7.21-0.19522-9.7354 5e-3 -2.5254 0.19982-0.21075 0.36123 5.1437 0.3587 5.3545-3e-3 7.4208-0.16602 4.5917-0.3633zm27.048-1.715c-1.3386-0.76522-2.872-1.3913-3.4074-1.3913s0.12169 0.6261 1.4603 1.3913c1.3386 0.76523 2.872 1.3913 3.4074 1.3913s-0.12169-0.62609-1.4603-1.3913zm-13.143-0.48677c-1.0709-0.46019-2.6042-0.83669-3.4074-0.83669-0.92047 0-0.74052 0.3093 0.48677 0.83669 1.0709 0.46018 2.6042 0.83669 3.4074 0.83669 0.92047 0 0.74052-0.3093-0.48677-0.83669zm-31.45-0.51459c0.28302-0.28303 2.437-0.92811 4.7866-1.4335l4.272-0.91896-4.2554 0.38317c-2.3405 0.21074-4.7281 0.85583-5.3058 1.4335-0.57771 0.57771-0.81673 1.0504-0.53116 1.0504 0.28558 0 0.75079-0.23157 1.0338-0.51459zm38.752-1.4325c-0.80317-0.51905-1.8984-0.94372-2.4339-0.94372s-0.3164 0.42467 0.48677 0.94372c0.80317 0.51906 1.8984 0.94373 2.4339 0.94373 0.53545 0 0.3164-0.42467-0.48677-0.94373zm-13.386 0.32879c-0.66931-0.27007-1.7645-0.27007-2.4339 0-0.66931 0.27007-0.12169 0.49104 1.2169 0.49104 1.3386 0 1.8862-0.22097 1.2169-0.49104zm22.148-0.80842c0-0.65951-7.9077-4.5933-8.3481-4.1528-0.20408 0.2041 1.5908 1.3242 3.9885 2.4891 2.3978 1.1649 4.3596 1.9136 4.3596 1.6637zm-28.001-0.20892c-1.211-0.23286-2.9634-0.22402-3.8942 0.0197-0.9308 0.24367 0.06007 0.4342 2.2018 0.42339 2.1418-0.0108 2.9034-0.21017 1.6924-0.44304zm34.513-0.95999c-0.81837-1.3241-8.4596-7.4895-8.4596-6.8257 0 0.24822 2.0605 2.1398 4.579 4.2034 2.5184 2.0637 4.2647 3.2437 3.8807 2.6222zm-25.801-1.9371c-0.70277-0.28122-1.5425-0.24664-1.866 0.0768-0.3235 0.3235 0.2515 0.55359 1.2778 0.51132 1.1341-0.0467 1.3648-0.2774 0.58819-0.58817zm-3.8942-0.97354c-0.70277-0.28123-1.5425-0.24665-1.866 0.0768-0.3235 0.3235 0.25151 0.5536 1.2778 0.51133 1.1341-0.0467 1.3648-0.2774 0.58819-0.58818zm12.474-1.282c-0.80317-0.51905-1.8984-0.94372-2.4339-0.94372s-0.3164 0.42467 0.48677 0.94372c0.80317 0.51906 1.8984 0.94372 2.4339 0.94372s0.3164-0.42466-0.48677-0.94372zm-19.253 0.25945c-2.2898-0.20565-5.7946-0.20276-7.7883 7e-3 -1.9938 0.20919-0.1203 0.37746 4.1633 0.37392 4.2836-4e-3 5.9149-0.17469 3.6251-0.38035zm7.8141-3.8248c-0.66931-0.27007-1.7645-0.27007-2.4339 0-0.66931 0.27007-0.12169 0.49105 1.2169 0.49105 1.3386 0 1.8862-0.22098 1.2169-0.49105zm-7.8492-0.0202c-0.70277-0.28123-1.5425-0.24665-1.866 0.0768-0.3235 0.3235 0.25151 0.5536 1.2778 0.51133 1.1341-0.0467 1.3648-0.2774 0.58819-0.58818zm24.156-1.7003c0-0.26772-0.87619-0.9557-1.9471-1.5288-1.0709-0.57313-1.9471-0.82301-1.9471-0.55528 0 0.26772 0.87619 0.95569 1.9471 1.5288 1.0709 0.57312 1.9471 0.823 1.9471 0.55528zm-9.7354-5.423c-0.80317-0.51905-1.8984-0.94372-2.4339-0.94372s-0.3164 0.42467 0.48677 0.94372c0.80317 0.51906 1.8984 0.94373 2.4339 0.94373s0.3164-0.42467-0.48677-0.94373zm-4.6852-1.6386c-0.70277-0.28123-1.5425-0.24665-1.866 0.0768-0.3235 0.3235 0.2515 0.5536 1.2778 0.51133 1.1341-0.0467 1.3648-0.2774 0.58819-0.58818z" fill="param(fill)" fill-opacity="param(fill-opacity)" stroke="param(outline)" stroke-opacity="param(outline-opacity)" stroke-width="param(outline-width) 0.2"/>
</svg>
