<svg version="1.1" width="512" height="512"  viewBox="0 0 512 512" xmlns="http://www.w3.org/2000/svg">
 <path d="m431.56 394.11c31.091-3.973 53.012-17.967 64.485-41.167 11.421-23.095 8.9286-45.108-7.9577-70.277-9.9266-14.795-30.487-33.933-49.48-46.057l-7.8932-5.0383-1.1323-16.891c-1.041-15.529-1.5562-18.319-6.3875-34.593-5.7617-19.408-8.5902-26.895-14.914-39.473-21.734-43.227-58.992-68.288-107.04-72-28.093-2.1704-71.131 9.112-111.42 29.209-10.84 5.4073-16.731 7.732-20.885 8.2418-10.947 1.3435-20.503 7.1703-28.61 17.446-6.2441 7.9141-10.211 9.2183-32.307 10.623-1.596 0.10145-5.9132-4.5786-16.925-18.347-11.838-14.802-15.285-18.483-17.306-18.483-5.4588 0-10.933 12.119-11.774 26.066-0.60602 10.046 1.7105 21.398 6.5813 32.251l2.768 6.1679-6.0805 5.5046c-25.17 22.787-30.588 28.77-32.831 36.257-1.0196 3.4032-0.9369 4.4525 0.52724 6.6871 0.95514 1.4578 2.2062 2.6504 2.7802 2.6504 0.57396 0 4.1028 2.846 7.8418 6.3244 7.748 7.208 11.749 9.2083 18.863 9.4297 2.7528 0.0857 5.6808 0.67619 6.5066 1.3123 1.1437 0.88089 1.3152 0.84631 0.71952-0.14513-1.0596-1.7637 4.6744-1.7637 6.5745 0 1.1219 1.0413 1.2554 1.0413 0.66747 0-1.2548-2.2225 2.6916-1.4836 5.5613 1.0413l2.6629 2.3429-1.9762-2.3429c-1.973-2.3391-1.9716-2.3429 0.83232-2.3429 4.9236 0 17.708 3.0294 34.667 8.2148 9.0607 2.7703 19.754 5.8538 23.763 6.8522 4.009 0.99839 7.9493 2.0136 8.7561 2.256 1.0868 0.32652 0.72984 1.2101-1.3774 3.4096-4.109 4.2889-11.79 8.1381-17.792 8.9165-8.0923 1.0495-13.299 3.3526-15.85 7.0103-2.7452 3.9371-2.5603 4.367 1.2546 2.9166 2.6974-1.0256 2.8298-0.94695 2.143 1.2725-2.1577 6.9721-2.1343 7.0539 1.6668 5.8225 1.923-0.62303 4.3101-1.5386 5.3046-2.0345 2.6885-1.3408 3.066-1.1166 1.873 1.1124-2.426 4.533-1.4545 5.218 4.2996 3.0316 2.9576-1.1238 6.342-2.7188 7.5208-3.5445 1.1788-0.82567 3.1168-1.5012 4.3066-1.5012 1.1898 0 2.786-0.58573 3.5471-1.3016 1.1443-1.0764 1.2789-0.3555 0.77797 4.1652-0.61644 5.5628 0.0934 6.7082 2.42 3.9049 0.71298-0.85908 1.8601-1.562 2.5492-1.562 2.867 0 13.07-15.034 13.07-19.259 0-1.21 1.5229-3.6264 3.3842-5.37l3.3842-3.17 14.058 1.3341c7.7317 0.73375 14.221 1.3655 14.421 1.4038 0.46746 0.0896-9.3718 11.734-14.873 17.602-5.5823 5.954-15.799 10.987-25.449 12.536-8.403 1.3495-9.8876 2.104-14.171 7.2023-3.4516 4.108-2.9336 5.1351 1.4472 2.8696 3.5-1.8099 4.0911-1.0783 1.6918 2.0939-0.84085 1.1117-1.5437 3.133-1.562 4.4917-0.027 2.0119 0.24005 2.2437 1.4386 1.249 0.80943-0.67177 2.7864-1.4598 4.3932-1.7512 1.6068-0.29137 3.5331-1.0374 4.2806-1.6578 0.74753-0.62039 1.6954-0.79176 2.1063-0.38084s-0.069 1.2039-1.0665 1.7621c-0.99749 0.55822-1.8136 2.1413-1.8136 3.518 0 2.3884 0.13121 2.4366 2.8636 1.0512 9.8202-4.9788 13.981-6.7817 15.652-6.7817 1.0414 0 2.4847-0.58574 3.2073-1.3016 1.0567-1.0469 1.1725-0.2279 0.59203 4.1858l-0.72174 5.4874 4.2775-2.2832c4.5396-2.4231 11.784-11.67 14.002-17.872 2.1723-6.075 20.04-20.644 33.512-27.326 6.2848-3.117 12.103-5.6672 12.929-5.6672 0.82627 0-0.45001 1.8024-2.8362 4.0052-2.5236 2.3298-4.3385 4.9492-4.3385 6.2618 0 2.1772 0.12886 2.2027 3.6655 0.725 2.016-0.84234 4.6975-2.2544 5.9589-3.1379 1.2614-0.88349 3.712-1.6229 5.4459-1.6432 1.7339-0.0202 4.324-0.70656 5.7558-1.5251 4.0651-2.3238 4.7981-1.826 1.9165 1.3016-4.1325 4.4853-6.0817 7.8103-6.0817 10.375 0 2.3496 0.0266 2.3455 5.0974-0.77454 2.8036-1.7251 5.6687-3.8248 6.367-4.6662 0.80423-0.96904 2.1902-1.2986 3.7816-0.8992 1.7378 0.43614 3.7804-0.20889 6.627-2.0927 2.2632-1.4977 4.7988-2.7232 5.6346-2.7232 3.661 0 35.078 9.7473 41.218 12.788l6.7685 3.352-8.2492 0.30735c-6.0388 0.225-10.128-0.26328-15.261-1.8223-8.5147-2.5862-16.755-2.7108-25.281-0.38222-3.519 0.96107-8.4654 1.7811-10.992 1.8223-4.92 0.0801-6.8909 2.0188-3.0686 3.0184l2.315 0.60539-2.7931 2.7931c-1.5362 1.5362-2.7931 3.1206-2.7931 3.5209 0 1.2692 9.6892 0.38634 15.099-1.3758 7.564-2.464 7.8339-2.172 2.3429 2.5344-6.2368 5.3457-6.4777 7.2018-0.80001 6.1636 2.2804-0.417 4.8216-1.3187 5.647-2.0038 0.82548-0.6851 3.5284-1.3704 6.0065-1.523 2.4781-0.15258 5.9114-0.65962 7.6296-1.1267 3.0229-0.82186 2.964-0.68974-1.8223 4.0859-2.7204 2.7144-4.9462 5.8261-4.9462 6.9149 0 2.1111 1.5362 2.6648 2.6033 0.93835 0.35397-0.57272 1.4359-1.0436 2.4044-1.0465 0.96845-3e-3 3.1566-1.122 4.8626-2.4869 2.2958-1.8369 3.6802-2.2618 5.3277-1.6355 1.5813 0.60123 3.8493 0.054 7.8319-1.8896 3.0833-1.5047 6.7774-2.7942 8.2092-2.8654 1.4318-0.0712 7.0548-1.154 12.496-2.4062 5.4408-1.2522 14.338-2.6217 19.773-3.0434 11.472-0.89032 12.231-1.7271 7.7321-8.5256-1.55-2.3422-2.5973-4.4793-2.3274-4.7491 0.26986-0.26988 6.3129-1.4662 13.429-2.6584 15.663-2.6243 32.67-8.0705 40.838-13.078l6.0328-3.6984 6.9844 4.1493c40.018 23.774 60.944 52.442 56.434 77.313-3.015 16.627-16.052 32.391-33.551 40.573-37.91 17.723-107.71 8.337-193.42-26.008-15.475-6.2011-22.839-7.9293-23.673-5.5558-0.46451 1.3211 10.229 7.0284 28.976 15.465 41.069 18.482 83.019 31.723 118.59 37.432 11.955 1.9187 39.547 2.8139 49.1 1.5931zm-350.04-158.71c0-0.21623-0.82002-1.0363-1.8223-1.8223-1.6516-1.2952-1.6884-1.2584-0.39315 0.39315 1.3603 1.7345 2.2154 2.2862 2.2154 1.4291zm-8.3304-1.0413c0-0.21622-0.82003-1.0362-1.8223-1.8223-1.6516-1.2952-1.6884-1.2584-0.39315 0.39315 1.3603 1.7346 2.2154 2.2862 2.2154 1.4291zm-45.817-32.335c0-0.28636-0.93717-1.0222-2.0826-1.6352-1.1454-0.61302-2.0826-0.88029-2.0826-0.59392 0 0.28635 0.93717 1.0222 2.0826 1.6352 1.1454 0.61301 2.0826 0.88028 2.0826 0.59393zm0-5.6879c-4.3149-3.9428-15.394-12.256-13.016-9.7667 1.4035 1.4692 13.018 10.862 15.62 12.632 1.1449 0.77887-0.02697-0.51062-2.6042-2.8656zm-1.0413 2.6182c0-0.21623-0.82003-1.0362-1.8223-1.8223-1.6516-1.2952-1.6884-1.2584-0.39315 0.39316 1.3603 1.7346 2.2154 2.2862 2.2154 1.4291zm-8.3304-2.1368c0-0.28636-0.93717-1.0222-2.0826-1.6352-1.1454-0.61301-2.0826-0.88028-2.0826-0.59392s0.93717 1.0222 2.0826 1.6352c1.1454 0.61302 2.0826 0.88029 2.0826 0.59394zm12.496-4.2385c-1.3451-1.4318-2.6799-2.6032-2.9663-2.6032s0.57988 1.1715 1.925 2.6032c1.3451 1.4318 2.6799 2.6032 2.9663 2.6032 0.28636 0-0.57988-1.1714-1.925-2.6032zm-2.6033 0.52065c-1.0366-1.1454-2.119-2.0826-2.4054-2.0826s0.32748 0.93717 1.3641 2.0826c1.0366 1.1454 2.119 2.0826 2.4054 2.0826 0.28636 0-0.32748-0.93716-1.3641-2.0826z" fill="param(fill)" fill-opacity="param(fill-opacity)" stroke="param(outline)" stroke-opacity="param(outline-opacity)" stroke-width="param(outline-width) 0.2"/>
</svg>
