<svg version="1.1" width="512" height="512" viewBox="0 0 512 512" xmlns="http://www.w3.org/2000/svg">
 <path d="m425.57 374.99c0-2.4117-0.26041-2.8403-1.1718-1.9289-1.4473 1.4473-4.3529 1.5265-5.2086 0.14197-0.35006-0.56643 1.6625-5.0133 4.4723-9.8819l5.1088-8.852-0.55936-9.4045c-0.92046-15.476-4.0639-22.887-12.418-29.275l-4.3832-3.3518-0.32614 3.7988c-0.17937 2.0894 0.42958 11.847 1.3532 21.683 1.8826 20.049 1.701 20.986-3.6758 18.956-3.6555-1.3798-4.3455-0.73569-5.2947 4.9422-0.88516 5.2948-3.2492 6.5555-12.293 6.5555-7.174 0-7.5949-0.11905-7.5949-2.1484 0-1.6709-0.26041-1.888-1.1718-0.97652-1.4318 1.4318-8.5934 1.5675-8.5934 0.16284 0-1.3597 4.2001-9.5653 7.8086-15.255 2.784-4.3899 2.9332-5.1512 2.9332-14.964 0-9.901-0.14194-10.606-3.3542-16.655-2.8829-5.4292-5.6073-13.672-7.7762-23.526l-0.56436-2.5643-8.677 4.2417c-17.498 8.554-33.328 11.63-56.078 10.897-15.629-0.50332-29.117-2.8982-54.404-9.6599-6.1765-1.6516-12.191-3.221-13.365-3.4876l-2.1347-0.48476 2.2588 6.6934c2.543 7.5354 3.1892 11.632 4.3683 27.689 0.55047 7.4967 1.5911 13.416 3.1301 17.804l2.3055 6.5739-2.1533 2.1533c-2.0301 2.0301-2.2575 2.059-3.9736 0.50597-1.0012-0.90603-2.0736-1.6473-2.3832-1.6473-0.3096 0-0.32754 2.5955-0.0399 5.7678l0.52301 5.7678-6.7189 0.75441c-10.249 1.1508-23.613 0.99075-24.902-0.29818-0.84437-0.84438-0.0117-2.5979 3.3691-7.0954 5.0097-6.6643 6.0543-10.341 5.2239-18.387-0.55832-5.4095-1.3068-7.1301-11.481-26.392l-4.3024-8.1456-0.74655 3.263c-0.41061 1.7946-0.93962 9.8972-1.1756 18.006-0.53663 18.441-1.3082 24.346-3.5358 27.06-1.5586 1.8993-1.9184 1.9756-3.1901 0.67597-0.78835-0.80564-2.3547-3.216-3.4808-5.3564l-2.0474-3.8916-0.01 4.8682c-0.0112 5.7155-3.5352 14.074-6.9389 16.458-1.8533 1.2982-4.9366 1.5934-16.648 1.5934-9.2551 0-14.606-0.37625-15.026-1.0566-0.35917-0.58115 1.8108-5.7987 4.8222-11.595 8.01-15.416 10.366-22.265 10.351-30.094-0.0115-6.2996-2.2787-34.737-3.5406-44.41-0.57378-4.3981-2.2958-6.5762-2.3161-2.9296-0.0177 3.1653-4.621 11.645-8.341 15.365-7.3656 7.3656-25.257 13.444-44.49 15.114-6.5143 0.56584-10.379 1.3634-11.493 2.372-0.92346 0.83572-3.5605 2.1833-5.8601 2.9947-4.7972 1.6926-17.605 2.2349-18.535 0.78481-0.343-0.53494-3.6834-1.2957-7.4231-1.6906-6.0077-0.63437-7.2971-1.156-11.074-4.4805-2.351-2.0694-6.6325-5.0934-9.5146-6.7199-5.5408-3.127-7.6554-5.7539-6.6793-8.2975 0.66296-1.7276 2.3846-2.2084 10.063-2.8104 4.5644-0.3578 5.6755-0.86871 8.0815-3.716 6.233-7.3764 8.0293-11.532 7.9445-18.378-0.0437-3.5238-0.90794-8.9998-1.9206-12.169l-1.8411-5.7623-5.8507-1.6016c-3.2179-0.88085-7.9725-2.6287-10.566-3.8841-5.2704-2.5514-13.797-10.554-14.88-13.966-0.38845-1.224-3.6189-5.1382-7.1788-8.6981-7.1913-7.1914-11.38-14.026-12.363-20.17-0.59933-3.748-0.37777-4.3445 2.7902-7.5125 2.8846-2.8846 4.1284-3.4407 7.6891-3.4376 5.2183 4e-3 8.7318 2.0496 18.408 10.714 10.502 9.405 16.432 13.695 18.93 13.695 1.7437 0 2.8062-1.3521 5.3114-6.7594 4.1019-8.8532 10.175-16.814 19.566-25.649 21.996-20.692 49.301-32.102 89.527-37.408 12.156-1.6035 17.809-1.8433 81.501-3.4573 21.215-0.5376 54.402-1.4336 73.749-1.9912 31-0.8934 36.101-0.82893 42.967 0.54306 17.773 3.5515 39.417 12.178 58.232 23.209 5.0198 2.9431 10.549 6.0777 12.287 6.9659l3.16 1.6149 3.5259-3.9028c8.8558-9.8023 21.537-12.217 25.358-4.8277 2.0206 3.9074 2.062 14.887 0.0677 17.931-1.4544 2.2197-1.4194 2.249 3.2119 2.694 7.2588 0.69749 13.509 4.3427 22.17 12.93 6.379 6.3249 8.2547 8.8735 9.638 13.096 1.9252 5.876 1.554 11.832-1.0589 16.99-3.1297 6.1793-6.7976 8.448-5.4968 3.4 0.50715-1.9681 0.39375-2.055-1.0918-0.83639-2.1015 1.7238-2.1193 1.7005-3.8824-5.0715-2.1962-8.4354-3.5594-9.9549-11.114-12.388-10.026-3.229-20.434-9.064-28.849-16.174-4.1624-3.5165-7.5604-5.8232-7.551-5.1259 0.01 0.69729 0.66686 5.2227 1.4611 10.057 1.9326 11.762 1.8888 34.559-0.0849 44.229-0.84498 4.1398-3.225 11.501-5.289 16.359-4.6247 10.885-5.3629 14.604-3.9444 19.871 1.3412 4.9808 7.6458 11.637 11.812 12.47 4.3354 0.86707 4.9917 2.9469 3.6511 11.57-1.53 9.8411-0.14026 20.831 4.9991 39.534 2.2688 8.2564 3.5281 14.517 3.0219 15.024-0.50623 0.50623-2.5731 0.18565-4.9597-0.76926-2.2505-0.90046-4.2708-1.4582-4.4895-1.2394-0.21877 0.21877 0.15184 2.4527 0.82358 4.9642 1.4141 5.2872 0.81711 6.7651-4.08 10.1-2.7053 1.8422-4.5338 2.1972-11.319 2.1972-4.4509 0-9.2197 0.42856-10.597 0.95236-2.3629 0.89836-2.5049 0.77655-2.5049-2.1484zm34.178-203.95c0-1.3188-3.3973 0.98889-4.8277 3.2793-1.1247 1.8009-0.99605 1.7859 1.8085-0.21109 1.6606-1.1824 3.0193-2.5631 3.0193-3.0682z" fill="param(fill)" fill-opacity="param(fill-opacity)" stroke="param(outline)" stroke-opacity="param(outline-opacity)" stroke-width="param(outline-width) 0.2"/>
</svg>
