<svg version="1.1" width="512" height="512" viewBox="0 0 512 512" xmlns="http://www.w3.org/2000/svg">
 <path d="m427.96 373.99c0.95614-1.6803 2.3225-2.7594 3.4984-2.763 2.1918-7e-3 4.9779-2.6799 4.9779-4.7763 0-0.77112 0.97524-3.2362 2.1672-5.478 1.9426-3.6535 2.22-5.6487 2.6766-19.248 0.43633-12.997 0.91781-16.716 3.3587-25.944 3.2508-12.29 3.3825-13.975 1.4532-18.593-0.7679-1.8378-1.6486-5.757-1.9572-8.7091l-0.56102-5.3676 5.399-4.1036c6.9665-5.2951 8.5685-7.7872 14.054-21.864 10.021-25.716 11.45-30.461 11.474-38.116 0.0122-3.9257 0.15007-7.1376 0.30645-7.1376s1.4982 2.4047 2.9819 5.3438c5.8607 11.61 7.5387 24.217 5.2951 39.784-0.76655 5.3187-1.6702 13.4-2.0081 17.959-0.44497 6.0038-1.6048 11.208-4.2072 18.879-4.2029 12.388-4.5204 17.721-1.7444 29.301 2.0532 8.5647 2.4235 21.52 0.85712 29.993-0.53811 2.9109-0.84009 5.7075-0.67105 6.2146 0.51458 1.5438 10.585-16.754 12.737-23.142 1.7206-5.1081 1.94-7.27 1.4956-14.736-0.28644-4.8121-1.3667-11.443-2.4006-14.736-2.3618-7.5214-2.3568-9.7449 0.0409-18.29 1.0641-3.7923 1.8838-8.9992 1.8215-11.571-0.0623-2.5718-0.104-12.869-0.0927-22.882 0.0113-10.013-0.40521-20.106-0.92569-22.429-1.5996-7.1377-6.1355-17.875-11.561-27.366-3.8432-6.7232-5.849-11.616-7.7813-18.981-3.6648-13.969-4.5359-15.652-11.165-21.581-8.0142-7.1681-36.393-26.491-45.449-30.946-16.806-8.2677-54.171-16.2-91.61-19.447-15.095-1.3093-44.496-0.58244-58.05 1.4352-5.3187 0.79172-20.86 2.0534-34.537 2.8037-13.677 0.75029-29.425 1.9887-34.997 2.752-17.895 2.4515-39.79 8.5766-51.267 14.342-10.917 5.4836-30.141 19.692-49.276 36.417-5.4865 4.7958-12.767 10.638-16.179 12.982-7.2032 4.9494-7.9221 4.8614-15.245-1.866-4.5491-4.1792-9.4466-6.6859-11.513-5.8929-1.3564 0.5205-3.417 10.287-3.417 16.195 0 6.7795-4.6826 3.8391-7.0274-4.4127-1.4778-5.2009-6.7743-12.041-9.3237-12.041-2.0584 0-3.9105 6.0005-3.9105 12.669 0 9.2847 2.3862 13.447 10.491 18.3 3.4906 2.0902 6.6718 4.3816 7.0694 5.092 0.39759 0.71045 0.30733 3.2401-0.20057 5.6215-0.71872 3.3698-0.6015 5.4372 0.52871 9.325 0.79869 2.7474 1.4522 6.7093 1.4522 8.8044s0.82889 5.4339 1.842 7.4197c3.7562 7.3628 2.4363 11.469-8.3359 25.935-3.2667 4.3867-6.7727 9.3537-7.7912 11.038-1.3667 2.2599-2.7018 3.2002-5.0967 3.5894-5.0041 0.81339-5.7546 1.5998-5.2335 5.4844 0.49323 3.6773 6.5769 14.713 10.071 18.268 2.6841 2.7313 11.119 6.5451 15.936 7.2054 2.0386 0.27942 7.222-0.10813 11.519-0.86122 7.7926-1.3658 23.801-1.4605 32.218-0.19055 5.1595 0.77846 10.377-1.0881 22.841-8.1722 7.0731-4.0199 10.539-5.3772 16.647-6.5203 6.0699-1.1359 9.4879-2.4671 16.033-6.2446 6.983-4.0301 9.0682-4.806 12.987-4.8324l4.6689-0.0315 3.3334 9.0683c3.1759 8.6398 3.3616 9.793 3.9303 24.406 0.69132 17.765 0.32407 19.745-5.5268 29.805-4.4089 7.5805-8.2762 11.558-14.155 14.557-2.0121 1.0265-3.6583 2.2124-3.6583 2.6354 0 0.9615 10.031 1.9412 19.965 1.9499 6.9403 6e-3 7.6734-0.17413 9.3424-2.2959 2.2003-2.7972 2.5716-2.842 3.2134-0.38763 0.35221 1.3469 1.1024 1.8249 2.5294 1.6117 1.5885-0.23733 2.4666-1.6021 4.0472-6.2895 1.1102-3.2925 2.4517-6.8153 2.9811-7.8284 0.52943-1.0131 1.246-5.1575 1.5925-9.2098 0.73424-8.5888 2.7259-17.862 4.6251-21.535 0.73427-1.4199 3.816-5.5511 6.8484-9.1805 4.3785-5.2406 5.7082-7.5926 6.4603-11.427 0.52084-2.6554 1.6467-8.4761 2.5019-12.935 0.86268-4.4978 2.3367-9.1007 3.3111-10.339 3.1185-3.9645 17.144-7.0877 41.259-9.1874 8.9399-0.7784 29.897 0.83347 43.023 3.309 12.678 2.391 18.103 5.3641 24.219 13.273 3.7059 4.7919 4.732 5.5644 7.7253 5.8158 2.8797 0.24184 4.2853-0.35315 8.4812-3.5902 6.2013-4.7843 20.176-11.899 23.344-11.886 1.2889 6e-3 4.3779 0.62715 6.8645 1.3815 2.4866 0.75433 5.8978 1.3715 7.5806 1.3715 3.3723 0 3.0554-0.67804 4.9015 10.489 1.1336 6.8572 2.66 10.366 8.893 20.442 5.2675 8.5151 5.222 13.531-0.28956 31.933-3.0506 10.185-6.635 14.63-14.725 18.26-8.6247 3.8696-7.8277 5.1353 3.7296 5.923 10.893 0.74245 13.255 0.27909 14.015-2.7493 0.38353-1.5281 1.4127-2.3168 3.5452-2.7169 1.9437-0.36464 3.36-1.3432 4.0105-2.771 0.55314-1.214 1.8093-2.4623 2.7915-2.7741 1.2809-0.40653 2.771-3.3586 5.2704-10.441 1.9165-5.4308 4.4537-12.102 5.6382-14.824 1.1845-2.7224 2.1907-6.0379 2.236-7.3679 0.0596-1.749 0.4557-1.1438 1.4315 2.1868 2.0247 6.9105 1.1166 28.986-1.3363 32.483-0.97015 1.383-2.2679 4.0684-2.884 5.9676-0.93267 2.8754-1.988 3.8769-6.3086 5.9864-9.1387 4.4619-7.2998 5.7244 8.367 5.7442l9.9434 0.0126z" fill="param(fill)" fill-opacity="param(fill-opacity)" stroke="param(outline)" stroke-opacity="param(outline-opacity)" stroke-width="param(outline-width) 0.2"/>
</svg>
