<svg version="1.1" width="512" height="512" viewBox="0 0 512 512" xmlns="http://www.w3.org/2000/svg">
 <path d="m194.1 492.1c18.198-1.154 36.344-13.625 54.727-13.722 1.043-5.7837 9.0777 1.116 11.637-5.0865 9.0621 0.92257 20.635-8.8095 32.016-7.1076 12.993-0.62868 21.195-17.812 35.664-13.328 18.459 7.0286 36.651 11.178 56.282 7.2964 10.615-4.0014 24.85-11.388 35.021-21.115 7.3703-12.106 9.0956-33.094 9.5663-50.212 0.95447-10.578-6.8428-18.408-9.381-18.8-4.1009-8.3637-6.3487 1.9238-8.5273-0.58517-12.275 7.878-5.6005 36.834-14.855 51.601-9.032 17.669-35.473 18.616-47.134 3.2551-9.1896-5.6727-6.7261-17.752-8.776-26.908-2.6637-45.379-11.266-90.319-23.704-133.94 1.4367-2.1221-9.9059-24.213-12.145-32.021-14.707-19.183-17.644-43.581-18.998-66.897-5.569-18.884-12.095-40.261-12.266-52.018-12.438-17.28-15.654-37.687-19.089-58.376-7.1342-21.27-30.942-28.093-50.521-32.748-21.636-3.3151-45.256 2.9486-59.783 20.088-12.936 8.9192-30.669 21.977-24.763 40.256 3.1474 19.175 34.042 27.189 19.945 48.033-0.70945 9.9679-5.0097 29.283-5.465 42.708-11.107 17.235-16.084 29.906-30.041 43.767-13.921 12.615-27.487 31.396-18.758 51.355 2.8684 4.941 1.3536-13.549 4.7118 2.2015 6.3841 14.234 0.40062-18.399 8.0981 1.6846 7.1651 10.804-3.7036-25.247 9.9032-8.9773 3.2406 0.9281 10.984-11.248 6.2709 2.0262-1.2792 6.4715 1.4686 24.5 3.5823 9.6411 3.3 11.213 4.6331 17.739 7.3111 3.4798 2.2597 8.843 6.5316 20.442 6.1161 4.3046-1.6039-12.952 13.044-11.472 16.426-10.875 6.2242 6.5412 2.7054 28.906 6.6322 38.568 2.8651 13.572 4.0909 28.477 5.3449 41.566 0.1562 16.272 6.682 32.91 11.175 49.619 5.8635 10.244-1.8426 31.677 1.8199 44.761 9.7292 25.149-36.35 1.7176-31 29.872 12.239 3.6896 28.771-0.55245 43.119 0.72694-5.186 10.116-4.3815 13.974 6.9124 13.088 1.9558-1.2177 1.5086 6.2733 2.9238 2.8175z" fill="param(fill)" fill-opacity="param(fill-opacity)" stroke="param(outline)" stroke-opacity="param(outline-opacity)" stroke-width="param(outline-width) 0.2"/>
</svg>
