<svg version="1.1" width="512" height="512" viewBox="0 0 512 512" xmlns="http://www.w3.org/2000/svg">
 <path d="m22.658 339.49c7.4554 7.8807 7.4739 7.8927 11.32 7.3613 1.877-0.25935 5.5679-0.58631 8.2019-0.72656 3.4666-0.18458 7.7694-1.569 15.581-5.0128 5.9354-2.6168 13.693-5.4563 17.239-6.3099 7.1018-1.7096 41.719-7.7432 50.573-8.8148 7.736-0.93623 10.477-2.5751 20.187-12.067 7.4399-7.2738 8.8562-8.3556 12.074-9.2228 7.8558-2.1172 17.315-1.0579 31.096 3.4823 30.536 10.06 63.95 12.587 84.645 6.4012 10.081-3.0131 12.903-4.1044 12.184-4.7117-0.73162-0.61816 6.2465-3.8346 10.993-5.0669 1.5884-0.41241 3.0378-0.92625 3.2209-1.1418 0.18307-0.21561 4.7341-0.85249 10.113-1.4153 6.6689-0.69774 11.179-0.63017 14.175 0.21238 5.2946 1.4886 13.64 6.8084 22.732 14.49 14.997 12.671 31.003 17.183 41.813 11.787 2.2166-1.1065 6.1242-3.6554 8.6837-5.6643 2.5595-2.0089 5.9532-4.2292 7.5415-4.9341 2.8801-1.2781 2.8989-1.2721 6.9594 2.236 4.0604 3.508 4.081 3.5504 7.5674 15.584 1.9227 6.6367 4.2389 13.242 5.147 14.678 2.0192 3.1937 13.567 13.085 17.037 14.593 5.9524 2.5866 10.836 1.3201 13.353-3.4625 1.1554-2.196-0.44927-8.0887-2.7266-10.013l-1.2856-1.0863 3.3203-1.3941c3.8123-1.6007 5.1113-3.9777 4.1541-7.6016-0.82889-3.138-2.0562-3.9034-9.51-5.9307-6.253-1.7007-6.8802-2.0465-10.653-5.8722-7.1146-7.215-7.8202-8.7269-8.5125-18.241-1.1129-15.295-2.844-18.363-9.7739-17.325-4.0656 0.60915-4.7196 0.18472-7.2906-4.7311-2.3833-4.5569-4.8014-4.8849-20.467-2.7762-2.328 0.31335-5.4528 0.11801-6.9441-0.43409l-2.7115-1.0038-1.3973-17.38c-1.1111-13.82-1.9436-18.925-4.0645-24.921-2.7788-7.856-8.5043-18.267-11.424-20.773-1.2981-1.1141-1.4413-1.755-0.61161-2.737 2.9665-3.5109 15.916-3.056 25.056 0.88019 10.717 4.6154 19.122 15.524 24.97 32.411 4.0267 11.627 10.24 26.762 12.735 31.019 3.0001 5.1195 10.923 13.147 16.007 16.219 7.4704 4.5138 17.668 6.5159 29.301 5.7524 11.966-0.78529 17.749-2.6742 22.677-7.4064 1.9531-1.8754 4.0001-4.3262 4.5489-5.4462 0.96419-1.9676 0.92571-2.0339-1.14-1.9636-1.1759 0.04-1.9701-0.12587-1.765-0.36867 0.95329-1.1282-5.8299-1.3322-9.6584-0.29033-19.78 5.3824-31.628 4.4551-42.586-3.3332-7.079-5.0313-11.107-12.093-16.44-28.821-3.0118-9.4477-8.1027-20.101-13.877-29.04-3.6396-5.6343-5.2038-7.3213-12.796-13.8-8.441-7.2031-8.7866-7.4172-14.309-8.8635-7.7664-2.0339-23.302-2.5342-31.114-1.002-4.746 0.93096-8.3202 0.92982-13.4-4e-3 -9.5779-1.7611-17.565-1.9606-22.984-0.57387-2.523 0.64554-10.518 3.3401-17.767 5.988-27.415 10.014-42.974 12.478-63.306 10.023-4.543-0.54855-8.3278-1.6037-10.947-3.0518-10.485-5.7971-16.887-8.6485-22.364-9.9598-3.2838-0.78628-8.1489-2.4835-10.811-3.7716-6.1196-2.9608-10.284-3.6483-20.281-3.3484-9.832 0.29494-15.056-0.91236-28.628-6.6156-5.8264-2.4485-12.298-4.7499-14.38-5.1143-2.0828-0.36435-3.9719-0.81864-4.1978-1.0095-0.22594-0.19091 0.53276-1.4638 1.686-2.8288s1.977-2.5829 1.8305-2.7066-3.3311 0.10588-7.0769 0.51026c-3.7459 0.40438-7.9685 0.47125-9.3836 0.14858-2.4608-0.56108-2.5694-0.71099-2.492-3.4383l0.081-2.8516-3.3481 1.0935c-1.8414 0.60142-6.6214 0.8812-10.622 0.62171-7.7594-0.50326-17.341 1.1948-24.017 4.2563-2.9782 1.3658-5.0106 2.97-7.5325 5.9459-2.9601 3.4933-4.6101 4.6301-11.547 7.9576-7.0146 3.3648-8.3326 4.2789-9.8894 6.8587-2.2602 3.7453-2.2479 9.2896 0.02691 12.092 1.1403 1.405 1.5227 2.9759 1.1765 4.8326-0.47188 2.5305-0.24054 2.9812 2.8868 5.6235 3.2245 2.7244 3.6884 2.8521 8.9952 2.4763 3.0775-0.21796 6.7149-0.85294 8.0833-1.4111 3.5015-1.4282 9.5745-1.8521 11.689-0.81598 0.98187 0.48114 2.6934 1.9199 3.8035 3.1972l2.0183 2.3224-1.4836-2.6488-1.4836-2.6489 3.0774 0.69974c2.4465 0.55629 3.9841 1.5747 7.4997 4.9672 2.4629 2.3767 3.914 3.475 3.2751 2.4789-0.63091-0.98371-2.4662-2.9508-4.0785-4.3713-3.3315-2.9353-2.6518-3.7034 1.7078-1.9295 3.0472 1.2399 8.6892 1.6825 8.6045 0.67497-0.0263-0.31272 1.7149-0.11718 3.8694 0.43454 2.8426 0.72795 4.7618 1.8056 6.996 3.9285 3.889 3.6952 3.8779 6.2666-0.0541 12.544-1.5484 2.4722-4.2092 6.728-5.9127 9.4572-2.2238 3.5626-4.3906 9.2297-7.6821 20.092-5.2196 17.225-6.2731 18.902-16.459 26.188-11.025 7.8867-25.308 12.39-44.152 13.921-15.747 8.0218-27.025 11.815-15.176 23.764z" fill="param(fill)" fill-opacity="param(fill-opacity)" stroke="param(outline)" stroke-opacity="param(outline-opacity)" stroke-width="param(outline-width) 0.2"/>
</svg>
