<svg version="1.1" width="512" height="512"  viewBox="0 0 512 512" xmlns="http://www.w3.org/2000/svg">
 <path d="m270.03 389.57c3.3991-1.034 8.9467-3.916 10.995-5.7123 2.2678-1.9884 2.1788-6.7921-0.24399-13.166-2.2199-5.8406-2.463-11.948-0.82875-20.818 0.97589-5.2964 0.85292-7.4821-0.91423-16.248-1.123-5.5709-2.7784-15.63-3.6786-22.353-0.90024-6.7232-1.835-12.554-2.0773-12.957-0.72421-1.206 1.7426-0.84756 8.9683 1.303 12.397 3.6898 13.559 3.8462 28.846 3.8835 10.111 0.0247 17.6-0.47263 22.492-1.4936 14.941-3.1178 41.827-10.639 50.25-14.057l8.6887-3.5259 3.8985 4.378c5.5026 6.1794 11.317 14.947 13.132 19.802 1.0555 2.8233 1.6867 8.788 1.99 18.804 0.56176 18.551-0.1559 21.096-7.3023 25.893-4.4694 3.0001-5.1003 3.8231-4.8896 6.3783 0.2029 2.4602 0.87342 3.155 4.1536 4.3039 2.1514 0.75357 7.2122 1.3867 11.246 1.407 5.9917 0.0301 8.5876-0.49387 14.18-2.8622l6.8454-2.8991 1.0755-7.7982c1.3655-9.9015 1.714-11.119 6.7942-23.748 3.625-9.011 4.6546-10.682 7.4582-12.106 8.5351-4.334 11.086-3.0237 15.546 7.9858 4.3462 10.728 4.6045 14.317 1.516 21.063-1.41 3.0798-2.562 6.9767-2.56 8.6598 5e-3 3.9507 3.0651 8.9304 6.6173 10.767 3.0564 1.5806 22.075 4.714 23.979 3.9509 0.65031-0.26058 2.4939-2.3214 4.0969-4.5797 2.389-3.3656 2.9822-5.3036 3.2898-10.748 0.20642-3.6532 0.072-9.4743-0.29867-12.936-0.62797-5.864-1.0425-6.7066-6.0718-12.343l-5.3978-6.0494 0.68158-12.817c0.63044-11.855 0.51613-13.257-1.5236-18.684-1.2128-3.2271-2.1855-6.9677-2.1615-8.3123 0.0741-4.1418 6.6866-30.053 11.453-44.881 4.546-14.141 6.3327-25.005 6.3694-38.731 0.0221-8.274-2.9352-13.918-12.821-24.468-4.546-4.8517-10.183-11.453-12.526-14.669-5.8094-7.9741-31.024-33.468-35.25-35.641-2.6454-1.3601-6.865-1.9088-18.58-2.4162-18.798-0.81423-34.303-2.7041-53.297-6.4962-23.41-4.6739-28.735-4.7399-44.495-0.55138-40.315 10.714-81.217 12.463-105.98 4.5327-7.6346-2.4456-10.721-2.9228-18.811-2.9086-11.76 0.0206-21.956 2.0456-26.954 5.3528-2.0489 1.3559-6.7012 5.2249-10.338 8.5978-3.6372 3.3729-9.1596 8.0569-12.272 10.409-7.5501 5.7055-13.671 12.544-20.685 23.111-6.9145 10.416-14.969 20.663-16.793 21.363-0.72083 0.27661-2.8475-0.13923-4.7259-0.92407-6.6591-2.7824-10.324-1.1856-10.324 4.4985 0 1.9003-0.35916 2.0679-3.1782 1.4834-8.506-1.7637-31.533-5.453-34.035-5.453-2.1583 0-3.1925 0.69918-4.3526 2.9426-1.8737 3.6234-1.2619 4.9319 5.0641 10.83 8.8904 8.2888 13.783 11.008 21.807 12.118l7.3081 1.0114 0.8253 4.396c1.1455 6.1013 0.05855 27.598-1.5955 31.557-1.6068 3.8456-9.6959 11.246-13.276 12.146-2.7897 0.70111-14.191-2.052-22.339-5.3943l-5.1443-2.1101-1.9956 1.9956c-2.4773 2.4773-2.2369 3.3486 4.5327 16.426l5.2438 10.13-4.5349-0.68006c-2.4942-0.37402-8.1577-2.3538-12.586-4.3995-4.4279-2.0457-9.637-4.243-11.576-4.8828-5.1297-1.693-13.733-10.031-18.324-17.759-4.0037-6.7392-7.0113-8.6203-8.322-5.2049-0.91187 2.3763 3.2727 13.863 8.1766 22.446 9.4292 16.502 17.988 26.85 28.965 35.017 3.6702 2.7308 7.3557 6.2852 8.1901 7.8986 0.8343 1.6134 3.6131 5.1592 6.1751 7.8797 3.8293 4.0662 4.8714 5.9825 5.8562 10.769 1.048 5.0941 1.9493 6.6084 7.1991 12.095l6.0011 6.2718 7.3344-0.58426c4.0339-0.32133 8.959-1.047 10.945-1.6125 3.6065-1.0272 14.985-9.2881 29.514-21.428 8.9421-7.4716 21.828-22.373 22.701-26.251 1.3307-5.9128 2.3979-9.5744 3.0946-10.618 0.99723-1.4942 7.2878-5.249 8.8016-5.2535 2.5386-8e-3 0.80402 24.505-2.8023 39.602-3.8356 16.057-4.2145 16.747-14.85 27.059-6.9682 6.7559-9.5796 9.9105-9.1439 11.046 0.98336 2.5626 6.9216 4.4349 14.052 4.4307 6.1595-3e-3 22.657-2.1979 25.91-3.4462 0.78373-0.30074 2.5779-4.3982 3.987-9.1055 2.2588-7.5459 4.2265-11.041 16.629-29.539l14.067-20.981 7.2472 0.297c6.9545 0.28502 7.3775 0.44195 10.473 3.8856 1.7744 1.9737 6.4407 8.441 10.37 14.372 6.6805 10.084 12.167 22.788 14.684 34 1.1024 4.9107-1.2116 11.112-5.1701 13.855-1.9707 1.3657-5.481 4.4169-7.8007 6.7805-3.3415 3.4047-4.1507 4.8827-3.8957 7.1153 0.27955 2.4476 1.0084 3.0456 5.5456 4.5505 3.8413 1.274 6.065 1.5003 8.4028 0.85479 2.2362-0.61744 4.1281-0.47873 6.3791 0.46776 3.4049 1.4316 12.603 1.6699 16.673 0.43181z" fill="param(fill)" fill-opacity="param(fill-opacity)" stroke="param(outline)" stroke-opacity="param(outline-opacity)" stroke-width="param(outline-width) 0.2"/>
</svg>
