<svg version="1.1" width="512" height="512" viewBox="0 0 512 512" xmlns="http://www.w3.org/2000/svg">
 <path d="m212.01 385.39c-14.717-8.0281 29.679-31.442 2.9675-32.29-16.767-6.5845-32.389-25.305-32.539-43.936 3.7155-15.99-10.254-13.268-19.43-10.084-16.769-11.4-12.128 25.574-21.443 33.96-7.6683 17.162-23.925 32.534-41.093 40.295-17.378 9.9135-37.048 5.8012-45.118-14.505-10.909-14.577-31.527-21.584-38.829-40.47-7.2664-8.2913-8.4188-22.204 4.5323-10.424 12.949 13.344 41.763 4.019 26.507-15.541 19.466 1.3863 35.76-14.367 34.553-34.442-0.43725-13.793 0.458-29.324 2.2791-41.546-6.7186-7.1113-21.502-32.7-1.4723-22.762 3.5024-18.451 21.088-4.7925 25.465 1.1792 11.455-11.577 10.069-32.784 28.035-40.913 13.359-17.923 36.392-23.398 55.601-32.721 24.725-10.758 49.941 2.2884 74.783 4.5264 29.56 0.95504 58.713-5.4644 87.236-12.338 18.109 2.6345 35.836 8.196 54.177 10.094 18.605-0.6653 36.421 3.8036 47.522 19.975 8.5488 9.1974 18.538 5.8308 19.495 19.502 17.283 16.334 26.304 40.514 24.381 64.096-4.683 20.938-13.446 40.92-11.38 62.225 5.6514 16.482-11.698 36.238 3.9999 49.857 9.6866 18.268-20.687 43.459-32.72 25.365-4.634-17.997 5.6666-36.387 1.3295-54.769-0.8436-10.799-13.656-50.802-20.286-23.483-1.4166 18.008 16.657 36.41 7.1031 52.808-8.6462 9.3727-15.731 20.786-8.2273 32.316-12.921-0.35755-40.043 7.6352-43.985-5.5799 19.812-6.7523 23.027-31.113 12.231-47.727-2.3406-14.053-9.782-46.426-28.73-29.131-29.004 15.543-63.499 21.554-95.624 12.998-19.991-8.8841-27.31 19.789-24.302 34.574 7.3695 16.53-7.0754 31.11 1.8684 44.629-13.457 6.9255-33.837 6.0183-48.888 4.2656z" fill="param(fill)" fill-opacity="param(fill-opacity)" stroke="param(outline)" stroke-opacity="param(outline-opacity)" stroke-width="param(outline-width) 0.2"/>
</svg>
