<svg width="512" height="512" version="1.1" viewBox="0 0 512 512" xmlns="http://www.w3.org/2000/svg">
 <path d="m495.03 333.78c-25.165-13.755-48.564-32.071-76.441-39.998-40.377-5.9221-81.587-7.1076-121.1-18.296-21.25-5.2308-42.712-12.435-64.883-9.4163-10.929-1.1313-1.0748 16.686-8.822 22.445 0.6872 8.3104-5.3752 18.812-5.9006 4.2336-2.0672-13.065-21.622 24.885-16.454 6.0343 5.7122-5.9676 10.536-17.473-0.74677-7.7171-11.494 9.2999-1.6899-5.8152-0.0328-5.1256-13.452 2.2713 19.652-10.512 8.5782-18.637-37.417 0.50346-75.954 4.947-112.22-6.6853 0.89561 19.037-16.897 25.34-32.729 26.385-4.3237 1.1546-25.084 8.7673-13.216 0.73367-7.0741-0.88166-21.802-4.092-5.6866-3.9375 13.542-0.79132-15.258-6.9865 3.9318-5.9485 3.8427-3.217 32.542-2.5666 29.84-18.167-3.1675-7.9997-10.512-10.054-18.192-10.427-15.029-3.1246-33.365-2.418-43.523-15.743 0.73417-14.253 20.126-27.995 34.911-23.26 18.636 0.51131 37.268 1.1589 55.9 1.8233 10.593-10.968 23.121 1.4051 36.168-1.7961 25.022 0.6031 51.049-2.3621 74.622 8.0283 30.181 12.748 61.215 23.421 93.278 30.379 34.11 12.093 70.869 11.849 105.53 21.689 26.964 8.1796 52.641 21.847 71.126 43.545 2.7228 2.957 21.943 25.933 6.0571 19.858z" fill="param(fill)" fill-opacity="param(fill-opacity)" stroke="param(outline)" stroke-opacity="param(outline-opacity)" stroke-width="param(outline-width) 0.2"/>
</svg>
