<svg version="1.1" width="512" height="512"  viewBox="0 0 512 512" xmlns="http://www.w3.org/2000/svg">
 <path d="m187.23 436.02c-1.2497-0.5371-2.5189-1.6196-2.8205-2.4055-0.81473-2.1232 2.4684-14.529 5.0596-19.119 1.2421-2.2 3.2087-6.574 4.3704-9.7199l2.1121-5.72-3.2247 0.6108c-4.7655 0.90263-5.8571 1.6587-10.228 7.0839l-3.9792 4.9393-11.509-0.44754c-12.547-0.4879-17.009 0.46228-17.009 3.6218 0 1.0548 0.7118 2.1909 1.5818 2.5248 3.0302 1.1628 16.197 0.59657 20.542-0.88339l4.3757-1.4904-2.33 1.9655c-4.581 3.8643-17.855 5.4187-23.17 2.7134-2.2358-1.138-2.5-1.8892-2.5-7.11 0-3.2815 0.47627-6.0215 1.0877-6.2576 2.1716-0.83844 11.49-21.064 13.958-30.293 1.3914-5.2046 3.1878-10.19 3.9921-11.079 1.9682-2.1748 1.8409-5.8089-0.3883-11.081-1.0179-2.4074-2.6625-6.5995-3.6548-9.3157-0.99224-2.7162-4.1529-8.388-7.0236-12.604-2.8707-4.2159-5.7599-9.3028-6.4204-11.304-1.1249-3.4086-1.6769-3.7836-8.7226-5.9261l-7.5217-2.2873-6.3932-10.47c-4.7192-7.7284-6.9195-12.565-8.4033-18.47-1.1645-4.6349-4.9545-13.953-9.0099-22.152-3.8499-7.7835-6.9999-14.591-6.9999-15.128 0-0.53668-0.675-1.536-1.5-2.2207s-1.5-2.2388-1.5-3.4536c0-3.0964-12.601-21.529-24.638-36.04l-10.138-12.222-9.3624-0.55476c-6.6081-0.39155-11.863-1.4154-17.862-3.4802l-8.5-2.9254-1.1928-7.412c-0.65606-4.0766-1.2608-10.891-1.3438-15.143-0.14273-7.3075 0.12729-8.3437 4.9322-18.927 2.7958-6.1581 4.9068-11.373 4.6912-11.589-0.61727-0.61726-4.7399 1.9462-8.8396 5.4966-2.0641 1.7875-4.342 3.25-5.0619 3.25-1.8414 0-5.6129-5.3884-6.3496-9.072l-0.61806-3.0903-6.1357 6.0811c-3.3746 3.3446-6.6595 6.0811-7.2998 6.0811-2.4017 0-2.3489-2.1865 0.1612-6.6775 1.8921-3.3853 2.4315-5.473 2.0035-7.7544-0.62954-3.3557 2.4309-8.5681 5.0308-8.5681 0.73282 0 2.4619-1.9125 3.8423-4.25 5.5223-9.3508 12.68-13.461 12.68-7.2814 0 1.3923 0.24083 2.5314 0.53518 2.5314 1.4157 0 6.4949-4.0473 11.463-9.1337 6.1738-6.3214 10.328-8.6971 20.502-11.724 3.85-1.1456 11.5-4.4054 17-7.2441 7.9629-4.1099 11.273-5.2641 16.25-5.6664 4.4271-0.35781 6.25-0.16033 6.25 0.67708 0 1.1428 1.6541 1.051 10.332-0.57334 2.517-0.47112 2.7953-0.26878 2.5 1.8174-0.26737 1.8887-1.1142 2.4664-4.3323 2.9556l-4 0.60809 5.0148 0.14191c2.7581 0.07805 6.5831 0.97991 8.5 2.0041 1.9168 1.0242 6.055 3.231 9.1958 4.9039 3.1408 1.6729 7.0353 3.9849 8.6544 5.1378 1.619 1.1529 3.7212 2.0961 4.6713 2.0961 2.7673 0 7.6638 3.5137 11.773 8.4484 4.7048 5.6499 18.405 12.554 30.827 15.534 13.891 3.3332 32.669 4.6053 47.035 3.1861 38.038-3.7576 120.37-3.8311 190.33-0.16988 56.201 2.9411 58.162 3.2913 63.307 11.306 1.4812 2.3072 3.7383 5.3198 5.016 6.6948 9.3557 10.069 18.235 26.836 20.739 39.163 0.81964 4.0352 2.2578 8.8027 3.1958 10.594 1.6831 3.2148 1.6216 3.5906-4.6648 28.5-3.5037 13.883-8.3329 31.201-10.732 38.484-2.6836 8.1482-4.3612 15.073-4.3612 18.003 0 2.6188-0.9 7.9086-2 11.755-2.5854 9.0407-2.5205 12.577 0.44601 24.319 4.4057 17.438 4.8462 28.79 1.7034 43.899-0.59692 2.8696-1.5674 12.042-2.1565 20.383-0.58918 8.3413-1.5494 17.468-2.1338 20.282-1.012 4.8734-5.5384 15.247-8.1855 18.76-1.3124 1.7416-19.417 8.4459-20.334 7.5296-0.2963-0.29629 1.8685-1.7443 4.8107-3.2178 6.8961-3.4537 12.044-7.332 11.309-8.5206-0.87299-1.4125-6.4615-1.1235-12.405 0.64168-2.9198 0.86707-6.3994 1.3028-7.7324 0.96816-1.5783-0.39613-3.3653 0.0597-5.1228 1.3067-1.4845 1.0533-3.5618 2.0801-4.6162 2.2818-3.5372 0.6767-2.817 2.7266 1.3524 3.8493 2.2356 0.60198 4.0647 1.3022 4.0647 1.556 0 1.0585-6.7623 0.35578-8.4496-0.87805-1.7312-1.2659-1.5013-2.0214 4.185-13.75 3.3093-6.8258 6.3527-13.535 6.7631-14.91s1.2102-3.0792 1.7772-3.7872c0.567-0.70795 1.3753-7.233 1.7962-14.5 0.42094-7.2671 1.0769-15.515 1.4577-18.329 0.52939-3.9114 0.3123-5.6958-0.92214-7.5798-0.88799-1.3552-1.3494-2.7292-1.0254-3.0532 0.32403-0.32403-0.38793-1.1121-1.5821-1.7512s-2.4176-0.91568-2.7188-0.61458-3.1664 12.414-6.3672 26.918c-7.256 32.878-9.329 38.727-14.75 41.615-4.2759 2.2781-3.6551 0.0392 1.1211-4.0434 8.0889-6.9142 5.7817-8.9417-6.6178-5.8156-15.472 3.9007-21.668 6.0055-21.668 7.3612 0 2.0135 2.0194 3.2752 7 4.3736l4.5 0.99234-4.7954 0.10709c-3.8749 0.0865-5.2786-0.37601-7.3121-2.4096-2.8202-2.8202-2.6675-4.3684 1.0833-10.983 1.2474-2.2 4.3507-9.4976 6.8962-16.217 4.4711-11.803 4.6275-12.583 4.6103-23-0.0327-19.824-1.2524-26.87-6.4394-37.198-2.5337-5.045-5.2831-9.4322-6.1098-9.7494-0.8641-0.33158-4.0595 1.2166-7.5173 3.642-5.6471 3.9612-6.6841 4.3015-16.984 5.5736-8.3925 1.0365-13.373 2.3218-21.201 5.4709-12.825 5.1597-17.769 5.6133-42.231 3.8746-21.894-1.5561-30.773-1.6996-35-0.56566-2.7317 0.73281-2.8396 0.67424-1.2071-0.65494 1.5819-1.288-0.47722-1.4089-17.5-1.0276-27.715 0.62068-27.229 0.52549-28.76 5.6404-0.69302 2.3159-2.5205 6.7092-4.0611 9.763-1.5406 3.0538-3.4875 8.0038-4.3265 11-1.7356 6.1984-4.1119 44.266-3.5049 56.148l0.39338 7.7004-5.5169 2.1137c-3.09 1.1839-9.1361 2.3701-13.744 2.6965-8.4341 0.59746-13.719 2.6812-14.952 5.8956-1.0334 2.6931 1.8212 3.5273 10.468 3.0589 6.1222-0.33165 9.5835-1.0898 13.242-2.9006 2.7246-1.3484 4.4607-1.8574 3.858-1.1312-3.9235 4.7275-21.005 8.822-26.661 6.3909zm271.77-45.025c0-0.55-0.45-1-1-1s-1 0.45-1 1 0.45 1 1 1 1-0.45 1-1zm-310.09-242.45c5.7292-2.9627 6.2504-9.6568 1.4439-18.547-1.9432-3.5943-3.4815-4.9541-7.6428-6.756-2.8654-1.2408-6.7033-2.2533-8.5286-2.25l-3.3187 6e-3 4.8847 5.75c7.0823 8.3369 8.4116 10.82 8.0599 15.052l-0.30725 3.6978-1.8731-5.5c-2.5665-7.5361-5.0386-11.366-9.7395-15.089l-3.9966-3.1653-3.9454 1.7791c-2.17 0.97853-3.9454 1.8898-3.9454 2.0251s1.8516 3.3294 4.1146 7.0981c4.9047 8.168 9.1314 12.854 13.885 15.394 4.267 2.2798 7.2137 2.4163 10.909 0.50552zm-121.88-17.047c1.357-1.85 1.3358-1.8971-0.28297-0.62756-0.9625 0.75485-1.75 1.8424-1.75 2.4167s0.12734 0.85672 0.28297 0.62756c0.15563-0.22917 0.94313-1.3167 1.75-2.4167z"fill="param(fill)" fill-opacity="param(fill-opacity)" stroke="param(outline)" stroke-opacity="param(outline-opacity)" stroke-width="param(outline-width) 0.2"/>
</svg>
