<svg version="1.1" width="512" height="512" viewBox="0 0 512 512" xmlns="http://www.w3.org/2000/svg">
 <path d="m275.44 501.79c-0.65434-0.65434-1.2122-1.8554-1.2398-2.6691-0.0364-1.0747-0.45981-0.89195-1.548 0.66809-2.0376 2.921-3.2503 2.7158-7.3225-1.239-3.8605-3.7492-3.9726-4.4359-2.4789-15.176 0.92225-6.6308 0.84894-7.4493-0.86188-9.6243-2.9388-3.7361-4.2882-10.906-3.1706-16.848 0.5247-2.7897 0.9949-8.186 1.0449-11.992 0.0845-6.4327-0.0508-6.9195-1.9234-6.9195-1.1079 0-3.5211-1.5068-5.3628-3.3485-2.9932-2.9932-3.2841-3.7274-2.7418-6.9195 0.3337-1.9641 0.75768-8.0806 0.94216-13.592 0.23326-6.9688 1.092-12.783 2.8193-19.088 1.3661-4.9868 2.5017-10.57 2.5234-12.407 0.0497-4.1964-2.5175-25.516-4.3734-36.319-0.77135-4.4902-1.6668-10.396-1.9898-13.123-0.32304-2.7276-0.67628-4.9593-0.78498-4.9593s-1.5336 0.66646-3.1664 1.481c-2.0185 1.007-5.3495 1.4355-10.407 1.3389-12.949-0.2474-21.277 0.11472-21.277 0.92516 0 0.43138 0.92396 2.8731 2.0532 5.426 1.8476 4.1768 1.9432 5.1744 0.95442 9.9616-0.60435 2.9259-1.0988 7.0423-1.0988 9.1474 0 4.6146-3.2956 20.5-4.859 23.421-0.75743 1.4153-0.96245 5.6277-0.63504 13.047 0.26595 6.0264 0.1098 12.311-0.34699 13.965-0.45678 1.6543-1.2311 6.6319-1.7207 11.061-2.9826 26.981-5.1742 39.746-7.6917 44.798-0.91551 1.8373-2.1951 6.8175-2.8435 11.067-0.72873 4.7761-2.3276 10.061-4.187 13.839-2.8444 5.7797-3.3176 6.2348-8.6964 8.3641-4.0129 1.5886-6.1253 1.9789-7.1719 1.3253-0.81596-0.50958-2.7736-0.73716-4.3504-0.50574-2.1448 0.31479-3.5485-0.21095-5.5731-2.0873-2.3321-2.1614-2.626-2.9965-2.1253-6.041 1.8434-11.209 1.7655-18.052-0.26758-23.486-2.3959-6.4036-2.5621-12.9-0.56409-22.041 0.92551-4.2345 1.6463-14.173 1.9687-27.145 0.32787-13.194 0.99893-22.347 1.8887-25.763 1.2528-4.8099 1.1969-6.6625-0.60614-20.078-1.0925-8.1286-2.5995-17.133-3.3489-20.01s-1.3626-8.0814-1.3626-11.565c0-3.4836-0.59323-7.5808-1.3183-9.105-1.2873-2.7062-3.6773-23.323-3.917-33.79-0.0802-3.5044-1.4715-9.0564-4.1855-16.702-2.2359-6.2992-4.6238-14.03-5.3064-17.179-1.3448-6.2049-3.06-13.321-4.4856-18.611-1.8112-6.7202-3.6901-21.475-3.1209-24.509 0.32166-1.7146 0.10585-5.1692-0.47959-7.6768-1.8164-7.7801 1.5821-37.251 5.5582-48.2 2.3692-6.5237 2.5713-10.284 0.55271-10.284-1.0805 0-1.4316-1.1632-1.4316-4.7421 0-3.7712-0.28608-4.6323-1.3972-4.206-1.1574 0.44413-1.3058-0.33911-0.8646-4.5634 0.48671-4.6604 1.6536-12.273 2.9603-19.313 0.35517-1.9135 0.18022-2.555-0.5703-2.0911-1.2492 0.77206-1.2534 0.73477-1.0888-9.7035 0.0683-4.3307-0.23535-7.8739-0.67477-7.8739-0.43941 0-0.63096-4.617-0.42567-10.26 0.27835-7.651 0.83724-11.174 2.1979-13.853l1.8246-3.5927-2.4745-0.94081c-1.361-0.51744-3.4129-0.94645-4.5598-0.95335-6.0388-0.03631-20.193-3.8886-24.81-6.7523-11.049-6.8541-12.14-7.8677-17.246-16.028-9.4077-15.035-9.8526-16.768-5.4374-21.184 2.2056-2.2056 3.6367-2.7898 6.8336-2.7898 5.5187 0 31.788 2.6934 37.402 3.8348 6.7494 1.3723 13.437 5.1286 16.888 9.486 3.6161 4.5657 6.4139 5.0412 7.2611 1.234 0.32125-1.4436 0.78111-3.355 1.0219-4.2476 0.24079-0.89261 2.0965-2.3547 4.1237-3.2492 2.0272-0.89442 4.2045-2.5952 4.8383-3.7794 1.1934-2.23 7.5544-5.1875 11.157-5.1875 1.1326 0 2.3427-0.45877 2.6893-1.0195s1.2543-0.77994 2.0173-0.48716c0.76296 0.29278 2.6039-0.36721 4.0909-1.4666 1.9179-1.418 4.4686-2.0888 8.7762-2.3081 3.3399-0.17001 8.9526-0.77442 12.473-1.3431 5.7975-0.93665 6.6962-0.85351 9.5442 0.88283 1.7292 1.0543 3.7882 1.9185 4.5756 1.9204 0.7874 2e-3 3.9792 2.8171 7.093 6.2558 3.1137 3.4387 6.8225 6.9381 8.2417 7.7764 1.4192 0.83833 3.2669 2.9639 4.106 4.7236 1.9419 4.0722 4.9338 4.2124 10.995 0.51534 10.44-6.3676 12.57-6.6587 40.191-5.4928 20.368 0.85976 22.833 1.4846 24.825 6.2914 1.6342 3.9453 0.25455 6.6994-8.3549 16.679-6.9328 8.036-7.0627 8.1277-18.378 12.976-6.778 2.9043-7.9184 3.0883-21.474 3.465-7.8739 0.2188-14.783 0.54155-15.354 0.71722-0.73741 0.22687-0.68294 2.4881 0.18803 7.8055 0.6744 4.1174 1.249 8.023 1.2768 8.6791 0.0544 1.2827 4.0434 1.6541 5.2122 0.4853 0.38925-0.38925 2.8598-0.7855 5.4902-0.88057 2.6304-0.09507 5.4973-0.799 6.3709-1.5643 1.0094-0.88426 2.2842-1.1288 3.4972-0.67096 1.0499 0.39627 2.6285 0.34696 3.508-0.10959 1.4209-0.73751 5.3364-1.1402 20.83-2.1424 2.3622-0.1528 5.4546 0.29272 6.8721 0.99003 1.4175 0.69731 5.5743 1.2678 9.2374 1.2678 6.4446 0 9.6597 1.2934 9.6597 3.8858 0 0.48743 1.0737 0.88624 2.386 0.88624s2.386 0.33931 2.386 0.75401c0 1.2027 6.9516 8.4325 9.2557 9.6261 1.1536 0.59764 2.8224 2.3138 3.7084 3.8136 0.88598 1.4998 2.8689 3.4701 4.4064 4.3784 1.5375 0.90825 3.2624 2.6762 3.8332 3.9287 0.57068 1.2525 1.8414 2.5325 2.8239 2.8443 4.3428 1.3784 11.253 21.364 14.171 40.987 0.54648 3.6745 1.5945 8.6136 2.329 10.976s1.6141 6.2276 1.9549 8.5897c0.34071 2.3622 1.7006 7.4946 3.0219 11.405 2.2834 6.7583 2.3243 7.2427 0.82557 9.7799-1.5189 2.5712-1.4923 2.7484 0.72197 4.8197 1.9479 1.822 2.396 3.3888 2.9357 10.263 0.35029 4.4619 1.0163 10.689 1.48 13.839 1.221 8.2935 0.19263 27.502-1.865 34.836-0.9573 3.412-1.6981 8.1364-1.6461 10.499 0.0519 2.3622-0.49071 11.273-1.2059 19.802-1.0532 12.562-1.0726 16.396-0.10186 20.184 0.90516 3.5318 0.94068 5.6331 0.14515 8.5874-0.68085 2.5285-0.73286 4.5102-0.14709 5.6047 1.1211 2.0949-0.082 32.616-1.3644 34.612-0.49546 0.7712-0.94758 8.7034-1.0047 17.627-0.0759 11.848-0.55569 18.129-1.7785 23.282-1.1598 4.8875-1.4853 8.7308-1.0586 12.502 0.3672 3.2456 0.18838 6.5636-0.44268 8.2138-0.5823 1.5227-1.6512 7.2782-2.3752 12.79-1.1894 9.0537-1.574 10.228-3.9831 12.165-2.8351 2.279-8.0745 3.7102-9.7627 2.6668-0.55899-0.34547-1.0163-1.5428-1.0163-2.6606v-2.0325l-1.946 2.0888c-1.0703 1.1488-2.2748 2.0888-2.6767 2.0888-0.40189 0-2.3559-1.4886-4.3422-3.308l-3.6114-3.308 0.68043-7.2613c0.67122-7.1629 0.64159-7.3023-2.1884-10.292-3.7807-3.9948-4.9728-8.2764-4.5589-16.375 0.1881-3.6806-0.12371-7.5252-0.69664-8.5897-2.0753-3.856-2.7253-9.9308-3.0655-28.651-0.20339-11.192-0.98193-23.037-1.882-28.632-1.9254-11.971-6.8122-29.779-9.0358-32.927-0.92687-1.3123-2.4216-4.6078-3.3217-7.3233-0.90007-2.7155-2.1857-5.3931-2.8571-5.9502-1.6269-1.3502-5.8536 0.62791-7.3663 3.4475-0.62093 1.1573-2.5518 2.7794-4.2907 3.6046-4.1929 1.9897-4.4329 2.5609-2.7593 6.5665 2.5294 6.0536 1.8128 12.468-2.8792 25.772-2.3675 6.713-4.2381 13.354-4.157 14.757 0.0811 1.4035-0.60889 5.3435-1.5333 8.7556-1.4829 5.4734-1.5865 8.3946-0.88016 24.815 0.8954 20.816 0.96451 26.067 0.51497 39.131-0.17161 4.9868-0.0478 14.632 0.27513 21.434 0.69609 14.662-0.48643 24.61-3.6728 30.898-1.2754 2.517-2.8355 7.3408-3.4667 10.72s-1.5804 7.3355-2.1091 8.7927c-1.6868 4.6488-9.4614 8.7366-11.927 6.2711z" fill="param(fill)" fill-opacity="param(fill-opacity)" stroke="param(outline)" stroke-opacity="param(outline-opacity)" stroke-width="param(outline-width) 0.2"/>
</svg>
