<svg version="1.1" viewBox="0 0 512 512" xmlns="http://www.w3.org/2000/svg">
 <path d="m102.48 502.65c-30.62-9.9602 20.718-32.054 17.604-53.293 10.584-22.736-5.3752-47.841 5.8936-70.388-7.3662-15.026 17.834-37.78-11.42-32.318-27.752-6.4511 1.5157-39.555-28.224-40.454-18.84-16.704 6.1516-43.676-12.602-63.213 3.9794-21.863-26.999-32.187-27.979-57.433-8.6733-19.25 6.9799-56.385 2.7423-64.35-20.991 14.509-56.161-21.782-33.607-41.215 11.017-13.675 31.881-17.237 42.807-29.393-4.7084-15.4 1.1608-24.455 16.544-27.902-14.45-16.979 29.945-14.874 40.924-15.325 25.257 0.16668 31.893 29.326 48.736 37.955 18.557 2.2786 31.613 17.72 12.541 30.859-11.248 11.218-7.0649 26.544 0.30751 38.675 10.1 6.8389 25.846-2.2723 36.045 6.7561 30.173 19.74 68.102 14.914 102.12 12.619 28.79-2.2874 55.878-19.377 85.323-11.651 31.054 6.441 63.545 20.495 81.918 47.494 11.66 28.451 16.577 59.484 17.553 89.999-3.3569 20.649 4.3165 53.469-22.977 59.301-11.523-0.77074-22.88-30.488-20.857-4.1464-0.67549 17.697-23.368 32.197 2.2747 44.187 28.457 11.15-1.2192 44.746 6.9403 64.85 18.771 18.585-16.572 35.124 4.5969 53.745 9.6089 24.515-28.997 21.257-44.015 22.86-16.568 6.8944-19.489-14.595-10.562-24.775 5.901-9.1047 16.284-16.609 12.776-28.66 5.2492-23.252-13.444-37.761-18.253-58.13-1.2083-15.259-15.579-19.624-15.533-1.7456-14.656 15.219-10.436 35.468-6.7244 53.987-2.4082 11.829-8.8739 26.248-11.699 38.489-16.933-0.0981-49.982 7.2685-56.84-9.2625 15.142-19.81 31.824-38.269 34.007-64.988 8.3835-17.294-13.152-17.196-18.596-29.689 1.8013-30.91-35.157-20.767-55.322-25.235-17.134 7.0198-35.002 3.377-52.04-1.7058-15.692-7.9509-21.126 15.199-15.175 26.346 0.40177 25.484 12.511 55.21 3.5731 77.924-7.3643 12.772-2.0298 28.419-21.6 33.421-11.896 4.5052-26.805 0.36173-38.917-2.2628 4.2345-20.991 30.252-36.942 23.176-62.158-4.9363-13.969-9.3076-48.908-12.897-51.294-6.6823 20.737 2.0076 43.113-7.1712 63.578 6.4089 26.685-9.1219 49.725-28.768 65.734-8.3712 3.2469-17.826 3.703-26.626 2.2108z" fill="param(fill)" fill-opacity="param(fill-opacity)" stroke="param(outline)" stroke-opacity="param(outline-opacity)" stroke-width="param(outline-width) 0.2"/>
</svg>
