<svg version="1.1" width="512" height="512" viewBox="0 0 512 512" xmlns="http://www.w3.org/2000/svg">
 <path d="m380.52 499.56c-1.8453-0.96221-3.9252-2.8322-4.6219-4.1556-1.8506-3.5151-0.79656-12.864 2.5899-22.972 2.4776-7.3951 2.8599-9.9217 2.8052-18.54-0.0431-6.808 0.76804-14.718 2.5533-24.896 4.7082-26.843 4.3144-49.314-1.0498-59.9-1.4115-2.7855-4.438-6.7122-6.7256-8.7259-4.208-3.7042-11.926-17.29-11.926-20.992 0-0.99739-0.47591-1.8134-1.0576-1.8134-3.5679 0-7.6049-3.3915-10.498-8.8195-1.9727-3.7011-4.2794-6.5071-6.3571-7.733-1.7935-1.0582-3.261-2.5158-3.261-3.2391s-1.2199-2.7378-2.7108-4.4765c-1.4909-1.7388-3.684-4.773-4.8735-6.7427-2.8996-4.8017-8.8476-9.9012-18.709-16.041-7.3165-4.5549-8.2386-5.4559-8.8151-8.6128-1.0404-5.6971-2.8037-7.5717-8.2134-8.7319-7.1087-1.5246-12.092-1.2934-16.147 0.74887-1.964 0.98922-6.1694 2.2538-9.3455 2.8103-3.1761 0.55643-6.4344 1.2716-7.2407 1.5892-1.0208 0.40211-1.8119-0.33877-2.6048-2.4394l-1.1388-3.0169-13.454 0.36951c-7.3999 0.20321-13.767 0.68199-14.149 1.064-0.38195 0.38195-1.9075 6.6535-3.39 13.937-2.9956 14.716-3.9879 17.573-6.1032 17.573-1.175 0-1.2476 0.43028-0.39005 2.3124 0.73715 1.6179 0.76633 3.9798 0.0971 7.8639-0.72483 4.2071-0.65067 6.2833 0.30623 8.5735 0.98635 2.3607 1.0526 5.1155 0.30291 12.588-0.52787 5.2613-1.0956 12.363-1.2617 15.782-0.16605 3.4189-0.76853 6.3718-1.3388 6.5619-0.65265 0.21755-0.27784 1.9081 1.0114 4.5617l2.0483 4.2161-2.3332 1.8887c-2.0974 1.6978-2.3666 2.756-2.6634 10.469-0.20019 5.2031 0.27336 11.801 1.203 16.763 2.1394 11.417 2.073 20.916-0.15108 21.615-0.92635 0.29112-2.6662 0.9213-3.8664 1.4004l-2.1822 0.8711 2.904 5.442c2.4623 4.6143 2.904 6.5024 2.904 12.414 0 6.3373-0.21475 7.1128-2.3584 8.5174-2.5855 1.6941-4.365 6.7528-4.3734 12.432-5e-3 3.0202-0.78937 4.4886-4.5467 8.5054-5.2152 5.5755-7.742 7.0687-13.613 8.0446-6.4249 1.068-18.01-0.30366-20.578-2.4365l-2.1714-1.803 5.058-9.5884c5.023-9.5221 5.0649-9.6738 6.0644-21.936 1.5825-19.414 1.6083-54.095 0.0428-57.582l-1.2963-2.8873-1.377 3.2479c-2.3898 5.6368-6.0779 30.699-6.082 41.328-2e-3 5.4606-0.44337 10.75-0.98064 11.754-0.53729 1.0039-2.8416 3.1082-5.1206 4.6763-2.7102 1.8647-5.1795 4.7943-7.1378 8.4684-3.5803 6.7173-6.0245 9.1579-11.788 11.771-5.313 2.4087-17.556 2.7391-22.648 0.6112-5.5965-2.3384-4.8094-5.8396 4.4705-19.884 4.2945-6.4996 8.3463-13.358 9.004-15.24 0.89479-2.5606 0.99366-7.0576 0.39267-17.859-0.66392-11.933-1.1718-56.518-1.184-103.94-1e-3 -5.2934 0.70652-13.089 1.5731-17.324s1.7017-10.048 1.8559-12.919l0.28028-5.2196-6.046-3.5177c-8.6254-5.0184-13.076-9.7134-15.234-16.072-1.0004-2.9472-2.6851-6.1297-3.7438-7.0721-1.0587-0.94244-3.8327-3.3747-6.1644-5.405-2.6784-2.3322-5.4504-6.1722-7.528-10.429l-3.2885-6.7371 0.63846-21.655c0.59676-20.241 0.49322-22.378-1.5852-32.723-1.7684-8.802-2.249-14.516-2.3475-27.911-0.11368-15.459-0.33788-17.515-2.7284-25.023-3.6664-11.516-6.318-24.533-6.3357-31.102-0.008294-3.0785-0.42657-6.3662-0.9295-7.3059s-6.5117-5.69-13.353-10.556c-14.635-10.41-23.26-18.993-26.905-26.775-4.637-9.8983-3.2314-23.382 2.8838-27.665 4.18-2.9278 12.025-1.2656 18.14 3.8435 2.2124 1.8484 8.9758 5.733 15.03 8.6324 12.904 6.18 17.019 9.2631 22.61 16.941 2.2645 3.1096 4.22 5.6539 4.3455 5.6539 0.12555 0 2.4529-0.87688 5.172-1.9486 2.719-1.0717 6.9578-1.9465 9.4194-1.9438 2.4616 0.0027 6.4247-0.01421 8.8067-0.03748 8.3749-0.08183 22.9 1.8526 26.11 3.4773 1.7845 0.90328 4.6878 2.7232 6.4517 4.0442l3.2071 2.4019 2.5675-2.9625c5.22-6.0231 12.122-10.758 18.448-12.657 3.4407-1.0326 9.7207-3.885 13.955-6.3388 22.932-13.287 25.662-14.13 28.246-8.7165 1.4548 3.0489 0.63675 6.1771-5.4475 20.831-1.6483 3.9701-3.2521 9.6402-3.5639 12.6-0.49147 4.6651-1.2683 6.2676-5.832 12.031-6.9938 8.8317-14.14 14.626-25.004 20.273l-8.9685 4.6618-0.6484 7.2183c-0.35662 3.9701-1.6833 12.367-2.9482 18.659-2.7582 13.721-2.858 15.989-0.70388 15.989 0.87779 0 14.412 1.6053 30.076 3.5673 27.595 3.4565 29.243 3.5549 53.023 3.1675 49.644-0.8087 71.031-0.46557 82.289 1.3202 38.195 6.0587 74.775 24.945 82.295 42.488 4.9624 11.577 4.8482 23.442-0.49983 51.957-1.8863 10.058-3.6865 21.752-4.0004 25.988l-0.57069 7.7013 4.3614 4.0202c4.5713 4.2136 11.081 8.0067 13.741 8.0067 2.373 0 13.713 11.37 14.756 14.796 0.50409 1.6552 1.1999 5.7927 1.5462 9.1944 0.34632 3.4017 1.4918 7.8747 2.5454 9.94l1.9157 3.7551-1.9827 0.51849c-2.3224 0.60733-2.3666 0.94677-0.53903 4.1438 1.7849 3.1224 1.7727 3.8498-0.0649 3.8498-0.9865 0-1.3346 0.58283-1.006 1.6843 2.8014 9.3886 2.7981 10.44-0.0457 14.749-2.6879 4.0731-2.7332 4.3741-2.7332 18.156v14.014l-4.1548 8.0468c-5.7575 11.151-6.1972 12.438-4.1978 12.287 3.0675-0.23204 2.5907 5.6122-0.84852 10.401-2.5542 3.5567-2.9625 4.8269-2.4426 7.5984 0.57237 3.051 0.38831 3.41-2.2128 4.3168-3.5517 1.2381-5.1234 4.0897-4.7911 8.6923 0.32578 4.512-0.71798 6.2171-3.4822 5.6887-2.0245-0.387-2.2081-0.0124-2.669 5.4434-0.27221 3.2225-1.2451 7.808-2.162 10.19-0.9169 2.382-1.7955 6.6264-1.9524 9.4318-0.303 5.4174-1.4944 7.6083-4.8259 8.875-1.4004 0.53241-2.457 2.2681-3.308 5.4338-1.9438 7.231-7.1178 17.837-10.204 20.915-6.8606 6.8448-23.024 10.407-30.212 6.6593z" fill="param(fill)" fill-opacity="param(fill-opacity)" stroke="param(outline)" stroke-opacity="param(outline-opacity)" stroke-width="param(outline-width) 0.2"/>
</svg>
