<svg version="1.1" width="512" height="512" viewBox="0 0 512 512" xmlns="http://www.w3.org/2000/svg">
 <path d="m207.24 488.9c9.165-1.8438 9.6816-2.4635 12.707-15.241 0.40859-1.7258 1.5535-2.9151 3.6492-3.7907l3.0538-1.276-0.019-6.5912c-0.0105-3.6252-0.61417-14.919-1.3416-25.098-1.8022-25.219-0.0254-55.67 3.3125-56.768 0.66429-0.21848 2.5281-1.7132 4.1418-3.3216 3.7348-3.7225 3.9484-8.2848 0.66306-14.163l-2.271-4.0632 2.1414-1.4031c1.1778-0.77172 2.9849-3.1975 4.0158-5.3907 1.5922-3.3873 1.7321-4.548 0.92935-7.7107-0.86504-3.408-0.74527-3.9605 1.4149-6.5277 1.298-1.5425 2.36-3.4302 2.36-4.1948 0-1.0049 0.56293-1.2358 2.0312-0.83303 5.0308 1.3799 8.6925 1.5811 10.562 0.5804 1.6109-0.86213 2.2943-0.80787 3.5057 0.27833 2.962 2.6558 7.5107 3.194 11.246 1.3306 3.3831-1.6876 3.4483-1.6861 5.7641 0.13551 2.7976 2.2006 4.6763 2.2986 9.0485 0.47174 3.0628-1.2797 3.4055-1.2537 5.162 0.39259 2.7027 2.5331 10.3 3.3784 13.853 1.5412 2.5119-1.299 3.1547-1.3044 6.6884-0.0569 4.5607 1.6101 7.1415 1.162 11.828-2.0536 2.9255-2.0072 3.7256-2.1898 5.6848-1.2971 3.7289 1.699 8.6644 1.2071 13.45-1.3404 4.1723-2.2211 4.7545-2.3062 8.7555-1.2808 5.1748 1.3263 7.1947 0.78663 10.135-2.7076 2.7419-3.2585 3.2576-3.313 3.2576-0.34378 0 3.3776 1.3688 5.4088 4.5265 6.7167 1.8286 0.75745 2.6175 1.6049 2.2895 2.4597-2.7731 7.2265-0.17481 14.942 5.383 15.985l3.2439 0.60857-0.58171 3.8792c-0.44505 2.9677-0.10204 4.9942 1.4598 8.6248 2.0355 4.7316 2.0518 4.7442 5.5425 4.276l3.501-0.46957-0.51405 3.7567c-0.46478 3.3967-0.20535 4.0843 2.7074 7.1751 2.8275 3.0004 3.5851 3.3502 6.195 2.8605l2.9736-0.55786 0.59185 12.938c1.6564 36.208-0.29358 48.073-10.3 62.671-2.4003 3.5018-2.4684 3.8721-1.3238 7.2015 1.5512 4.5123 3.4319 5.6908 10.019 6.2782 4.1601 0.37102 6.6793 0.0176 11.231-1.5757l5.868-2.054 1.5183-5.868c0.83505-3.2274 1.546-7.4394 1.5799-9.36 0.0447-2.5363 0.80275-4.3361 2.7699-6.5766 3.1709-3.6115 2.9958-1.7573 3.0996-32.813 0.0637-19.063 0.36338-24.749 1.475-27.986l1.395-4.0625 1.035 4.0625c0.82477 3.2373 1.6873 4.4133 4.2466 5.7894 4.6487 2.4998 6.6034 9.4959 7.8408 28.064 0.93783 14.072 0.89776 14.802-1.4535 26.463-2.8579 14.174-4.7969 20.127-9.113 27.979-2.9092 5.2928-3.0691 5.9468-1.7969 7.3526 0.76802 0.84867 1.3964 2.0084 1.3964 2.5772 0 2.1234 5.2782 3.7889 12.008 3.7889 11.453 0 12.914-1.125 14.628-11.266 0.44206-2.6155 1.5324-4.3847 4.0082-6.504l3.401-2.9111 0.51941-18.322c0.53928-19.024 3.3668-44.692 5.4802-49.75 0.66898-1.6011 2.9461-4.9097 5.0603-7.3525 3.6054-4.1658 3.8098-4.6906 3.2933-8.459-0.30287-2.2097-1.7346-6.2035-3.1816-8.8752-2.3002-4.2469-2.5182-5.2658-1.7342-8.1052 1.2455-4.5109 0.32859-7.2216-3.2324-9.5559-2.7762-1.8199-3.0809-2.4628-3.4257-7.2287-0.31731-4.3869-0.84329-5.7108-3.2588-8.203-2.7739-2.8619-2.8592-3.1746-2.3077-8.4516 0.5138-4.9158 0.31129-5.9448-1.9678-9.9993l-2.5406-4.5196 1.8474-6.1982c1.7284-5.7986 1.7563-6.444 0.43426-10.011-1.3484-3.6381-1.3273-3.9074 0.45919-5.8727 2.3571-2.593 3.309-8.6058 1.9703-12.446-0.86302-2.4757-0.79343-3.0685 0.44134-3.7595 2.9707-1.6625 6.0148-8.3517 6.0148-13.217 0-2.9883 0.80662-6.4584 2.2709-9.7694 2.2819-5.1598 2.3712-9.1601 0.29433-13.184-0.72285-1.4004-0.40025-1.5122 3.0528-1.0578 6.0437 0.79535 7.0493-0.49806 8.1102-10.431 0.84034-7.8686 0.76647-8.7119-1.115-12.729-1.3483-2.8787-1.8182-5.086-1.4204-6.6713 0.90843-3.6195-1.0162-9.2463-4.4706-13.07-1.7111-1.894-3.1111-4.3834-3.1111-5.5319 0-3.5705-3.6522-9.8433-7.0919-12.181-1.8784-1.2764-3.7048-3.4874-4.2607-5.1579-1.0879-3.2692-9.3982-9.5593-15.128-11.45-2.4539-0.80985-3.6907-1.9192-4.6202-4.1437-1.7202-4.117-6.4134-8.2019-11.347-9.8757-2.2436-0.76125-6.1885-2.8045-8.7665-4.5407-5.0095-3.3736-6.9933-3.6834-11.981-1.871-2.596 0.94338-3.4944 0.93078-5.0354-0.0706-3.294-2.1405-11.977-3.2943-16.108-2.1407-3.0051 0.83907-4.3005 0.76966-7.0393-0.37717-5.2508-2.1987-8.0591-1.7761-12.814 1.9285-3.9216 3.0553-4.4434 3.2276-6.2419 2.0619-8.7006-5.6396-14.322-6.6819-18.808-3.4875l-2.6801 1.9084-2.0314-1.9084c-2.7208-2.556-10.522-2.6051-16.359-0.1028-2.3167 0.99306-4.5706 1.8056-5.0087 1.8056-0.43808 0-2.2471-1.2736-4.02-2.8302-3.0576-2.6846-3.4656-2.7926-7.9307-2.0973-2.589 0.40312-7.9572 0.76841-11.929 0.81174-5.2264 0.057-8.1581 0.55821-10.609 1.8137l-3.3866 1.7349-2.4814-2.3629c-3.3499-3.1899-9.4712-4.6577-14.609-3.5032-3.4965 0.78561-4.4856 0.62685-8.1075-1.3012-4.7864-2.548-10.596-2.864-16.214-0.88187-3.4112 1.2035-4.3566 1.1508-11.234-0.62716-6.9674-1.8011-7.9796-1.8526-14.021-0.71267l-6.5114 1.2286-2.9062-2.8126c-3.0287-2.9313-8.4202-5.6125-11.286-5.6125-0.92335 0-3.0284-1.8173-4.7197-4.0745-1.6791-2.241-3.989-4.6878-5.1331-5.4375-1.1441-0.74964-2.0802-2.0863-2.0802-2.9705 0-3.1615-4.6292-10.914-7.6212-12.763-2.5514-1.5769-3.0688-2.511-3.5973-6.4949-0.84925-6.4019-2.6452-9.4545-6.8135-11.581-3.5365-1.8042-3.5483-1.8283-3.0332-6.1774 0.68506-5.7843-0.94655-8.73-6.5088-11.751-3.4939-1.8975-4.5353-3.0043-5.0039-5.318-0.73339-3.621-4.6271-8.8432-7.868-10.552-1.3398-0.7066-4.8608-3.753-7.8244-6.7699l-5.3884-5.4852h-5.8622c-5.576 0-6.0401-0.17047-9.5074-3.4926-4.9738-4.7655-8.0305-5.6531-15.312-4.4465-5.0199 0.83182-6.1906 0.75838-8.1261-0.50981-3.647-2.3896-8.7906-1.8773-14.064 1.4008-3.9152 2.4338-5.0135 2.743-7.0565 1.9862-5.5638-2.0609-13.012 2.802-14.243 9.2983-0.41584 2.1957-1.1276 3.01-2.9885 3.4187-3.9211 0.86121-5.7069 4.8583-4.9923 11.174l0.60023 5.3053-6.5202 2.5581c-3.5861 1.407-6.726 3.0944-6.9775 3.7498-0.90577 2.3604 3.6517 7.4725 10.767 12.077 0.45914 0.29713-2.1052 5.7815-5.6986 12.188-9.8425 17.547-15.563 30.073-14.652 32.085 0.41679 0.92061 2.7767 4.2463 5.2443 7.3905 4.4498 5.6699 4.5497 5.7331 12.224 7.7353 7.3068 1.9063 8.3781 1.9607 19.254 0.97755 6.3344-0.57262 12.107-0.81469 12.828-0.53793 0.81503 0.31275 1.3113 1.75 1.3113 3.7977 0 2.3733 0.75733 4.1571 2.7083 6.3792 1.7512 1.9946 2.7083 4.064 2.7083 5.8561 0 2.6357 6.7552 19.824 11.37 28.931 1.1864 2.3413 3.5822 5.394 5.324 6.7838 2.6173 2.0884 3.1669 3.1196 3.1669 5.9423 1.8e-5 1.8785 0.96816 5.3316 2.1514 7.6736s2.6527 6.6845 3.2654 9.6501c0.90743 4.3918 1.7642 5.9862 4.6194 8.5961 3.2286 2.9512 3.5054 3.5823 3.5054 7.9922 0 3.957 0.62939 5.8657 3.6266 10.998 1.9946 3.4153 4.0306 8.34 4.5244 10.944 0.49381 2.6039 1.6717 5.568 2.6175 6.5869 0.94584 1.0189 2.3344 4.227 3.0858 7.129 0.75139 2.9021 2.3799 6.8084 3.619 8.6808 1.2391 1.8724 2.7269 5.1854 3.3063 7.3624 1.4193 5.3327 4.7094 9.4579 8.5557 10.727 2.7382 0.9037 3.3173 1.614 4.2116 5.1657 0.5703 2.2648 2.2459 5.4949 3.7236 7.1779l2.6867 3.06-1.158 5.4568c-1.1383 5.364-1.1185 5.4963 1.165 7.7797l2.3229 2.323-1.83 2.4753c-2.6677 3.6082-1.5531 9.3551 2.5417 13.106l3.0474 2.7912-2.3048 2.1652c-1.9994 1.8783-2.2246 2.6471-1.6996 5.8019 0.33282 2.0002 1.4129 5.2301 2.4002 7.1775 2.3868 4.7082 5.2109 29.095 5.4445 47.015 0.26555 20.364-3.7303 37.642-11.521 49.82-3.7169 5.8095-4.0526 6.7804-3.5126 10.158 0.39494 2.4698 1.2412 4.0788 2.4993 4.7522 2.5712 1.3761 11.89 1.381 16.504 9e-3 6.671-1.9843 7.4629-3.1839 9.1721-13.894 1.451-9.092 1.7312-9.8274 4.9849-13.081l3.4475-3.4475-0.63939-23.026c-0.63049-22.705-0.6048-23.205 1.8461-35.937 1.367-7.101 3.074-13.499 3.7933-14.219 1.9332-1.9336 4.79-1.6631 4.79 0.4532 0 0.96876 1.4108 4.5234 3.1351 7.8993 4.5759 8.9586 7.7384 28.366 8.3558 51.277 0.42447 15.751 0.29808 17.76-1.5467 24.586-1.1049 4.088-3.4402 9.7755-5.1895 12.639-7.922 12.967-9.2397 15.516-8.7207 16.868 0.30138 0.78539 0.90596 1.428 1.3435 1.428s0.69878 0.88828 0.5805 1.974c-0.18073 1.6589 0.57742 2.2264 4.7502 3.556 5.7957 1.8466 5.9952 1.8531 13.09 0.42568z" fill="param(fill)" fill-opacity="param(fill-opacity)" stroke="param(outline)" stroke-opacity="param(outline-opacity)" stroke-width="param(outline-width) 0.2"/>
</svg>
