<svg version="1.1" width="512" height="512" viewBox="0 0 512 512" xmlns="http://www.w3.org/2000/svg">
 <path d="m106.39 434.53c15.955-11.21 36.578-11.631 48.906-27.878 20.593-15.335 48.285-27.494 54.013-55.389 6.253 14.185 14.41 27.471 22.044 40.854 7.2581 2.6665 16.765 8.8927 20.599 14.096-18.515 5.978-42.196 4.1201-56.412 19.289 13.263-4.694 0.71214 9.8468 16.487 4.9918 24.48 5.5634 49.051 2.7986 73.26-2.9357 12.324-4.2917 12.029-18.942 27.702-12.975 27.385-1.8226 10.549-37.139 22.924-52.792 15.797 14.259 3.398-15.549 10.505-25.458 7.2581-12.018-6.4279-43.742 13.78-23.753 7.2171 5.6681 15.953 25.693 14.658 4.109 4.1842-22.888-15.751-43.626-28.601-55.125 12.792-3.8752 31.718 23.787 21.276-1.6444 1.2341-10.45-30.817-19.418-19.348-19.483 11.019 2.0746 29.999-6.2653 33.454 7.6255 7.495 25.454 13.46 55.556-3.986 78.494-11.154 10.182-6.0418 13.836 2.735 13.748-2.1966 12.906-5.0947 41.194 1.3727 44.903 12.72-12.281 37.436-8.5038 44.628-27.829 5.8289 13.378 6.3202 5.7695 7.9118-5.2081 3.0857-12.589 9.4469-25.073 9.3493-5.6187 0.91054 10.89 11.902 25.374 6.9403 4.7986-3.1989-34.704 19.279-62.955 35.076-91.515 14.129-24.503 6.9232-54.326-8.0268-76.551-0.28376-7.001 34.51 30.769 20.003 6.7795-5.2562-22.48-27.057-31.02-39.647-48.398-9.1828-9.1927 23.777 3.7581 28.808-7.243 4.9472-4.8641-27.402-4.7555-32.317-15.164-15.455-15.292-35.566-23.646-57.361-22.964-18.871-0.84738-43.91-12.892-57.59 5.9708-4.3348 9.163-7.1467 19.794-7.3432 3.1331-7.1397-12.03 11.066-28.298 10.339-31.541-16.467-3.879-29.614 23.767-34.879 24.415 2.7691-9.3665-3.5892-46.891-5.4384-18.769-3.4633 24.612-29.241 35.907-38.318 57.267-5.1243 10.339 13.223 40.61-2.5177 20.231-8.5044-14.531-13.035-17.304-10.923 1.118-5.2938 9.9123 15.123 42.467-3.451 21.191-11.978-11.205-7.6626-49.404-21.339-48.451-2.0643 17.738 0.67839 35.591-5.151 52.942-7.4155-6.4236-17.663-26.352-14.94-4.1559-0.0646 13.444-29.276 2.4582-39.06 11.197-22.482 4.5034-35.1 27.831-46.135 45.523 2.0474 11.473-25.929 20.638-8.0948 4.3635 18.208-12.691-15.582-4.208-19.168 5.0524 15.806-21.83-9.5711-1.8195-13.242-6.4261 3.1193-9.069 7.1328-20.259-4.2401-9.2655-11.269 4.5315-4.7421 25.882-19.226 20.721-22.12-2.0111 17.692 11.587-6.4842 6.8006-10.53 0.0858-19.012 10.122-2.7319 7.4577-8.6274 12.626-20.89-15.421-17.781 6.2267-2.4758 10.7 10.085 22.945 11.224 24.06-6.2346-0.33503 5.5318 8.3574 0.63694 10.295 10.925 5.0362 3.8155 5.212 5.1983 8.0868 7.3129 5.687 21.803 15.561 18.756 24.499-7.0225 22.146-21.343 39.105-46.367 38.987-8.0401 0.15905-15.172 8.9441-8.4076 8.2242-6.2276 6.3669 5.0728 1.8341 3.9554 7.5379 8.4549-2.9645 1.4011 7.7157 12.069 0.21461 23.495-6.7324 52.015 1.535 70.933-17.431 10.14-5.2134 50.861-19.322 29.914 4.6092-1.9609 26.152-32.772 24.757-39.345 46.59 6.7353-2.8427-2.3248 7.9406 10.199 1.718-2.9869 17.062 6.6486-4.0102 8.2166 5.8408z" fill="param(fill)" fill-opacity="param(fill-opacity)" stroke="param(outline)" stroke-opacity="param(outline-opacity)" stroke-width="param(outline-width) 0.2"/>
</svg>
