<svg version="1.1" width="512" height="512"  viewBox="0 0 512 512" xmlns="http://www.w3.org/2000/svg">
 <path d="m142.79 502.8c-14.309 1.4257-27.141-1.2582-8.1988-12.4 27.304-11.034 20.704-44.248 12.048-65.754-13.661-30.521-37.608-58.738-69.206-71.243-24.952-3.5429-58.126-2.3483-72.183-27.668 17.38-11.947 39.219-24.555 57.962-37.429 49.835-8.5281 101.23 22.276 149.51-0.67735 37.578-13.081 76.003-35.235 117.14-25.17 28.667-0.94348-18.015-27.731-27.412-34.366-31.017-20.776-54.31-57.424-48.161-95.905-0.19964-32.757 12.102-65.328 37.051-87.162 21.713-23.397 51.759-39.449 84.251-38.56 44.607-0.13421 95.113 13.536 120.89 52.765 7.0806 16.434 12.642 36.254 9.7415 53.908-7.1547 13.018-11.58 28.669-22.612 38.618-13.213-18.46-26.964-49.687-52.574-49.004-31.23 3.3505-39.059 38.894-22.278 62.004 18.228 38.2 53.155 69.464 58.333 113.06 4.0522 29.644-3.4898 59.429-19.435 84.52-22.387 32.761-19.325 74.415-31.791 110.54-10.114 25.581-38.806 24.937-61.918 25.463-28.292-1.3958 7.8313-25.964 20.524-25.517 34-7.7412-11.585-38.21-26.582-39.231-41.813 11.349-85.25 8.0818-128.02 6.8375-19.753 18.343-28.093 46.901-50.916 62.094-8.4672 2.6144-17.592 2.0721-26.159 0.27234zm199.91-103.27c37.227-7.7587 74.825-27.117 93.342-61.797 15.499-18.769 20.996-45.411 9.5406-67.634-18.672-40.007-59.722-67.802-69.69-112.1-2.4162-28.714 2.7723-66.499 33.613-78.106 21.759-9.1106 45.344 2.4578 63.92 11.157 3.2412-25.874-33.516-39.215-55.356-43.198-38.433-7.5199-81.212 19.065-85.944 59.144-7.0802 23.689 1.1589 47.685 13.634 67.927 19.301 35.627 48.817 64.021 72.3 96.545 12.002 21.521-1.935 45.036-21.347 56.054-44.33 25.349-100.29 23.179-147.17 6.2223-18.78-17.385 22.873-33.628 37.147-39.695 9.5047-3.7591 57.318-15.601 23.463-16.656-53.733-0.4868-100.72 39.847-155.19 31.868-13.673 0.42211-40.721-14.983-47.174-1.3747 19.305 18.359 43.659 30.443 64.786 46.733 32.333 21.186 68.352 36.174 106.6 42.461 20.807 5.1353 42.403 6.7373 63.53 2.4445zm-282.56-75.968c6.7072-17.266-26.45-2.9054-4.518 1.2594l4.518-1.2596zm38.992-2.1322c-6.113-21.264-7.8949 9.3654 0 0z" fill="param(fill)" fill-opacity="param(fill-opacity)" stroke="param(outline)" stroke-opacity="param(outline-opacity)" stroke-width="param(outline-width) 0.2"/>
</svg>
