<svg version="1.1" width="512" height="512" viewBox="0 0 512 512" xmlns="http://www.w3.org/2000/svg">
 <path d="m183.15 418.29c-23.625-2.0992-44.321-14.784-67.231-19.765-12.298-5.4385-30.31-15.472-29.526-29.361-11.28-13.606-7.9212-31.562-15.628-45.59-9.5636-8.096 7.6911-4.5503-1.0728-14.833 0.38545-12.473-16.154-17.739-0.13674-26.808 8.4814-5.653 21.828 0.66529 29.051-4.428 3.4946-15.149 11.224-31.907-2.6977-44.016-7.1528-12.567-4.468-28.448-9.9243-35.983 9.2696-11.132 22.183-30.418-3.1464-24.767-15.711 1.4608-45.868 1.4147-31.533-22.565 9.8376-14.3 35.888 1.6092 44.091-13.841 8.8132-17.574 35.747-18.091 41.435 2.0662 15.263 4.7542 36.931-20.629 49.266-0.68071 3.5467 6.5899 20.024 6.905 26.111 3.9797 11.935-15.19 31.641-6.4721 44.692 0.60526 22.365-1.5456 44.442 3.8127 66.794 1.1338 16.877-2.2456 37.945 0.28161 51.477-9.8512 8.0616-12.704 22.026-30.766 39.472-24.952 15.883-0.19321 10.474 23.149 25.006 19.753 10.554 1.1702 22.014-0.35266 31.61 4.8114-0.13899 10.507-2.015 20.988-9.3292 29.005-4.961 2.8953-12.68 0.7034-18.697 1.6507-8.8386 0.68961-18.447-0.47741-26.802 1.3781-24.671 25.031-44.826 54.854-74.342 74.835-14.363 8.7295-27.897 43.968-0.25281 42.015 17.967-1.3129 34.03 7.4488 45.933 20.405 15.21 12.482 21.913 38.862 6.457 53.637-14.178 10.805-29.192 22.72-48.284 20.387-6.7335-0.34505-13.282-0.21118-17.571 5.775-8.6183 7.0487-18.518 13.348-28.815 17.249-20.494 0.3306-42.206-3.2296-61.023 6.9262-16.078 7.0135-33.889 13.415-51.833 12.151l-3.5504-0.32453zm181.54-100.92c-2.6925-4.03-2.3567 3.8934 0 0zm-116.04-37.808c7.1848-17.949 9.9715-39.639 30.313-48.617 17.231-9.6065 33.701-20.464 46.08-36.216 5.4592-7.8507 16.699-19.912 20.006-23.917-29.437 2.2196-59.199-0.18868-88.447 4.0346-16.29 5.7209-11 29.17-12.488 43.058 0.86286 19.899-2.8952 39.561-2.9702 59.344 1.2876 8.3924 3.2118 12.37 7.5056 2.3134zm-70.739 1.0582c5.1451-16.491 10.436-32.769 13.529-49.829 4.4213-19.767 15.972-37.31 18.653-57.356-14.337-0.6454-41.621-6.1414-32.19 17.384 4.4601 17.862 4.1514 37.058-3.7011 53.951-3.6441 11.717-9.4049 34.701 2.4088 39.193z" fill="param(fill)" fill-opacity="param(fill-opacity)" stroke="param(outline)" stroke-opacity="param(outline-opacity)" stroke-width="param(outline-width) 0.2"/>
</svg>
