<svg version="1.1" width="512" height="512" viewBox="0 0 512 512" xmlns="http://www.w3.org/2000/svg">
 <path d="m165.9 501.21c16.762-3.2925 16.2-12.906-1.218-6.9608 4.9592-10.618-27.595 3.2526-34.533-10.18 22.051-4.8853-32.38-8.8131-10.965-13.689-9.1317-3.1861-28.305-19.531-7.9871-13.746-31.677-19.264-52.061-56.517-45.484-93.837 2.6923-14.172 8.2771-23.798-1.1299-21.548 4.044-18.011 18.14-36.883 5.2178-29.538 15.618-22.897 47.774-25.179 53.393-55.313 11.226-8.9731 14.92-42.84 6.7548-24.36 3.0307-26.546 24.033-47.408 24.839-74.703 2.6315-11.951 4.6332-25.222 0.40003-26.43 5.3709-15.106 7e-3 -21.366 14.72-36.131-41.557 2.205-83.699 7.4802-124.83-1.8092-7.9389-5.8403-31.961 5.0482-29.513-9.4752-4.759-16.217 9.8438-11.633 21.144-10.535 29.271 5.1093 58.86 8.5454 88.607 5.5726 20.765-0.87778 41.659-1.7355 62.013-6.2676 4.426-25.23 27.95-22.441 46.663-26.607 20.318 8.6937-2.8004-27.251 20.89-28.011 10.094-1.7436 17.224 10.853 27.554-1.2924 24.345-10.896 52.237-4.0228 78.093-4.7191 47.059 3.2291 94.194 4.915 141.36 5.3491-1.699 6.9574 4.9346 22.455-6.9119 19.012-62.182-0.20249-124.12-7.2812-186.28-7.2768-24.736-1.3364-34.75 16.192-24.349 37.155 1.8809 24.14 22.317 40.651 26.283 64.435 3.445 11.969 12.791 25.975 4.7181 22.611 3.2957 13.373 18.436 44.447 14.234 48.068 1.0051 11.991 6.2165 38.562 15.787 53.024 5.6148 11.468 11.417 27.41 25.973 13.957 21.5-15.217 47.043-18.959 69.883-14.504 22.505 5.6496 3.6617 37.104 11.553 54.504-2.0257 10.518-11.987 24.849-20.414 37.932-9.0667 7.7483-13.307 21.144-25.716 26.247-13.45 12.53-12.515-2.5035-26.489 11.676-6.87 4.9252-17.921 9.9778-8.0244-2.0856-8.34 2.3733-23.057 8.8301-15.782 0.42597-21.694-0.86268-12.413 54.09-26.854 48.399 0.68848-17.135-5.4782 10.324-6.4404-9.0651-0.72467 2.4183-11.31 40.129-14.732 23.956-6.7898 6.9098-16.759 26.943-15.631 14.826-12.656 19.872-23.291 24.824-42.25 33.809 5.0432-13.798-38.356 16.732-29.879 1.5195 8.5964-13.824-22.853 6.9273-31.848 3.1482-7.2795 0.20407-16.122 4.8025-22.822 2.4595z" fill="param(fill)" fill-opacity="param(fill-opacity)" stroke="param(outline)" stroke-opacity="param(outline-opacity)" stroke-width="param(outline-width) 0.2"/>
</svg>
