<svg version="1.1" width="512" height="512" viewBox="0 0 512 512" xmlns="http://www.w3.org/2000/svg">
 <path d="m214.41 466.58c6.883-18.979-33.198-4.6716-10.373-26.467-7.6241-11.414 44.888-10.718 9.5463-23.411-8.5416-13.072-22.711-10.477-36.056-10.675-17.047-3.5302-30.825 8.1229-47.086 10.806-18.286 8.8988-22.79-4.3994-4.4326-9.7509-12.638-10.736-28.634 15.906-32.119-0.20955-4.7796-31.435 47.142-14.282 69.037-22.316 36.883 0.65734 5.9402-22.63 4.9321-42.608-0.6724-14.589 5.0442-78.42-20.543-51.341-29.1 4.8668-15.36 59.228-36.277 54.059-23.143-22.759 10.173-54.267 5.3452-81.187-21.043-21.476-17.632-78.831-58.311-71.344-32.136 9.3141-72.851-22.68-38.338-51.394 13.937-41.724 65.892-40.293 83.785-74.266 10.338-13.249 17.697-20.746 28.335-35.059 5.9447 21.459-10.311 29.853 4.3344 39.72-4.8668 28.78 34.185 42.355 37.097 70.177 22.659-0.2356 34.648 23.243 57.087 21.621 36.681 4.8486 82.165 8.8931 99.178 47.701 18.095 48.317 16.503 103.1 0.32327 151.87-9.7286 34.895 22.036-21.494 21.618-33.201 15.374-59.474-13.296-117.2-26.875-173.95-8.283-59.19 38.236-127.47 101.05-127.14 39.01-1.2272 59.262 37.66 69.634 69.672 2.5856 17.357 14.673 40.528-0.24655 54.905-14.035 17.428-33.437 51.786-29.723 14.686 0.67063 18.259-10.06 36.262-29.666 24.011 3.9784 7.7929 0.70363 28.025 2.8964 45.047-4.5896 14.944-11.266 25.349 1.6683 13.368 2.957 11.067-17.034 32.155 0.32545 25.869-13.455 29.863-1.2602 47.437-17.311 71.51-13.001 27.27-37.152 55.604-51.273 77.17-24.77 19.363-60.414 4.4794-88.353 17.378-17.384-1.6529-40.297 38.458-40.203 12.641-10.014 2.2968-17.214 17.942-29.005 12.103z" fill="param(fill)" fill-opacity="param(fill-opacity)" stroke="param(outline)" stroke-opacity="param(outline-opacity)" stroke-width="param(outline-width) 0.2"/>
</svg>
