<svg version="1.1" width="512" height="512"  viewBox="0 0 512 512" xmlns="http://www.w3.org/2000/svg">
 <path d="m42.5 438.47c1.4563-7.2054 5.6465-23.429-2.1706-8.7283-11.258 21.14-6.2859-11.466 2.1706-16.348-7.2057 2.6753-24.367 33.464-18.282 10.5 5.5533-5.557 14.792-21.408 0.6049-9.6289-18.146 9.4674 9.4374-23.883 21.472-16.264 11.79 3.5472 43.08-15.47 13.982-11.994-9.0774-2.8288-42.893 14.927-25.969-4.3675 16.014-14.679 44.556-6.2749 54.965-29.529 13.732-19.784 11.874-46.067 5.8894-68.165-7.6541-21.191-26.301 11.187-40.699-4.0707-18.526 0.38716-41.255-7.1932-34.882-30.539-2.9952-21.428 1.5636-42.51 18.965-56.994 13.612-18.312 37.141-14.222 54.726-4.6431 17.98 11.148 38.225-1.0509 53.74-10.591 31.278-19.453 65.114-37.993 102.71-40.002 31.994-2.1909 64.985-5.7335 96.486 1.9197 34.896 13.222 69.147 30.483 97.532 55.004 32.126 28.856 44.645 73.132 48.942 114.73 2.181 23.605-0.27412 49.418-14.481 69.113-18.73 18.755-55.292 16.059-67.311-8.8954-7.6585-15.635-11.542-38.87 5.5737-49.924 10.906-18.566 51.096 2.1768 24.026 13.938-24.029 2.8808-9.1162 47.906 10.001 29.406 17.362-25.328 10.945-59.119 0.88026-86.09-5.6228-18.848-16.371-35.445-31.299-48.289-11.632-8.1585-34.668-42.374-41.737-15.227-7.0674 17.108-24.07 36.467-9.284 54.711 8.3777 14.78 36.306 18.381 34.297 37.953-6.2933 20.627-15.206 43.174-32.4 56.795-10.173 7.5713-24.276 6.2741-33.492 3.6734-9.1555 21.874-36.259 24.321-56.566 28.918-11.715-2.3857-37.107 17.853-40.57 4.9195-0.8811-6.0554-13.084 17.129-17.6 3.6197-18.676-7.1642 6.0083-21.734 19.224-24.729 15.818-6.9381 39.338-7.4307 51.253-17.364-16.572-22.463-29.555-48.11-31.838-76.344-2.0926-12.377-3.304-24.874-3.9033-37.407-21.856 16.825-45.104 32.797-71.176 42.276-13.318-2.791-26.212 0.67133-18.933 16.822 7.4202 20.048-0.53807 39.178-13.893 54.375-21.44 31.076-54.909 55.792-93.346 59.076-10.688-1.0876-12.52 18.091-17.604 18.387zm306.36-86.135c13.035-5.7538 21.029-23.831 18.634-36.447-14.569-7.6578-33.132-6.5337-45.069-19.004 0.40193 18.869 10.252 39.145 12.746 58.9 4.5846 1.5472 9.4726-1.8589 13.689-3.4501z" fill="param(fill)" fill-opacity="param(fill-opacity)" stroke="param(outline)" stroke-opacity="param(outline-opacity)" stroke-width="param(outline-width) 0.2"/>
</svg>
