<svg version="1.1" width="512" height="512"  viewBox="0 0 512 512" xmlns="http://www.w3.org/2000/svg">
 <path d="m126.25 443.97c-0.66547-3.0267-2.8-3.4763-5.7841-1.2184-1.3994 1.0589-2.2325 1.1488-3.2006 0.34535-0.71975-0.59735-2.1988-0.85336-3.2868-0.56884-1.0879 0.28437-1.9781 0.11512-1.9781-0.37661 0-0.49177-0.33293-0.82359-0.73981-0.73748-0.40687 0.0861-1.549-0.19555-2.538-0.62636-0.9939-0.43276-5.7258-0.13875-10.579 0.65758-4.8296 0.79229-8.903 1.1851-9.0524 0.87295-0.51189-1.0705-8.6559-4.843-8.6559-4.0097 0 0.45811 1.1696 1.7528 2.599 2.8773 2.7392 2.1546 2.4466 2.7025-0.5786 1.0835-0.98754-0.52852-2.7252-2.5366-3.8614-4.4625-1.7478-2.9623-2.4504-3.405-4.5624-2.875-2.1032 0.52787-2.3906 0.35069-1.8245-1.1246 0.46028-1.1995 0.30842-1.5265-0.48205-1.0379-0.63471 0.39228-1.154 0.22871-1.154-0.36327 0-0.59202-0.99874-1.4471-2.2194-1.9002-1.9482-0.72307-1.7372-0.89159 1.7262-1.3788 2.1701-0.30533 8.1627-0.52821 13.317-0.49543 7.5764 0.048 11.638-0.54887 21.208-3.1178 9.5068-2.5519 12.917-3.0572 17.326-2.5664 3.6066 0.4015 7.8349 0.0633 12.33-0.9867 3.7628-0.87874 8.7482-1.3876 11.079-1.1307 4.0166 0.44264 7.106-0.93966 7.106-3.1794 0-1.4188-5.1182-8.3567-11.328-15.356-3.3694-3.7977-8.9152-11.122-12.324-16.276-3.4088-5.154-7.0409-10.259-8.072-11.344-2.6929-2.8348-14.046-19.127-16.058-23.045-2.3949-4.6627-2.996-12.631-1.5364-20.366l1.2456-6.6014-9.2548-8.8763c-5.09-4.8822-12.14-10.902-15.666-13.377-3.5264-2.4755-9.0749-7.031-12.33-10.123-3.2551-3.0922-7.9161-7.0249-10.357-8.7387-2.4414-1.7141-6.0395-4.3444-7.9961-5.8451-2.2834-1.7514-5.9865-3.2113-10.341-4.0768-5.0877-1.0112-6.2945-1.5395-4.8273-2.1126 1.3114-0.5122 0.14517-0.78707-3.5362-0.83354-9.1134-0.11503-15.009-2.4362-21.133-8.3205-2.988-2.871-5.4326-5.8607-5.4326-6.644 0-0.78334 1.3512-3.0634 3.0027-5.0671 3.0905-3.7493 7.6187-5.6686 13.399-5.6789 1.697-3e-3 4.679-0.67134 6.6265-1.4851 5.1948-2.1705 8.7882-1.8591 22.77 1.9728 6.9284 1.8988 13.329 3.4427 14.224 3.4308 2.5528-0.0339 10.012-3.7059 10.012-4.9287 0-0.60563-0.77678-0.85462-1.7262-0.55341-0.94946 0.30122-5.4994 0.61226-10.111 0.69117-8.906 0.15236-12.201-0.82908-18.641-5.5527-2.5481-1.8689-4.5712-2.4582-8.4379-2.4582-3.914 0-6.1226-0.65712-9.5815-2.8508-2.4724-1.568-5.8859-3.1562-7.5852-3.5295-4.5815-1.0062-5.0503-2.7496-3.0289-11.264 0.98048-4.1301 2.2868-10.363 2.903-13.852 1.4918-8.4459 11.335-26.885 17.327-32.461 2.7002-2.5123 2.7361-2.5192 0.8306-0.16002-5.3351 6.6052-3.797 5.4925 6.7954-4.9158 6.3402-6.2301 11.528-11.476 11.528-11.657 0-0.18103-0.99874-0.0343-2.2194 0.32652-1.2207 0.36064-0.10384-0.71392 2.4819-2.3879 6.7386-4.3627 7.3214-6.2133 4.9039-15.574-1.0957-4.2426-2.5306-12.153-3.1887-17.578-1.0295-8.4871-0.97088-11.05 0.42014-18.36 2.1453-11.274 1.2552-15.349-6.9372-31.754-1.8436-3.6919-3.352-6.9101-3.352-7.1514 0-0.95807 3.6297-0.36479 4.8582 0.79405 1.0457 0.98654 1.3978 0.98533 1.7612-0.0061 0.24979-0.68152 0.85344-0.99238 1.3415-0.69078 0.49474 0.30579 0.6317-0.72959 0.30956-2.3402-1.3173-6.5869 3.5529-3.1123 8.0316 5.7296 1.9154 3.7815 20.063 23.669 21.66 23.737 1.3752 0.0587 7.9332 10.51 9.2891 14.803 0.60822 1.926 1.7491 7.1606 2.5353 11.632 0.86007 4.8917 2.2306 9.1488 3.441 10.687 1.1064 1.4065 2.0116 2.9728 2.0116 3.4806 0 0.50781 2.9729 4.206 6.6067 8.2176 6.1771 6.8202 10.115 9.5575 17.716 12.315 5.056 1.8339 11.789 9.1168 15.661 16.94 1.9616 3.9636 4.7538 8.2557 6.2053 9.5384 1.6719 1.4774 2.0062 2.1212 0.91245 1.7572-3.3787-1.1246-1.6293 1.5861 5.1746 8.0182 4.2849 4.0508 6.479 6.784 5.7883 7.2109-4.4008 2.7199 24.587 10.171 47.778 12.281 4.2323 0.38507 8.2488 1.2541 8.9258 1.9313 0.6771 0.6771 2.763 2.0172 4.6352 2.978 16.72 8.5801 45.327 27.769 45.327 30.404 0 0.53439 2.4544 3.5448 5.4544 6.6898 5.1468 5.3957 9.2902 12.373 9.3051 15.668 6e-3 1.3152-0.0997 1.3152-0.94964 0-1.2952-2.0042-1.2308-0.73385 0.13433 2.6484 0.61641 1.5273 1.4876 8.9914 1.936 16.586 0.44838 7.5955 1.0562 15.141 1.3507 16.769 0.38736 2.1408 0.15331 1.868-0.8462-0.98639l-1.3816-3.9456-0.10345 3.119c-0.0569 1.7155 0.55634 6.5674 1.3627 10.782 0.80636 4.2144 1.2502 7.8787 0.9864 8.1425-0.26382 0.26386-0.47972-0.2339-0.47972-1.1061 0-0.87219-0.47633-1.8802-1.0586-2.24-0.72653-0.44904-0.98532 1.7758-0.82511 7.0931 0.22376 7.4251-1.611 16.992-4.0985 21.371-1.1014 1.9389-4.835 13.414-4.8555 14.923-0.0217 1.5816 9.5952-9.4667 14.116-16.217 2.3616-3.5264 5.5371-8.853 7.0569-11.837 1.5198-2.9839 4.6707-9.1984 7.002-13.81 4.6733-9.2441 5.7284-10.047 1.9372-1.4738-1.3347 3.018-1.946 5.1902-1.3583 4.827 0.58763-0.36319 2.3251-3.3747 3.861-6.6921 1.536-3.3175 2.813-5.1529 2.8379-4.0787 0.0592 2.5523 18.089-15.126 20.85-20.443 1.0546-2.0313 2.4275-3.5849 3.051-3.4524 1.0866 0.23092 6.0296-8.3605 8.3743-14.555l1.12-2.9592-0.54128 3.4524c-0.61447 3.919-3.3936 9.9383-6.604 14.303-4.952 6.7325-4.4076 6.8304 3.3424 0.60299 2.4161-1.9414 4.0543-2.9823 3.6408-2.313-2.0978 3.3944 5.5043-1.9076 7.8345-5.4643 1.466-2.2374 1.4464-2.2942-0.44408-1.2825-4.063 2.1744-3.4188 0.93848 0.75417-1.4469 2.3878-1.365 6.9181-5.2436 10.067-8.6194 6.4668-6.9318 7.5017-6.3791 2.3604 1.2606-1.8988 2.8216-3.4524 5.3488-3.4524 5.6156s2.2674-1.5531 5.0389-4.0448c5.4132-4.867 7.5345-5.7768 5.7666-2.4729-1.5038 2.8099-0.39678 3.5805 2.012 1.4006 1.0884-0.98499 1.9862-1.3892 1.9951-0.89815 9e-3 0.49096 2.7009-1.9926 5.9823-5.5188 4.461-4.7945 5.5146-5.5802 4.1759-3.1154-0.98452 1.8129-3.2326 4.9905-4.9958 7.0618-1.7632 2.071-3.2058 4.039-3.2058 4.3737 0 1.3929 6.7516-2.938 11.214-7.193 2.9106-2.7756 4.3539-3.7052 3.6643-2.36-0.62575 1.2207-0.9291 2.2194-0.67405 2.2194 1.786 0 6.1306-2.3996 7.2574-4.0085 0.7485-1.0686 1.8078-1.6667 2.354-1.3292 0.5855 0.36186 0.10178 1.5626-1.1787 2.9255-1.3601 1.4478-1.9312 2.9387-1.5281 3.9895 0.57556 1.4998 0.92083 1.4268 3.2592-0.6896l2.6155-2.3672-2.114 3.0638c-1.8168 2.6332-1.9285 3.3174-0.79435 4.8685 1.2479 1.7066 1.6081 1.6026 6.6242-1.9116l5.3046-3.7163-5.4254 4.9703c-5.6145 5.1433-6.1134 7.0592-0.63559 2.44 3.2156-2.7117 8.46-5.2756 10.791-5.2756 0.97241 0 1.2703 1.2445 1.0848 4.5315-0.24968 4.4214-0.20965 4.4896 1.6503 2.8064 2.84-2.5702 2.3075-0.16745-0.55988 2.5264-3.1517 2.9608-3.1014 3.6494 0.32172 4.4012 3.653 0.80232 7.7445-0.81231 12.008-4.7389 1.8988-1.7486 4.4233-3.9849 5.6095-4.9699l2.157-1.7903-0.44016 3.5488c-0.27864 2.2474-0.0305 3.5488 0.67893 3.5488 1.1259 0 0.79466 3.3905-0.72273 7.398-0.68796 1.817-0.60055 1.856 1.1067 0.49321 1.0784-0.86079 1.5438-0.96394 1.1129-0.24659-0.45906 0.76409-0.18716 1.233 0.71525 1.233 0.8008 0 3.0936-1.8865 5.0949-4.1923l3.639-4.1923-2.2428 3.9456c-1.2336 2.1701-4.45 6.9688-7.1472 10.664-3.3715 4.6184-4.586 7.0363-3.8862 7.7362 0.55996 0.56 6.6231 1.7847 13.473 2.7216 13.558 1.8542 15.768 2.8465 13.045 5.8565-1.6123 1.7816-1.5854 1.8996 0.56584 2.4759 1.2424 0.33281 3.3686 0.65541 4.7248 0.71689l2.466 0.1118-2.317 0.6508c-2.1949 0.61645-2.0725 0.82633 2.3206 3.9811 2.5507 1.8317 6.4786 3.9403 8.7288 4.6859 3.7355 1.2376 3.8126 1.3265 0.88523 1.0233-1.7632-0.18262-3.2058-0.1179-3.2058 0.14382 0 1.654 5.9068 7.6916 9.9718 10.193 5.5436 3.411 6.6368 5.0499 1.2476 1.8702-1.9672-1.1607-3.7476-1.9395-3.9563-1.7306-0.20889 0.20882 0.65606 1.906 1.922 3.7714 1.2659 1.8654 2.1097 3.9678 1.875 4.6718-0.2348 0.70397 0.84292 2.6516 2.3946 4.328l2.8213 3.0481-3.1115-2.141c-3.4062-2.3438-4.8464-2.6426-5.7433-1.1915-0.32286 0.52223 1.5376 2.0552 4.134 3.4065 5.311 2.7642 5.2817 3.3006-0.0591 1.0692-1.9477-0.81379-3.8075-1.4796-4.1332-1.4796-0.32553 0 2.6565 3.5778 6.6265 7.9508 7.2425 7.9771 10.922 13.533 9.976 15.063-0.27902 0.45117 0.76214 2.1926 2.3134 3.8698l2.8204 3.0494-9.5716-5.4737 2.5664 4.3794c2.8633 4.8856 3.3957 7.0805 1.0063 4.1481-1.543-1.8936-1.5533-1.8935-0.93985 0.0133 1.3069 4.0627 1.7179 10.159 0.7262 10.772-0.56092 0.34688-2.1668 0.19441-3.5687-0.33887-3.3316-1.2667-3.2199-0.6893 0.82062 4.2418 3.5003 4.2716 8.68 13.748 8.2786 15.146-0.12655 0.44103 0.36823 1.9116 1.0996 3.2679l1.3298 2.466-2.7589-2.466c-1.5174-1.3563-2.4236-1.886-2.0138-1.177 1.2357 2.1378-0.28055 6.3761-2.0395 5.7014-5.749-2.2062-6.0845-2.0444-7.7686 3.7487-0.87943 3.0251-1.9416 5.7121-2.3604 5.9709-0.41877 0.25883-2.4772-1.2866-4.5742-3.4342-2.0971-2.1477-4.4759-3.9049-5.2859-3.9049-0.81017 0-3.1752 1.1796-5.2558 2.6213l-3.7826 2.6213-2.8376-2.7186c-2.568-2.4603-2.8823-2.5454-3.3075-0.8951-0.34192 1.3266-0.50103 1.1356-0.58424-0.70058-0.0629-1.3883-0.72646-3.3611-1.4745-4.384-1.2964-1.773-1.4809-1.7807-3.9456-0.16581-1.4221 0.93177-2.5856 2.3358-2.5856 3.1201 0 0.86221-0.58493 1.2014-1.4796 0.85813-0.93691-0.35946-1.4796 0.0152-1.4796 1.0173 0 1.307-0.35945 1.2257-2.0491-0.46394-1.127-1.127-2.6753-1.8088-3.4406-1.5151-0.76534 0.29351-1.2858 0.0507-1.1567-0.54026 0.52996-2.4249-2.1157-1.7055-3.1236 0.84932l-1.0896 2.7619 0.36099-2.7126c0.39868-2.9963-1.9331-3.8946-2.9861-1.1503-0.41873 1.0912-0.81238 1.2179-1.3053 0.42033-0.52299-0.84619-1.0623-0.80377-2.0822 0.16391-0.75699 0.71823-1.8202 1.3306-2.3627 1.3609-1.801 0.10064-6.8701 1.5454-9.371 2.6713-1.3563 0.61058-3.1318 1.2121-3.9456 1.3368s-4.0207 0.79332-7.127 1.486c-5.2302 1.1664-5.7872 1.1173-7.544-0.66525-1.8745-1.9021-1.8321-1.9908 3.6181-7.5707 3.0331-3.1053 5.202-5.9587 4.8201-6.3406-0.3821-0.38206-4.5357 1.2709-9.23 3.6732-10.478 5.3625-10.653 5.4315-9.6661 3.8351 0.55988-0.90592 0.33735-1.1074-0.75867-0.68686-1.9376 0.74354-3.3157-3.7767-1.7329-5.6838 0.58866-0.7093 1.4709-2.6864 1.9605-4.3935 0.81334-2.8359 0.71922-3.0496-1.09-2.4754-1.7721 0.56248-1.8504 0.42053-0.74438-1.3504 1.5409-2.4673-0.34231-5.308-2.9098-4.3894-0.90973 0.32553-1.3404 0.24434-0.95692-0.1803 0.38343-0.42464-0.32058-2.1599-1.564-3.8561-1.2437-1.6963-3.0218-5.1532-3.9514-7.6824-1.7618-4.7934-5.2523-7.8215-4.073-3.5332 0.58863 2.1399 0.55863 2.1505-0.90623 0.31981-1.4528-1.8155-1.5944-1.8214-3.4476-0.14447-1.0629 0.96193-2.2215 3.0646-2.5747 4.6726-0.79618 3.625-2.7999 4.469-6.7664 2.8508-1.6832-0.68674-3.7262-1.3471-4.5399-1.4676-0.81379-0.12045-3.0332-1.1917-4.9322-2.3805-4.0974-2.5651-10.594-4.6886-11.518-3.7647-0.36033 0.36021 0.41934 1.8252 1.7326 3.2552l2.3877 2.6001-7.8913-0.62076c-5.7864-0.45521-7.4968-0.33544-6.4115 0.44827 1.1965 0.86449 1.1021 0.94134-0.49322 0.40158-1.085-0.36708-4.4141-0.88301-7.398-1.1464-5.048-0.44564-5.292-0.37127-3.5105 1.0677 1.0531 0.85062 2.2738 1.5466 2.7126 1.5466 0.43882 0 0.79789 0.60777 0.79789 1.3506 0 1.3976-4.7884 2.5645-10.604 2.5842-1.7632 8e-3 -3.2058 0.48094-3.2058 1.0555 0 0.57452-0.47542 0.75078-1.0565 0.3917-0.58104-0.35907-3.0974-0.34688-5.592 0.0267-3.4034 0.51036-4.1862 0.9257-3.1358 1.6641 1.0127 0.71205 0.5688 0.84264-1.6061 0.47247-4.2292-0.71983-6.4668 0.8677-2.3758 1.6859 1.7392 0.34802 4.3272 0.62564 5.7513 0.61733 2.0341-0.0114 2.272-0.22033 1.1097-0.9713-0.81379-0.52592-1.0096-0.96302-0.43513-0.97133 0.57445-8e-3 1.9061 0.63661 2.9592 1.4331 1.8332 1.3866 1.7986 1.4496-0.81276 1.4796-3.1206 0.0343-14.609 2.9643-15.865 4.044-0.46051 0.39586 0.49218 1.0117 2.1171 1.3686 1.625 0.35679 3.682 1.4529 4.5712 2.4355 1.5237 1.6836 1.4372 1.8226-1.5006 2.4101-1.7146 0.34306-5.4715 0.6235-8.3491 0.6235-3.335 0-5.7677 0.53637-6.7111 1.4796-0.81379 0.81379-1.9008 1.4796-2.4157 1.4796-0.51483 0-1.4887 0.66581-2.1641 1.4796-1.0309 1.2421-0.85237 1.497 1.1122 1.5877 1.2871 0.0595 0.38114 0.49256-2.0133 0.96249-2.3944 0.46992-7.4865 2.0836-11.316 3.586-6.4733 2.5398-6.7565 2.7713-4.031 3.2964 1.6649 0.32057-1.4624 0.76511-7.2383 1.0285-5.9419 0.27102-10.453 0.92243-10.852 1.567-0.37497 0.60674-4.5654 2.1217-9.312 3.3666-8.0663 2.1156-10.903 3.7286-6.904 3.9251 0.94942 0.0465 0.39456 0.51079-1.233 1.0314s-10.505 0.84985-19.728 0.73157c-13.882-0.17801-17.4 0.069-20.436 1.4346-2.3836 1.0722-6.3544 1.6618-11.344 1.6844-4.222 0.0191-10.452 0.63017-13.845 1.358-3.3929 0.72788-8.1368 1.1016-10.542 0.83042-2.4056-0.27103-7.3977 0.21689-11.094 1.0845-9.2437 2.17-11.941 1.834-12.692-1.5815zm169.19-32.194c2.4335-0.67816 2.4329-0.67999-0.72208-1.9868-1.7368-0.71941-3.9426-0.98788-4.9016-0.59663-1.611 0.6572-1.5936 0.76999 0.2289 1.4798 1.6413 0.63921 1.3927 0.84352-1.4796 1.2159-3.4513 0.4474-3.4511 0.44759 0.49322 0.50709 2.1701 0.0343 5.0416-0.24586 6.3814-0.61927zm206.22-6.4706c-2.9346-4.748-3.5049-4.4324-0.96973 0.53693 1.1339 2.2226 2.3033 3.7996 2.5986 3.5043 0.29542-0.29542-0.43771-2.1139-1.6289-4.0413zm-261.66 28.332c1.7729-0.21956 4.4362-0.21499 5.9183 0.0114 1.4822 0.2249 0.0316 0.40466-3.2235 0.39914-3.2551-8e-3 -4.4679-0.18983-2.6949-0.40921zm196.22-9.6299c0.90226-1.892 1.8156-3.2649 2.0296-3.0509 0.45125 0.45124-2.5432 6.4908-3.2181 6.4908-0.24853 0 0.28627-1.548 1.1885-3.44z" fill="param(fill)" fill-opacity="param(fill-opacity)" stroke="param(outline)" stroke-opacity="param(outline-opacity)" stroke-width="param(outline-width) 0.2"/>
</svg>
