<svg version="1.1" width="512" height="512" viewBox="0 0 512 512" xmlns="http://www.w3.org/2000/svg">
 <path d="m178.46 495.81c-11.641 1.8895-27.458-6.6125-33.332-13.499-18.894 15.009-58.387-16.014-29.457-30.238 16.186-3.0787 14.683-21.75 18.539-34.258-12.843-34.774-35.136-65.762-41.928-102.74-9.6778-22.019-11.69-45.777-15.389-69.248-5.2195-28.3-10.929-56.538-18.262-84.374-4.1216 4.9623-10.106 31.344-12.126 18.939-0.04025-11.661-5.3132-10.517-8.5985-10.67-8.5153-4.1309-6.2554-14.616-5.1777-22.536-14.881 11.505 4.2014-20.3-11.377-2.6309 0.92104-8.6864 15.353-28.939-1.8866-18.491 1.5393-9.6657 16.025-16.419 4.7481-17.253 2.9513-10.026 17.486-21.437 2.6331-17.928 11.189-18.332 26.546-29.154 13.921-52.057-2.3122-25.074 25.717-24.523 38.021-9.8259 23.662 9.5393 49.596-2.5596 73.498 7.387 14.606-0.62329 43.758-14.448 33.224 13.843-7.6194 19.834 4.017 46.529 10.134 66.682 11.438 13.993 25.639 10.205 45.753 9.6541 12.019-6.1924 35.57-12.738 53.401-17.246 19.634-9.79 44.466-3.6942 66.103-8.3314 36.552-2.7191 73.797 12.13 100.68 36.515 21.824 21.516 26.114 58.006 10.723 84.151-4.7512 14.53-30.734 9.3797-29.501 23.444 0.42485 26.889 2.107 53.914 4.9833 80.543 13.171 20.427 8.7718 44.563 7.6238 67.382-3.2459 21.929-1.4612 51.978-22.759 64.884-16.903 1.5741-49.689 13.116-47.703-14.677 17.47-12.45 43.351-24.475 36.777-51.898-2.701-25.121-10.654-49.683-19.045-73.409-9.1114-27.427-16.728 19.474-6.224 28.716 5.9845 25.072-11.35 49.989-21.705 72.126-12.872 19.215-42.864 20.311-61.676 10.772-14.881-24.098 18.3-16.225 30.909-19.192 11.445-17.344 17.614-40.508 7.2889-59.997-10.142-12.645-8.4593-50.828-26.109-46.654-12.304 11.391-20.613 14.312-32.39 17.067-1.9506-3.6848-10.519 9.1004-7.3388-4.5063-7.1654 8.0862-16.496 12.342-24.487 9.5006-8.6669 11.904-15.812-2.8632-24.758 0.71533-23.198 10.297-9.5786 40.409-15.924 59.881-6.414 34.844 10.888 72.558-7.5825 105.12-9.1211 7.6303-21.057-2.2367-31.416 5.5772zm267.51-280.18c23.504-5.3601 8.6767-57.432-2.5114-48.856 1.7637 13.483-5.2181 43.719 2.5114 48.856z" fill="param(fill)" fill-opacity="param(fill-opacity)" stroke="param(outline)" stroke-opacity="param(outline-opacity)" stroke-width="param(outline-width) 0.2"/>
</svg>
