<svg version="1.1" width="512" height="512" viewBox="0 0 512 512" xmlns="http://www.w3.org/2000/svg">
 <path d="m239.52 450.6c0.35918-0.33966 6.2004-0.79311 12.981-1.0077 7.9826-0.25259 12.725-0.78883 13.454-1.5214 1.8906-1.899 1.2341-14.494-1.2144-23.297-1.7994-6.4694-2.1572-9.7627-1.9911-18.325 0.11137-5.7411 0.2354-12.63 0.27563-15.31 0.0403-2.6792-0.22662-8.2142-0.593-12.3-0.46406-5.1752-0.21052-10.535 0.83578-17.67 0.82605-5.6328 1.9716-20.87 2.5458-33.861 0.57413-12.991 1.303-27.377 1.6198-31.97l0.57588-8.3507 3.91-0.52187c2.1505-0.28702 4.6886-1.2265 5.6402-2.0877 0.95161-0.86119 2.1465-1.5658 2.6552-1.5658 1.7343 0 4.7581 4.1677 5.3855 7.4229 1.5086 7.8274 4.4623 19.458 6.2445 24.588 3.5481 10.214 10.322 26.88 11.879 29.228 2.2239 3.3524 5.4534 13.942 6.4979 21.306 0.95486 6.7326-0.0278 21.852-1.6908 26.015-0.50968 1.2758-3.0063 6.7307-5.548 12.122l-4.6213 9.8023-5.0663-0.55765c-6.4318-0.70797-9.5726 0.12992-13.897 3.7075-4.2212 3.4919-5.6511 8.0419-4.6694 14.858 0.66401 4.6097 0.90205 4.9518 4.2532 6.1119 3.2494 1.1249 3.7771 1.0608 6.2348-0.75626 2.6553-1.9631 2.7271-1.9662 6.4806-0.27356 3.302 1.489 4.2239 1.5567 7.0896 0.52046 2.2122-0.79995 5.2354-0.98323 9.2052-0.5581 5.6682 0.60702 6.0023 0.52708 8.1284-1.9447 1.9516-2.2689 2.3808-2.4142 3.5823-1.2127 0.75079 0.75077 1.8338 2.2409 2.4067 3.3113 0.89075 1.6644 2.2328 2.0395 9.2648 2.5896 4.5227 0.3538 15.289 0.17218 23.925-0.40361 12.794-0.85304 15.923-1.3361 16.898-2.6087 0.65794-0.85901 2.5368-2.0212 4.1754-2.5827 2.8006-0.95972 2.9513-1.2378 2.5152-4.6393-1.3562-10.578-0.59804-15.294 4.0611-25.263 3.0697-6.5682 4.3327-10.345 4.015-12.007-0.70463-3.686 2.2906-22.648 4.9167-31.126 0.66278-2.1398 0.31012-3.3958-1.954-6.9589-1.5195-2.3913-3.3441-6.4355-4.0546-8.9872-1.5279-5.487-2.2924-23.59-0.99978-23.675 0.48469-0.0317 1.8106 4.6557 2.9464 10.417 7.1304 36.166 22.614 66.806 38.559 76.305 17.41 10.371 37.616 10.7 52.03 0.84642 4.7841-3.2705 11.599-10.228 12.356-12.614 0.34064-1.0733-0.10978-2.5142-1.1427-3.6556-1.3634-1.5066-2.5004-1.7944-5.6755-1.4365-3.1848 0.35897-4.9476 1.3716-8.908 5.1172-3.8238 3.6164-6.3516 5.1064-11.207 6.6062-7.2717 2.246-10.174 2.3622-17.271 0.69149-20.602-4.85-33.922-32.246-38.87-79.943-2.0018-19.299-3.6553-49.298-4.3469-78.868-1.0255-43.847-0.98602-45.734 1.3067-62.415 2.456-17.87 2.7101-34.5 0.64797-42.417-1.853-7.1142-5.5889-13.049-15.275-24.264-15.071-17.451-24.151-24.953-41.803-34.543-11.71-6.3615-18.09-7.5238-46.807-8.5276-42.135-1.4729-55.329-0.02189-73.482 8.0813l-9.4942 4.2379-6.1562-3.888c-12.088-7.634-19.547-9.1584-29.718-6.0731-6.3524 1.9271-21.581 1.9163-22.322-0.01573-1.1506-2.9985-3.5891-3.2334-7.3109-0.70439-3.4957 2.3754-3.8522 2.4207-17.462 2.221-7.6417-0.11214-16.019-0.6073-18.615-1.1004-6.8782-1.306-11.734-0.29339-24.207 5.0479-10.489 4.4916-11.592 4.7681-19.021 4.7681-6.4487 0-8.479-0.36418-11.134-1.9972-3.8846-2.389-17.972-6.3128-19.945-5.5554-1.8457 0.70827-1.8291 6.5512 0.03368 11.843 0.78849 2.2401 3.3551 6.0181 5.7257 8.4283l4.2966 4.3682-1.1237 3.7505c-0.61804 2.0628-1.6661 3.7505-2.3291 3.7505-1.2751 0-1.429 4.3639-0.22273 6.3157 1.1449 1.8525-2.025 7.047-8.5304 13.978-3.4313 3.6561-5.7304 6.4523-5.1091 6.2139 0.68361-0.26233 0.92595 0.0974 0.61372 0.91104-0.29112 0.75864 0.02159 1.3445 0.71764 1.3445 0.67847 0 0.29862 0.65487-0.84411 1.4553-1.1427 0.8004-1.8583 1.8103-1.5901 2.2442 0.26815 0.43387-0.87309 1.0943-2.5361 1.4675-1.663 0.37326-2.4991 0.86043-1.858 1.0826 0.64108 0.22217 0.92959 0.78583 0.64113 1.2526-0.28845 0.46674-0.14618 0.84861 0.31618 0.84861 0.46236 0 1.844 0.90018 3.0703 2.0004 1.3947 1.2513 1.651 1.7947 0.68441 1.451-0.84988-0.30214-2.7288-0.19436-4.1754 0.23951-2.4527 0.73564-2.3682 0.79424 1.2512 0.86861 3.6959 0.076 3.8775 0.21291 3.8021 2.867-0.08833 3.1074-0.84936 3.9408-4.8999 5.3656-1.7131 0.60262-2.1357 1.0074-1.0988 1.0524 0.92662 0.0403 2.4924-0.35898 3.4795-0.88726 1.2371-0.6621 1.7947-0.6621 1.7947 0 0 0.52828 0.83507 0.96051 1.8557 0.96051 1.9343 0 2.5025 1.3464 0.96838 2.2946-1.3249 0.81884-0.06996 3.2704 1.6825 3.2868 1.1556 0.0108 1.2332 0.19897 0.32074 0.7778-1.5399 0.9768 0.0669 2.3923 3.6994 3.2591 1.7507 0.41775 3.241 1.9648 4.9925 5.1829 2.2146 4.0689 3.0571 4.7637 7.4541 6.1467 3.1257 0.98315 5.161 2.2009 5.5085 3.2957 0.30312 0.95506 0.85806 1.7365 1.2332 1.7365 0.37512 0 1.4235 2.062 2.3298 4.5823 1.0212 2.8398 2.0865 4.4139 2.8016 4.1395 1.4276-0.54781 3.139 3.0598 3.91 8.2418 0.72921 4.9016 4.9584 11.757 8.5689 13.889 3.523 2.0811 13.945 2.2079 17.795 0.21657 1.4947-0.77295 4.4348-3.6796 6.5335-6.4593 5.7256-7.5836 9.223-8.012 9.202-1.1272-7e-3 2.1388 0.59775 6.8114 1.3429 10.384 0.74512 3.5722 2.4414 12.341 3.7696 19.485 1.3282 7.1445 3.4217 16.971 4.6522 21.836 1.2306 4.8654 3.2757 15.786 4.5448 24.268 2.3786 15.898 3.4088 20.606 7.9808 36.475 1.4703 5.1032 4.7753 19.926 7.3445 32.939s5.5708 27.594 6.6703 32.403c1.6157 7.0656 1.9029 10.536 1.4977 18.093-0.27581 5.1431-0.78714 10.063-1.1363 10.933-0.34917 0.87021-2.8143 2.8122-5.478 4.3155-2.6637 1.5033-6.2375 4.3214-7.9416 6.2623-5.4139 6.1661-9.836 18.382-7.6205 21.051 1.327 1.599 32.012 1.3988 33.965-0.22161 0.79305-0.65816 3.5682-0.98856 6.9116-0.82287 5.0339 0.24948 5.8523 0.0222 8.2744-2.2983 1.4784-1.4164 3.6119-4.548 4.7413-6.9593 1.1786-2.5162 3.2149-5.0507 4.7795-5.9487 3.2432-1.8613 3.3781-3.2233 0.75912-7.6622-1.7534-2.9718-1.8478-3.7595-0.86929-7.2544 0.89749-3.2055 0.82338-5.188-0.4063-10.869-0.8272-3.8217-2.106-10.289-2.8418-14.371-0.73579-4.0826-1.7518-9.3018-2.2579-11.598-2.7026-12.265-1.9965-45.039 1.2794-59.383l1.1655-5.1032 9.6756-0.52949c5.3216-0.29122 11.972-1.2203 14.779-2.0647s5.9956-1.7907 7.0862-2.103c1.0906-0.31228 2.217-0.18914 2.503 0.27365 0.28601 0.46278 0.95521 22.2 1.4871 48.305l0.96708 47.463-2.6985 8.1435c-1.6485 4.9746-2.9562 11.363-3.3608 16.417-0.45553 5.6913-1.2473 9.2652-2.5367 11.451l-1.8745 3.177 2.693 2.2019c2.896 2.3679 4.6947 2.735 6.8184 1.3913 0.84977-0.53762 2.0406-0.44734 3.2475 0.24618 2.0053 1.1523 14.978 1.5371 16.098 0.47751zm90.191-36.995c0-1.0806 2.3843-4.245 5.5672-7.3885 3.0619-3.0241 5.5672-5.7791 5.5672-6.1222 0-2.6369 5.3501-25.726 7.5738-32.686l2.7646-8.6527-2.9348-8.5127c-3.6662-10.634-7.7782-28.003-7.0678-29.854 0.29361-0.76515 0.92257-1.3912 1.3977-1.3912 0.82433 0 3.0206 8.8546 4.3428 17.509 0.34074 2.2302 1.7226 6.4056 3.0707 9.2786 2.4001 5.1147 2.4512 5.6201 2.4512 24.245v19.021l-3.3562 7.4229c-1.8459 4.0826-3.6441 8.7366-3.996 10.342-0.82868 3.781-2.7261 5.3787-8.4214 7.0909-6.3255 1.9017-6.9589 1.8742-6.9589-0.30211z" fill="param(fill)" fill-opacity="param(fill-opacity)" stroke="param(outline)" stroke-opacity="param(outline-opacity)" stroke-width="param(outline-width) 0.2"/>
</svg>
