<svg version="1.1" width="512" height="512" viewBox="0 0 512 512" xmlns="http://www.w3.org/2000/svg">
 <path d="m494.63 389.47c-0.32096-1.6938-0.9649-3.8258-1.431-4.7378-1.3721-2.6848 0.42898-1.919 3.3223 1.4128l2.6818 3.0881-0.4834-2.8427c-0.26586-1.5635-0.77207-3.5889-1.1249-4.5009-0.43327-1.12-0.18761-1.6582 0.7568-1.6582 1.2192 0 1.2341-0.69773 0.11618-5.4484-1.6241-6.9018-1.6229-6.9297 0.2741-6.2018 1.2619 0.48426 1.4417 0.23626 0.88027-1.2142-0.38806-1.0025-0.92001-3.9547-1.1821-6.5605-0.48979-4.8696-5.6017-17.344-9.5063-23.198-1.2104-1.8147-2.2008-4.1194-2.2008-5.1214 0-1.002-1.7414-3.4784-3.8698-5.5031-3.6349-3.4578-3.8074-3.86-2.8427-6.6276 0.56491-1.6205 1.0271-3.0356 1.0271-3.1446s-2.3962-1.7892-5.3248-3.7337c-2.9286-1.9445-7.2384-5.2994-9.5774-7.4554-2.3389-2.156-6.2322-5.2168-8.6516-6.8018-2.7815-1.8222-4.3995-3.5721-4.4004-4.759-1e-3 -1.8584-0.65702-2.2954-11.001-7.3322-9.6069-4.6777-14.087-7.4255-15.055-9.233-0.5582-1.043-1.8748-1.8964-2.9258-1.8964-1.051 0-3.4878-0.84097-5.4151-1.8688-6.8902-3.6746-18.789-8.4075-26.098-10.381-4.088-1.1037-8.0627-2.6367-8.8326-3.4065-0.76986-0.76985-2.7935-1.3997-4.4969-1.3997-1.7034 0-6.47-0.87195-10.592-1.9376-16.038-4.1461-19.909-4.6306-37.014-4.6324-9.301-9.5e-4 -17.913 0.0911-19.138 0.20455-1.9463 0.1804-2.931-1.1687-7.803-10.69-3.0666-5.9933-5.5933-11.536-5.6149-12.318-0.0367-1.3296-3.259-7.5877-10.246-19.899-5.0742-8.9409-9.6686-14.155-23.855-27.073-14.669-13.357-15.172-13.658-35.06-20.97l-9.0018-3.3099-18.623 0.63026c-17.591 0.59536-30.002 2.1939-32.416 4.1751-0.5925 0.48638-7.0468 2.8084-14.343 5.16-12.4 3.9968-13.76 4.2432-20.846 3.7771-7.4758-0.49175-7.6437-0.5593-12.165-4.8961-2.5218-2.4186-6.9034-7.6132-9.737-11.544-12.222-16.953-28.491-24.107-49.164-21.62-11.347 1.3648-11.02 1.3023-13.817 2.6426-2.0134 0.96479-3.0818 0.90666-6.0379-0.32851-4.5258-1.891-8.4671-1.9182-10.002-0.0691-0.65346 0.78737-1.1671 3.7722-1.1414 6.6329 0.02571 2.8607-0.28666 5.2013-0.69414 5.2013s-1.8527 1.6043-3.2115 3.5651c-2.6704 3.8534-5.3671 15.475-5.3674 23.131-2.94e-4 7.9547-1.9175 13.872-5.5192 17.034l-3.2726 2.8734 2.7376 2.6131c1.5057 1.4372 6.1103 3.8114 10.232 5.276 4.1222 1.4646 8.2796 3.4477 9.2387 4.4068 1.4067 1.4067 1.7438 1.469 1.7438 0.32245 0-2.6931 5.2795-1.7034 7.97 1.494 2.9117 3.4604 3.3203 2.75 0.48875-0.84974l-1.9644-2.4973 1.9875-0.88685c1.5934-0.711 2.5786-0.33943 4.9686 1.874l2.9811 2.7609-4.0497-5.8885 2.1613-2.0304c3.7186-3.4935 4.4059-2.6697 4.4325 5.3132 0.01346 4.039 0.43458 11.561 0.93585 16.716 0.79748 8.2011 1.5098 10.688 5.6993 19.899 2.6333 5.7893 5.2437 11.341 5.8008 12.338 2.9476 5.2716 1.4475 25.647-2.1773 29.573-1.4901 1.6136-2.6401 1.9228-5.8327 1.5682-5.3019-0.58893-7.6672 1.9712-10.172 11.01-2.0669 7.4588-1.7516 9.6815 1.018 7.175 2.1318-1.9293 3.7559-1.0964 3.7559 1.9262 0 3.2393 1.7087 3.8466 2.0675 0.73483 0.47195-4.093 3.3665-3.9857 4.143 0.15364 0.77315 4.1212 1.5668 4.2634 2.975 0.53286 0.59014-1.5635 1.7209-2.8427 2.5128-2.8427s1.7104-0.85279 2.0413-1.8951c0.5094-1.605 1.4337-1.8951 6.0371-1.8951 4.9681 0 5.712-0.28522 8.65-3.3164 1.7679-1.824 3.7043-3.3164 4.303-3.3164 0.59872 0 1.8658-0.85883 2.8158-1.9085 1.0584-1.1695 2.3914-1.6977 3.4424-1.3641 1.209 0.38371 2.2109-0.26624 3.3943-2.202 0.9235-1.5105 2.1964-2.572 2.8286-2.3588 1.556 0.52462 2.5161-3.7479 1.7545-7.8075-0.56631-3.0187-0.42499-3.3102 1.605-3.3102 2.5075 0 7.7157 4.9709 8.7288 8.3311 0.36016 1.1946 0.37621 3.8211 0.0356 5.8368-0.68549 4.0574-1.1971 4.3202-11.217 5.7613-4.335 0.62349-6.1198 1.4178-8.2911 3.6898-2.9012 3.0359-3.6266 5.7552-1.5351 5.7552 0.6775 0 1.7364-0.50457 2.3531-1.1213 1.6407-1.6407 2.4264-0.31076 1.1858 2.0073-1.2862 2.4032-0.21882 4.8959 1.0928 2.5521 1.252-2.2372 3.5472-1.9736 2.9427 0.33794-0.27054 1.0345-0.20416 2.6307 0.1475 3.5471 0.57583 1.5006 0.8084 1.4421 2.3401-0.58852 1.1244-1.4907 1.9262-1.8899 2.366-1.1783 0.83307 1.3479 10.25 1.3992 14.994 0.0816 1.9492-0.54134 6.7305-3.5164 10.625-6.6113 4.3256-3.4374 7.6349-5.4144 8.5046-5.0807 1.7738 0.68069 10.017-7.445 10.017-9.8741 0-0.93705 1.4924-3.1502 3.3164-4.9182 1.8294-1.7732 3.3164-4.1578 3.3164-5.3185 0-1.1572 0.533-2.2861 1.1844-2.5087 0.94271-0.32206 0.94685-1.0486 0.0203-3.5597-1.3892-3.7651-0.57996-5.103 4.0013-6.6149 2.4547-0.81013 3.8713-0.74525 6.3512 0.29091 1.7555 0.7335 5.6025 1.3225 8.5488 1.3089 4.8769-0.0226 6.0256 0.41418 12.816 4.8722 4.1024 2.6933 7.8444 4.8969 8.3156 4.8969s2.5785 1.6688 4.6828 3.7083c2.1044 2.0396 5.1431 4.4914 6.7528 5.4484 5.6596 3.3649 10.356 6.7253 12.053 8.6235 1.7043 1.9065 1.6555 1.9246-8.3951 3.1158-6.311 0.74794-11.583 1.9427-14.032 3.1799-3.6005 1.8188-3.9477 2.3247-4.2215 6.1519-0.1641 2.2935 0.0578 4.4255 0.49306 4.7378 0.43528 0.31223 1.3892 1.8469 2.1197 3.4104l1.3283 2.8427 0.55682-2.8427c0.88951-4.5412 3.3237-3.68 5.3565 1.8951 0.60995 1.6728 0.7569 1.5708 1.2528-0.86938 0.8216-4.0428 2.71-4.113 3.4575-0.12856 0.74668 3.9802 2.3158 5.4358 2.3158 2.1483 0-1.2529 0.85279-3.0497 1.8951-3.993 1.0423-0.94328 1.8951-1.2426 1.8951-0.66508 0 0.57746 1.5575 1.789 3.461 2.6923 3.3342 1.5822 3.6726 1.5696 9.2387-0.34321 3.1777-1.0921 7.2421-2.2426 9.0319-2.5567 1.7898-0.31413 3.929-1.1818 4.7538-1.9282 1.316-1.191 2.0136-1.0118 5.6999 1.464 2.3102 1.5516 4.3567 2.9773 4.5477 3.1684 0.19104 0.19105-3.9823 2.6115-9.274 5.3789-5.2917 2.7673-10.65 6.254-11.907 7.7482-2.6376 3.1346-2.988 6.8369-0.72899 7.7038 0.85632 0.3286 1.6228 0.48081 1.7032 0.33826 0.0804-0.14256 0.62292-1.3726 1.2055-2.7335 0.58255-1.3608 1.9995-2.7202 3.1488-3.0207 1.9994-0.52287 2.0632-0.34755 1.4782 4.0622-0.7745 5.8384 0.47702 6.696 4.2564 2.9166 4.0977-4.0977 6.3051-3.7883 3.3252 0.46609-1.0818 1.5445-1.1096 2.3081-0.14902 4.103l1.1802 2.2052 3.3537-2.9446c1.8445-1.6195 3.5627-2.9446 3.8182-2.9446 0.25545 0 0.76088 1.8122 1.1232 4.0271l0.6587 4.0271 1.3118-3.0796c0.94339-2.2147 1.9302-3.0796 3.514-3.0796 1.2112 0 5.2217-1.879 8.9121-4.1756 3.6904-2.2966 8.583-5.1112 10.872-6.2546 5.4912-2.7425 15.771-12.868 16.518-16.27 0.89471-4.0736-1.2711-9.1837-6.0936-14.377l-4.3666-4.7028 2.9418 0.57165c1.9077 0.37069 3.6643 0.0656 4.9971-0.8679 1.9307-1.3523 2.3346-1.2056 6.6652 2.4201 5.1407 4.304 5.5001 4.4526 5.9357 2.454 0.22566-1.0354 1.5424-0.4278 4.9986 2.3066 4.1719 3.3006 7.1846 4.294 5.6904 1.8763-1.1145-1.8033 0.69844-0.73763 8.1714 4.8032 8.0699 5.9834 8.9877 6.4114 9.6538 4.5009 0.25377-0.72784 2.3943 0.67675 5.5524 3.6435 5.9617 5.6004 8.9678 7.4594 9.8234 6.075 0.73041-1.1818 4.9829 0.90978 7.4964 3.6872 1.8836 2.0814 4.3518 2.6738 4.3518 1.0446 0-1.8454 2.163-0.89973 6.7762 2.9627 5.1836 4.3399 6.7078 4.4638 3.4233 0.2782l-2.1453-2.7338 3.7902 2.2971c8.014 4.857 22.829 15.014 24.057 16.493 0.70713 0.85203 2.0966 1.5492 3.0876 1.5492 0.99107 0 3.985 1.5017 6.6531 3.337 3.1553 2.1704 5.4749 3.1391 6.6353 2.7708 1.2602-0.39997 3.3765 0.8027 7.2073 4.0958 9.1674 7.8808 13.224 9.7947 10.678 5.0384-0.58172-1.087-0.78869-1.9763-0.45994-1.9763 0.84732 0 5.8334 3.5548 10.901 7.7716 4.5757 3.8078 7.1885 4.6774 6.1834 2.0582-0.54238-1.4134-0.39437-1.4119 1.7896 0.0191 1.4598 0.95648 3.272 1.3363 4.6844 0.98184 3.3397-0.83822 13.683 5.2416 21.562 12.675 4.4268 4.176 6.4642 5.5795 6.4642 4.4529 0-1.5517 0.13918-1.5539 2.4511-0.039 3.6635 2.4004 4.015 0.91472 1.043-4.4084-1.4626-2.6197-2.4873-4.9352-2.277-5.1456 0.21033-0.21034 2.396 2.1806 4.857 5.3131 2.461 3.1325 4.8621 5.6955 5.3356 5.6955 0.47354 0 0.59839-1.3858 0.27744-3.0796z" fill="param(fill)" fill-opacity="param(fill-opacity)" stroke="param(outline)" stroke-opacity="param(outline-opacity)" stroke-width="param(outline-width) 0.2"/>
</svg>
