<svg version="1.1" width="512" height="512" viewBox="0 0 512 512" xmlns="http://www.w3.org/2000/svg">
 <path d="m299.99 492.43c1.2757-0.58607 7.8303-1.1927 14.566-1.3481 11.8-0.27222 12.477-0.3974 18.556-3.4308 3.4701-1.7315 7.4172-3.4152 8.7713-3.7416 1.3542-0.32633 4.5775-2.2655 7.163-4.3092 2.5855-2.0437 5.277-3.7159 5.9812-3.7159 2.281 0 9.3769-9.9805 11.932-16.782 1.8964-5.0485 2.2824-7.1653 1.6228-8.8999-0.47593-1.2518-0.62697-4.4398-0.33565-7.0844 0.61925-5.6216-1.5642-17.958-3.9838-22.508-8.9217-16.778-13.085-21.84-19.792-24.068-2.5602-0.85035-6.8312-3.0277-9.491-4.8385-5.9605-4.0578-18.716-6.7026-32.438-6.7258-5.6949-0.01-9.0458-0.37647-9.0458-0.99035 0-0.5363 1.6345-4.8157 3.6323-9.5097 8.2746-19.442 9.4895-33.799 5.0189-59.313-2.2513-12.848-2.495-16.538-2.6204-39.679-0.0761-14.033-0.46504-26.245-0.86439-27.138-0.53599-1.1985-0.30817-1.6236 0.87014-1.6236 1.2984 0 1.4907-0.56257 1.0304-3.0153-0.31118-1.6584-0.84079-4.6853-1.1769-6.7264s-1.2566-4.7053-2.0454-5.9203c-1.3752-2.1182-1.3501-2.1825 0.60773-1.5611 1.2562 0.39871 2.042 0.25684 2.042-0.36865 0-2.0566-5.5145-11.839-10.742-19.056-9.7324-13.435-11.326-16.094-13.425-22.401-1.1423-3.4325-2.9452-7.7127-4.0066-9.5116-2.8581-4.8442-4.1958-15.189-2.7078-20.941 1.6656-6.4377 1.5011-9.0512-1.1696-18.585-1.8589-6.6361-2.4431-11.297-2.8463-22.708-0.27901-7.8967-0.68945-14.652-0.91209-15.013-0.22263-0.36023 0.17909-2.0405 0.89271-3.734 4.6036-10.925 5.1516-15.432 3.8706-31.84-0.99271-12.715-3.6442-17.656-13.139-24.485-3.776-2.7158-7.7997-6.1677-8.9415-7.6711-1.1418-1.5033-3.5175-4.4211-5.2793-6.4839-3.0092-3.5234-3.4279-3.7147-6.9125-3.1575-2.2324 0.35697-5.3047 1.9004-7.7161 3.8765-3.2389 2.6541-6.0072 3.778-14.444 5.8646-5.7407 1.4197-13.553 3.8901-17.36 5.4898-8.2328 3.4591-9.7447 3.66-8.3821 1.114 2.1775-4.0687 0.72771-3.8945-1.6846 0.20233-5.1642 8.7705-5.9658 8.0619-2.9217-2.5828 1.9823-6.9317 2.3036-9.2106 0.98024-6.9529-0.45039 0.76839-1.7946 5.3609-2.9871 10.206l-2.1682 8.8085-0.532-6.4944-0.53201-6.4944-0.16382 7.0995c-0.16166 7.0051-0.20103 7.1125-2.9594 8.0741-3.9245 1.3681-4.3168 3.3184-1.4883 7.3999 1.3356 1.9272 2.4283 3.844 2.4283 4.2595 0 0.41549 1.2525 2.1819 2.7833 3.9255 2.7006 3.0758 2.9338 3.7451 3.021 8.6721 0.0377 2.129 0.0728 2.148 0.4272 0.23194 0.53122-2.872 1.9655-2.6205 2.6458 0.46389 0.97818 4.4351 1.1798 4.5096 1.2549 0.46389 0.0403-2.1687 0.48274-3.9431 0.98324-3.9431s1.9423 1.9831 3.204 4.4069c1.2617 2.4238 2.2987 3.7807 2.3044 3.0153 6e-3 -0.76542-0.58634-2.4354-1.3156-3.7111-1.6551-2.8953-1.7065-3.7144-0.23195-3.6991 0.63785 0.0066 3.1934 3.1378 5.6791 6.9583s4.6883 6.9464 4.8947 6.9464c0.49154 0-2.159-5.1166-4.9263-9.5097l-2.1916-3.4792h2.3179c1.6764 0 2.9976 1.0271 4.7738 3.7111 2.9787 4.5011 4.0645 4.9668 1.3537 0.58057l-1.9348-3.1305 2.9029-0.58057c1.5966-0.31931 4.9079-0.58057 7.3584-0.58057 3.7538 0 4.7728 0.40183 6.4697 2.5514 2.8679 3.633 2.2159 10.541-1.5181 16.084-4.6258 6.8672-4.5869 6.7653-2.362 6.1835 2.6175-0.68449 2.6705 1.775 0.14507 6.7253-1.0206 2.0005-1.8556 4.2338-1.8556 4.963 0 0.72921-0.78843 2.2995-1.7521 3.4895-1.5361 1.897-1.5804 2.2892-0.35934 3.182 1.2226 0.89401 1.1642 1.4662-0.47807 4.6854-1.6112 3.1581-1.6955 3.9067-0.60765 5.3944 1.0475 1.4325 1.0571 2.221 0.0562 4.619-0.66377 1.5904-1.4861 4.3528-1.8275 6.1388-0.34136 1.786-1.8681 5.7067-3.3928 8.7127-2.5916 5.1094-2.7702 6.1368-2.7418 15.772 0.0167 5.6687 0.41021 13.229 0.87448 16.801 1.3677 10.523 0.29618 13.074-9.7403 23.192-9.5637 9.6417-12.264 14.596-11.161 20.476 0.42025 2.2401 1.2446 3.5493 2.4302 3.8593 2.2008 0.57552 2.2208 1.1507 0.18873 5.4121-1.5221 3.1919-1.5221 3.4277 0 4.5407 0.88302 0.64568 1.6055 2.0673 1.6055 3.1592 0 1.0919 0.57757 1.9852 1.2835 1.9852 0.7059 0 1.5018 0.835 1.7687 1.8556 0.92926 3.5535 2.9645 1.9004 4.6275-3.7587 1.338-4.5529 2.2384-5.9594 4.7721-7.4543 1.7176-1.0134 3.6461-3.1055 4.2854-4.649 1.0117-2.4426 6.1017-7.3323 7.6326-7.3323 0.29496 0 1.0462 1.5451 1.6695 3.4336 0.79396 2.4057 0.95465 6.9613 0.53679 15.218l-0.59641 11.784 3.3572 8.6726c3.2803 8.4738 3.3684 9.0398 3.845 24.687 0.40949 13.446 0.22631 16.981-1.1418 22.035l-1.6295 6.0199-15.437 0.0569c-8.4905 0.0313-22.013 0.5665-30.05 1.1894-8.0369 0.62284-14.612 0.85691-14.612 0.52015s0.93937-1.2966 2.0875-2.1329c1.1481-0.83631-0.31313-0.22114-3.2472 1.3671-5.5054 2.98-6.5219 2.8591-3.7111-0.44172 0.89299-1.0487 0.0434-0.55965-1.8878 1.0867-1.9313 1.6463-4.4711 2.9933-5.644 2.9933-1.1729 0-2.409 0.27648-2.7469 0.61441-0.67519 0.67519 6.2261 4.0245 8.2926 4.0245 0.70969 0 1.2904 0.35994 1.2904 0.79987s1.4688 0.63802 3.2639 0.4402c1.7952-0.19783 4.1418 0.11013 5.2147 0.68435s1.7018 0.64109 1.3974 0.1486c-0.34195-0.55328 2.3628-0.822 7.0783-0.70324 4.1974 0.10571 10.45 0.25824 13.894 0.33898 3.4444 0.0807 6.2625 0.48855 6.2625 0.90624 0 0.41771-1.3569 1.4348-3.0153 2.2601-1.974 0.98239-2.4439 1.5211-1.3607 1.56 1.2946 0.0464 0.92174 0.79214-1.714 3.4279-2.5898 2.5898-3.0795 3.5517-2.1184 4.1608 0.69826 0.44252 0.79938 0.79852 0.22908 0.80647-0.56158 7e-3 -2.3774 2.1961-4.0352 4.8629-2.3544 3.7874-2.8 5.1916-2.0358 6.4153 1.4136 2.2636-0.17148 3.2426-9.7326 6.0113-10.92 3.1624-11.738 3.6556-8.2569 4.9794 1.8676 0.71007 2.3809 1.2756 1.5973 1.7599-0.80725 0.49892-0.43575 1.0411 1.2348 1.8023 3.3311 1.5178 4.4602 1.4006 11.712-1.2153 3.513-1.2672 8.1275-2.4153 10.255-2.5514 3.8229-0.24452 3.8762-0.20483 4.6438 3.4638 0.52367 2.5027 1.945 4.8003 4.3651 7.056 5.8816 5.4822 5.8078 6.6476-0.84507 13.36l-5.7659 5.8176 5.7984 3.9376c6.7127 4.5585 6.4214 5.0472-3.4762 5.8319-8.8768 0.70373-18.638 3.3986-16.548 4.5684 1.8922 1.059 9.0599 1.2481 13.966 0.36859l3.7111-0.66525-3.5482 1.3477c-5.1048 1.939-5.1947 2.4467-0.43348 2.4467 5.8142 0 10.012 0.94799 10.012 2.2609 0 0.60567 1.3179 2.0756 2.9287 3.2665l2.9287 2.1653 4.1132-4.7741c3.3268-3.8614 4.6705-4.7741 7.0283-4.7741h2.9152l-3.271 2.2227c-2.7239 1.8509-10.149 12.036-10.149 13.921 0 0.95055 6.3522 0.60893 6.9599-0.3743 0.38235-0.61865 1.1777-0.60771 2.3742 0.0327 1.241 0.66415 2.3561 0.66493 3.5938 3e-3 0.987-0.52852 3.2687-0.96071 5.0705-0.96071 2.2782 0 4.2042-0.8097 6.3235-2.6584l3.0476-2.6584 25.05-0.66794c23.917-0.63772 25.148-0.75876 27.226-2.6763 1.807-1.668 2.1014-2.6766 1.7376-5.9514-0.43245-3.8925-0.40086-3.943 2.4632-3.938 4.2064 7e-3 27.143 3.5002 32.637 4.9702 5.238 1.4014 13.141 7.0498 20.517 14.664 4.8862 5.0438 10.516 13.678 10.516 16.128 0 4.3153-10.71 18.061-12.979 16.658-0.46376-0.28661-3.265 0.28166-6.2249 1.2628-8.455 2.8026-11.245 3.2074-21.154 3.0686-8.6489-0.12113-9.152-0.0293-7.4222 1.3548 1.7226 1.3784 1.2575 1.4388-6.4944 0.8434-16.183-1.243-24.852-1.327-23.755-0.23037 1.7793 1.7793 1.1529 2.2528-3.8465 2.908-5.9473 0.77932-14.682 4.8347-14.036 6.5169 0.47717 1.2435-2.2516 2.3269-5.9169 2.349-1.1515 7e-3 -2.9676 1.0178-4.0357 2.2462-1.0681 1.2285-3.3616 2.4999-5.0966 2.8254-1.735 0.32549-3.1546 1.0391-3.1546 1.5857 0 0.54668 0.83234 0.77629 1.8496 0.51026 2.8805-0.75326 14.377 2.9671 13.104 4.2405-1.9496 1.9496-1.0348 2.5212 4.0345 2.5212 2.7892 0 6.4423 0.59056 8.118 1.3124 1.6757 0.72179 5.4474 1.7955 8.3815 2.386 2.9341 0.59049 5.3347 1.4043 5.3347 1.8084 0 0.40415 3.8619 0.99409 8.582 1.311s10.669 0.7875 13.221 1.0458c2.5922 0.26245 5.6622-4.7e-4 6.9583-0.5959zm-104.77-461.65 2.2492-2.5514-2.5514 2.2492c-1.4033 1.2371-2.5514 2.3852-2.5514 2.5514 0 0.72763 0.75132 0.13543 2.8536-2.2492z" fill="param(fill)" fill-opacity="param(fill-opacity)" stroke="param(outline)" stroke-opacity="param(outline-opacity)" stroke-width="param(outline-width) 0.2"/>
</svg>
