<svg version="1.1" width="512" height="512" viewBox="0 0 512 512" xmlns="http://www.w3.org/2000/svg">
 <path d="m141.5 384.32c15.48-1.2845 19.423-4.4444 41.298-33.092 31.872-41.74 45.473-54.978 61.328-59.693 7.7385-2.301 24.162-2.3087 34.49-0.0161 12.349 2.7412 30.032 9.093 35.252 12.663 12.731 8.7072 21.857 21.947 21.961 31.863 0.11647 11.051-9.0333 16.642-30.264 18.495-11.922 1.0405-19.847 3.7232-25.149 8.5139-4.3838 3.9605-4.7223 6.6794-1.2391 9.9502 2.4194 2.2719 2.8941 2.333 18.046 2.3215 16.817-0.0126 22.883-1.0806 32.506-5.723 3.4966-1.6868 6.6748-2.446 10.24-2.446 8.2738 0 18.447-1.9019 26.32-4.9209 22.267-8.5378 33.035-34.191 20.499-48.837l-3.2454-3.7915 2.4631-5.5695c1.3547-3.0632 2.7106-7.7634 3.0132-10.445 0.45206-4.0064 1.3407-5.7898 4.9864-10.007 6.0342-6.9797 8.7193-10.881 23.833-34.627 21.423-33.658 28.051-41.886 47.012-58.363 17.227-14.97 26.242-24.662 30.481-32.771 4.1386-7.9171 5.3933-13.125 3.5189-14.606-5.6295-4.4478-28.697 0.79172-51.324 11.658-11.838 5.6849-15.648 8.4447-22.115 16.021-10.498 12.298-18.051 28.802-30.908 67.532-4.7004 14.16-8.7981 25.745-9.1059 25.745-0.30782 0-1.3357-2.4617-2.2841-5.4705-6.0674-19.248-18.616-38.017-33.169-49.611-14.791-11.783-29.623-17.104-47.66-17.098-32.163 0.0117-65.647 12.057-113.58 40.856-21.226 12.754-28.735 15.94-37.475 15.903-6.3121-0.0269-10.83-2.107-21.985-10.123-15.604-11.212-24.984-14.372-37.697-15.09-12.713-0.7178-20.513 0.45872-27.101 4.0587-6.5877 3.5999-7.6949 4.6459-9.4837 4.2443-1.74-0.47441-3.5867-1.3099-5.674-0.0783-2.0873 1.2315-3.5385 3.3041-5.4581 2.9201-2.2111-0.44222-3.3605-0.0149-5.3726 1.9971-2.1967 2.1967-2.5128 3.2189-2.2293 7.2082l0.3304 4.6485-9.4858 5.139c-13.815 7.4843-20.725 13.982-19.379 18.223 0.83884 2.643 10.843 10.111 18.018 13.451 9.8823 4.5996 16.241 5.7776 35.87 6.6451 13.15 0.58117 19.327 1.2449 21.99 2.3631 4.7869 2.0097 29.724 22.06 36.064 28.997 8.6782 9.4953 13.409 22.005 10.749 28.426-1.7412 4.2037-4.9323 5.4494-15.869 6.1951-11.159 0.76086-17.413 2.4707-23.851 6.5209-6.9381 4.3651-8.1634 7.7832-4.2081 11.739 2.0176 2.0176 3.4788 2.3319 13.715 2.9501 10.35 0.62513 11.643 0.90843 13.382 2.9336 1.7228 2.0064 2.8845 2.273 11.068 2.5402 5.0288 0.16416 12.622 0.01 16.874-0.34308zm2.3745-21.431c0-0.2295 1.2932-2.5033 2.8739-5.0528 1.5806-2.5496 3.6601-7.8449 4.621-11.767l1.7472-7.1319 2.116 2.6901c2.8416 3.6125 2.8601 9.887 0.0399 13.472-3.1969 4.0642-11.398 9.669-11.398 7.7897zm215.62-23.203 5.2606-5.3335 1.7299 2.1279c0.95142 1.1703 1.6011 2.9926 1.4437 4.0495-0.3289 2.2083-5.2448 4.3041-10.359 4.4164l-3.3357 0.0732 5.2606-5.3335z" fill="param(fill)" fill-opacity="param(fill-opacity)" stroke="param(outline)" stroke-opacity="param(outline-opacity)" stroke-width="param(outline-width) 0.2"/>
</svg>
