<svg version="1.1" width="512" height="512" viewBox="0 0 512 512" xmlns="http://www.w3.org/2000/svg">
 <path d="m401.7 416.11c1.1591-0.56055 2.3566-2.0115 2.661-3.2244 0.31563-1.2576 1.5534-2.4563 2.8805-2.7893 2.9681-0.74494 8.168-6.6311 8.9077-10.083 1.5257-7.1189 3.9846-13.232 9.0722-22.551 9.9261-18.184 10.566-21.347 5.8542-28.928-1.8562-2.986-3.3965-7.2374-4.0909-11.291-1.7968-10.49 0.44996-19.037 9.9678-37.922 4.3052-8.5424 7.8164-16.29 7.8027-17.216-0.043-2.8977-2.3734-10.902-3.3808-11.611-0.57538-0.40499-0.10856-1.5848 1.1633-2.9385 3.2843-3.4958 4.8677-14.492 3.2881-22.835-0.68233-3.6044-1.2007-7.7591-1.1519-9.2323 0.0487-1.4734-0.63293-3.7803-1.515-5.1264-0.88201-1.3461-1.3496-2.7016-1.0391-3.0121 0.83956-0.83955 4.4193 5.3989 5.6505 9.8468 0.72455 2.618 0.80301 6.7286 0.24051 12.619-0.45854 4.805-0.79832 13.323-0.75491 18.929 0.0722 9.3079 0.37966 10.95 3.5429 18.929 3.4475 8.6948 5.8737 18.349 5.6882 22.633-0.075 1.7354 0.29789 2.1222 1.6367 1.6973 1.3914-0.44183 1.9606 0.29646 2.8801 3.7344 0.63026 2.3566 2.1841 5.4917 3.4528 6.9668l2.307 2.6819 2.9656-2.1117c1.6311-1.1614 3.3934-2.1117 3.9162-2.1117 1.1936 0 7.9714 7.4306 7.9714 8.7394 0 0.53233 0.43705 0.96789 0.97072 0.96789 0.53387 0 0.97071-0.86269 0.97071-1.9171 0-1.6124 0.46286-1.8246 2.912-1.3348 2.0557 0.41121 2.9122 0.20657 2.9122-0.69515 0-0.77289 0.54726-0.53325 1.3854 0.60669 1.2803 1.7412 1.4369 1.4985 2.0642-3.195 0.78816-5.8976 2.4078-7.8978 4.426-5.4658 1.1723 1.4125 1.479 0.62212 2.4732-6.373 0.6677-4.6978 1.8002-8.7206 2.7507-9.7707 1.1824-1.3066 1.3629-2.2627 0.67267-3.5649-0.51865-0.97871-1.4446-5.0556-2.0578-9.0598-0.6131-4.0041-1.9916-10.237-3.0635-13.85-1.0718-3.6135-1.6636-7.0309-1.3153-7.5946 0.34859-0.56371-0.23191-1.9754-1.2898-3.1371-2.4322-2.6714-3.6646-9.0391-2.1114-10.911 0.89433-1.0776 0.79397-1.503-0.46909-1.9876-0.88374-0.33902-2.5041-2.3755-3.6009-4.5254-3.6434-7.1418-21.903-26.619-30.882-32.942-4.563-3.213-9.8253-7.2603-11.694-8.9942-2.942-2.7298-5.2726-4.1459-13.721-8.3357-0.87279-0.43273-2.4547-0.56007-3.5156-0.2826-1.332 0.34811-2.8457-0.47672-4.893-2.6673-2.362-2.5274-3.2413-2.9418-4.3282-2.0398-1.0842 0.8998-1.9412 0.52938-4.1789-1.8063-2.4716-2.5798-2.9514-2.7516-3.9334-1.4086-1.3718 1.876-8.9794 1.0038-9.7956-1.1229-0.31238-0.81406-1.2402-1.1181-2.3436-0.76793-1.0812 0.34333-1.8265 0.11376-1.8265-0.56164 0-0.74392-0.87733-0.92117-2.5196-0.50895-1.3858 0.34762-3.0254 0.21278-3.6435-0.30029-1.2572-1.0434-7.9126-0.81363-10.687 0.36867-0.99237 0.42269-8.669 0.47529-17.059 0.11666-12.493-0.53411-17.702-0.30841-28.772 1.2458-27.397 3.8465-40.034 3.6068-66.45-1.2598-16.017-2.9506-18.071-3.0421-46.641-2.0767-19.824 0.6699-23.204 0.57379-25.238-0.71762-1.2919-0.82014-3.7632-1.786-5.4916-2.1464-1.7287-0.36053-3.9128-1.6163-4.8533-2.7911-3.2243-4.026-9.4862-8.2244-20.639-13.838-10.074-5.0704-12.157-6.6058-21.35-15.734-5.6031-5.5639-11.816-11.483-13.807-13.154-3.4358-2.8833-3.6968-3.52-5.1288-12.512-2.4074-15.116-4.1316-17.624-9.0343-13.146-1.4363 1.312-4.8036 3.9525-7.4823 5.8675-2.679 1.9152-5.6954 4.393-6.7028 5.5065-1.0075 1.1133-2.1318 2.0242-2.4984 2.0242-0.86298 0-2.6016-6.0114-3.4514-11.933-0.39814-2.7749-1.1104-4.5141-1.7645-4.3091-0.6033 0.18936-2.8932 4.0302-5.0885 8.5357-2.1955 4.5055-4.8165 8.9104-5.8244 9.7885-1.0079 0.87814-6.7507 3.6015-12.762 6.0516-12.718 5.1842-18.875 8.1928-19.876 9.7119-0.39224 0.59565-0.71987 2.6726-0.72804 4.6156-0.0076 1.9429-0.78443 4.4829-1.725 5.6446-1.8836 2.326-22.87 9.8955-32.751 11.812-7.4158 1.4386-9.2218 2.3855-9.2218 4.8352 0 2.075 6.4179 9.151 10.864 11.977 1.7861 1.1355 5.6246 1.8427 12.134 2.2353 8.8641 0.53478 9.3203 0.66058 6.6091 1.8232-1.6017 0.68687-4.9557 1.2686-7.4535 1.2927-5.0971 0.0492-7.5922 1.8221-7.5922 5.3946 0 2.9618 1.3617 3.7638 3.8022 2.2398 1.6521-1.0318 2.2791-0.89272 4.2276 0.93782 1.9296 1.8128 3.3956 2.1493 9.3652 2.1493 3.8927 0 9.7616-0.70691 13.042-1.5709 3.2804-0.86403 9.2246-1.6285 13.21-1.6987l7.2455-0.12767 2.9467 4.5654c4.4322 6.8664 8.6007 14.453 9.9702 18.142 0.67228 1.8117 3.8353 6.7544 7.0289 10.984 3.1937 4.2296 6.2539 9.3504 6.7999 11.379 0.8105 3.01 1.8332 4.1213 5.5562 6.0373 5.1818 2.6668 12.132 11.823 13.868 18.27 0.83902 3.116 2.2322 4.6992 7.4632 8.4811 3.5374 2.5575 8.0446 6.0597 10.016 7.7825 4.7878 4.1842 18.442 24.542 18.456 27.518 6e-3 1.2942 1.1466 4.3187 2.5337 6.721 5.025 8.7034 6.8697 17.15 9.6464 44.168 2.4348 23.693 1.5443 29.804-5.5156 37.845-2.6466 3.0143-3.5381 3.4106-7.6731 3.4106-8.6279 0-13.871 7.6037-8.6169 12.498 1.5774 1.4696 4.0974 2.0502 11.212 2.5837 10.513 0.78821 13.228 0.47147 20.984-2.4478 6.1171-2.3021 8.4797-5.2852 8.4797-10.707 0-3.3917 2.5665-10.363 6.8573-18.624 3.5327-6.8028 3.4994-6.5336 5.7083-46.279 2.0354-36.624 1.9052-36.115 10.032-39.145 13.264-4.9466 40.382-5.9206 49.911-1.7934l5.0417 2.1841 5.1508-2.3708c2.8328-1.304 8.2081-3.1475 11.945-4.0968 3.7373-0.94925 10.192-3.2315 14.344-5.0718 8.4653-3.7521 10.549-3.8064 11.388-0.29647l0.57906 2.4216 5.2367-5.6224v2.5685c0 3.0054-8e-3 3.0034 4.5179 1.1124 4.4276-1.85 4.4924-1.8403 3.2477 0.48538-1.2122 2.2651 0.17629 2.6121 1.9414 0.48534 1.5481-1.8654 2.9122-1.8654 2.9122 0 0 2.2023 1.5681 1.7515 3.8066-1.0943 1.6624-2.1135 2.2566-2.3426 3.4679-1.3372 0.80398 0.66722 1.4618 2.0334 1.4618 3.0356 0 2.545 1.4475 2.2713 3.799-0.7182 1.637-2.0811 2.1044-2.2651 2.5832-1.0172 0.32157 0.83798 0.25247 2.0906-0.15357 2.7835-0.40602 0.69289 0.19934 0.43799 1.3453-0.56691 1.1459-1.0047 2.3425-2.6428 2.6591-3.6401 0.89531-2.8209 2.3862-2.1345 2.3862 1.0987 0 1.6016 0.45907 2.9122 1.0203 2.9122 1.2229 0 3.8333-5.9282 3.8333-8.7053 0-2.0038 1.5113-2.5254 3.5533-1.2261 0.61956 0.39401 1.9964 3.0062 3.0597 5.8043 3.1881 8.3903 6.6589 13.447 16.047 23.381 10.976 11.613 21.686 24.948 24.851 30.94 2.2657 4.2905 2.3676 5.242 2.253 21.074-0.10136 14.022-0.42714 17.458-2.1117 22.261-3.8666 11.025-6.0128 13.216-16.208 16.547-6.4265 2.0993-8.9316 4.8395-8.7279 9.5464 0.0862 1.9924 0.59008 4.0559 1.1198 4.5856 1.0975 1.0975 19.08 4.9073 22.757 4.8218 1.3347-0.0334 3.3751-0.51522 4.5343-1.0758z" fill="param(fill)" fill-opacity="param(fill-opacity)" stroke="param(outline)" stroke-opacity="param(outline-opacity)" stroke-width="param(outline-width) 0.2"/>
</svg>
