<svg version="1.1" width="512" height="512" viewBox="0 0 512 512" xmlns="http://www.w3.org/2000/svg">
 <path d="m157.76 466.2c-24.32-6.3438 13.02-17.794 19.769-29.749 10.116-23.251 8.6105-50.158 1.0964-73.847-8.1715 5.4167 2.9625 11.38-5.2329 23.126 3.147 6.2342-7.7129 27.891-12.686 39.144-5.9411 22.368-29.678 31.551-50.949 28.728-12.98-11.769 28.996-16.843 30.62-34.813 11.434-28.33 2.763-59.791-5.8876-87.317-12.352-14.446-18.391-30.424-30.169-45.523-6.5715-5.565-5.6893-15.007-13.888-12.231 4.0525-10.707-4.7085 4.9989-3.9444-4.1344-5.0656 3.9419-0.62504-6.5026-4.8188-6.1341 1.3455-12.985-9.7294 14.582-4.5911 0.80271-0.4132-1.8621-1.9071-10.243-6.7382-13.121-0.25561-2.484 4.0268-13.593-4.2149-2.8642 11.067-12.476-10.491-3.2498-2.5854-16.965-11.788 15.782 7.1913-19.474-2.6743-2.1787-3.7096-0.22437-7.594 0.258-1.5515-7.472-7.2008 6.7112-7.8519 2.3298-7.8447-4.6194-10.577 17.032 8.3332-20.939 0.03451-11.098-7.9751 4.9501 6.316-6.2201-2.75-2.8713 3.8495-1.4902-14.556 1.0127-0.60824-7.9737 1.4117-9.6082-13.151 8.8544-6.9616-8.2561 0.87038-6.9022-4.5323 0.94414-3.0227-12.186 1.59-18.789-16.154-23.752-10.734-38.948 6.1674-16.056 0.84261-24.168 4.5747-35.315-2.4267-6.3659 11.292-19.257 6.6271-33.503-5.3353-30.577 12.803-18.138 19.617-6.5275 0.88138 5.4014 11.311 14.654 16.681 11.97 11.397 5.7268 19.33-8.7998 23.156-17.407 8.5131-19.149 7.3554-6.0755 12.327 3.6701-0.83142 13.881 10.803 18.588 12.005 25.804-2.7244 3.5723 9.846 4.8852 9.1832 13.685 6.9748 12.035 20.482 14.634 29.469 21.154 14.545 11.779 32.469 19.495 49.541 27.186 16.613 5.289 34.487 10.374 52.976 10.57 14.389 3.2252 30.097 6.3374 46.674 4.6512 8.464-0.74593 16.789 0.19726 27.479 3.7346 14.98-2.3956 21.267 2.7634 35.618 4.2818 18.13 1.6641 27.169 9.995 43.648 15.532-4.7598 2.3787 10.701 8.0312 16.164 16.518 3.0451 3.6612-11.896 1.8015 1.6472 7.4357-2.7434 6.8161 13.149 11.297 10.63 17.331 1.0411 7.7082 13.642 15.435 13.559 24.032-3.4243 2.0787 7.0505 7.1018 2.5 12.488 3.8504 3.7406 2.9984 10.384 4.4986 13.302-10.555-1.5858 13.063 10.841 2.1378 11.782 14.378 11.135 6.3662 17.405 9.117 24.957 0.39149 6.4178-5.1858 1.572 5.1539 8.5896-9.059 2.9334 2.3657 16.448 3.3874 21.166-10.711-0.60602 0.72678 9.457-1.4078 11.868-6.244 0.8371 4.5556 7.2068-3.3004 8.3468 3.625 14.952-0.95793-0.91764-4.5581 12.974 1.6643 13.124-10.9-6.97-13.827-0.92102-0.74564 2.183-10.718-5.7449-12.951-7.1062 4.6976-9.8397-8.7737-1.6371-3.659-12.872-14.067 5.6096-1.5136-17.332-8.0099-12.227-0.23572-5.0908-12.486-2.6914-9.4838-10.929-4.4657-1.2563 2.9479-8.3032-3.9725-5.5199 6.0056-7.9926-10.963 5.4003-1.1144-6.77 4.1948-7.2838-7.5303 3.2478-2.5139-7.2674-7.3745-0.37837 4.4559-18.799-8.8821-5.5012-3.9455 10.774 3.4089 16.179 0.63319 30.139 2.9229 7.3055 3.2268 12.775 9.7635 17.869-6.6788 2.1878 1.8972 10.225 1.2291 15.131 0.97675 18.04 3.4565 36.323 0.36455 53.591 5.5662 25.372-18.721 33.819-39.066 27.38-0.52658-14.156-11.502 9.6612-3.2556-8.9398 6.0872-10.783 27.742-12.748 23.067-28.192 0.18324-17.098-3.8583-35.261-17.207-46.287-12.689-12.317-7.9211 13.457-9.541 23.039-2.3795 20.371 0.0536 53.947-30.126 51.192-15.738 4.0683-25.797-9.2914-7.5901-17.248 24.828-6.221 19.234-36.313 11.084-53.69-12.141-5.3752-12.924-21.199-23.326-28.343-8.9056-10.464-16.182-31.736-21.143-41.608-2.1136-8.5794-10.732-26.241-21.641-23.619 1.1184 1.408 6.2486 7.8372-1.3907 4.0483 5.2128 15.519-9.9748 3.6759-10.402 8.7523 3.8727 4.4063-11.679-0.57356-2.3613 6.7742-11.845-7.6058-11.238 3.0709-14.264 4.5665-6.6706-3.3179 3.036 8.1028-9.9293 1.7677-9.4494 0.53917-3.2649 11.872-8.6827 12.571-11.122 0.86592-11.661-3.0593-12.936 6.5443-4.0769 8.58 14.221 19.963-3.3798 15.958 0.79434 3.6836-5.6727 9.7777-0.28465 13.529-10.209-1.3786-0.72298 8.7936-4.7289 13.715-1.4121 6.2572 3.5136 7.7889-2.7919 14.266-0.49435 14.43 0.90163 16.08-2.6301 27.799-2.701 8.2367-5.5392 18.21-9.1468 25.492-3.5422 11.155-9.9113 25.55-25.247 30.376-6.3017 1.7604-12.861 3.0062-19.429 2.7619zm138.24-188.66c-4.5126-4.2406-4.1249-0.44339 0 0zm-220.27-23.466c-1.7126-5.2198-0.43802 6.0554 0 0zm-11.047-16.257c-1.7618-1.8968 0.63064 5.7704 0 0zm5.3169 0.6875c-1.2167-4.742-1.9876 4.9754 0 0zm344.51 77.511c0.74575-2.339 4.2321 3.6669 0 0zm-352.43-72.595c0.92395-3.7428 0.42727 4.3451 0 0zm-14.579-32.417c4.5983-3.5562 0.06473 3.4158 0 0zm-8.4211-4.6682c1.2259-7.8887 6.9529-3.5893 0 0z" fill="param(fill)" fill-opacity="param(fill-opacity)" stroke="param(outline)" stroke-opacity="param(outline-opacity)" stroke-width="param(outline-width) 0.2"/>
</svg>
