<?xml version="1.0" encoding="UTF-8"?>
<svg width="512" height="512" version="1.1" viewBox="0 0 512 512" xmlns="http://www.w3.org/2000/svg">
  <path d="m241.31 504.97c29.854-10.464 2.9583-39.113 9.1799-59.45-6.875-29.411 3.9932-58.175 5.4127-87.382 2.6767-15.23 4.4695-34.982 6.2682-47.99 31.639 3.0186 62.775-4.3959 92.415-14.907 0.83492 23.041 21.498 38.621 22.785 61.146-0.17919 24.781-16.747 45.978-22.822 69.568-21.363 13.673-31.149 52.835 6.2204 48.835 23.177 3.271 17.745-17.882 13.399-27.716 26.858-0.32048 8.4463-27.516 17.312-43.261 3.0065-23.765 28.771-41.378 22.545-66.378-8.9546-18.494-13.826-41.072-5.744-60.638 4.2271 19.29 12.308 37.606 16.326 56.816-5.6468 16.208 5.2164 30.232 2.6016 45.894-3.0367 20.779 2.9622 43.865-8.1116 61.708-12.441 17.153-7.6933 41.667 17.358 35.067 20.02 2.1155 23.539-21.006 16.814-33.333 11.088-20.006-2.2413-45.274 2.8771-67.463-0.41173-13.739-2.3487-27.626 12.138-34.687 11.926-10.797 23.763-24.773 21.322-41.848-1.0144-11.546 1.9868-21.688 8.462-31.299 12.521-36.959 15.845-83.977-12.778-114.58-21.109-20.168-41.089-45.897-72.033-50.024-12.292-0.69613-25.814-2.9081-37.71 0.0598-39.861 20.69-84.39 46.149-130.81 32.639-24.387-2.2621-4.8499-40.285-30.474-46.42-6.9174-21.668-31.003-28.369-35.983-48.473-12.27-12.901-26.326-14.033-37.753-27.47-17.963-1.7283-34.547-16.063-51.051-3-16.644-0.25416-25.412 18.975-41.174 4.264-25.162-3.7417-2.0968 25.811-1.2842 36.251-11.108 14.748 12.759 27.01-5.6339 36.98-5.7182 24.34-20.753 45.285-34.4 65.709-11.251 23.529 11.56 53.06 35.728 50.031 17.952-16.668 38.712-28.697 62.938-33.479 14.571 19.372 31.413 40.861 29.752 66.272 4.8202 24.22 25.496 39.718 31.257 63.435 10.504 24.243 27.606 45.839 32.497 72.146 1.1344 22.354 14.992 44.843 3.4147 68.069-11.101 15.295-38.076 51.673-1.6893 52.913 11.689 4.3511 21.728 21.637 40.423 11.999zm217.6-215.91c2.3881-22.692 12.066-45.662 18.372-68.207 2.6495-8.5992 6.0567-36.226 6.3824-12.521-0.29925 24.505-2.3997 50.132-9.7731 73.277-4.1912 2.514-12.108 17.361-14.981 7.4512z" fill="param(fill)" fill-opacity="param(fill-opacity)" stroke="param(outline)" stroke-opacity="param(outline-opacity)" stroke-width="param(outline-width) 0.2"/>
</svg>
