<svg version="1.1" width="512" height="512" viewBox="0 0 512 512" xmlns="http://www.w3.org/2000/svg">
 <path d="m454.53 423.01c8.1182-16.832 3.7658-37.871 8.0744-56.354 0.0338-18.03 10.246-35.375 6.9356-53.03-8.0606-13.621-16.923-27.421-22.266-42.24-2.7357-31.462 17.647-57.762 28.615-85.704 4.4519-15.317 5.32-9.4627 5.2979 2.9572-0.28475 31.09-8.3318 61.593-7.2929 92.794-1.0404 8.7242-8.0331 37.33 3.7551 15.225 4.5088 1.4717 9.9618-13.474 9.6926-12.007 1.6802 12.57 4.9938-20.33 3.9787-26.57-0.3499-11.261 3.6769-12.516 5.0533-10.996 3.2007-1.8822-7.5817-22.417-4.1755-28.602-0.13081-7.4535 8.1077-10.025-1.6357-21.205 8.806 7.309 1.1304-3.8841 4.5835-5.6288 7.1141 6.1102-8.2864-13.147 3.3064-5.8087-4.7422-7.4794 7.6316 0.0826-0.9841-9.3399 3.5784-4.3446-16.95-21.188-4.8509-20.259-10.168-10.839-13.532-27.456-24.419-38.958-27.715-27.993-71.24-31.576-108.17-24.85-30.311 3.8162-60.343 11.273-90.906 11.983-22.729 0.93673-46.027-5.2336-68.265 1.3625-12.708-7.2215-16.411 18.7-26.37 11.881-13.278-9.6847-43.315-8.3232-34.362 16.318-1.5892 16.697-8.0234-28.387-11.695-6.6113-0.42027 14.297-10.53-9.7142-7.2305 7.5665-4.8016-2.8133-14.094-3.3789-13.598 7.4629-0.59023 9.9612-2.8848 14.931-6.0954 13.866-2.4365 7.6602-11.147-4.919-11.752 9.7676-13.666 0.38346-16.956 16.192-24.045 28.268-6.951 14.285-20.017 21.72-28.255 35.024-0.42197 21.906-11.69-23.481-18.231 0.66751-2.8248 14.929 11.079 26.734 5.3874 41.051-0.48102 11.993-13.971 21.159-9.9244 33.215 9.3508 27.666-17.033 54.289-4.5995 81.63 18.064 18.691 33.036-18.208 46.799-27.915 13.334-15.553 34.812-27.69 30.766-52.41 0.09473-25.086 23.193-40.593 38.789-57.081 11.836-14.315 27.566-17.245 38.037-0.57691 12.309 14.168 10.153 37.727 11.66 56.165-1.4536 25.573 1.5318 52.121-5.9998 76.851-20.152 18.379 25.285 27.35 20.754 5.015 0.24666-21.641 4.113-42.875 9.6381-63.723 3.0428-20.331 4.4465-41.502 12.459-60.594 13.579 6.5846 22.653 31.442 30.909 46.527 8.0145 21.538 24.6 38.803 30.215 61.483 6.6184 8.4762-6.046 17.661-1.2151 25.498 12.023 2.9417 34.319 3.0262 22.81-14.782-7.836-20.31-19.296-39.502-21.715-61.576-4.5411-21.173-14.44-40.857-18.276-62.172 33.147 8.4652 69.564 5.5087 100.16-10.172 9.5917-5.6456 19.715-23.977 27.703-5.5523 13.547 23.529 35.757 47.436 28.88 76.772 0.0147 20.315 5.2631 41.102-2.8819 61.139 0.32563 15.724-31.571 43.134 0.97884 37.389 15.846 4.1436 12.136-17.953 15.378-28.136 3.5943-10.275 4.7216-41.843 12.148-40.811 0.63923 20.587 1.5242 42.723-4.7554 62.432-11.481 17.312 11.177 14.658 21.206 13.354zm-315.88-291.95c-0.89498-3.6258-0.41409 4.2093 0 0z" fill="param(fill)" fill-opacity="param(fill-opacity)" stroke="param(outline)" stroke-opacity="param(outline-opacity)" stroke-width="param(outline-width) 0.2"/>
</svg>
