<svg version="1.1" width="512" height="512" viewBox="0 0 512 512" xmlns="http://www.w3.org/2000/svg">
 <path d="m102.37 499.9c-2.1085-8.9385 3.626-41.721-0.35018-36.73 1.3622 7.6285-19.48 43.036-13.896 20.967 1.0716-8.1898 13.373-37.978 7.5972-34.672-3.5463 8.8567-14.518 18.506-6.5215 3.128 7.8659-17.577 13.794-36.529 21.155-53.759 1.4446-14.103 6.8202-36.046 20.122-46.812 15.161-15.671 29.846-31.591 42.032-49.71 7.2988-12.451 31.556-34.775 15.011-46.911-17.455-7.6648-25.616-29.256-47.78-21.165-12.403 0.32106-24.811 0.23612-37.216 0.29469 6.7964-13.694 31.83-9.4723 45.55-16.278 16.178-5.0436 33.914-16.05 49.665-3.3429 9.7196 2.4176 4.994 18.867 17.682 6.3739 14.161-8.8381 19.431-19.606 28.853-35.87 14.974-26.417 26.624-54.578 34.48-83.914 13.22-16.335 29.74-30.026 45.436-44.136 8.0068-4.5953 20.715-25.915 19.919-15.08 13.329-9.9693 23.766-24.006 38.255-32.153-5.7067 12.534-20.514 21.951-27.418 31.512 14.752-7.9671 27.87-19.802 43.294-25.946-4.5247 11.556-33.229 24.662-29.506 27.742 10.7-1.9129 28.441-14.823 35.265-10.499-5.501 6.8136-30.598 13.983-28.388 16.46 6.606-1.149 37.119-9.2165 17.903 1.5903-10.592 4.8496-12.809 17.154-26.706 21.086 0.68541 9.2791-9.3939 26.84-13.885 42.046-7.5844 8.9026-10.381 27.014-18.703 41.324-8.0189 9.9452-9.7853 31.808-20.907 44.4-13.133 13.785-16.104 29.513-23.93 43.296 0.63062 22.84 25.979 5.6404 40.251 9.6223 2.6144 10.669 5.3337 24.203 0.74908 35.995-10.55 11.884-34.291 31.155-45.144 9.1173-11.106-17.804-38.748-3.4593-39.659 14.699-8.7909 18.426-25.972 29.581-36.853 45.653-8.4382 14.985-22.425 26.166-29.765 41.429-10.975 16.653-27.895 28.014-34.59 43.443 1.0032 15.987-11.801 24.826-10.637 41.686-7.106 3.2161-9.23-33.698-9.4263-15.313 0.96496 8.7486-1.7217 42.489-7.0943 19.668-1.5115-9.1056-3.9276-44.429-5.438-16.924-1.5134 6.8784-1.5667 28.293-9.4056 27.679z" fill="param(fill)" fill-opacity="param(fill-opacity)" stroke="param(outline)" stroke-opacity="param(outline-opacity)" stroke-width="param(outline-width) 0.2"/>
</svg>
