<svg version="1.1" width="512" height="512" viewBox="0 0 512 512" xmlns="http://www.w3.org/2000/svg">
 <path d="m289.21 393.34c-3.8824-3.8049 22.706-24.205 10.057-39.097-8.5863-19.87-27.617-34.222-48.522-39.041-11.481-7.4264-25.138 16.46-29.995 5.3522 22.208-8.8732-18.599-6.472-6.0272 7.0983 13.738 21.76-26.554 3.0168-9.2768-13.497 5.1171-13.023 38.065 0.95306 35.094-7.1079-11.806-7.4865-22.981-10.846-32.656-15.179-12.643-8.6057-27.672-11.587-38.741-14.569-0.88565 4.9209-14.817-6.9312-14.138-2.2908-10.969-10.937-19.468-12.91-28.862-18.444-7.3824-3.0176-21.711-9.6906-30.683-16.93-14.759-9.2192-34.661-6.9119-50.221-2.8194-6.6527 3.3701-36.968 6.6713-16.047-0.18694 10.391-1.6185 22.714-8.0876 4.5218-8.579-15.44-1.7058 25.1-0.92584 3.42-5.0497-9.4406-0.12996-36.55-1.6259-14.853-8.141 12.22-0.36813 41.612-13.835 40.986-13.282 3.7035-0.0924 15.536-10.733 8.8501-1.4388 6.4252-3.6564 10.326-4.9769 6.7457 0.40268 10.721-4.2834-0.98962 3.2627 3.7701 3.9711-8.7791 4.9017 3.3228 1.2628 3.5635 4.9402-0.05201 3.1596 9.5053 1.0852 10.069 4.5615 2.6016 6.439 13.206 5.0454 18.286 11.214 5.0826 0.19922 31.136 15.574 24.606 1.0467-5.9457-16.656-30.538-19.95-36.171-32.614 8.5709 3.0259 22.653 10.157 7.9842-1.6675-10.62-15.315 18.924 12.366 6.8659-2.1614-4.7481-5.727-7.3785-8.455 1.5634-6.9751-4.2684-15.011-12.911-44.599-3.9784-52.357 4.3968 9.6529 7.0894 19.961 10.526 29.975-0.0598-10.863-1.524-21.822-0.3425-32.618 13.261 5e-3 9.7569 37.349 16.935 35.807 3.8175-7.7115 1.5089-31.085 9.6984-30.062 3.5082 12.616 2.7567 25.894 3.5607 38.868 3.2367-10.046 5.0766-20.678 9.4963-30.249 9.2275-2.2393 0.75726 27.206 6.9222 14.688 13.019-15.985-5.4292 36.462 8.8351 11.467 13.012-11.732-8.0796 29.224 6.8543 11.092 11.21-10.629 0.49135 12.541 11.093 10.233-2.6038 5.2236 3.3702 5.8321 2.896 10.725 4.0936-5.7586-10.863-34.369 1.1868-19.804 5.3817 14.615 7.3454 9.1715 4.5383-4.5759-0.4423-17.345 8.0032-3.6025 6.7997 6.2598 11.298-3.3262 32.574-16.94 48.541-21.895 19.101-8.5881 32.679-25.557 50.021-36.325 6.31 8.0324-23.402 28.703-16.456 29.407 9.8811-3.7092 21.451-23.549 28.924-19.382 0.11389 9.6828-23.44 31.595-18.169 31.275 7.3422-5.6578 36.334-19.494 19.773-1.7289-7.7043 7.3838-29.77 22.582-6.4068 13.965 8.1473-4.1577 24.961-7.0887 10.279 4.09-7.879 6.3364-25.076 11.491-29.649 14.974 7.7579-0.57697 42.374-9.1424 20.997 3.2269-6.9792 5.0782-31.73 7.79-30.011 11.864 7.7324 1.5479 41.275-5.8704 19.944 4.6708-8.2859 4.1043-38.802 7.2636-14.423 7.9816 12.185-1.5892 6.7979 7.2701 20.855 1.4243 33.156-6.9434 66.573-15.072 98.982-24.313 15.394-12.212 24.819-5.4627 39.112-17.239 4.7605 8.0556 27.551-8.5357 34.868-5.5195-14.028 7.2464 12.86 0.73427 4.5318 6.3544-6.897 3.9437-18.996 4.7032-10.403 8.3527-7.8003 4.1609-20.938 2.108-21.047 10.371-12.879 3.2893-24.02 6.7347-34.519 12.028-11.027-0.0334-11.503 8.069-24.635 7.3339 4.3362 7.7923-21.382-0.70654-14.701 8.7772-16.122-0.63243-30.135 4.486-45.216 6.373-4.7908 7.6739-28.604-2.1498-17.468 6.9368-16.525-2.1928-28.265 8.5993-32.244 17.694-10.478 8.3391-11.956 14.108-25.665 21.611-15.429 2.0659 5.2737 14.591 5.7198 22.931 7.4702 10.241 21.243 19.361 24.665 34.645 3.2085 9.632 17.404 24.887 11.655 32.165-8.1717-17.543-0.011 25.712-17.546 21.08-1.3116-0.27559-6.8239 1.0267-5.518-2.0977zm-91.791-183.92c3.4344-9.8082-8.669 4.9692 0 0zm-7.0311-19.626c-4.98 1.5946-2.8573 7.1231 0 0z" fill="param(fill)" fill-opacity="param(fill-opacity)" stroke="param(outline)" stroke-opacity="param(outline-opacity)" stroke-width="param(outline-width) 0.2"/>
</svg>
