<svg version="1.1" width="512" height="512" viewBox="0 0 512 512" xmlns="http://www.w3.org/2000/svg">
 <path d="m320.31 392c-17.765-7.7764-42.306-2.0246-53.606-21.271-6.6412-12.989-7.47-6.5781-9.336 4.3594-7.3518-3.238-2.5847-19.018-17.036-18.005-18.303-6.7144-39.395-21.93-58.542-8.963-13.568 19.63-28.605-13.089-47.277-4.6451-15.645 3.3245-30.289 9.9935-45.282 15.398-17.133-14.185-41.109-17.768-62.181-11.395-25.256 6.3815-10.713-29.007-3.4479-40.448 15.297-26.706 42.33-44.164 68.108-59.615 15.61-12.309 44.858-13.396 54.226-27.797-2.2623-11.389 5.6948 8.0537 12.591 4.2829 11.616 11.028 25.978 35.179 34.641 39.643-3.9628-16.371-6.6626-37.665-0.26412-52.089 12.195 14.544 20.633 32.253 34.09 45.862 6.0199-16.953 9.1308-51.938 29.313-52.635 16.143 14.45 7.8887 44.033 12.536 56.791 23.748 3.5192 23.402-32.748 34.087-48.029 5.3687-16.695 16.184-34.065 16.122-50.999 16.914 0.19528 27.906-22.453 43.548-29.849 20.659-16.591 45.791-25.238 71.121-31.747 12.907-5.5077 27.118-0.75183 40.395 0.7592 12.331 1.2744 41.83 17.545 20.722 28.755-21.828 14.667-31.248 39.751-43.562 61.22-19.47 19.809-40.928 40.502-45.636 69.243 4.3816 27.845-31.175 14.899-42.665 32.923-7.9644 8.4292-14.963 17.691-22.264 26.684 14.888 1.6452 7.2777 18.265-3.1889 5.6704-10.487-7.4307 5.7284 17.549 1.3818 23.689 0.85178 15.103-10.448 32.079-18.598 42.206z" fill="param(fill)" fill-opacity="param(fill-opacity)" stroke="param(outline)" stroke-opacity="param(outline-opacity)" stroke-width="param(outline-width) 0.2"/>
</svg>
