<svg version="1.1" width="512" height="512" viewBox="0 0 512 512" xmlns="http://www.w3.org/2000/svg">
  <path d="m260.4 357.6c-6.295-17.329-20.203-32.247-35.56-42.242-9.04-8.4703-29.627 18.193-17.819-3.4688-1.8877-18.668-25.126-24.333-40.25-30.119-17.827-4.1022-34.9-8.5898-49.849-19.054-21.424-6.3273-40.983 6.0552-60.6 12.09-18.444 10.865-31.631 28.23-47.273 42.435 4.0356-28.778 20.97-54.836 39.977-76.549 24.444-27.934 54.844-49.837 86.588-68.702 6.561-12.326 22.807 15.153 32.692 19.23 23.599 19.453 49.429 37.818 79.16 46.28 14.409 2.9244 6.4105-17.547-0.68583-20.779-1.8604-8.2133-5.1582-35.586 4.2149-33.82 7.8399 14.838 20.142 13.291 34.11 14.728 10.097 10.237 22.342-8.9854 29.435-9.8473 1.5042 14.711-1.2338 32.216-15.315 40.168-9.0047 13.331 4.0646 19.054 16.085 13.447 38.89-5.263 76.268-19.316 109.96-39.254 5.99-1.3315-4.0263 9.9508 6.63 12.596 29.793 28.819 62.167 60.414 70.336 102.73 1.8194 10.724 0.78664 36.996-8.2551 37.622-2.4448-21.707-19.531-39.563-40.425-44.894-15.179-16.603-41.767-26.585-62.053-12.972-8.5012 7.0571-20.078-2.1695-30.134 0.69766-16.422 0.8189-45.577 3.9261-52.2 15.23 5.2912 17.725-11.858-13.019-20.299 0.93244-17.032 7.9014-20.578 34.762-28.467 43.517z" fill="param(fill)" fill-opacity="param(fill-opacity)" stroke="param(outline)" stroke-opacity="param(outline-opacity)" stroke-width="param(outline-width) 0.2"/>
</svg>
