<svg version="1.1" width="512" height="512" viewBox="0 0 512 512" xmlns="http://www.w3.org/2000/svg">
 <path d="m34.388 358.82c-13.376-10.754-12.132-31.539-5.0026-45.706 3.2813-20.301 18.569-30.213 33.521-42.188 17.61-20.124 45.349-25.548 66.093-41.369-5.289-6.432-11.516-22.751-1.3382-7.3327 14.821 13.917-19.873-30.7-2.7314-12.212 5.8605 20.977 28.659 19.647 45.796 23.94 17.057 3.371 35.753 13.116 52.341 3.3192 18.675-2.3725 21.041-25.123 17.492-36.422 3.2134-0.62006-4.2318-13.709 2.9841-2.5491 2.0894 8.0076 10.213 5.0075 16.414 5.4667 13.421 8.6956 12.585-24.021 14.943-5.3391 1.2679 18.086 9.286 36.035 30.86 34.146 17.914 2.194 35.121-4.2424 52.173-8.6453 6.3626-3.6351 12.882-5.3535 20.081-3.2994 16.149 6.0139 26.293-8.421 37.174-17.574 13.264-4.7584-22.535 18.896-13.21 19.626 3.3614-5.48 23.804-16.115 10.069-5.4914-22.126 10.879 10.323 22.702 18.89 31.286 14.303 7.5539 23.874 18.021 34.003 29.959 16.523 8.7613 25.416 23.262 28.197 41.57 3.5974 11.265 7.5065 37.299-7.1086 38.329 1.0426-13.576-1.2358-37.614-20.47-25.963-14.202 11.473-20.199-16.062-37.124-13.012-13.715-4.7581-20.859 12.584-28.082 17.593-10.088-11.464-24.888-24.081-41.08-17.528-15.883 7.7825-35.998-14.954-44.272 6.2551-13.141 7.0335-29.644 16.805-15.92 23.407-7.1163-6.2654-8.848-3.6044-9.0082 4.4197-5.4543-0.76751-16.81 4.1608-9.6107-7.0697 7.6314-8.5968 4.52-15.319-3.3559-19.469 5.4447-24.542-31.857-19.346-30.877 0.0753 8.1302 11.864-16.997 5.2422-4.2882 17.475 9.0165 4.1494 13.108 17.083-4e-3 9.4063-5.6096 7.1225-4.9497-14.061-7.1468 2.905-2.7198-2.4824 1.5338-14.511-3.9513-4.8109-16.093 12.913 13.833-13.891-3.8225-14.846-17.053-5.2988-31.333-17.257-49.253-21.316-17.017-7.7346-34.482-0.39096-43.458 15.407-10.12 22.91-23.105-16.914-41.603-7.2943-15.062-4.8538-26.014 14.224-36.178 13.857-17.878-10.359-21.719 10.726-19.884 21.684z" fill="param(fill)" fill-opacity="param(fill-opacity)" stroke="param(outline)" stroke-opacity="param(outline-opacity)" stroke-width="param(outline-width) 0.2"/>
</svg>
