<svg version="1.1" width="512" height="512" viewBox="0 0 512 512" xmlns="http://www.w3.org/2000/svg">
 <path d="m180.73 495.31c-21.201-3.8153-44.403-8.482-60.015-24.516 12.838 3.5236 27.811 13.281 42.819 15.408 30.829 5.3552 63.089 0.69005 90.639-14.319-7.5274-1.7271-30.638 9.2408-44.59 6.6059-22.878 1.1349-46.659-2.2247-65.47-16.322-13.141-11.105 15.331 5.6858 22.038 6.9432 31.614 7.3025 66.449 3.1376 94.187-14.335 42.447-27.931 69.311-77.15 70.321-127.95 1.9868-27.581-0.74938-55.738-12.938-80.911-19.351-26.68-15.871-64.478-39.592-88.587-11.506 11.325-13.041 25.95 2.5906 33.615 9.3882 0.96016 19.308 22.289 4.0577 14.31-18.566-12.578-34.337-29.312-54.377-39.533-14.927-5.8012-37.22-13.7-40.244-30.701 12.683 5.6654 26.815 24.224 40.838 8.8716-8.5984-8.1247-21.107-24.019-27.404-37.639-9.4032-13.347-17.581-31.261-35.415-33.975 0.96933-7.9197 17.835-9.7299 17.383-22.587 8.0301-13.488 22.92-37.557 40.795-30.53 5.3415 14.503 4.5755 35.369 19.436 45.568 26.612 18.152 54.478 37.86 68.594 67.904-6.5252 1.9626-10.652 6.6755-17.758 8.0588 9.6008 40.154 36.919 74.061 44.902 114.77-2.4471 18.547 4.2937 37.698 3.1672 56.88 3.4812 56.61-16.182 117.63-62.782 152.59-29.39 19.853-65.103 34.505-101.18 30.382zm83.358-323.76c10.185-9.6618 11.307-22.621-6.0578-20.818-7.0452-0.95673-14.376-4.0086-21.268-3.7953-21.279 9.3114 14.859 19.426 22.105 27.148 2.0385 2.9181 3.8628-2.3072 5.2207-2.5343z" fill="param(fill)" fill-opacity="param(fill-opacity)" stroke="param(outline)" stroke-opacity="param(outline-opacity)" stroke-width="param(outline-width) 0.2"/>
</svg>
