<svg version="1.1" width="512" height="512" viewBox="0 0 512 512" xmlns="http://www.w3.org/2000/svg">
 <path d="m147.84 461.4c0.0122-0.42293 1.7056-2.0143 3.763-3.5365 4.3487-3.2173 4.6817-4.288 1.3334-4.288-3.0129 0-2.2406-1.4599 1.2226-2.3111 1.4278-0.35094 4.1195-2.1147 5.9817-3.9194l3.3858-3.2814 6.4092 1.1161c8.4807 1.4768 20.609 0.67535 26.024-1.7198 5.2348-2.3156 5.9552-3.3532 16.489-23.751 11.539-22.343 17.214-35.597 17.214-40.199 0-4.3659-4.1868-13.195-8.6924-18.33l-3.0668-3.4954-16.933-0.79115c-9.3133-0.43513-17.357-0.62717-17.874-0.42674-1.3199 0.51127-25.019 26.939-34.631 38.619-4.3972 5.343-11.207 14.3-15.133 19.904-6.1847 8.828-7.0615 10.573-6.5637 13.062 0.67476 3.3738 3.0847 4.3801 12.819 5.3528 3.4925 0.34897 6.35 1.0156 6.35 1.4815 0 0.46584 2.0108 2.8094 4.4685 5.2079 2.4577 2.3985 3.6218 4.0248 2.587 3.614-1.0348-0.41083-6.5382-2.0457-12.23-3.6331-10.236-2.8549-10.598-2.8866-33.453-2.9242l-23.104-0.0381-6.9837 3.4649c-6.7154 3.3318-9.0713 3.8598-6.7168 1.5053 1.8242-1.8242 1.3538-3.7542-0.76827-3.1522-6.4237 1.8224-6.308 1.897-2.8222-1.8221 1.8109-1.9322 5.8142-5.6337 8.8962-8.2256l5.6036-4.7126 6.626 0.60386c3.6443 0.33212 8.825 0.86154 11.513 1.1765 2.6876 0.31494 6.9209 0.27401 9.4074-0.091 4.2581-0.62502 5.2352-1.3835 16.811-13.05 12.553-12.651 21.703-23.8 31.654-38.57l5.5988-8.3099-1.5338-6.894c-1.0251-4.6076-2.0646-7.1051-3.1344-7.5306-0.88034-0.35011-4.564-1.7079-8.1858-3.0172-9.2627-3.3487-40.444-19.188-48.875-24.826-14.191-9.4918-32.954-30.876-39.951-45.534-4.4797-9.3846-9.0485-23.132-10.895-32.781-1.6726-8.742-1.7328-24.957-0.11232-30.248 1.0883-3.5538 0.9876-4.0244-1.8119-8.4667-4.2997-6.8228-7.794-16.228-9.0639-24.397l-1.1093-7.1353-9.4726-4.5504c-5.2099-2.5027-10.263-5.4444-11.229-6.5372-1.7289-1.9556-1.7098-2.0458 1.2152-5.7389 2.8759-3.6311 11.464-10.617 17.179-13.974 1.6842-0.98936 3.5516-3.4091 4.7178-6.1132 1.3189-3.0583 3.3426-5.5125 6.3901-7.7496 10.441-7.6642 33.514-34.724 53.997-63.328 4.5619-6.3704 8.477-11.4 8.7001-11.177 0.49393 0.49393-2.2371 13.992-3.5064 17.331-1.4507 3.8157-0.41936 3.4419 2.4946-0.90409 1.4807-2.2084 2.8136-4.1916 2.962-4.4072 1.0219-1.4844 0.92627 1.332-0.20629 6.0755-1.7661 7.397-1.7023 7.9147 0.63314 5.135l1.9759-2.3519-0.66582 5.6444c-0.3662 3.1044-0.88035 6.7028-1.1425 7.9963-0.38256 1.8873-0.27069 2.0731 0.56632 0.94074 0.78336-1.0598 0.97798 0.85698 0.78166 7.698-0.24 8.3623-0.136 8.9953 1.2686 7.7205 1.3534-1.2282 1.5978-1.2121 2.1167 0.14007 0.32264 0.84077 0.58661 2.9757 0.58661 4.7443s0.3175 3.2251 0.70555 3.2366c2.3686 0.0702 5.2011 3.8454 5.9689 7.9553 0.65525 3.5074 1.8748 5.6275 5.3697 9.3346 5.3645 5.6903 9.7004 12.039 18.895 27.666 7.1838 12.209 9.7805 18.142 8.9209 20.382-0.3546 0.92411 0.33008 1.5309 2.1526 1.9077 10.505 2.1718 16.471 5.0098 33.247 15.815 6.4676 4.1658 19.591 11.64 29.163 16.608 25.521 13.248 55.272 31.314 65.263 39.63 4.7217 3.9303 16.19 14.906 25.485 24.391 18.591 18.971 19.608 19.644 32.489 21.494 3.8806 0.55728 14.676 1.4641 23.989 2.0152 22.999 1.3608 45.247 3.4081 61.619 5.6701 19.406 2.6812 20.336 2.9647 24.082 7.3411 3.1754 3.7097 13.214 9.554 16.411 9.554 2.6121 0 16.081 7.1177 20.29 10.723 4.1913 3.5895 6.5785 8.0745 5.623 10.564-0.5301 1.3814-1.8969 1.501-11.631 1.0178-14.119-0.7009-30.574-3.775-86.29-16.12-24.836-5.5028-46.077-10.204-47.204-10.448-4.2716-0.92283-5.8585 3.2612-3.5254 9.2947 0.63462 1.6411 0.25321 1.6942-6.7545 0.94074-9.6624-1.039-27.774-0.74624-36.372 0.58781-4.9094 0.76171-7.4455 1.6772-9.1493 3.3028-1.6056 1.5319-4.007 2.4634-7.5313 2.9214-3.8707 0.50301-6.076 1.4405-8.7543 3.7216-4.3754 3.7264-25.539 13.064-32.638 14.401-2.8457 0.53569-7.4308 1.2536-10.189 1.5953l-5.0149 0.6213 3.2076 2.9587c9.159 8.4483 8.806 10.745-6.3814 41.529-12.374 25.082-14.557 30.49-14.534 36.016 0.0251 6.0861 0.5066 6.321 12.885 6.284 6.099-0.0182 12.622-0.38229 14.496-0.8091 3.3378-0.76017 3.5058-0.65769 8.2315 5.0208 5.1984 6.2465 6.5194 9.5568 2.139 5.3601-2.3841-2.2841-3.307-2.5467-8.2315-2.3421-3.0505 0.12672-8.298-0.27331-11.661-0.88896-7.552-1.3825-28.459-1.4597-36.689-0.13558-5.2201 0.83985-41.448 9.3193-46.331 10.844-0.90547 0.28275-1.6363 0.16807-1.6241-0.25485zm-81.244-261.12c-0.26097-0.64676-0.4745-0.11759-0.4745 1.1759 0 1.2935 0.21352 1.8227 0.4745 1.1759 0.26097-0.64676 0.26097-1.7051 0-2.3518zm84.686-31.926c-0.3003-0.75045-0.52322-0.52755-0.56835 0.56837-0.0408 0.99169 0.18148 1.5473 0.49409 1.2347 0.3126-0.31261 0.34602-1.124 0.0742-1.8031zm-3.4648-4.3475c0-1.4533-0.60031-3.4634-1.334-4.4668-1.175-1.6069-1.2122-1.2918-0.31187 2.6424 1.1658 5.0948 1.6459 5.6269 1.6459 1.8244z" fill="param(fill)" fill-opacity="param(fill-opacity)" stroke="param(outline)" stroke-opacity="param(outline-opacity)" stroke-width="param(outline-width) 0.2"/>
</svg>
