<svg version="1.1" width="512" height="512" viewBox="0 0 512 512" xmlns="http://www.w3.org/2000/svg">
  <path d="m409.99 475.47c-5.2637-3.6982-15.722-28.475-12.856-9.9712-0.49402 27.126-16.293-30.435-18.958-4.5997-12.434-19.39-14.783-43.26-22.704-64.443-10.907-7.0415-26.465-15.996-37.812-17.461-6.1377 13.354-7.9096 36.375-10.635 43.318-36.415 0.64556-72.805 5.4579-109.21 4.1749 14.696-4.9896 34.155-1.4754 50.655-4.829-3.0499-0.29452-14.988-3.1751-1.0385-4.4532 20.904 4.2656 27.66-11.639 27.253-29.401 3.5028-9.125-6.9628-15.029-9.5154-23.003-7.5476-11.604-12.557-33.272-21.436-37.255-7.2878 4.9771 0.6243-18.786-10.645-3.3772-0.28256-9.3302-12.185-9.4329-21.307-16.718-12.608-6.5214-25.322-18.219-35.418-30.647-5.7778-9.916-13.651 13.957-16.712 1.2256-11.637 10.642-18.454 14.064-32.086 18.333-11.685 7.9482-16.195 6.4711-28.627 11.746-6.9482 3.6369-18.87 12.022-7.8244-1.338-8.1805 4.2402-28.054 19.408-31.133 17.681 7.6109-7.8506 33.952-26.631 26.86-31.925-10.607 8.4322-41.467 32.195-43.568 25.947 15.339-11.188 31.188-22.995 41.56-39.155-20.287 6.7886-35.599 25.036-57.155 29.763 17.164-10.786 35.425-22.208 47.376-38.974-14.466-0.0554-36.035 21.973-46.226 19.628 32.391-19.842 58.487-48.988 80.046-79.917 11.841-25.221 29.305-47.223 41.243-72.446 8.4794-16.243 30.052-41.805 47.635-20.552 4.8077 1.5569 17.376 22.917 16.711 11.695-7.4545-21.504-32.925-31.399-50.758-43.887-16.896-9.8721-39.626-13.607-55.307-20.793 14.257-15.077 36.969 4.2663 55.387-0.82132 22.128-2.0779 46.466-5.0241 65.7 8.8474 21.583 5.6187 31.638 23.498 32.366 44.726-2.5604 12.099-9.4574 24.346-14.29 42.82-10.935 27.788 27.783 28.672 44.798 20.95 18.25-6.47 47.329-13.591 44.091-38.607 0.61207-21.939-2.7053-43.889-7.7395-64.974 13.012-18.557 34.162 12.556 48.743 17.929 16.155 11.706 14.415 36.554 28.477 51.896 15.826 28.049 33.243 57.643 35.213 90.47-0.78696 20.52-3.1687 41.896-9.3668 60.621-7.4048 17.238-25.33-13.268-30.165 8.5762-13.778 3.9655-29.809 16.113-40.212-2.037-6.4922-7.9537-19.945-16.081-9.5554-0.0977 15.158 29.665 34.542 56.997 53.759 84.063 23.968 21.786 52.037 39.223 73.789 63.394-2.7966 7.0368 4.3682 20.425-9.1429 10.271 1.3851 16.913-20.479-8.2192-22.586-5.8326 5.3111 8.8986 11.385 27.6-3.2444 12.241-11.791-12.002-6.3461-2.4531-7.3306 6.8841-7.4986-1.2412-13.204-15.303-14.339-0.51978-11.264-7.2479-6.1119-0.88642-12.758 0.8355zm-116.62-66.02c6.0105-10.624 20.969-39.564 3.4534-41.396-4.4671 13.636-14.012 33.641-9.7756 45.117l3.1752-0.99651z" fill="param(fill)" fill-opacity="param(fill-opacity)" stroke="param(outline)" stroke-opacity="param(outline-opacity)" stroke-width="param(outline-width) 0.2"/>
</svg>
