<svg version="1.1" width="512" height="512" viewBox="0 0 512 512" xmlns="http://www.w3.org/2000/svg">
 <path d="m274.22 485.77c-4.2298-22.096-29.847 2.3529-44.296 0.119-15.912 4.7045 16.689-21.249-6.1077-19.269-8.4604-0.65492-29.428 17.541-29.263 6.6098 17.593-15.739 42.898-20.834 59.4-38.081 8.2714-13.528 12.315-29.01 17.391-43.905-17.492-14.033-40.647-22.959-50.752-44.335-12.564-21.936-22.624-45.497-31.031-69.219-0.2193-21.5-2.9506-42.81-5.1798-64.139 1.8204-18.638 15.352-33.673 22.811-50.399 10.723-18.74 23.178-42.276 11.074-63.371-12.202-12.154-28.558-20.084-42.829-30.146-11.991-8.5814-38.273-1.2605-43.631-11.516 13.213-11.214 34.452 2.3228 50.213-6.4133 13.176-3.9242 13.749-21.932 31.466-18.82 9.2517 1.7104 21.196-16.335 19.884-5.5102 12.829-7.5556-10.976 11.699 1.1178 11.533 16.232 6.013 31.268 16.255 38.144 32.787 11.976 18.657 3.1458 39.722-2.5831 58.636-0.58747 17.632-21.133 47.739 4.3028 54.779 7.2479 16.344 21.697 28.199 31.039 43.718 7.6027 17.829 22.826 30.423 31.431 47.532 13.267 29.794 17.658 63.384 14.925 95.752-4.7902 4.4799-12.772 4.9088-12.237 15.525-5.7939 22.771-10.711 46.148-20.179 67.673-11.028-0.39695-20.019-36.463-24.022-11.714-6.0419 14.349-7.3737 32.661-19.024 44.225zm3.9775-46.68c5.6758-8.4046 20.393-30.292 8.2437-36.316-2.7809 9.0906-27.537 35.33-8.2437 36.316z" fill="param(fill)" fill-opacity="param(fill-opacity)" stroke="param(outline)" stroke-opacity="param(outline-opacity)" stroke-width="param(outline-width) 0.2"/>
</svg>
