<svg version="1.1" width="512" height="512" viewBox="0 0 512 512" xmlns="http://www.w3.org/2000/svg">
 <path d="m294.9 490.79c-12.696-16.017-33.096 2.5047-49.025-5.6263 12.321-4.1942 27.085-9.5362 22.743-27.427 1.9955-30.891 3.9892-62.338-1.6477-92.886-0.22965-17.326 4.5592-43.034-14.122-51.843-10.167-24.186-35.577-38.602-43.408-64.37-3.9864-3.3411-19.336-16.263-14.272-2.5689-7.8518 2.7049-12.094-22.302-13.078-31.879-4.5396-18.739-4.4524-38.6-9.3823-57.447-4.042-17.605-3.8043-36.722 6.6267-52.182 3.3886-11.154 27.466-29.064 15.982-36.985-22.531 7.6133-40.641 24.832-62.267 34.762-7.4741 4.0598-36.958 20.532-18.993 3.3429 20.799-20.47 45.379-37.042 65.672-57.873 4.4242-17.509 20.635-33.504 39.915-28.292 19.474 4.4952 30.406 25.998 23.323 44.431-7.1703 17.274-21.927 33.031-23.245 52.845 10.907 12.65 34.5 7.3965 47.815 19.825 17.809 9.666 36.468 18.101 52.739 30.289 21.335 6.1014 27.013 30.021 40.325 45.114 15.24 15.229 18.373 37.325 28.047 55.845 5.2402 10.069 12.791 35.025 9e-3 37.831-14.996-16.619 3.7655 16.011 2.4278 23.037 2.4954 13.676 9.5089 27.535 9.8389 41.145-7.5925 8.851 5.0654 38.381-9.0981 30.051-2.8676 10.755 1.9033 39.841-14.305 20.488-21.303-20.082-42.484-40.379-64.934-59.172-6.3563 34.859-4.6204 70.623-5.7885 105.9 3.758 6.403 17.837 5.3726 6.8558 16.527-3.0068 4.6485-14.101 10.472-18.754 7.1196zm-1.8988-11.603c7.2881-16.39 3.7013-35.741 5.4072-53.395-0.16446-18.954 2.0576-38.342-3.1865-56.813 8.6215-16.91-5.1576-37.879-19.629-40.544 3.4566 17.952 10.276 35.109 4.5976 53.578-1.1162 27.4-3.5976 55.027-1.7254 82.444 0.48859 6.0024 6.8705 20.511 14.536 14.729z" fill="param(fill)" fill-opacity="param(fill-opacity)" stroke="param(outline)" stroke-opacity="param(outline-opacity)" stroke-width="param(outline-width) 0.2"/>
</svg>
