<svg version="1.1" width="512" height="512" viewBox="0 0 512 512" xmlns="http://www.w3.org/2000/svg">
 <path d="m267.13 498.63c16.309-11.001 13.271-24.499-2.8369-22.396 31.153-6.8041 18.561-43.811 19.626-66.659-3.8759-32.744-0.86348-66.766-11.679-98.304 2.3499-27.663-6.9984-54.737-16.432-80.299-5.2891-11.101-20.028-32.232-17.721-7.4405-1.112 24.655 2.4616 49.654 2.2481 74.056-17.845 43.245-26.105 89.772-34.828 135.52-3.0552 15.623 11.229 31.776-10.441 32.052-4.0033 10.751-19.776 11.491-6.327-0.67227-1.628-6.7192-28.611-5.765-6.5159-11.256 16.688-15.278 16.707-42.855 22.951-64.128 5.3872-30.303 14.682-60.405 13.723-91.35 10.567-23.211 8.1094-50.266 8.0034-75.223-2.4335-25.082-9.8578-52.682-40.715-51.949-24.636 5.6531-27.674 35.216-34.197 55.42-6.9719 28.946-29.788 50.564-56.112 62.835-23.099 8.8271-28.999 33.647-32.847 55.32-8.5881 33.757-2.7982 68.731 2.1758 102.52-12.15 0.48678-15.097-35.744-22.031-49.614-2.5809-24.999-30.425-38.148-27.454-64.474 9.0978-24.919 29.076-45.967 51.655-59.491 19.983-8.8879 44.416-21.448 44.887-46.601 0.38095-29.714-12.721-58.079-10.142-88.089-2.8401-25.67 6.2101-52.605 26.413-69.254 44.631-32.894 99.782-49.113 154.46-54.443 25.667-3.568 49.63 6.5187 74.772 5.8813 23.084-8.5423 45.627-2.8205 69.014-0.51949 19.858 7.7659 36.553 24.773 51.296 40.457 11.981 18.232 21.463 42.312 17.634 63.93-8.9961 8.7985-20.121-26.147-35.747-26.204-26.837-17.928-9.1477 23.743-21.428 24.768-3.9088 17.356-28.846-31.794-23.213 0.58024 0.31064 11.829-13.631 27.812-18.285 12.755-16.325-5.6523-39.081-12.535-58.852-0.96126-13.744 17.151-36.787 15.217-56.284 24.045-10.41 20.836-15.137 43.793-13.44 67.153 5.0569 25.628 15.733 49.766 24.235 74.28-3.7349 50.018-0.85636 100.55 3.7542 150.49 5.9909 11.416 14.298 16.23 2.3352 22.739-3.0237 12.916-19.605 21.751-31.66 24.52z" fill="param(fill)" fill-opacity="param(fill-opacity)" stroke="param(outline)" stroke-opacity="param(outline-opacity)" stroke-width="param(outline-width) 0.2"/>
</svg>
