<svg version="1.1" width="512" height="512" viewBox="0 0 512 512" xmlns="http://www.w3.org/2000/svg">
 <path d="m256.92 501.73c-13.161-8.0148 22.507-21.557 5.8514-21.098-9.8875-2.8801-26.961 3.9492-31.518-4.8829 3.02-12.614 44.977-3.1279 18.073-13.705-2.216-8.9538 21.548-0.60523 26.122 0.36379 12.604-20.078 7.9315-45.498 9.6365-68.072-1.239-31.313 1.3454-63.763-10.072-93.599-6.0105-16.442-14.364-1.6418-10.057 7.7264 1.8065 16.364 3.3091 32.8 2.9669 49.279-14.128 15.513-34.129-4.3207-50.873-6.3837-10.031-1.9866-19.698-9.2725-30.061-6.45-9.8293 4.9118-3.0952-10.971-11.637 0.74029 1.2635 9.4697-9.8417 26.807-9.082 7.5907 2.0312-25.276-28.65-23.57-44.05-27.151 15.291-8.2519 37.253-8.1432 54.866-5.4789 24.684 8.379 47.166 23.565 73.011 28.226 9.2461-13.918 1.6694-40.448-2.3535-57.477-5.1708-22.272-23.833-32.266-39.575-47.292-22.366-21.219-47.585-45.208-47.336-78.603 0.75824-39.975 37.129-69.757 37.166-109.91-11.296-15.386-33.769-1.6841-48.67 1.7207-18.493 5.0923-39.955 14.517-56.86 16.467 28.255-20.688 58.547-38.71 85.448-61.201 19.06-11.632 49.079 1.8075 47.313 25.84 3.0331 33.965-15.031 64.588-19.266 97.41 6.7816 25.811 43.685 12.573 63.229 21.156 48.328 9.1313 94.198 34.235 124.37 73.586 16.995 13.225 31.268 29.542 38.052 50.395 1.88 16.274 10.686 39.57 0.5752 52.385-19.057-7.1854-35.687-21.829-56.208-25.531-13.745-9.4028-24.643-15.511-40.18-19.845-12.833-2.7584-27.202 2.6615-39.878-2.9791-3.266 19.472 0.11516 39.374 3.1678 58.992 5.4027 27.376-0.9212 55.353-1.9564 82.919-6.5398 16.59 4.129 33.747-1.072 47.327-7.7127-13.074-4.5384 17.072-18.251 15.53-8.9076 2.5042-16.296 14.589-20.888 12.009z" fill="param(fill)" fill-opacity="param(fill-opacity)" stroke="param(outline)" stroke-opacity="param(outline-opacity)" stroke-width="param(outline-width) 0.2"/>
</svg>
