<svg version="1.1" width="512" height="512" viewBox="0 0 512 512" xmlns="http://www.w3.org/2000/svg">
 <path d="m439.7 497.4c-12.84-23.66-29.578 7.4198-49.933-0.51712-26.879-1.0572-33.896-31.15-47.84-48.893-11.099-14.598-27.619-31.037-36.732-43.343-3.88 9.698 5.4706 29.485-12.813 25.408-15.31-0.76375-31.694 2.3154-46.018-3.0532 2.6767-13.615 16.179-13.394 27.086-15.006 15.148-7.4896 31.213-28.763 5.341-33.417-16.907-9.8233-37.867-19.197-47.884 4.1938-14.006 8.7027-27.483 33.111-5.5575 38.461-0.88845 18.33-35.624 2.4784-49.556 8.6614-22.326 2.691-7.7367-11.297 5.1248-10.099 10.727-14.182 37.609-30.388 31.309-51.282-13.148-25.322-33.118-46.226-48.03-70.494-17.149-21.601-19.397-50.455-30.084-75.223-7.6628-27.507-18.721-58.052-5.2408-85.681 8.8051-20.682 8.9128-49.143-14.561-59.048-15.306-6.7439-43.425-1.7841-50.725-15.898 15.58-17.888 42.506-14.258 60.261-27.41 16.331-14.968 41.046-20.535 62.824-19.717 20.835 4.2366 35.685 21.102 49.272 36.223 17.451 13.992 32.112 30.654 45.297 48.314 23.251 7.4238 44.876 20.807 56.902 42.986 16.548 27.455 30.17 57.569 34.647 89.454 13.475 44.592 20.029 91.19 38.059 134.38 7.3807 29.262 27.801 52.517 37.093 81.023-17.218 5.796 10.826 32.397 4.2975 49.004-2.9808 4.1688-8.707 2.7577-12.54 0.97628z" fill="param(fill)" fill-opacity="param(fill-opacity)" stroke="param(outline)" stroke-opacity="param(outline-opacity)" stroke-width="param(outline-width) 0.2"/>
</svg>
