<svg version="1.1" width="512" height="512" viewBox="0 0 512 512" xmlns="http://www.w3.org/2000/svg">
 <path d="m213.47 458.1c1.431-16.434 21.784-35.032 36.079-30.108-11.344 22.105 19.29-1.0416 3.7048-11.956-17.694-8.5741 13.369-18.669 17.127-28.301 5.9907-6.4789 14.063-11.843 18.916-18.936 0.04-25.547 29.258-14.856 40.886-3.8098 21.584 7.3895 39.373 23.907 56.533 38.622 17.326 15.619 33.593 33.741 51.232 48.142 2.982-5.3597 21.058 15.277 17.071-1.7154 7.1138 3.0245 14.334 5.2036 16.285 0.19849 9.8958 8.8195 20.181 1.8494 7.7724-6.6965-12.067-13.366-24.695-26.212-36.831-39.514 11.606 6.0078 24.751 14.966 35.87 17.22-3.4414-6.8403 5.256-5.6702-4.735-13.655 27.346 5.7482-11.06-19.6-13.329-30.114-24.842-23.191-52.694-44.618-70.742-73.839-5.2129-13.246-2.0621-15.319 5.4202-4.725 7.7016 2.7495-10.385-25.27-15.56-32.407-29.602-36.507-70.173-61.324-103.09-94.382-19.063-17.654-38.478-35.745-62.918-45.703-20.347-12.978-25.817-39.225-36.834-59.187-18.901-21.154-51.614-21.066-76.1-10.603-21.702 6.2274-46.522 0.97357-66.309 13.005-18.389 18.136 25.532 19.138 36.717 27.567 20.222 6.7033 35.619 31.562 25.198 52.192-9.2972 26.571-8.1513 57.354 9.2736 80.461 10.608 19.763 23.142 38.454 35.567 57.169 13.819 20.402 36.227 32.44 51.351 51.381 1.635 17.978 41.544 14.935 20.172 33.407-14.318 16.123-32.458 28.463-45.35 45.79-11.204 3.1624-45.861 12.201-34.539 22.102 5.95-3.9581 30.26-13.765 33.329-4.8798-2.1808 9.3167 9.0565 22.418 3.8921 4.9463 2.8771-6.1444 30.618-19.124 15.971-2.5521-3.6368 11.238 1.0672 19.149 6.2224 4.6532 7.7645-6.6598 32.303-16.103 16.813 2.8232-2.891 3.7007 4.2 30.183 4.9327 13.404zm7.7455-45.555c2.5769-8.927 10.285 2.4225 0 0zm-28.071-0.15302c9.8417-18.921 29.106-31.626 44.883-45.703 13.732-4.3853 22.178 16.158 9.7198 22.979-10.476 19.222-31.147 9.4861-47.53 22.978-1.7046 0.0735-5.4762 1.9345-7.073-0.2547z" fill="param(fill)" fill-opacity="param(fill-opacity)" stroke="param(outline)" stroke-opacity="param(outline-opacity)" stroke-width="param(outline-width) 0.2"/>
</svg>
