<svg version="1.1" width="512" height="512" viewBox="0 0 512 512" xmlns="http://www.w3.org/2000/svg">
 <path d="m207.72 411.94c-2.7208-4.5389-1.8119 4.2251 0 0zm11.361-1.1145c-11.141-3.2559-12.55-11.877-6.7724-20.446 5.7-17.202 18.832-33.025 32.528-43.198 14.35-5.5046 35.525-7.6438 40.458-21.672 10.129-4.3539-1.4303-9.4791 4.5193-8.7551 5.4037-3.3613 34.806-13.065 30.949-20.232-3.7109-1.8194 15.054-11.589 10.371-14.789-1.1042-4.6242-7.5186-7.778 6.5974-11.848 20.679-3.4409 41.987-2.9564 62.494-6.8834-2.5141-10.224-35.484-9.4769-47.684-19.66-0.45528-16.28 23.523-25.732 27.826-42.525 4.9098-17.903 15.945-30.233 31.496-40.856 23.729-20.057 50.21-37.49 70.839-60.811 3.5986-11.005-11.867-8.1344-7.6151-18.352-14.695-3.965-28.322 11.388-40.566 19.225-40.798 28.882-75.291 67.844-122 87.536-34.392 8.8281-69.619-2.2554-103.8-7.2902-19.198-4.4234-41.835-3.8693-55.179-20.826-14.848-11.867-30.134-25.848-49.795-26.972-16.242-1.8882-31.699 16.165-49.214 10.518-9.0401-2.55-43.94 3.6862-17.961 5.9865 11.228-0.66984 49.507 10.975 29.639 23.536-14.095 3.2609-32.35 3.7199-42.793 13.04 19.975-1.2251 44.481-6.6598 49.679 20.364 5.0383 16.988 1.9048 35.121 2.4938 52.647 9.5397 13.214 16.408 22.597 24.832 37.066-7.5012-17.458 12.495 10.776 18.218 15.898 9.0927 11.587 19.744 23.551 31.372 31.189-7.5329-7.1989-1.5674-8.8599 3.8644-2.7681 1.3988-1.8815 23.603 10.551 33.982 8.8171 9.6387 0.36268 22.654 5.1603 20.564 1.2379 24.422 4.8831-5.8521 26.485-12.596 36.559-6.7392 15.541-26.423 15.643-35.872 16.287 5.7212 12.96 27.146 4.7836 38.667 6.2485 9.7154 5.2663-2.2676-10.121 11.361-0.86493 1.89-1.6565 8.2079 6.377 9.0889 2.5907z" fill="param(fill)" fill-opacity="param(fill-opacity)" stroke="param(outline)" stroke-opacity="param(outline-opacity)" stroke-width="param(outline-width) 0.2"/>
</svg>
