<svg version="1.1" width="512" height="512" viewBox="0 0 512 512" xmlns="http://www.w3.org/2000/svg">
 <path d="m386.21 489.95c6.8318-22.37 9.3638-45.357 2.8659-68.045-4.5703-30.19-6.9647-60.685-10.6-90.93-17.134-14.496-24.961-35.024-36.695-52.58 35.039-3.1339 70.328-1.0984 105.46-0.41621 16.553 8.3127 36.123 15.786 54.284 9.1963 1.0023-22.664-26.572-33.76-41.313-47.418-19.223-13.93-33.476-33.487-51.415-48.967-18.441-18.115-42.398-29.294-63.444-43.987-22.187-10.933-44.638-26.941-70.59-23.679-20.484-7.7206-47.102 23.824-60.444 3.4191-6.2648-24.199 16.401-48.167 3.0871-72.241-8.4592-17.612-30.038-30.095-49.678-22.569-15.652 10.208-23.594 28.965-46.584 23.485-39.803 3.0255-87.583 12.241-107.97 50.966 1.9296 17.482 20.551-27.404 36.542-25.506 31.728-14.314 68.597-17.359 102.25-9.0182 27.425 8.5526 12.342 39.684 7.4882 58.669-9.6975 30.246-8.887 66.587 11.771 91.979 15.034 28.162 44.65 45.854 75.962 49.543 27.098-3.3085 33.997 20.446 42.944 40.842 13.029 24.397 5.959 52.743 2.6597 78.653-6.8724 18.781-2.8895 46.295-17.714 59.329-6.2886 0.27442-36.035 0.78011-26.959 8.9355 36.539-4.0269-41.28 11.27-7.9305 14.544 10.194 0.90901 42.722-17.092 23.799 1.0831-10.162 30.495 19.413-15.686 28.322-21.057-0.63801-36.498 11.414-72.703 18.167-108.63-1.445-18.112-14.913-41.982-9.2944-56.982-8.1009-25.552 26.419 3.2758 35.387 10.05 18.153 14.372 34.801 33.754 35.418 58.052 5.6378 28.533 9.0519 57.434 12.262 86.323-7.7464 12.366-36.898 9.2624-35.629 24.289 8.9358 0.19832 29.973-9.35 10.85 3.0505-12.853 7.3337-7.3585 20.061 3.7192 5.7456 9.5303-8.2491 28.086-22.902 19.188 0.60199-0.39072 2.625 0.11067 18.311 3.8377 13.273z" fill="param(fill)" fill-opacity="param(fill-opacity)" stroke="param(outline)" stroke-opacity="param(outline-opacity)" stroke-width="param(outline-width) 0.2"/>
</svg>
