<svg version="1.1" width="512" height="512" viewBox="0 0 512 512" xmlns="http://www.w3.org/2000/svg">
 <path d="m206.8 476.54c19.888-3.8745 38.227-15.349 58.951-13.862 9.1549 1.8794 32.957-4.1547 10.261-5.7311-22.17 7.87-39.333-26.295-13.607-30.451 14.118-4.9728 23.264-19.261 36.223-24.979 52.19-6.5309 105.45-8.3945 156.23-22.999 15.877-2.7378 58.206-24.836 20.878-31.233-9.1044-5.8574-56.954-9.2638-29.134-19.78 30.416-15.47-21.402-20.23-33.877-20.399-10.788 1.8457-27.91-4.9381-9.4756-7.6354 14.195-2.3525 17.694-9.3537 0.69513-10.337-20.789-8.118-43.443-14.563-61.745-27.857-25.375-20.671-52.713-39.291-82.842-52.226-28.2-22.287-55.435-45.948-86.762-63.928-28.064-20.462-55.964-46.026-64.828-80.933-4.615-23.585-26.495-40.843-50.535-38.599-25.065-2.6704-45.654 18.877-41.582 43.478 7.0521 10.055-1.9099 28.718 11.153 28.926 1.8212 33.195 16.386 63.703 26.347 94.726-1.1351 37.682-3.9073 77.476 15.53 111.55 5.2486 25.272 20.751 46.021 44.754 56.22 18.614 10.492 37.918 19.678 57.074 29.122-2.2151 12.003 0.28111 24.779 14.708 25.209 2.8788 17.017-42.995 0.91538-14.592 11.209 15.141 6.7002-21.311 2.8674-27.649 1.1807-12.484-4.0973-22.895 9.3646-3.8536 5.8996 7.566 1.3717 40.236-4.2669 32.94 4.787-7.1387 1.211-45.818 12.134-19.674 10.407 21.886-4.6143 42.92-13.255 65.725-11.924 24.429-6.2847-37.382 0.77325-24.186-19.493 14.379 12.021 26.948-10.113 37.453 5.3842 13.337 1.0889 14.755 8.4214 8.2288 19.318-1.8114 10.261-41.149-3.2063-17.649 7.1438 23.781 7.1697-18.056 5.6081-26.192 2.3088-14.322-6.3648-27.739 11.738-5.772 7.2114 10.954 2.1799 36.439-6.0241 38.991 4.4996-7.9445 6.5944-37.432 5.2262-33.909 14.926 3.8918 0.96476 7.8801-0.6153 11.723-1.141z" fill="param(fill)" fill-opacity="param(fill-opacity)" stroke="param(outline)" stroke-opacity="param(outline-opacity)" stroke-width="param(outline-width) 0.2"/>
</svg>
