<svg version="1.1" width="512" height="512" viewBox="0 0 512 512" xmlns="http://www.w3.org/2000/svg">
 <path d="m369.55 432.67c12.958-6.7495-12.311-14.225-11.325-24.557-18.932-9.3917 6.8183-20.145 19.334-18.255 12.236-0.76337 35.18-20.618 23.105-31.266-27.782-19.249-54.208-41.668-72.301-70.594 21.883-20.578 40.372-44.763 51.755-72.763 6.0266-13.015 11.116-26.426 16.058-39.881 36.489-4.5496 67.641-29.49 83.849-61.958 3.8824-11.594 22.751-36.443 13.833-41.637-50.025 16.16-103.65 7.8186-154.55 18.406-31.755 6.9139-52.619 35.883-60.345 65.922-9.1185 24.489-11.086 58.068-38.961 69.364-26.914 8.5545-45.595-19.275-69.949-23.573-19.674-5.4238-30.41 16.476-35.935 25.298-17.095-11.018-41.649-25.322-60.654-10.299-28.43 21.056-50.557 51.987-58.532 86.652-6.1127 26.246 27.223 18.197 38.488 9.347 10.324 13.492 32.659-10.967 32.191-5.2631-9.5087 23.123 14.452 5.757 20.674-3.7407-8.3582 17.701 17.75 22.907 32.705 18.395 25.239-2.9634 50.512-5.9566 75.962-6.1143 20.872 17.099 25.061 49.811 52.641 59.303 16.984 9.2438 42.03 3.513 53.344 20.865 13.406 4.6404-6.2625 9.0261 6.2783 18.126 2.1583 14.681 11.163 21.145 24.147 14.862-0.39663 9.7274 13.487 8.5211 18.184 3.3608zm-29.859-26.831c-1.3927-10.971 14.441 6.1883 0 0zm-7.9633-6.2689c-1.1064-11.329 11.792 6.102 0 0z" fill="param(fill)" fill-opacity="param(fill-opacity)" stroke="param(outline)" stroke-opacity="param(outline-opacity)" stroke-width="param(outline-width) 0.2"/>
</svg>
