<svg version="1.1" width="512" height="512" viewBox="0 0 512 512" xmlns="http://www.w3.org/2000/svg">
 <path d="m403.06 497.7c17.808-11.486 39.609-17.016 47.245-37.967 15.784-9.048 3.764-28.065 14.159-40.836-4.822-11.97-8.6218-18.14 0.26994-29.076-1.6026-25.549-38.027-19.528-56.974-22.507-31.264-0.92465-62.54-0.0143-93.809 0.20372-10.158-15.898-21.509-31.144-30.13-47.938 16.173-11.141 30.333-25.084 42.793-40.278 20.791-14.094 30.767-38.894 52.272-52.879 5.7688-18.843 17.419-31.31 31.2-46.015 0.52861-23.638 27.667-36.279 25.263-61.08 11.056-13.011 17.234-28.743 16.938-45.162 11.388-13.974 28.464-27.533 27.316-47.102-10.704-20.018-35.207 14.753-49.496 19.865-47.492 33.399-104.5 50.878-150.62 86.308-25.924 25.009-36.212 63.209-66.493 83.888-16.582 15.006-20.121-4.5798-26.007-16.403-12.279-12.085-15.725-30.348-29.471-41.151-9.7811-21.022-28.541-35.307-37.821-57.792-12.259-5.2588-18.315-10.564-25.193-22.689-22.849-5.0219-8.9041 34.358-10.113 48.583-0.46783 19.508 17.921 51.04-13.749 48.843-24.884 9.4707-28.484 38.119-37.094 59.86-11.415 19.602 9.0107 6.666 18.432 5.4704 28.931-9.8262 24.777 29.87 32.473 46.579 8.8985 30.023 24.983 64.659 58.387 72.711 49.696 17.15 101.35 29.893 147.15 56.568 14.434 13.93 15.833 38.962 30.972 54.072 13.677 25.553 41.892 18.952 64.094 25.915 5.8512 1.4224 12.207 2.0124 18.002 0.0105z" fill="param(fill)" fill-opacity="param(fill-opacity)" stroke="param(outline)" stroke-opacity="param(outline-opacity)" stroke-width="param(outline-width) 0.2"/>
</svg>
