<svg version="1.1" width="512" height="512" viewBox="0 0 512 512" xmlns="http://www.w3.org/2000/svg">
 <path d="m362.1 499.06c-4.0914-1.1352-6.0225-1.2211-9.1948-0.40886-5.5833 1.4296-6.8673 1.306-9.2004-0.88584-1.7044-1.6012-2.4657-1.7512-4.658-0.91769-8.4073 3.1965-12.733-3.6443-25.432-40.217-0.4034-1.1618-5.5253 3.6371-9.7343 9.1204-1.2047 1.5694-2.7429 2.8535-3.4181 2.8535-0.67526 0-2.9778-2.3179-5.1168-5.151-4.6136-6.1106-5.3417-6.5534-13.287-8.0801-5.8625-1.1264-6.481-1.5223-14.654-9.3792-13.923-13.385-12.381-12.731-57.526-24.414-37.168-9.6191-48.542-14.07-60.329-23.608-7.9175-6.4063-17.463-18.609-22.46-28.714-7.0011-14.156-9.0426-25.214-10.779-58.383-1.2511-23.904-2.0876-29.127-5.4267-33.886-3.5226-5.0204-7.4839-7.5362-16.6-10.543-6.4306-2.121-9.3494-2.5246-18.686-2.5839-6.0855-0.0387-11.065-0.32719-11.065-0.64115 0-1.7643 7.1568-9.4538 12.346-13.265 5.2628-3.8651 6.3016-5.1586 8.2895-10.322 4.2799-11.116 12.999-17.256 27.88-19.633 9.9475-1.5891 12.504-0.45906 22.78 10.071l8.7254 8.9407 1.0047-2.6426c5.5562-14.614 2.3236-31.591-10.932-57.415-4.8258-9.4013-7.0026-14.68-7.0026-16.98 0-21.989 44.056-110.2 67.392-134.94 7.3677-7.8102 10.626-9.4731 14.1-7.1968 1.3214 0.86584 2.8751 2.6112 3.4525 3.8786 0.88152 1.9347 1.7123 2.3044 5.1791 2.3044 8.1427 0 10.703 6.27 7.2753 17.814-0.81211 2.7347-1.3418 5.052-1.1771 5.1497 0.16472 0.09765 2.3746 1.0093 4.9109 2.0259 5.9994 2.4046 8.415 5.6656 8.415 11.36 0 3.8503 0.42475 4.794 3.3743 7.4976 3.2266 2.9575 3.3764 3.3743 3.4212 9.5209 0.0416 5.7021 0.38724 6.8959 3.0604 10.571 2.3966 3.2952 3 5.03 2.9473 8.475-0.0363 2.3824-0.39094 5.1621-0.78785 6.1771-0.56129 1.4353-0.0807 2.2774 2.1625 3.7891 6.4418 4.3411 8.5569 10.98 6.2006 19.464-0.88682 3.1928-0.74216 3.653 2.0148 6.41 2.8001 2.8001 2.9395 3.2681 2.4334 8.1718-0.42761 4.1431-0.16628 5.8089 1.2842 8.1858 1.5838 2.5955 1.7445 4.0882 1.2332 11.459-0.62117 8.9558 0.64902 18.113 3.0324 21.861 1.5821 2.488 1.702 6.443 0.31574 10.42-1.0363 2.9727 0.0587 6.7989 1.9457 6.7989 0.4779 0 4.5946-2.9763 9.1481-6.614 12.454-9.9493 17.239-15.727 45.992-55.536 6.1724-8.5456 14.228-18.595 17.901-22.332 12.876-13.1 25.84-15.473 25.84-4.7293 0 1.9138 1.1154 3.6837 4.0021 6.3504 3.7652 3.4783 3.9981 3.9916 3.9342 8.6726-0.043 3.1584-0.81738 6.4244-2.1201 8.9428l-2.0523 3.9672 2.8991 4.5078c2.5712 3.9978 2.8381 5.0552 2.3596 9.3467-0.44172 3.9618-0.0937 5.8126 1.9199 10.211 2.1166 4.6233 2.3684 6.1144 1.8065 10.699-0.67662 5.5201-0.70395 7.1465-0.29921 17.804 0.19997 5.2656-0.14737 7.0381-2.0242 10.33-2.0327 3.5653-2.1526 4.351-1.1664 7.6426 0.60456 2.0178 1.0992 6.2089 1.0992 9.3135 0 4.5077-0.48699 6.3624-2.4175 9.2072l-2.4175 3.5624 3.889 3.9626c4.5852 4.672 5.1844 8.4592 2.0166 12.744l-2.0436 2.7641 1.9699 5.8476c2.2729 6.7469 1.9045 10.706-1.362 14.64-1.282 1.5438-2.4287 4.53-2.7956 7.2804-0.3421 2.5647-1.4659 6.4063-2.4973 8.5369s-1.8753 4.6012-1.8753 5.4901c0 2.583-2.7328 8.4143-5.1422 10.972-1.2195 1.2948-2.7677 4.2235-3.4405 6.5083-0.71165 2.4168-2.6659 5.5674-4.6726 7.5333-2.5982 2.5453-3.5768 4.3897-3.9657 7.4739-0.50043 3.9689-3.6149 8.615-5.7786 8.6204-0.55712 9.5e-4 -1.8604 1.5778-2.8963 3.5032-1.0358 1.9254-3.7158 4.7278-5.9554 6.2275-2.2396 1.4998-4.5468 3.7688-5.1271 5.0424-1.3266 2.9116-5.2822 4.9993-9.4722 4.9993-1.775 0-3.7363 0.61333-4.3584 1.3629-2.1319 2.5688-9.1573 4.5842-13.774 3.9515l-4.3159-0.59156 4.343 4.9365c15.808 17.969 30.597 38.048 36.777 49.931 3.2908 6.3286 0.47342 5.2092 31.246 12.415 27.308 6.3945 36.38 9.1054 46.258 13.822 13.59 6.4901 18.18 13.218 14.892 21.83-0.8387 2.1961-1.5249 5.1094-1.5249 6.474 0 3.94-0.83128 5.2041-5.7423 8.7324-2.8662 2.0591-4.616 4.0258-4.616 5.1878 0 2.5241-5.5506 5.9959-13.388 8.3737-3.4789 1.0555-7.703 2.6316-9.3869 3.5024-2.5404 1.3137-4.7041 1.4827-12.71 0.99291-8.3282-0.50957-9.5742-0.39789-9.1083 0.81627 0.37189 0.96915-0.50779 1.8443-2.8285 2.814-4.1704 1.7425-8.0406 1.7021-14.729-0.15363z" fill="param(fill)" fill-opacity="param(fill-opacity)" stroke="param(outline)" stroke-opacity="param(outline-opacity)" stroke-width="param(outline-width) 0.2"/>
</svg>
