<svg version="1.1" width="512" height="512" viewBox="0 0 512 512" xmlns="http://www.w3.org/2000/svg">
 <path d="m176.43 493.49c-10.765-5.0688-43.03 4.5233-40.827-9.3506 14.478-9.667 40.645-7.2856 47.434-24.335-0.47792-20.325-10.163-39.337-14.722-58.963 4.562-14.618-17.164-9.5056-21.749-21.093-12.855-15.191-29.934-26.546-41.743-41.465-10.487-17.848-15.587-39.869-8.7354-59.961 2.9499-21.999 16.723-39.311 27.201-58.063 3.3702-21.861 14.729-42.979 35.798-52.268 10.198-6.7562 26.09-2.8507 35.146-5.68-0.62912-17.248-2.1381-34.428-4.7114-51.357 0.57416-24.253 4.2815-49.912 17.725-70.624 14.368-14.273 31.732-29.028 53.583-25.69 17.922 1.6215 37.131 5.1367 49.794 19.332 15.168 15.698 17.215 40.013 35.999 53.171 13.493 16.838 42.019 17.752 50.277 38.097-10.142 10.18-32.415-0.9035-46.633-2.8297-17.154-6.6809-34.643-15.742-53.425-15.833-22.741-3.7683-34.337 15.656-27.557 35.635 1.5893 23.508 30.221 23.368 41.712 39.669 13.49 16.695 17.752 39.881 36.738 52.221 14.816 17.841 24.888 43.263 15.687 66.145-7.9848 18.182-17.634 34.249-29.29 50.264-12.136 13.008-23.124 26.867-38.192 36.394-2.0098 18.769-6.8003 41.723 4.0258 58.403 13.501 11.586 40.356 6.3397 48.092 20.792-18.94-0.45252-37.713 8.8986-55.903 5.409-13.163-6.2964-29.09-0.82884-40.813-4.4616 6.1718-11.429 20.761-17.211 18.433-30.908 13.581-9.78 16.706-50.046-7.4551-35.7-20.777-0.8393-40.426 7.0292-61.275 4.935-24.105-10.302-10.087 27.357-5.5823 39.435 9.543 17.365 24.168 27.737 41.543 37.378-2.9956 7.912-26.504 8.5148-36.873 10.742-7.8135 0.73229-15.966 2.4833-23.702 0.5625z" fill="param(fill)" fill-opacity="param(fill-opacity)" stroke="param(outline)" stroke-opacity="param(outline-opacity)" stroke-width="param(outline-width) 0.2"/>
</svg>
