<svg version="1.1" width="512" height="512" viewBox="0 0 512 512" xmlns="http://www.w3.org/2000/svg">
 <path d="m441.96 471.18c19.074-6.2176 43.568 0.59407 60.063-8.4892-22.683-17.299-54.096-21.546-74.636-42.74-12.145-17.325-47.593-27.924-39.971-53.007 12.887-11.689 12.325-33.905 19.421-50.453 3.0019-25.786 20.344-45.306 37.991-63.446 17.036-13.638 25.303-32.535 34.504-50.741 9.6138-11.579-6.3675-15.812 8.3753-26.69-10.063-10.244 20.622-27.499 10.366-42.225 12.2-15.306-0.54359-11.13-4.2146-12.981 2.0689-10.239 8.6683-22.671-4.2509-8.5407-42.753 41.051-95.034 69.887-142.13 105.29-7.0394 7.5582-16.011 17.587-9.4548 1.1506 7.1237-23.817 12.078-48.163 15.024-72.788 9.5912-18.595-4.1433-32.834-3.7824-47.649-0.37507-16.885-2.1956-33.005-8.4825-51.383-3.6787-10.478-11.417 14.88-12.238-5.245-5.581-19.404-5.8158 21.638-13.364 27.475-12.64 18.218-25.519 36.32-34.072 57.044-13.715 31.395-36.318 58.496-46.959 91.197-2.7577 22.891 2.4118 46.784-4.0138 69.113-18.708 16.038-48.964 8.2809-66.913-5.9729-20.196-14.403-40.737-36.413-67.55-33.685-15.416 2.067-27.412 16.266-43.477 14.029-9.8015 3.4241-42.083-11.428-36.924 0.41169 19.623 14.122 48.59 9.8435 63.853 30.47 16.521 22.111 59.687 6.2124 62.05 41.584 10.956 41.992 52.717 63.413 88.871 80.603 29.497 12.704 56.352 30.621 85.639 43.622 15.872-1.5392 32.434 26.566 38.469 11.943 17.094 1.4823 16.957-7.5906 34.84 1.9365 17.466 1.1494 35.746 4.3526 52.963 0.16992z" fill="param(fill)" fill-opacity="param(fill-opacity)" stroke="param(outline)" stroke-opacity="param(outline-opacity)" stroke-width="param(outline-width) 0.2"/>
</svg>
