<svg version="1.1" width="512" height="512" viewBox="0 0 512 512" xmlns="http://www.w3.org/2000/svg">
 <path d="m200.36 473.77c-17.44-0.0122 16.276-13.923-4.4241-19.971 13.788 0.17756 11.894-6.3501 13.148-11.434 16.187-1.3958 32.252 2.2284 48.203 4.6147 6.5109-13.497 18.809-38.51 10.678-48.103-12.345 2.222-32.495-7.4948-40.707 1.1139-8.4097 12.493 0.45643 27.656-15.936 31.431-14.379 11.338-40.473 7.776-59.516 8.0858-6.2146-2.8998 16.285-14.402-1.3604-19.39 9.0873-2.2071 19.632-2.2711 12.618-12.013 18.485-6.4163 49.887 18.708 55.659-8.2862-9.451-12.048-42.077-7.9858-59.48-15.954-35.523-6.0833-75.689-20.785-90.045-57.062-13.652-33.924-4.9997-72 7.2121-104.95 11.512-20.859 18.149-44.21 28.133-65.887 10.508-21.116-10.933-33.779-23.521-44.787-21.574-1.1296-44.221 0.07806-66.082-1.5539 7.1866-17.458 31.093-14.311 46.053-21.998 13.141-0.39248 14.55-14.94 24.931-20.555 19.109-13.517 45.048-23.724 68.01-14.701 20.778 11.976 37.778 36.602 25.082 60.453-9.0396 32.241-32.94 62.087-28.499 97.002 51.592 13.176 106.13 13.401 156.31 32.056 27.559 8.7435 47.326 32.263 75.474 39.348 24.466 5.1116 45.957 29.326 67.793 31.599 8.6255-2.8587 2.605-35.712 8.7674-21.129 13.643 10.902-15.631 41.607 10.103 32.456 17.343-17.367-12.889 16.802 8.7469 19.15 13.781 7.3078 20.454 25.323 2.5708 23.437 12.778 10.921 15.558 33.608-6.7386 19.677-20.639-3.9286-41.959-18.168-63.022-9.5342-41.318 12.904-84.436 18.539-127.39 22.301-5.9307 13.818-8.1062 31.376-15.226 45.79-3.4826 10.065 2.0962 16.184-11.013 19.93-13.884 11.08-38.645 8.3086-56.534 8.8655z" fill="param(fill)" fill-opacity="param(fill-opacity)" stroke="param(outline)" stroke-opacity="param(outline-opacity)" stroke-width="param(outline-width) 0.2"/>
</svg>
