<svg version="1.1" width="512" height="512" viewBox="0 0 512 512" xmlns="http://www.w3.org/2000/svg">
 <path d="m229.49 499.46c1.269-10.816 8.7231-24.71-4.2961-29.944 1.0603-8.4304-10.681 14.317-14.53-0.54809-8.9703-4.7972-32.2 27.241-25.2 2.2301 13.304-14.209-20.192-22.096 3.761-30.54 18.25-11.979 39.267-18.307 58.818-27.478 23.312-20.527-22.459-23.255-32.92-35.482-21.385-16.322-38.825-37.057-53.466-59.451-21.85-1.5372-41.807-17.731-51.557-36.899-11.713-20.866-4.5279-47.94 5.4453-68.271 9.0157-19.867 29.57-31.511 42.069-47.23-0.24451-23.435-33.615-8.8906-45.784 0.38337-16.026 9.8915-38.845 12.632-54.131-0.0457 11.492-15.046 35.114-25.552 45.743-44.356 8.6812-9.3989 0.72384-21.764 1.5847-32.779 0.29205-23.854 5.0677-48.791 18.516-68.903 15.498-6.4667 25.597-10.559 40.669-11.976 17.384-8.5903 30.646 0.74234 47.916 5.1465 10.657 10.887 38.04 27.516 29.44 43.25 3.7334 15.799 3.0984 30.515-0.11507 47.708 3.5174 17.023-13.204 14.363-16.052 29.596-15.404 8.3845-17.768 27.855 2.7831 30.145 21.282 8.5612 45.573 6.549 65.361 19.168 26.829 10.048 42.369 35.434 62.932 53.682 21.393 1.237 42.171 8.2582 63.413 9.6983 13.67 2.376 44.428-18.377 47.896 0.81309 0.70539 21.49-19.048 31.385-30.454 45.995-8.6344 23.088-24.097 42.623-43.564 57.678-19.562 13.191-36.427 32.596-59.959 38.438-4.4478 13.397-11.419 26.745-7.0079 40.656-16.038 18.854-26.248 41.501-38.787 62.742-11.541-10.743-37.673-12.561-51.653 3.9598-1.5524 1.3285-4.5564 5.5716-6.8725 2.6123zm66.109-73.855c14.732 0.42628 17.705-26.556 17.19-33.357-12.168 9.8621-56.182 1.128-38.771 24.734 8.1971 8.2868 8.3872 13.649 21.581 8.6226z" fill="param(fill)" fill-opacity="param(fill-opacity)" stroke="param(outline)" stroke-opacity="param(outline-opacity)" stroke-width="param(outline-width) 0.2"/>
</svg>
