<svg version="1.1" width="512" height="512" viewBox="0 0 512 512" xmlns="http://www.w3.org/2000/svg">
 <path d="m242.93 493.03c-0.78308-9.7985 34.347-11.003 45.373-16.273 9.9518-12.535 13.198-59.416-14.288-37.741-8.2172 3.2281-8.5607 26.585-12.132 7.3344-18.565 7.3723-40.159 10.428-60.829 7.512-11.458-5.3098 16.942-10.165 21.884-15.277 21.798 3.4988 36.592-20.306 59.293-16.247 22.922-5.8823-14.258-13.739-15.018-26.725-13.764-22.813-34.134-40.527-57.809-52.447-18.112-10.878-30.31-28.147-38.578-47.241-9.9312-20.375-24.831-40.549-20.659-64.538 1.1338-19.387 4.2004-39.459 2.0737-58.638-21.271-39.462-59.452-65.212-92.059-94.514-8.8093-7.309-49.687-31.199-18.705-28.087 22.916 5.7268 47.241-6.9446 67.565 10.228 17.048 14.583 25.465 37.113 43.134 51.502 20.003 18.902 39.55 40.506 44.226 68.665 2.8692 23.963 17.002 51.755 44.242 52.936 21.833 3.7999 43.997-1.8038 65.738 3.317 24.232 1.3688 46.344 13.916 67.303 25.096 16.063 19.827 40.85-1.8029 61.59 5.152 11.708 2.832 44.835 3.6747 38.853 18.384-11.93 5.9772-33.884-5.1683-41.683 5.7865 1.325 15.808 38.317 10.791 50.951 22.84 13.782 3.0262 19.76 8.4956 4.4091 15.101-16.862 16.375-41.789 25.873-50.344 49.132-13.789 18.537-36.912 20.086-57.322 25.941-18.974 11.681-40.971 8.6196-60.171 6.8661-15.206 15.255-19.474 39.231-8.4391 58.803 20.96 17.377-12.877 17.82-26.05 19.131-14.39-0.98431-28.948 4.295-42.55 3.9999z" fill="param(fill)" fill-opacity="param(fill-opacity)" stroke="param(outline)" stroke-opacity="param(outline-opacity)" stroke-width="param(outline-width) 0.2"/>
</svg>
