<svg version="1.1" width="512" height="512" viewBox="0 0 512 512" xmlns="http://www.w3.org/2000/svg">
 <path d="m252.28 501.04c21.81 1.0719 38.998-15.705 43.772-36.182 1.961-21.185-0.0285-48.938 11.878-65.027 23.71 1.3985 41.981-17.121 62.969-25.582 24.119-8.3322 35.493-33.488 58.102-43.741 11.722-8.6481 41.137-11.316 42.142-25.036-16.597-6.2576 12.308-9.3443 8.2243-20.624-9.6279 3.7142-23.742 1.9634-18.729-10.167-13.326-7.1412 11.675-32.981-12.225-22.32-13.378 9.661-18.189-15.094-33.363-1.7688-20.922 7.1961-39.653-16.769-59.477-23.42-24.463-15.899-55.57-16.355-80.276-32.22-24.627-12.891-53.749-6.2723-79.273 0.12369-9.6937-20.527 1.8434-43.293 1.5847-64.812 2.9069-32.19 3.052-66.54-12.698-95.61-15.016-20.531-45.455-27.215-66.514-11.789-27.256 11.639-15.402 44.159-28.99 64.255-8.231 21.536-50.463 25.25-42.404 50.475 21.059 10.968 52.918-2.8488 71.292-17.972 21.015-16.836 5.1831 27.593 1.1295 35.739-13.964 36.043-43.728 64.451-52.762 102.47-6.0382 32.592-7.8893 72.262 19.228 96.414 22.631 20.647 50.419 35.651 80.877 40.451 15.114 6.806 49.71 3.1228 34.515 27.684 3.081 25.661-30.181 8.4663-44.363 9.3096-13.667-1.2844-17.432 8.2617-6.4945 9.7765 10.948 11.41-16.22 26.402 5.0076 21.533 15.397 1.5374 35.206 3.1318 38.645 10.004 17.025 0.14508 28.882-15.711 33.002-27.646 19.319 3.337-7.7481-33.554 6.9937-35.782 15.807 0.3972 32.174-0.44575 46.565-7.6552-0.0449 19.892-3.9852 40.316-13.713 57.539-15.862 14.319-51.33-8.4274-51.954 18.936-3.0248 7.8418-23.337 21.414-1.88 15.596 13.458-0.24349 26.507 6.2061 39.188 7.0505z" fill="param(fill)" fill-opacity="param(fill-opacity)" stroke="param(outline)" stroke-opacity="param(outline-opacity)" stroke-width="param(outline-width) 0.2"/>
</svg>
