<svg version="1.1" width="512" height="512" viewBox="0 0 512 512" xmlns="http://www.w3.org/2000/svg">
 <path d="m178.99 391.19c20.774-12.208 43.666-21.467 63.959-34.868 10.46-8.0694 34.69-7.1911 33.558-24.162-21.825-0.68994-44.305 0.63175-65.879-4.4032-21.36 2.3451-46.219 6.2963-63.594-10.02-15.963-12.736-26.112-32.021-28.161-52.186-16.93-4.513-36.526 4.8379-49.595 15.75-12.365 9.5997-26.964 27.713-43.603 22.959 2.0347-17.884 25.768-26.526 30.591-44.768 5.0622-16.282 3.3862-36.71 18.787-48.017 12.377-14.085 31.556-13.439 48.606-11.979 17.655 3.6331 32.306 14.733 47.53 23.72 19.323-17.308 35.893-41.702 63.837-44.774 33.77-7.8706 69.338-2.7493 102.05 7.374 27.644 10.248 57.118 14.213 84.394 25.479 13.824 5.6378 30.24 1.397 42.874 10.383-7.9247 3.4393-39.173 3.0116-27.105 15.107 10.218 14.387 26.129 20.778 43.194 22.585 19.062 4.866-0.25844 9.1711-11.302 13.849 0.73596 9.9573-26.541 6.0627-35.783 11.824-22.847 3.4796-42.042 17.705-64.865 21.187-24.053 6.1931-49.507 9.4543-71.081 22.574-10.222 10.793-5.6508 26.341 2.8754 34.197-10.769-5.8778-12.762-0.12346-10.464 10.407-6.705 20.249-30.748 7.7771-46.157 9.9488-9.8965 4.3005-7.3659-5.5615-9.3708-6.1236-12.111 7.4402-25.637 14.67-40.053 14.927-2.4571-5.423-15.019 5.106-15.245-0.96871zm92.771-28.601c15.678-14.192-19.675 2.3789-10.201 2.1818 3.4618-0.38649 6.9146-0.98457 10.201-2.1818z" fill="param(fill)" fill-opacity="param(fill-opacity)" stroke="param(outline)" stroke-opacity="param(outline-opacity)" stroke-width="param(outline-width) 0.2"/>
</svg>
