<svg version="1.1" width="512" height="512" viewBox="0 0 512 512" xmlns="http://www.w3.org/2000/svg">
 <path d="m343.05 461.44c-9.1341-19.633-27.644-39.457-14.699-61.867 4.0514-21.978 22.501-38.631 19.595-62.124-2.3456-21.809 26.228-21.204 38.636-33.494 13.669-4.3536 27.333 14.683 41.166 18.268 9.9575 7.0986 13.061-4.8397 28.512-0.78424 12.799 5.171 12.16-16.037 20.206-0.36474 13.289 9.1239 38.511 0.48276 15.297-12.298-19.814-21.574-40.54-43.121-51.757-70.693-11.068-26.311-31.208-47.213-55.253-62.126-22.265-15.084-47.476-26.149-74.182-30.056-19.455-10.891-40.302-19.837-62.621-22.669-1.7864-15.197-30.454-26.456-47.327-32.718-20.182-6.6882-44.931-14.433-64.27-1.8177-14.119 10.809-15.686 29.985-15.203 46.435-33.001 32.316-70.954 58.956-106.77 87.937-2.7999 11.304 21.79-10.335 28.103-13.28 28.417-18.375 55.46-39.699 85.078-55.737-10.325 45.153-43.582 79.647-68.462 117.22-6.6107 20.228 15.565-10.71 19.129-15.861 18.983-24.239 36.997-49.523 58.613-71.495 17.467-9.664 46.663 3.3597 40.996 25.348-0.99702 24.443 5.8038 53.783 30.204 64.742 18.192 15.247 36.613 30.648 58.522 40.459 13.013 16.749 5.9224 42.091 4.6668 61.757-8.085 18.103-14.258 43.853-36.684 48.35-7.9806 0.76374-41.481 2.5875-19.302 10.474 12.491 5.668 31.435-9.7899 21.843 11.818 6.1728 19.423 21.839-24.585 33.579-13.627 13.297-3.9464 22.888 6.4057 31.075 7e-3 -1.7003 7.2649-20.355 19.939-15.785 23.876 19.479-13.659 39.744-8.4329 57.091 4.3212zm-74.446-34.909c9.7287-3.1999 6.8926 2.8338-0.50868 0.66042zm15.85-4.7363c-21.792-15.828 2.6246-42.438 6.5515-61.769 6.8025-13.413-4.1201-27.663-7.8164-38.745 16.359 9.5104 40.944-1.2557 53.834 6.6099-6.3173 13.785-10.957 27.976-8.7275 43.524-5.4477 16.03-9.7292 32.594-16.16 48.191-7.5693 7.0528-18.76 4.7393-27.682 2.1891zm-85.865-164.81c-9.4354-22.536 3.2257 2.9732 5.2343 9.1256-2.0256-2.8741-3.6664-5.9879-5.2343-9.1256zm-5.067-17.051c1.6664-0.31059-1.0085 6.4186 0 0z" fill="param(fill)" fill-opacity="param(fill-opacity)" stroke="param(outline)" stroke-opacity="param(outline-opacity)" stroke-width="param(outline-width) 0.2"/>
</svg>
