<svg version="1.1" width="512" height="512" viewBox="0 0 512 512" xmlns="http://www.w3.org/2000/svg">
 <path d="m441.4 464.61c-19.614-18.208-35.766-39.999-56.135-57.497 9.2396 13.963 34.586 35.265 32.807 45.283-26.114-6.9041-39.845-32.912-62.343-46.028-24.395-18.492-55.995-27.007-74.853-52.512-12.579-15.739-24.206-32.244-39.402-45.7-6.097-6.4242-16.844-3.558-24.701-6.7142-28.007-5.8972-56.367-22.019-85.485-13.112-20.937 13.937-10.061-25.416-0.7544-33.02 7.2954-16.866 46.612-10.866 37.252-33.207-18.27-41.482-59.382-64.014-89.943-94.976-14.57-15.87-36.454-27.273-41.964-49.89-8.7041-16.072 6.2865-7.3016 7.2716-9.7604-5.7276-19.066 18.347-5.8052 20.695 4.1922 14.278 4.2395 27.044 11.508 39.124 9.2289 9.227 8.3973 37.317 9.7666 33.808 23.715 11.148 2.2789 28.171 13.38 18.233 23.096 21.236 5.0322 37.201 21.015 57.786 27.947 21.422 6.326 38.339 19.851 52.305 36.821 14.454 14.246 28.541 29.251 42.793 43.233 8.5343 19.485 32.204 12.123 49.496 14.643 18.672 2.0548 38.42-1.8328 56.367 3.4541 7.1282 5.5132 6.6364 17.316-1.8595 17.856 14.123 4.7069 24.507 22.812 20.067 32.012 20.581 6.6901 27.447 25.218 40.945 39.429 11.725 11.724-10.761 12.937 2.0922 23.289-0.56274 16.184-25.324-10.111-34.363-10.77-23.804-11.366-47.186-24.344-72.638-31.692-9.0428 8.5069 24.353 23.901 12.583 38.581 9.4453 15.14 27.095 26.165 34.756 43.21-7.9523 1.087 24.826 28.082 9.3626 26.377 4.7686 9.8929 28.722 30.498 20.69 36.392-1.3308-1.294-2.6616-2.588-3.9923-3.8819zm-317.14-174.88c-3.0954-11.242-0.22282 10.1 0 0z" fill="param(fill)" fill-opacity="param(fill-opacity)" stroke="param(outline)" stroke-opacity="param(outline-opacity)" stroke-width="param(outline-width) 0.2"/>
</svg>
