<svg version="1.1" viewBox="0 0 512 512" xmlns="http://www.w3.org/2000/svg">
 <path d="m352.79 391.5c-12.495-7.8803-30.493 2.6124-46.404 1.7068-34.808 2.4673-70.868 2.3601-103.52-11.597-21.033-7.9626-42.287-16.077-65.135-16.082-19.967-0.0459-38.104-11.885-58.13-11.18-4.522 1.0923 1.1464 8.4127-4.3648 0.61209-4.0933-5.7938 0.80472-17.164 16.381-22.733 16.033-12.311 38.039-7.934 55.15-15.425-14.435-12.842-30.77-25.097-49.492-30.605-16.369-9.7957-25.974-27.064-41.71-37.433-25.231-24.242-31.996-61.094-33.179-94.608 8.1625-1.9769 21.16 34.953 15.424 8.6551 0.22773-11.516-10.435-36.12-0.43364-41.145 11.389 5.5365 17.226 33.227 21.202 33.782 1.4955-10.839-9.7535-36.375 1.369-38.825 18.263 13.778 19.86 38.385 25.814 58.734 0.24098-12.978-2.1988-50.983 16.48-26.471 9.3981 8.1375 4.5995 38.107 9.7448 36.126 2.1656-12.77 11.087-44.305 24.353-20 7.299 8.6631-2.8141 37.002 2.3291 34.28 4.0763-13.993 32.556-38.916 31.177-10.132-1.8474 10.774-4.6653 17.954 7.7255 8.7076 15.587-0.45763 15.326 20.51 29.778 24.553 3.9226 9.8586 18.994 26.218 21.38 6.4631 13.349-16.437 31.79-28.889 47.691-42.054 13.385-24.219 20.019-51.352 27.966-77.576 9.1282 13.643 0.43725 37.946-6.2886 53.751-2.8674 9.0815 11.414-14.773 14.357-19.977 11.945-17.7 16.803-39.731 27.593-57.364 7.7227 18.373-5.6102 40.637-11.698 57.658 15.188-16.223 27.254-34.966 40.136-52.92 11.381-6.3629-2.8129 20.544-6.5445 26.754-6.3562 11.382-14.332 21.736-22.986 31.449 19.89-14.239 36.96-31.799 54.24-48.878-0.22359 19.583-22.538 31.518-33.99 45.782-6.3155 5.4403-11.83 12.727-0.67779 4.7404 20.954-12.981 40.996-27.536 61.014-41.749-4.0057 16.543-22.007 27.373-35.061 37.775-18.66 16.535 15.182-2.1468 23.08-5.3057 8.2945-4.402 33.799-16.009 15.472-0.73072-3.4658 7.6185-27.44 13.703-24.011 16.559 8.855-1.1825 37.373-17.966 26.307 2.8725-12.841 4.6283 6.897 13.611-6.2293 21.796 3.8811 8.0412-8.0389 12.619 1.2081 18.37-10.079 4.1986-8.2186 6.3394-6.135 14.082 1.8122 13.884-8.9736 28.269-11.645 44.07-4.0975 17.475-16.994 30.735-26.645 45.475-13.047 9.6713-8.7544 23.979-17.529 33.371 10.839 4.1787 21.828 8.0928 33.596 6.6189 21.467 0.1947 43.049 0.052 64.197-3.3367 2.8086 9.7792 13.541 10.367 18.005 18.292 10.328 3.5663-4.077 12.905 10.803 13.251 15.768 12.999-10.715 27.23-25.414 19.429-19.938-3.2681-40.301-3.8439-59.974-8.749-11.084-0.27192-14.931 16.254-26.424 13.398-7.413-0.16053-14.517 1.5493-20.35-4.2366z" fill="param(fill)" fill-opacity="param(fill-opacity)" stroke="param(outline)" stroke-opacity="param(outline-opacity)" stroke-width="param(outline-width) 0.2"/>
</svg>
