<svg version="1.1" width="512" height="512" viewBox="0 0 512 512" xmlns="http://www.w3.org/2000/svg">
 <path d="m134.94 498.51c-21.379 0.0829-40.156-6.681-58.296-16.065 4.4215-18.23 40.776-8.1969 54.302-21.887 17.536-12.929 32.017-29.409 48.88-43.121 16.434-16.985-27.072-20.993-37.846-16.739-3.768 5.3722-9.6066 5.715-7.3659 13.216-1.7219-0.82869-4.0424-0.65591-8.307-6.6025-1.1971-17.21 7.1166-30.529 20.522-42.08 3.3262-2.866 0.84273-5.3769 4.421-7.4429 17.604-11.691 50.98-13.705 64.855-30.369 9.256-19.064 14.698-40.856 18.217-61.424-2.3086-24.323-14.781-48.064-7.2445-72.718 4.7078-20.47 16.303-39.134 14.551-60.91 1.9675-29.633 1.7768-59.489 5.3721-88.965 7.6385 13.515 7.333 47.044 11.496 51.46 0.90167-28.069 0.0412-56.468 4.5128-84.246 7.7151 11.726 6.0828 36.988 8.9532 53.995 0.83881 11.426 2.8757 35.477 3.7123 10.026 3.328-16.402-0.20796-46.339 11.419-54.084 7.0966 23.429 4.8456 48.44 8.3046 72.489 3.4716-21.953 4.5364-44.987 13.67-65.441 10.357 12.104 1.5994 42.447 2.3739 60.951-2.2159 24.356 6.3762-16.88 9.996-24.449 1.8921-8.7193 10.097-25.507 8.3443-7.0222-0.50567 19.181-3.8765 38.12-5.6617 57.187 7.0605-12.24 7.699-39.508 20.639-41.988-2.201 19.704-10.904 39.029-4.0976 58.747 9.7452 8.9449 3.9947 24.967 4.7415 38.078 18.73 11.263-3.5823 35.33 10.073 49.564-3.0018 16.387 3.3119 30.054-1.1012 46.144 9.2159 5.1352-1.9418 13.443 1.32 19.921 6.3206 10.438-6.4426 23.512 1.4095 35.202-10.017 7.191-6.1076 27.055-4.9871 32.242 26.375-1.285 52.728-5.5691 79.042-5.8494-9.6908 10.451 18.93 14.401 0.43727 22.688-1.0829 7.1092 10.168 15.04-4.3042 18.979-2.2359 7.9409 4.2912 18.727-10.505 15.297-10.311-0.31461 4.1507 15.092-13.08 11.521-8.2682 1.4941 2.6088 14.178-11.063 9.2644-15.414-3.7016-12.702 16.775-29.627 12.005 4.7982 21.384-21.043 21.303-25.092 2.4095-9.8188-14.738-19.641-36.374-36.514-15.109-18.821 6.1036-30.205 23.881-48.546 29.97-17.138 18.871-40.208 31.505-65.303 37.827-17.164 3.2225-35.1 11.043-52.621 7.3286z" fill="param(fill)" fill-opacity="param(fill-opacity)" stroke="param(outline)" stroke-opacity="param(outline-opacity)" stroke-width="param(outline-width) 0.2"/>
</svg>
