<svg version="1.1" width="512" height="512" viewBox="0 0 512 512" xmlns="http://www.w3.org/2000/svg">
 <path d="m455.28 478.11c-19.651-20.514-37.755-42.632-58.862-61.679 7.5776 15.985 38.234 38.391 33.616 48.83-29.49-8.5805-44.262-38.686-70.696-52.636-26.636-18.966-60.372-28.869-79.778-56.856-13.056-17.4-26.217-34.662-42.507-49.246-11.265-9.0061-29.971-3.8685-43.327-11.121-24.222-6.8963-50.012-18.555-75.436-11.311-4.171 1.7892-7.0984 5.8727-9.0352 5.8699 1.3146-7.252-3.8475-4.5386-3.5262-0.90989-3.0585-2.9555-6.2067-8.3822-2.8381-13.802 3.4992-5.6297 3.5621-15.057 7.4022-17.306 8.4083-20.792 32.172-23.56 49.904-32.407-7.8971-36.429-38.213-62.246-65.648-84.938-20.045-13.272-34.649-32.789-53.19-47.518-15.453-10.371-37.197-40.27-29.104-53.145 16.022 14.695-4.2995-21.255 16.817-8.2224 9.6442 14.609 33.658 27.252 48.803 23.473 13.721 5.2731 43.451 12.227 44.18 26.648 3.5073 3.6775 34.12 12.833 18.611 26.535 21.987 4.6176 37.382 20.832 58.348 28.016 22.216 8.8485 45.041 17.933 58.548 38.751 18.364 15.492 33.804 34.82 51.272 50.538 8.2883 21.353 32.073 16.633 50.867 18.112 20.891 0.66657 41.794 0.85622 62.692 1.2538 9.7234 4.8637 15.952 21.341 2.0918 22.066 15.279 5.4108 27.748 24.56 21.855 35.193 21.835 7.4064 29.621 26.711 43.727 41.784 8.5459 7.3557 5.1987 15.716-1.4442 18.363 14.975 18.388-3.4069 16.414-14.879 6.0571-30.501-16.297-61.5-32.685-94.407-43.43-20.274 0.47511 23.762 27.111 10.837 39.34-21.132-0.21796 10.119 9.9181 14.563 20.771 11.771 10.784 23.885 25.633 23.937 34.74 7.2333 7.5949 19.608 24.645 11.004 25.506 5.6382 12.827 27.864 25.491 23.031 38.813-2.9316-1.4503-5.1137-3.9174-7.4299-6.1349z" fill="param(fill)" fill-opacity="param(fill-opacity)" stroke="param(outline)" stroke-opacity="param(outline-opacity)" stroke-width="param(outline-width) 0.2"/>
</svg>
