<svg version="1.1" width="512" height="512" viewBox="0 0 512 512" xmlns="http://www.w3.org/2000/svg">
 <path d="m169.36 505.77c4.9675-7.1849 15.385-28.59-1.6632-18.602-14.449-5.2234-3.2253 12.415-9.3782 13.03-15.93-9.8747 4.6316-37.758 21.714-34.163 12.231-0.0926 12.769-9.2331 12.458-19.167 1.2684-9.73 16.916-44.417-3.4599-30.029-7.8191 18.146-40.069 8.154-32.137 34.075 0.36459 12.256-25.626 12.348-15.353 6.1112 18.731-0.93731 1.8164-40.757-5.0224-13.166-6.7025 8.7314 0.95016-20.198-11.136-13.826-14.864-9.9756-5.1617 24.46-13.557 3.6629-5.2994-26.344 31.192-11.915 44.638-20.077-2.1436-23.216 22.824-35.332 22.13-56.741-4.6015-20.627-34.526-29.286-36.53-2.2368-7.8464 17.153-11.811-17.236-9.4376-24.188 0.85709-10.06-1.4313-20.984 1.3912-30.508 2.3274-18.407 33.911-20.215 26.581-39.108-9.0383-19.538-4.112-41.809-14.11-60.987-6.6461-20.817-29.154-28.802-41.017-45.431 2.3254-10.688 1.4389-19.348-4.9616-30.098-4.3276-15.471-14.79-37.942-7.4503-50.882 12.982-0.22391 11.4 37.813 14.533 31.956-0.1466-9.3116 0.68915-36.489 9.7369-29.473 0.60729 12.55-1.3049 47.278 6.6749 18.686 11.931-12.907-3.4727 43.991 12.206 18.278 8.5635-0.55929 3.3115 12.711 13.706 5.6545 3.4267 9.7731 18.438 8.3727 14.894 21.86-0.91315 15.779 25.49 6.6421 17.924 23.704-7.2243 17.715 18.99 0.84095 13.179 20.032-0.2714 23.987 17.182 40.586 20.182 64.296 1.365 10.558-2.5463 36.87 11.932 17.538 14.372-15.711 29.548-27.83 46.231-40.328 17.196-15.124 22.438-37.428 26.602-58.98 0.85291-10.049 14.634-30.713 12.056-8.4473 11.415-4.7871 11.501-34.423 12.337-50.188 2.2682-23.78 0.20019-48.082 4.4905-71.559 14.04 6.456 7.1757 34.943 9.313 50.357-2.962 12.701 6.8072 20.769 7.7052 3.2676 6.8902-26.455 1.5617-54.245 6.7818-80.898 13.049-0.40571 6.5912 31.351 9.6554 43.291 0.64426 9.3825-4.544 46.281 3.7857 19.608 7.3826-20.395 6.7419-43.599 18.056-62.483 8.9788 13.793-1.0108 32.143-2.797 47.161-5.1915 10.601-4.4371 28.06 3.7643 9.4593 0.92547-11.513 15.133-24.215 11.059-4.3047-5.3113 7.6476-7.8942 27.649 2.7242 11.315 5.4823-14.56 22.661-10.609 9.8586 3.6719-7.5395 11.293 17.073 8.6557 5.7583 22.736 9.2342 10.097-11.092 24.171-3.6166 31.269 1.3297 5.0395 2.1539 10.104 6.7876 13.719 2.2714 14.353 2.102 28.4-6.8952 38.538 10.471 7.5542-1.7194 23.524-3.1049 33.912-4.8508 13.054-19.148 22.691-9.4782 36.259-5.5246 19.391-9.3892 40.593-25.839 54.224-8.7404 21.2-34.962 11.812-45.431 29.051-7.1574 6.2554-16.25 10.255-24.789 8.9112-3.7157 23.135-19.999-21.165-21.449 4.5209-7.5804 23.673 20.921 33.887 35.28 46.144 16.152 10.174 34.567 20.107 39.817 40.053-8.5177 11.628-7.275 37.316-30.375 33.149-7.1076 6.337-13.447-7.1611-16.666 5.0908-8.944-0.75056-7.7888 13.95-16.009-0.46695-6.4812-2.491-10.728 16.774-20.044 2.8991-10.561 0.31703-15.201-3.9759-18.461-12.078-15.588 6.8028-18.88-11.909-26.199-18.044 0.86999 17.664-8.8154 28.266-26.539 25.298-10.261 0.0649-1.0706 20.811-16.824 17.536-4.3427 6.5709-5.7733 16.879-16.215 16.133z" fill="param(fill)" fill-opacity="param(fill-opacity)" stroke="param(outline)" stroke-opacity="param(outline-opacity)" stroke-width="param(outline-width) 0.2"/>
</svg>
