<svg version="1.1" width="512" height="512" viewBox="0 0 512 512" xmlns="http://www.w3.org/2000/svg">
 <path d="m315.17 499.54c-8.4567-13.535-18.21-32.664-36.606-29.849-20.014-0.14078-44.54 5.283-59.179-12.514-5.0402-4.7486-13.469-1.3918-19.982-2.6175-22.675-0.89072-45.607 0.43965-68.04-3.1172-8.8171-7.3483-30.891-32.894-7.6616-33.185 5.7795-21.706 41.506-26.599 47.013-2.3738-0.71129 9.6541 8.679 6.1437 15 6.6332 10.347-0.0527 20.694-0.10531 31.04-0.15797 10.5-8.7471 17.59-14.647 8.6697-28.225-10.989-12.571-18.034-29.047-16.722-46.914-2.1472-17.574-20.347-27.813-26.8-43.982-30.488-51.393-28.614-116.2-9.934-171.33 3.6613-16.054 19.824-36.75 17.827-49.067-12.078 6.8902-30.151-2.3531-31.726 16.9-6.2655-14.301-13.888-34.46-0.45825-46.889 23.017-4.9729 22.323-38.166 49.674-38.079 25.64-6.0045 50.112 7.8108 67.76 25.334 13.661 11.479 26.635 24.411 43.033 31.973-7.3645 2.4898-29.679-0.25308-11.882 7.3165 9.6664 3.7965 20.114 4.7831 7.6003 12.465-11.214 7.5608 12.746 12.945 18.702 15.378 6.9943 3.6188-23.091 14.485-2.6764 17.281 17.654 0.76222 8.3332 9.3838-1.8601 15.24-3.921 5.3775 16.714 7.1103 17.744 10.589-10.335 13.21-28.247 17.477-43.706 10.977 3.5278 10.182 17.986 26.826 23.759 40.621 21.678 43.723 41.237 92.072 35.597 141.83 0.21614 19.393 3.4022 39 4.5304 58.515 0.11013 8.2488-0.17124 37.528-6.9974 16.471-3.4264-7.0281-8.0426-19.419-6.7994-4.5875 1.8 14.75 10.149 30.569-4.5478 40.883-3.931 19.37-17.379 33.581-27.448 48.207l-2.2441-1.0504-2.6822-2.6781z" fill="param(fill)" fill-opacity="param(fill-opacity)" stroke="param(outline)" stroke-opacity="param(outline-opacity)" stroke-width="param(outline-width) 0.2"/>
</svg>
