<svg version="1.1" width="512" height="512" viewBox="0 0 512 512" xmlns="http://www.w3.org/2000/svg">
 <path d="m299.18 500.06c0.12361-10.342-4.7548-28.648-1.9785-8.3147-7.5283 9.9426-10.112-27.126-14.032-35.581-8.0666-28.782-12.668-58.534-23.65-86.399-7.9122-24.143-5.198-50.679-17.121-73.669-5.5959-12.447-9.9308-26.702-17.944-37.514-16.65-6.7678-33.645-18.986-52.248-14.356-13.669-19.752 25.996-26.138 25.298-44.903-4.5702-30.122-31.406-49.05-49.35-71.309-19.005-29.844-45.414-54.466-63.691-84.802-3.3049-14.851 19.241 18.46 6.8454-0.63912-5.6112-5.4969-20.114-22.386-2.3987-12.243 6.1711 5.5239 19.521 13.709 9.7617-0.96749-8.0678-8.6764-8.2979-17.682 4.2825-7.9435 9.7618 8.6376 12.282 7.8026 7.1667-5.284 7.9557-3.5696 17.416 20.865 19.971 4.2565 8.6121 6.4604 13.667 16.326 21.551 9.2342 12.124 12.342 31.907 12.906 40.298 28.94 14.247 10.092 25.653 17.734 32.91 34.292-10.018 12.864 27.822 2.0563 14.643 13.841 20.697 3.1877 25.477 28.326 37.529 41.166 1.4944 7.5057 6.8859 27.935 18.837 25.637 17.448-13.168 32.227-31.346 53.096-39.029 3.4843 7.0639 0.0903 10.307 11.578 5.7047 8.3446 10.14 18.057 20.136 31.732 28.595 0.46744 6.0118 2.5807 15.236-5.3162 19.376 11.556 1.8643 7.8373 11.328 4.4621 15.674 10.107 4.4604-4.7871 11.609 5.2875 17.898-8.3872 5.0387-25.812 2.5534-10.145 12.373-8.7634 9.7063-34.766-2.2992-48.902-5.2636-10.845-2.1062-35.587-13.343-22.911 5.0877 7.0471 16.282 18.795 31.488 20.377 49.985-0.8437 16.448 18.362 39.582 0.851 48.982-21.436 3.8808 7.2021 3.1658 10.454 13.61-6.9552 7.2368 12.728 20.968-0.76416 25.728 7.585 12.048 1.1061 20.399 4.6405 30.872 3.8644 13.495-5.9879 16.935-0.88104 31.294-2.9721 11.592 1.0223 23.396-9.0611 22.15 4.748 12.055 0.84824 19.059-4.9644 17.276 3.7777 14.124-2.9193 20.171-11.245 4.9832-6.1659-11.05-2.6923 38.166-11.455 14.837-5.3696-34.402-7.2665 19.474-13.511 6.4241z" fill="param(fill)" fill-opacity="param(fill-opacity)" stroke="param(outline)" stroke-opacity="param(outline-opacity)" stroke-width="param(outline-width) 0.2"/>
</svg>
