<svg version="1.1" width="512" height="512" viewBox="0 0 512 512" xmlns="http://www.w3.org/2000/svg">
 <path d="m287.57 498.35c-4.4151-11.309-7.385-30.61-23.768-17.891-7.8994 2.1003-36.89 14.05-33.35 3.2558 6.6587-4.0558 38.38-15.808 13.553-12.974-11.449 3.4825-31.156-12.218-8.3396-7.4568 19.445 5.4487 50.898 1.8534 45.731-25.716 4.0836-21.636-13.751-37.068-17.582-56.795 3.1601-17.95-25.864-36.236-26.861-9.9567 6.2782 20.454-1.986 37.634-16.473 51.711-14.234 16.063-1.7363 33.094 17.883 29.016 14.789 7.827-30.067 1.1356-27.677 14.996 4.339 9.0765 9.806 26.613-2.8185 9.6192-8.3254-23.444-32.964-1.4983-48.469 1.4806-16.149 7.9115-17.595-5.3125-2.7091-9.8037 7.5875 0.38241 34.4-11.784 14.092-9.6346-10.041 7.4623-47.282-8.0406-20.019-9.1145 18.732 0.60726 46.434 9.8278 53.17-15.544 7.2747-27.986-5.3845-56.388-15.548-82.011-12.459-25.272-38.201-40.958-51.784-65.709-23.165-34.803-28.737-83.039-4.661-118.93 11.849-18.439 23.251-38.6 21.819-61.328-0.10228-32.969 7.0212-72.352 38.365-89.96 18.42-9.0103 44.755-14.74 61.238 0.99945 6.8088 12.522-9.5004 27.242 1.9148 40.254-8.7352 17.607-32.556 34.875-19.188 56.978 9.3611 21.107 24.984 38.699 35.476 59.021-2.4105 19.748-29.67 26.99-35.118 47.045-14.716 39.022 9.97 81.361 41.658 103.78 37.367 25.003 83.953 26.929 126.3 37.864 14.399 5.994 29.464 28.429 33.389 36.566-17.442-12.639-38.475-17.562-59.148-10.973-22.086-4.3912-37.027-29.856-61.01-26.44-28.781 8.4694 1.3143 41.069-15.469 60.103-7.9722 14.625-16.033 39.088 2.7477 39.168-20.995 6.0484-5.5002 31.324-17.347 38.376zm106.88-148.06c-14.664-4.496-49.807 4.3165-47.789-17.677 18.359-1.0295 14.752-18.027 18.19-28.796 13.544 8.3863-2.6135-21.63 11.35-2.5572 9.7943 10.945 21.56 39.858-4.3296 34.886-8.9765-14.804-19.928 5.7388-3.5108 6.5632 19.986 9.2698 37.025-13.294 20.451-28.048 10.747 4.7167 32.824 20.928 14.271 25.929 7.7083 7.2738-0.98085 14.177-8.6338 9.6989zm-69.265-11.336c-37.778-8.2397-67.071-38.957-82.388-73.307-9.7987-22.557-3.8318-50.863 16.499-65.508 14.854-5.206 17.632-26.966 20.687-32.798 31.1 12.366 42.457 47.071 55.534 74.884 6.4108 18.393 23.233 40.362 7.5202 58.594-4.1559 12.049-39.49 25.823-30.566 8.3203-25.245 16.31 15.071 23.242 24.512 8.9842 12.759-7.614 21.496-26.336 21.276-36.99 15.211 8.1474 0.39777 17.989 0.80682 27.912 6.8081 17.911-17.88 18.074-23.333 30.425-3.4974 0.65478-7.1044 0.23181-10.549-0.51599zm-45.215-281.44c-14.656 2.7163-36.671-11.937-19.653-24.857 9.4809 5.7643 31.277 16.456 27.147 26.696l-3.1668-0.47772z" fill="param(fill)" fill-opacity="param(fill-opacity)" stroke="param(outline)" stroke-opacity="param(outline-opacity)" stroke-width="param(outline-width) 0.2"/>
</svg>
