<svg version="1.1" width="512" height="512" viewBox="0 0 512 512" xmlns="http://www.w3.org/2000/svg">
 <path d="m293.34 418.3c-8.3981-15.789-42.182-7.8002-38.581-30.576-1.8822-21.027 19.38-22.064 28.056-33.343 13.17 1.3926 10.634-14.739 9.583-22.473 4.2864-7.8194 3.3857-14.564 15.755-10.681 5.9078-5.3137 20.94-4.9858 21.323-13.238 13.683 12.455 20.385 33.055 33.162 47.469 5.8959 13.601 24.02 20.053 32.792 11.696 8.8982 10.285 19.158 1.5313 24.705 1.2519 14.255 7.3708 16.678-10.626 31.219-0.16018 17.193 5.6198 7.1429-18.717 23.108-11.316 0.81003-14.768 22.78-2.0204 23.135-18.909 16.438-9.7416-19.014-25.19-28.082-31.702-13.007-8.5581-37.842-16.927-43.957-25.898 9.6691 7.2869 42.522 4.9892 18.5-5.8206-8.0394-6.4758-40.073-20.397-14.944-13.916-20.683-14.574-45.75-22.28-63.935-40.485-6.3851-9.4966-36.72-20.136-30.296-27.424-11.368-15.619-33.192-17.407-49.561-25.839-27.307-12.566-57.395-15.865-86.905-18.955-21.871-4.6446-33.333-24.696-50.671-36.056-8.9509-4.1633 11.361 0.57553-5.016-6.0883-9.5031-2.8703 11.802 0.2429-4.0107-5.0965-7.5213-2.2821 9.47-0.42403-5.3618-6.7931-0.27406-6.1547-26.275-8.4925-8.3074-8.4728-3.1411-3.9382-18.89-3.5458-10.632-6.1559-7.9086-0.49443-14.258-2.6006-4.3055-5.5988-25.868 2.0806-48.601 17.336-70.94 29.388-13.266 8.9583-33.923 32.226-19.784 44.325 6.5737-16.57 32.304-12.529 44.974-3.9323 17.955 10.694 24.354 33.02 29.448 52.017 3.9369 49.89 42.771 87.975 82.818 113.42 19.63 9.7091 31.529 27.76 42.527 45.881 19.462 9.3822 1.4984 38.604-16.167 39.395-13.892-0.60915-43.835-4.9579-44.512 11.276-3.0333 4.5155 15.151-7.4448 4.2222 4.2817 0.40277-0.0703 24.344-1.1635 26.947 2.62 15.628 3.0377 43.733-2.5115 63.969 1.1556 13.311 6.5474 27.142 1.3393 39.721 4.7498z" fill="param(fill)" fill-opacity="param(fill-opacity)" stroke="param(outline)" stroke-opacity="param(outline-opacity)" stroke-width="param(outline-width) 0.2"/>
</svg>
