<svg version="1.1" width="512" height="512" viewBox="0 0 512 512" xmlns="http://www.w3.org/2000/svg">
 <path d="m250.39 347.93c-8.2638-7.4086-12.116-18.65-23.097-17.42-2.2219-13.309-25.502-15.312-20.059-28.91 6.7341-11.014 30.318-13.606 28.813-26.326-12.252 8.723-29.513 20.375-40.63 4.1109-16.053 0.77906-29.333-15.228-45.835-15.114-15.733-5.1154-22.78-15.311-35.006-25.498-11.384-8.7733-15.383-23.323-22.74-34.009 9.4961-11.532 4.15-8.7309-7.2048-10.592-10.293-5.3201-25.093-17.303-15.72-19.728-9.5896-4.8383-27.181-17.14-5.8963-13.166 14.5 1.8293-15.566-8.7995-18.101-15.519-7.6035-6.0221-27.591-26.211-5.6899-14.859 7.1708 3.0793 24.878 11.83 10.514-0.25737-7.9579-7.2649-20.291-23.799-19.035-30.175 6.3823 3.0398 33.029 25.13 18.663 8.4038-6.3468-8.471-14.834-24.647-13.529-31.982 22.68 25.088 45.82 52.639 76.821 66.935-8.797-17.329 25.983 4.6745 33.293 9.7892 23.039 13.617 44.892 31.84 71.369 37.733 9.3306-15.712 35.32-13.205 47.754-1.7655 17.975 11.975 38.349-2.5882 54.614-10.762 23.39-11.996 42.937-30.777 67.265-40.85 8.6366-3.589 18.548-4.2573 8.7917 5.6542 30.486-17.094 55.739-41.777 77.379-68.944 1.5792 14.56-16.348 33.847-16.896 39.806 8.2776-3.5819 32.2-26.663 19.301-6.0267-5.7828 11.8-15.819 20.462-25.211 29.312 9.3607-3.233 26.183-14.028 30.78-10.717-9.5336 13.542-24.324 23.692-37.089 32.535 9.3506-1.8238 22.433-2.6399 7.8241 6.2916-6.3286 5.705-17.582 6.3645-6.3433 10.714-7.5731 10.556-25.207 18.442-33.981 19.274 15.564 11.725-8.3716 19.567-7.7322 32.631-10.594 11.154-21.81 20.604-31.391 28.692-11.605 8.4739-28.086 6.9079-40.729 17.003-14.922 0.82081-28.346 19.42-43.557 11.073-4.6944-5.1771-25.362-13.432-13.509-2.2678 11.105 8.9108 36.783 17.722 22.404 32.274-14.294 0.55046-11.003 18.949-26.414 17.514-3.4401 4.5914-14.23 22.458-20.191 15.142z" fill="param(fill)" fill-opacity="param(fill-opacity)" stroke="param(outline)" stroke-opacity="param(outline-opacity)" stroke-width="param(outline-width) 0.2"/>
</svg>
