<svg version="1.1" width="512" height="512" viewBox="0 0 512 512" xmlns="http://www.w3.org/2000/svg">
 <path d="m187.63 492.25c5.3587-15.753-1.1545-20.261-9.0821-6.7686-2.9837-12.873 6.5311-21.64 2.6318-26.063 17.394-15.716-7.6787-10.745-18.118-11.617-18.607 9.2996-48.35 7.6335-57.683 27.965-3.6487-9.1647 5.0901-36.563-8.2956-16.163-7.485-4.6002 2.8274-20.583 1.429-26.464 12.111-25.372 34.493-2.2964 53.449-5.262 8.3062 1.0321 8.2895-11.919 12.931-17.043 4.2899-13.479 22.002-28.053 11.164-41.14-13.488-18.843-19.967-41.935-29.923-62.235-43.416-30.725-78.327-80.741-76.537-135.64 1.3168-29.492 18.689-56.025 41.702-73.554 5.444-13.99-12.963 4.0545-3.4321-14.407 2.5279-18.67-19.127-47.129-38.975-33.487-21.159 24.283-9.4511-30.676 10.344-26.79 12.003-2.7623 17.196-15.824 31.845-10.504 24.991-0.52321 50.949 10.336 62.538 33.62 4.5442 8.1163 14.108 22.158 2.9791 20.21 0.49668 21.248-1.7407 42.403-3.602 63.487 12.919 20.619 38.134 30.131 55.443 46.961 29.775 23.603 53.236 53.732 74.993 84.567 36.09 16.956 73.929 31.734 106.81 54.446-16.485-1.8452-34.952-12.686-52.293-17.58-10.547-1.4777-38.024-18.339-39.026-9.824 6.7057 8.6008 7.6028 22.998 19.738 25.949 28.863 14.244 57.859 28.817 84.003 47.673-17.666-0.34663-37.637-10.218-56.143-14.456-28.154-9.4512 19.094 18.535 26.026 25.884 30.539 22.143 56.719 49.715 81.411 78.008-20.674-0.99513-43.253-0.17474-62.297-9.6296-20.698-3.3607-41.04-10.564-59.913-20.941-26.556-12.532-46.074-35.256-66.077-55.804 4.5976 17.096 12.717 36.155 9.4625 54.797-10.58-8.4706-22.854-14.142-26.075 5.2808-6.2599 13.809-28.159 41.385 2.4492 37 12.837-12.542 33.545 8.4455 26.154 16.773-12.209-3.4095-29.155-6.6896-43.958-7.5744-12.155-1.1667-23.058 7.0382-34.686 9.8552-12.644 0.49639-27.572 12.739-31.14 17.482l-0.20222-2.7139zm64.706-64.251c4.2151-8.4374 8.4302-16.875 12.645-25.312-28.665-12.388-49.371-38.12-59.613-67.193-1.2196 9.1994 4.1945 41.174-2.4421 57.775-17.494-12.791-22.489 24.02-31.821 36.851 3.4841 21.111 41.013-10.477 43.734 17.504 7.065 7.4642 28.276 10.555 30.012-4.6409 2.4949-4.9941 4.9899-9.9882 7.4848-14.982z" fill="param(fill)" fill-opacity="param(fill-opacity)" stroke="param(outline)" stroke-opacity="param(outline-opacity)" stroke-width="param(outline-width) 0.2"/>
</svg>
