<svg version="1.1" width="512" height="512" viewBox="0 0 512 512" xmlns="http://www.w3.org/2000/svg">
 <path d="m347.7 482.91c-9.4238-4.7564-10.798-26.753-15.107-3.2906-6.7171 12.059-15.787-10.369-26.729-6.8726-3.9015-8.3106-17.596-5.9643-20.793-13.77-11.513 5.379-8.031-13.717-20.863-7.6101 8.0648-25.757-8.3824-2.2692-19.255-12.24-11.445-1.5295-8.368-12.017-16.942-15.172 9.6813-10.658-11.327-3.3082-5.3938-14.893-2.9876-8.7391 12.221-14.759-4.9944-14.463 6.2877-18.777-16.898-13.728-11.809 6.7102-2.3577 9.952 0.19557 46.066-10.475 24.287 7.5338-36.318-21.872 17.299-33.894 24.537 3.9975-26.273 37.43-38.83 40.019-65.336 2.546-16.817-20.786 14.278-27.82 14.246-14.197 10.826-37.749 24.526-41.714 13.459-16.052 8.8178-0.16649-13.279-18.57-2.293 16.565-15.938-16.053-1.8211-6.8726-11.292-31.124 7.3785 20.907-38.761-4.9414-38.052 10.925-9.7313-2.4286-22.642 20.601-23.5 34.011-10.153 71.547-10.167 103.25-26.841 3.5647-17.476-15.404-15.872-18.965-28.95-8.5363-8.2374-2.7064-16.008-13.083-21.53-13.288-13.278 3.1492-33.359-11.036-39.95-17.562-17.451 30.855-29.615-2.8136-32.078-1.9953-16.597 9.5946-35.058 17.752-47.838 3.3313-20.066 14.626-37.599 21.655-59.71 3.1602-11.445 19.007 0.65639 10.266-18.403-0.19673-28.076 27.892 32.055 18.338 0.53129-8.7708-16.592 2.4281-43.5 11.295-13.163 4.3205 10.559 11.889 26.375 7.873 6.1662-5.6404-13.131 9.4-58.459 12.829-22.721 3.4101 14.647 9.2361 51.385 7.5342 15.164-3.8451-11.684 12.259-43.429 12.997-14.83 2.4288 15.032 4.4118 51.118 8.04 15.445 12.481-36.785 13.821 14.338 12.891 29.655-2.8735 25.976 13.413-37.557 14.354-4.2754 2.0001 22.997-6.3737 45.544-11.051 67.241 11.987 22.607-12.665 42.351-4.4758 64.965 8.2639 25.017 4.063 76.823 43.226 70.773 20.18-8.2053 62.682 21.914 22.507 24.121-22.493 13.885-50.118 29.4-31.291 58.853 6.8459 22.174 42.96 42.453 35.299 57.238 15.15 8.5512 13.868 5.3936 29.877 15.886 2.3916 1.5675-17.548-1.1761-26.143-3.3771 1.1068 11.519 33.605 9.7852 10.374 13.715-29.448-9.24-8.9822 12.889-7.7746 11.409-15.401-4.0722-27.251-6.9992-17.508 12.188-14.648 4.0197-25.644-16.611-22.432 9.1836 0.93963 5.1823-2.674 11.732-8.2289 6.677zm-147.44-59.373c1.6162-11.728-4.355 6.4612 0 0zm23.209-53.178c19.734-35.159-29.316 10.371 0 0z" fill="param(fill)" fill-opacity="param(fill-opacity)" stroke="param(outline)" stroke-opacity="param(outline-opacity)" stroke-width="param(outline-width) 0.2"/>
</svg>
