<svg version="1.1" width="512" height="512" viewBox="0 0 512 512" xmlns="http://www.w3.org/2000/svg">
 <path d="m93.896 450.01c6.0862-16.336 25.401-35.504 42.94-21.371 15.971 12.324 39.429-5.753 48.626-18.637 4.2228-5.8888 19.334-12.773 8.76-18.47 10.799 0.68682 18.979 5.4383 23.593 15.289 13.038 21.167 37.286 11.195 56.643 12.595 13.194 6.8092 25.916 1.987 36.382-1.0797 11.769 5.2111 16.543-0.86357 17.913-7.5603 32.056-2.7806-36.019-20.125-5.6261-23.532 7.48 0.51003 31.687-5.2109 13.182-10.411 23.206-12.424-22.227-11.545-31.497-10.534-18.113 6.2824-11.176-16.486-28.744-13.348-15.131-2.4868-32.837-3.0583-45.738-9.5313 22.022-2.489 12.636-40.417 34.786-34.749 20.274 6.3274 29.773-14.451 46.492-20.517 15.97-12.53 32.677-25.447 45.079-41.869 16.037-12.888 23.147-34.349 40.188-43.652 21.133-2.8422 34.468-21.906 55.477-25.364 13.724-7.928-17.483-5.177 4.153-8.5061 9.3059-0.38923 35.338-12.07 10.754-8.8778-11.926 1.0071-26.863 0.44205-6.1498-3.2701 8.3251-0.5364 38.358-15.017 14.058-9.5807-10.854 0.68464-29.885 4.8326-35.823 3.2605 16.186-5.3954 34.472-11.818 47.57-21.19-16.737 2.33-40.726 8.8341-52.988 8.7978 18.848-11.364 42.196-17.949 55.679-36.307-24.206 9.9347-47.099 23.787-72.68 30.225 19.868-16.49 43.275-30.79 58.521-51.633-32.353 19.957-64.677 46.108-99.154 58.712 13.573-16.009 32.612-28.81 39.191-49.683-36.016 31.514-70.743 67.442-116.77 84.046 9.3238-13.162 2.6938-9.9823-6.2822-1.2862-24.865 19.838-56.799 30.186-77.464 55.312-6.6144 11.432-16.944-9.1983-15.86-16.1-11.05-10.535-0.69055-15.985-1.7682-27.257-8.9923-7.3075-16.779-14.649-14.588-24.87-13.743-5.4423-18.654-19.965-36.572-11.127 12.132-18.992-15.589-6.2639-19.023-6.7769 14.95-23.382-17.817-14.364-22.398 0.015-13.505 16.351 21.089-40.272-6.0335-22.158-10.144 3.7029-19.7 28.883-22.049 25.164 3.549-11.588 0.57881-39.866-11.761-17.298-12.157 17.171-3.8895 41.147-15.104 56.326 1.2455 23.187 33.742 22.018 34.494 45.902 1.2698 13.936 26.002 44.494 2.5912 44.953-21.379 4.4289-39.321 23.114-42.543 44.587-12.934 9.8123 0.21337 25.494 9.1123 26.907 2.997 0.47602 6.7771-0.14004 5.6149-0.93315-6.9753-4.7601 1.0494-5.6452 1.2672-10.731 7.8571-23.084 36.076-12.822 46.345 2.5903 17.792 11.364 18.077 30.371 14.394 48.909 7.2444 1.1525-13.725 18.53-24.057 12.92-15.902 0.0749-32.068-21.263-43.59 0.79463-17.9 12.649 29.721-3.0564 12.114 10.553-10.689 10.911 13.061-5.3803 9.2261 9.9446 2.1007 9.9704-33.835-4.0369-10.663 8.7969 15.1 2.6894 7.1176 11.46 5.8969 16.508 9.3017-2.2775 25.807-2.6339 6.849 0.69833-0.52597 0.89575 13.067 8.2503 17.03 4.401z" fill="param(fill)" fill-opacity="param(fill-opacity)" stroke="param(outline)" stroke-opacity="param(outline-opacity)" stroke-width="param(outline-width) 0.2"/>
</svg>
