<svg version="1.1" width="512" height="512" viewBox="0 0 512 512" xmlns="http://www.w3.org/2000/svg">
 <path d="m485.65 420.72c-44.304-17.699-84.962-43.794-130.06-59.596-24.402-4.0839-41.455-24.46-60.213-38.9-19.598-16.951-38.753-34.403-58.026-51.72-19.389 1.16-38.42 5.9509-54.892 16.641-11.052 8.935-36.325 23.721-37.732 30.678 8.6535-2.5129 31.216 0.92868 29.215 7.5449-17.773-2.4317-42.952-5.0136-41.087 20.521-8.0757 10.013-11.932-2.6544-24.011 1.474-19.467-5.6955-21.27 12.472-26.988 24.78-21.293 7.933 11.625-28.571-14.034-20.313-10.58-2.7295-45.669 5.2935-21.357-9.1238 6.8816 1.0587 36.081 7.3213 16.502-2.6684-9.1236-4.3528-28.313-11.88-6.4438-10.283 13.608 8.0727 26.122 15.781 38.941 1.1109 10.891-7.8997-21.578 5.1168-6.6083-7.847 6.0371-5.5937 34.065 0.58396 15.237-9.8361-24.513-6.7542 6.5725-9.2762 14.198-1.2033-1.8999-8.3401 1.263-22.196-10.603-23.042-29.598-11.889-59.555-26.595-81.316-50.472-8.1671-18.052-18.906-37.264-12.354-57.641 5.9558-23.53 6.8286-49.603 20.713-70.203 22.098-26.449 66.276-30.796 92.69-8.4065 13.017 3.304 44.975 10.419 42.327 21.668-18.294 2.7803-39.859-0.45806-55.598 11.469-24.154 19.713 14.506 33.345 31.58 34.056 16.884 8.5718 36.592 14.351 50.337 27.079 7.8163-1.5266 34.876 16.284 50.373 23.495 20.169 9.1354 37.29 24.579 58.274 31.617 25.693 3.0321 2.6094 12.365 5.315 13.771 22.577 12.931 46.943 23.374 67.881 38.788 14.01 19.579 37.582 28.73 56.197 43.178 17.345 9.9738 27.128 26.926 44.818 36.582 13.505 7.7971 30.862 30.735 12.395 38.564l-2.5109-0.69405-3.1576-1.0659zm-360.06-83.791c4.932-16.821-24.655-5.9202-32.055 3.3969 10.251-2.3096 27.326 7.8436 32.055-3.3969zm-5.8706-14.279c-2.7797-3.6466-3.5672 3.831 0 0zm19.586-11.981c8.6334-4.7396 32.753-24.333 10.282-11.217-7.9157 3.6413-42.087 30.667-10.282 11.217z" fill="param(fill)" fill-opacity="param(fill-opacity)" stroke="param(outline)" stroke-opacity="param(outline-opacity)" stroke-width="param(outline-width) 0.2"/>
</svg>
