<svg version="1.1" width="512" height="512" viewBox="0 0 512 512" xmlns="http://www.w3.org/2000/svg">
 <path d="m288.62 486.47c-5.9301-17.009 11.434-14.728-2.1317-30.812-11.333-11.132-14.05-26.059-7.7023-42.404 27.369-7.4946 17.037 38.207 33.875 51.216 3.4312 6.884 24.922 31.927 15.918 11.952 14.673 7.2652-11.101-25.435-17.21-32.419-8.047-15.796-21.806-48.328 9.1405-39.017 27.61 7.2582 53.83 18.846 80.498 28.875-1.6102-7.2355 11.976-0.72443-0.21411-9.2252 10.978-2.8889-9.5168-27.196-18.816-32.08-16.718-15.273-43.9-2.7266-58.234-21.758-12.857-9.0925-23.735-19.286-11.928-33.951 1.5987-15.924 17.364-28.876 28.943-36.879-0.0998-8.6248 13.391 1.0288 4.9849-10.573 12.49-2.5271 15.795-15.753 19.139-21.704-1.0054-10.863 18.483-2.8891 12.686-18.359 8.8916-7.8646 24.155-25.731 20.037-38.642 17.938-8.441 8.3074-20.106 27.294-27.248 5.2896-13.607 20.075-23.325 17.932-33.93 11.673-9.7772-0.18858-12.234 0.17305-9.258 18.644-14.895 17.77-34.445 30.573-51.996-27.374 11.776 23.482-36.412 1.2532-20.616-8.1106 6.1989-24.617 15.126-12.334-1.6276 3.8335-8.0899 29.153-37.791 8.7415-19.11-7.8438 5.6814-27.582 30.536-28.849 24.664 7.302-15.619 21.493-33.324 25.879-47.098-8.8165 7.3722-33.439 41.054-18.969 12.964 5.452-14.037-14.713 14.632-20.083 19.481-31.234 35.229-63.884 69.767-100.82 99.076-21.13 12.669-35.742 35.083-58.763 44.16-14.602 12.483-22.779 30.427-35.368 44.677-9.7622-9.262-21.671-20.774-13.499-32.746-11.228-8.3131-0.31298-22.272-9.1419-33.297-3.268-9.6576-6.7952-16.339-13.047-21.203 0.012-7.117 2.3658-16.326-8.0028-14.171-5.3857-4.2761-2.4984-19.774-10.507-22.874 12.559-23.861-14.769 0.6903-17.011-4.6053 3.9516-11.286 12.516-33.887-5.3238-17.145-8.1454 7.7453-17.093 13.243-10.657-1.6818 3.3415-9.577 8.3254-27.909-5.6046-11.883-12.134 13.35-8.7091 2.3437-8.9473-8.5706-16.172 11.83-21.977 34.586-30.418 52.57-10.626 23.384-8.5386 50.343-19.019 73.606 6.427 21.25 32.131 33.041 39.224 55.58 4.3093 13.636 18.708 36.744 8.5289 48.449-22.278 13.438-53.532 13.449-69.223 36.282 1.7779 17.161-33.616 26.234-26.117 33.784 22.312-10.236 44.548 1.4815 65.708 8.7014 35.449 11.237 72.699 15.343 108.84 23.921 19.517 4.013 39.311 7.023 59.283 6.205 0.57434 12.045-1.6385 24.628 0.62215 36.348 5.6575 11.235 8.4057 27.742 18.676 34.372z" fill="param(fill)" fill-opacity="param(fill-opacity)" stroke="param(outline)" stroke-opacity="param(outline-opacity)" stroke-width="param(outline-width) 0.2"/>
</svg>
