<svg version="1.1" width="512" height="512" viewBox="0 0 512 512" xmlns="http://www.w3.org/2000/svg">
 <path d="m171.52 484.64c25.385-5.1904 52.197-2.2984 77.231-6.999-7.9049-4.0198-37.902-0.68483-34.582-12.653 13.103-0.29579 36.158-2.8894 40.171-0.0522-11.888-10.76-54.562 2.1402-35.111-26.058 14.385-24.464 36.981-42.878 52.518-66.323-7.223-24.017 18.557-19.292 34.366-19.263 49.112-1.3927 97.355 10.982 143.6 26.222 18.946 12.562 33.002 34.507 56.128 39.465-8.467-18.382-28.793-33.732-44.366-48.47-12.043-13.452-36.196-25.779-39.501-41.691 8.1096 1.5461 39.645 15.066 18.499 0.8432-52.02-33.851-86.822-87.556-137.69-122.94-29.949-24.325-57.405-51.944-88.974-74.129-22.388-10.569-28.317-35.8-34.26-57.425-9.8333-29.93-39.377-51.217-70.787-50.83-27.767-1.9641-48.028 17.764-67.884 29.904-11.517-0.41824-49.059 6.3156-18.231 12.037 22.173 3.7899 40.664 19.168 47.537 40.702 13.058 35.258 10.498 73.887 19.873 110.12 4.4802 23.546 8.9705 48.172 25.971 66.188 14.409 21.231 35.384 35.439 57.326 47.93 17.72 12.68 42.148 11.653 59.375 24.131 6.5838 23.349 3.7461 45.462-12.771 64.312-11.636 20.645-31.142 36.722-55.767 36.818-9.379 2.0742-41.442 2.0642-37.756 7.6708 22.848 0.51821 46.367-4.0898 69.335-4.4261-15.999 18.339-44.834 10.238-66.486 15.157 8.6285 3.4762 27.546 2.2201 35.89 10.945l2.8312-0.45556z" fill="param(fill)" fill-opacity="param(fill-opacity)" stroke="param(outline)" stroke-opacity="param(outline-opacity)" stroke-width="param(outline-width) 0.2"/>
</svg>
