<svg version="1.1" width="512" height="512" viewBox="0 0 512 512" xmlns="http://www.w3.org/2000/svg">
 <path d="m201.02 503.35c6.1273-8.7814-22.707-3.9324-3.1379-8.04 8.6608-3.2562 24.069 0.42149 28.023-9.7452 7.7287-29.157 7.0786-59.9 9.6724-89.835-2.3696-19.142 3.9856-37.626-0.0288-56.626-5.5754-20.644 0.12203-48.026-18.458-62.63-13.762-17.709-39.599-12.324-52.863-30.046-16.86-19.124-29.508-44.114-26.611-70.293-0.9712-26.29 5.2105-52.139 15.283-76.254 3.319-16.655 23.221-56.112-7.3092-55.67-6.8048 0.12053-14.433-3.4455-20.124 1.7863-8.8793 3.2044-23.017 32.137-20.717 9.213-1.931-24.833 23.619-29.694 39.903-39.898 18.453-9.6278 33.365 15.934 33.196 31.849 2.5747 26.955-9.8241 51.918-16.102 77.303-2.8968 22.105-5.1829 45.266 0.0171 67.114 9.5986 15.71 26.385-14.636 41.323-12.005 22.291-4.7409 43.072 7.5248 62.171 17.168 22.381 13.975 39.71 34.498 62.203 48.21 11.103 10.625 37.078 31.494 32.538 42.337-17.764-10.078-38.447-15.65-58.627-17.322-10.667 1.7816-31.804 1.3194-16.939 16.149 12.095 17.98 26.875 33.909 40.412 50.721-3.1789 18.695-15.803 37.453-19.502 57.198-5.4754 21.016-13.194 41.947-12.826 63.94-3.8024 7.5043-3.4159 33.893-10.777 30.056-0.74848-11-19.753 18.885-10.048 1.3652 9.8208-16.597 7.4429-35.516 17.036-52.031 7.5165-28.176 17.376-55.855 23.078-84.446 6.3234-21.769-12.384-36.587-23.492-52.503-9.9521-15.058-20.476-33.045-40.623-21.576-24.016 1.3471-8.3291 31.044-8.1601 46.045 1.9654 13.904 6.0746 27.698 8.3718 41.348-8.7393 38.799-12.346 78.756-11.903 118.48 10.328 15.759-20.469 18.539-32.253 19.208l-2.0004-0.14844-0.7256-0.41857z" fill="param(fill)" fill-opacity="param(fill-opacity)" stroke="param(outline)" stroke-opacity="param(outline-opacity)" stroke-width="param(outline-width) 0.2"/>
</svg>
