<svg version="1.1" width="512" height="512" viewBox="0 0 512 512" xmlns="http://www.w3.org/2000/svg">
 <path d="m274.47 494.94c-9.6659-15.927-30.068-28.864-22.996-52.221 3.0521-34.345 3.0445-69.263 10.52-103.03 14.668-9.958 41.022 1.7018 60.249-4.0334 13.195 7.5817 25.794-4.4 12.434-15.995-19.945-26.278-43.173-50.571-56.522-81.187-12.48-13.277-14.432-31.158 8.0753-30.725 20.689-4.8995 40.908-11.647 60.944-18.229 9.3312-1.4509 17.162-8.8311 26.913-4.6136 8.4348-0.52204 31.202 2.4756 28.305-0.83858-4.9139-4.976-20.84-17.013-20.917-18.971 18.357 12.19 35.234 26.433 53.169 39.086-4.4606-12.83-25.266-30.437-38.049-42.161-31.29-18.778-62.781-37.26-92.936-57.853-27.132-13.296-58.399-22.912-88.68-17.105-23.645 5.5176-44.069 25.802-48.868 49.563-0.95537 11.463 3.1143 49.514-16.115 34.257-3.7723-22.932 8.9466-43.829 24.373-59.607 13.815-16.93 30.784-37.929 22.962-61.214-6.2334-27.678-41.002-47.039-67.03-33.77-24.346 10.344-17.565 35.894-25.611 55.75-4.6043 20.669 12.255 40.482 29.667 49.251-13.831 17.421-19.704 41.348-17.117 62.974 6.5711 18.435 20.976 31.151 41.059 30.69 21.703 3.3691 41.19-8.3713 62.317-8.7678 25.829-0.69957 14.564 33.51 22.251 48.995 4.2879 23.257 7.796 47.853 1.7935 71.112-16.03 1.8885-37.427-2.038-42.437 18.427-7.3216 11.364-15.87 49.044 6.5056 40.762-10.296-7.2812 1.0788-18.361 2.6341-27.459 3.7899-1.6822 0.41197 17.062 6.4891 2.1615 5.9414-7.9081-12.087-23.69 7.6799-24.121 10.263-2.1732 22.989-3.7502 20.907 10.05 2.9784 29.065-1.5186 58.402-2.0205 87.551-1.8809 19.731-0.21316 55.119-30.199 47.979-6.8698 1.9548-15.03 7.702-2.9708 8.6157-12.688 12.83 15.196-0.55607 22.757 5.5483 12.853-1.551 36.786-2.8823 40.69 1.9708-0.0753-0.9481-0.15052-1.8962-0.22578-2.8443zm-12.106-173.84c-5.297-29.287-7.8869-59.091-11.114-88.68-2.4327-26.29 16.435 16.506 23.487 23.086 15.384 23.182 31.612 45.783 48.125 68.169-19.511 2.3361-39.679 0.74042-59.482 1.194-0.33827-1.2562-0.67655-2.5125-1.0148-3.7687zm-126.05-207.09c-5.3184-12.942-0.78789-27.329-3.8848-40.117 19.205-1.8755 16.439-44.024 37.056-24.341 13.21 16.962-9.5951 36.91-17.628 52.089-4.2219 2.3623-11.296 19.038-15.543 12.369z" fill="param(fill)" fill-opacity="param(fill-opacity)" stroke="param(outline)" stroke-opacity="param(outline-opacity)" stroke-width="param(outline-width) 0.2"/>
</svg>
