<svg version="1.1" width="512" height="512" viewBox="0 0 512 512" xmlns="http://www.w3.org/2000/svg">
 <path d="m232.67 497.73c-10.596-2.9045-36.12-6.0398-18.778-11.172-7.2947-7.5772-33.617-2.6795-31.99-11.421 16.387-6.8619 36.623-10.38 51.707-18.873 3.8279-40.46 2.5446-81.335 1.5137-121.94-3.8655-19.63-0.70466-38.731 0.98953-58.169-4.2233-16.238 3.6532-45.481-19.58-48.289-25.969-3.4984-57.232-5.1133-74.035-28.267-16.189-22.776-7.2985-54.346 9.5035-74.252 11.794-17.927 31.834-32.747 34.537-55.207 3.1151-15.521-10.591-29.19-22.859-14.902-22.292 1.6684-13.024 35.259-23.866 39.746-12.579-15.843-11.8-38.148 3.337-51.961 2.3256-21.284 27.748-31.274 41.369-13.319 19.245 19.697 23.249 53.307 5.0545 75.013-14.272 20.585-37.035 40.574-32.521 68.214 2.0536 20.521 30.003 18.873 30.103-1.8521 8.939-23.601 37.422-34.075 60.994-29.098 34.605 4.6968 60.443 30.415 84.092 53.848 9.1596 9.449 31.377 24.516 28.39 34.942-18.897-8.5781-39.321-23.121-60.884-14.019-16.268 4.9111-42.982 8.9919-31.935 32.299 2.0565 20.897 7.257 41.334 10.457 61.999-11.408 46.84-8.289 95.435-7.0404 143.18-3.6185 11.698 11.77 24.311 2.7834 33.425-8.8123 11.402-28.308 15.722-41.345 10.075zm26.421-26.918c3.8368-40.896 2.4885-82.211 1.5264-123.26-3.726-19.369-0.8817-38.178 0.89142-57.367-1.4109-18.297-4.0854-36.603-6.6082-54.697-22.818-4.6431-5.5277 27.1-6.4621 38.922 6.8246 17.183 2.2399 34.691-1.2706 51.915-4.7265 41.227-2.9279 82.99-0.51727 124.31 3.8824 6.0407 2.0186 30.881 12.44 20.172z" fill="param(fill)" fill-opacity="param(fill-opacity)" stroke="param(outline)" stroke-opacity="param(outline-opacity)" stroke-width="param(outline-width) 0.2"/>
</svg>
