<svg version="1.1" width="512" height="512" viewBox="0 0 512 512" xmlns="http://www.w3.org/2000/svg">
 <path d="m286.84 501.09c-16.156-18.281-34.415-35.535-43.236-58.94-7.6119-21.867-17.414-47.269-16.381-69.353 21.101-18.329 31.76-45.275 46.965-68.191 25.559-3.6763 51.736-4.1333 76.958-10.526 4.8393 7.3536 17.022 16.497 16.26 8.2085 12.711 1.0251 1.4169-12.126 1.9825-14.864 10.235 2.1927 28.607 30.658 34.623 21.521-5.853-6.6673 19.058 5.0679 2.8294-7.0977 17.681 5.453-3.5478-7.8159 12-8.5644-10.516-5.903-51.395-6.7694-22.647-17.53 17.104-10.94 36.533 12.274 53.912 17.379 14.6 8.6571 8.5166-22.834 20.183-23.257-8.1191-14.46 10.882-10.13-2.1733-22.809 4.3269-23.575-23.362-13.825-38.873-11.134-22.565 11.999-38.872-6.5678-59.784-13.138-22.797-8.3179-46.362-14.318-70.117-19.176-4.954-32.601-0.415-69.477 24.318-93.516 22.091-23.84 50.036-41.256 73.112-63.839 8.0986-8.009 14.142-49.242-5.1653-28.758-32.039 21.807-64.462 44.935-102.88 53.875-24.51 4.7784-31.019 31.223-36.053 51.933-7.7388 27.113-12.689 55.911-28.256 79.95-17.177 0.90593-34.357 3.0744-51.259 3.1446-13.756 9.7312-38.229-9.1293-44.957 17.259-9.74 16.648-17.857 37.01-35.393 47.02-19.911 2.8271-48.323 7.4637-37.811 35.068 23.744-5.5383 49.776-4.0154 72.529-14.334 12.136-10.114 29.831 16.999 46.119 2.6174 28.011-1.0647-3.878 31.383-8.5937 44.682-10.43 17.6-29.867 38.331-12.108 58.089 25.188 38.541 60.47 70.691 100.19 93.775 10.492 3.5937 24.155 9.8271 33.709 10.505z" fill="param(fill)" fill-opacity="param(fill-opacity)" stroke="param(outline)" stroke-opacity="param(outline-opacity)" stroke-width="param(outline-width) 0.2"/>
</svg>
