<svg version="1.1" width="512" height="512" viewBox="0 0 512 512" xmlns="http://www.w3.org/2000/svg">
 <path d="m319.25 484.19c7.59-18.458 26.123-23.076 30.187-34.812-8.0844-7.1964-3.1422-18.685-4.4512-28.157 0.66633-34.103-2.0844-68.823 5.9459-102.19-3.8655-11.625-3.8644-29.777 5.0521-11.652 4.5948-14.484 24.333 8.258 17.536-13.349 5.2091-7.3726 10.91 0.55942 14.222-13.229 7.3886-20.255 6.7353 15.65 10.927 4.8614 4.9577-10.597 8.0268-20.618 7.1196-1.7832-0.63363 17.163 3.248-0.11714 5.7536 2.615 3.0942 8.0058 10.627 19.294 9.8719 3.7566 8.4566 9.7957-1.983-17.034 8.6897 0.0612 12.228 11.159-7.3162-20.152 10.773-2.8283 0.97137-1.9425 5.9072-7.4079 4.1827-10.951 17.925 8.8334-11.217-18.743 9.2971-5.8891 5.7521 5.3813 28.915-0.31684 15.417-4.8496 10.09-0.71279 34.008-7.9915 10.614-5.7585-3.6043-1.2779 3.6167-4.4517-5.8577-3.8233 15.405-11.365-25.602 2.0862-7.3189-11.164 12.992-13.744-1.1829-3.7404-5.8698-7.6567 6.9869-7.4285 11.2-27.992-0.66905-9.1372-11.734 10.905-11.359 3.3654-12.937 1.3282-7.3578-0.75028 6.0646-22.84-6.5056-7.9342-13.355 11.286-6.8227-8.7207-23.211-6.7183-12.237-29.235-28.182-56.913-44.291-84-22.503-27.328-49.395-52.125-83.124-64.505-22.307-11.072-49.097-6.3326-71.645-7.318-12.131-7.118 3.3743-6.418-13.672-12.798-21.773-9.4679-43.975 1.0066-63.258 11.272-21.598 12.19-47.594 8.8196-70.971 15.437-16.823 3.7489-49.268 10.024-54.026 15.537 37.683 0.70364 75.47-7.628 113.01-2.8801 9.2001 0.94178 34.374 6.7472 12.209 11.217-23.457 11.848-22.082 42.297-14.667 63.619 6.8462 13.515 13.369 35.644 13.206 46.243 0.16154-8.1785 2.4714-21.776 5.8014-7.9938 3.7099-5.3548 3.2027 38.24 5.1302 19.281 0.70399 9.3627-2.562 36.671 2.2954 13.076 2.0274-9.8629 4.3271-34.665 5.4-11.325-0.4481 7.2704 1.4062 33.001 2.8659 11.709-0.32532-12.824 4.2945-25.37 3.9027-4.9411 0.80005 11.497-1.1984 34.418 0.843 38.625 2.0749-8.2556 2.3174-45.117 7.3827-19.242 3.4311 10.79 8.2525 29.257 12.139 34.76-4.4008-18.463-10.996-36.815-12.445-55.713 10.377 3.9142 7.1948 31.353 10.04 30.15 0.1801-11.341 0.94983-28.432 5.2615-7.0883 1.8427 10.071 3.6564 33.739 2.6192 9.7712 0.15519-9.5726-3.867-26.643 4.5933-12.587 12.895 18.618 47.456 12.598 44.836 40.624 7.6169 41.259-6.4478 82.753-22.775 120.23-5.5524 23.763-31.801 28.829-50.994 37.473-13.289 2.8202-22.867 27.791-6.0807 8.6485 17.874-2.0221 38.034-11.363 53.43-13.729-3.2799 10.889-38.335 18.833-28.672 21.793 17.672-2.0734 33.875-7.6797 44.349-23.364 13.371 3.2516 13.413-1.223 1.8647-6.5461-9.9467-18.845 6.3351-39.696 9.5252-58.833 5.2301-20.346 15.25-39.097 20.819-59.152-6.2697-13.834-29.087-50.682 1.9625-39.312 20.054 4.9846 42.361 0.60698 60.374 11.388 22.965 8.5497 3.2539 40.96 11.379 59.685-0.53249 30.68-0.41208 62.499-10.015 91.867-10.233 20.002-31.663 28.88-49.578 38.781-8.52 13.483 24.888-5.614 32.624-6.2154 10.601-6.6626 21.004-9.746 9.2281 4.3005-2.8687 0.81302-3.1139 22.321 0.35742 11.315z" fill="param(fill)" fill-opacity="param(fill-opacity)" stroke="param(outline)" stroke-opacity="param(outline-opacity)" stroke-width="param(outline-width) 0.2"/>
</svg>
