<svg version="1.1" width="512" height="512" viewBox="0 0 512 512" xmlns="http://www.w3.org/2000/svg">
 <path d="m260.51 483.75c0.30185-11.834 12.567-17.157 20.706-19.441-4.2176 8.6369 8.482-5.1758 7.0208 1.915 1.2019-17.142 9.8044-31.979 19.668-45.876 5.5007-16.573 20.623-18.75 34.368-19.848 11.492-9.2411-2.3315-25.625 1.3484-37.782 1.7378-8.3767 2.439 4.133 5.324 6.3218 0.9381 16.853 0.3204-13.839 1.9987-20.047 6.501-20.813-5.0462-41.112-5.8224-61.899-4.4547-24.209-15.862-48.282-37.354-61.789-24.226-19.197-57.686-22.665-80.586-43.671-11.881-13.3-17.204-33.164-13.698-50.689 3.7142-5.7527 5.4452-26.793 10.949-23.918 2.4518-2.3368 3.6862-1.9941 9.6259 3.1139-6.265-11.243-5.2366-7.1452 4.2095-2.7648 3.9704-5.1581 16.428-4.1408 11.164-12.009 10.321 2.9171-2.3957-3.4629 6.3251-5.1682-2.5002-3.6188 4.7746-4.4108-4.2156-6.6988 4.8163 0.51481 0.68874-4.3096 5.1608-7.9768-4.284-4.2679-26.337-3.7184-8.4303-5.6144 7.3478-0.33087-6.8615-1.2293 3.9531-2.8115 10.24-2.6486-20.475 2.9005-2.4241-2.1623 13.412-5.6697-16.586 2.8711-1.279-3.4354 11.172-7.5715-15.778 9.2621-8.5777-5.4619-0.37118-8.9471 0.4505-17.518 0.1008-28.275-3.4216-0.64707-1.8754 6.9024-2.3755 6.9132-2.4267 10.882 0.81507-6.1154-5.5941 6.9948 0.66481 2.6437 6.0025-3.7473-0.47864 4.4693-5.5941 0.12996 5.8887-12.846 4.1192-15.801-0.12713-7.5223-12.011 27.193-12.73 20.544 6.5619-8.3951 2.672-20.5-0.78373-15.765 0.42057 14.221-5.9998 20.097-1.9311 2.5034 2.3571-10.109-0.62286-1.6678-1.0422-5.1028 0.74513-13.366-9.1318 18.381-8.7843-0.06148 2.1338-9.5136-5.8721-8.637-2.6245 0.01294 3.2643-1.8853 2.5372 13.658-1.2774 0.83783 1.7268-0.69304-0.70958 14.767-2.13 1.9144-3.6893-11.058 2.0155 10.497-5.5907-0.82724 2.7111 7.1042 9.2224 22.756 1.4977 7.3535-7.8579-15.515-7.4714-0.41007-0.67889 7.8498-0.26791 5.8958-13.759-21.621-10.296-3.0117 2.9068 0.51298-0.96214-5.0307 5.2553 3.3715 3.995 9.3722-15.582-11.712-4.369 1.4445 12.041 11.109 5.7888 8.7256 1.2178 3.8264 7.6333 6.96 8.0503 8.2221-3.0994 10.576-6.9712 7.6026-1.3817 19.835-16.421 19.393-24.726 9.3575 28.233-1.7276 6.181 4.3715-21.55 4.7397 12.115 1.7471 18.008 8.099 9.2525 12.043 2.1783 31.126 0.38101 45.964-1.0665 22.214 5.0857 44.079 7.706 65.916 6.0874 15.559 2.5095 35.161 7.1921 49.45 4.0878-16.679 10.922 17.254 14.381 23.666 7.3197 23.797 27.414 42.319 29.097 67.977 4.9989 31.713 2.4009 64.054 1.853 96.01-0.0865 13.448 0.59708 30.401-17.57 28.256-13.137 10.656 10.892-3.8751 2.8627 7.3431 7.3328 1.1017 15.728-6.87 16.982 2.4774l1.5057-0.97918zm2.7632-36.105c-0.0505-19.634 0.78779-39.404 5.2168-58.58-2.92-18.155-8.6442-36.216-8.886-54.73 9.4835 6.4501 8.0505 6.9936 1.9407-1.6952-1.6346-11.484 13.952 10.207 20.24 15.622 4.2034 4.6854 1.6735 12.301 3.0029 18.237 2.6156-14.559 5.8146-3.8302 3.834 1.0721 8.7407-15.918 3.2298 21.067 13.015 25.091 23.544 6.288-2.2891 26.291-7.2268 38.705-12.375 10.113-14.167 23.634-27.668 33.663-6.3678 6.495-1.9205-15.342-3.4683-17.385zm78-89.204c0.96768-11.889 3.2298 8.1478 0.0757 2.8554zm-1.6831-4.6285c1.7618-1.8968-0.63068 5.7704 0 0zm6.4559-6.0625c-1.0588-24.896 7.5523 2.3956 0 0zm-122.74-245.25c3.488 0.72711 0.97164 6.4525 0 0zm3.9694-32c11.255-5.0017-6.4712 4.7068 0 0zm-5 0.10699c4.2581-3.6263 2.4178 1.8119 0 0zm-9.7623-17.107c-2.4992-9.0026 9.865-32.527 2.6732-11.442-1.834 7.5143-2.6453 38.424-2.8089 16.338l0.058-2.4243 0.0777-2.4718zm17.262 13.5c5.2963-3.6534-1.121 3.4464 0 0zm4.5-5.441c2.5225-3.916 2.7541 2.1021 0 0zm-23.683-4.7465c1.7618-1.8968-0.63068 5.7704 0 0zm15.683 0.87459c7.0935-7.6753 9.0956-7.4527 0 0zm6.5056-2.6932c3.9916-4.0152 1.6707 2.0755-1.2982 1.9255zm-17.093-6.0654c3.3676-10.074 0.0187 9.5968-0.8616 3.2472zm-5.1187-5.1785c1.319 0.32051-0.39944 9.6194 0 0zm-1.9873 1.519c1.4921 1.6368-0.67475 6.354 0 0zm28.739-4.3547c5.6377-5.9582-3.0269 7.0067 0 0zm-19.62-2.5017c4.968-9.0726-3.9042 11.924 0 0zm-22.426 13.897c-5.5768-9.4679-4.4297-0.2838 0 0z" fill="param(fill)" fill-opacity="param(fill-opacity)" stroke="param(outline)" stroke-opacity="param(outline-opacity)" stroke-width="param(outline-width) 0.2"/>
</svg>
