<svg version="1.1" width="512" height="512" viewBox="0 0 512 512" xmlns="http://www.w3.org/2000/svg">
 <path d="m299.99 493.61c2.679-2.5414 4.3754-4.3611 6.9727-2.9589 1.6716 0.90247 2.3368-2.2611 7.481-3.0037 6.3062-0.91032 16.586 1.7308 23.245-1.32 3.6324 1.1237 1.9006-1.5572 7.3897 1.9985 5.8029-6.4706-7.5957-15.984-16.448-13.092-27.706-2.2345-19.652-29.465-8.6514-45.322 4.0031-15.772 15.516-23.62 31.428-23.022 9.2443-0.92658 18.446 8.776 27.436 4.9238 18.548 9.9577 12.74-8.8623 14.28-11.121 12.481 8.3001 1.4921-25.428-1.1732-34.062-7.1201-12.803 0.079-9.4743 8.3045-10.545-4.3915-26.298-17.859-49.982-31.329-72.704-10.467-17.514-26.497-29.974-38.337-46.299-29.586-30.686-70.156-47.602-101.87-75.738-11.808-17.658 3.919-38.842 3.2552-58.192 2.7388-22.502 0.40947-45.64-8.0936-66.723 3.1352 0.14627 9.6962 0.48108 8.269-1.048-0.83864-0.89848-2.9545-3.9053-1.3616-4.9063 1.412-0.88728-0.84072-2.8689-2.1119-3.0011-2.1395-0.22251-1.3446-0.92483-1.8238-2.9514-3.1121-2.7448-6.8873-4.3328-11.087-5.2939-2.2145-0.5067-5.2653-1.4976-6.8366-0.9592-23.218-1.8984-38.139 18.047-56.354 28.291-18.369 7.6158-37.675 12.534-56.592 18.514 15.933 5.9373 36.307 0.12157 53.961 1.0368 18.443-3.3524 42.573 6.2567 38.102 28.85 3.2045 40.95-21.586 76.825-25.763 116.56-1.1867 33.528 21.675 61.13 33.018 91.199 15.246 31.995 27.727 67.022 54.747 91.248-9.2921 16.2-22.277 30.137-32.134 46.184-12.156 18.538-36.946 6.8734-54.998 10.44-11.16-2.3073-17.387 10.373-14.287 16.024 2.3217-5.3441 2.8811 0.91983 6.8211 0.68307 5.9228-2.7409 11.905 0.2458 7.8872 3.3998-2.7145 2.131 2.6577 7.5676 3.9637 8.1115 0.82367 0.34301-0.0221-8.1644 3.6615-4.8812 19.5 7.7833 38.3-6.3324 56.201-11.841-8.1282-18.858 17.39-32.946 25.668-48.547 8.2984-21.905 33.57-14.279 50.516-8.6047 20.945 5.7907 0.96234 32.129-1.8211 46.575-3.4122 22.467-32.227 19.101-42.903 33.517 0.498 0.95415 0.91944 5.6256 0.91944 5.6256 1.1462-0.84488 3.4885-4.7583 6.4093-2.1798 0.94912 0.8379 5.8019-0.22914 9.5503-1.1344 3.0062-0.72602 3.9031 3.696 7.3618 3.8874 11.022 0.60985 13.892 4.6248 13.892 4.6248s2.3158-1.9597 3.2353-2.2407z" fill="param(fill)" fill-opacity="param(fill-opacity)" stroke="param(outline)" stroke-opacity="param(outline-opacity)" stroke-width="param(outline-width) 0.2"/>
</svg>
