<svg version="1.1" width="512" height="512" viewBox="0 0 512 512" xmlns="http://www.w3.org/2000/svg">
 <path d="m98.188 501.62c-13.681-5.0797-25.671-12.005-29.144-24.787 3.1283-20.646 22.606-32.752 34.414-48.468 6.5321-8.3581 34.163-32.451 8.7945-19.478-15.786 0.49977 7.8376-30.344 10.319-41.156 28.615-47.763 48.538-102.21 88.979-141.82 13.671-12.306 35.191-12.623 46.335-27.417 19.267-16.647 8.7475-43.559 4.655-64.468-18.686-42.985-57.288-71.62-89.341-104.05 14.853 6.7396 33.834 24.327 49.208 36.144 8.068 8.0171 25.527 21.18 8.0962 4.4185-20.761-19.971-43.507-37.741-64.816-57.066 27.458 9.6302 50.122 30.237 72.185 48.893 10.871 9.7777 21.114 20.219 31.604 30.398-2.1415-8.9576-1.2448-41.909 8.2941-29.346 5.1697 2.4969 12.063-41.5 23.112-23.602-7.3846 20.696 20.574-27.16 21.952-1.9229 11.258-6.7784 20.973-23.83 35.311-22.395 12.936 2.9918 11.131 17.237 25.339 8.6482 22.643 1.3143-10.968 35.117 5.4228 25.819 12.018-13.744 30.724-1.0157 18.468 13.095-11.468 8.5934 15.86 11.398 4.1094 25.521 3.3766-0.88739 21.117 12.307 7.1052 17.966-12.87 11.861-31.379 13.62-47.065 18.089 12.226 3.3076 32.532-5.524 48.043-3.9768 27.279 8.0102-27.968 17.23-0.53792 26.352 4.742 15.458-29.403 5.4825-15.508 21.291-8.353 8.4436-22.74 4.5236-21.142 18.631-12.637 6.004-18.952 19.487-35.185 9.0178-12.737-9.4076-11.383 21.456-10.189 30.181 4.02 23.285-3.0142 47.173-6.3678 70.129-4.733 12.33-12.181 23.298-19.278 34.348 7.0564 14.746-8.2932 30.179-9.2173 40.573 16.184 3.1464 30.966-14.686 45.721 1.0994 6.3101 9.2533 13.251 14.911 26.211 14.259 19.304 1.5392 39.049 4.4923 57.465 10.399 5.6767 12.109-6.9384 29.9-21.929 26.2-21.381-0.35738-41.642-7.8449-62.975-8.2773-10.147 0.6765-30.088-15.242-25.769 0.97224-16.81-13.852-41.006-9.6065-61.187-14.844-14.948-12.255-31.206 4.1636-43.24 4.8338-6.293 13.35-22.211 5.1809-26.131 22.365-14.683 22.27-30.583 44.8-51.354 61.681-13.361 3.3079-27.905 14.045-40.767 11.755z" fill="param(fill)" fill-opacity="param(fill-opacity)" stroke="param(outline)" stroke-opacity="param(outline-opacity)" stroke-width="param(outline-width) 0.2"/>
</svg>
