<svg version="1.1" width="512" height="512" viewBox="0 0 512 512" xmlns="http://www.w3.org/2000/svg">
 <path d="m244.74 496.08c11.738-18.607 13.404-41.501 24.292-60.451 3.5089-21.918 14.036-41.778 17.317-63.688 0.29795-21.962 25.615-24.758 25.664-46.847 0.25299-19.932 10.227-37.759 11.173-57.729 6.5972-39.676 3.1483-81.155-12.334-118.46-8.6656-21.635-18.748-43.327-18.08-67.109 0.35729-21.791-3.2204-47.521-23.479-59.986-14.878-8.2564-34.123-9.423-49.639-1.9717-11.729 5.8197-25.255 1.4005-37.776 3.2341-13.563 0.50883-33.739 4.7037-36.754 20.03 11.642-14.312 32.951-13.826 48.989-8.2051 18.15 5.7229 24.165 26.357 25.645 43.335-4.6938 30.586-27.058 55.606-31.633 86.439 0.30255 12.711-1.725 21.692-15.645 19.477-20.122 4.2661 3.8876 3.3093 7.7941 10.643-7.5938-3.1897-34.113 11.326-13.71 6.4476 8.9512-3.3753 23.15 8.0522 6.5454 7.9949-9.3825 1.749-12.466 6.7432-0.88113 5.8106 17.611 7.6854 24.058 29.331 34.809 44.212 11.149 12.222 17.769 33.982 8.5463 48.765 15.53 2.9129 7.6688-29.149 24.894-17.393 23.946 1.0046 13.544 28.286 10.682 42.745-5.2206 19.613-18.035 36.429-21.537 56.714-11.196 28.062-19.396 57.325-32.19 84.815-5.8875 9.2011-3.8855 25.648 6.7667 10.729 17.854-16.903 27.448-40.212 38.539-61.702-0.17526 16.512-8.2078 33.56-7.2016 50.871-7e-3 5.3487-2.2051 35.591 9.2027 21.277z" fill="param(fill)" fill-opacity="param(fill-opacity)" stroke="param(outline)" stroke-opacity="param(outline-opacity)" stroke-width="param(outline-width) 0.2"/>
</svg>
