<svg version="1.1" width="512" height="512" viewBox="0 0 512 512" xmlns="http://www.w3.org/2000/svg">
 <path d="m273.71 460.73c-6.9273-21.114-6.373-44.573-13.501-66.047-3.3526-23.289-4.6106-49.483-23.756-66.18-6.3637-17.31-21.174 4.3061-22.997-16.512-14.229-31.559-39.543-57.033-52.829-89.278-11.062-26.606-19.115-54.403-32.618-79.983-6.6236-21.891-14.263-45.891-37.639-55.21-22.527-12.839-47.991-18.667-72.52-26.196 33.473 2.547 65.269 15.063 95.121 29.896 18.272 1.2678 37.272-1.4277 54.926 3.8631 23.042 10.45 31.815 36.3 46.334 55.257 6.106 5.9748 8.5933 18.968 16.48 21.458 22.189 1.0868 42.989-7.7501 60.473-20.914 24.426-15.528 46.457-35.482 72.753-47.681-7.4013 18.344-18.958 37.998-27.31 57.178 30.762-1.1898 62.366-0.57962 92.145-9.6805 21.664-5.0774 42.988-11.989 65.021-15.293-15.295 18.147-28.739 38.511-47.732 52.996-1.6728 20.002-28.359 9.1852-35.805 24.882-11.984 1.3725-14.19 17.129-29.567 14.214-3.0345 15.583-25.456 2.634-27.351 18.316-14.334 9.9008-28.714 16.54-46.443 19.172-25.393 0.95663-30.03 27.802-26.67 48.883 0.92893 48.414 8.07 97.793-2.4863 145.56 0.60456 4.0947-3.1986 3.1066-4.0306 1.2959zm-52.313-143.94c-2.6543-9.8169-1.6997 9.9144 0 0z" fill="param(fill)" fill-opacity="param(fill-opacity)" stroke="param(outline)" stroke-opacity="param(outline-opacity)" stroke-width="param(outline-width) 0.2"/>
</svg>
