<svg version="1.1" width="512" height="512" viewBox="0 0 512 512" xmlns="http://www.w3.org/2000/svg">
 <path d="m43.956 453.12c36.957-33.264 74.507-66.002 114.5-95.598 28.265-4.4073 45.225 11.739 62.112 32.126 26.051 21.739 62.019 18.993 91.01 34.655 12.241 13.181 23.185-10.933 12.343-8.5886-6.2449 24.795-0.66244-17.056-6.9398 3.0657 11.753-20.749 50.779-16.398 73.442-25.592 9.1206-3.2958 16.464-0.73629 22.033 2.0522 18.708 6.7492 45.664 16.518 67.775 28.142 8.2108 1.9801-36.126-19.79-46.211-25.486-14.302-8.3704-49.253-22.623-47.794-36.763 12.936-6.7354 47.235-14.262 13.73-8.8665 16.113-4.2318 51.235-16.387 13.617-8.5439-12.678 2.5277 53.556-20.158 11.835-9.5501-12.831 3.128-39.004 10.194-14.238-4.8959 18.126-6.9538 48.989-61.89 12.302-53.746-20.571 21.791 5.2528-21.68-0.73774-32.292 0.30501-24.488-29.866-8.9633-22.472-35.121-1.2915-22.246-24.656-18.593-30.855-12.352-4.0552-16.99-22.46-52.763-18.233-13.568 1.4583 25.197-6.805-31.178-12.432-37.201-10.673-8.9885 0.62387 48.766-7.6568 10.188-0.49392-12.972-16.893-62.071-13.941-21.722 1.7656 23.291-1.1352 12.347-5.4375-4.7944-2.3642-14.2-16.286-43.201-12.23-12.013 2.024 14.009 3.3175 33.47-2.3212 9.0446-2.5474-14.377-23.699-71.284-17.714-28.419 5.9985 36.271-21.33-67.245-17.591-21.19 2.2372 15.335 8.1352 46.65-1.246 15.062-4.4149-10.051-16.498-53.225-20.265-40.649 14.698 86.648 41.064 170.98 69.487 253.99 2.4725 31.489-30.047-3.9738-41.955 2.7259-10.409 2.7845-10.483-35.753-26.437-16.528-3.4558-15.703 23.708-60.011 0.74244-58.603-11.061 12.839 9.485-43.897-12.539-43.305 3.0671-19.866-12.346-29.101-20.26-24.578-2.081-14.734-18.891-43.816-12.472-9.9216 3.0407 12.709-22.263-60.903-16.452-19.838 6.3393 24.905-26.017-66.955-18.049-20.565 9.207 29.389-29.897-57.787-17.289-13.763 17.158 47.327-36.206-68.574-18.19-11.606-0.16467 3.1548-28.098-51.561-15.6-14.591 17.23 46.287-31.101-62.147-14.615-10.734 21.824 70.102 55.403 135.65 89.222 200.52 25.361 30.554-26.824 32.759-28.874 63.763-13.122 31.063-43.52 50.023-65.118 74.902-15.747 16.552-51.81 49.772-55.487 57.524l3.3999-3.0523zm280.88-30.808c8.1625-11.881-3.0406 11.872 0 0zm50.124-87.91c3.2377-4.632 3.522-0.78294 0 0z" fill="param(fill)" fill-opacity="param(fill-opacity)" stroke="param(outline)" stroke-opacity="param(outline-opacity)" stroke-width="param(outline-width) 0.2"/>
</svg>
