<svg version="1.1" width="512" height="512" viewBox="0 0 512 512" xmlns="http://www.w3.org/2000/svg">
 <path d="m201.17 431.69c-13.491-14.345-1.0434-37.256 12.965-45.857 14.773-10.715 8.1201-24.228-8.9188-24.238-38.95-11.489-74.157-33.653-102.06-63.057-18.05-15.093-31.481-34.853-38.001-57.543-6.7274-21.952-4.3415-46.589-18.734-65.798-6.9149-13.516-44.638 1.3969-19.714-12.837-10.05-2.9136-20.818 9.9414-9.6831-6.2649 12.346-15.771 10.528-41.138 32.899-49.644 23.748-10.181 47.556-22.267 73.548-25.095 12.76 2.119 4.76 5.3962 10.941 11.518 3.8208 3.3237-9.1037 0.95913 1.773 3.0598-12.782 4.4463 2.6811 8.3409 7.9735 18.407 4.4574 6.3406 14.414 15.547 14.721 21.004 14.902 9.9685 23.126 25.25 40.374 31.267 10.508 12.325 25.207 20.722 39.251 28.397 12.795 12.819 29.196 21.619 44.116 31.57 19.126 9.6486 33.015 28.217 54.693 33.157 19.688 4.6024 25.23 25.803 46.498 27.047 20.627 6.5644 42.392 11.433 59.894 24.703 18.407 10.982 43.029 10.758 57.507 27.545-6.1786 27.341-40.774 8.9965-58.408 4.9535-16.885-4.3545-33.312-12.461-51.136-10.266-23.761-0.0368-47.835-2.6628-71.299 2.224 16.289 2.8667-21.217 0.95079-8.8601 7.8744-11.933 2.0414-12.49 2.3195-10.095 5.1386-5.1028 2.8678-25.608 8.2666-8.5086 6.3734-13.892 3.6212-20.643 8.4889-21.823 22.748-1.768 18.483-41.862 6.7262-22.844 25.069 15.645 13.907-11.681 20.426-19.671 27.362-10.694-4.0229-18.004 5.5957-27.394 1.1843zm31.902-6.214c-1.8733-6.8612-13.056-11.236 1.3129-5.7252 14.695 2.0778 2.9683-27.481-4.9241-7.7073-8.4694 5.629-9.8562 21.472 3.6112 13.432zm30.01-40.052c6.0248-10.426-18.17 6.4806 0 0zm0.25076-5.3828c14.44-6.0683-8.3496-22.084-8.5139-3.2643-3.6949 6.4545 5.7151 5.3642 8.5139 3.2643zm-20.571-12.226c-13.486-0.55253 2.4099 1.2224 0 0z" fill="param(fill)" fill-opacity="param(fill-opacity)" stroke="param(outline)" stroke-opacity="param(outline-opacity)" stroke-width="param(outline-width) 0.2"/>
</svg>
