<svg version="1.1" width="512" height="512" viewBox="0 0 512 512" xmlns="http://www.w3.org/2000/svg">
 <path d="m395.25 499.56c-20.205-8.3984-20.254-28.897-15.387-47.484 3.5485-8.7571-6.7908-39.327 1.5777-15.54 3.6693 17.611 8.9389 34.058 19.005 49.024 3.6746 4.4682 4.011 26.053-5.1955 14zm-27.159-76.856c-15.471-42.275-30.391-85.03-52.172-124.62-6.5732-16-0.67173 5.8272-4.1251 6.6491-14.888-24.154-35.618-48.433-35.652-78.191 3.9058-10.996-2.6524-22.113-14.47-17.877-16.45-0.41395-36.772 6.7899-43.124 22.465-15.41 3.1574-23.79 20.689-41.474 14.015-17.471 3.1703 6.6931-20.443 12.685-24.864 14.109-7.8858 36.506-25.035 11.902-36.339-20.449-15.435-37.166-37.224-45.096-61.701-8.7957-17.752 10.045-37.569-2.2652-53.51-14.76-14.989-40.167-12.427-55.156-25.731 15.732-5.7316 33.472-1.8392 49.504-5.1549 19.823-10.773 46.829-17.55 65.251-0.38091 16.362 11.393 9.8145 35.508 25.216 47.923 17.094 14.818 36.925 28.647 44.86 50.983 8.8429 17.068 7.9401 38.051 18.875 53.881 14.344 11.341 32.491 17.128 47.385 28.045 5.9921 8.9879 42.931 5.6914 23.575 16.376-9.0133 26.465-36.767 0.49565-48.137-11.117-5.7128-9.0546-26.518-12.35-13.44 2.2689 24.542 41.657 25.161 91.513 42.618 135.8 5.5171 17.068 15.498 41.876 18.148 54.406-12.665-31.574-21.394-64.824-36.112-95.498-6.497-2.0801 4.6805 25.154 6.955 32.797 9.0436 25.654 19.138 50.927 28.053 76.626-1.5534-2.2562-2.5822-4.8088-3.8021-7.2451zm-136.55-225.27c7.7088-14.388-19.146-18.383-26.617-29.242-6.6252-5.7599-25.755-25.745-12.471-6.6371 10.058 15.161 24.849 26.499 36.594 40.418 2.8796 3.4407 2.2813-4.6581 2.4944-4.5386zm55.906-9.1908c-5.0111-13.613-8.3505 1.6288 0 0zm-105.39-39.727c-6.7403-11.69 0.48315 10.934 0 0zm3.7638-61.035c-7.4878-3.7256 5.256 5.9404 0 0zm-11.154 0.12574c-2.4314-3.7746-2.6546 2.0262 0 0zm-5.4045-2.0635c-0.24161-18.373-14.642 0.40452 0 0zm9.2601-1.3295c-6.6404-11.806-5.3504 3.9624 0 0zm-19.249-19.262c-3.5954-7.1008-3.2983 1.4599 0.67435 1.6371z" fill="param(fill)" fill-opacity="param(fill-opacity)" stroke="param(outline)" stroke-opacity="param(outline-opacity)" stroke-width="param(outline-width) 0.2"/>
</svg>
