<svg version="1.1" width="512" height="512" viewBox="0 0 512 512" xmlns="http://www.w3.org/2000/svg">
 <path d="m293.21 496.89c-36.385-35.946-76.963-67.356-113.61-102.99-9.4932-9.2679 4.2989-21.292 3.1239-29.756 8.801 0.8198 9.9156-9.0801 15.987-8.9817-2.7502-13.959 11.65 8.2172 10.967-8.0661 14.997-14.668 37.916-26.179 50.425-42.2-25.303-23.801-54.115-46.638-66.183-80.581-12.49-29.677-23.729-62.895-12.955-94.918-1.2508-21.471-18.318-40.009-32.919-55.099-22.12-16.383-49.699-23.508-73.476-37.3-11.936-5.2074-22.801-12.41-2.9214-9.625 28.861 1.7313 57.125 10.348 85.371 14.6 27.282-9.2728 59.05-12.022 84.359 4.2637 21.649 8.4578 33.699 28.331 36.32 50.87 4.6644 21.517 10.346 43.637 25.092 60.688 19.868 34.188 51.232 61.091 64.402 99.212 10.402 26.465 18.681 53.734 27.065 80.826 3.9024 17.653-17.085-10.098-14.047 8.435-2.8701 24.307-8.1062 48.646-3.5981 73.106-1.9709 9.8584 7.9426 14.003 13.567 20.21 19.684 17.409 37.72 37.173 59.233 52.127 0.91025 4.5736 24.923 19.45 10.433 17.428-51.547-0.1095-103.09-0.21901-154.64-0.32851-4-3.9738-8-7.9476-12-11.921zm40.644-120.83c-2.388-13.384-17.514-51.166-28.445-23.644-10.261 12.076 18.036 7.8082 12.665 22.516 7.7442 7.1794 25.575 23.335 15.78 1.1279zm-18.144-6.2044c-5.2152-10.247-6.0454 4.3658 0 0zm-93-20.651c-8.2317-8.4428-9.4002 11.928 0 0zm75.085-3.5003c5.9653-15.217-19.417-22.266-28.975-31.992-11.556 8.5823 14.34 18.673 12.847 30.649 5.1517 4.9369 12.727 12.467 16.128 1.3436zm-84.079 5.2009c8.6446-15.63-10.504 5.1921 0 0zm21.994-9.191c-5.3976-12.076-12.357 9.0651 0 0zm17.101-4.684c-0.80622-16.293-8.2465 6.287 0 0zm23.899 0.74744c-4.236-9.1228-3.9911 4.7611 0 0zm-33.193-7.1489c-2.6954 1.0174-0.72002 4.2677 0 0zm18.693-4.4735c-12.964-10.814 9.3452 10.662 0 0z" fill="param(fill)" fill-opacity="param(fill-opacity)" stroke="param(outline)" stroke-opacity="param(outline-opacity)" stroke-width="param(outline-width) 0.2"/>
</svg>
