<svg version="1.1" width="512" height="512" viewBox="0 0 512 512" xmlns="http://www.w3.org/2000/svg">
 <path d="m393.94 434.36c2.2094-1.9016 3.3504-2.1986 6.7064-1.7452 4.9988 0.67535 11.833-1.8512 19.989-7.3902 6.4962-4.4115 8.2799-6.9208 12.309-17.316 3.6654-9.4572 4.6625-17.081 2.5148-19.229-3.2425-3.2425-1.1638-17.505 5.1733-35.496 2.0413-5.795 4.2298-11.013 4.8635-11.595 0.87961-0.80854 0.98184-0.60582 0.43226 0.85713-0.3959 1.0539-1.08 3.2095-1.5202 4.7903-0.68014 2.4425-0.62918 2.5945 0.33929 1.0124 0.62681-1.024 3.7643-4.7049 6.9723-8.1798 3.2079-3.4749 6.6076-7.5007 7.5547-8.9463 0.94715-1.4455 1.9294-2.4209 2.1828-2.1675 0.25339 0.2534-1.2811 3.0692-3.4101 6.2573-2.1289 3.1881-3.5928 5.7966-3.2529 5.7966s3.1753-2.479 6.3011-5.5088c6.0465-5.8609 6.0515-5.9505-0.25391 4.5508-2.4539 4.0869-2.6913 6.3055-0.28403 2.6551 0.94815-1.4378 4.5021-5.1024 7.8977-8.1435 5.4241-4.8579 5.8421-5.0854 3.4424-1.8737-4.374 5.854-2.3194 5.0637 3.6788-1.4151 4.5995-4.968 5.2437-5.412 3.8655-2.664l-1.6539 3.2976 3.4241-3.3532c1.8832-1.8443 4.9701-6.3711 6.8598-10.06 1.8897-3.6885 3.2219-5.6286 2.9605-4.3113-1.5535 7.8292-1.4808 7.9679 1.2541 2.3951 7.563-15.41 8.6792-44.017 2.784-71.353-4.3418-20.133-12.305-39.088-23.542-56.041-7.3479-11.085-24.554-28.97-35.701-37.109-27.988-20.436-66.011-36.646-100.54-42.864-55.289-9.9556-99.34 1.1903-122.09 30.891-3.2485 4.2412-6.0811 7.0866-6.7036 6.7338-0.59292-0.33598-1.6848-1.0826-2.4263-1.6593-0.74154-0.57662-2.6641-1.0484-4.2724-1.0484-2.0938 0-3.2401-0.62773-4.0369-2.2108-0.93143-1.8505-1.2099-1.9577-1.7087-0.65782-0.83213 2.1685-2.5256 0.84204-2.5256-1.9782 0-1.2862-0.43112-2.3386-0.95806-2.3386-0.52693 0-0.95805 0.43113-0.95805 0.95806s-0.43113 0.95806-0.95806 0.95806-0.96765-1.1856-0.97937-2.6347l-0.0213-2.6347-3.536 4.5992 0.45026-5.1738 0.45028-5.1738-2.9511 4.5508c-2.7284 4.2073-5.7998 6.3368-4.5891 3.1817 0.28894-0.75298 0.81944-3.0164 1.1789-5.0298l0.6535-3.6608-2.9985 4.0717c-2.9061 3.9463-4.9026 5.177-4.9026 3.0221 0-1.2865 3.2975-6.1761 6.5608-9.7285 4.8203-5.2473-0.92107-2.4424-8.7164 4.2583-5.6084 4.8209-6.3394 5.0715-4.4399 1.5224 1.047-1.9563 1.0077-1.9537-1.9161 0.12822-3.9091 2.7835-3.7743 1.7185 0.4323-3.4151 1.8795-2.2937 3.1043-4.1704 2.7217-4.1704-0.3826 0-2.9797 1.7245-5.7714 3.8322-5.7702 4.3565-6.8688 4.7518-4.7333 1.7029 2.8838-4.1172 1.604-5.0725-2.1013-1.5686-5.8881 5.568-13.515 10.227-9.5261 5.8185 0.85197-0.94142 2.2444-3.3758 3.0942-5.4097l1.5451-3.698-5.5803 5.0255c-7.2529 6.5317-9.5192 7.6275-11.153 5.3929-1.1325-1.5488-1.3315-1.4671-2.5251 1.0365l-1.2958 2.7177-0.71648-2.3951c-0.39408-1.3173-0.75948-1.9165-0.812-1.3316-0.1469 1.636-6.796 8.3467-6.8452 6.9086-0.0238-0.69619-1.1132 0.67428-2.421 3.0455l-2.3777 4.3113 0.55001-3.3532c0.48949-2.9841 0.40281-3.1703-0.78742-1.6915-0.7356 0.91394-1.6182 1.381-1.9613 1.0379-0.34309-0.3431-0.65723 0.41807-0.69806 1.6915-0.0408 1.2734-0.8281 4.4577-1.7494 7.0761-1.5247 4.3333-1.7354 4.5484-2.346 2.3951-0.65937-2.3255-0.70081-2.306-2.4405 1.1487-1.9884 3.9486-3.4092 9.9099-3.0335 12.728 0.22438 1.6828 0.0768 1.7311-1.4647 0.47903-0.9428-0.76572-1.4443-0.94052-1.1145-0.38843 0.32985 0.55209 0.22713 1.6067-0.22828 2.3435-0.48136 0.77885-0.42401 2.0946 0.13699 3.1428 0.53074 0.9917 0.72017 2.441 0.42096 3.2208-0.43883 1.1436-1.2404 0.89786-4.1455-1.2708-1.9808-1.4787-2.9968-1.9191-2.2578-0.97881 1.452 1.8475 2.7722 16.011 1.4924 16.011-0.423 0-1.521-0.68048-2.44-1.5122-1.5682-1.4192-1.6395-1.2777-1.1592 2.303 0.4254 3.1716 0.20971 3.8928-1.2787 4.2752-1.5631 0.40164-1.5789 0.47416-0.12452 0.57119 1.1824 0.0788 1.6327 0.87583 1.5516 2.7458-0.22076 5.0917-0.77549 6.0804-2.8028 4.9954-1.7457-0.93429-1.8518-0.61879-1.8525 5.5096-9.2e-4 7.9069-1.624 11.577-14.525 32.847-9.2269 15.212-26.459 48.345-28.572 54.937-0.91205 2.8456-0.92101 3.9327-0.03947 4.7903 0.86994 0.84637 1.7462 0.40318 3.6961-1.8695 1.4057-1.6384 3.4818-3.4622 4.6135-4.053 1.1317-0.5908 4.774-5.5016 8.0939-10.913 16.264-26.51 32.07-48.069 43.176-58.893 7.3796-7.1918 21.965-16.737 23.556-15.416 0.96205 0.79843 1.0945 0.64677 0.58802-0.67315-0.5585-1.4554-0.21998-1.6401 2.3226-1.2669 1.637 0.24027 2.7809 0.12055 2.542-0.26603s0.10719-0.92123 0.76914-1.1881c0.67041-0.27029 0.39012-0.51873-0.63274-0.56086-1.0099-0.0416-1.5257-0.38618-1.1462-0.76573s2.175-0.56216 3.99-0.40579c2.7915 0.2405 3.2018 0.0288 2.6635-1.3739-0.56406-1.47-0.17018-1.5837 3.469-1.0018 3.4201 0.54689 4.0134 0.41679 3.5543-0.77946-0.30306-0.78976-0.22905-1.6349 0.16445-1.8781 0.95789-0.59204 6.8653 2.3118 6.8653 3.3746 0 1.6334 1.9168 0.81196 1.956-0.83821 0.0623-2.6196 5.9255 4.5464 9.8451 12.033 1.8458 3.5255 4.0891 8.9967 4.9851 12.158 1.5781 5.5683 3.3331 8.9122 3.3331 6.3506 0-3.7003 7.6127-5.5256 9.5038-2.2788 0.5371 0.92213 0.98965 1.2658 1.0057 0.76362 0.0381-1.1938 7.6936 6.2817 7.6936 7.5126 0 0.51781 1.7245 2.9866 3.8322 5.4863 2.1077 2.4996 3.8625 5.1141 3.8996 5.81 0.0371 0.69585 0.37169 0.49457 0.74366-0.4473 0.60017-1.5196 1.1321-1.3224 4.723 1.7513 2.2256 1.9051 4.0532 4.1846 4.0613 5.0657 0.0125 1.3607 0.14901 1.3895 0.90652 0.19172 0.76395-1.208 0.98267-1.1736 1.5252 0.24013 0.94486 2.4623 8.8445 5.6315 14.55 5.8371 2.7611 0.0995 5.1357-0.16557 5.2768-0.58905 0.14116-0.42347 1.9131-1.0388 3.9377-1.3673 2.6278-0.42643 3.9236-0.21436 4.5286 0.74114 0.63643 1.0051 0.85115 1.0318 0.86217 0.1072 0.0213-1.7865 2.8573-0.0799 8.0295 4.8318 4.1487 3.9397 11.822 9.2849 10.682 7.4418-0.33249-0.53796 1.7074-0.89211 4.9801-0.86462 4.8464 0.0407 5.9637 0.42767 8.8874 3.078 3.1227 2.8307 3.1861 2.8491 0.95806 0.27773l-2.386-2.7537 2.3951 0.67887c1.3173 0.37339 3.6423 1.5632 5.1666 2.644 1.5243 1.0808 2.4689 1.4755 2.0991 0.8772-0.36978-0.59831-0.25102-1.0878 0.26392-1.0878 6.349 0 8.964 10.714 4.6857 19.198-1.235 2.4491-3.6898 5.2638-5.7478 6.5906-4.6903 3.0237-3.927 3.6146 1.5433 1.1948l4.3378-1.9188-0.96034 2.5259c-0.52819 1.3892-1.3964 3.0514-1.9295 3.6936-0.65577 0.79015-0.63785 1.7867 0.0554 3.0821 0.56349 1.0529 1.0446 2.9127 1.0691 4.133 0.0349 1.7347 0.55401 1.2404 2.38-2.2663 3.8485-7.3906 5.4726-7.2746 2.8344 0.20262-0.79602 2.2562-1.2784 4.2711-1.0719 4.4775 0.20647 0.20647 1.9356-1.4473 3.8425-3.6751 3.7121-4.3368 4.337-3.81 2.03 1.7115-1.8206 4.3573-1.8111 4.4311 0.41605 3.2391 2.8927-1.5482 3.1497-1.2531 2.4607 2.8251-0.52288 3.0949-0.25056 4.3181 1.4396 6.4669 1.1465 1.4575 2.3951 2.65 2.7748 2.65s2.0866 1.5904 3.7934 3.5342c2.8854 3.2864 5.3733 4.5448 11.769 5.9534 2.4201 0.53299 2.4952 0.73234 1.6664 4.421-0.47736 2.1246-2.2892 7.4086-4.0264 11.742-2.8321 7.0653-3.7791 8.3801-9.1657 12.727-3.304 2.666-6.8561 6.1881-7.8936 7.8267-2.4205 3.8229-6.0729 5.0478-15.113 5.0684-7.9888 0.0182-17.74 1.7997-25.36 4.633-2.7037 1.0053-6.8559 2.1459-9.2271 2.5346-5.4772 0.89788-9.5806 2.9838-9.5806 4.8704 0 1.3097 0.22813 1.307 2.1293-0.0246 2.4216-1.6961 14.641-2.0787 17.032-0.53333 1.2156 0.78561 1.1674 0.93097-0.31321 0.94339-1.929 0.0162-7.3512 4.9706-7.3512 6.7169 0 0.60593 1.1355 0.20813 2.5243-0.88436 1.9212-1.5112 3.9241-1.9896 8.383-2.0023 3.2223-0.01 8.7625-0.63202 12.312-1.3842 4.5031-0.95428 9.4793-1.1962 16.468-0.80041 11.544 0.65372 16.939-0.45447 21.744-4.4662l3.1525-2.6319 2.3604 4.8892 2.3604 4.8892 1.1741-11.018c2.472-23.198 6.5444-32.425 24.852-56.308 0.79244-1.0338 3.5569 1.5651 5.2037 4.8919l1.9763 3.9926 7.6e-4 -4.1261c7.5e-4 -4.074 0.0277-4.1072 2.1328-2.6328 1.1726 0.82133 2.879 2.8936 3.7921 4.6051l1.6601 3.1118 0.0401-3.1702c0.0236-1.8613 0.43574-2.9258 0.99823-2.5781 0.52693 0.32567 0.95805 2.1508 0.95805 4.0558v3.4637l2.2174-2.0831c2.777-2.6088 3.531-2.621 3.531-0.0568 0 1.9335 0.10819 1.9554 2.3614 0.47903 3.1752-2.0805 3.3869-1.9975 3.3869 1.3269 0 2.8222 1.228 3.8046 2.3951 1.9161 1.0897-1.7631 5.0159-1.0726 5.5517 0.97641 0.45381 1.7354 1.0322 1.8735 5.6206 1.3419 4.7128-0.546 5.8203-0.24828 14.096 3.7891 4.9396 2.4099 11.531 4.8834 14.649 5.4967 7.0212 1.3813 8.4652 3.1826 8.4652 10.559 0 7.8767-2.7922 15.699-9.0608 25.382-7.9837 12.333-9.9825 14.113-20.367 18.137-4.9579 1.921-10.173 4.5488-11.589 5.8394l-2.5745 2.3466 2.9907-0.57729c3.5569-0.68657 8.5249 0.36429 7.3372 1.552-0.45653 0.45653-4.6312 1.2153-9.277 1.6862-8.3626 0.84763-12.773 2.7084-13.813 5.8273-0.31964 0.9589 0.15081 1.0987 1.8557 0.55148 4.2508-1.3644 9.2352-1.6695 9.8928-0.60548 0.77093 1.2474 7.2412 1.336 12.271 0.16797 3.3788-0.78463 4.8305 2e-3 2.5756 1.3956-1.0149 0.62721-3.1074 5.2613-2.6024 5.7632 0.14648 0.14556 1.4644-0.76653 2.9287-2.0269zm-202.57-148.92c0-1.3173-0.21746-1.8562-0.48323-1.1976-0.26578 0.65867-0.26578 1.7365 0 2.3952 0.26577 0.65866 0.48323 0.11975 0.48323-1.1976zm-9.7577-16.766c-4e-3 -4.2154-0.17191-5.8208-0.3743-3.5674-0.20238 2.2534-0.19954 5.7024 7e-3 7.6645 0.20586 1.9621 0.37145 0.11839 0.36798-4.0971zm24.204-3.9121c-0.046-1.1161-0.27299-1.3431-0.57882-0.57883-0.27676 0.69159-0.24273 1.5179 0.0756 1.8363 0.31835 0.31835 0.54479-0.24751 0.50319-1.2574zm-11.497-1.9161c-0.046-1.1161-0.27299-1.3431-0.57882-0.57883-0.27676 0.69159-0.24273 1.5179 0.0756 1.8363 0.31835 0.31835 0.54479-0.2475 0.50319-1.2574zm-4.8659-3.2734c0-1.3173-0.21746-1.8562-0.48324-1.1976-0.26577 0.65867-0.26577 1.7365 0 2.3951 0.26578 0.65867 0.48324 0.11976 0.48324-1.1976zm-69.863-24.51c-0.046-1.1161-0.27299-1.3431-0.57882-0.57883-0.27675 0.6916-0.24272 1.5179 0.0756 1.8363 0.31835 0.31836 0.54479-0.2475 0.50319-1.2574zm-3.8322-1.9161c-0.046-1.1161-0.27299-1.3431-0.57882-0.57883-0.27675 0.69159-0.24272 1.5179 0.0756 1.8363 0.31835 0.31835 0.54479-0.24751 0.50319-1.2574zm8.3838-6.6266c-4e-3 -3.6885-0.17741-5.0801-0.38481-3.0923-0.20739 1.9877-0.20392 5.0056 8e-3 6.7064 0.21165 1.7008 0.38134 0.0744 0.37708-3.6141zm-7.4257 0.87822c-0.046-1.1161-0.27299-1.3431-0.57882-0.57883-0.27676 0.69159-0.24273 1.5179 0.0756 1.8363 0.31835 0.31836 0.54479-0.2475 0.50319-1.2574zm-48.546-31.692c-0.65866-0.26578-1.7365-0.26578-2.3951 0-0.65866 0.26577-0.11976 0.48323 1.1976 0.48323s1.8562-0.21746 1.1976-0.48323zm21.556-8.6742c-1.4491-0.21952-3.8203-0.21952-5.2693 0-1.4491 0.21951-0.26347 0.39912 2.6347 0.39912s4.0837-0.17961 2.6347-0.39912zm-65.744-2.9065c1.1917-1.5195 1.1578-1.5534-0.36172-0.36172-0.92213 0.72319-1.6766 1.4777-1.6766 1.6766 0 0.78852 0.78675 0.28101 2.0383-1.3149zm0.1173-24.825c-0.65866-0.26578-1.7365-0.26578-2.3951 0s-0.11976 0.48323 1.1976 0.48323c1.3173 0 1.8562-0.21745 1.1976-0.48323zm5.6885-0.97802c-0.69159-0.27675-1.5179-0.24272-1.8363 0.0756-0.31835 0.31835 0.2475 0.54479 1.2575 0.50319 1.1161-0.046 1.3431-0.27299 0.57883-0.57883zm57.304-4.4975c0-0.19895-0.75447-0.95342-1.6766-1.6766-1.5195-1.1917-1.5534-1.1578-0.36172 0.36172 1.2516 1.5959 2.0383 2.1034 2.0383 1.3149zm14.586-6.9438c0.52025-0.91647-1.986-7.5298-2.6152-6.9006-0.21321 0.2132 0.18096 2.0416 0.87592 4.0631 0.69497 2.0215 1.4776 3.2984 1.7393 2.8375zm-17.939-4.1912c-0.95374-1.0539-1.9496-1.9161-2.2131-1.9161-0.26346 0 0.3013 0.86225 1.255 1.9161s1.9496 1.9161 2.2131 1.9161-0.3013-0.86226-1.255-1.9161zm28.111-4.7903c0-1.3173-0.21746-1.8562-0.48324-1.1976-0.26577 0.65866-0.26577 1.7365 0 2.3951 0.26578 0.65867 0.48324 0.11976 0.48324-1.1976zm-39.129-6.1101c0-0.19895-0.75447-0.95342-1.6766-1.6766-1.5195-1.1917-1.5534-1.1578-0.36172 0.36172 1.2516 1.5959 2.0383 2.1034 2.0383 1.3149zm38.1-3.4705c0-1.8443-0.19717-2.5987-0.43815-1.6766-0.24097 0.92213-0.24097 2.4311 0 3.3532 0.24098 0.92213 0.43815 0.16766 0.43815-1.6766zm-11.624-7.1854c-0.0029-5.2693-0.16338-7.3027-0.35752-4.5187-0.19415 2.7841-0.19211 7.0953 0.0048 9.5806 0.19638 2.4853 0.35522 0.2074 0.35273-5.0619zm11.695 1.4371c0-1.3173-0.21746-1.8562-0.48323-1.1976-0.26578 0.65867-0.26578 1.7365 0 2.3952 0.26577 0.65866 0.48323 0.11976 0.48323-1.1976zm29.973-15.089c1.1917-1.5195 1.1578-1.5534-0.36172-0.36172-1.5959 1.2516-2.1034 2.0383-1.3149 2.0383 0.19894 0 0.95341-0.75447 1.6766-1.6766zm-51.933-1.7564c-0.04599-1.1161-0.27299-1.3431-0.57882-0.57883-0.27675 0.6916-0.24272 1.5179 0.07559 1.8363 0.31835 0.31835 0.54479-0.2475 0.50319-1.2574zm-0.95806-5.7483c-0.04599-1.1161-0.27299-1.3431-0.57882-0.57883-0.27675 0.6916-0.24272 1.5179 0.07559 1.8363 0.31835 0.31836 0.54479-0.2475 0.50319-1.2574z" fill="param(fill)" fill-opacity="param(fill-opacity)" stroke="param(outline)" stroke-opacity="param(outline-opacity)" stroke-width="param(outline-width) 0.2"/>
</svg>
