<svg version="1.1" width="512" height="512" viewBox="0 0 512 512" xmlns="http://www.w3.org/2000/svg">
 <path d="m316 455.69c9.4267-13.796 34.446-7.7826 44.937-4.7554-6.2177-13.374-15.593-28.585-24.359-39.714-5.761-5.2458 0.22609-17.529-0.72236-25.088 10.12-18.079-23.672-43.26 2.5655-54.642 15.373 9.4581 28.724 24.396 44.653 34.27 19.295 14.929 41.615 24.913 61.741 38.535 6.3602 0.094 19.723-0.8187 10.038-11.473-4.829-14.707-23.999-28.232-22.014-42.584 20.606 17.154 0.10787-17.311-4.6303-24.233-11.708-17.315-18.551-37.386-33.351-52.577-23.291-31.762-59.907-48.889-95.869-62.066-19.907-9.3861-38.64-21.147-57.939-31.696-10.96-10.799 0.11906-38.676 9.0182-39.743-1.2649-20.038 7.1528 9.9787 7.4206-9.6355-0.67282-9.4638-9.0152-22.679 5.3197-11.301-7.9082-13.621 12.661 1.0168 6.0692-10.046 19.557 0.77759 2.2758-2.9753-5.3369-10.207 7.6058 2.3118 22.16 9.3233 9.3028-2.2336-9.639-5.9915 3.7778-14.931-12.706-14.779-25.196-5.8823-50.618-15.767-76.879-10.18-22.234 5.1896-44.488 17.861-57.47 37.027-8.1636 23.503-38.656 21.169-57.127 33.189-14.581 4.0913-43.937 26.274-10.903 19.558 27.901-1.175 55.203-7.7086 82.861-10.416 19.99 1.5686 11.386 15.543 10.546 30.26-1.7996 18.723 3.042 44.64-17.55 54.657-27.074 5.2629-13.082 35.509-4.9904 51.469 16.643 29.3 47.446 46.797 78.823 56.395 20.937 4.5121 36.157 20.768 38.884 41.46 7.6868 19.001-7.9441 40.015-29.36 37.374-8.9493 1.0852-34.934 2.0003-30.975 11.521 14.719-9.1555 17.119 1.8528 9.3818 10.524 16.268-10.964 45.208-16.461 54.191 5.0002 3.6148-9.5406 7.2516-22.5 11.061-28.047-8.5691-4.966-5.7675-13.63-4.9347-21.735-0.0416-9.4482 5.0815-19.93-1.6892-28.031-12.869-13.716-4.674-27.254 13.665-22.974 12.847-0.36999 26.11-4.9722 38.603-5.0073 16.941 9.0249 19.012 30.178 21.749 46.19 1.8914 24.707-18.982 35.662-38.672 43.62-11.691 0.94033-18.335 26.445-4.5508 10.383 13.344-5.762 27.361 12.202 30.792 13.77l0.22452-1.1226z" fill="param(fill)" fill-opacity="param(fill-opacity)" stroke="param(outline)" stroke-opacity="param(outline-opacity)" stroke-width="param(outline-width) 0.2"/>
</svg>
