<svg version="1.1" width="512" height="512" viewBox="0 0 512 512" xmlns="http://www.w3.org/2000/svg">
 <path d="m282.75 498.56c4.8328-7.1712 20.964-24.651 0.80304-16.614-10.306 4.892-49.586 12.829-23.687-3.0557 7.9731-3.8438 43.142-12.422 16.204-13.359-11.299 1.0831-22.96-5.9009-5.1825-7.8082 9.4711-2.0213 43.056-0.56145 17.321-7.8093-16.512-11.692 38.004 2.9763 11.804-8.7028 1.5514-4.7363 16.884-1.6886 14.098-15.195 6.1563-24.395 12.104-48.963 11.887-74.305 0.9556-17.938-0.41025-37.226-6.6408-53.989-13.136-5.2616-6.8554-23.664-17.927-27.983-10.161-10.832-18.936-11.503-28.29-12.505-3.5239-5.575-5.5202 20.218-10.35 2.3472-2.0186 10.61-7.7827 15.893-8.5857 0.61843-10.12-3.9632-11.799-23.651-16.635-7.556-5.5619-13.469-19.944-20.05-31.115-28.067-11.777-2.2367-18.871-20.523-28.244-22.987-15.727-20.445-26.358-46.032-29.209-71.846-3.5144-10.974 5.9037-33.01 2.2948-36.493-23.42 10.235-45.937 23.47-69.942 31.794 7.491-8.5054 33.272-20.322 33.901-23.831-12.97 4.517-32.636 18.256-41.65 17.028 32.515-23.844 67.199-44.877 98.918-69.685 6.7814-20.332 26.408-38.703 49.174-33.706 20.794 1.1822 45.888 21.06 35.023 43.757-3.3409 10.22-25.825 25.106-3.1004 17.964 56.069-7.3747 113.55 23.713 139.8 73.512 31.847 57.848 31.737 126.72 25.236 190.68-0.90554 13.049-2.1847 27.546-13.834 17.741-8.7096-7.3205-23.297-3.9979-30.402-12.997-13.641-11.994-15.809-32.082-31.13-42.249-6.3831 2.2859 11.108 23.13 5.8039 32.569-1.5717 35.308-0.60486 70.817 2.1392 106.03 10.465 3.4498 29.883 27.187 6.8537 14.982-10.586-1.4304-19.514 5.6657-10.563 15.034-20.627-11.797-37.766 8.3974-51.715 21.011-1.6131 0.94778-17.191 15.264-13.053 5.6706z" fill="param(fill)" fill-opacity="param(fill-opacity)" stroke="param(outline)" stroke-opacity="param(outline-opacity)" stroke-width="param(outline-width) 0.2"/>
</svg>
