<svg version="1.1" width="512" height="512" viewBox="0 0 512 512" xmlns="http://www.w3.org/2000/svg">
 <path d="m185.22 466.84c4.0405-17.138 19.449-0.16971 30.228-13.299 17.257-15.492 39.354-14.38 59.898-8.3382 4.7991-16.89 21.076 0.65357 24.891 1.0742-2.3551-26.443-50.526-6.733-47.414-27.547 7.5117-13.548 14.648-11.36 23.668-1.0988 14.014 10.163 15.055-6.6938 23.571-8.933 6.2122-9.8296 16.579-17.662 29.033-7.3282 11.117 4.2072 38.415 11.154 11.799 13.111-14.234-0.9199-43.955 0.1432-40.44 17.336 10.052-12.708 8.5491-3.5354 4.9229 6.6785 10.756-17.571 24.525 7.0538 38.347-6.9306 21.688-1.1679 39.508-15.206 61.399-15.941 12.318-2.4128 29.66-12.215 31.093 6.6557 5.4451 22.574 44.577 40.263 57.108 15.341 0.90279-20.833-21.427-40.777-16.462-59.115 11.335-11.834-4.1073-34.239 11.41-35.943-5.87-20.892-8.0987-43.103-21.603-61.232-3.3637-9.1703-17.692-20.995-3.406-22.787-18.034-38.944-42.685-77.869-80.236-100.51-20.155-10.263-42.433-15.191-63.108-24.312-20.349-8.3434-42.268-0.80122-62.758-4.8364-17.136-8.3669-48.455-1.0636-57.21-6.7161 7.0468-13.681-37.146-10.007-8.6222-14.572-6.6194-7.824-34.896 2.5174-18.783-9.9161-13.288-0.57483-26.923 16.096-28.695 23.044 4.3679-23.292-17.389 13.732-5.4865 22.196-7.1995 7.1338-11.648-24.522-4.6054-32.599 1.0659-21.751-2.2474-55.593-30.424-56.747-24.98-8.666-46.135 10.617-70.536 10.386-21.143-7.0294-28.929 32.353-19.483 32.723 6.5207-9.3908 21.383 3.3517 32.531-0.68965 13.458 0.34864 25.147 9.7274 38.303 12.32 26.32 9.4293-9.0164 43.672 10.565 59.226 3.3771 17.422 20.024 25.41 35.631 29.344 14.575 0.15235 7.647 16.223 11.075 25.555 10.778 55.994 56.835 95.246 100.43 127.47 0.57768 20.541 24.099 43.341 2.6072 59.643-6.7159 6.4761-10.882 18.943-22.234 15.953-17.185-1.6991-34.629-0.25261-45.48 12.263-14.36-6.8561-39.66 14.755-26.559 17.064 11.503-19.969 18.541 7.3812 34.635 2.3258-0.15536 1.2136-3.5823 18.749 0.40337 9.6816z" fill="param(fill)" fill-opacity="param(fill-opacity)" stroke="param(outline)" stroke-opacity="param(outline-opacity)" stroke-width="param(outline-width) 0.2"/>
</svg>
