<svg version="1.1" width="512" height="512" viewBox="0 0 512 512" xmlns="http://www.w3.org/2000/svg">
 <path d="m61.527 471.48c-0.76272-14.317 14.355-36.941 14.879-43.142-10.111 10.67-26.247 38.616-32.928 39.706 1.6148-16.083 17.944-38.161 21.393-46.276-11.14 11.46-27.275 33.845-35.481 37.441 4.8783-18.791 26.112-40.015 31.856-50.513-16.302 14.005-31.735 29.036-48.48 42.513 6.8957-16.331 20.561-28.077 32.235-40.885-11.233 4.1791-43.731 22.346-21.948 1.3578 40.502-34.474 92.077-51.929 134.78-83.326 19.133-13.403 40.109-24.96 57.652-40.131-8.4414-6.0884-20.478 8.6705-15.6-9.188-1.1099-22.909 21.055-0.0992 27.73-14.583 18.384-12.048 38.546-19.819 49.808-40.896 43.718-49.699 77.562-106.69 114.21-161.53 7.2537-5.6432 29.445-29.194 18.272-9.1954-11.577 22.283 14.838-11.12 23.553-15.651 20.722-7.9213-15.873 28.415-22.952 35.275-7.8133 7.2471-16.185 16.98-2.1046 5.4912 16.86-11.67 34.324-30.307 53.684-33.341-9.5429 17.038-37.09 31.82-43.887 42.045 21.361-8.0657 39.093-27.374 62.765-27.968-13.608 15.958-33.754 23.345-51.652 33.162 21.368-5.3647 42.019-14.459 64.051-16.726-20.195 11.551-42.271 19.586-62.983 30.216 22.299-5.2111 45.645-15.56 68.57-10.802-15.197 9.8151-33.408 14.232-50.404 20.408 15.119-0.0743 30.35-1.5551 45.389-0.18425-9.4393 6.5538-52.173 10.743-21.041 13.295 19.294 6.3543-23.928 8.8152-21.285 24.279-8.6895 28.668-20.315 57.014-41.56 78.84-17.421 21.297-38.364 39.546-61.773 53.872-0.98312 19.64 36.74 12.731 51.52 21.073 12.473 0.90128 21.72 5.5357 5.1988 12.039-11.79 15.726-29.921 22.569-47.339 31.199-18.594 6.1297-44.056 13.934-52.138-12.187-16.589 1.1716-32.694 28.323-50.249 38.141-30.547 25.309-73.216 29.691-102.93 55.802-6.4871 8.945-14.715 31.663-17.794 8.4817-5.0664-18.378-10.834 18.878-16.22 24.459-10.106 18.632-3.0945-32.848-5.9353-29.87-7.762 14.334-14.024 29.71-23.052 43.187-3.6683-14.111 10.614-48.137 5.1174-48.505-11.437 17.07-22.003 34.71-33.565 51.697 0.21178-3.0259 0.42356-6.0518 0.63534-9.0778z" fill="param(fill)" fill-opacity="param(fill-opacity)" stroke="param(outline)" stroke-opacity="param(outline-opacity)" stroke-width="param(outline-width) 0.2"/>
</svg>
