<svg version="1.1" width="512" height="512" viewBox="0 0 512 512" xmlns="http://www.w3.org/2000/svg">
 <path d="m232.23 499.89c-0.42717-8.5982-22.706 2.7497-30.507-3.0219-19.706 9.2916 9.2089-18.102 18.149-15.526 9.0211-3.121 20.539-7.6057 4.3078-7.7993-7.8782-2.1517-19.332-1.4233-5.446-8.756 13.661-0.89496 27.573-0.71376 27.134-19.238 4.0476-21.828 9.1534-43.992 11.548-65.867-5.299-18.02-10.566-36.703-21.268-52.355-18.302 0.69888-36.015-7.3836-53.834-12.015-17.789-1.8835-34.284-8.1178-49.799-15.708-15.927-9.2622-23.722-28.597-21.02-46.891 4.7116-14.984-13.993-19.005-16.856-37.096-9.1139-10.176-13.753-23.716-9.8841-37.5-1.8342-13.314 3.3198-24.561 7.3847-40.705 6.3605-31.56 12.526-64.002 9.7234-96.234-6.8369-8.873-36.923-5.2598-15.536-17.65-0.28143-22.087 43.311-14.502 35.238 8.8787 2.5154 39.306-7.9947 77.598-10.293 116.57-1.6514 17.954 4.343 45.073 24.044 48.785 20.554 0.33176 40.632-5.6392 56.432-18.78 36.2-15.503 76.845-2.4814 111.7 10.62 15.93 4.8924 32.733 16.283 47.852 18.603 5.5151 8.4675 25.193 7.9246 23.324 15.281 8.8239 12.387 24.107 24.921 30.061 43.143 7.8027 15.126 19.522 38.641 7.7225 52.919-7.7346 6.3588-7.763 29.767-18.596 18.505-6.0089 8.7555-8.3668-3.5795-17.719 0.12666-2.7003-5.6115-6.729-1.9713 0.93323-9.8147-11.621 0.53277-14.401-2.901-12.769-13.822-0.19229-8.1933-11.128-25.728-4.3809-7.1931-0.96493 14.998-18.433-12.245-7.9486 3.9365 3.7273 8.3561-0.77201 10.024 0.87843 20.914-5.3536-3.8252-5.6521 13.666-15.149 4.3855-4.3096-14.843-5.4084 0.72909-11.462 1.9484-4.3885 5.7067-16.314 10.296-21.953 15.368-5.5156-7.9497-14.443-6.7135-2.0432-13.708-4.9373-2.4853 21.14-27.48 2.4595-12.358-4.2038 1.6791 4.7583-15.561-5.3922-2.7555 3.5055-10.488-14.98-1.9202-21.196-1.9134-31.211-2.1404 12.275 27.898 2.5724 42.806-10.004 18.616-7.0015 39.473-5.0803 59.572 1.0425 13.704 1.7194 27.441 1.535 41.187-20.218 2.7216-19.502 25.166-34.076 33.609-2.4935-0.89442-13.632 7.3201-10.791-0.45286zm132.58-200.34c-4.0307-4.4038 2.3489-16.523-7.0663-6.7353 0.93704 2.0822 7.3579 17.062 7.0663 6.7353z" fill="param(fill)" fill-opacity="param(fill-opacity)" stroke="param(outline)" stroke-opacity="param(outline-opacity)" stroke-width="param(outline-width) 0.2"/>
</svg>
