<svg version="1.1" width="512" height="512" viewBox="0 0 512 512" xmlns="http://www.w3.org/2000/svg">
 <path d="m300.34 503.57c-1.9266-1.2864-3.2919-4.8793-3.2919-8.6628 0-4.514-2.2558-8.0255-5.1558-8.0255-1.1776 0-3.6952 1.0561-5.5947 2.3468-4.0977 2.7845-10.552 4.3038-10.552 2.4839 0-0.9425-0.30653-0.94023-1.4524 0.0107-1.2444 1.0328-1.4524 0.71547-1.4524-2.2161 0-3.4703 1.0056-4.658 8.2659-9.763 3.7992-2.6713 7.9284-9.7538 10.799-18.522l2.5358-7.7464 0.44622-42.848c0.397-38.122 0.27547-43.108-1.102-45.211-2.2898-3.4948-3.0842-12.44-1.5244-17.166 1.1461-3.4728 1.1051-4.2812-0.34514-6.8081-2.2348-3.8939-2.0651-6.3708 0.74979-10.941 2.0966-3.4041 2.3892-5.009 2.4158-13.251 0.0167-5.1578 0.45002-10.482 0.96311-11.832 0.77289-2.0329 0.57533-2.7041-1.152-3.9139-2.4436-1.7116-3.482-1.2102-1.7689 0.85406 0.99104 1.1941 0.64569 1.771-2.0407 3.4088-4.2042 2.5632-4.7428 2.5141-10.168-0.92621-6.0634-3.8453-7.1242-3.7655-6.4346 0.48415 0.35692 2.1995 0.16562 3.389-0.54502 3.389-0.60224 0-1.1014-0.54467-1.1093-1.2104-8e-3 -0.6657-0.56342-0.12104-1.2346 1.2104-1.7956 3.5619-4.7042 3.5136-8.2738-0.13747l-3.0651-3.135v6.1159c0 4.8908 0.58673 7.2705 2.9292 11.88 2.5 4.9196 2.7958 6.2474 2.0188 9.0613-0.50069 1.8134-1.8188 4.452-2.9292 5.8636-2.4662 3.1353-2.4852 4.0633-0.14497 7.1085 1.772 2.3059 1.7749 2.4924 0.0901 5.8098-1.5037 2.9607-1.9777 9.1846-3.4814 45.712l-1.7407 42.285 2.5208 8.5508c4.124 13.989 4.1971 15.813 0.63363 15.813-1.487 0-1.833 0.7171-1.833 3.7989 0 4.6976-3.1762 8.7783-9.043 11.618-4.9023 2.3732-8.6492 2.5763-10.323 0.55958-0.66298-0.79884-1.8368-1.4524-2.6086-1.4524-0.96069 0-1.305-0.8397-1.0918-2.6628 0.29527-2.525 0.0841-2.6776-4.0812-2.9495-3.6227-0.23644-5.1061 0.23024-8.4642 2.6628-4.3502 3.1512-11.286 4.0795-13.551 1.8138-0.8612-0.8612-1.7271-0.86622-3.5827-0.0207-2.1214 0.96658-2.447 0.88413-2.447-0.61975 0-3.1517 5.2284-6.8763 13.614-9.6981l8.1726-2.7502-4.8415-0.72968c-2.6628-0.40132-5.7129-1.215-6.7781-1.8081-1.0651-0.59314-2.2634-0.98587-2.6628-0.87272-0.39942 0.11314-0.72622-0.43669-0.72622-1.2219 0-2.6894 5.3028-4.3819 13.75-4.3886 6.1953-5e-3 8.6608-0.41796 10.761-1.8029 3.7443-2.4688 7.2166-7.8471 8.31-12.872 1.5565-7.1527 2.9443-27.17 3.9926-57.587l1.0056-29.179-3.8876-7.1321c-2.9649-5.4394-3.8908-8.2151-3.9012-11.695-0.0138-4.6244-3.37-15.287-4.8117-15.287-0.43218 0-1.0251 0.91531-1.3177 2.034-0.72737 2.7815-2.5988 1.3837-2.5988-1.9411 0-3.0917-3.3289-6.8709-4.1854-4.7515-0.36282 0.89787-1.0947 0.56082-2.4996-1.1512-1.7308-2.109-1.9894-2.1872-2.0081-0.60766-0.0178 1.5013-0.2713 1.6058-1.474 0.60766-1.2026-0.99806-1.4569-0.89352-1.4785 0.60766-0.0212 1.4785-0.51265 1.2503-2.6628-1.2362-1.4502-1.6771-3.6172-3.5443-4.8154-4.1493-1.9403-0.97967-2.1854-0.85791-2.24 1.1127-0.0606 2.1844-0.0744 2.1817-1.0788-0.20801-0.60561-1.441-1.2021-1.9284-1.4738-1.2043-0.83177 2.2168-2.2255 0.17756-2.3594-3.4522-0.0831-2.2519-0.28709-2.768-0.55149-1.3953-0.30011 1.5581-1.1009 2.1787-2.8116 2.1787-1.3156 0-4.0703 0.85625-6.1217 1.9028l-3.7297 1.9028-0.62874-4.1928c-0.34581-2.306-1.2213-5.0031-1.9455-5.9936-1.21-1.6547-1.4108-1.4518-2.4753 2.5016l-1.1585 4.3024-2.5685-3.1252c-3.0842-3.7527-3.9638-3.8399-6.9258-0.68704-2.9117 3.0994-3.3788 3.0471-4.8669-0.54551l-1.2287-2.9662-4.0312 3.9564c-2.2172 2.176-4.3315 3.656-4.6986 3.289s-0.66734-2.5667-0.66734-4.8882v-4.2208l-2.9705 1.5361c-4.3063 2.2269-4.935 1.475-2.7802-3.3251 1.0516-2.3427 1.7269-4.4445 1.5006-4.6708-0.22625-0.22625-1.7133 0.26189-3.3046 1.0848-3.8289 1.98-10.843 3.1007-10.843 1.7324 0-0.5692 0.43574-1.3042 0.9683-1.6334 0.53256-0.32914 0.96829-1.1929 0.96829-1.9194 0-1.4618-4.5894-7.2794-5.7426-7.2794-0.40092 0-1.2357 1.6912-1.855 3.7583s-1.7724 4.2948-2.5626 4.9505c-1.6642 1.3811-1.6286 1.4599-3.2604-7.2126-0.59865-3.1817-1.7401-6.1326-2.5469-6.5841-0.80409-0.44999-1.462-1.3742-1.462-2.0537 0-1.5522-4.0722-5.4463-5.6954-5.4463-1.1547 0-1.0168-1.1716 0.6839-5.8098 0.4689-1.2788 0.32473-1.2832-1.206-0.0366-1.5468 1.2597-1.8872 1.2126-3.0862-0.42714-0.74121-1.0137-1.3615-2.5223-1.3784-3.3525-0.0244-1.195-0.34956-1.106-1.5609 0.42715-1.4244 1.8028-1.4865 1.5247-0.89926-4.0282l0.6308-5.9648-3.9114 0.52463c-2.1513 0.28859-3.9114 0.24566-3.9114-0.0953 0-0.34101 1.3072-2.4246 2.9049-4.6301 2.9455-4.0661 3.434-6.0555 2.2467-9.1496-0.48337-1.2596-0.93348-0.57565-1.6945 2.575-0.6736 2.7887-1.6294 4.4029-2.7308 4.612-1.0984 0.20852-1.6945-0.28318-1.6945-1.3977 0-0.94568-1.3188-3.0801-2.9307-4.7432l-2.9307-3.0237 1.9499-6.2212c2.4884-7.939 2.4817-8.0097-0.68788-7.2205l-2.6628 0.66305 2.6628-2.7897c3.2263-3.3801 3.2873-3.9124 0.49404-4.3109-1.1928-0.17018-2.3141-1.072-2.4917-2.0039-0.25606-1.3435 0.35548-1.6945 2.952-1.6945 3.4484 0 8.7065-2.8123 5.3737-2.8741-2.1671-0.0402-3.8577-3.2782-3.1655-6.0628 0.3835-1.5427-0.28085-3.1866-2.2271-5.5108l-2.7736-3.3123 3.2364-5.3745c3.1612-5.2497 3.1894-5.3919 1.215-6.1223-1.451-0.53674-1.8528-1.2789-1.4239-2.6301 0.32859-1.0353 0.0498-2.7592-0.61943-3.8308-1.0047-1.6088-0.92836-2.5535 0.43812-5.419 0.91024-1.9088 1.6577-4.0004 1.6609-4.648 3e-3 -0.64764 0.58699-2.2909 1.2971-3.6516 1.1391-2.1827 4.5067-11.342 4.5067-12.257 0-0.19015-0.84281 0.10534-1.8729 0.65664-5.2251 2.7964-4.7611-0.94046 0.97366-7.8409l3.7281-4.486-6.2179-1.2909 2.2537-1.8626c1.2395-1.0244 3.4182-2.732 4.8415-3.7946 2.5265-1.8863 2.5362-1.9327 0.40911-1.9627-2.4612-0.0347-2.5888-0.35991-1.1763-2.9992 0.66941-1.2508 0.67649-1.8729 0.0213-1.8729-0.53957 0 0.31657-2.0461 1.9025-4.5469 3.5417-5.5847 3.7508-7.61 0.38036-3.6836-1.3715 1.5977-2.3042 2.2513-2.0728 1.4524 0.23142-0.79884 1.0998-3.6311 1.9297-6.2939 0.97652-3.1331 1.689-10.384 2.0192-20.548 0.49495-15.236 0.45525-15.672-1.3239-14.561-2.5548 1.5955-3.3935 0.3277-1.5368-2.3231 1.9842-2.8328 1.9767-5.3226-0.0192-6.4396-1.3935-0.77982-1.3365-1.0427 0.50529-2.3327 1.8363-1.2862 1.9045-1.596 0.5914-2.6858-1.3245-1.0992-1.3007-1.3671 0.22093-2.4877 1.6218-1.1944 1.6224-1.288 0.0108-1.9127-2.0453-0.79288-2.2451-2.3863-0.29922-2.3863 2.6203 0 2.6923-2.091 0.16292-4.7311-3.0041-3.1356-3.152-3.9836-0.69489-3.9836 2.5142 0 3.6075-4.5128 1.6242-6.7042-1.3288-1.4684-1.3216-1.7931 0.0707-3.1854 1.4217-1.4217 1.42-1.7365-0.0198-3.7922-2.1395-3.0546-1.9961-3.5698 1.0926-3.9252 2.5804-0.2969 2.654-0.46861 2.3767-5.545-0.25193-4.6134-0.10895-5.0916 1.198-4.0069 1.8935 1.5714 4.569 0.60995 3.8096-1.369-0.31428-0.819-0.30365-2.1869 0.0236-3.0398 0.50706-1.3214 0.86111-1.2221 2.3942 0.67112l1.7991 2.2218 2.7349-4.3022c2.6004-4.0906 2.7629-4.1867 3.3038-1.9533 0.83016 3.4276 2.4953 3.474 3.8894 0.10828 1.4475-3.4945 2.1358-3.6608 3.4166-0.82536 1.4881 3.2944 3.1913 3.1652 4.6293-0.35129l1.3156-3.2172 0.67089 2.6628c0.7963 3.1605 2.8817 3.4443 4.8335 0.65769l1.4044-2.0051 1.5521 2.2159c1.4713 2.1005 1.6393 2.1287 3.2271 0.54087 1.5878-1.5878 1.7271-1.4895 2.6752 1.8897 0.93408 3.3292 1.1069 3.4579 2.6164 1.9484 2.1845-2.1845 2.9858-2.0336 2.2084 0.4159-0.54802 1.7267-0.34127 1.9358 1.3753 1.391 1.8218-0.57822 1.962-0.34982 1.427 2.3251-0.64087 3.2044 0.55993 3.9162 2.5537 1.5139 1.7393-2.0958 3.1556-1.7936 1.9707 0.42049-1.5933 2.977-1.1923 3.9347 1.6604 3.9663 2.4752 0.02737 2.5264 0.10566 0.72622 1.1111-1.0651 0.59491-2.1072 1.2244-2.3158 1.3988-0.20859 0.17442 0.66288 1.1913 1.9366 2.2598l2.3158 1.9427-3.2576-0.60918c-2.9951-0.5601-3.172-0.4611-2.195 1.2285 1.8624 3.2208 3.3599 4.6983 10.515 10.375 6.5607 5.2046 9.7636 8.9134 8.6549 10.022-0.26382 0.26382-1.2795 0.05181-2.2571-0.47111-0.97759-0.52293-4.3918-1.4403-7.5872-2.0385-4.8348-0.90518-7.516-0.78636-15.977 0.70802-5.6822 1.0036-9.5264 2.0865-8.7146 2.4549 0.83504 0.37898 0.50942 0.48293-0.766 0.24455-1.8636-0.34831-2.118-0.09828-1.5908 1.563 0.41523 1.3083 0.26858 1.7557-0.43327 1.3219-0.66489-0.41092-0.84568-0.09473-0.48429 0.84704 0.75212 1.96-0.47532 1.9147-2.7012-0.09978-1.6893-1.5288-1.7708-1.4119-1.7708 2.5393 0 3.5718-0.19988 3.9759-1.4524 2.9364-1.7009-1.4116-1.7404-0.99865-0.57994 6.0518 0.82696 5.024 0.60986 5.3648-1.9449 3.0527-1.6171-1.4634-1.6522-1.3615-0.65337 1.893 0.76667 2.4981 0.75785 5.2431-0.0323 10.027-0.59836 3.6232-0.81882 7.6167-0.48991 8.8744 0.59147 2.2618 0.57027 2.2686-1.9383 0.62492l-2.5363-1.6619 1.4878 2.9824c1.9862 3.9815 3.334 8.8235 2.456 8.8235-0.38888 0-1.2862-0.54466-1.994-1.2104-1.0578-0.99485-1.1771-0.74383-0.67008 1.4097 1.1889 5.0497 2.4163 7.3107 5.1285 9.4475 1.5043 1.1852 2.7938 2.6585 2.8655 3.2741 0.0717 0.61561 0.18064 1.5768 0.24207 2.1359 0.0614 0.55914 1.9945 3.6093 4.2958 6.7781 6.3314 8.7183 7.7548 11.087 6.6623 11.087-0.54774 0-2.3408-1.8288-3.9845-4.0639-1.6438-2.2352-2.9886-3.7386-2.9886-3.3409 0 1.3898 3.1949 6.9521 6.1585 10.722 1.8704 2.3792 2.5595 3.9441 1.8421 4.1832-0.76899 0.25632-0.28249 1.9363 1.4785 5.1056 2.4675 4.4409 2.5228 4.799 0.92387 5.9839-1.4232 1.0547-1.5417 1.8122-0.72622 4.643 0.53597 1.8604 0.98011 4.9106 0.98699 6.7781 7e-3 1.8675 0.87833 6.1576 1.9366 9.5335 1.0583 3.376 1.9241 7.5996 1.9241 9.386 0 2.2318 0.65524 3.7068 2.0944 4.7148 2.6706 1.8706 3.2287 1.4747 5.655-4.0104 1.2338-2.7893 4.8574-7.2988 9.4988-11.822 4.1272-4.0216 9.1535-9.3816 11.17-11.911 2.3358-2.9309 4.4324-4.6071 5.7794-4.6207 1.1626-0.0117 4.0746-0.91857 6.4712-2.0153 10.656-4.8766 24.711-9.6247 34.456-11.64 10.094-2.0874 10.831-2.4113 16.379-7.1922 3.1954-2.7535 6.7615-5.5026 7.9248-6.1091 2.9948-1.5614 18.527-1.5072 16.96 0.0592-0.63907 0.63907-1.162 1.4496-1.162 1.8012 0 0.35157 5.9913 0.87754 13.314 1.1688 12.566 0.49988 21.122 2.1779 20.405 4.002-0.17199 0.43752 3.391 1.8544 7.9178 3.1486 10.51 3.0049 16.144 6.4637 20.092 12.336 4.524 6.7287 4.0887 7.6904-1.9903 4.3979-2.8255-1.5304-6.856-3.4986-8.9567-4.374l-3.8195-1.5916 1.894 2.101c1.0417 1.1556 7.7305 5.0176 14.864 8.5824 13.818 6.9051 19.618 11.103 22.131 16.019 0.8576 1.6774 3.6784 5.726 6.2685 8.9968 2.5901 3.2709 4.7093 6.3743 4.7093 6.8964s1.7092 1.2226 3.7982 1.5567c3.4809 0.55662 9.7579 4.6344 9.7579 6.3391 0 0.39437-0.91746 0.68244-2.0388 0.64015-1.1214-0.0423-2.6534 0.83403-3.4046 1.9474-1.2817 1.8996-1.0678 2.2095 3.475 5.0335 7.9483 4.941 10.534 11.248 9.2265 22.51-0.77488 6.6764-1.9622 7.4571-2.9 1.9067-1.1352-6.7191-2.7814-5.8692-2.0547 1.0608l0.64974 6.1964-1.9392-2.4207c-2.347-2.9298-2.4318-2.3599-0.49681 3.3394 1.3351 3.9325 1.3351 4.6662 0 7.248-0.81702 1.5799-1.4855 3.9664-1.4855 5.3032 0 1.3369-0.69508 2.9925-1.5446 3.6792-3.5582 2.8762-5.9366 5.3024-6.9511 7.0912-0.94564 1.6672-1.3387 1.745-3.1644 0.62626-2.4901-1.526-2.5008-1.5176-4.1453 3.2323-1.6538 4.7768-3.3184 5.3223-4.6434 1.5215-1.4187-4.0697-2.7757-3.7664-2.8583 0.63889-0.0375 1.9971-0.40473 4.4928-0.81623 5.5461-0.72259 1.8495-0.7888 1.8391-1.9361-0.30459-0.95458-1.7836-1.4599-1.9938-2.5728-1.0702-0.7617 0.63215-1.3849 1.5457-1.3849 2.0302s-0.70367 2.5008-1.5637 4.4808l-1.5637 3.6-1.1877-2.7609-1.1877-2.7609-2.0323 3.4444c-1.3602 2.3053-3.0921 3.7306-5.237 4.3096-1.7626 0.47585-3.3683 0.731-3.5681 0.567-0.19981-0.16401 0.34133-2.0592 1.2025-4.2115 0.8612-2.1524 1.3677-3.9134 1.1256-3.9134-0.24212 0-2.1464 2.5055-4.2317 5.5677-4.4706 6.5649-6.5236 8.4853-9.9351 9.2932-3.3433 0.79177-3.7608 0.1779-2.6399-3.8816 0.51854-1.878 0.70091-3.6564 0.40528-3.952-0.91057-0.91058-4.4013 7.7989-4.4239 11.038-0.0179 2.5743-0.32639 2.9765-1.9561 2.5503-1.7091-0.44695-1.8652-0.15741-1.3374 2.4815 0.77588 3.8794-0.21622 6.7242-1.7946 5.1458-1.8712-1.8712-2.3148-1.361-3.6478 4.1954-0.70268 2.9291-1.5907 5.3256-1.9733 5.3256-0.38266 0-2.3229 2.3625-4.3116 5.2501-4.0954 5.9464-4.1842 8.4003-0.65174 18.003 1.7286 4.6987 1.852 6.2437 1.0285 12.877-0.51466 4.1455-2.0443 10.457-3.3992 14.027-3.8971 10.266-4.1633 12.773-4.1836 39.411-0.0227 29.613 1.0707 46.478 3.2915 50.773 0.85911 1.6613 5.9219 7.5471 11.251 13.08 5.6945 5.9123 10.044 11.298 10.55 13.064 0.47402 1.6528 0.50351 2.7836 0.0655 2.513-0.43799-0.27069-1.3116 0.12862-1.9413 0.88737-0.6297 0.75874-2.4376 1.6635-4.0176 2.0105-2.5675 0.56391-3.5909-0.0466-9.6342-5.7475-3.7188-3.5081-7.3986-6.3784-8.1773-6.3784-3.007 0-2.8592 4.9712 0.33069 11.124 3.6371 7.0149 3.8857 10.458 0.906 12.545-2.2642 1.5859-6.312 1.9683-8.1122 0.76629z" fill="param(fill)" fill-opacity="param(fill-opacity)" stroke="param(outline)" stroke-opacity="param(outline-opacity)" stroke-width="param(outline-width) 0.2"/>
</svg>
