<svg version="1.1" width="512" height="512" viewBox="0 0 512 512" xmlns="http://www.w3.org/2000/svg">
 <path d="m251.21 497.66c1.2672-19.783 29.675-14.843 43.767-20.824 20.214-7.3636 10.151-36.747 14.06-53.663-0.0417-27.172 1.643-55.502-7.4878-81.502-5.3102-9.4409-16.256-27.25-21.717-19.497-3.3676 11.847-16.126-21.141-12.034 1.2301 11.127 21.219-13.519 33.363-15.366 52.485-7.2129 15.522-17.222 30.568-25.343 46.284-8.9312 16.037-17.13 32.635-27.904 47.636 7.7483 15.894-8.3142 29.105-24.001 22.272-14.947 5.8042-35.366-1.7173-45.934 0.64442 6.1395-18.56 31.784-11.776 45.431-21.527 18.013-10.058 21.317-35.168 33.195-51.446 14.299-28.029 31.681-56.464 33.616-88.569-1.3395-21.566-24.348-23.538-40.628-28.289-33.792-9.341-66.067-35.736-68.872-72.782-4.8925-37.78 9.227-74.853 29.455-106.13 13.469-22.38 30.685-46.741 25.066-74.299-6.8774-15.099-33.8-2.1042-38.541-12.36 21.402-3.8733 31.76-32.828 55.503-20.593 20.32 11.382 15.472 38.912 9.7792 57.377-8.1571 33.756-27.124 65.601-26.054 101.11 0.33264 29.977 32.789 17.231 49.534 10.575 32.662-4.0574 66.486 0.65437 95.682 16.35 29.866 14.968 62.748 36.756 69.04 72.13-4.3672 19.641 20.608 31.544 14.932 49.411-2.7174 10.205-6.3131-16.224-4.5896 0.91795-2.7111 1.3067-9.2891-7.3894-10.21 5e-3 -5.1186-11.4-11.516-0.0451-13.59-2.1126-1.7422-13.357-9.7116 10.765-11.359-7.1606-7.9492-9.9719 3.7057 13.295-9.6116 1.6342-5.9526-4.9907-2.7022 11.785-8.5752 0.89595-9.9369-11.987-3.8314 12.154-12.065-0.63394-5.4368 14.081-5.7306-9.1164-11.417 5.505-2.4993-8.3553-9.0831-8.4431-8.8025-1.954-19.443-8.9881 13.148 17.994 4.8583 28.054-4.622 19.131-2.4736 38.649-4.7923 58.284-1.3797 23.887-2.6045 48.116-5.4417 71.678 4.1667 27.342-31.325 13.87-47.106 18.734-8.088-0.28618-15.4-6.7982-22.475 0.12468z" fill="param(fill)" fill-opacity="param(fill-opacity)" stroke="param(outline)" stroke-opacity="param(outline-opacity)" stroke-width="param(outline-width) 0.2"/>
</svg>
