<svg version="1.1" width="512" height="512" viewBox="0 0 512 512" xmlns="http://www.w3.org/2000/svg">
 <path d="m455.8 495.73c-25.54-2.8934-50.631-6.6015-58.865-34.964-15.43-19.838-31.05-42.486-54.3-53.435-23.903-7.6901-35.024-33.706-61.938-35.667-15.755-8.3329-37.254-10.95-29.886 13.667-6.8563 20.246 23.743 42.656 4.8812 57.974-21.663 2.3579-44.258-2.269-66.154 1.9308-20.841 5.1441-52.6 3.4422-55.315 31.528-7.288 11.873-20.802 3.0916-12.863-8.4973-3.6658 17.558-37.337 28.02-43.105 10.231 22.747-7.8541 28.586-33.932 46.811-46.834 31.739-4.8242 65.353-1.0996 95.802-12.99 23.41-17.873-14.424-39.84-12.077-61.636-3.8716-17.613-21.062 20.051-36.663 8.8015-20.522 3.5859-40.562-0.95654-57.028-14.178-13.956-17.499-31.237-26.237-34.846-52.444-2.0464-17.728-25.856-23.163-28.26-46.324-10.312-21.475-14.947-44.991-13.005-68.778-3.3838-39.334 28.752-72.61 21.316-112.07-5.0942-20.648-38.103-24.821-43.648-37.745 24.101-2.0325 41.831-31.692 65.781-9.271 6.3849 15.641 12.755 37.929 8.9207 57.37-5.0203 39.587-28.401 76.581-22.751 117.33 4.964 12.893 15.814 11.937 14.472 20.484 26.314 20.138 44.399-19.896 63.808-32.253 14.729-4.9755 38.049-9.9419 56.818-12.076 24.783-8.7522 48.343 2.3567 72.948 5.2284 21.566-3.3493 38.229 8.5448 57.63 16.122 17.21 3.3577 45.2-3.0084 47.975 11.262 20.077 13.575 35.297 34.348 37.724 58.424 7.2552 15.242 11.501 23.422 1.1987 34.024-1.2809 12.693 17.116 31.974-6.4372 24.232-18.951-10.485-41.014-11.563-59.849-22.232-5.211-1.3551-14.469-12.69-17.909 2.5241 6.3036 9.3462-0.2744 14.392-1.0135 24.703-11.893-9.2425-27.709-7.4103-41.83-9.7388-9.599 5.2745-11.79 10.75-1.2829 16.569 12.432 16.221 32.282 19.007 49.514 26.555 16.366 19.425 31.093 40.513 51.944 55.851 21.165 10.975 27.369 40.102 45.607 49.49 15.055 2.87 23.796 4.3205 37.953-4.3389 31.477-8.073-7.7679 36.978-22.079 31.172z" fill="param(fill)" fill-opacity="param(fill-opacity)" stroke="param(outline)" stroke-opacity="param(outline-opacity)" stroke-width="param(outline-width) 0.2"/>
</svg>
