<svg version="1.1" width="512" height="512" viewBox="0 0 512 512" xmlns="http://www.w3.org/2000/svg">
 <path d="m149.84 494.08c16.723-6.1005 9.2276-33.952 15.847-49.004 1.358-19.669 0.39331-45.56 19.163-57.282 12.247-9.2629 21.423 2.2329 32.536 1.873-16.617-9.8227 9.2584-7.1325 11.581 1.2451 6.0248 0.61857-3.7014-10.025 7.79-3.8874 9.6948 0.20528 14.074 25.851 12.682 5.6209 9.261 3.1939 2.607 29.998 17.9 24.551-15.192-5.3437 2.2118-20.081 10.445-12.216 20.485 6.9237 39.779 16.321 58.37 27.316 6.5483 4.8865 24.763 9.5868 9.8266-1.2741 14.424-4.3516-5.6931-17.018 1.4056-20.058-12.49-7.9425-27.397-9.7513-22.888-26.446-5.846-8.433-11.093-18.486-23.076-17.889 1.6251-17.22 13.814-0.88871 23.505 5.7546 11.442 12.668 18.224 29.171 30.776 41.284 12.111 10.463 19.48 27.704 35.991 33.522 20.229 6.2004 28.358-22.247 16.144-35.781-3.6795-8.1746-14.672-19.553 0.71751-11.614 12.871-10.124-7.7194-33.118-7.2691-49.083-1.7098-15.853-11.026-29.139-8.3757-44.207-5.4691-53.554-17.357-109.82-54.003-151.36-10.278-14.111-28.307-26.008-27.331-45.365 6.0338-2.4845-5.1443-6.3101 1.1779-9.9713-0.0125-6.2809 0.70849-7.5099 1.7646-15.749-1.6512-5.1356-3.3133-9.8586 0.58496-8.5622-18.168-13.945 3.1778-17.751 12.892-29.133-14.178-5.8042-31.09 8.8565-42.036-7.0662-27.233-15.02-64.361-14.394-89.223 5.3197-11.301 0.81468-36.831-6.1701-39.904 4.7909 13.107 7.4339 31.698 12.165 21.581 30.794-6.8305 19.698 12.41 33.681 9.3227 52.271-2.5561 15.396-6.333 29.592-18.004 38.237-4.3628 31.807 9.8248 63 30.192 86.764 12.96 14.69 23.049 30.757 31.825 48.196 11.022 10.931 13.011 25.838 8.3708 40.036-11.833 16.868-38.661 3.4302-53.269 4.1796 2.8655-8.2486 16.035-32.495 6.3949-33.525 1.6871-5.4983-9.9464-19.592-18.475-5.0006 2.3236-20.497-17.501 5.8581-15.29 1.911 1.7067-15.703-18.418-1.8765-19.761 4.6392-5.7204-8.9313-13.816 2.5236-15.881-0.0314-11.077-8.1492-9.7273 23.854-12.67 32.512-0.63934 45.279-17.971 87.789-27.918 131.38-5.4502 21.836 31.028 8.5137 44.307 12.738 7.4253-9e-3 14.874 0.17926 22.281-0.43545zm168.48-98.194c-9.4644-4.1669-23.081-15.006-4.2068-5.7295 4.4229-2.7248 10.331 9.0548 4.2068 5.7295zm-4.0423-18.441c-3.4716-5.8541 9.031 5.1066 0 0zm-37.871-6.6455c7.5579-4.6507 3.5493 6.0984 0 0zm3.9297-3.8863c-5.704-8.3355-18.591-11.756-23.498-15.543-0.89579-19.701 10.728-8.1929 21.231-4.8295 4.2308-4.2216 5.927-16.684 7.1992-2.3312-1.5242 3.5625 3.5713 29.337-4.9324 22.703z" fill="param(fill)" fill-opacity="param(fill-opacity)" stroke="param(outline)" stroke-opacity="param(outline-opacity)" stroke-width="param(outline-width) 0.2"/>
</svg>
