<svg version="1.1" width="512" height="512" viewBox="0 0 512 512" xmlns="http://www.w3.org/2000/svg">
 <path d="m295.45 502.97c-1.3673-14.186-11.774-21.927-13.845-34.544-2.0886-18.719-26.437-14.773-40.298-16.337-11.169-1.856-13.254 1.0718-15.198 11.246-1.0734 6.3456-4.8435 38.924-6.1772 16.004-1.3528-13.864-17.528-35.994-27.939-15.177-10.587 4.6157 0.98407 37.704-8.5172 17.26-8.6067-13.575-2.8132-34.856-23.79-33.949-14.434-14.561-15.751-37.013-17.275-56.395 1.3462-21.703-0.83792-43.046-5.1892-64.271-4.342-23.328-5.7671-46.953-3.9004-70.635 1.2982-20.753 7.0588-39.782 7.797-60.887 3.9808-17.138 15.726-32.476 11.246-50.42-11.122-10.146 6.5395-19.738 1.1164-31.442-0.30156-18.119 12.57-34.323 19.745-51.014 12.055-11.069-10.927-20.934-2.7618-29.463 11.119 0.24037-14.688-22.169 4.3723-17.241 16.359 3.3369 32.978 9.6417 46.847 18.598 18.377-3.0669 36.752-2.8854 54.977 1.4274 9.948 4.0912 19.384-2.9286 28.84-5.4005 8.1776-6.7683 15.1-11.502 21.691-3.5086 10.045-6.7229 19.344-0.21587 7.8115 8.4262-8.2531 7.2171 2.1455 18.057-12.354 23.748 17.14 6.3151 2.9191 29.439 14.018 42.771 7.5426 18.663 8.9074 39.252 5.1704 58.307 6.6918 15.611 16.338 30.953 20.433 48.253 4.7912 24.23 8.9081 49.389 5.6422 74.17-1.9225 20.819-1.1976 43.004-10.223 62.228-15.845-3.3151-9.196 25.338-17.018 35.338-7.4198 19.354-11.543 41.079-26.004 56.718-9.8094 21.22 20.462 22.681 27.048 37.76 5.693 5.5336 6.245 28.972 1.8892 10.824-3.7583-10.82-16.093 4.5524-21.78-8.8997-8.6442-6.4306-26.483-22-23.462 0.30904-1.3102 8.6686-0.82549 17.707-2.9112 26.195z" fill="param(fill)" fill-opacity="param(fill-opacity)" stroke="param(outline)" stroke-opacity="param(outline-opacity)" stroke-width="param(outline-width) 0.2"/>
</svg>
