<svg version="1.1" width="512" height="512" viewBox="0 0 512 512" xmlns="http://www.w3.org/2000/svg">
 <path d="m289.87 501.11c1.4021-13.48-17.975-37.207 5.3091-40.689 4.7195-5.323 5.5547-32.905 20.141-21.793 9.3804 4.3688 14.937-18.739 26.236-3.4487 14.091 17.65 35.47 23.839 55.737 31.252 22.034 7.1543 31.326-18.338 51.313-20.03 11.888-3.6817-0.4324-10.663 4.5778-19.415-2.796-4.8543 4.6949-10.117-1.8665-16.414 3.938-9.9866-14.958-23.795-10.044-37.961-8.296-20.402-25.559-36.77-28.585-59.347 0.49542-22.427-13.953-40.462-25.726-58.157-8.5344-19.974-24.561-35.559-36.18-53.865-11.924-16.408-29.228-28.558-48.883-34.717-19.78-6.2004-40.584-8.6234-58.763-19.621-17.557-11.43-14.776-36.713-22.346-54.405-4.9901-17.366-11.054-32.908-8.9276-50.292-0.99108-8.2511 7.8051-39.183-4.3575-17.141-7.3458 7.017-10.002 12.391-21.809 15.253-18.756-7.5609-39.395-5.1364-57.371-0.6247-9.2996-4.8661-20.671-35.536-21.541-9.3258 4.2259 10.54-12.978-6.4446-3.1032 10.075 7.1917 6.0653-13.372 8.2321-0.0397 13.124-11.961-0.2131 2.391 7.7346-10.34 12.405-10.065 17.053-19.166 34.722-21.278 54.774-2.5533 8.8534-3.6733 17.656-0.14332 26.416 6.6177 36.619-4.6228 73.542-0.4002 110.39-0.4616 25.707 18.875 44.677 23.127 69.339 10.198 20.258 27.477 36.597 34.704 58.912 10.352 16.894 21.057 33.495 33.486 48.831 4.1387 21.309-35.886 10.451-47.82 22.584-11.324 7.3998 15.989 4.7172 21.922 4.992 13.545 2.8091 36.212 1.3928 51.506 3.9128-5.9565 7.8378-10.237 19.064 1.8487 7.294-0.31813 13.217 30.739 6.6261 44.712 8.7186 21.79-4.8657 35.31 9.7709 52.229 18.086l1.7654 1.9616 0.90858-1.0776zm-68.28-41.06c-17.769-16.776 18.699-34.771 30.164-21.524-2.2141 8.3927-14.918 18.781-24.419 23.462-2.0609 0.75971-4.634 0.0212-5.7457-1.9382z" fill="param(fill)" fill-opacity="param(fill-opacity)" stroke="param(outline)" stroke-opacity="param(outline-opacity)" stroke-width="param(outline-width) 0.2"/>
</svg>
