<svg version="1.1" width="512" height="512" viewBox="0 0 512 512" xmlns="http://www.w3.org/2000/svg">
 <path d="m5.5438 428.39c-5.2235-4.012-6.0416-29.307 7.9143-24.151 20.678-2.956 55.102 0.7224 67.87-5.2421-10.694-11.661-37.601-16.623-37.161-33.706 21.884 10.506 42.571 24.448 64.344 34.615 23.351-0.65142 46.713-1.1389 70.036-2.5174-3.2457-21.889-20.302-18.48-24.104-39.542-3.2057-9.4707-10.076-18.412-11.082-28.21 4.1632-33.238 8.3263-66.475 12.489-99.713 9.1889-11.399 19.515-22.021 27.285-34.454-5.9051-9.9505-13.008-19.13-19.59-28.637 9.4902-20.136 22.574-38.643 30.203-59.599 2.1064-17.578-13.951-43.635-0.78761-55.673 4.2753 17.699 19.912 29.273 31.23 42.688 22.367 0.04233 44.733 0.08465 67.1 0.12698 11.677-13.794 27.246-25.961 31.99-43.922 11.543 16.405-4.2603 38.792-1.5123 57.675 8.23 20.388 20.391 38.891 29.819 58.713-6.6663 9.6816-13.738 19.103-19.914 29.108 8.353 12.33 20.024 22.894 27.9 35.248 4.1986 33.737 8.3973 67.473 12.596 101.21-7.1615 14.959-12.881 32.12-21.233 45.447-8.623-2.5165-20.187 22.286-0.17528 13.461 51.397-1.3142 102.77-3.4895 154.16-4.9213 0.17636 13.818 0.35272 27.636 0.52907 41.454-63.784 1.9766-127.79 0.61394-191.66 1.0719-102.75-0.0865-205.5 0.20965-308.24-0.53032zm191.65-40.523c-0.29632-21.827-4.3063 11.407-0.27266 6.3803l0.20109-2.7914zm18.65-0.54872c-2.6686-28.629-1.9927 28.931 0 0zm19.632 7.54c-3.1844-7.3248-4.3561 3.2685 0 0zm48.097-2.0833c-2.5079-3.5214-2.5079 3.5214 0 0zm17.668-6.4382c-2.6559-20.244-0.98918 21.825 0 0zm18.383-4.1138c-1.3154 2.4498 0.69889 14.856 0 0z" fill="param(fill)" fill-opacity="param(fill-opacity)" stroke="param(outline)" stroke-opacity="param(outline-opacity)" stroke-width="param(outline-width) 0.2"/>
</svg>
