<svg version="1.1" width="512" height="512" viewBox="0 0 512 512" xmlns="http://www.w3.org/2000/svg">
 <path d="m440.2 488.08c-14.531-16.657-33.417-29.173-45.728-47.948-10.327-10.932-16.928-24.466-23.48-37.817-6.6735-3.4752-16.302-3.5695-21.035-9.2646-10.288-19.376-19.459-39.571-32.163-57.463-6.191 26.205-4.8227-11.474-14.206-16.439-32.134-4.1703-65.605-11.938-97.206-1.5259-8.577 6.0052-20.727 14.674-24.296 10.548-7.2798 5.4962 5.5506 28.242-5.4313 12.444-11.742-24.038 29.662-29.161 32.697-38.611-15.986-4.5068-31.338-4.7052-45.983 4.542-13.349 7.5991-32.778 12.901-37.131 23.236 1.2054 23.533-13.222-11.692 1.9006-15.731 12.322-14.617 30.307-22.045 46.519-31.361-11.965-9.8152-22.164-21.308-31.943-33.029-12.678-11.412-11.718-28.259-13.925-45.802-4.2283-20.653-17.351-37.569-17.45-60.056-2.6593-19.134-10.312-37.589-17.658-55.3-11.627-13.875-36.507-33.027-13.085-50.154 18.815-15.864 42.256-27.347 67.4-25.566 10.604-0.9238 19.657 7.154 29.125 10.858 27.245 19.819 51.247 44.11 75.262 67.473 18.402 9.5756 37.922 17.577 50.144 35.247 14.015 12.753 6.7533 22.097 19.825 37.971 13.737 29.606 20.399 61.906 32.813 92.059 2.6121 15.142 11.677 43.909 9.8082 51.211-10.818-3.2827 21.568 22.525 0.18373 14.39-2.4276 11.181 15.427 30.804 20.865 44.983 22.253 37.788 37.882 78.771 55.776 118.67 2.8266 6.636 5.8156 13.123-1.5972 2.4346z" fill="param(fill)" fill-opacity="param(fill-opacity)" stroke="param(outline)" stroke-opacity="param(outline-opacity)" stroke-width="param(outline-width) 0.2"/>
</svg>
