<svg version="1.1" width="512" height="512" viewBox="0 0 512 512" xmlns="http://www.w3.org/2000/svg">
 <path d="m59.812 457.74c8.7775-11.427 10.737-30.981 14.576-41.011 4.5271 10.543-2.0543 46.963 13.607 39.918 7.161-18.076 7.321-45.734 4.367-59.317 8.1243 19.112 9.6357 41.46 20.996 58.907 10.413-15.535 5.0854-36.49 4.0288-54.255 0.89352-6.3208 9.3818 29.065 19.577 21.47 3.8624-12.352-5.8699-38.488 4.2153-43.451 13.483 19.581 8.2263-7.3409 11.131-14.825 18.758 9.4218 11.548-27.07 9.5528-31.228 15.552 6.0194 22.891-5.1623 16.946-18.524 17.046 0.28774 13.266-15.205 12.617-21.905 4.4988-6.0801 7.8022-9.807 2.595-19.182 24.73-0.12935-9.5734-20.194 15.268-17.622 17.815 1.4074-4.8682-17.071 16.489-13.318 5.7856-6.3872-6.516-21.239 10.721-21.269-17.935-11.858 5.4151-9.0195 10.871-15.629-12.896-9.3766-10.119-16.56 5.6179-17.397-11.717-11.297-2.4003-9.4314 5.6678-16.351 18.724 9.5884 38.62-1.6644 58.335-0.77311 16.974-1.2172 33.935-1.946 50.725 1.4147 29.828 3.3733 59.587 8.9441 89.626 9.2758-1.7512-4.3444-10.21-5.5565 2.1159-5.0859 8.6374-1.5149 35.327 3.6273 27.713-7.5318-32.645-12.12-67.501-16.997-101.18-25.618-39.704-7.0154-80.065-13.511-116.78-31.073-32.48-12.136-65.28-23.939-98.583-33.435-23.171-0.36831-45.795 7.7591-69.169 5.3754-22.728 1.2017-47.655-11.275-68.286 3.5753-19.582 10.792-18.399 38.831-8.7399 56.155 8.9078 13.918 20.809 15.157 14.335-0.11463 16.946 0.46515 34.113 7.8832 50.516-0.083 23.993-2.4886-5.8268 23.234-9.0068 33.221-13.747 24.524-22.555 52.325-20.32 80.686 1.7776 22.147-11.207 41.686-11.255 63.661-2.685 36.772-11.098 72.875-13.71 109.61 4.2961 5.1848 22.298-42.497 18.315-10.468 2.7577 7.1173-8.137 45.45 6.5075 36.202z" fill="param(fill)" fill-opacity="param(fill-opacity)" stroke="param(outline)" stroke-opacity="param(outline-opacity)" stroke-width="param(outline-width) 0.2"/>
</svg>
