<svg version="1.1" width="512" height="512" viewBox="0 0 512 512" xmlns="http://www.w3.org/2000/svg">
 <path d="m502.69 458.53c0.29122-0.4712-0.15718-1.4266-0.99644-2.1232-1.3849-1.1493-1.3727-1.3785 0.13182-2.4786 0.92363-0.67537 1.4066-1.8667 1.0906-2.6902-0.31193-0.81288-6.2968-4.3257-13.3-7.8062-7.0029-3.4805-13.935-7.1843-15.404-8.2306-1.4694-1.0463-3.065-1.9024-3.5456-1.9024s-1.7015-0.60514-2.713-1.3448c-1.6242-1.1877-1.6762-1.541-0.44477-3.0248 1.7201-2.0726 2.457-1.5069-17.41-13.364-16.556-9.8806-41.947-26.635-41.318-27.264 0.22106-0.22105 3.847 0.84889 8.0575 2.3777 10.125 3.6762 15.436 4.5599 16.154 2.688 0.29755-0.7754-0.40589-2.2778-1.5632-3.3388-2.1736-1.9926-15.55-9.7741-31.574-18.368-5.0485-2.7075-10.049-5.6294-11.112-6.4931-1.8078-1.4691-1.3715-1.5369 6.7635-1.0512 4.7828 0.28556 9.3482 0.11068 10.145-0.38864 3.6402-2.2802-1.0019-5.0337-42.03-24.93-9.0341-4.3811-15.121-7.7558-13.527-7.4993 8.4762 1.3636 25.101 2.6086 27.878 2.0876 1.7534-0.32895 4.0245-1.2438 5.0468-2.033 1.8069-1.3948 1.7837-1.5018-0.83166-3.8349-2.7189-2.4255-10.45-5.1486-21.948-7.731-3.4542-0.77578-11.933-3.116-18.841-5.2005-12.232-3.6909-12.46-3.8087-8.696-4.5073 2.1257-0.39455 5.478-1.5282 7.4497-2.5192 1.9717-0.99099 4.4044-1.8018 5.406-1.8018 1.0016 0 2.6457-0.91107 3.6534-2.0246 1.8041-1.9935 1.7992-2.0514-0.32178-3.7688-1.6842-1.3638-4.6326-1.8751-13.519-2.3443-6.2506-0.33002-16.699-1.0254-23.219-1.5454s-14.088-0.94533-16.817-0.94533c-4.6626 0-4.8705-0.10221-3.4388-1.6909 0.83809-0.92999 1.8142-2.8546 2.1691-4.2769 0.3549-1.4223 1.4758-3.3376 2.4908-4.2562 1.015-0.9186 1.8455-2.212 1.8455-2.8743 0-0.66228 1.5218-2.102 3.3818-3.1994 2.901-1.7117 3.3818-2.5061 3.3818-5.5889 0-2.3209 0.71864-4.3586 2.0291-5.7535 1.9297-2.054 2.8637-8.3704 1.4472-9.7869-0.32001-0.32002 0.13751-1.3767 1.0167-2.3482 0.87921-0.97152 1.5592-3.1524 1.511-4.8465-0.05-1.7605 0.55766-3.552 1.4184-4.1814 1.4042-1.0268 2.1243-8.6414 0.93011-9.8355-0.25396-0.25396 0.37162-1.2951 1.3902-2.3137 2.2625-2.2625 2.3197-3.9559 0.27886-8.2566-1.3874-2.9238-1.4055-3.5112-0.15316-4.9771 0.9871-1.1555 1.3591-3.5765 1.2204-7.9426-0.27349-8.6113-0.16936-8.2018-2.9155-11.465-2.4237-2.8804-2.43-2.9311-0.49311-3.9676 4.4841-2.3998 6.6612-11.917 3.52-15.388-1.4337-1.5843-1.4067-1.85 0.35012-3.4399 2.9991-2.7141 4.1906-7.484 2.9865-11.955-1.0302-3.8258-2.418-4.9933-5.9352-4.9933-1.5535 0-1.3364-0.47566 1.2868-2.8199 2.7229-2.4334 3.143-3.4185 3.0642-7.1868-0.10769-5.1544-2.3637-9.0212-6.2058-10.637-2.0913-0.87933-2.5503-1.511-1.8743-2.5798 1.4128-2.2338 1.072-10.406-0.56617-13.574-0.94256-1.8227-2.4879-3.0826-4.2015-3.4253-2.6114-0.52228-2.6822-0.68902-1.9344-4.5571 1.4928-7.7218-0.9923-14.16-5.4655-14.16h-2.1645l1.885-6.0389c2.435-7.801 3.4098-17.591 1.8476-18.556-1.4753-0.91181-6.058 2.2988-17.174 12.032l-8.8909 7.785 4.7113-9.9304c5.8965-12.429 8.6461-20.784 9.3891-28.53 1.0556-11.007-2.3682-8.0351-22.542 19.566-6.6032 9.0341-12.832 17.416-13.841 18.626-1.6293 1.9535-10.491 5.5388-11.412 4.6173-0.19684-0.19683 0.3727-1.7707 1.2656-3.4974l1.6235-3.1396-2.666 2.0971c-1.4663 1.1534-2.8457 1.9174-3.0653 1.6978-0.21962-0.21963 0.89522-4.2476 2.4774-8.951s3.1508-9.7866 3.4858-11.296c0.96128-4.3317 0.70912-22.711-0.33703-24.565-0.78661-1.3944-1.3823-0.70018-3.5353 4.1203-7.8407 17.555-18.068 46.737-22.181 63.287-0.85834 3.4542-2.8376 10.308-4.3983 15.229s-2.8488 10.574-2.8624 12.561c-0.0166 2.4317-1.1131 5.32-3.3558 8.84-5.618 8.8177-6.5968 13.171-6.0649 26.978 0.28685 7.4462 8e-3 14.744-0.72545 18.94-1.716 9.8261-11.523 38.949-14.92 44.305-3.2003 5.0464-7.8831 8.4075-11.721 8.413-1.3814 2e-3 -9.4251-1.7969-17.875-3.9975-13.42-3.495-16.769-4.0144-26.475-4.1064-9.688-0.0918-11.615 0.16413-15.041 1.998-5.3936 2.8871-6.5958 4.5358-5.6786 7.7878 0.41413 1.4683 0.64315 4.9025 0.50893 7.6315-0.2674 5.437 1.283 9.3571 5.2826 13.357 2.5342 2.5342 4.2997 3.1567 4.2997 1.5161 0-0.51646 2.0214 0.13573 4.4919 1.4493s5.4555 2.3884 6.6332 2.3884c1.1777 0 3.3784 0.9783 4.8904 2.174 1.512 1.1957 6.2043 3.5334 10.427 5.195l7.6785 3.021-7.157 5.2918c-10.765 7.9595-16.637 11.522-29.381 17.822-16.089 7.9546-25.048 13.439-31.338 19.185-2.9576 2.7019-7.5515 6.1452-10.209 7.6517-2.6571 1.5065-8.0921 4.9913-12.078 7.744-9.9631 6.881-32.476 18.54-37.314 19.323-2.4856 0.40261-6.0965 0.0915-9.621-0.82884-6.5319-1.7057-8.0767-1.2684-3.005 0.85074 2.4164 1.0096 6.8722 1.4648 14.4 1.4712l10.901 9e-3 -4.0961 2.455c-2.2529 1.3503-5.9468 2.771-8.2087 3.1571l-4.1126 0.70208 7.1227 1.7192c4.9637 1.1981 8.6966 1.5225 12.315 1.0704 3.2425-0.40468 5.1925-0.28636 5.1925 0.3155 0 0.53011-2.1654 3.7325-4.8119 7.1164-2.6465 3.3839-4.8205 6.5359-4.8311 7.0043-0.01053 0.46845 3.1698 0.64707 7.0674 0.39693 5.3585-0.34389 8.5393-1.1807 13.044-3.4317 6.7798-3.3879 6.7632-3.4088 4.5697 5.7678-1.1131 4.6568-1.1135 5.6876-0.0019 6.6099 1.8565 1.5408 9.6053-0.25748 16.835-3.9068 6.6497-3.3569 6.778-3.3845 6.778-1.4568 0 0.79713 0.92157 2.3709 2.0479 3.4973 1.6972 1.6972 2.7777 1.9479 6.309 1.4639 2.3436-0.32123 6.4105-1.5087 9.0375-2.6388l4.7765-2.0548 2.9988 2.5233c4.4204 3.7195 11.242 3.0294 17.827-1.8035l2.8987-2.1276 2.2475 2.7441c1.866 2.2784 2.9886 2.7441 6.6144 2.7441 4.058 0 9.9793-2.3914 9.9793-4.0303 0-0.39327 1.7939-0.0821 3.9864 0.69144 5.6498 1.9934 6.5042 1.8229 10.129-2.021 2.7002-2.8631 3.5438-3.2608 5.1232-2.4156 2.5883 1.3852 7.3615 1.2733 8.5853-0.20128 0.55377-0.66725 1.2968-2.3685 1.6512-3.7806 0.63596-2.5339 0.68894-2.5488 4.049-1.145 2.587 1.0809 4.098 1.1808 6.2921 0.41591 1.911-0.66619 3.4874-0.68561 4.6612-0.0574 2.7183 1.4548 5.2614 1.1407 7.9616-0.98324 1.3512-1.0628 3.6124-1.9324 5.0249-1.9324 3.3198-4e-5 6.3061-1.6176 6.3061-3.4158 0-0.84611 0.92391-1.4153 2.2972-1.4153 2.7326 0 4.9074-2.2878 4.1216-4.3357-0.42553-1.1089 0.15431-1.4616 2.4029-1.4616 2.0149 0 3.7901-0.88461 5.5448-2.763 1.4196-1.5197 3.6593-3.0914 4.9772-3.4928 3.2694-0.99574 6.7441-4.331 6.7441-6.4734 0-1.1329 0.70705-1.764 1.9764-1.764 2.4737 0 6.7196-4.1395 6.7196-6.5512 0-0.99436 1.087-2.8291 2.4156-4.0772 1.3286-1.2481 2.4155-3.2941 2.4155-4.5467 0-1.2964 0.72837-2.5358 1.6909-2.8771 3.3011-1.1707 5.0726-3.5064 5.0726-6.6881 0-1.9903 0.61493-3.5281 1.6403-4.1019 1.3746-0.76925 2.3348 0.31187 5.9283 6.6744 2.3584 4.1758 7.0417 11.034 10.407 15.241 11.766 14.706 38.065 34.838 38.065 29.139 0-0.53754 2.3352 0.92472 5.1894 3.2494 9.7151 7.913 21.712 15.12 25.169 15.12 0.79 0 6.7829 3.6468 13.318 8.104 14.291 9.7475 39.59 24.747 41.74 24.747 0.87911 0 1.5435-0.80033 1.5435-1.8594 0-2.1662-15.961-17.276-25.808-24.431-14.503-10.538-8.911-7.3485 13.248 7.5568 24.71 16.622 57.667 35.093 60.02 33.639 2.5935-1.6029 0.0607-4.7336-11.285-13.949-6.675-5.4217-11.959-10.035-11.741-10.253 0.43467-0.43467 9.7009 3.3375 38.758 15.778 16.847 7.2126 34.259 13.809 36.453 13.809 0.40037 0 0.96622-0.38553 1.2574-0.85674z" fill="param(fill)" fill-opacity="param(fill-opacity)" stroke="param(outline)" stroke-opacity="param(outline-opacity)" stroke-width="param(outline-width) 0.2"/>
</svg>
