<svg version="1.1" width="512" height="512" viewBox="0 0 512 512" xmlns="http://www.w3.org/2000/svg">
 <path d="m347.63 490.65c-14.105-19.741-14.163-45.533-18.895-68.547-2.8118-16.505-4.4714-40.72-6.3509-52.974-0.30454 39.04 2.8851 78.283-0.65219 117.19-13.35 13.045-18.509-23.993-20.142-34.86-4.3514-30.282-7.7583-60.879-7.1102-91.479-5.0613 17.074-2.7684 37.338-13.038 52.292-18.155-4.5661-9.0888-33.586-11.369-48.821 0.14356-12.096 0.29781-24.191 0.44575-36.287-12.808-4.9817 9.9702-9.7059 0.27285-21.126-4.0221-16.905-27.343-9.2365-16.872 6.9678-0.11427 9.8636 3.2042 19.648 14.975 17.748-13.9 17.24-37.207-5.7233-40.767-18.677-13.481 3.2086-17.57 11.095-13.255 23.802-7.0395-4.2927-8.7605-6.6813-9.2912 4.4714-8.8028 6.0623 13.601 30.95-4.2467 17.064-19.185-11.382-4.5153-36.308 6.118-48.082 10.515-4.7794 21.77-9.4825 8.589-20.03-11.82-14.972-4.7533-34.72-17.834-48.69-7.4344-15.125-13.076-28.948-17.726-45.281-3.6005-16.2-4.5942-33.987-10.471-48.564-1.7331-12.135-0.42331-26.996-12.109-34.628-6.2129-15.224-37.519-4.2741-37.362-19.101 11.272-4.1049 4.4604-27.46-2.4104-7.752-5.5743 7.2538 8.1788 31.636-7.267 15.02-19.204-17.214-4.3438-42.486-0.43771-61.771 9.9063-15.109 25.122-19.485 42.432-20.672 20.305-1.9396 38.879 6.7482 57.949 12.118 8.2421 1.7842 15.502 5.6091 9.4173 11.46 9.8665 10.568 18.714 22.494 26.358 34.138 2.3082 10.813 25.06 22.658 30.026 37.834 13.402 18.675 37.436 27.52 47.143 49.46 20.549 37.37 28.91 79.847 36.374 121.39-0.6431 7.4357 3.0075 13.108 8.0133 18.224 10.348 13.971 23.845 26.718 29.322 43.399-15.32 11.708-30.388-15.486-46.225-16.713 9.8635 21.926 25.071 42.165 29.553 66.095-13.03 4.1-21.765-22.748-31.605-31.838-6.2495-5.9264 2.0118 19.54 2.0413 26.63 4.5903 33.518 13.065 68.286 5.1074 101.88-1.6048 5.4466-6.9472 1.7218-8.7004-1.2882z" fill="param(fill)" fill-opacity="param(fill-opacity)" stroke="param(outline)" stroke-opacity="param(outline-opacity)" stroke-width="param(outline-width) 0.2"/>
</svg>
