<svg version="1.1" width="512" height="512" viewBox="0 0 512 512" xmlns="http://www.w3.org/2000/svg">
 <path d="m492.07 441.75c-18.18-9.9166-29.906-27.626-45.615-40.293-21.502-13.641-43.758-27.382-60.285-47.05-19.428-5.1664-38.26-13.755-58.309-15.978-14.537-0.28012-36.848-9.4748-35.474 13.03-7.0403 16.605-28.64 25.378-39.483 7.7435-3.0238 11.111 23.931 32.921 5.8215 45.126-12.732 4.5798-7.4202 1.6878-1.6858-4.9084-4.6772 2.4083-31.782 3.0184-13.27-3.5978 10.357-16.226-5.1043-42.447-25.414-38.267-10.022 2.2723-3.7217 27.884-12.3 9.2135-5.2251-24.576 31.995-21.338 41.993-26.142-3.63-24.552-36.025-17.971-51.866-31.644-26.677-12.734-37.796-42.217-58.233-61.942-17.234-17.553-31.21-37.818-47.181-56.404-14.352-17.493-33.869-18.913-54.132-15.267-15.751-9.4932-11.753 7.7622-4.1278 15.452-23.955-4.2522-29.07-35.445-18.423-53.91 4.2209-22.784 25.595-35.821 46.776-40.066 13.187-1.53 26.918-0.52922 39.912 1.3153 23.89 12.414 48.859 25.491 65.653 47.128 27.181 12.931 57.227 21.096 81.633 39.618 17.021 13.215 37.632 18.04 57.898 22.667 49.153 35.721 97.702 72.947 140.76 115.97 7.1622 7.3942 33.075 34.712 6.5976 25.03-11.316-3.5511-26.012-13.765-10.828 2.4108 4.2852 5.4191 27.191 36.304 9.5616 26.559 15.492 21.18 32.861 40.928 48.5 62-10.199-5.976 6.2944 12.794-8.4745 2.211z" fill="param(fill)" fill-opacity="param(fill-opacity)" stroke="param(outline)" stroke-opacity="param(outline-opacity)" stroke-width="param(outline-width) 0.2"/>
</svg>
