<svg version="1.1" width="512" height="512" viewBox="0 0 512 512" xmlns="http://www.w3.org/2000/svg">
 <path d="m402.41 498c-20.267-24.627-36.969-52.446-55.315-78.709-7.8399-15.387-32.961-22.028-47.008-20.613-0.737 19.008-13.249 14.391-28.151 8.9734-10.248 6.9472-24.432 2.5914-25.606-9.0851 7.219 13.055 19.991-2.7497 3.9018-2.4437-12.602-2.8229-40.411-13.733-44.698-0.8168 9.7329 2.947 0.0202 6.4419 15.343 5.318-22.591 14.872-42.214-23.392-12.675-28.65 12.481-1.126 30.491-1.5352 11.36-13.407-9.6096-19.207-31.334-24.708-44.873-39.017-4.3031-23.182-26.575-0.53732-31.404-9.9408-4.6022 8.7972-7.586 6.3796-14.412 3.0442 5.2616-13.208-9.3327 4.23-6.3639-10.852 3.9714-11.771 1.3205-8.2334-3.5537-1.9422 4.2088-12.801-7.1818 8.8654-0.81643-6.2453-9.5623 17.068-2.1955-15.235-8.4673-6.7632 4.052-8.8953 5.1612-29.938-2.6905-25.763 4.8785 9.179-5.4424 10.864-6.033 3.5956-8.5137 12.643-0.0607-10.783-13.406-4.2322-15.602-6.3936-26.047-35.8-12.239-47.01 16.376-6.9877 8.0881 0.67499 2.9302 7.4492 10.927-1.46 23.212-11.193 33.684-2.9841 11.949 8.6599 19.874 12.863 28.031-2.1003 7.3143-5.7622 10.473-13.447 7.3702-22.694 0.43361-15.013-20.861-19.125-10.927-36.911-3.8795-11.831 2.6963-29.115-5.2197-43.979-4.041-15.383-24.47-11.392-31.854-21.204-1.8895 10.174 4.165 28.421-6.8734 10.915-13.778-20.568-1.1152-43.621 11.663-60.416 8.2209-22.8 37.296-27.929 58.286-24.017 32.218 9.0481 61.067 30.105 79.211 58.293 14.407 11.826 26.045 27.976 41.985 37.03 18.183 9.5904 35.314 22.269 42.713 42.266 8.7765 18.721 23.562 33.919 31.054 53.349 11.251 16.606 19.917 34.812 24.524 54.207 12.078 25.64 30.207 49.095 38.995 75.844-7.5195 3.8937 14.464 24.486 14.169 36.061 5.9808 10.832 7.9745 30.479-7.8927 22.699 1.5738 26.262-28.791-20.05-17.902 8.1018 6.4702 22.362 20.112 41.74 24.609 64.872 3.2443 10.918 14.424 39.506-6.5035 22.762-8.1422-7.2046-3.8715 13.027-11.541 0.36066-12.446-19.419-6.1785 12.591-13.404 4.6563zm-259.2-185.35c0.69648-5.5205 0.41229 5.9486 0 0zm-50.466-44.2c2.328-8.9046 3.7835-0.52932 0 0z" fill="param(fill)" fill-opacity="param(fill-opacity)" stroke="param(outline)" stroke-opacity="param(outline-opacity)" stroke-width="param(outline-width) 0.2"/>
</svg>
