<svg version="1.1" width="512" height="512" viewBox="0 0 512 512" xmlns="http://www.w3.org/2000/svg">
 <path d="m379.53 426.61c-37.912-2.7831-75.329-15.919-104.95-40.03-6.4323-4.5604-15.614-22.029-15.398-4.4432-2.7518 15.078-14.321 8.1617-18.983 1.3292-12.142-6.7524-18.609-26.976-20.691-41.418-5.936-18.272-3.7995 36.501-12.657 8.7105-3.6918-8.2277-19.821-28.95-12.16-7.469-9.2464 14.93-34.959 25.924-28.585 49.34 5.7448 8.156-16.085 8.6598-6.6464 12.696-13.42-2.9469-36.074 10.881-38.734 1.7116-4.7944 2.9193 6.2326-12.728-5.3311 0.36916 2.1279-4.1048-9.7881-1.743 0.0872-9.2832 18.624-2.3113 43.927 0.60569 44.29-25.795-9.8365 14.23-34.668 8.8759-46.904 11.855-0.90309 1.3374 2.8917-9.0208-5.691-4.336 8.181-6.8705 17.119-5.8129 2.4528-8.634 19.092-1.0463 41.197 5.9348 54.658-14.935 5.3985-16.68-14.576-33.143-22.34-47.324-28.198-7.998-54.505-21.994-76.983-40.762-14.115-16.835-22.955-37.81-29.724-58.541-7.7503-29.744 14.86-55.841 13.041-85.224-2.1603-10.509-16.538-15.549-27.438-18.791-1.6648-0.4951-7.2484-0.94827-8.6951-1.3726 3.4021-5.0622 13.293-6.8442 19.751-7.6929 3.9735-0.52215 6.6381-5.202 15.791-5.5124 9.1526-0.31037 13.73 1.6679 14.589-8.556-5.308-23.679 38.551 9.2818 21.114 12.199-29.087 1.7277-4.4672 34.401-10.837 51.457-2.2572 17.086-7.2976 41.723 14.045 48.68 8.8277 3.614 19.19 0.63185 28.63 1.6123 22.956-2.7833 45.29 4.855 63.615 18.562 51.731 36.364 81.539 96.767 136.49 129.12 20.886 10.8 44.966 14.962 68.023 9.457 30.1-2.4547 60.608-2.8131 90.705-0.38391 22.166 0.95066 45.221 27.95 20.102 44.005-10.447 9.1868-24.691 18.672-37.519 9.9021 7.0962 7.4831-7.0003-0.3722-3.3817 4.5414-9.0473-4.6068-6.75 4.7452-12.45-10.355-4.1427-6.5892 8.9691-5.232-6.1279-7.6924-5.4748 2.2448 12.484 9.3448-2.6985 4.1211-2.394 4.7881 11.394 14.45-1.7613 4.8348-1.3618 4.5818 7.2181 10.483-3.8307 1.0686-2.531 4.4342-24.678 0.068-10.586 4.307-1.0527-0.0972-13.657 0.43744-2.2872 6.3554-10.475-2.5299 3.187 2.5984-9.3968 1.9477 10.981 12.723 14.581 8.6044 30.571 4.3217 7.3496 1.2084 22.689-8.6769 7.3008 0.22358-19.732 7.6857-41.657 7.2521-62.47 5.8192zm29.686-8.0092c-6.0168-5.1175 10.689 5.3673 0 0zm22.982 0.13041c7.7988-7.3437 7.5301-3.5404 0 0zm-12.191-3.188c8.1775-0.82484-1.3598 1.5705 0 0zm-5.285-0.9282c5.959-0.94995 0.0743 1.6569 0 0zm0.7182-3.2149c4.3566-1.7109 15.852 2.259 2.4423 0.53785zm4.0698-2.5307c5.959-0.94994 0.0743 1.6569 0 0zm15.983-6.6007c-4.5489-4.1488 6.995 4.4437 0 0z" fill="param(fill)" fill-opacity="param(fill-opacity)" stroke="param(outline)" stroke-opacity="param(outline-opacity)" stroke-width="param(outline-width) 0.2"/>
</svg>
