<svg version="1.1" width="512" height="512" viewBox="0 0 512 512" xmlns="http://www.w3.org/2000/svg">
 <path d="m290.45 437.28c-13.513-13.258-41.826-3.1426-49.88-16.246 16.142-7.1693 32.224-14.425 41.498-30.234 16.288 4.9333 27.155-17.951 37.831-1.8218-1.5424-17.374-18.707-34.563-32.444-37.705-0.46156 14.611 18.464 34.138-7.0858 34.633-8.7507 11.365-16.63 18.851-32.519 14.439-10.697 1.098-32.174 7.4194-20.066-10.51 4.6786-13.266-5.0055-33.743 17.226-30.107 13.007 1.8829 41.602-8.5831 16.522-16.327-20.729-3.5071-41.987-4.5547-61.05-15.089-20.392-8.2194-42.873-1.4901-61.339-15.669-18.317-11.522-31.269-33.809-30.862-55.602 3.3548-21.981-27.944-0.77335-40.94-5.8579-18.014 6.5207-39.717-19.548-49.936 4.05-9.6856-9.861 6.9003-32.158 18.835-38.228 34.753-20.344 64.107-48.703 100.09-67.177 17.44-9.4035 36.722-17.592 48.012-34.814 13.536-18.723 39.973-16.608 58.813-8.6152 4.17 7.1414 16.966 22.625 14.161 27.913-4.5012 2.4441-1.5273 8.3004-8.4641 5.318 1.4523 8.3744 12.98 27.326-3.8862 13.534-7.3959-7.9797-9.3281 19.646-22.001 18.19-7.2615 5.0377-34.632 15.707-10.347 13.198 18.959 7.1933 38.536 9.9483 58.969 8.5164 23.512 0.19655 47.93-1.9459 69.813 8.5274 19.073 9.1362 38.094 19.092 55.469 31.196 33.522 25.699 53.906 64.572 88.665 88.836 8.1189 8.8664-17.988 6.8889-1.6749 14.306 5.2217 6.3342 28.663 9.9582 8.8212 13.405-18.569 13.588-39.215 18.2-61.464 12.627-19.362-5.0173-39.747-5.1396-58.098-13.673-13.832-5.0733-26.393-4.4622-32.85 10.582-13.816 5.3445-8.1709 19.487-4.5519 30.294 10.059 18.689-20.285 30.671-30.359 44.718-4.1952 3.3055-9.6949 8.5557-14.912 3.3942zm-108.45-272.36c8.7649-4.3579 15.388-14.181 2.7079-4.5901-5.6751 2.6479-14.363 11.71-2.7079 4.5901z" fill="param(fill)" fill-opacity="param(fill-opacity)" stroke="param(outline)" stroke-opacity="param(outline-opacity)" stroke-width="param(outline-width) 0.2"/>
</svg>
