<svg version="1.1" width="512" height="512" viewBox="0 0 512 512" xmlns="http://www.w3.org/2000/svg">
 <path d="m147.79 494.88c7.2673-13.218-42.396 7.8017-22.021-6.0316 12.107-4.8947-14.972 1.6231 1.8376-6.8574 19.135-10.337 41.241-13.517 62.053-18.352 19.175-15.449 0.12824-31.269-3.4047-49.645-5.0884-21.534-31.24-28.17-32.538-52.507-14.155-39.248-24.713-80.966-19.471-122.99 2.6968-23.567-3.6928-47.289-1.4495-71.086 1.6599-21.049 8.4064-42.164 19.301-60.26 9.4686-16.875 47.818-12.577 26.234-37.79-10.066-17.51-28.399-28.122-44.804-38.968-8.3564-6.8624-26.065-9.1758-30.784-15.171 25.635-2.4662 47.911 15.128 72.639 19.251 19.813 2.8598 45.32-1.1575 58.27 17.727 15.035 20.641 11.881 47.192 5.8758 70.363 7.3065 14.451 14.706 38.642 34.498 39.723 31.128 5.0487 63.541 5.006 92.765 18.434 29.202 12.467 59.173 29.342 76.392 56.926 7.5716 32.208-28.167 7.8771-40.236-0.47603-19.116-7.6333-39.398-12.28-58.496-20.214-18.786-7.8502-42.589 3.3729-58.126-12.914-13.471-10.159 5.2514 20.933 5.1842 28.326 15.875 42.968 17.426 89.238 28.992 133.22 1.2134 15.053 16.092 24.792 18.244 38.484-6.6558 18.049 9.6998 25.653 15.981 39.76-5.9753 20.056-32.588 15.466-45.836 28.288-11.662 5.4982-31.023 23.646-41.726 13.994-0.84049-10.609 29.107-23.848 19.274-24.505-16.756-1.1623 43.495-12.138 16.275-23.648-13.137-9.084-23.49 0.60102-36.869 0.36604-14.215 0.0515-31.737-10.817-31.017 11.731-6.6248 16.902-12.133 40.814-35.341 38.101-16.773 1.7283-36.829 7.7601-51.7 6.7177zm-10.896-264.2c-1.6594-1.7865 0.594 5.435 0 0z" fill="param(fill)" fill-opacity="param(fill-opacity)" stroke="param(outline)" stroke-opacity="param(outline-opacity)" stroke-width="param(outline-width) 0.2"/>
</svg>
