<svg version="1.1" width="512" height="512" viewBox="0 0 512 512" xmlns="http://www.w3.org/2000/svg">
 <path d="m303.39 499.3c3.2915-10.01-18.821-19.594-18.972-14.397-13.887-17.998 3.0481-35.84 12.654-50.536 1.4699-15.734-4.7523-47.927-26.075-29.35-10.942 2.6616-20.866 2.0667-11.18 15.999-9.7576 12.911-34.029 6.2379-48.419 15.27-14.29 5.9994-24.676 12.675-36.085 6.6761 12.198-15.833 34.388-17.92 50.961-27.813 12.474-0.55165 20.383-12.695 4.5659-12.155-20.208-9.7702-11.472-36.17-21.272-52.704-17.058-38.437-24.518-80.567-28.817-122.18-1.1384-26.884-3.9568-56.648 10.661-80.541 12.374-14.036 36.299-18.872 35.814-41.545 7.6806-19.722-2.0744-37.957-19.456-48.019-31.589-15.661-66.161-24.48-99.434-35.482 16.69-5.6996 37.294-1.6232 55.538-2.8914 26.222 2.0332 51.356-6.2537 76.75-11.077 22.614 0.62617 46.578 16.527 47.536 40.791 4.6301 22.297-6.3802 43.269-9.656 64.907 27.245 11.741 39.294 40.613 59.743 60.127 20.128 21.457 37.203 46.426 44.071 75.407 5.5277 15.54-7.4402-7.599-0.77953 7.5908 3.5171 9.4797 7.0965 29.165-2.1424 18.203-1.7402 21.049-11.943 41.411-19.501 61.3-2.1226 20.917-18.574 36.762-28.33 54.7-12.272 14.615-29.988 24.536-18.82 46.245 8.7874 18.568 14.19 42.067 4.0374 61.15 7.1074-23.702-15.039 3.815-13.395 0.32413z" fill="param(fill)" fill-opacity="param(fill-opacity)" stroke="param(outline)" stroke-opacity="param(outline-opacity)" stroke-width="param(outline-width) 0.2"/>
</svg>
