<svg version="1.1" width="512" height="512" viewBox="0 0 512 512" xmlns="http://www.w3.org/2000/svg">
 <path d="m284.94 481.29c-0.0534-22.919-48.878 8.4158-29.801-15.047 11.199-12.206-16.499-0.0795-4.2639-9.9616 13.941-11.301 39.152-4.7072 46.588-24.574 5.9214-9.4099 10.677-22.592-5.6781-18.416-15.829 3.3488-35.633-6.362-47.934-2.947-4.1379 14.809-0.73573 33.97-13.835 44.667-13.7 9.0211-29.343 10.265-45.932 13.637-9.828 5.3759-5.0333-9.3274-16.458-3.1788-4.6281-2.41-2.7233-4.4875-8.4286-0.47395 8.7385-15.399 29.692-15.996 43.094-26.017 11.596-11.348 18.791-30.309 11.577-46.177-9.1871-19.838-20.407-39.23-22.674-61.457-3.7807-12.893-3.5609-32.686-11.151-41.482-9.4051 8.7202-13.357 21.554-16.605 33.426-4.127 15.709 3.7009 37.098-7.5957 49.216-19.935-1.8308-29.501-25.069-29.461-42.958-2.2446-32.55 13.885-63.123 35.725-86.213 13.888-12.752 17.21-31.717 17.096-49.69 2.9473-19.676 8.7016-38.936 13.942-58.139 7.1099-16.944 12.457-34.956-0.91615-49.749-6.6457-8.862-37.12-6.532-20.409-23.397 17.752-5.8077 25.978-26.027 46.6-26.301 20.078-3.0538 40.36 9.49 45.337 29.405 8.3754 26.026 3.6049 54.232 10.767 80.391 10.549 14.305 10.248 33.251 20.771 47.389 9.3648 12.927 16.648 27.225 25.384 40.511 10.08 13.134 14.67 32.277 18.744 49.053 1.6327 24.493 8.168 48.138 13.611 71.945 1.3222 16.193 7.8271 36.409-0.0168 50.5-4.7975-23.294-5.0636-47.862-13.52-70.378-2.8115 27.196 6.3273 54.927 2.5954 82.267-9.4942 3.0006-21.54 2.8832-21.583 17.174-7.371 16.331-10.833 35.531-27.624 45.516-2.0801 0.89838-10.156 9.5846-7.9457 1.4579z" fill="param(fill)" fill-opacity="param(fill-opacity)" stroke="param(outline)" stroke-opacity="param(outline-opacity)" stroke-width="param(outline-width) 0.2"/>
</svg>
