<svg version="1.1" width="512" height="512" viewBox="0 0 512 512" xmlns="http://www.w3.org/2000/svg">
  <path d="m14.356 329.41c6.4115-17.532 30.112-22.314 43.182-35.037 12.458-8.915 17.088-27.045 33.758-30.056 19.058-9.1996 42.081 3.1632 58.668-10.857 35.664-24.166 74.328-44.719 116.65-54.231 36.104-7.8581 75.13-7.3915 109.88 5.9215 10.156 2.4691 16.583 13.19 26.134 15.301 19.352 0.0939 39.027 2.7195 55.662 13.463 14.161 8.4402 30.335 16.764 41.12 28.488-11.964-4.4135-30.012-13.266-39.225-14.58 6.763 5.6592 32.909 17.631 10.711 13.362-8.1692-2.2931-19.442-3.987-5.7767 3.0599-9.94 4.2546-30.377 0.19179-43.366-2.3722-16.526 8.6365-30.593 21.377-46.251 31.559-41.769 24.389-91.648 20.759-138.07 24.503-44.868 4.3772-89.646-3.9263-134.57-1.5432-27.091 1.0904-53.886 6.1963-79.794 13.983-2.8748 0.32028-6.2499 1.0947-8.7103-0.9635z" fill="param(fill)" fill-opacity="param(fill-opacity)" stroke="param(outline)" stroke-opacity="param(outline-opacity)" stroke-width="param(outline-width) 0.2"/>
</svg>
