<svg version="1.1" width="512" height="512" viewBox="0 0 512 512" xmlns="http://www.w3.org/2000/svg">
 <path d="m175.75 500.09c31.105 2.8978 60.108-10.701 90.077-7.5343 3.9389-18.39 40.864 0.96386 33.21-20.475 10.357-12.873 63.034 15.481 74.419-4.9529-13.67-25.222-44.488-47.35-27.785-79.97 11.423-17.518 15.75-60.697 40.933-32.042 34.457 18.558 25.504-45.936 14.766-63.501-11.182-26.598-31.196-48.294-53.805-65.743 12.351-22.263 9.552-48.99-7.2489-68.454-10.559-26.661-41.914-41.835-41.089-69.82 16.048-27.555-11.107-55.366-38.806-58.961-21.845-5.8798-45.404-4.7003-66.661 0.87952-19.216-4.5741-63.698-16.784-69.851-7.4569 22.437 10.433 55.047 15.38 51.962 42.85 34.786 20.736-12.031 45.952-29.906 60.034-23.007 18.475-39.489 45.134-51.849 71.659-21.322 55.396 0.58912 120.39 44.005 158.65 14.895 24.838 27.509 53.898 54.407 68.429-26.355-3.7132-15.778 47.782 9.7028 31.316 8.5186-7.5454 44.98 8.422 28.487 11.323-29.341-0.66303-59.25 5.6872-82.366 24.549-29.261 16.754 21.247 7.2373 27.397 9.2245z" fill="param(fill)" fill-opacity="param(fill-opacity)" stroke="param(outline)" stroke-opacity="param(outline-opacity)" stroke-width="param(outline-width) 0.2"/>
</svg>
