<svg version="1.1" width="512" height="512" viewBox="0 0 512 512" xmlns="http://www.w3.org/2000/svg">
 <path d="m196.29 418.02c7.215-8.6671-16.977-23.57 5.1409-18.895-0.10675-10.017-21.397-8.6712-21.809-23.567-3.4142-9.0668-11.804-17.182-9.0348-27.476-6.4978-17.896 5.1987-30.103 22.817-32.399 16.614-8.7637 25.698-28.65 44.568-31.852 9.3964-5.0919 20.481 14.92 16.402-2.0125-12.127-19.076 24.065 13.949 7.5075-5.3718-7.0131-11.94 14.157 9.8422 17.724 13.192 5.6216 6.7581 13.621 10.497 5.0822-0.88857-15.042-19.462 13.064 5.7159 16.667 12.431 18.641 20.836-13.023-30.55 4.621-10.85 6.9423 4.6968 24.553 33.833 16.538 10.148-3.1536-11.967-7.8341-21.258-17.571-29.87 8.5292-0.78724 22.83 0.87292 32.98 1.6174 25.627 1.859 50.18 10.1 75.58 13.161-5.4503-7.7889-34.6-13.523-48.786-21.343-15.19-6.4546 17.113-2.4372 21.249-2.8532 32.313 0.34912 62.552 13.241 90.549 28.265-9.1469-22.498-33.654-32.342-54.134-41.85 20.456-2.6454 42.21-1.3546 63.113-3.674-25.68-14.612-56.356-7.8762-84.442-9.0374-43.369 0.98091-86.9-0.0365-130.06 4.5788-14.592 2.2438-28.906-1.3865-43.562-1.6978-24.998-11.414-49.431-24.506-75.59-32.914-16.44-5.5354-34.836-6.3481-50.347-13.023-7.2094-8.0128-6.971-15.185-2.9394-21.605 4.2718-6.8026 3.8528-2.4861 4.2718-6.8026-0.6058-9.1843 11.519-8.0551 16.505-3.6417-0.50728-3.1244 2.4476-2.33-3.5302-10.973-4.4906-5.438-2.192-11.968-4.5573-17.854-1.9314-4.8067-7.8893-9.4137-15.611-10.752-4.6719-4.6883-8.4086-7.9895-13.013-5.5298-8.6106 4.6001-19.469 5.6278-29.004 1.4626-9.5346-4.1652-9.4406 10.446-6.3112 11.597 8.743 3.2166 14.094 1.5859 6.7258 14.343-15.281 32.881-35.182 66.916-30.4 104.6 4.1224 30.592 35.786 44.832 48.521 70.964 14.076 18.755 2.4222 42.619-7.4723 60.339-10.933-2.5472-14.822 12.065-27.035 7.5515-10.376-1.5695-12.805 18.397-2.1507 7.1836 14.668-0.42831 36.053-1.6168 41.461 8.3318 4.324-10.583-10.935-23.93 7.0241-27.007-6.6953-10.424 6.6172-30.162 19.289-38.56 18.456-19.881 32.122 5.3309 49.642 12.145 8.261 10.663 24.94 31.517 19.251 42.639-11.097-1.962-32.027-5.1559-29.115 12.016 8.3452-10.896 21.157-0.38349 32.421-3.0169 8.7314 1.6691 13.211 18.809 20.819 18.747z" fill="param(fill)" fill-opacity="param(fill-opacity)" stroke="param(outline)" stroke-opacity="param(outline-opacity)" stroke-width="param(outline-width) 0.2"/>
</svg>
