<svg version="1.1" width="512" height="512" viewBox="0 0 512 512" xmlns="http://www.w3.org/2000/svg">
 <path d="m199.55 409.38c-7.7446-7.317-22.892-15.129-28.848-22.516-8.441 7.8153-33.226 22.872-31.919 19.661-2.4672-12.376-17.338 14.986-5.536-8.5845 23.359-9.7211 39.338-27.239 49.477-50.962-1.01-13.806-16.543-19.939-20.495-28.267-27.753-10.889-59.55-16.894-80.904-40.072-23.256-18.698-36.889-49.774-24.163-78.609 6.0356-25.742 13.519-67.838-6.9091-83.771-32.055 0.62727 27.66-16.137-7.1508-17.198-14.534-4.4932 27.19-9.237 31.713-14.108 41.76 1.4008 23.277 50.038 41.178 74.093 7.6316 11.418 15.45 26.407 28.891 31.304 45.277 16.907 91.327 37.359 124.8 73.401 17.407 17.999 42.141 25.002 62.127 36.66 8.4463 7.2878 26.313 16.334 41.936 27.28-22.849-4.8626 55.439 27.932 20.771 14.919-10.481-4.8463-36.012-15.22-12.472-3.3472 33.075 17.807 71.082 35.378 100.97 53.544-12.769-4.3122-44.925-21.98-46.841-20.537 12.863 7.6605 36.754 18.737 43.663 24.398-46.276-21.8-91.421-45.949-137.88-67.354 14.788 9.7709 59.762 33.623 55.96 34.222-24.132-12.743-53.032-28.384-74.117-39.558 8.7451 5.4326 51.996 33.429 20.101 16.957-12.61-4.6921-31.503-21.4-15.749-1.6624-9.9098-5.2804-40.481-28.287-36.052-21.728 23.323 25.356-12.15-1.409-19.289-4.9381-10.936 4.3174-20.727-6.746-34.441 2.646-21.634-7.9736-9.0619 23.964-26.632 32.43-20.097 19.24 21.994 30.804 15.606 41.113-6.9686-5.5553-21.021-17.937-27.266-19.132-15.345 3.2211-29.872 21.757-7.1059 25.487 5.0211-2.0768 12.698 22.541 6.5739 14.231zm-17.287-39.806c19.564-2.8087 38.369-51.987 16.9-48.609 11.182 17.205-27.727 49.739-16.9 48.609z" fill="param(fill)" fill-opacity="param(fill-opacity)" stroke="param(outline)" stroke-opacity="param(outline-opacity)" stroke-width="param(outline-width) 0.2"/>
</svg>
