<svg version="1.1" width="512" height="512" viewBox="0 0 512 512" xmlns="http://www.w3.org/2000/svg">
  <path d="m23.601 387.06c13.695-20.3 35.153-33.591 54.183-48.351 48.572-33.423 105.88-51.232 163.13-62.884 18.29 3.1258 32.736 17.215 51.156 20.709 4.406 7.3834 21.553 10.368 8.3761 0.89817-13-10.892-33.263-8.9975-43.227-24.546 3.0732-13.34 24.787 1.6932 35.149 8.5236 5.0907 3.3456 25.219 22.305 20.446 8.07-15.268-8.6585-29.494-19.3-43.257-30.041 35.326-20.918 77.304-32.756 118.8-32.302 36.054-0.34827 71.409 7.6251 106.36 15.422-20.061-8.503-41.125-16.948-61.144-26.403-18.656-6.0597-35.765-18.517-56.15-16.841-14.675-0.82385-29.421-0.83572-44.036-2.4814 9.982-8.6961-3.0929-5.2814-3.5212-7.1833-5.7338 5.5175-25.924 16.542-39.741 19.387-22.994 7.6596-46.569 14.775-70.645 17.606-17.504 3.2003-32.746-19.691-9.374-24.419 6.7434-5.6096 24.856-13.797 23.873-19.984-23.364 11.509-48.122 19.893-71.526 31.418-18.918 8.7774-39.344 14.063-57.764 23.902 19.713 0.9008 39.516-4.6095 59.427-2.67 9.2656 0.85327 17.062 7.664 25.72 10.981 10.992 2.8738 3.2079 5.6057-3.3217 8.3471-25.845 12.109-52.772 22.619-80.946 27.496-11.43 3.6314 5.1526 8.5437-8.7206 12.892-16.602 8.8419-29.289 22.186-40.541 36.965-17.797 17.941-27.856 41.678-40.021 63.454-4.1666 9.1115 7.2712-8.0333 7.3218-7.9653z" fill="param(fill)" fill-opacity="param(fill-opacity)" stroke="param(outline)" stroke-opacity="param(outline-opacity)" stroke-width="param(outline-width) 0.2"/>
</svg>
