<svg version="1.1" width="512" height="512" viewBox="0 0 512 512" xmlns="http://www.w3.org/2000/svg">
 <path d="m147.39 413.18c-1.782-22.431 2.3189-45.024 9.65-66.163-2.9032-4.2647-2.6868-12.662-0.56474-18.284 3.365-8.9156 5.0245-17.846-3.9641-19.513-11.078-1.0003-16.572-15.296-26.933-15.613-38.831 1.9025-77.298-7.565-114.62-17.237 27.096-2.3521 56.332 2.7354 81.805-7.4191 3.5935-7.1017 30.273 4.9381 43.071 2.5666 7.1216-1.5087 17.522 0.79123 24.67 0.20722l2.1916-7.8974c2.6359-11.902 13.681-35.003 25.796-34.695-7.0469 13.696-16.77 29.986-14.299 46.139 10.18 7.4881 18.123 6.8617 26.86 0.81949 3.8114-2.6357 10.371-2.442 14.377-2.5364 12.101-5.9426 33.796-32.016 17.991-40.99 13.531 1.4641 13.864-23.36 16.502-3.5307 23.549-8.4595 46.683-20.003 66.721-35.156 21.745-18.665 40.299-40.629 58.454-62.705 42.725-6.0241 83.538-21.018 124.7-33.398-53.448 30.335-106.58 67.007-138.27 121.06-8.6067 7.9758-5.9342 26.829-18.135 29.475-29.057 8.8751-53.623 29.985-70.991 54.403-0.0938 10.602 5.228 15.829 14.287 15.852 3.1045 8e-3 14.458 9.2767 16.759 17.143 3.4513 5.0358 15.75 0.97684 17.966 3.0201 0 0-1.4772 2.8033-3.0255 5.098 9.21 2.4573 10.375 1.6274 2.6234 5.0031-3.2649 1.4219-7.3794 4.8243 2.3606 8.7241-9.0801 9.9415-21.013-25.986-37.813-28.584-5.8748 0.21291-11.517 1.162-13.439 3.3954-0.11681 6.7183 0.25227 7.5059 6.3892 11.338 10.895 6.8034 12.188 16.928 20.946 20.577 8.758 3.649 1.5299 3.3551-6.1462 2.0228 10.554 9.3058 10.809 11.855-0.85718 4.9031-1.9453 1.8623-2.8889 4.5981-4.2354 3.581-1.9262-1.4551-2.04-6.5339-3.9294-10.559-2.8119-5.9898-7.763-11.438-13.997-13.608-14.762-9.3131-25.941-16.603-40.913-18.118-5.8169-0.58854-9.4749-4.3695-14.55-7.3686-9.9664-9.8561-26.804-20.834-27.536 1.4495 1.5816 5.0364 1.8077 10.384 2.8298 16.854-8.8844 7.0447-13.169 25.007-16.782 39.612-1.0729 8.1722-14.166 36.049-18.907 28.362-0.2176-5.6811 0.57186-19.842-1.8818-6.6945-1.0529 2.6212-4.0532 21.033-5.1603 8.4607z" fill="param(fill)" fill-opacity="param(fill-opacity)" stroke="param(outline)" stroke-opacity="param(outline-opacity)" stroke-width="param(outline-width) 0.2"/>
</svg>
