<svg version="1.1" width="512" height="512" viewBox="0 0 512 512" xmlns="http://www.w3.org/2000/svg">
 <path d="m202.79 480.94c15.812-7.4777 23.036-28.784 40.424-30.447-15.543-15.863-1.8656-38.581 6.7911-54.969 7.5374 1.984 18.526 2.8644 28.888 1.2272 11.578 0.66583 18.327 6.8914 2.3313 4.3307-11.734-4.4568-22.528 7.8436-5.2564 9.4919-7.476 3.8974-30.207 0.86005-26.856 14.108 12.477-4.8647 30.15-3.4507 43.895-5.9573-1.0674 8.9888-26.597 24.235-13.67 27.187 16.026-7.3762 22.407-25.123 31.058-39.375 11.573 5.4801 12.254-10.109 22.022-4.0421 15.186 3.7007 16.627-16.786 30.416-13.19 17.226 3 33.182 11.197 48.919 18.591 17.015-7.0901 15.749-29.858 9.6507-44.362-6.6271-21.102-11.475-42.767-17.691-63.875-11.036-21.736-21.761-44.282-40.595-60.546-21.039-20.677-45.163-37.65-67.934-56.284-15.883-12.363-34.062-22.48-53.84-26.714-22.239-3.8688-36.139-25.797-34.219-47.61-0.5536-18.408-0.0732-39.689-15.996-52.391-14.681-17.512-42.647-31.646-63.589-16.297-11.743 16.82-38.794 15.581-46.736 34.506 20.052-1.066 40.777 7.3738 46.066 28.665 8.3362 26.346-9.7086 50.867-12.662 76.611-8.1152 39.455-3.8262 82.052 16.99 117.07 17.421 32.59 44.448 59.348 74.49 80.351 12.311 3.3685 26.068 12.888 26.23 26.417-1.958 10.875-4.8583 42.074-20.515 26.134-4.9941-11.689-31.507-14.353-25.834-4.4426 10.79-1.3079 35.951 21.679 9.7649 16.617-10.872 0.73463-22.806-1.4848-33.203 0.36766-11.471 12.453-3.4978 9.0066 4.8935 5.4068 16.258 7.4745 35.53 1.0861 52.903 4.2049-1.9749 9.8139-28.624 21.822-17.133 29.216z" fill="param(fill)" fill-opacity="param(fill-opacity)" stroke="param(outline)" stroke-opacity="param(outline-opacity)" stroke-width="param(outline-width) 0.2"/>
</svg>
