<svg version="1.1" width="512" height="512" viewBox="0 0 512 512" xmlns="http://www.w3.org/2000/svg">
 <path d="m159.73 500.3c1.779-13.324-4.1158-16.519-15.858-14.387-12.012 1.8205-30.886-0.77757-10.867-9.4663 15.683-11.629 34.971-13.336 51.302-23.883 1.9186-15.41 3.2754-30.888 4.158-46.391-14.962-8.1568-20.24-30.963-34.609-42.663-4.7495-22.758-26.833-28.107-41.992-42.501-30.679-26.537-45.358-68.531-41.382-108.56-0.53423-22.755 19.178-40.704 16.964-63.727-22.185-5.4226-12.591-36.319-5.0108-50.871 5.8927-18.455-43.213 14.136-25.662-11.276 19.076-9.1052-3.7896-46.182 9.7394-52.311 9.288 25.104 10.837-37.544 14.526-3.9178 3.1634 12.978 9.1409-35.378 11.534-10.115 4.5652 26.327 15.827-25.941 23.995-11.636-9.5662 8.8299-3.1256 27.741 5.6585 11.45 5.9573-9.191 36.032-12.353 14.945 0.77292-14.319 26.665 19.316 13.106 20.25 1.0641 13.637 19.531-9.2788 43.824-30.15 42.544-19.585-1.0555-6.8451 3.9365 4.6131 9.8201 20.204 10.091 36.218 27.231 42.949 49.004 10.722 26.905 16.376 56.894 33.785 80.507 13.64 14.257 49.72 19.591 54.81-5.0661 15.048-38.02 27.063-80.312 60.852-106.52 26.719-23.378 69.674-23.935 98.93-5.1014 26.331 17.673 42.686 49.339 38.965 81.131 0.28067 9.5284 0.73917 19.133-5.1712 27.229-3.1283 13.216-27.764 23-14.058 2.4169 6.476-19.476 5.9838-42.353-3.9556-60.414 0.2465 19.56 1.7758 41.475-11.634 57.681-5.961 16.983-3.6644 44.418-21.258 53.059 2.2482-20.27 7.3898-41.322 1.4591-61.576-8.3257 10.01 1.8708 23.049-7.3032 34.189-2.2807 17.96-2.4581 45.16-17.083 55.364 2.3076-10.576-0.47207-24.734-7.8682-8.7461 0.91282 11.951-12.096 41.241-9.7839 12.007-3.1978-22.87-13.057 18.033-14.414 26.504-4.3646 7.7364-9.3427 12.416-16.367 10.135 0.15197 9.4902-11.562 9.96-8.4322-1.0179-10.784 3.4625-20.714 8.2403-23.615 12.987-5.6907-9.8554-7.3778 10.632-15.47-2.4826 2.8507 15.231-12.006-2.5279-13.576 12.77-4.8128 11.055-11.877 3.5791-14.792 17.1-8.9329 4.4539-17.866 8.9078-26.799 13.362-3.4536 20.495-1.9884 41.419-2.5321 62.122 17.685 4.906-11.806 15.496 9.4493 22.165 12.047 4.168 17.459 22.546 1.5182 12.016-10.017-7.1779-11.423-9.9107-18.288 0.83885-6.7993 2.7583-16.54 2.8443-11.542 10.192-19.416-7.1136-39.294 11.081-50.499 24.552l-0.43207-0.35564zm-4.877-25.315c-24.219-3.1773 7.0942 3.6249 0 0zm25.864-6.398c7.9529-9.2007-32.615 1.2564-9.2929 1.3578 3.064 0.11898 6.6016 0.534 9.2929-1.3578zm21.168-3.2438c-6.6332-9.3138-11.013 7.2997 0 0zm9.6065-11.957c15.583-13.836 3.8501-44.598 2.5883-63.934-8.0946-11.997-5.7024 15.61-12.96 19.992-6.2277 12.95-2.2783 32.144-3.6109 39.411-12.974 10.33 10.612 4.152 13.982 4.5311zm210.04-290.84c3.5161-19.114-9.3533-38.182-27.239-44.366 7.5248 17.989 13.604 36.256 25.796 53.336 1.1287-2.8577 1.0934-5.9708 1.4434-8.9701zm-49.129-42.957c4.1016-9.0256-17.287 5.0162 0 0z" fill="param(fill)" fill-opacity="param(fill-opacity)" stroke="param(outline)" stroke-opacity="param(outline-opacity)" stroke-width="param(outline-width) 0.2"/>
</svg>
