<svg version="1.1" width="512" height="512" viewBox="0 0 512 512" xmlns="http://www.w3.org/2000/svg">
 <path d="m146.68 497.11c22.263-1.1385 44.299-15.891 65.062-8.1527 12.685-4.6531-22.616-13.304-7.6059-22.313 3.8718-22.002 27.503-10.385 38.714-6.9108-13.088 5.7391-18.316 26.388-1.0336 10.897 16.163-9.8658 40.293-14.413 53.394-6.6218-7.1355-12.07-20.009-18.481-8.8579-33.827 5.7375-14.508 8.3479-30.895 14.392-44.879 14.378-10.912 28.757-22.138 45.761-28.613 12.311-16.62 19.764-34.48 42.465-39.808 18.31-10.272 17.431-40.946 44.275-30.738-0.69887-15.72 28.834-2.9403 21.925-19.046-17.123-4.8386 18.215-9.7681 0.12547-18.077-28.488-4.1797 9.15-2.9838 13.839-12.068-7.736-9.1184-32.862-0.68845-15.859-16.57 9.615-7.8961 24.813-46.872 0.9766-27.838-9.5725 9.6873-12.997 11.163-3.7881-1.9472 8.9604-12.491 28.931-48.827-0.58306-42.222 4.3869-10.752 14.823-52.892-6.6091-27.473-21.057 29.46 13.986-27.646-10.066-23.88-24.719 25.536 15.972-33.447-12.85-21.701-18.423 18.565-24.652 45.59-36.876 68.219-9.8785 18.181-19.359 48.796-46.115 42.283-22.785-6.111-46.569 2.7487-69.23-2.0593-18.502-11.111-37.544-18.961-57.204-26.669-31.718-18.018-25.228-63.262-53.494-84.638-10.246-12.096-33.426-17.955-39.817-25.528 4.6096-9.4321 12.016-36.543-4.4268-18.094-6.5842 0.96916-4.0986-27.868-11.81-6.6541-4.2604 18.765-9.0962-1.4557-14.303-8.9837-11.35-9.6157 2.1698 40.954-12.4 13.257-8.2146-5.5568-3.7899 16.411-12.883 18.236-10.913 15.125 16.018 29.533 1.5969 39.101-12.98 9.3785-6.497 22.868 8.026 14.479-4.1526 19.138 14.992 37.279 31.935 22.312-0.0337 14.039-8.8804 37.152-1.618 54.155 0.44657 9.8169 8.3856 20.174 2.7893 29.513-4.1207 18.485 1.4521 38.266 4.5897 56.786 5.9325 23.183 12.238 51.103 36.981 61.089 10.592 1.2475 9.9687 11.674 12.302 19.745 4.6342 27.762 24.308 48.788 40.85 70.191 21.934 12.899-7.64 34.841-13.478 51.013-7.1874 15.155-42.817-5.6103-40.527 7.0496-10.78-2.5046-22.557 0.6161-6.3267 6.1298 9.6878 5.0508 26.072 8.2125 7.9175 12.467-7.5233 4.0828-13.48 16.06-0.15327 8.3878zm7.447-25.821c3.5282-1.0868 1.7605 1.669 0 0zm62.762-26.494c8.2589-20.634 25.34-33.806 35.089-53.522 6.9909-10.538 16.427-7.2759 24.662-1.3762 7.9003 8.657-6.9721 27.176-7.719 38.592-0.22599 15.699-14.742 10.429-25.057 11.339-16.073-0.91989-13.206 8.4834-7.7651 6.9972-4.3841-1.7812-26.596 8.6606-19.209-2.0302z" fill="param(fill)" fill-opacity="param(fill-opacity)" stroke="param(outline)" stroke-opacity="param(outline-opacity)" stroke-width="param(outline-width) 0.2"/>
</svg>
