<svg version="1.1" width="512" height="512" viewBox="0 0 512 512" xmlns="http://www.w3.org/2000/svg">
 <path d="m68.039 439.44c13.663-17.852-33.598-2.4466-13.437-18.011 10.058-2.1958 23.052 6.8025 15.852-6.031 19.542 1.5585 42.082 2.2441 50.077-20.638 11.355-14.909 24.489-42.62 2.2212-54.263-35.401-17.891-63.706-46.553-90.768-74.937-15.281-16.627-24.173-46.681-4.5616-63.635 11.82-12.731 20.857-28.472 41.417-29.272 5.5333-11.186-12.582-10.233-13.161-23.338 11.661 4.0231-4.3736-26.261 11.851-10.002 2.9985-2.7704 1.6903-35.505 14.487-13.929 7.2081-3.8505 19.621-29.062 24.923-17.71-19.202 27.972 41.409-17.182 22.707 8.403 7.0264 2.0159 38.09-19.99 40.909-4.862-7.3379 5.33-32.656 14.105-8.4717 11.951 21.471-0.55598 40.493-13.824 61.749-15.02-8.0361 15.169-31.289 22.346-45.063 34.627-7.8214 9.8076-40.274 11.981-38.177 17.54 21.441 10.949 35.691 43.167 16.051 62.234 8.4071 3.723 32.022 9.6459 44.074 8.0392 7.5504-20.145 12.824-41.646 26.53-58.911 38.328-56.003 110.93-80.56 176.68-72.758 38.775 3.1802 80.578 24.876 90.543 65.355 3.2218 22.316 1.6957 51.674-19.38 65.071-7.6135 4.7539-20.908 2.5673-5.0399-2.594 24.39-12.613 24.05-46.506 8.9475-66.181-25.177-36.026-73.431-42.688-114.1-37.846-22.208 2.2384-44.043 8.881-63.409 20.037 38.682-12.039 82.659-17.177 120.13 1.7158 23.161 10.069 50.233 30.852 44.665 59.259 0.54141 13.605-26.599 28.005-14.078 5.8476 4.5644-27.451-23.494-48.004-47.407-53.616-22.658-6.3477-46.312-8.2852-69.388-3.2191-10.126-0.11591-40.776 9.0619-14.828 5.8433 38.483-4.2881 84.47 2.0202 107.46 36.894 12.698 16.977 13.122 39.693 4.7285 58.633-3.9167 11.071-8.247 22.056-6.9609 34.03-3.2226 9.7284 7.5228 40.271-6.2292 21.051-4.879-20.017 10.219-41.401 0.1554-61.716-2.6185-6.7518-11.511-32.618-9.0944-12.821 2.539 20.42-3.8527 40.536-16.496 56.617-5.1495 11.285-18.455 25.548-17.421 3.2668-1.3673-22.2-7.5234-46.491-26.283-60.298 10.78 17.962 15.791 40.825 6.3436 60.557-7.6244 18.267-24.581 30.277-41.752 38.751 0.28364-16.3 10.805-32.994 6.7875-50.208-1.3197-0.99351-4.8698 28.968-14.855 34.69-6.6361 3.2443-26.823 29.565-25.492 16.606 0.73329-22.712 17.059-47.185 1.4095-68.495-2.1742-8.5683-26.686-22.271-12.278-5.7863 17.886 16.912-0.49302 39.18-6.2659 57.109-5.843 8.2902 2.7882 18.847 4.0206 21.581-14.741-2.0067-7.8816-22.751-20.318-28.65-1.7311-10.755-5.3903-37.406-14.938-16.603 10.107-0.14687 15.093 32.423 13.764 30.908-11.808-13.798 6.5587 33.003-6.1089 8.5328-2.9268-0.62281 5.4112 30.82-3.3656 11.107-10.491-27.334 4.2664 30.757-3.1096 13.209-1.9369-7.3192-5.4049-0.30467-7.0872-10.394 0.79396 9.2462-2.1914 28.201-4.7723 7.7166-2.7657 13.615-3.5104 10.229-4.7835-0.74449-5.2277 8.4384-8.0611 17.754-6.5487 2.1917-0.41778-3.0549-10.14 18.004-6.7819 0.84866-5.6084-4.5886-16.258 12.012-9.6646-3.6193-10.053 8.6572-5.0358 1.8619-4.5713-2.7737-3.6769-3.955-31.519-20.74-29.463 1.3898 13.147 14.153-23.961 31.257-12.068 38.503 33.731 3.2185 66.566-6.6291 97.508-19.011 0.0553 4.4852-43.825 21.988-16.943 14.283 7.6284-3.0233 35.986-9.9395 14.162 0.54609-32.298 13.311-67.506 17.626-102.22 16.894-19.576 11.478 17.587 11.403 25.827 11.831 9.8442-3.69 27.506 12.382 8.261 5.7217-11.405-1.6772-5.4059 11.032-15.651 1.51-15.258 9.9443-35.493 2.7293-52.231 9.2114-10.023 0.43667-37.725 11.252-39.224 7.78zm74.069-59.437c3.398-11.891-13.813 24.421-1.1894 2.0438zm8.5184-28.297c-6.9038-7.4242-0.14552 18.407 0.13104 2.492z" fill="param(fill)" fill-opacity="param(fill-opacity)" stroke="param(outline)" stroke-opacity="param(outline-opacity)" stroke-width="param(outline-width) 0.2"/>
</svg>
