<svg version="1.1" width="512" height="512" viewBox="0 0 512 512" xmlns="http://www.w3.org/2000/svg">
 <path d="m141.74 444.83c18.541-6.7556 49.839 3.5637 58.13-18.665 1.9072-22.716 0.57121-45.693 5.9997-68.061-7.9976-23.729 16.56-23.534 31.594-17.507 8.0627 3.456 23.808 3.0874 17.429-1.7509 18.503 2.7118 37.26 2.0506 55.642 7.8422 59.409 12.964 119.57 24.459 180.47 26.62-10.992-3.5638-19.946-17.429 0.01-11.951 22.983-0.0848-13.881-11.908-21.125-17.191-15.298-14.982-43.226-9.5169-54.277-26.538-9.6104-9.1083-20.303-17.835-12.996-28.331-11.365-21.68-34.894-33.348-53.622-48.337-12.555-5.8168-22.004-12.527-22.309-23.502-20.663-16.448-42.002-33.83-68.455-39.652-20.04-7.7562-39.218-17.843-61.326-17.541-16.069-9.2929-45.959-5.298-46.121-29.705-3.0798-20.538-20.229-38.263-41.939-36.722-24.048-0.18157-47.228 12.17-60.259 32.414-14.471 9.3372-43.921 11.56-39.191 35.725 14.649 6.0593 48.444-23.233 50.24 0.97835-25.507 24.552-18.821 64.399-3.8211 92.71 23.126 45.97 72.036 78.853 124.05 78.559 12.243 10.928-4.4364 27.204 2.614 41.619-4.1777 16.534 0.99352 45.34-19.834 50.243-18.647 2.0759-45.267 2.7664-54.908 18.255 11.167 1.8123 22.739 1.2554 34.002 0.48686z" fill="param(fill)" fill-opacity="param(fill-opacity)" stroke="param(outline)" stroke-opacity="param(outline-opacity)" stroke-width="param(outline-width) 0.2"/>
</svg>
