<svg version="1.1" width="512" height="512" viewBox="0 0 512 512" xmlns="http://www.w3.org/2000/svg">
 <path d="m217.16 503.91c21.343-12.72-6.3242-10.634-16.704-13.925 11.037-2.0411 25.213-0.79028 36.068-6.0149 2.7861-15.906-31.301 4.0991-42.614 4.3144-7.5085 2.5697-23.414 8.5093-10.348-3.3035 9.5588-14.098-34.376-10.069-6.0347-14.436 8.5511-0.41009 28.585-3.2271 11.505-10.949 10.789-3.4769 37.609 17.574 38.213 0.0983-1.152-12.688 2.6934-26.495-4.6546-37.794-5.1145-21.017-28.781-27.048-41.649-42.65-6.938-6.3208-14.88-11.922-17.206-21.548-14.006-28.069-25.278-60.958-15.354-92.152 1.4185-21.011-11.227-41.991-9.6285-63.832-13.858 5.9942-27.553 34.116-41.265 29.899 7.2024-27.95 22.875-53.1 35.163-79.11 11.231-22.187 25.596-42.523 39.291-63.212-3.34-26.088 1.413-55.339 22.538-73.127 1.5873 7.7872 15.176-10.991 17.562-3.0848 5.9741-2.1202 10.966-3.6358 9.2259 1.6832 10.536-9.03 4.7345 5.2114 17.822 5.4894 2.8091 3.0873 12.703 12.667 11.007 12.824-7.4991-1.3838-15.9-0.09023-13.14 9.0716 3.7848 22.573-2.2052 45.267-14.511 64.31-11.895 26.27-26.835 57.899-11.728 86.074 4.0464 24.47 27.061 22.478 44.128 13.286 24.273-2.4556 38.075 22.851 52.828 37.934 14.285 19.86 35.285 33.739 49.57 53.755 19.494 26.033 36.009 57.118 34.253 90.567 3.5288 22.123 14.98 40.178 28.182 57.68-6.7328-0.49206-22.037-16.107-17.635-0.86374 4.3328 16.588-17.66 9.8306-20.438-2.0862-14.446-19.038-41.745-8.9692-62.288-12.413-18.984-0.95857-55.028-12.05-45.326 20.776-2.9961 20.604 8.5602 35.242 26.991 41.067-15.674 4.742-40.204-8.4586-58.36 4.1114-8.4605 2.2004-16.669 7.6628-25.462 7.5597zm48.144-32.263c-2.3307-19.387 3.4942-51.295-24.481-52.434-7.3077 14.962-2.499 32.09-2.6637 48.119 5.7084 6.245 24.274 16.575 27.033 6.4722l0.0609-1.1784z" fill="param(fill)" fill-opacity="param(fill-opacity)" stroke="param(outline)" stroke-opacity="param(outline-opacity)" stroke-width="param(outline-width) 0.2"/>
</svg>
