<svg version="1.1" width="512" height="512" viewBox="0 0 512 512" xmlns="http://www.w3.org/2000/svg">
 <path d="m253.84 413.74c-23.423-6.7873-44.279-22.688-69.661-21.885-20.863 0.0373-40.958-5.8394-59.367-15.27-22.652 6.352-37.821-20.047-59.26-11.378-17.834 0.4985 13.736-20.709 9.334-30.943 1.4774-23.429 31.455-25.363 44.827-27.55-19.002-37.17-33.466-76.385-45.372-116.34-16.083-43.34-45.521-80.14-62.87-122.92 31.703 8.8469 49.597 39.419 70.856 62.162 19.152 22.698 39.131 45.082 51.154 72.624 6.0324 23.302 27.245 30.904 45.172 42.707 11.422 7.5858 21.319 17.103 31.188 26.576 47.936-0.56548 97.361-14.122 132.78-47.932 22.24-18.026 42.183-39.105 66.146-54.876 19.722-6.659-8.2741 18.838-11.104 25.261-13.912 18.69-30.138 36.056-40.876 56.855 8.402 12.44 36.786-2.9096 52.156-2.9875 31.061-5.4097 61.194-17.354 92.886-18.282-7.0317 10.49-34.572 20.613-51.283 27.355-45.544 17.744-94.439 27.564-137.43 51.358-10.428 9.3414-44.41 27.553-20.163 39.316 33.237 12.284 69.604 11.875 104.46 16.156 29.518 2.8109 59.579 6.293 87.659 15.964 10.871 18.326-25.889 6.6005-35.445 8.0483-45.673-3.7782-90.361 9.4177-134.81 17.857-19.908 4.8166-40.289 10.557-60.975 8.1272zm-64.384-42.563c13.44-17.468-27.785-20.566-39.484-27.829-15.343-5.048-32.823 5.7291-47.664 8.9896 22.509 11.406 47.636 20.699 73.139 21.587 4.7516-0.19779 9.6519-0.68967 14.009-2.7474zm-90.456-33.558c1.6525-12.022-10.792 1.4528 0 0zm167.83-8.2339c14.971-3.7838 23.33-38.616 0.41533-24.853-20.047-1.7088-16.593 35.181-0.41533 24.853z" fill="param(fill)" fill-opacity="param(fill-opacity)" stroke="param(outline)" stroke-opacity="param(outline-opacity)" stroke-width="param(outline-width) 0.2"/>
</svg>
