<svg version="1.1" width="512" height="512" viewBox="0 0 512 512" xmlns="http://www.w3.org/2000/svg">
 <path d="m370.92 493.44c-1.0659-8.901-0.76015-30.764 0.55048-9.1836-0.0613 0.3572-0.0114 12.322-0.55048 9.1836zm-2.4599-26.622c-4.8921-20.034-12.448-39.364-16.781-59.546 8.9569 19.675 15.072 41.16 17.844 62.658l-0.47452-0.42745zm6.6742-69.761c-13.685-20.903-27.123-41.978-41.223-62.603 5.0368 23.578 12.183 46.684 17.159 70.259-18.847-35.387-29.85-75.025-53.352-107.82-21.329-24.05-41.601-49.397-65.517-70.928-8.5187-17.092-43.735 9.7144-16.904 4.0763 8.2068 4.6289 12.108 14.201-0.82953 4.9726-11.299-7.0986-28.165-1.8076-30.741 6.8865 1.3356-11.258-19.704 5.821-6.0228-6.3476 10.596-6.2234 39.457-11.132 38.115-20.652-9.786-9.8541-29.228-6.2583-32.038 2.7503-1.9825-6.7614-19.681 5.4695-5.1094-5.9764 9.6434-3.3238 27.29-6.3451 8.5949-13.757-30.284-17.495-59.252-46.875-57.729-84.283 0.45346-20.874 8.9339-43.408-5.9286-61.558 1.1172-15.918-34.232-3.8509-26.557-13.38 24.798 1.2445 27.016-31.029 53.184-28.425 25.37-3.9259 39.988 20.842 52.292 38.686 23.275 33.371 45.787 67.469 61.524 105.18 16.587 39.658 42.608 74.08 70.59 106.32 18.87 21.089 35.021 44.329 48.083 69.425 7.518 4.819 19.291 31.099 8.7395 29.017-23.92-20.863-47.67-42.115-68.452-66.176 19.269 40.903 36.722 83.225 64.798 119.11 9.827 13.938 24.779 34.753 27.624 46.638-13.648-20.326-26.932-40.896-40.301-61.405z" fill="param(fill)" fill-opacity="param(fill-opacity)" stroke="param(outline)" stroke-opacity="param(outline-opacity)" stroke-width="param(outline-width) 0.2"/>
</svg>
