<svg version="1.1" width="512" height="512" viewBox="0 0 512 512" xmlns="http://www.w3.org/2000/svg">
 <path d="m141.04 495.42c-37.456-3.7259-63.489-34.699-96.932-48.728-6.309-10.785-47.207-4.2536-21.205-15.281 16.32-14.355 31.291-35.838 56.9-35.918 9.2482-3.344 45.597 11.494 37.385-2.4374-23.587-3.2224-31.783-29.349-34.373-49.664-2.6072-56.497 23.484-108.59 43.84-159.75 21.376-44.794 43.538-89.59 70.628-131.22 13.812-9.3757 1.8141 26.092 0.52149 32.967-7.7173 27.773-18.687 55.014-18.908 84.235-5.7612 25.181-6.6855 51.1-8.0614 76.796 20.834-9.9124 34.088 3.4611 27.518 24.943 0.41729 9.8455-19.116 48.407 2.0184 26.308 24.663-18.418 51.239-36.919 63.79-66.279 35.246-64.245 54.078-135.62 68.882-206.9 10.104-26.081 1.5855 29.673 0.30043 38.227-3.9482 33.139-10.961 65.982-13.81 99.178-3.777 21.647 6.9219 40.537 26.776 19.486 48.731-28.071 86.948-70.015 130.37-105.01 11.399-3.0082-14.052 20.124-18.711 26.37-49.2 54.083-104.54 104.78-138.65 170.39-3.0236 13.787-21.627 47.808 3.8918 42.153 16.44 7.9068 7.0254 44.262 29.276 21.829 46.731-29.898 94.798-60.282 128.71-105.2 19.76-24.942 9.0026 19.06 1.0426 27.285-37.345 69.62-90.027 129.68-144.67 186.15-33.641 34.593-83.605 49.601-130.96 46.774-13.082-8.8788-25.65 2.5506-39.47 2.904-8.6411 1.1639-17.44 1.4636-26.107 0.39564z" fill="param(fill)" fill-opacity="param(fill-opacity)" stroke="param(outline)" stroke-opacity="param(outline-opacity)" stroke-width="param(outline-width) 0.2"/>
</svg>
