<svg version="1.1" width="512" height="512" viewBox="0 0 512 512" xmlns="http://www.w3.org/2000/svg">
 <path d="m173.63 499.07c-7.5796-37.036-15.538-74.083-28.423-109.66-6.6671-21.801-11.355-49.351 6.2036-67.42 7.2375-10.444 24.274-29.563 17.545-40.579-20.538-7.3355-41.393-17.069-63.771-14.916-8.4419 2.1808-30.968-2.6072-11.286-4.5686-5.4692 5.3762 47.55-1.2937 17.696-1.4522-6.3382 1.0446-21.28-0.0954-5.5294-1.1617 18.668-4.7503 34.439-18.344 55.404-15.927 23.48 0.21288 31.576-26.33 37.27-44.59 8.3675-31.38 7.6638-64.063 8.0556-96.171 7.0026-23.82 32.829-34.72 51.495-48.148 40.656-20.742 84.457-35.029 128.47-46.786-4.3561 15.836-26.558 27.218-38.65 40.299-23.308 20.694-47.787 40.015-73.699 57.331-11.832 15.827-2.622 39.222-5.1856 58.046 0.96373 20.44-0.11682 40.781-3.4721 60.942-10.228 23.096 22.767 17.163 37.111 23.276 39.375 4.4888 78.805-4.1251 118.16-4.442-8.0026 8.8304-38.483 6.2616-54.409 10.097-14.628 3.8603-40.653 0.10336-47.935 9.9952 26.222 6.516 54.024 6.5326 81.062 7.5961 11.063-3.503 28.48 6.2038 7.2182 5.0904-38.695 1.0285-77.292-3.447-115.94-3.0188-18.472 2.8542-41.745 1.5718-49.415 22.767-14.534 21.882-29.774 43.282-45.498 64.323 2.5808 37.706 2.6759 76.177-8.2886 112.73-2.2655 5.8248-6.8739 30.285-14.186 26.354z" fill="param(fill)" fill-opacity="param(fill-opacity)" stroke="param(outline)" stroke-opacity="param(outline-opacity)" stroke-width="param(outline-width) 0.2"/>
</svg>
