<svg version="1.1" width="512" height="512" viewBox="0 0 512 512" xmlns="http://www.w3.org/2000/svg">
 <path d="m296.1 494.92c-13.93-21.354-25.346-25.156-40.285-13.417-1.9709 1.5488-4.0232 2.5442-4.5606 2.2121-1.9374-1.1974-0.95616-6.4159 2.0197-10.741 4.2652-6.1993 9.6148-20.015 10.193-26.324 0.47201-5.1543 0.3712-5.456-2.5083-7.5063-1.65-1.1749-3.0001-2.7397-3.0001-3.4773 0-3.1288 4.0782-3.8035 25.923-4.289l21.603-0.48006 0.85928-3.477c0.61277-2.4796 0.12614-9.3652-1.6964-24.003l-2.5556-20.526-3.5771-2.8804c-1.9674-1.5842-7.9846-6.8902-13.371-11.791-6.983-6.3531-10.993-9.2716-13.971-10.168l-4.1767-1.257-7.1366 8.4207c-3.9252 4.6314-7.3041 8.9231-7.5088 9.5371-0.20468 0.61402-3.0231 2.3063-6.2631 3.7606-9.3985 4.2187-32.788 18.955-36.134 22.766-3.2814 3.7373-3.3306 4.4569-0.89321 13.061 1.1341 4.0035 1.1084 4.7508-0.20874 6.0679-1.3627 1.3627-2.0111 1.3541-6.9878-0.0927-3.0171-0.8771-6.475-1.3464-7.6843-1.0429-3.0448 0.7642-25.122 18.516-30.873 24.824-4.7286 5.187-6.2522 7.5534-8.0376 12.484-2.0532 5.6695-5.8891 2.0871-10.214-9.5388-2.3231-6.2449-3.8452-8.574-9.0753-13.887-7.4381-7.5556-12.073-9.5055-18.509-7.7875-2.8587 0.76303-4.1688 0.76969-4.6299 0.0235-1.7245-2.7903 2.5592-7.6161 9.1271-10.282 3.7491-1.5216 5.5818-3.0138 7.5789-6.1705 2.3577-3.7268 2.5182-4.4959 1.5297-7.3315-0.95719-2.7458-0.86865-3.3403 0.66445-4.4613 2.5311-1.8508 6.2002-1.6454 28.246 1.5812l19.641 2.8746 6.7615-3.8797c11.847-6.7977 24.698-16.478 34.396-25.91l9.4167-9.1582-9.5913-20.088-9.4093-3.442c-37.178-13.6-60.572-27.564-81.897-48.885-22.204-22.2-38.165-48.399-42.742-70.159-1.6832-8.0018-1.8566-21.772-0.3642-28.927 2.7666-13.263 13.169-28.802 25.472-38.047 16.278-12.233 28.947-16.516 68.634-23.208 33.863-5.7094 47.685-8.5206 61.829-12.575 32.086-9.198 50.322-23.157 52.043-39.838 1.2227-11.846-9.6987-23.502-26.136-27.893-6.5407-1.7472-22.967-1.6343-31.965 0.21964-19.577 4.0337-41.855 13.605-60.585 26.03-12.318 8.1719-20.962 12.197-30.651 14.271-6.8569 1.4684-33.137 3.551-65.945 5.226-19.536 0.99734-20.21 0.97069-21.699-0.85711-0.84487-1.0376-2.9616-2.0267-4.7038-2.1981-4.5036-0.44303-5.7642-2.8778-3.2503-6.2778 2.4834-3.3587 6.1668-5.1144 17.576-8.3776 9.2628-2.6494 14.821-5.076 19.427-8.4813l2.6085-1.9285-2.819-2.819c-1.9201-1.9201-2.819-3.7792-2.819-5.83 0-4.584 7.9463-11.523 20.733-18.106 16.803-8.6498 27.253-11.26 45.515-11.369 12.64-0.07537 19.61-1.4502 38.916-7.6762 27.914-9.002 48.39-12.283 69.565-11.148 31.674 1.6985 47.14 7.1318 61.493 21.603 5.7571 5.8046 8.1416 9.153 11.689 16.413 5.5487 11.358 7.4824 19.951 7.4824 33.252 0 12.589-1.7592 20.271-7.0062 30.596-3.1849 6.2671-5.9482 9.7309-15.011 18.817-18.808 18.856-35.481 28.145-64.631 36.008-5.6749 1.5307-10.319 3.0603-10.321 3.3991-2e-3 0.33881 1.1383 0.90255 2.5337 1.2528 5.0962 1.2791 22.229 10.138 33.189 17.16 13.923 8.921 27.139 19.021 39.557 30.228 8.0898 7.3013 11.036 9.2752 19.683 13.186 21.589 9.7652 46.266 23.518 66.336 36.971 17.496 11.728 35.537 26.19 34.261 27.466-0.33016 0.33016-7.5231 1.7291-15.984 3.1088-8.7665 1.4295-15.251 2.9215-15.075 3.4686 0.60511 1.8789 8.3442 7.0746 13.809 9.2709 5.1017 2.0503 6.8912 2.2234 22.075 2.1358 16.518-0.0954 16.523-0.0948 15.464 1.9299-4.3034 8.2211-25.907 29.982-37.268 37.539-13.27 8.8271-25.98 14.226-40.525 17.213-10.554 2.1677-28.751 1.9767-39.571-0.41538-4.7117-1.0416-8.6187-1.7884-8.6823-1.6594-0.0636 0.12892-2.3269 2.841-5.0296 6.0269l-4.9141 5.7925 3.068 22.051c1.6874 12.128 3.3955 22.58 3.7959 23.226 0.40032 0.64596 2.1818 1.8644 3.9587 2.7076 5.1267 2.4328 15.491 16.662 14.748 20.248-0.2174 1.049-1.8228 0.25233-5.9343-2.9448-3.0999-2.4106-6.5564-4.3764-7.681-4.3685-1.5591 0.0109-4.8952 4.1136-14.046 17.274-18.515 26.628-17.489 24.686-18.149 34.331l-0.57379 8.388z" fill="param(fill)" fill-opacity="param(fill-opacity)" stroke="param(outline)" stroke-opacity="param(outline-opacity)" stroke-width="param(outline-width) 0.2"/>
</svg>
