<svg version="1.1" width="512" height="512" viewBox="0 0 512 512" xmlns="http://www.w3.org/2000/svg">
 <path d="m299.1 379.04c27.932-6.1493 53.361-20.248 80.246-29.766 10.385 4.9969 28.852 2.8488 31.727-4.2039 9.1347 1.6544 21.799-8.0885 6.5017-8.498-8.2984-1.3644-25.979-7.0758-8.6342-12.419 14.659-9.6865 32.331-19.177 36.078-38.044 1.1931-19.041 16.869-31.023 28.411-44.392 10.554-12.641 22.278-34.723 26.112-44.772-22.152 2.5736-34.282 24.034-54.879 29.562-21.189 5.9175-38.239 21.735-60.505 24.509 10.775-18.556 31.567-28.03 50.506-35.716-6.6187-12.339-27.928-16.282-42.386-19.148 6.6827-4.9012 10.522-4.679-1.2766-4.138-8.9674 1.5577-17.252-1.5895-3.906-5.3134 10.469-6.745-16.577-4.1958-23.462-4.7979-5.4286-0.28889 27.557-7.8354 6.0463-7.4181-17.95-3.7227-36.811 12.414-52.642 6.7348 19.468-9.7923-13.134-6.2552-21.201-8.4515-25.693 3.5767-44.467 23.651-67.546 33.855-35.044 16.592-63.876 42.863-90.458 70.572-11.031 8.8763-24.494 28.42-38.324 25.434 2.1496-20.106 15.788-36.859 23.137-55.406 10.108-21.63 16.049-49.609-0.0755-69.95-10.647-13.962-26.373-26.129-44.935-23.783-10.968 0.62677-23.043-3.2577-32.487 4.0747-19.383 11.628-33.478 32.679-34.831 55.348 4.924 17.498 15.315 32.133 18.434 50.463 14.545-7.0525 8.6191-33.331 17.197-47.129 16.531-6.4982 23.25-35.106 42.742-29.159 14.612 13.986 5.9167 40.039-0.87838 56.543-13.269 20.982-34.345 37.295-43.171 60.838-2.5729 21.407 20.691 33.33 38.879 34.657 41.82 4.1748 80.705 20.834 120.63 32.599 30.91 7.396 63.292 9.5306 94.953 7.3134z" fill="param(fill)" fill-opacity="param(fill-opacity)" stroke="param(outline)" stroke-opacity="param(outline-opacity)" stroke-width="param(outline-width) 0.2"/>
</svg>
