<svg version="1.1" width="512" height="512" viewBox="0 0 512 512" xmlns="http://www.w3.org/2000/svg">
 <path d="m105.14 438.99c-23.357 1.8204-45.225-12.177-37.519-37.963 2.528-33.228 19.716-62.68 27.013-94.828 11.827-41.491 24.279-83.19 30.013-126.02-0.26027-7.9423 3.0839-16.811-2.5117-23.595-1.8008-24.525-34.149-15.644-51.176-13.613-15.088 2.5794-39.199 19.4-49.579 13.329 5.9563-18.095 42.738-22.754 29.834-44.917 11.374-17.291 33.545-24.08 53.054-27.592 30.124-3.7779 60.472 19.541 63.43 50.046 8.9165 44.164-3.6506 88.841-8.9668 132.67-3.1667 21.56-6.8431 43.068-9.2746 64.723 36.935-43.071 79.509-87.124 136.72-100.82 18.224-3.0212 37.575-3.9547 54.593-6.7179 14.841 15.222 33.401 17.684 53.076 12.296 16.138 1.904 33.501 0.52632 41.075 13.784 18.604 6.4623 25.884 29.47 32.227 40.486 10.584-5.785 34.199-15.223 20.636 5.9622-14.038 25.504-36.239 45.279-50.99 70.391-8.3019 19.295-30.201 21.308-44.497 33.52-38.542 28.165-88.52 28.416-134.07 33.337-49.664 3.2045-99.483 6.7198-149.25 5.8978l-3.8231-0.37559z" fill="param(fill)" fill-opacity="param(fill-opacity)" stroke="param(outline)" stroke-opacity="param(outline-opacity)" stroke-width="param(outline-width) 0.2"/>
</svg>
