<svg version="1.1" width="512" height="512" viewBox="0 0 512 512" xmlns="http://www.w3.org/2000/svg">
 <path d="m355.62 449.41c-1.4589-1.553-2.6526-3.4277-2.6526-4.1661 0-0.73841-2.7567-3.5374-6.1259-6.2201-5.8495-4.6575-11.236-6.3362-25.492-7.9446-0.95088-0.10724-1.9834-0.9593-2.2944-1.8934-0.46534-1.3974 0.9835-1.5457 8.1776-0.83678 12.313 1.2133 21.339 3.7141 31.225 8.651 4.6969 2.3456 8.9515 4.2624 9.4548 4.2593 1.3689-9e-3 1.1039-5.8446-0.30499-6.7153-2.0935-1.2939-1.3342-4.2699 1.0894-4.2699 1.2702 0 2.6272-0.82822 3.0157-1.8405 0.38844-1.0123 2.2314-2.4895 4.0954-3.2827 4.8811-2.0771 8.879-5.9257 8.879-8.5474 0-1.2461 0.83984-2.5878 1.8663-2.9817 1.1444-0.43913 1.5956-1.5691 1.1665-2.9211-0.39411-1.2417 0.0408-2.6442 0.99533-3.2104 2.0942-1.2422 3.6474-8.5715 2.0284-9.572-0.75537-0.46685-0.72189-1.5935 0.0926-3.1153 0.99295-1.8554 0.85036-2.5473-0.64305-3.1204-1.1827-0.45385-1.6528-1.5748-1.2253-2.9216 1.2814-4.0374-5.7274-5.1264-23.38-3.6329-8.6184 0.72921-19.151 1.8712-23.406 2.5376l-7.7359 1.2118-9.8028-7.056c-5.3916-3.8808-10.09-7.8034-10.441-8.7169-0.35118-0.91351 0.21455-3.1094 1.2572-4.8799 1.0426-1.7704 2.5766-6.6902 3.4089-10.933 0.83225-4.2426 2.2665-8.4672 3.1872-9.388 2.6922-2.6922 9.7912-12.23 11.447-15.379 0.83799-1.5938 3.0908-4.8192 5.0062-7.1676 1.9154-2.3484 4.5791-5.6424 5.9194-7.3198 1.3403-1.6775 4.0104-4.9714 5.9337-7.3198 1.9233-2.3484 3.8826-5.5057 4.3541-7.0161 0.47146-1.5104 1.874-3.2904 3.1168-3.9555 1.2428-0.66512 2.8951-3.135 3.6719-5.4886 0.77673-2.3536 2.172-4.2793 3.1006-4.2793 0.93739 0 2.2728-2.1705 3.0023-4.8799 0.72271-2.6839 1.8345-4.8799 2.4706-4.8799s1.9024-1.7842 2.8139-3.9649c0.91154-2.1807 2.5659-4.7184 3.6763-5.6392 1.1104-0.92089 2.0189-2.2365 2.0189-2.9236 0-1.6428 7.8523-13.442 10.294-15.469 1.048-0.8698 1.9055-2.8016 1.9055-4.2929 0-1.4913 1.098-3.7051 2.4399-4.9196 1.342-1.2145 2.4399-3.703 2.4399-5.5301 0-1.9888 1.0021-3.9937 2.497-4.9958 1.6377-1.0978 2.5932-3.216 2.7764-6.1553 0.15365-2.4649 1.3388-5.6522 2.6337-7.0831 1.8576-2.0526 2.0689-3.0586 1.0013-4.768-1.1447-1.8329-0.42465-2.9661 4.6767-7.3603 4.1916-3.6105 5.8264-5.8343 5.3629-7.2948-0.41766-1.3159 0.93206-3.9688 3.6122-7.1 2.3534-2.7495 4.279-5.6788 4.279-6.5094 0-0.83071 2.0186-3.9738 4.4858-6.9848 2.4672-3.0109 4.5557-6.4231 4.6412-7.5826 0.0854-1.1595 2.207-4.5052 4.7147-7.4348 2.6119-3.0514 4.428-6.3799 4.2519-7.7926-0.16911-1.3563 1.7159-5.211 4.1889-8.5659 2.473-3.3549 4.51-7.3998 4.5266-8.9887 0.0166-1.5889 1.6738-4.7608 3.6827-7.0488 4.7993-5.4661 9.2633-14.223 7.5427-14.797-0.7675-0.25583 0.12537-2.8111 2.1494-6.1512 3.9715-6.554 5.6285-11.203 3.9927-11.203-0.61971 0-3.5389 1.8134-6.487 4.0298-2.9482 2.2164-7.2588 5.3546-9.5793 6.9738-4.7213 3.2946-4.8549 3.5542 4.4295-8.6062 5.0837-6.6585 10.652-18.577 9.3077-19.922-0.39106-0.39105-6.728 5.5898-14.082 13.291-17.588 18.417-23.481 22.773-13.863 10.245 8.3162-10.832 15.083-24.264 16.152-32.061 0.4274-3.1182 0.48127-5.6695 0.11971-5.6695s-4.0237 5.4779-8.1381 12.173c-10.545 17.16-29.585 40.862-21.371 26.604 4.2983-7.4611 8.9588-22.848 9.8612-32.558 1.3161-14.161-1.2671-11.521-7.3344 7.4954-8.8978 27.888-17.384 39.91-47.67 67.528-8.0247 7.3178-20.651 19.073-28.059 26.123-13.201 12.563-35.363 32.237-47.799 42.432-3.6007 2.952-9.6883 10.226-14.297 17.082-4.4144 6.5678-13.405 18.508-19.978 26.533-6.5738 8.0253-13.579 16.787-15.568 19.471-7.2369 9.7666-21.498 26.165-24.74 28.448-6.5189 4.591-8.1351 4.4365-17.634-1.6856-4.8778-3.1436-9.0573-6.2134-9.2878-6.8217-0.2305-0.60829-3.055-2.4417-6.2767-4.0743-3.8539-1.9529-5.7971-3.6953-5.6808-5.0936 0.17394-2.0906-16.493-12.261-31.542-19.247-3.3549-1.5575-10.492-5.5463-15.86-8.8642s-12.779-7.8799-16.47-10.138c-3.6904-2.2581-8.891-5.9409-11.557-8.1842-2.6659-2.2432-6.1538-4.4066-7.7507-4.8074-1.597-0.40082-5.1524-3.1685-7.9011-6.1504-3.7687-4.0885-5.6839-5.2905-7.7888-4.8881-2.2324 0.42676-3.3796-0.47037-5.7299-4.4807-3.9613-6.7594-7.3579-9.672-10.22-8.7637-1.6858 0.53506-2.6965-0.081-3.6822-2.2445-2.2514-4.9412-12.811-17.882-14.212-17.417-1.8221 0.60458-2.3251 28.616-0.70534 39.273 0.71388 4.6969 2.6478 11.325 4.2976 14.729 3.7832 7.8066 16.784 20.421 28.04 27.207 8.6084 5.1896 19.661 12.919 24.673 17.254 1.4922 1.2908 7.6967 4.8272 13.788 7.8586 10.831 5.3902 20.073 11.461 19.033 12.502-0.70099 0.70099-9.8797-4.0393-23.881-12.333-6.3399-3.7556-12.03-6.8283-12.645-6.8283-0.6149 0-7.3328-3.0683-14.929-6.8184-10.504-5.186-15.509-6.9598-20.904-7.4092-7.2212-0.60148-7.4629-0.52493-19.293 6.111-2.0129 1.1291-6.8166 3.1822-10.675 4.5625-3.8582 1.3802-7.0148 3.028-7.0148 3.6616 0 0.63362 1.7842 1.9327 3.9649 2.8868 2.1807 0.95414 8.9238 3.9498 14.985 6.657 7.4727 3.3378 16.112 5.9314 26.839 8.0574 26.405 5.2332 30.878 6.9589 47.979 18.51 8.4806 5.7283 18.533 13.098 22.338 16.378 3.8052 3.2794 7.5108 5.9626 8.2348 5.9626s1.3163 0.84173 1.3163 1.8705c0 3.9871 6.6928 14.779 12.96 20.898 11.088 10.826 40.775 29.793 55.863 35.692 12.079 4.7225 40.95 12.63 58.539 16.033 6.3373 1.2261 8.1735 2.311 15.402 9.1004 7.0591 6.6298 9.0394 7.8248 14.154 8.5413 3.2709 0.45815 10.745 1.8745 16.609 3.1475 5.864 1.273 13.508 2.3145 16.987 2.3145h6.3254z" fill="param(fill)" fill-opacity="param(fill-opacity)" stroke="param(outline)" stroke-opacity="param(outline-opacity)" stroke-width="param(outline-width) 0.2"/>
</svg>
