<svg version="1.1" width="512" height="512" viewBox="0 0 512 512" xmlns="http://www.w3.org/2000/svg">
 <path d="m259.25 466.91c-11.855-18.725-39.632 8.6671-45.286-13.488-10.433-1.132-35.676 0.0433-15.281-13.532 18.27-9.9253 46.729-2.7771 59.523-20.456 12.332-25.883-12.561-32.306-29.479-43.389-17.165-14.482-32.689-33.028-34.222-56.391-14.487-7.6887-33.192 4.608-44.983-9.7965-8.5365-21.75-6.776 31.155-18.224 2.0551-5.3041-8.623-10.088-30.535-9.4079-7.7421-6.6812 21.753-13.453-26.642-14.331-22.232-0.18208 12.771-10.698 26.518-12.652 5.934-2.787-8.9571-2.4231-40.856-7.2903-15.536-8.297 34.037-9.5753 69.185-10.683 104.04-14.661-14.605-15.022-37.681-17.293-57.066-3.6805 10.421-7.9458 30.907-11.906 8.0069-1.525-18.219-4.712-11.809-9.308-2.2537-5.6161-11.762-2.2189-39.281-15.575-17.765-8.4834-3.4024 2.9179-32.989 3.1744-41.011-7.3691 9.1817-22.711 40.731-17.379 11.794 6.3279-24.379 23.713-43.777 35.164-65.824 23.644-39.676 53.595-81.301 99.157-96.662 17.179-13.399 23.52 8.9797 25.436 24.995 5.495 29.708 32.536 47.444 51.509 68.589 17.097 15.106 14.201-31.286 16.054-43.046 5.1646-24.498-12.226-35.876-26.892-51.051-8.1956-19.234-6.6102-40.159 3.0812-58.369 9.3521-25.758 29.15-2.5586 45.952 1.7701 22.325 10.03 24.849 36.906 27.386 57.801 1.2784 25.828 11.51 50.616 11.201 76.852-0.71479 10.778 1.3055 46.129 15.015 25.419 10.627-31.308 21.651-63.185 43.247-88.895 15.31-16.264 29.851-39.768 52.342-44.794 27.193 13.344 50.7 33.722 79.361 44.565 22.62 6.5703 9.7244 13.087 3.5615 14.18 13.663 8.7079 18.163 28.227 6.1059 27.624 4.877 10.457-15.767 3.059 0.0102 14.588 15.294 14.711-14.299 3.8574-0.39714 16.195 4.2153 6.3968 12.568 21.818-2.7639 18.01 10.783 10.54 16.284 40.041 2.0481 27.629 5.9008 8.9361 18.945 47.001 0.0902 37.773-17.542-24.385 10.021 23.573 5.1883 34.966-5.1067 27.859-26.806-32.263-22.413 1.5986 3.823 16.602-5.527 47.647-17.343 17.805-8.1819-35.302-9.2104-72.504-22.189-106.7-10.084 4.7151-3.8083 23.905-14.102 24.017-11.224-19.591-4.0033 21.942-20.762 12.219 2.9961 17.017-15.953-1.2868-11.18 16.852 1.684 10.841-6.3446 20.014-10.255 5.3253-0.42926 12.09-8.4527 14.243-10.427 7.6701-1.8308 23.247 0.52493 47.662-11.808 68.665-5.6339 16.606-9.5429 49.994 12.649 55.044 20.756 7.2044 44.338 8.199 62.874 20.609-6.644 7.739-34.854-0.63937-39.25 18.026-19.562-11.145-44.134-0.95979-62.718 3.0552-9.5829-20.398 20.257-39.017 4.8486-61.268-6.7982-26.63-34.591 1.3301-52.066-11.03-17.628 9.3693-3.4072 33.261-10.532 47.154-4.6636 6.7403-2.9079 38.063-16.58 27.463z" fill="param(fill)" fill-opacity="param(fill-opacity)" stroke="param(outline)" stroke-opacity="param(outline-opacity)" stroke-width="param(outline-width) 0.2"/>
</svg>
