<svg version="1.1" width="512" height="512" viewBox="0 0 512 512" xmlns="http://www.w3.org/2000/svg">
 <path d="m441.15 452.89c-18.488-11.039-18.383-36.7-30.72-53.045-8.4078-22.751-35.292-24.463-51.022-40.602-14.283-3.2172-40.26-15.523-49.113 1.7104-9.528 8.074 10.26 13.626 12.742 20.493-4.9695 10.56-9.2308 15.157-11.939 0.89206-10.014-16.511-32.637-9.7051-42.163 5.5793-8.5961 9.2964 18.154 19.258 9.7658 31.387-4.191 16.685-10.836-18.365-21.764-18.665-15.351-9.4299-34.147 3.1586-43.205 6.4503-9.8526-21.076 23.633-15.361 29.452-17.987-7.5748-8.6858-24.398 1.064-25.575-3.3614 5.6242-18.174 29.424-14.943 38.826-1.2812 8.3318-2.8006 22.082-16.985 3.2929-19.878-22.888-10.65-32.048-34.377-43.318-54.341-25.856-25.543-38.23-67.724-20.905-101.29-12.873-0.0346-37.573 10.88-54.563 16.312-31.717 13.062-59.912 34.776-80.809 61.902-8.414 20.723-27.853-14.91-32.274-25.408-7.6757-37.874 14.647-73.977 35.917-103.38 31.462-35.19 71.187-64.867 116.96-78.13 16.828-12.27 37.221-19.453 57.186-23.942 25.961-1.3193 53.522-3.589 78.175 5.9807 1.0584 7.0173-41.587 4.3908-14.489 9.779 9.4812-0.13902 41.852 15.59 14.5 12.883-3.7913 0.47213-25.676-2.1645-14.756 0.79402 17.775 4.0465 35.877 15.363 44.453 30.71-8.167-1.8832-41.966-9.2835-18.762-1.0404 12.718 2.3824 26.256 18.728 5.037 10.702-13.981-1.3628-41.303-6.3071-43.203 12.718-1.274 15.891-15.995 27.4-22.899 39.111 1.8231 15.334 6.7008 21.029 22.885 21.131 30.19 7.3361 56.963 26.462 72.805 53.299 9.265 20.583 32.18 28.127 42.215 48.296 5.9669 8.6085 34.113 17.794 25.177 28.574-13.591-1.1964-38.907-20.748-25.024 1.0012 14.071-2.153 20.522 6.0331 24.571 15.873 21.666 11.878 48.24 26.741 50.057 54.286-2.0609 9.8607-10.833 9.8406-4.2422 22.117-0.50078 13.005-20.35-2.4022-11.022 14.035 3.8915 16.898-14.134 3.0678-17.033 16.387l-1.8717 0.49792-3.3463-0.55712zm-137.24-94.907c16.117-12.024-16.37-15.326-19.166-11.051 1.5556 5.6389 14.435 17.408 19.166 11.051z" fill="param(fill)" fill-opacity="param(fill-opacity)" stroke="param(outline)" stroke-opacity="param(outline-opacity)" stroke-width="param(outline-width) 0.2"/>
</svg>
