<svg version="1.1" width="512" height="512" viewBox="0 0 512 512" xmlns="http://www.w3.org/2000/svg">
 <path d="m281.33 498.24c-21.708-1.7201-11.258-26.055-16.568-36.886-19.504 4.3231-34.57-17.846-22.111-34.504-1.3498-10.352 13.412-19.463 5.4962-28.993-0.222-11.023 9.6519-21.66 15.155-31.464 9.3753-8.0176-3.4741-17.231-4.664-26.19-1.3804-9.0989-14.789 1.5855-13.582-14.173 0.15971-24.484-34.329-14.986-50.318-22.974-23.884 0.95639-13.13-36.644 6.8398-22.524 14.576 0.96521 48.66 19.751 37.468-8.5217-2.4655-36.07-3.2767-72.942 4.6127-108.4 1.7071-18.47 18.416-40.552 33.918-33.227-1.8777-25.489-33.054-18.174-51.212-16.729-47.664 3.9787-93.604 18.824-139 32.349 45.218-49.032 114.25-65.085 178.55-67.878 10.681 0.0079 38.496-0.82566 13.024-5.1035-47.948-6.8344-98.149-18.026-145.66-2.66-19.831 3.1396-48.208 22.082-61.187 18.479 6.0659-27.083 23.164-51.953 49.563-62.467 43.96-21.803 95.046-18.262 141.62-7.9211 18.862 1.301 38.362 0.37811 57.992-2.7283 20.543 2.8379 36.095 19.185 45.638 37.294 8.328 19.282 17.844 38.44 24.754 58.377-8.0914 26.622 25.29 30.648 28.986 54.694 4.8673 15.955 7.0362 35.256 4.9058 50.065-0.99492 18.497-5.1261 36.898-7.9514 54.524-5.1316 13.955-11.325 25.512-13.837 40.556-1.9251 7.0558-15.426 29.254-6.4257 33.766 15.194 6.7495 30.387 13.499 45.581 20.249 0.50175 12.417 0.0725 24.901-14.91 13.4-25.5-10.241-50.473-22.321-76.707-30.439-3.4169 9.1854-10.477 18.24-5.2804 28.078 2.2558 12.455 13.031 32.377-4.1723 37.931-1.6818 12.252 3.2689 27.268 2.0147 40.465 0.39615 21.549-20.573 28.766-36.947 23.128-4.6817 12.116-11.715 23.196-25.584 20.424z" fill="param(fill)" fill-opacity="param(fill-opacity)" stroke="param(outline)" stroke-opacity="param(outline-opacity)" stroke-width="param(outline-width) 0.2"/>
</svg>
