<svg version="1.1" width="512" height="512" viewBox="0 0 512 512" xmlns="http://www.w3.org/2000/svg">
 <path d="m321.24 480.58c17.083-3.2075 42.261 2.5624 40.354-24.808-4.3792-23.684 23.936-2.3871 36.74-3.2197 10.894-2.885 2.836-29.045 5.3893-41.659 0.0341-21.382 9e-3 -42.765 0.0167-64.148-17.734-2.7568-34.509-9.4321-52.219-12.383-1.9109-16.538 9.1385-35.536 6.8752-53.699 0.8729-38.416-8.6855-76.676-25.071-111.23-14.052-15.778-22.248-35.164-23.168-56.354-4.9565-21.293-17.683-41.268-35.608-53.783-15.83-13.042-33.937-3.0317-49.309-12.706-33.762-8.6912-70.611-3.288-102.15 10.924-22.041 10.781-44.683 31.649-43.095 58.163 9.1359 8.7047 28.229-12.35 42.71-9.1431 33.291-3.7887 66.86-0.24874 100.26 0.29448 6.7428 12.824 11.288 27.119 7.1532 41.588-5.521 28.676-4.5439 57.91-4.8807 86.955 11.912 12.483 7.8669 30.507 11.871 45.976 0.31451 11.713 20.577 27.822-1.6343 27.841-25.822-6.7416-51.867-12.664-78.089-17.736-31.202-6.5943-62.697-11.976-94.169-17.019-0.81428 33.98-0.35846 67.98-0.47838 101.97 37.995 5.8022 75.746 14.055 112.5 25.24 17.228 4.5226 32.15 16.26 49.963 18.174 22.479 0.62217 45.735-0.25716 67.171 6.9785 1.3879 17.412-1.935 39.894 15.783 50.271 4.133 0.99733 8.7076 5.6983 13.083 3.5116zm-73.652-179.75c-5.8248-5.0134-5.8343-31.716-1.0671-10.957-0.15043 1.0953 6.6251 17.036 1.0671 10.957z" fill="param(fill)" fill-opacity="param(fill-opacity)" stroke="param(outline)" stroke-opacity="param(outline-opacity)" stroke-width="param(outline-width) 0.2"/>
</svg>
