<svg version="1.1" width="512" height="512" viewBox="0 0 512 512" xmlns="http://www.w3.org/2000/svg">
 <path d="m142.26 367.81c3.3807-19.462 30.359-11.814 44.322-10.776 14.541 2.9486 32.545-9.1427 42.815 5.103 0.7012-6.2283-11.898-15.758 2.7311-12.521 19.412 6.0961-8.9816-11.363-16.854-8.2799-1.2461-6.7197 29.921-11.309 30.643-22 0.5321-23.38 27.403-15.122 42.083-12.812 10.542 2e-3 28.822 6.2127 34.721-3.1715-15.949-13.66 20.587 1.0729 28.702-2.2641-9.965-12.458 3.5168-3.6586 10.616-1.5718 32.237 11.281 65.151 21.786 99.074 26.371 19.521 0.84689 36.061-27.471 18.053-40.124-26.31-10.328-55.087-12.04-82.67-17.408-28.622-5.0985-57.762-8.3067-85.776-16.163-28.701-14.601-53.82-35.391-82.499-50.158-19.439-11.7-43.18-18.383-56.664-37.936-11.252-14.534-29.454-21.427-47.585-18.887-19.467-0.5011-38.743 6.0764-51.258 21.467-7.0086 6.8223-36.329 12.821-13.003 17.842 14.82 2.5556 33.327 5.7726 29.855 25.56 4.2793 44.567 41.568 80.229 83.147 92.556 15.253 5.3242 31.379 6.8537 47.397 7.778-1.4228 4.7032 3.0748 13.488-2.7624 15.148-18.212 6.9927-36.64 15.41-56.679 13.219-11.81 1.7636-35.637-3.8113-39.177 7.1201 6.244-6.0357 16.841 0.92522 5.5843 4.5498-8.3051 16.956 19.249-10.422 13.144 5.5958-6.8044 1.9833 2.3346 21.044 2.0396 11.761zm44.472-17.862c14.247-1.2572 9.2557 2.0782 0 0z" fill="param(fill)" fill-opacity="param(fill-opacity)" stroke="param(outline)" stroke-opacity="param(outline-opacity)" stroke-width="param(outline-width) 0.2"/>
</svg>
