<svg version="1.1" width="512" height="512" viewBox="0 0 512 512" xmlns="http://www.w3.org/2000/svg">
 <path d="m102.06 415.02c2.8112-21.453-11.036-45.399-34.341-45.988-10.33-0.7132-20.691-0.24951-31.036-0.29883 26.199-25.99 57.557-46.752 92.427-59.042 7.6201-16.428 13.815-34.526 25.755-48.815-6.3732-11.971-15.499-22.338-18.784-36.483-0.80197-10.027-9.0482-19.744-12.705-25.868-10.883-1.0343-13.554-11.649-25.954-10.251-10.339-8.5454-26.173-8.1385-37.824-15.247-18.685-6.0387-33.755-18.967-47.549-31.191 5.9165-17.959 37.19-11.807 53.605-18.872 36.799-8.0453 78.327-11.225 111.46 10.186 25.532 14.997 44.873 37.825 64.313 59.672 16.075-15.533 38.547-22.466 60.691-20.281 10.954 0.50519 51.298-1.6172 29.579 14.882-13.323 2.4271-7.2284 16.056-9.8775 25.501-3.5474 9.1986-10.812 18.708 4.4151 15.231 23.499 1.7897 50.269-2.6972 69.81 13.6 49.605 33.906 86.042 86.521 97.845 145.7-1.2908 7.6547 12.664 28.936-0.48719 27.31-17.076-1.3833-35.93-4.33-47.876-18.03-16.142-10.794-28.604-24.338-45.019-35.112-16.53-6.8783-28.402-20.991-46.774-22.761-18.667-11.573-38.284-17.453-59.865-22.364-14.929 1.2595-28.054-7.2071-42.932-7.077-18.202 9.0552-36.992 19.821-57.815 22.683-9.1965 3.9579-22.301-0.67374-29.16 7.7082-26.621 24.709-46.924 55.37-61.868 88.325-0.0121-4.3721-0.0243-8.7443-0.0364-13.116z" fill="param(fill)" fill-opacity="param(fill-opacity)" stroke="param(outline)" stroke-opacity="param(outline-opacity)" stroke-width="param(outline-width) 0.2"/>
</svg>
