<svg version="1.1" width="512" height="512" viewBox="0 0 512 512" xmlns="http://www.w3.org/2000/svg">
 <path d="m191.75 494.45c13.034-10.15 23.387-18.587 24.805-29.836 0.26621-2.1127 4.5515 7.5486 3.2584 2.6515-0.75671-2.8659-2.2836-20.273-3.5172-25.634 4.9537-22.191 4.799-41.532 15.216-61.133 1.3032-1.5613 4.4356-2.1016 1.7703-11.282-2.8163-9.7-3.9637-20.715 10.241-8.1255 18.813 17.127 43.507 25.481 67.745 31.228 24.036 4.8156 48.02 2.0947 71.717 9.2227 14.191 0.90718 23.631 11.137 17.981-4.9492 5.8875-21.505-6.5317-41.122-14.715-59.768-10.897-5.3968-31.88-36.858-7.8128-29.516 8.746 5.8357 18.364 21.05 14.653 2.7488 0.49492-4.2263 9.4212 11.217 13.338-2.1316 8.6725-7.4448 23.891 2.6555 34.793-0.55824 18.071 1.7094 59.869 0.39062 48.315-26.872-9.8833-24.026-35.803-29.229-55.925-41.232-22.715-11.568-49.638 0.0768-73.546-6.4469-14.383-6.9449-29.719-17.945-41.697-30.33-37.127-45.105-96.012-70.927-154.33-67.44-24.938 3.702-53.222-7.754-59.444-34.26-6.8219-15.784-1.5093-27.256 1.8362-46.167 1.3278-7.5057-3.2804-16.683-9.5424-23.503-6.6275-27.08-42.294-21.256-58.311-6.6119-7.5957 11.41-33.648 24.011-21.937 41.458 1.7949-4.0976 5.1212-7.5644 8.358-9.6169 6.2233-3.9463 9.9956-2.4879 6.1567 9.4129-2.4626 20.467-0.76942 12.21 7.7405 4.4371 3.8954-3.558 9.6529-4.6195 16.28-2.0179-2.7939 18.834 7.8459 38.547-3.3336 56.03-7.4032 19.409 1.0551 11.943 0.04488 18.04-3.7651 22.722 7.131 13.811 5.8576 20.881-1.2005 6.6655-1.0041 11.132-3.3936 20.017-7.2948 41.067-10.617 88.039 14.104 124.15 19.89 28.792 55.033 42.042 88.487 46.448 17.901 11.763 23.14 34.877 24.094 55.204-0.0158 14.557 4.1571 43.075-14.599 46.098-10.626-1.3642-33.133 1.3119-10.948 4.8524-10.617 2.0765-32.949 10.25-7.9326 5.8542 10.3-1.788 33.416-5.9998 13.609 7.1344-18.772 14.345 1.127 3.0098 10.5-1.6987 8.6861-6.2571 17.539-10.458 21.947-16.41 1.5864-2.1422 5.0736 3.5913 4.6567 0.84058-0.64373-4.247-2.5327-15.723-5.1718-20.828-0.11681-2.4194 4.6235-12.21 2.1376-11.718-4.4734 0.88541-5.4603-21.636-1.8834-41.093 0.32856-1.7872 4.364-4.0671 3.8533-7.6284-0.51075-3.5614-3.2753-10.631-1.9984-11.205 2.0185-0.90797 6.919 1.5996 11.399 4.4312 2.1602 1.3653 3.5229-0.8323 5.2905 1.2378 2.5087 2.938 1.1322 7.2672 2.216 10.682 2.1303 6.7117 3.5799 5.1557 1.4701 8.7386-3.2515 25.685-4.8602 53.052-17.222 76.164-8.916 5.5801-50.411 16.81-18.376 12.307 14.555-1.8822-14.071 10.42-13.406 15.515 11.329-2.9683 46.034-27.04 25.109-4.3313-5.8991 5.6466-10.047 17.721 0.0625 6.5626z" fill="param(fill)" fill-opacity="param(fill-opacity)" stroke="param(outline)" stroke-opacity="param(outline-opacity)" stroke-width="param(outline-width) 0.2"/>
</svg>
