<svg version="1.1" width="512" height="512" viewBox="0 0 512 512" xmlns="http://www.w3.org/2000/svg">
 <path d="m464.03 485.95c-12.336-4.9905-18.22-14.746-20.301-6.3762-33.241-13.49-67.119-30.533-88.011-60.914-20.986-24.056-40.623-49.662-64.052-71.363-9.5437-3.2356-33.849-26.951-34.925-20.256 11.696 6.8202-4.5636 28.297-1.8914 8.3707-14.051-20.524-31.862-20.382-47.679-32.06-19.932-21.521-51.308-20.298-78.098-24.721-13.389-6.1582-20.79 6.4266-28.264 11.442-2.6693-21.774 23.514-19.328 31.895-34.47 16.887 15.691 37.96 21.925 61.183 19.937 4.6394-8.7073 13.694-22.262 6.3201-33.09-14.853-38.753-24.022-79.384-31.914-120.01-17.192-16.81-43.034-24.263-66.758-24.424-26.37 4.2296-51.877 13.74-78.646 15.284-1.3336-13.259 31.649-24.024 45.781-33.391 10.501-3.7015 17.533-10.072 19.376-21.607 14.346-31.693 51.107-44.915 83.95-41.462 17.421-3.549 49.491 16.526 48.281 22.468-22.552-6.5419 8.9536 17.286 15.313 25.589 6.9526 6.8155 12.653 15.758 23.342 16.227 46.212 8.8433 83.3 41.621 109.55 79.212 32.843 45.8 57.252 103.53 46.87 160.74-14.488 11.273-8.0828 29.966-8.4023 49.125 0.87697 7.9947-2.2892 17.637 5.7421 22.716 24.106 27.957 47.808 56.341 70.128 85.742-9.1863 5.4922-26.362-13.76-14.588 2.2734 7.7543 10.686 4.2004 8.5504-4.2003 5.016zm-326.6-218.33c-8.3003-7.5334-16.183 7.347-0.0385 1.5732l0.44844-0.54926zm-4.2885-197.71c5.4869-13.327-21.508 2.5918-2.4021 1.3575z" fill="param(fill)" fill-opacity="param(fill-opacity)" stroke="param(outline)" stroke-opacity="param(outline-opacity)" stroke-width="param(outline-width) 0.2"/>
</svg>
