<svg width="850" height="850" version="1.1" viewBox="0 0 850 850" xmlns="http://www.w3.org/2000/svg">
   <path d="m 78.5,132.00781 -20.001953,39.69922 -0.191406,0.47266 C 40.025936,217.28361 34.345227,269.576 39.308594,326.56836 l 0.002,0.0312 0.002,0.0293 c 5.602603,60.92034 12.522466,92.51163 23.849609,128.91797 l 0.01172,0.0312 0.0098,0.0332 c 22.26274,70.20956 75.508616,142.16073 136.953126,193.53906 l 0.26172,0.21875 0.27148,0.20508 c 60.66041,45.3472 136.78001,80.53382 220.03516,80.19336 l 0.13086,-0.002 0.13086,-0.002 c 38.09733,-0.95264 79.59251,-9.95221 123.67968,-22.68945 l 0.26172,-0.0762 0.25782,-0.0859 c 24.57349,-8.27308 52.05971,-22.29177 78.04296,-39.48047 l 0.20899,-0.13867 0.20117,-0.14453 c 16.88041,-12.16002 47.0527,-31.94001 68,-62.7461 17.86743,-22.66407 33.8321,-45.83752 45.13672,-74.42187 l 0.002,-0.006 0.002,-0.004 c 5.28202,-13.38735 10.02223,-29.47163 13.08789,-42.78711 l 0.0195,-0.084 0.0176,-0.084 c 7.01216,-32.50074 12.23957,-72.55583 8.29101,-108.8789 l -0.0117,-0.0957 -0.0117,-0.0977 c -1.82777,-14.69625 -5.73312,-34.03426 -9.94922,-48.04688 l -0.004,-0.0156 -0.006,-0.0156 c -14.6527,-48.25195 -50.14708,-95.24208 -90.93555,-131.04101 l -0.47265,-0.41602 -0.51172,-0.36523 C 593.47082,153.23213 518.11,138.0097 435.84375,153.10547 l -0.70313,0.12891 -0.68164,0.20898 c -37.188,11.32067 -68.23653,32.50155 -95.85546,59.87109 l -0.13086,0.12891 -0.125,0.13281 c -19.41218,20.39838 -35.71662,41.65451 -46.98633,66.5918 -18.017,-29.5917 -37.24937,-42.77314 -55.51367,-49.0293 -22.29367,-7.63635 -39.07706,-7.11092 -56.26172,-20.72461 -25.20688,-19.96888 -52.94179,-58.69081 -90.388674,-74.02539 z m 11.455078,32.82617 c 23.627202,14.58744 48.178392,44.63636 74.105472,65.17579 23.44474,18.57292 46.32312,18.83139 63.6875,24.77929 17.34059,5.93976 33.21152,15.84349 52.5957,57.58203 -1.50708,6.25167 -2.78395,12.6944 -3.69922,19.44922 l -0.043,0.3125 -0.0254,0.31446 c -0.61354,7.27495 -0.94378,14.56382 -0.96484,21.85156 -3.89641,-1.96387 -8.41347,-4.19612 -13.60352,-6.59961 -13.27006,-6.14532 -28.86025,-12.78957 -41.29492,-14.5918 -12.32618,-1.7865 -22.86721,1.20876 -32.26562,3.60156 -9.39842,2.39281 -17.63238,4.25852 -27.05079,2.48829 -8.31465,-1.56279 -20.04101,-9.69214 -31.82031,-18.04493 -11.7793,-8.35278 -23.73262,-17.47921 -37.85742,-16.79492 -11.32017,0.54842 -20.849241,6.16827 -28.128906,11.92383 -3.475182,-50.60632 2.265778,-95.96415 17.765625,-134.38086 z m 406.759762,7.53907 c 24.71181,-0.007 48.2896,3.26334 70.72071,9.76367 -0.46025,3.02768 -2.08318,12.53164 -5.25391,18.01953 -1.57916,2.7332 -5.9208,6.33907 -10.69531,10.21875 -4.77452,3.87968 -10.03837,8.15074 -12.88867,14.29102 -2.80183,6.03584 -2.72233,12.44838 -2.56446,17.99218 0.15787,5.54381 0.22564,10.37215 -0.58008,12.4961 -1.0977,2.89365 -2.22588,3.95202 -3.97656,5.61328 -1.75068,1.66126 -4.32203,4.00473 -5.83203,7.96484 -1.50492,3.94676 -1.92696,8.89064 -2.21094,13.47852 -9.21723,-3.12433 -19.15736,-4.8832 -29.26953,-5.46875 -0.18318,-0.43365 -0.35331,-0.8266 -0.54101,-1.2793 -1.88617,-4.54901 -3.90789,-10.11338 -4.3711,-12.64062 -0.54048,-2.94891 -0.45577,-4.6827 -0.26172,-7.06836 0.19406,-2.38567 0.53021,-5.38309 0.32227,-9.75977 -0.44579,-9.38283 -4.18956,-19.97563 -2.39453,-26.70508 2.20044,-8.24932 6.7384,-19.10724 9.06055,-27.9414 1.33076,-5.06262 1.23207,-11.0839 0.94726,-16.07422 -0.059,-1.03444 -0.13483,-1.9828 -0.21094,-2.90039 z m -8.00976,0.125 c 0.0861,0.98686 0.16847,2.0777 0.23437,3.23242 0.26377,4.62164 0.16631,10.2987 -0.69726,13.58398 -2.06651,7.86164 -6.61235,18.75594 -9.05469,27.91211 -2.84775,10.67605 1.80219,22.14664 2.13477,29.14649 0.18123,3.81466 -0.0952,6.15697 -0.30469,8.73242 -0.20949,2.57545 -0.31928,5.42544 0.36523,9.16015 0.65697,3.58442 2.33257,8.05891 4.03711,12.25782 -10.66297,0.0758 -21.33178,1.37864 -31.37109,3.68945 -1.0402,-0.85143 -2.18029,-1.79806 -3.44141,-2.89648 -3.71815,-3.23848 -7.94963,-7.45874 -9.45117,-9.85743 -1.53918,-2.45881 -2.37797,-5.92829 -3.13672,-9.69336 -0.75875,-3.76505 -1.35526,-7.81626 -3.66797,-11.46093 -1.17781,-1.85616 -2.82343,-3.20306 -4.3164,-3.85352 -1.49298,-0.65045 -2.51611,-0.76185 -3.00977,-0.92187 -0.49366,-0.16003 -0.62504,-0.1806 -1.18555,-0.78516 -0.5605,-0.60456 -1.45102,-1.90811 -2.49804,-4.4082 -0.66235,-1.58155 -1.33852,-6.3956 -1.41211,-12.0293 -0.0736,-5.6337 0.25106,-12.27568 0.72461,-18.58789 0.74969,-9.9931 1.82923,-18.89345 2.25976,-22.27539 5.26259,-2.19735 10.65687,-4.16132 16.20703,-5.87305 16.29154,-2.95217 32.15226,-4.63295 47.58399,-5.07226 z m 87.49023,12.375 c 22.9139,7.60888 44.60009,18.66244 65.02539,33.16211 2.39061,2.10619 4.75932,4.25786 7.10547,6.44922 -0.87586,1.97123 -2.19206,4.79433 -3.90625,7.94531 -3.05885,5.62269 -7.52224,11.80316 -10.55859,13.72851 -3.72066,2.35927 -8.07154,3.32547 -13.14063,4.44922 -5.06908,1.12376 -10.85105,2.43315 -16.40625,6.18946 -6,4.05705 -8.67827,10.19323 -10.69922,15.49414 -2.02094,5.3009 -3.63303,9.90708 -5.90625,12.32031 -2.66347,2.82751 -5.56274,4.21782 -8.79296,5.5625 -3.23023,1.34467 -6.9663,2.47741 -10.06641,5.74805 -3.14792,3.32107 -5.22245,7.5702 -6.44922,10.63867 -8.47841,-7.8412 -18.03644,-15.02515 -30.08984,-20.80664 l -0.0566,-0.0274 c 0.0287,-0.63333 0.0519,-1.24095 0.0918,-1.91601 0.26928,-4.56365 1.0262,-10.08557 1.70703,-11.8711 0.7918,-2.07656 1.73533,-2.85499 3.61915,-4.64257 1.88379,-1.7876 4.50873,-4.50324 6.19531,-8.94922 1.97856,-5.2157 1.31301,-10.64818 1.16211,-15.94727 -0.15091,-5.29909 0.0453,-10.31077 1.73242,-13.94531 1.63867,-3.53011 5.75732,-7.32285 10.40039,-11.0957 4.64307,-3.77288 9.75524,-7.40968 12.8125,-12.70118 3.88372,-6.72191 5.55844,-15.28098 6.2207,-19.78515 z m -159.79492,2.38672 c -0.52632,4.55197 -1.20095,10.90734 -1.72266,17.86132 -0.48418,6.45396 -0.82668,13.27144 -0.74804,19.29102 0.0786,6.01958 0.37414,11.05215 2.0332,15.01367 1.27438,3.04298 2.53802,5.17041 4.00977,6.75781 1.47174,1.58741 3.2502,2.52209 4.58593,2.95508 1.33574,0.433 2.06139,0.5507 2.28125,0.64649 0.21986,0.0958 0.2511,0.0112 0.75586,0.80664 1.05246,1.65859 1.80748,4.91041 2.58203,8.7539 0.77456,3.8435 1.65093,8.28852 4.19922,12.35938 2.43928,3.89669 6.52737,7.73044 10.29102,11.03515 -12.09511,4.48501 -22.97847,10.6715 -32.50391,18.72266 -4.26795,-1.74831 -8.74335,-3.81651 -10.88672,-5.31445 -5.39612,-3.77122 -8.09985,-9.46448 -13.99023,-14.81641 -3.00751,-2.73258 -6.59046,-4.90088 -9.75391,-7.01172 -3.16344,-2.11084 -5.85186,-4.20171 -7.08398,-5.97851 -1.38863,-2.00251 -1.43871,-2.92135 -1.69531,-4.9961 -0.25661,-2.07475 -0.63687,-5.13736 -2.59571,-8.94922 -2.08153,-4.05062 -6.57753,-9.90818 -10.71484,-15.1582 -1.11194,-1.41099 -2.17117,-2.73422 -3.15625,-3.95312 1.33191,-1.44093 2.66195,-2.88174 4.03906,-4.33008 18.62597,-18.43752 38.20447,-33.2038 60.07422,-43.69531 z m 238.78711,43.81445 c 19.71007,19.48209 37.35205,41.7211 50.5332,64.47656 -0.62579,1.18378 -1.33516,2.46554 -2.21289,3.8711 -2.78993,4.46769 -6.87815,9.21409 -10.5,10.92382 -3.06011,1.44456 -9.66038,0.9113 -17.17383,-0.36523 -7.51344,-1.27653 -15.80989,-3.13123 -23.70898,-0.63477 -7.24537,2.28986 -12.83914,6.95878 -17.51562,11.22852 -4.67651,4.26974 -8.69208,8.18285 -11.19727,9.47461 -3.26066,1.6813 -4.82755,1.88659 -7.10742,2.26562 -2.27988,0.37903 -5.50039,0.99467 -9.08008,3.20703 -4.08763,2.52629 -8.20177,6.8954 -11.9082,10.88868 -1.31106,1.41251 -2.45614,2.69389 -3.48047,3.85351 -5.35694,-13.40811 -13.06123,-26.13314 -23.08399,-37.35351 l 0.86914,0.26953 c 0,0 2.89331,-8.04228 5.75977,-11.06641 1.08751,-1.14733 3.48647,-2.17069 6.99414,-3.63086 3.50767,-1.46017 7.94893,-3.52292 11.88477,-7.70117 4.32609,-4.59253 5.88724,-10.35819 7.76562,-15.28516 1.87838,-4.92696 3.82635,-8.87499 7.33008,-11.24414 3.94854,-2.66991 8.32255,-3.75078 13.31445,-4.85742 4.9919,-1.10664 10.608,-2.21022 16.01172,-5.63672 6.08803,-3.86041 10.30462,-10.888 13.64453,-17.02734 1.12277,-2.06385 2.0448,-3.93924 2.86133,-5.65625 z m -307.66016,9.4668 c 0.77678,0.96602 1.57622,1.96311 2.41797,3.03125 4.05857,5.1501 8.62241,11.36928 9.98633,14.02343 1.48662,2.89293 1.60913,4.45971 1.875,6.60938 0.26587,2.14967 0.75738,5.05066 2.89063,8.12695 2.28976,3.302 5.63713,5.60117 8.95117,7.8125 3.31404,2.21133 6.6496,4.29748 8.92968,6.36914 4.68483,4.25658 7.65431,10.45635 14.68946,15.37305 2.46335,1.72157 5.78777,3.32678 9.1875,4.78906 -7.92109,7.80566 -14.75316,17.10181 -20.39258,28.00391 -3.01398,-0.85998 -6.14568,-1.78293 -9.08789,-2.75586 -9.48696,-3.13715 -25.95904,-7.45003 -33.06836,-12.38281 -3.61942,-2.51133 -5.76389,-5.40081 -7.89453,-8.54688 -2.13065,-3.14607 -4.20432,-6.63004 -7.78906,-9.44531 -4.35844,-3.42289 -11.07107,-6.62703 -15.43555,-8.5293 8.14604,-19.14667 19.88866,-35.76079 34.74023,-52.47851 z m -37.36132,59.06445 c 4.25295,1.92267 10.5854,4.97771 13.73242,7.44922 2.35798,1.85183 4.07652,4.55497 6.31836,7.86523 2.24184,3.31026 5.05096,7.14591 9.69922,10.3711 9.42604,6.54023 25.9846,10.34394 34.86132,13.27929 2.90029,0.95907 5.93646,1.86213 8.8711,2.70508 -2.69426,9.20374 -4.17255,18.76563 -4.36133,28.37109 -0.5995,0.33871 -1.11302,0.64184 -1.84961,1.03125 -2.49807,1.32065 -5.66088,2.74319 -7.5,3.1543 -3.94855,0.88264 -8.52472,-0.42039 -15.34961,-0.0684 -3.60847,0.18615 -7.59377,1.15388 -11.41797,1.8418 -3.8242,0.68792 -7.45811,1.01786 -9.61523,0.5 -2.45733,-0.58993 -3.52375,-1.46315 -5.13281,-2.9043 -1.60907,-1.44114 -3.65329,-3.48701 -7.07422,-5.17187 -3.38637,-1.66784 -9.1809,-3.69246 -14.32032,-5.41211 -2.4422,-0.81717 -4.64423,-1.52605 -6.35546,-2.07031 -0.21558,-8.41781 0.0724,-16.95406 0.79296,-25.63282 1.76735,-12.90541 4.69871,-24.52619 8.70118,-35.30859 z M 484.29492,302 c 8.81974,-0.0945 17.52743,0.69822 25.15625,2.39844 -1.29758,0.88076 -2.89227,1.9999 -4.61523,3.33594 -3.87427,3.00421 -8.19952,6.72604 -10.02539,10.85351 -1.81772,4.10903 -1.67091,9.6937 -1.28711,14.44727 0.0693,0.85772 0.15856,1.63852 0.24609,2.42187 -6.61572,-2.51166 -13.69118,-3.83394 -21.14844,-3.51367 -0.47341,-0.74976 -0.96727,-1.54872 -1.46484,-2.41406 -2.20889,-3.84161 -4.26471,-8.66937 -4.21875,-11.61133 0.0448,-2.86481 2.47676,-8.15456 5.03906,-12.38867 0.64775,-1.07038 1.29299,-2.07923 1.89844,-2.99414 3.45118,-0.31039 6.94133,-0.49788 10.41992,-0.53516 z m -15.51562,1.10156 c -0.0767,0.12519 -0.14786,0.22865 -0.22461,0.35547 -2.69164,4.44784 -5.54222,9.72393 -5.61524,14.39844 -0.0718,4.59735 2.40083,9.58239 4.75,13.66797 0.16629,0.2892 0.32269,0.52796 0.48828,0.80664 -4.41176,0.56685 -8.94224,1.70198 -13.57617,3.5039 l -0.0254,0.01 -0.0273,0.01 c -2.888,1.1377 -5.69367,2.59401 -8.36524,4.31445 -0.69756,-0.56383 -1.44729,-1.1879 -2.23242,-1.87891 -2.9188,-2.56892 -6.05878,-5.98427 -6.97851,-8.30273 -0.95283,-2.40186 -1.20303,-7.03855 -1.0586,-10.90235 0.0668,-1.7859 0.19549,-3.37355 0.31446,-4.60937 5.03586,-3.15884 10.57853,-5.82242 16.75586,-8.13672 4.88953,-1.43983 10.24913,-2.50946 15.79492,-3.23633 z m 45.24023,2.46289 c 2.72524,0.79277 5.26895,1.71577 7.56445,2.77735 10.9322,5.25782 18.90494,11.6255 27.17774,19.7539 0.34439,0.37038 0.67955,0.74787 1.01758,1.12305 -2.44783,1.00053 -5.89419,2.39976 -8.5586,3.40234 -3.49302,1.31438 -7.58875,0.8243 -13.26562,4.75586 -3.1782,2.20109 -6.98832,6.90251 -10.33203,11.21289 -0.67132,0.86539 -1.28733,1.68367 -1.88867,2.48438 -1.98849,-2.40256 -4.17513,-4.75294 -6.58594,-7.04102 l -0.70117,-0.66406 -0.79493,-0.55078 c -3.06504,-2.11948 -6.28368,-3.97891 -9.62695,-5.55274 -0.1841,-1.32113 -0.37479,-2.83255 -0.51367,-4.55273 -0.36344,-4.50144 -0.21614,-9.86022 0.95508,-12.50781 1.16305,-2.62915 5.13934,-6.45427 8.82031,-9.3086 3.68097,-2.85432 7.00195,-4.89062 7.00195,-4.89062 z m 197.30274,0.19141 c 5.4095,10.48543 9.80173,21.00978 12.94531,31.35742 3.56803,11.86265 7.45384,30.93205 9.06445,43.8418 0.19222,1.77914 0.34961,3.58448 0.49219,5.40039 -0.6875,0.69625 -1.441,1.44188 -2.2461,2.20508 -3.30939,3.13718 -7.81513,6.37112 -9.26367,6.83007 -2.79593,0.88588 -4.22632,0.94558 -6.54883,0.63672 -2.32249,-0.30885 -5.55857,-1.18918 -10.50195,-2.26562 -3.50932,-0.76417 -9.88116,-3.99386 -16.5957,-7.19141 -6.71454,-3.19755 -13.93254,-6.48005 -21.43359,-6.50781 -7.02234,-0.026 -12.457,2.44804 -17.03126,4.85742 -4.57424,2.40938 -8.44171,4.70707 -13.50195,5.82617 -7.87,1.74051 -26.85751,2.93174 -35.79687,3.41602 -0.2862,-11.65439 -2.23813,-23.44123 -5.84571,-34.87891 l 1.26953,1.0625 c 0,0 2.80727,-3.35 6.31836,-7.13281 3.51109,-3.78281 8.07423,-8.09479 9.83594,-9.18359 2.26966,-1.40273 3.1771,-1.46992 5.46094,-1.84961 2.28384,-0.37969 5.71726,-1.00863 10.05273,-3.24414 5.09094,-2.62506 8.99277,-6.99154 13.35743,-10.97657 4.36465,-3.98502 8.93634,-7.5463 13.7832,-9.07812 4.19314,-1.32522 11.41887,-0.3327 19.02148,0.95898 7.60262,1.29169 15.71104,3.04591 23.11914,-0.45117 6.40319,-3.02269 10.82035,-8.63065 14.04493,-13.63281 z m -279.31641,11.58203 c -0.031,0.5297 -0.0667,1.02958 -0.0879,1.5957 -0.15263,4.0829 -0.10299,8.90012 1.33594,12.52735 1.472,3.71061 4.95211,7.10136 8.05468,9.83203 0.52018,0.45782 1.0049,0.85511 1.4961,1.26367 -3.96221,3.06133 -7.51185,6.77198 -10.37696,11.07813 -2.19516,-1.31344 -4.81102,-2.80197 -6.69726,-3.61915 -2.10217,-0.91072 -4.08873,-1.02244 -5.6582,-1.25781 -1.56948,-0.23536 -2.63581,-0.51404 -3.59375,-1.39648 -0.68775,-0.63354 -1.9915,-3.33772 -2.74414,-5.73828 -0.43607,-1.39083 -0.72414,-2.52801 -0.92188,-3.36914 5.50005,-8.73211 11.76002,-15.4967 19.19336,-20.91602 z m -339.560548,2.00195 c 6.033791,-0.29231 16.887518,5.84619 28.455078,14.04883 11.56756,8.20264 23.72671,17.91981 37.72461,20.55078 12.89415,2.42353 23.9495,-0.25586 33.52344,-2.69336 9.57393,-2.43749 17.68852,-4.55761 26.41406,-3.29297 8.61706,1.24892 24.35066,7.43444 37.14062,13.35743 9.1331,4.22949 16.77489,8.18113 20.49805,10.14453 1.3635,18.65618 5.18245,37.23648 12.55274,55.50586 -4.37767,-0.41721 -9.23268,-0.8362 -14.39844,-1.18555 -8.7792,-0.59371 -18.11951,-1.09337 -26.94141,-0.95703 -8.82189,0.13633 -17.12592,0.90802 -23.83008,2.85547 -12.89672,3.74628 -20.84253,11.9913 -27.27148,18.46484 -6.42895,6.47354 -11.09491,10.97788 -18.70898,12.29297 -6.45097,1.1142 -17.66365,-3.15392 -29.20118,-8.30273 -5.76876,-2.57441 -11.63111,-5.20864 -17.59765,-6.9043 -5.96654,-1.69566 -12.34311,-2.60593 -18.65625,-0.29688 -10.11764,3.70057 -16.248464,11.93565 -20.189456,19.22266 -1.798016,-4.71572 -3.459893,-9.41327 -4.939453,-14.07812 -0.0018,-0.006 -0.004,-0.0118 -0.0059,-0.0176 -10.298124,-33.10878 -16.508884,-60.36204 -21.783203,-113.07422 1.492437,-1.5357 3.256518,-3.2429 5.298828,-4.99024 6.269623,-5.36409 14.595592,-10.29574 21.916015,-10.65039 z m 460.091798,13.07422 c 8.06138,9.76682 14.09706,20.92782 18.01758,32.54297 -0.55126,-0.0573 -1.04023,-0.1197 -1.60938,-0.17383 -3.64981,-0.34712 -7.59714,-0.63744 -11.33984,-0.66797 -3.7427,-0.0305 -7.28097,0.1981 -10.11524,0.88868 -5.57747,1.35895 -11.85288,5.04262 -16.89257,8.37304 -0.73341,0.48466 -1.36573,0.93321 -2.03711,1.39649 -2.12305,-7.10113 -5.49307,-13.94808 -10.27344,-20.43555 0.76341,-1.02679 1.59268,-2.13034 2.49609,-3.29492 3.27116,-4.21685 7.38659,-8.95042 9.44922,-10.37891 4.80479,-3.32759 7.84033,-2.58636 12.39649,-4.30078 3.37126,-1.26856 8.05458,-3.18734 9.9082,-3.94922 z m -142.54688,10.625 c 0.80882,2.57065 1.76862,5.41328 3.77735,7.26367 1.79522,1.65373 3.92051,2.14166 5.71094,2.41016 1.79043,0.2685 3.33306,0.39882 4.6621,0.97461 1.48389,0.64287 4.02408,2.09473 6.20899,3.39648 -2.37057,4.36707 -4.07441,9.23652 -4.88086,14.54493 -0.31391,1.95787 -0.51193,3.92355 -0.60742,5.88671 -1.92912,-0.71149 -4.03687,-1.37401 -6.0918,-1.24218 -2.28662,0.14669 -3.87342,1.38859 -5.0918,2.27148 -1.21837,0.8829 -2.06074,1.44086 -3.1875,1.5 -0.89562,0.047 -3.63158,-0.69931 -5.89648,-1.5918 -0.90537,-10.89418 0.39832,-21.99153 3.79492,-32.46093 0.52489,-1.013 1.06291,-1.98449 1.60156,-2.95313 z m 69.06836,12.73242 c 5.73417,0.14823 10.82049,2.33399 16.9668,6.55079 12.38662,11.98841 11.28207,20.98151 10.21875,35.98046 -3.67287,14.88584 -9.71135,25.29688 -21.84766,31.62891 -1.91407,0.97548 -4.09715,1.90974 -6.34179,2.77148 -0.11429,-1.27292 -0.29483,-2.55609 -0.63281,-3.68359 -0.5648,-1.88407 -1.74491,-3.95469 -2.79883,-5.71484 -0.09,-0.15037 -0.15043,-0.23666 -0.23828,-0.38086 5.13664,-1.35742 9.95806,-3.92959 14.34179,-7.43164 7.84498,-6.26715 14.1867,-17.25362 12.50782,-29.74219 l -0.0957,-0.70312 -0.17187,-0.6875 c -0.6041,-2.3961 -1.30041,-6.79469 -4.9668,-11.35743 -3.66639,-4.56273 -9.01107,-7.51464 -15.0332,-8.76367 -6.69832,-1.38927 -16.20623,4.37729 -20.75586,8.37891 -4.54963,4.00161 -1.3125,11.20312 -1.3125,11.20312 0,0 4.96294,2.926 7.40039,3.09571 2.43744,0.16971 4.30112,-1.13954 6.30859,-0.77149 1.92569,0.46615 2.89825,0.65494 3.69336,2.82422 0.0447,0.14523 0.1002,0.36348 0.16406,0.58398 0.22549,2.69366 -0.772,4.35331 -3.34179,6.40625 -2.66165,2.12632 -6.96301,3.01522 -7.96485,2.95313 -6.51579,-1.34255 -10.08807,-4.15518 -12.46093,-7.91211 -2.43892,-3.86151 -3.55366,-9.20028 -2.54493,-15.44727 l 0.0117,-0.0684 0.01,-0.0684 c 1.08335,-7.21411 7.43853,-13.88886 13.52344,-16.29297 6.04896,-2.34948 10.90142,-3.46685 15.36132,-3.35157 z m -178.12695,11.16993 c 1.34446,0.43375 2.58172,0.82663 4.19141,1.36523 5.06023,1.69316 10.96346,3.81963 13.57422,5.10547 2.57618,1.26881 3.92619,2.64882 5.72265,4.25781 1.79646,1.60899 4.14677,3.41068 7.73242,4.27149 3.88586,0.93288 8.04607,0.29402 12.08008,-0.43164 4.03401,-0.72567 7.9717,-1.61502 10.66406,-1.75391 5.7768,-0.29801 10.52892,1.23282 16.34961,-0.0684 2.72848,-0.60991 5.60297,-1.95509 8.11524,-3.25391 0.45219,10.28758 2.40257,20.53646 5.93945,30.35743 -3.89695,2.48992 -11.3342,7.36156 -15.17773,10.73632 -4.42273,3.88333 -9.79046,6.74328 -13.49219,9.73047 -2.62496,2.11827 -6.01663,2.98718 -10.11719,3.94141 -4.22966,0.98427 -4.17371,1.35732 -9.51953,0.69922 -3.23539,-0.3983 -8.44038,-0.36363 -13.07226,-0.27735 -1.87907,0.035 -3.449,0.0849 -4.88086,0.13086 -2.21206,-3.9423 -4.29485,-7.93526 -6.20313,-11.98437 -7.24074,-17.15377 -10.85187,-34.71215 -11.90625,-52.82617 z m 256.57422,1.2207 c 3.57851,0.0206 7.4891,0.26384 11.06055,0.60351 1.16745,0.11104 2.22058,0.23571 3.30078,0.35743 2.58785,8.87003 3.95765,17.93404 4.07226,26.78125 0.0586,7.57428 -0.4616,13.78653 -1.48047,19.67578 -1.43138,-0.86272 -2.99021,-1.78774 -4.71875,-2.77149 -5.86897,-3.34016 -12.81398,-6.99426 -18.16992,-8.28906 -2.6368,-0.63745 -5.67385,-0.94194 -8.76562,-1.05078 -3.09177,-0.10884 -6.23884,-0.021 -9.09375,0.125 -1.07806,0.0551 -2.055,0.12521 -3.02539,0.19531 0.0531,-0.2185 0.11625,-0.43565 0.16797,-0.65429 l 0.2207,-0.93165 0.0762,-0.95507 c 0.60514,-7.61553 0.15794,-15.10823 -1.51172,-22.36719 0.97228,-0.68588 2.02442,-1.41289 3.16406,-2.16602 4.8742,-3.22105 11.05101,-6.70784 15.63282,-7.82422 2.24537,-0.54708 5.4918,-0.74911 9.07031,-0.72851 z m -138.48047,12.10156 c 0.86244,-0.0553 3.32063,0.56227 5.27539,1.30664 0.20701,0.0788 0.33223,0.14031 0.5293,0.21875 0.20377,5.89044 1.43327,11.67392 3.79297,17.03321 -0.55052,-0.0153 -1.11913,-0.0352 -1.61328,-0.0352 -1.52915,8e-5 -2.81936,0.10287 -4.05665,0.49414 -1.23727,0.39127 -2.39213,1.25215 -3.10351,2.39844 -0.60726,0.9785 -0.90813,2.19144 -1.20117,3.52929 -0.0876,0.12758 -0.63611,0.76327 -1.38672,1.42188 -0.77462,0.67968 -1.73971,1.44072 -2.67383,2.14062 -0.27329,0.20477 -0.46824,0.33598 -0.73047,0.52735 -4.58165,-8.22168 -7.4782,-17.17875 -8.76562,-26.36719 1.85138,0.67065 3.7756,1.20357 5.60742,1.10742 2.37741,-0.12478 4.07544,-1.34952 5.32617,-2.25586 1.25073,-0.90634 2.06226,-1.45937 3,-1.51953 z m 248.17188,9.79883 c 4.27807,0.0158 10.74276,2.47641 17.16992,5.53711 6.42715,3.06069 12.65731,6.60263 18.76953,7.93359 4.67817,1.0187 7.90258,1.955 11.31055,2.40821 3.40796,0.45321 6.97799,0.22087 10.88671,-1.01758 3.4508,-1.09336 6.42861,-3.171 9.11719,-5.45703 0.49326,27.38516 -3.60617,57.2164 -8.98633,82.17968 -0.26251,1.1387 -0.55666,2.33103 -0.84961,3.52344 -0.95087,0.29416 -1.9521,0.59 -3.0332,0.8711 -5.6593,1.47145 -12.67142,2.27165 -17.36328,0.91406 -3.83158,-1.10867 -9.75005,-6.98006 -15.74219,-13.86328 -5.99213,-6.88322 -12.08758,-14.68221 -20.97461,-17.75196 -8.06932,-2.78729 -15.49136,-1.4076 -21.41211,-0.0762 -5.92074,1.33147 -10.39441,2.35238 -13.67968,1.47266 -3.84313,-1.02911 -7.57589,-3.68058 -11.43555,-6.83399 -3.85966,-3.1534 -7.66074,-6.84105 -12.94336,-8.8457 -4.49939,-1.70742 -9.53479,-2.54503 -13.52734,-2.96289 0.53669,-1.6371 1.06316,-3.27414 1.5664,-4.9082 l 0.0625,-0.19727 0.0527,-0.19922 c 2.40477,-8.83517 4.03867,-18.00517 4.5625,-28.5664 8.39702,-0.37265 27.82143,-1.43679 38.11328,-3.71289 6.81266,-1.50667 11.77119,-4.51373 16.00195,-6.74219 4.23076,-2.22846 7.57718,-3.72267 12.33399,-3.70508 z m -240.19141,12.80078 c 0.93355,-0.007 2.35329,0.0163 3.68555,0.0332 0.28156,0.48862 0.56656,0.97601 0.86914,1.45508 2.16363,3.42565 4.89,6.52805 8.06445,9.22461 -0.45988,0.31364 -0.96078,0.66443 -1.47852,1.04297 -2.07718,1.5187 -4.45286,3.38526 -5.84765,5.60742 -1.27366,2.02918 -1.93336,4.72202 -2.42188,7.20117 -3.94091,-2.87913 -7.65007,-6.38636 -11.1582,-10.54882 -0.99068,-1.34879 -1.92628,-2.72577 -2.8125,-4.12696 0.3769,-0.27243 0.67467,-0.47553 1.08008,-0.77929 0.98505,-0.73807 2.01463,-1.5448 2.91406,-2.33399 0.89943,-0.78919 1.65218,-1.46631 2.2207,-2.41211 l 0.18164,-0.30468 0.0684,-0.34571 c 0.28046,-1.44654 0.6031,-2.34583 0.87696,-2.78711 0.27385,-0.44127 0.3927,-0.52972 0.91015,-0.69336 0.51746,-0.16363 1.46539,-0.22173 2.84766,-0.23242 z m 113.4668,5.58203 c 3.67987,0.0377 7.28817,0.29885 9.92187,0.93555 4.1316,0.99882 11.15066,4.51474 16.87305,7.77148 2.35849,1.34228 4.41279,2.57898 6.13672,3.63672 -0.39113,1.72771 -0.81098,3.45426 -1.28516,5.20703 -4.21481,13.64488 -9.93651,27.30037 -16.20508,37.31641 -0.56081,-0.96775 -1.12448,-1.93999 -1.76367,-2.99414 -3.41862,-5.638 -7.72495,-12.13552 -12.07617,-15.99219 -4.35734,-3.86209 -11.41039,-7.39889 -17.50781,-10.16211 -2.16528,-0.98125 -4.09203,-1.79637 -5.82422,-2.51172 4.74709,-6.97639 8.16085,-14.74763 10.55078,-22.74414 1.40287,-0.11813 2.93871,-0.23354 4.67383,-0.32226 2.06405,-0.10555 4.29793,-0.16325 6.50586,-0.14063 z m -152.91016,4.06446 c 2.93926,6.80634 6.67698,13.36241 11.24805,19.52734 l 0.21289,0.28711 0.22851,0.27539 c 1.77529,2.12819 3.64011,4.15154 5.58008,6.07812 -1.39639,2.36499 -8.48463,14.37539 -11.93164,20.36329 -2.10157,3.65068 -2.94184,6.89414 -3.99023,9.50781 -1.0484,2.61366 -2.17102,4.67013 -5.09571,7.00586 -2.27926,1.82027 -9.84868,4.39633 -16.42968,5.96093 -2.87131,0.68265 -5.49095,1.21433 -7.64258,1.62696 -14.61619,-13.62019 -27.23515,-28.99118 -37.25586,-45.48242 0.56455,-0.0134 0.95175,-0.0299 1.54687,-0.041 4.54615,-0.0847 9.90892,-0.0512 12.22852,0.23438 5.76416,0.7096 7.62868,0.11669 11.61328,-0.81055 4.11371,-0.95729 8.60493,-1.95154 12.52539,-5.11524 2.84369,-2.29476 8.5849,-5.41916 13.67969,-9.89257 2.83666,-2.4907 9.40087,-6.8641 13.48242,-9.52539 z m 55.41602,3.64062 c 2.86847,1.98891 6.02357,3.6717 9.41992,4.99414 -0.7059,2.12156 -1.41701,4.59544 -1.53321,6.83594 -0.12816,2.47133 0.48564,5.63746 1.08789,8.39648 -6.71657,-0.90408 -12.83127,-3.08248 -18.46093,-6.50586 0.0509,-0.29774 0.0934,-0.57651 0.15234,-0.89062 0.46907,-2.49947 1.3081,-5.45616 2.04297,-6.62695 0.75279,-1.19934 2.90578,-3.10609 4.82031,-4.50586 0.94398,-0.69017 1.82048,-1.27664 2.47071,-1.69727 z m 13.20507,6.29492 c 1.57424,0.46544 3.18911,0.86029 4.84375,1.17188 l 0.33008,0.0625 0.33008,0.0449 c 2.89703,0.38671 5.73169,0.36999 8.49219,0.0137 0.30547,0.47759 0.62836,0.98085 1.01172,1.6211 0.98849,1.65087 2.07566,3.73185 2.39843,4.80859 0.25811,0.861 0.44926,2.4222 0.55664,3.94141 -3.72197,1.2325 -7.3384,2.16342 -9.99804,2.55664 -2.75949,0.21466 -5.4157,0.22848 -7.9961,0.0879 -0.099,-0.42278 -0.18042,-0.72236 -0.28125,-1.1836 -0.57843,-2.646 -1.09015,-5.87051 -1.01171,-7.38281 0.0761,-1.46619 0.67954,-3.76951 1.32421,-5.74219 z m 59.50391,13.35742 c 1.89005,0.76693 4.21544,1.7382 6.81445,2.91602 5.92086,2.6832 12.83334,6.31608 16.25586,9.34961 3.42864,3.03895 7.80092,9.37456 11.11719,14.84375 1.12151,1.8496 2.06985,3.5069 2.91797,5.01562 -0.48443,0.6581 -0.97055,1.29412 -1.45899,1.90235 -6.58247,8.11677 -13.18656,14.44941 -20.53125,20.0039 l -0.16406,0.12305 -0.16015,0.12891 c -5.05976,4.09394 -10.14076,7.65785 -15.32618,10.7539 0.0294,-1.8508 0.0386,-3.96589 -0.043,-6.39257 -0.21547,-6.41307 -0.89483,-14.09549 -3.3418,-19.79883 -2.4964,-5.81855 -8.44535,-12.53305 -13.82422,-18.13477 -1.24811,-1.29982 -2.45073,-2.50765 -3.58594,-3.63086 0.48139,-0.23584 0.97239,-0.46062 1.44727,-0.70312 l 0.043,-0.0215 0.041,-0.0215 c 8.10005,-4.21353 14.61026,-9.83707 19.79883,-16.33399 z m -262.02539,4.21485 c 6.48255,0.0306 13.30747,0.29159 19.68164,0.72265 9.25323,0.62577 17.45469,1.46061 23.24805,2.11133 4.9934,9.02924 10.64657,17.74582 16.88867,26.09571 0.37706,1.54419 1.09325,4.84473 1.36719,8.76171 0.37741,5.39678 -0.5851,11.11683 -2.51368,13.50196 -0.61848,0.7649 -1.84414,1.57247 -4.51953,2.2539 -2.67538,0.68143 -6.48047,1.07408 -10.76953,1.45118 -8.57812,0.75419 -19.43992,1.25453 -28.64648,8.12304 -9.39287,7.00752 -12.97547,17.74902 -16.75391,26.81055 -3.77843,9.06153 -7.51333,16.22465 -12.48437,19.13281 -5.04968,2.95417 -13.02281,2.77942 -22.38868,1.67383 -9.36586,-1.10559 -19.73928,-3.44536 -29.83789,1.0293 -8.94002,3.96129 -15.98088,11.23665 -21.32617,17.45703 -1.80695,2.10277 -3.30253,4.01349 -4.6289,5.76172 -24.80325,-29.24987 -45.98123,-61.38967 -60.7754,-93.27344 0.16058,-0.64538 1.38962,-5.41 4.19922,-10.95508 3.01425,-5.94893 7.64732,-11.73953 12.89844,-13.66016 1.77727,-0.65003 4.95831,-0.6243 9.40234,0.63868 4.44404,1.26297 9.84686,3.61071 15.58594,6.17187 11.47816,5.12232 24.25083,11.73852 37.86719,9.38672 12.45325,-2.15091 20.29336,-9.95526 26.79883,-16.50586 6.50547,-6.55059 11.92275,-12.04657 20.8125,-14.62891 5.23634,-1.52106 15.09028,-2.11155 25.89453,-2.06054 z m 155.67578,2.83398 c 7.15317,6.14548 15.21792,10.97453 23.95703,14.22656 0.0511,2.64466 0.11906,7.82658 -0.14453,14.875 -0.17315,4.63011 -0.49364,9.54295 -1.05078,13.80665 -0.55714,4.26369 -1.43951,7.94114 -2.30078,9.66992 -1.84587,3.70511 -7.38072,8.43992 -12.46485,11.85156 -1.68726,1.13222 -3.2296,2.07376 -4.64648,2.91211 -17.96012,-4.13118 -34.02966,-10.8965 -46.29297,-21.07031 -0.37868,-0.32598 -0.74674,-0.66197 -1.12305,-0.99024 1.14009,-0.24582 2.27674,-0.488 3.50196,-0.77929 6.83893,-1.62594 14.3645,-3.57934 18.78711,-7.11133 3.77718,-3.01655 5.67776,-6.36714 6.91797,-9.45899 1.2402,-3.09185 1.95488,-5.85363 3.62109,-8.74804 3.15198,-5.47538 9.13117,-15.61293 11.23828,-19.1836 z m 181.34375,6.05469 c 3.74929,0.30598 9.63467,0.98679 13.44727,2.43359 2.29546,0.87108 5.77419,3.72202 9.88671,7.08204 4.11254,3.36 9.044,7.1976 15.54883,8.93945 7.06269,1.89123 13.37452,-0.11379 18.93946,-1.36524 5.56493,-1.25144 10.32937,-2.01409 15.4082,-0.25976 4.26113,1.47187 10.2563,7.67291 16.26758,14.57812 6.01128,6.90522 12.00836,14.61039 20.98242,17.20703 6.92991,2.00518 14.10353,1.22453 20.17187,-0.11523 -2.34926,8.1158 -5.07593,16.40825 -7.83007,23.38867 -8.46275,21.39522 -19.91449,39.58623 -33.59961,57.83985 -3.3907,0.0734 -9.29631,-0.4412 -14.28125,-4.32813 -2.32492,-1.81281 -6.35864,-10.254 -9.84961,-19.58594 -3.49098,-9.33193 -6.74907,-19.4982 -13.91992,-26.1289 -6.33206,-5.85509 -13.26289,-7.86744 -18.84375,-9.1836 -5.58087,-1.31615 -9.72155,-2.13082 -13.36133,-4.82226 -3.80415,-2.81298 -7.89848,-8.07388 -11.87305,-13.64063 -3.97456,-5.56674 -7.73591,-11.38291 -12.75586,-15.57617 -2.96608,-2.47762 -6.27661,-4.64841 -9.38867,-6.45508 6.0592,-9.01382 10.97963,-19.33809 15.05078,-30.00781 z m -101.19531,6.21094 c 1.47929,1.43704 3.09163,3.02856 4.84961,4.85937 5.23251,5.44931 10.98213,12.32179 12.83594,16.64258 1.90321,4.436 2.73291,11.84859 2.93945,17.99609 0.14364,4.2756 0.0488,7.2468 -0.0332,9.08594 -11.029,5.838 -22.65932,9.61612 -35.73242,11.61524 -0.5396,0.0177 -1.07937,0.0183 -1.61914,0.0332 0.31411,-0.69759 0.61852,-1.34024 0.9375,-2.08984 2.51383,-5.90752 5.11188,-13.19129 5.09571,-19.51758 -0.0166,-6.483 -3.1798,-15.11565 -6.23829,-22.50196 -1.69826,-4.10135 -3.24041,-7.43036 -4.41406,-9.87695 6.92561,-1.04842 14.34761,-3.25872 21.37891,-6.24609 z m -50.16211,3.91601 c 7.43235,2.07759 15.28381,3.04228 23.42578,2.75391 0.88956,1.78832 2.8111,5.71581 5.15039,11.36523 2.97253,7.17872 5.84736,15.90774 5.85938,20.60352 0.0124,4.85248 -2.296,11.90845 -4.69532,17.54687 -0.64464,1.51493 -1.27923,2.89973 -1.87695,4.16016 -15.71699,0.15592 -31.37402,-0.89369 -46.02734,-3.53125 5.3088,-3.59674 11.19605,-8.1823 14.00781,-13.82617 1.50992,-3.03077 2.28581,-7.01455 2.88086,-11.56836 0.59505,-4.55381 0.92014,-9.61453 1.09765,-14.36133 0.20091,-5.37214 0.20817,-9.83081 0.17774,-13.14258 z M 329.7207,488.42578 c 6.42686,6.9375 13.26724,13.54815 20.49805,19.76367 l 0.0781,0.0684 0.082,0.0664 c 4.34631,3.6106 8.93673,6.8407 13.72461,9.73828 -0.14021,0.75239 -0.31181,1.57543 -0.53125,2.44727 -0.85058,3.37923 -2.64504,6.87943 -3.67188,7.77148 -10.73668,9.32734 -21.40017,20.37827 -28.20898,31.82813 -6.04085,10.15841 -7.36045,21.74389 -8.82618,31.64062 -1.46572,9.89673 -3.42771,17.79715 -6.10156,20.70703 -3.60865,3.92721 -5.72056,4.03346 -10.55273,4.59375 -4.83217,0.56029 -12.4087,1.07581 -19.50782,6.66211 -7.40688,5.82848 -13.91391,15.89132 -19.69726,25.06445 -2.4565,3.89632 -4.56015,7.44361 -6.28516,10.40821 -15.66372,-8.9528 -30.63781,-18.86879 -44.78515,-29.42774 -15.54487,-13.01846 -30.56728,-27.55719 -44.63282,-43.08008 1.33084,-1.86177 3.32852,-4.53285 5.92188,-7.55078 4.64068,-5.40042 11.0393,-11.27555 15.91406,-13.43554 3.71619,-1.64663 12.05478,-0.97906 21.83789,0.17578 9.78311,1.15484 21.39696,2.4929 31.91797,-3.66211 10.59964,-6.20102 15.00319,-17.14268 18.88867,-26.46094 3.88549,-9.31826 7.4921,-17.23219 11.77539,-20.42773 4.46961,-3.33454 12.2011,-4.38409 20.82813,-5.14258 4.31351,-0.37925 8.76377,-0.73302 13.20898,-1.86524 4.44522,-1.13221 9.20639,-3.20554 12.65039,-7.46484 3.13102,-3.87223 4.72554,-8.17904 5.47461,-12.41797 z m 238.50586,0.17774 c 3.11195,1.71213 6.46696,3.77746 9.09961,5.97656 2.81024,2.34744 6.60929,7.63145 10.6836,13.33789 4.0743,5.70644 8.51887,11.89075 14.5039,16.31641 6.1494,4.54717 12.56583,5.63275 17.74219,6.85351 5.17636,1.22076 9.20063,2.38408 13.45117,6.31445 3.41174,3.15476 7.33472,12.19023 10.82617,21.52344 3.49146,9.33321 6.2429,19.02068 13.71094,24.84375 4.30889,3.35978 8.913,5.12985 13.07227,6.03711 l -0.11719,0.17383 c -17.31055,25.65324 -44.14165,43.88921 -61.91211,56.67969 -2.15305,1.42305 -4.32172,2.81292 -6.49609,4.1875 -1.3693,-1.27586 -2.87546,-2.71494 -4.52344,-4.41993 -4.70467,-4.86742 -9.66605,-11.37521 -10.93946,-15.13281 -1.16088,-3.42562 -0.19697,-8.52246 1.31446,-15.25976 1.51142,-6.73731 3.33732,-15.13706 0.16601,-24.07618 -3.21828,-9.07153 -10.29041,-15.29971 -16.875,-21.13867 -6.58458,-5.83896 -12.87373,-11.33979 -16.06836,-16.90625 -3.39035,-5.90751 -7.24634,-17.09893 -9.95703,-26.46875 -2.07496,-7.17237 -3.28486,-12.17512 -3.87304,-14.66992 1.33066,-1.0072 2.65235,-2.03908 3.96484,-3.09766 7.91093,-5.99633 15.2548,-12.90135 22.22656,-21.07421 z m -37.63086,32.04492 c 0.75742,2.96279 1.67826,6.44704 2.82422,10.4082 2.82647,9.77002 6.5181,21.22258 11.16992,29.32813 4.84756,8.4466 12.31899,14.48703 18.71875,20.16211 6.39977,5.67506 11.53567,10.93299 13.24805,15.75976 1.75936,4.95919 0.86241,10.37446 -0.59766,16.88281 -1.46006,6.50836 -3.71671,14.08784 -0.9414,22.27735 2.6628,7.85753 8.64689,14.55883 13.90234,19.99609 0.81092,0.83898 1.59982,1.62522 2.3711,2.38281 -18.69846,10.91864 -37.50656,19.75715 -53.9043,25.29688 -9.04465,2.60982 -17.93238,5.02714 -26.66602,7.24804 -1.45055,-1.53794 -6.2905,-7.16767 -7.12304,-14.75195 -0.28827,-2.62607 2.27425,-10.80898 5.67578,-19.56836 3.40153,-8.75937 7.40539,-18.45196 6.4082,-28.65429 -0.92961,-9.51092 -5.53244,-16.30461 -9.45898,-21.96485 -3.92654,-5.66024 -7.27275,-10.38245 -8.78125,-17.33203 -1.44025,-6.63509 -1.48287,-22.09741 -0.84571,-35.07226 0.34795,-7.08544 0.79212,-13.04609 1.15821,-17.45899 11.58456,-3.51787 22.49674,-8.49876 32.84179,-14.93945 z m -152.75976,4.59765 c 14.21666,6.37172 29.70784,10.35001 45.63867,12.64649 v 3.82226 c -0.79981,1.4219 -4.2108,7.42594 -8.83008,16.77344 -5.12917,10.37932 -10.77037,22.5978 -12.89453,32.57227 -2.16078,10.14639 -0.58677,19.81236 0.49219,28.17773 1.07895,8.36537 1.52,15.27829 -0.17969,19.81445 -1.7101,4.56394 -5.73493,8.03438 -11.01953,12.16602 -5.28461,4.13164 -12.12762,8.897 -14.79883,17.73047 -2.62975,8.69636 -0.91069,17.8651 0.77734,25.5664 0.59222,2.70187 1.22181,5.06262 1.81836,7.17969 -36.97267,-5.5363 -72.32381,-18.22656 -104.95703,-35.30273 1.61903,-2.77597 3.55394,-6.03287 5.8125,-9.61524 5.4947,-8.71529 12.9493,-18.65193 16.28321,-21.27539 3.64168,-2.86564 6.51554,-2.92157 11.95898,-3.55273 5.44344,-0.63117 13.43183,-2.33607 19.87109,-9.34375 7.37408,-8.02501 8.41224,-18.63638 9.89649,-28.6582 1.48425,-10.02183 3.06721,-19.76206 6.8789,-26.17188 5.39615,-9.07428 15.1904,-19.51587 25.1543,-28.17187 4.94475,-4.29568 6.88328,-9.77839 8.09766,-14.35743 z m 105.60937,13.86914 c -0.29019,3.89947 -0.59092,8.2945 -0.83398,13.24415 -0.65664,13.37149 -1.07696,28.47823 1.14844,38.73046 2.15713,9.93776 7.11895,16.80431 10.95898,22.33985 3.84003,5.53554 6.46189,9.54444 7.0293,15.34961 0.49982,5.11375 -2.18642,13.63136 -5.52344,22.22461 -3.33702,8.59324 -7.56118,16.90419 -6.54492,26.16211 0.76818,6.998 3.49359,12.72138 6.16015,16.83789 -27.04163,6.23178 -52.35092,10.17383 -75.36523,10.76171 -8.77137,0.0316 -17.47479,-0.39199 -26.10352,-1.19726 l 0.65235,-0.23047 c 0,0 -1.88007,-5.32873 -3.34961,-12.0332 -1.46954,-6.70447 -2.01556,-14.89428 -1.07227,-18.01367 0.90184,-2.9823 4.31464,-6.06133 9.67969,-10.25586 5.36505,-4.19453 12.38551,-9.53302 15.82813,-18.72071 3.45299,-9.21545 2.10904,-18.45601 1.00781,-26.99414 -1.10124,-8.53812 -2.10454,-16.52662 -0.69727,-23.13476 1.44389,-6.78007 6.74889,-19.09066 11.67188,-29.05274 4.92298,-9.96207 9.40625,-17.86914 9.40625,-17.86914 l 0.97656,-1.72265 v -5.96485 c 12.50866,1.01653 25.12712,1.14861 37.46875,0.7168 l 0.69726,-0.0234 0.69141,-0.10156 c 2.06066,-0.30428 4.09337,-0.66605 6.11328,-1.05274 z" fill="param(fill)" fill-opacity="param(fill-opacity)" stroke="param(outline)" stroke-opacity="param(outline-opacity)" stroke-width="param(outline-width) 0.2"/>
</svg>