<svg version="1.1" width="512" height="512" viewBox="0 0 512 512" xmlns="http://www.w3.org/2000/svg">
 <path d="m116.46 448.18c-14.911-15.507-7.9718-39.208-5.3421-57.461 4.802-12.168 12.963-21.531 21.776-30.62-16.745-3.0246-31.009 15.597-46.523 21.906-14.476 2.6261-28.597 17.504-38.821 20.577 4.5515-21.491 25.024-35.183 39.186-47.314 9.006-5.8643 42.789-11.838 34.021-21.25-29.32 10.182-61.272 11.67-91.873 6.9042-10.309 0.2003-24.997-6.0016-6.3116-8.8836 24.047-5.5718 50.04-1.1024 72.83-11.46 9.4354-2.277 43.166-5.7349 18.707-8.7299-23.844-4.671-42.378-22.492-57.706-40.212-5.514-12.985-19.454-34.408-6.2557-44.749 8.0896 20.772 21.425 38.004 38.491 52.197 15.271 14.219 38.372 17.964 58.737 18.152 28.813 0.11775-12.98-4.9427-15.926-15.859-31.158-1.9928-63.062-30.501-58.204-63.281 0.55474-20.802 7.9795-43.155 17.992-62.83 13.331-22.988 34.58-41.645 59.478-51.074 15.381-12.52 34.727-18.573 54.458-15.3 10.265-2.27 36.875 13.688 12.064 9.1291-8.8746-2.2342-41.685 1.5824-17.553 2.8866 10.887-1.1899 33.206 8.7952 10.963 13.936-20.642 9.2595-48.336 14.247-57.85 37.493 0.37673 23.239-24.919 35.463-36.778 53.098-1.7231 6.7155 26.418 2.3049 23.17 19.843 19.157 12.012 24.179-23.135 44.457-22.064 6.1332-6.7273 18.369-8.964 25.872-9.6879 3.472-16.732 27.558 10.533 13.487-8.4595-7.8754-7.5424-17.978-30.232-2.7412-10.041 7.3017 6.1577 11.356-4.6473 21.964 5.8443 12.429 12.467 33.301-11.388 41.325 0.84202-7.5702-1.4877-18.689 9.7813-6.9989 7.6466 6.2191-6.34 31.366-28.914 14.087-8.2418-15.069 11.412-2.9613 24.028 5.8696 9.1855 5.0838 7.316 21.476 2.1575 25.81 12.252 13.724-6.9105 29.372 19.934 26.218 17.971 8.5741 2.4158 17.77 10.434 28.524 3.0858-6.003-12.115 24.768-27.714 9.9882-31.501-19.456-4.2347-34.418-18.05-44.171-34.872-15.584-21.644-41.215-31.393-65.272-40.219-15.567-4.5092-27.267-35.404-1.2121-24.228 11.876 0.05752 40.261 17.955 42.997 10.074-16.009-20.073-45.262-18.316-67.589-26.921-16.926-13.935 27.393-11.136 37.134-9.6117 24.377 2.4874 47.559 12.496 67.093 27.013 32.922 10.366 54.374 40.232 72.767 67.754 9.603 17.116 23.375 34.672 22.56 55.115-5.2618 22.335-16.215 44.815-37.653 55.508-10.619 9.0105-25.928 2.3747-36.131 10.064-8.4711 13.306-35.986 12.204-39.235 15.159 26.182 3.6327 52.887-1.2027 77.313-10.396 11.002-17.064 32.759-25.45 37.322-45.877 5.0756-6.6546 8.9724-28.645 11.642-7.7912 4.7766 21.947-10.152 42.121-26.262 55.664-14.005 13.571-32.15 22.151-50.626 25.849 17.655 6.2672 43.9 12.882 65.777 13.386 13.276 3.3738 38.457 0.77229 43.294 11.063-25.89 6.1301-52.676 6.4579-78.881 2.1747-8.634 3.2225-36.116-14.017-28.243 1.1684 23.334 4.8829 41.651 20.805 59.74 35.153 7.2128 6.6591 23.393 40.218 4.3456 22.331-16.653-12.311-35.609-22.257-53.587-32.432-5.9795-11.377-43.565-13.116-18.412-0.11997 16.2 14.124 20.113 38.274 21.309 58.734 1.9488 9.3603-4.2645 15.968-9.9604 22.527-10.622 0.76077-0.48289-28.34-7.5004-35.832-19.027-10.199-16.822-44.167-42.038-43.721-17.868-11.369-44.001-2.178-57.158-21.621-19.028-7.3266-40.675-1.4543-60.649-3.4467-5.8544 7.9414-13.66 17.603-24.585 16.366-19.914 3.3955-43.74 8.1277-57.052 23.534-2.6872 13.52-14.838 24.694-20.386 34.513 0.36592 9.9017-1.1298 28.806-4.6016 32.38l-2.685-2.3718zm245.19-131.34c18.242-4.4984-22.713-2.7006-30.624-2.6184-3.872-8.7262-23.594 0.0569-12.33 0.9177 13.995 3.972 28.483 4.3827 42.954 1.7007zm-176.04 0.14245c-8.4579-9.3802-36.024 0.51424-51.239-1.6643 15.764 2.19 34.654 4.2389 51.239 1.6643zm56.133-129.86c-6.6406-5.9026-24.672-8.0284-9.5088 2.7723 3.2877 6.4352 5.5344-1.7984 9.5088-2.7723z" fill="param(fill)" fill-opacity="param(fill-opacity)" stroke="param(outline)" stroke-opacity="param(outline-opacity)" stroke-width="param(outline-width) 0.2"/>
</svg>
