<?xml version="1.0" encoding="UTF-8"?>
<svg version="1.1" width="512" height="512" viewBox="0 0 512 512" xmlns="http://www.w3.org/2000/svg">
  <path d="m353.18 435c-1.181-17.199 12.059-36.712 22.474-44.868-26.776-10.348 1.6399-31.198 12.156-37.481-19.451-5.884-42.782 12.54-59.014-4.7886-13.35-15.374-28.37-2.9726-45.333-3.0098-19.766 3.9398-40.6-0.93566-58.288 0.67984-16.838 8.8518-33.475 18.627-54.173 14.594-11.302-5.6952-22.721-5.1923-8.5395 6.8028 3.8871 20.735 27.553 19.925 37.747 36.715 7.0538 18.926-26.781 19.314-38.724 13.531-18.657-4.1256-34.133-27.75-25.976-45.235 13.225-4.9424-6.0087-29.49 13.943-32.044 9.8509-4.5954 17.94-3.655 1.6407-5.1569-16.187 2.0697-42.761-8.7193-52.483 2.4298-3.1975 20.326-10.8 39.588-17.478 58.909 7.6769 14.82 28.002 26.589 37.249 34.838-18.959-5.4348-36.023-17.945-47.422-33.716-5.6141-10.082 2.7027-26.024 3.8015-37.596 6.31-9.6817-2.5326-23.537 6.8828-31.395 8.5329-5.8447 23.33-22.179 3.4013-17.305-17.985 14.106-35.898 28.923-55.895 39.974-10.339 11.76-1.5683 42.373-8.4208 46.121-5.4994-19.166-1.1466-39.041 3.0037-57.805 13.371-16.656 29.35-32.068 49.108-40.224 17.084 1.4868 24.536-12.28 43.795-8.0953 22.725-0.18696 45.496 0.54677 67.952 3.8573 9.9435-9.4016-15.3-21.561-26.146-22.979-23.728-2.6916-45.297-15.33-64.704-27.563-20.953-3.1804-27.221-25.679-36.15-40.7-12.725-16.674-12.73-37.994-5.3752-56.639 2.7077-13.049 8.7628-34.686 18.866-38.764-7.9993 15.857-9.304 33.946-12.722 51.154 11.939 11.911 14.575 30.235 22.922 44.683 6.2423 18.95 22.15 29.657 39.858 35.082 9.2396 2.6374 30.441 15.771 27.416 1.3842 17.761 4.6282-14.874-9.2196-16.986-16.135-11.019-13.811-23.921-28.38-28.456-45.641 6.5194-19.619 26.377-26.543 41.557-38.776 12.912-14.371 33.06-16.818 46.892-21.269 19.109-12.339 45.3-12.288 65.803-3.5895 18.497 17.447-22.169-3.1713-31.258 5.4864-17.307 2.6868-33.123 21.688-6.6786 14.035 14.295 0.16643 29.14 2.6992 42.856 7.6338-15.589 6.9269-32.98 10.258-49.672 14.21-23.106 6.4561-43.991 19.347-64.794 31.008-6.5014 5.6162 9.6216 11.098 6.6568 19.006 10.156 4.4217 11.806 7.9499 12.321-5.3237 3.0669-17.79 11.095 10.537 13.085-8.4043 3.9821-17.522 18.622-8.2001 27.437-23.202 7.7291 23.187 23.603-12.764 32.874 0.11038 10.297-0.18446 17.796-9.331 20.843-15.048-2.1084 21.109 8.3071 2.4438 10.402-1.3554-1.4906 13.192 10.637 17.325 15.876 7.5582-0.1859 10.487 11.56-9.2858 12.172 5.469 11.384 12.89 24.344-6.4011 36.199 7.9912 14.73-5.6704 8.5814 23.617 23.597 15.136 3.9015 10.815 22.982-0.0371 12.91-7.8658 27.796-5.5394-8.2521-22.858-19.282-28.386-26.05-15.5-55.661-23.898-85.836-25.643-8.1391-5.5303 20.622-8.189 27.155-10.731 9.4053-0.36959 35.83-0.11264 12.609-7.7171-10.49-3.0496-20.917-9.2066-32.011-5.3436-11.2 3.755-21.539-0.0509-5.5514-5.9909 24.98-12.242 51.736 1.9082 76.362 7.8883 12.285 1.4406 20.295 14.58 32.602 14.157 15.902 1.2173 33.064-1.6237 47.651 5.6821 13.379 14.671 5.0957 39.423 16.842 52.246-1.2482 14.793 1.9795 33.633-14.071 41.574-1.4287 17.522-27.605 25.446-42.773 34.045-11.32 1.5564-18.247 7.225-22.005 18.023-8.5356 9.3076-10.544 14.626 2.9564 8.4977 23.973-7.5223 48.132-15.637 73.179-18.55 10.144 8.1371 30.896 2.1992 35.858 20.691 8.9608 8.3934 17.096 19.694 20.177 31.285-3.1374 18.673-16.528 32.17-27.145 47.016 7.8896 16.702 8.2114 40.505-8.8604 53.319-6.2156 7.9022-29.163 25.441-14.022 5.1338 14.999-15.427 24.475-35.43 4.2115-50.713-11.117-14.152-6.3916-38.403-31.144-33.921-21.761-5.5122-45.12-2.2163-66.396-8.5434-8.5201 7.0764-32.183-21.08-19.97 1.9554 5.182 17.834 31.55-3.257 46.449 3.9969 23.307-2.5149 22.584 21.463 18.265 36.995 8.6253 19.522 5.7764 42.558-10.43 58.092-6.9884 8.0447-24.491 11.455-33.831 8.5174zm125.82-96.826c21.263-21.685-15.398-33.45-23.958-51.376-5.8724-21.265-22.205-2.656-37.01-3.6404-23.726 4.9186-45.531 18.801-70.376 17.439-24.922 4.2012 6.2671 16.04 14.886 4.8425 18.927-6.4074 37.647 3.9573 56.471 5.8141 20.588 5.1463 39.525 18.261 41.857 40.819 7.7297 17.815 11.849-8.7663 18.13-13.898zm-282.77 3.9653c11.184 3.4388 13.294-24.219-0.32145-11.47-6.7783 2.8356-35.391 5.6617-13.054 8.5642 4.093-1.1 10.325 6.2393 13.376 2.9056zm-28.406-6.2413c-6.9834-1.1132-0.087 1.9417 0 0zm46.435-10.078c12.288-8.0695-16.324 6.2705 0 0zm-24.58-9.3785c8.0225-6.2217 15.65-12.457 0.52094-6.1306-16.699-1.2509-16.081 8.2664-0.52094 6.1306zm192.59-84.728c12.464-13.38 46.682-11.781 38.955-35.884 1.7666-12.964-8.3877-27.188-14.192-8.4657-6.1535 17.372-29.058 29.463-30.842 45.804 1.9255-0.0735 4.789 0.5034 6.0787-1.4541zm30.058-92.785c-5.7875-8.6644-26.127-7.1422-8.6454 1.9228 9.0938 7.7159 10.736 16.657 8.6454-1.9228z" fill="param(fill)" fill-opacity="param(fill-opacity)" stroke="param(outline)" stroke-opacity="param(outline-opacity)" stroke-width="param(outline-width) 0.2"/>
</svg>
