<?xml version="1.0" encoding="UTF-8"?>
<svg version="1.1" width="512" height="512" viewBox="0 0 512 512" xmlns="http://www.w3.org/2000/svg">
  <path d="m379.25 496.3c1.7298-0.69801 1.484-3.755-1.1897-14.791-1.3094-5.4047-2.3813-10.323-2.3819-10.93-9.6e-4 -1.0465 11.366-5.4729 12.12-4.7194 0.19632 0.19633 0.60884 3.5162 0.91671 7.3774 0.30786 3.8612 0.9828 7.5564 1.4998 8.2114 1.2317 1.5604 3.7135 1.5128 5.938-0.11374 1.7258-1.2619 1.6927-1.55-1.0089-8.7846-1.5362-4.1139-2.923-7.7752-3.0818-8.1363-0.15877-0.36103 2.3066-1.9752 5.4785-3.5871 4.9846-2.533 5.7678-2.7064 5.7724-1.2778 0.0121 3.7522 2.0461 8.7166 3.7995 9.2731 2.4163 0.76691 5.7349-1.0613 5.678-3.128-0.0247-0.89861-1.237-3.9361-2.694-6.7501l-2.6491-5.1162 2.4558-4.6319c1.979-3.7326 2.8258-4.5257 4.3614-4.0847 1.048 0.30098 2.4938 1.3648 3.2127 2.3641 1.4835 2.062 5.8078 2.4179 7.6044 0.62592 0.86515-0.86293 5.8383-1.191 18.055-1.191 15.455 0 17.182-0.17162 20.703-2.0574 5.1826-2.7752 6.6385-5.8568 6.6385-14.051 0-8.9746-2.1487-12.846-8.2669-14.895l-4.3821-1.4673 1.3847-2.6428c1.9383-3.6994 0.91144-7.1425-3.7878-12.701-6.8805-8.1383-9.9222-10.03-15.437-9.5986-2.6201 0.20483-5.4847 0.70015-6.3656 1.1007-1.4304 0.6504-1.4924 0.37207-0.57958-2.6022 0.85562-2.7879 0.72301-3.8427-0.81392-6.4743-2.9653-5.0773-7.2818-7.0223-15.584-7.0223-5.6683 0-7.8846 0.4366-10.719 2.1116-2.8992 1.7134-3.5729 1.8393-3.5729 0.66727 0-3.1183-2.9321-6.9697-6.2078-8.1542-2.7726-1.0026-7.131-5.9031-7.131-8.018 0-0.23206 2.3271-0.42193 5.1713-0.42193 13.288 0 31.072-4.2429 43.897-10.473 12.142-5.8983 22.144-13.078 32.507-23.336 12.059-11.937 14.047-16.174 14.087-30.027 0.0217-7.4824-0.36282-9.9251-2.2181-14.091-1.2344-2.7721-3.027-5.459-3.9836-5.971-2.2603-1.2097-3.4845 0.65434-8.4594 12.881-2.0996 5.1601-4.8801 11.195-6.179 13.412-5.2671 8.9876-16.211 15.991-37.146 23.77-15.047 5.5915-29.176 8.7234-29.067 6.4431 0.0188-0.39302 13.632-10.393 30.251-22.222 29.173-20.765 35.014-25.78 34.267-29.418-0.44319-2.1574-10.132-1.6898-17.868 0.86239-8.8604 2.9229-30.345 13.82-40.695 20.641-4.8658 3.2066-8.8469 5.6721-8.8469 5.4789 0-0.19322 0.69075-4.3174 1.535-9.1649 3.3737-19.371 0.16428-29.73-11.777-38.014-2.2271-1.5449-4.0493-3.3513-4.0493-4.0141 0-1.5394-4.2589-5.4516-8.6449-7.9413-8.5486-4.8524-14.186-6.1469-32.642-7.4957-17.649-1.2898-17.996-1.3573-21.113-4.0938-1.7429-1.5303-4.4804-3.5571-6.0832-4.5039-2.3834-1.4079-3.012-2.5118-3.4509-6.0596-1.7975-14.53-10.421-32.512-21.034-43.857-4.1601-4.4475-4.2121-4.5791-2.0243-5.1282 4.0781-1.0235 7.3371-4.9254 7.3371-8.7845 0-2.9441 1.0553-4.7553 6.624-11.368 8.6688-10.294 13.49-17.268 23.443-33.906 9.0965-15.207 16.99-31.02 20.808-41.683 3.7227-10.398 13.735-51.14 12.798-52.077-0.20779-0.20779-2.472 7.8545-5.0317 17.916-8.1537 32.051-12.964 43.537-30.772 73.47-10.754 18.076-14.593 23.956-22.803 34.925l-6.1095 8.1625-4.8188-0.98712c-4.7948-0.98221-4.8342-0.97029-7.9211 2.3982-1.7063 1.8619-3.3057 3.9924-3.5543 4.7344-0.3811 1.1376-1.186 1.087-5.1342-0.32296-6.4022-2.2863-11.372-2.0782-17.401 0.72861-2.8032 1.305-5.2685 2.3726-5.4785 2.3726s-0.38178-1.2174-0.38178-2.7054c0-1.9745-0.65564-3.0041-2.4268-3.8111-2.9661-1.3514-7.5727-1.4302-9.9277-0.16986-1.4736 0.78865-2.564-0.0731-6.9326-5.4785-11.734-14.519-20.478-27.843-34.832-53.078-13.731-24.14-15.806-29.504-24.518-63.382-3.3015-12.839-6.0382-22.789-6.0814-22.112-0.12137 1.8988 7.1866 34.284 9.9794 44.223 4.752 16.912 10.509 30.018 21.676 49.347 10.238 17.721 19.186 30.709 28.904 41.956l9.4967 10.991-1.7152 2.8244c-0.94338 1.5534-1.7175 3.5059-1.7203 4.3388-6e-3 1.7545 3.7961 3.7258 7.1856 3.7258 2.7165 0 2.8877 0.6955 0.87763 3.5653-2.4439 3.4892-5.236 16.357-5.8421 26.924-0.50035 8.7231 0.60338 23.598 2.1302 28.709 0.36687 1.2281-0.48971 1.698-4.0751 2.2357-8.0946 1.2139-19.189 7.0936-29.817 15.802l-4.2875 3.5131-14.292 0.56954c-44.566 1.776-68.834 9.6538-106.71 34.64-26.22 17.297-41.228 30.304-47.987 41.591-5.8743 9.8094-11.833 31.101-8.7047 31.101 0.65831 0 4.6795-2.9237 8.9359-6.4972 14.008-11.761 35.492-26.158 49.661-33.279 20.12-10.113 49.368-16.577 55.317-12.227 1.8097 1.3233 1.7982 1.4076-0.53248 3.9201-4.0479 4.3636-21.921 18.402-31.553 24.784-10.317 6.8358-35.971 20.219-54.905 28.643-6.9394 3.0874-12.62 5.9548-12.624 6.3719-0.0038 0.41714 2.2438 1.8064 4.9949 3.0872 4.5585 2.1223 6.185 2.3282 18.341 2.3216 7.9376-5e-3 15.956-0.56182 19.802-1.3768 16.499-3.4961 41.225-20.707 78.71-54.789l11.81-10.737 6.1091 0.62589c7.1897 0.73661 15.996-0.66511 22.122-3.521 4.7204-2.2008 19.48-15.999 29.612-27.683l6.1931-7.1416 0.60753 14.928c0.33413 8.2103 1.0175 16.655 1.5185 18.766 0.77154 3.2502 0.60562 4.314-1.0839 6.9496-1.0972 1.7116-3.0257 3.629-4.2856 4.261-2.5261 1.2671-11.993 14.062-20.423 27.601-3.7492 6.0219-6.3518 11.705-8.3788 18.296-6.3732 20.723-18.483 49.565-24.905 59.316-6.8995 10.476-7.0171 10.809-4.5258 12.827 4.4975 3.6418 5.971 2.0757 9.1207-9.6934 1.4476-5.4093 4.4832-12.79 7.9702-19.379 3.0976-5.8532 7.8568-17.073 10.576-24.934 7.8603-22.723 23.813-50.021 29.232-50.021 0.68324 0 2.0998-0.8575 3.1478-1.9056 1.4024-1.4024 1.9056-1.5452 1.9056-0.5406 0 0.75073-0.88737 1.6466-1.9719 1.9908-2.538 0.80554-7.1753 8.1052-15.724 24.751-4.1728 8.1255-7.302 15.573-8.0064 19.056-5.3712 26.556-13.371 53.237-20.227 67.466-5.3306 11.062-5.4212 13.221-0.57904 13.807 3.427 0.41453 4.3011-1.218 5.8697-10.963 0.84558-5.2531 3.3217-13.807 6.2271-21.513 2.6528-7.0358 6.3408-19.178 8.1955-26.983 1.8547-7.8049 4.2971-16.549 5.4275-19.431 4.3288-11.036 16.025-33.044 16.025-30.152 0 0.32655-1.492 4.198-3.3155 8.6032-7.8057 18.857-9.9755 26.18-10.998 37.119-2.1872 23.405-7.7593 51.176-13.076 65.17-3.7766 9.9405-3.4033 12.023 2.0597 11.49l2.9395-0.28685 0.7313-7.6222c1.1373-11.854 2.116-17.244 5.2763-29.06 1.6119-6.0263 3.4061-15.244 3.9872-20.485s1.4841-12.1 2.0067-15.244c2.0004-12.035 13.044-41.967 14.826-40.184 0.20271 0.20271-1.8392 7.8264-4.5377 16.942l-4.9063 16.573-0.74824 23.343c-0.96914 30.234-2.4026 44.801-5.6381 57.293-2.7346 10.558-2.5575 13.213 0.88139 13.213 4.5988 0 4.7945-0.5089 4.7945-12.467 0-6.4582 0.78478-16.327 1.8292-23.003 1.0061-6.4307 2.1073-19.41 2.4471-28.842 0.64048-17.779 2.0639-26.675 6.7462-42.158 1.6129-5.3335 3.2973-8.8004 5.2429-10.791 1.5766-1.6129 3.1174-4.1864 3.4239-5.7189 0.4466-2.233 1.0553-2.7864 3.0646-2.7864 1.379 0 3.9919-0.42577 5.8064-0.94616 3.1203-0.89489 3.5224-0.72706 7.419 3.0965 2.266 2.2235 4.2892 4.9002 4.4961 5.9482 3.062 15.508 6.393 24.076 10.375 26.685 1.8003 1.1796 2.3432 2.5599 2.7436 6.9748 0.74485 8.2144 3.936 14.679 9.9677 20.191 2.8553 2.6096 5.6929 4.7483 6.3057 4.7527 0.6128 5e-3 4.8157 3.7882 9.3399 8.4086 4.5241 4.6204 10.741 10.048 13.815 12.062 3.0743 2.0139 7.4248 5.3252 9.6678 7.3585 8.2367 7.4665 21.722 10.872 39.507 9.9781l11.199-0.5631 0.063 3.0495c0.0346 1.6772 9e-3 6.8324-0.0589 11.456-0.14782 10.201 1.299 12.564 6.4272 10.494zm-15.768-122.58c-1.6164-4.47-1.3749-5.2875 0.79307-2.6851 1.8697 2.2443 2.5553 5.8493 1.1125 5.8493-0.41876 0-1.2763-1.4239-1.9056-3.1642zm5.9492-7.8199c-2.5571-5.7821-2.7502-6.5384-1.467-5.7453 1.6087 0.99423 5.9064 9.1283 5.3223 10.073-0.99603 1.6116-1.4577 1.0933-3.8553-4.328zm8.7631-1.0436c-1.8849-3.9527-1.6101-4.6266 1.5622-3.8304 2.8369 0.71201 5.2101 5.2896 3.353 6.4676-2.2277 1.413-3.2438 0.86782-4.9152-2.6372zm-34.182-50.617c-0.77425-4.0612-3.4523-15.227-5.9512-24.813-2.4989-9.5858-4.3183-17.654-4.0431-17.929 0.55475-0.55476 19.754 5.2333 21.016 6.3355 0.43712 0.38201-0.52757 6.0083-2.1438 12.503-2.974 11.951-3.5542 19.577-2.0722 27.238l0.78334 4.0493h-6.1811zm13.486-286.63c-0.0457-1.1099-0.27149-1.3357-0.57563-0.57564-0.27523 0.68779-0.24139 1.5096 0.0752 1.8262 0.31661 0.3166 0.54179-0.24614 0.50042-1.2505z" fill="param(fill)" fill-opacity="param(fill-opacity)" stroke="param(outline)" stroke-opacity="param(outline-opacity)" stroke-width="param(outline-width) 0.2"/>
</svg>
