<svg version="1.1" width="512" height="512" viewBox="0 0 512 512" xmlns="http://www.w3.org/2000/svg">
 <path d="m486.11 477.38c-30.899-22.545-69.814-12.773-105.04-13.56-19.571-5.4197-41.058 4.1484-55.937 9.9823 2.4519-33.611 30.344-61.874 60.858-73.392 18.139 0.39189 1.7253-17.365-0.22799-26.358-15.868-32.83-34.086-65.502-59.187-92.138-27.086-16.174-55.99-29.463-83.635-44.807-36.566-17.885-73.255-35.635-108.49-56.055 14.485 14.263-3.765 23.037-7.3655 37.798-4.695 14.905 1.7638 49.519-19.893 25.703-26.596-18.576-30.622-56.222-16.969-83.84-23.08-17.293-54.315-11.057-80.479-19.467-13.101-10.015 0.96051-23.889 11.035-29.72-0.82086-15.259-0.082051-32.326 13.6-42.166 33.637-25.382 78.846-24.645 119.04-21.731 40.894 3.1977 80.201 16.623 116.46 35.384 16.754-2.1939 34.395-6.2959 50.871-1.5882 11.959 6.5597 17.865 18.501 4.5656 26.951-2.5711 25.825 24.95 41.633 35.815 62.594 42.059 63.016 58.091 139.06 64.086 213.54 7.1375 24.604 41.229 26.047 54.483 47.548 12.858 10.242 25.584 46.204 15.407 50.764-3.0082-1.7965-6.004-3.6136-8.9942-5.4403z" fill="param(fill)" fill-opacity="param(fill-opacity)" stroke="param(outline)" stroke-opacity="param(outline-opacity)" stroke-width="param(outline-width) 0.2"/>
</svg>
