<?xml version="1.0" encoding="UTF-8"?>
<svg version="1.1" width="512" height="512" viewBox="0 0 512 512" xmlns="http://www.w3.org/2000/svg">
  <path d="m243.23 371.19c-31.881-14.03-58.467-41.783-65.914-76.438-21.218-9.73-23.398 30.403-30.816 43.663 0.76027 28.226-26.792 7.2777-24.509-11.446-8.1751-23.579 16.036-60.407-14.768-69.941-23.22-18.386-50.102-28.563-78.282-36.637-26.026-3.8972-14.85-32.568 1.913-28.453 14.365-0.86186 27.322 1.711 48.166-15.013 40.041-21.127 87.394-14.234 128.49-0.10146 21.71 5.8138 44.687 3.6622 66.429 9.6302 19.877-13.919 38.49-32.675 63.018-37.131 25.264 3.9373-16.946 28.473-12.726 44.505-7.2994 20.726 20.702 23.628 30.463 36.816 27.034 25.342 67.791 30.709 91.606 59.955 12.704 11.512 49.814 24.894 50.077 32.595-24.946-3.5115-47.285-24.867-73.052-17.752-38.056 2.319-75.253 10.544-112.62 17.551-29.059 3.8998-58.436-4.4204-85.037-13.516-8.7861 28.262 23.735 41.959 25.918 64.643l-2.8492-0.73705-5.5083-2.1937zm57.847-49.051c-29.254-0.82153-1.0306 1.0802 0 0zm-24.426-0.82641c-3.5179-1.0837-1.7554 1.6642 0 0zm36.809-0.0555c-5.2621-1.551-0.955 1.6725 0 0zm-41.587-0.90002c-3.5179-1.0837-1.7554 1.6642 0 0zm47.32-0.0555c-5.2621-1.5509-0.955 1.6724 0 0zm5.2356-0.90003c-3.5179-1.0837-1.7554 1.6642 0 0zm-23.391-1.0779c-10.836-0.86756-10.67 1.0642 0 0zm28.169 0.12234c-3.5179-1.0837-1.7554 1.6642 0 0zm-45.369-1.0111c-5.2621-1.5509-0.95501 1.6724 0 0zm-7.1866-0.90003c-3.5179-1.0837-1.7554 1.6642 0 0zm61.156 0c-3.5179-1.0837-1.7554 1.6642 0 0zm-66.889-0.95559c-3.5179-1.0837-1.7554 1.6642 0 0zm46.247-2.0505c3.1964-4.5621-5.8143 5.6302 0 0zm-55.803 0.13935c-3.5179-1.0837-1.7554 1.6642 0 0zm-8.6-1.9111c-3.5179-1.0837-1.7554 1.6642 0 0zm99.875-1.9666c-5.2621-1.5509-0.95501 1.6724 0 0zm-112.3-0.90003c-3.5179-1.0837-1.7554 1.6642 0 0zm136.19-0.0555c-5.2621-1.5509-0.95501 1.6724 0 0zm6.6889-0.95555c-5.2621-1.5509-0.95501 1.6724 0 0zm-155.04-1.7498c-6.4994-3.2287-5.3396 2.32 0 0zm119.15-3.1118c-1.537 1.421 1.4871 7.4012 0 0zm44.014 3.8802c-7.4012-1.4871-1.421 1.537 0 0zm-63.245-3.4024c8.7181-9.3483-10.299 9.6283 0 0zm74.234 2.4312c-9.5331-1.4371-1.8647 1.4636 0 0zm14.811-0.93989c-7.4012-1.4871-1.421 1.537 0 0zm7.6245-0.87418c-3.5179-1.0837-1.7554 1.6642 0 0zm11.403-6.3505c-1.6724 0.955 1.5509 5.2621 0 0zm-100.84-0.47781c3.1964-4.5621-5.8142 5.6302 0 0zm51.219 1.0949c-3.5179-1.0837-1.7554 1.6641 0 0zm-44.149-5.927c-4.1564 1.135-1.8472 2.7043 0 0zm62.305 1.1492c-3.5179-1.0837-1.7554 1.6642 0 0zm4.7778-0.95555c-3.5179-1.0837-1.7554 1.6642 0 0zm14.353-1.0743c-9.5851-0.8886-9.3884 1.0916 0 0zm-387.96-96.474c-7.4012-1.4871-1.421 1.537 0 0z" fill="param(fill)" fill-opacity="param(fill-opacity)" stroke="param(outline)" stroke-opacity="param(outline-opacity)" stroke-width="param(outline-width) 0.2"/>
</svg>
