<?xml version="1.0" encoding="UTF-8"?>
<svg version="1.1" width="512" height="512" viewBox="0 0 512 512" xmlns="http://www.w3.org/2000/svg">
  <path d="m484.27 329.88c-15.356-1.8035-29.422-9.2124-42.452-16.58-48.175-0.0836-96.06-8.2247-144.28-4.9871-39.372 2.1886-78.783 3.565-118.21 4.0938 6.5258 6.6176 29.824 16.464 8.4568 14.589-20.28 0.62143-33.652-19.333-53.604-19.156-31.401-3.9021-62.131-13.375-94.037-12.426-8.8476 1.8684-29.464-3.1334-12.633-10.865 18.159-6.0771 27.879-23.16 43.852-32.371 35.949-19.713 77.339-28.267 118.18-27.013 8.5658-0.64132 17.839 1.7835 25.316-3.5785 17.304-9.6842 28.781-27.626 47.48-35.471 9.2044-6.958 16.044-0.98656 6.6587 7.4658-9.7951 11.883-11.038 33.729 5.2732 40.614 29.779 8.9118 60.931 13.394 90.035 24.794 27.369 9.8409 52.634 24.437 77.672 39.028 6.1249-4.409 18.659-18.962 15.554-4.0781 9.894 15.017 23.451 30.181 41.781 35.04-2.0938 2.2655-10.929 1.3108-15.044 0.90113z" fill="param(fill)" fill-opacity="param(fill-opacity)" stroke="param(outline)" stroke-opacity="param(outline-opacity)" stroke-width="param(outline-width) 0.2"/>
</svg>
