<?xml version="1.0" encoding="UTF-8"?>
<svg version="1.1"  width="512" height="512" viewBox="0 0 512 512" xmlns="http://www.w3.org/2000/svg">
  <path d="m488.25 389.59c-11.222-20.711-30.369-35.296-44.173-54.055-7.4112-47.098-38.028-86.789-70.643-120-15.383-16.933-35.367-28.832-51.272-45.018-1.3958-22.28 10.11-43.432 11.442-65.688-12.309-8.5539-33.19 18.635-41.894 30.092-10.14 13.567-18.981 32.456-38.515 32.881-44.812 8.6395-88.022 27.115-122.89 56.959-19.063 15.455-42.437 25.399-57.665 45.408-16.15 14.591-19.761 35.697-23.651 55.317-9.3039 14.244-33.633 30.083-22.257 48.831 19.18 10.823 41.551-3.6308 60.578-9.424 22.493-10.193 46.975-14.748 71.631-13.469 16.119 0.62531 32.7-2.2513 48.112 3.7455 36.145 11.231 75.415 11.2 112.13 2.8121 7.0141-0.96481 32.017-13.139 25.445-16.486-28.642-2.4952-58.09 0.13857-85.922-8.3054 23.644-11.066 50.494-13.946 73.349-27.095 19.389-4.2004 40.397 2.2448 58.654 9.0629 14.821 6.0764 28.213 15.318 15.347 31.059 8.457 18.483 37.369 4.0468 48.564 21.875 11.572 7.9597 33.947 30.759 38.261 29.392-1.4968-2.6587-3.0515-5.2841-4.6291-7.8955z" fill="param(fill)" fill-opacity="param(fill-opacity)" stroke="param(outline)" stroke-opacity="param(outline-opacity)" stroke-width="param(outline-width) 0.2"/>
</svg>
