<?xml version="1.0" encoding="UTF-8"?>
<svg version="1.1" width="512" height="512" viewBox="0 0 512 512" xmlns="http://www.w3.org/2000/svg">
  <path d="m472.1 429.39c5.9873-16.807-15.317-39.868 3.4585-52.199-7.4253-17.075 45.473-23.489 13.462-26.34-20.231 0.32853-40.28 10.659-60.456 5.5225-30.619-24.833-52.696-57.978-70.779-92.62-24.124-48.745-74.417-75.496-122.15-96.283-11.323-1.4399-10.68-12.29-10.3-21.512-0.57375-9.1176 9.1225-15.063 12.252-23.167 0.4242-19.237-34.221 1.3956-39.889 13.215-12.307 6.3045-2.6045 31.61-18.784 26.007-45.191-2.9501-92.729 12.623-122.35 48.004-14.115 17.912-26.846 38.705-26.982 62.262-6.8009 11.082-34.044 40.776-3.9804 39.754 21.031-4.2058 38.089-29.306 61.203-18.001 9.8293 4.7081 50.878 16.056 35.099-5.5863-16.649-8.7568 10.198-7.5144 16.409-10.262 19.979 12.755 42.398 27.507 67.614 24.163 13.747-2.4775-15.849-10.869-18.598-19.673-7.9835-6.5066-14.601-9.1781-0.67969-7.7267 37.996 1.7219 73.174 17.737 107.73 31.989 35.077 29.46 71.802 62.155 118.72 69.604 16.525 7.2324 23.007 29.977 38.952 40.495 5.661 4.0782 12.384 14.462 20.046 12.353zm-361.88-145.52c4.7413-1.6413 0.68662 1.9776 0 0z" fill="param(fill)" fill-opacity="param(fill-opacity)" stroke="param(outline)" stroke-opacity="param(outline-opacity)" stroke-width="param(outline-width) 0.2"/>
</svg>
