<?xml version="1.0" encoding="UTF-8"?>
<svg version="1.1" width="512" height="512" viewBox="0 0 512 512" xmlns="http://www.w3.org/2000/svg">
  <path d="m293.89 495.95c-5.4455-4.7904-32.362-23.912-18.392-31.546 16.522 1.6295 32.419-8.7188 48.279 0.34265 12.093 2.7999 29.68 13.968 37.869 13.216-12.939-16.595-17.725-37.724-6.9974-56.711 10.283-26.146 17.989-53.987 33.412-77.65 7.8104 8.289 22.813 35.88 37.842 30.501-10.797-20.075-22.156-42.03-21.883-65.347 4.8967-28.041 15.162-54.755 23.05-82.017-17.343-1.4581-21.805 26.751-30.107 39.396-2.7219 7.848-14.437 37.785-22.882 20.768-21.341-49.083-42.874-98.684-54.877-151.02-7.0153-31.989 12.053-63.179 32.987-85.778 8.2392-13.555 34.273-20.464 37.978-31.208-27.17 11.215-48.725 32.801-70.27 52.269-54.267 52.076-110.64 106.27-139.91 177.04-0.21566 23.278-35.451 26.78-26.341 51.836 5.513 8.2357 10.575 14.98 6.3021 25.09-1.4164 16.455-4.6347 34.429-23.254 39.222-9.2915 7.2595-42.709 10.231-20.388 22.819-2.8364 16.26 23.298 1.379 32.67 10.524 19.225 5.1306 40.999 7.261 54.105 24.491 25.893 29.084 50.447 64.572 90.81 73.764z" fill="param(fill)" fill-opacity="param(fill-opacity)" stroke="param(outline)" stroke-opacity="param(outline-opacity)" stroke-width="param(outline-width) 0.2"/>
</svg>
