<?xml version="1.0" encoding="UTF-8"?>
<svg version="1.1" width="512" height="512" viewBox="0 0 512 512" xmlns="http://www.w3.org/2000/svg">
  <path d="m367.62 332.01c-17.198-8.692-32.759-22.931-53.119-13.357-39.924 6.1218-81.02 3.4842-120.13-6.4464-19.214-4.7214-38.49-9.5458-57.145-16.15 8.531-2.9108 23.931-0.12033 29.035-4.5145-27.741-7.2695-56.848-3.264-85.197-4.5144-22.197-0.64202-44.753 1.2997-66.668-2.6111 4.6458-2.4527 28.885 1.1646 40.768-0.11288 32.393-0.58495 66.085-1.8069 95.599-16.716 20.702-5.5884 39.874-15.12 59.332-23.956 9.5195-18.197 15.51-41.064 36.638-49.174 2.0698 4.6444-19.406 17.164-13.577 29.936-2.42 25.201 29.05 12.837 43.386 20.856 45.968 9.0167 92.802 12.742 138.83 21.45 5.8631-5.4831 25.074-8.7502 10.195 0.62318 15.472 5.8838 34.051 9.3101 40.97-10.037 7.513-9.9104 21.86-28.947 32.366-27.356-11.494 15.694-22.097 33.532-25.04 52.985 3.8049 17.139 14.26 32.362 23.662 46.98-9.5851 0.12556-24.624-14.662-32.258-24.061-6.4897-6.9433-11.783-19.043-22.908-14.207-9.92 2.3286-29.332-0.62889-22.343 11.011-7.4044 0.5672-13.697-7.7957-21.399-3.4385-15.722-1.7583-24.892 19.989-10.657 29.662 15.628 9.7174-18.522 6.3548-20.34 3.1489z" fill="param(fill)" fill-opacity="param(fill-opacity)" stroke="param(outline)" stroke-opacity="param(outline-opacity)" stroke-width="param(outline-width) 0.2"/>
</svg>
