<?xml version="1.0" encoding="UTF-8"?>
<svg version="1.1" width="512" height="512" viewBox="0 0 512 512" xmlns="http://www.w3.org/2000/svg">
  <path d="m246.78 409.82c19.974-1.7085 36.561-14.186 52.385-24.672 6.4233-14.277 14.435-35.563 32.936-23.029 9.1508 1.7667 11.926 12.775 18.398 18.499 6.4734 15.473 29.341 14.06 31.654 0.24005 13.792-16.818 2.2222-36.221-16.002-42.772-10.481-7.4714-27.356-16.802-5.012-20.254 9.7149-2.4538 15.701-13.705 26.14-5.1833 19.349-2.2909 34.721 10.416 50.307 19.827 11.262 5.8588 24.227 21.072 36.511 10.926 13.665-8.9965 26.78-23.646 24.859-41.789 4.0028-19.059-10.302-41.719-31.391-38.601-20.472-0.75202-46.985 15.787-63.055-1.5932-7.8571-4.8338-22.932 2.3437-27.508-5.5359-1.4379-18.956-31.168-22.889-27.48-40.627 17.548-7.3727 40.758-7.0135 49.787-27.637 8.7947-20.773-16.378-40.42-35.614-32.491-15.79 8.7158-27.837 29.374-48.404 22.071-12.151 0.0525-11.724-23.362-28.261-20.549-16.094-11.011 40.079-18.905 11.739-21.9-17.28-4.0664-33.6 7.6339-44.553 12.511-7.5718-1.2578-36.226-1.6522-32.565-5.3352 5.7368-6.979 37.252-18.127 12.506-18.453-20.778-0.99698-37.685 11.819-51.734 25.396-14.976 0.54373-40.808 8.5384-49.524 7.3119 6.9031-7.4482 17.434-19.434-0.2567-10.974-18.82 9.9294-37.832 20.148-52.862 35.491-19.321 9.2502-24.148 30.744-34.188 47.41-9.51 14.869-24.501 26.514-28.543 44.283-5.6831 8.7748-0.71215 17.402 5.6926 24.224 13.189 15.193 28.481 26.789 41.022 42.046 8.5152 16.163 22.214 28.264 38.976 36.224 26.214 15.064 54.459 29.331 85.229 29.887 19.962 7.4597 39.31-0.0115 58.812 5.0503z" fill="param(fill)" fill-opacity="param(fill-opacity)" stroke="param(outline)" stroke-opacity="param(outline-opacity)" stroke-width="param(outline-width) 0.2"/>
</svg>
