<svg version="1.1" width="512" height="512" viewBox="0 0 512 512" xmlns="http://www.w3.org/2000/svg">
 <path d="m243.7 383.45c-52.368-3.3703-106.1-13.886-150.21-43.877-19.085-9.7801-34.726-25.281-54.011-34.439-20.127 2.4646-34.741-21.874-14.011-30.513 19.186 2.0951 41.999-5.5241 49.513-24.916 20.73-35.921 35.243-78.423 71.719-102.02 53.779-36.536 122.91-36.683 184.84-27.016 50.37 8.4656 100.53 23.837 143.58 51.927 6.338 8.5814-17.819-6.9244-22.932-8.1392-18.407-7.7575-38.156-17.726-58.583-14.435 6.3734 17.195 24.958 30.405 32.628 48.381 8.4702 13.165-8.988 42.107-5.5071 45.21 22.478-20.234 45.677-48.704 79.133-46.567 0.9848 11.08-2.5052 23.673 2.6272 33.564-10.056 16.892 6e-3 38.068-11.144 53.954-2.1389 16.923-7.2636 40.929-29.462 27.289-15.315-4.497-36.171-21.436-45.855-22.47 13.138 16.572 14.53 42.988-2.0774 57.746-29.717 28.156-72.533 32.429-111.41 35.563-19.599 0.67178-39.231 1.2601-58.838 0.759z" fill="param(fill)" fill-opacity="param(fill-opacity)" stroke="param(outline)" stroke-opacity="param(outline-opacity)" stroke-width="param(outline-width) 0.2"/>
</svg>
