<?xml version="1.0" encoding="UTF-8"?>
<svg version="1.1" width="512" height="512" viewBox="0 0 512 512" xmlns="http://www.w3.org/2000/svg">
  <path d="m413.05 380.72c-20.267 1.2958-29.725-23.501-48.346-22.469-20.393 10.543-40.571-5.776-33.752-27.75 0.18765-18.475 18.596-40.085 34.563-20.104 23.593 17.37 56.783 26.827 84.879 15.505 16.501-13.274-17.546-26.704-28.082-32.98-22.486-8.6973-45.972-14.991-69.783-18.669-15.936-10.28-33.131-20.715-52.631-11.4-4.4871 4.0978 15.766 24.906-3.3141 27.736-18.469-4.6796-30.075-28.383-52.493-20.374-38.484 2.3458-77.172-0.227-114.91-8.1897 21.535 22.608 54.12 25.124 81.798 35.608 8.1915 5.6376 28.648 22.709 27.963 24.379-14.411-13.84-31.257-26.846-52.093-27.684-31.448-4.0606-56.264-24.82-83.557-38.727-10.296-5.4028-24.328-8.6725-14.458 6.9947-1.5765 7.1782 23.944 28.695 10.519 20.135-14.25-7.9104-16.634-26.21-22.864-37.998-6.8557-8.3655-30.897-7.3291-13.122 4.2987 4.5692 5.214-15.649-13.782-11.624 3.0775-2.8948 18.306 1.5526-11.506-4.4919-6.4033-5.4705 7.9514-12.331 29.768-6.5943 8.2796 5.688-9.9905 8.7458-15.998-0.26713-24.814-2.2414-15.953 14.83-34.713-8.1207-39.877-16.103-7.7371-33.176-32.2-9.2194-42.604 6.7912-4.3052 13.979-7.6921 22.177-6.28 23.774-0.31566 47.055 5.1893 70.578 7.7644-27.137 1.0696-54.731-9.5836-81.544-2.6377-24.518 5.3094-20.066 32.618 1.6748 37.68 9.397 3.179 19.442 12.343 29.458 6.7517 65.966-22.86 136.7-18.004 205.3-21.57 16.205 1.364 33.754-20.786 46.878-11.243-0.26784 10.471-16.409 16.704 0.94634 14.438 54.042 0.82641 113.38 9.785 153.78 49.022 19.887 17.774 32.859 44.154 28.898 71.189-2.0253 28.444-14.967 56.308-35.995 75.511-15.296 10.473-33.44 17.142-52.145 13.405zm-360.76-147.52c-5.5829-12.725-7.8773 1.4445-0.32045 1.7133zm201.13 97.275c7.6782-0.76338-0.82352 1.5374 0 0zm-5.6013-1.7898c-2.7787-3.1452 8.496 4.5729 0 0zm-4.391-3.0706c-2.969-4.3269 5.3642 5.1161 0 0zm-206.44-57.506c0.88802-3.5972 0.41065 4.1761 0 0z" fill="param(fill)" fill-opacity="param(fill-opacity)" stroke="param(outline)" stroke-opacity="param(outline-opacity)" stroke-width="param(outline-width) 0.2"/>
</svg>
