<?xml version="1.0" encoding="UTF-8"?>
<svg version="1.1" width="512" height="512" viewBox="0 0 512 512" xmlns="http://www.w3.org/2000/svg">
  <path d="m307.07 383.74c-8.1311-5.4079-22.806-22.37-5.1739-9.258 6.8659 5.5759 19.802 12.463 5.651 1.8973-20.804-18.432 28.215 16.676 8.9226 0.93516-6.4961-4.6364-14.837-12.746-2.4696-4.7174 8.3657 5.7808 13.927 7.7836 3.0213-0.53949-17-15.672 17.391 9.7332 20.881 8.7044-3.9286-3.3065-24.983-15.052-17.874-15.764 7.9578 4.6925 21.69 14.916 7.7779 2.3547-10.396-10.868 24.15 14.082 7.4236 0.45709-14.937-13.855 12.661 3.7863 17.927 7.2252 12.265 5.811-21.617-13.829-16.372-15.813 6.5397 3.6429 31.621 20.951 15.435 8.2329-5.8476-3.5972-17.224-14.952-3.6054-6.6914 3.9124 2.8617 22.602 12.958 8.6528 3.4584-6.5601-2.946-16.561-14.239-3.133-6.1513 6.3662 3.8786 14.752 9.4165 4.7654 0.85859-4.8509-4.4384-10.584-9.5024-1.0823-3.7604 7.1395 3.7727 31.537 16.276 13.514 5.5355-8.1092-3.8979-19.125-13.872-3.9425-5.0135 7.7248 4.4144 16.894 8.0694 3.6463 0.1785-7.2199-2.9339-13.319-11.7-1.6069-4.7896 7.5379 5.191 18.993 10.342 4.2908 0.92662-17.231-13.324 26.551 11.917 5.9734-1.3746-20.759-14.886 33.663 15.583 6.6918-1.3825-5.7724-4.9119 28.418 1.8018 19.031-1.0722-8.078-3.1073-25.04-11.716-25.569-15.582 12.928 6.5258 5.3582 1.3983-1.1092-3.3239 16.13 3.7384-6.6977-5.5027 5.341-6.6048 12.699-3.776 33.556-0.39389 42.106 3.3432-12.701-4.218-0.26581-3.4734 5.8775-4.1215 2.8902-0.75544-20.433 1.5059-22.653-7.8137-9.2141-4.958-12.933-18.295 0.15476-7.6559 3.8201 4.6696 35.15 16.984 16.05 7.2615-9.8084-0.51754-20.913-18.485-4.7544-11.033 8.3493 4.6793 13.858 4.1284 2.2432-0.92933-9.1646-0.0389-17.685-18.144-3.7878-10.085 7.8165 3.5427 22.983 7.8263 7.0192 0.71096-9.717-1.326-17.96-14.41-3.1188-8.7956 7.8686 3.3979 14.99 3.2757 2.8888-0.94972-8.6372-0.40311-22.072-16.171-6.5086-7.3515 7.5782 2.9162 22.806 3.95 6.45-1.6127-8.6047-0.46529-27.96-15.168-8.8523-7.1235 6.7356 1.1607 32.271 8.0966 13.949 1.2408-8.8492-1.8595-12.275-8.6054-0.34201-4.1513 9.2172 3.1719 16.895 3.4998 3.5242-0.98115-9.507-8.8436 26.228 3.8548 4.9856-4.561-6.7879 0.30893-26.516-12.391-11.6-5.5506 8.3122-4.7355 38.644 8.5835 15.779-0.96287-7.2549-4.3957-34.253-6.4958-12.383-6.4326 8.4112 0.1318 38.297 7.5342 16.374 0.59816-10.943-0.51236-12.45-7.9237 0.16644-4.732 26.454 3.5012-19.078-4.2008-15.953-5.3633 8.6027-1.0436 30.46 3.8356 29.75 2.0994-8.1741-3.0411-26.841-6.1438-6.6625-4.5516 13.179 2.3036 8.4634-0.52444-0.84685-2.5323-12.379-3.212 26.626 3.4563 5.8314-2.4831 11.896-1.9033-14.773-3.1454-19.134-2.8773-21.351 0.0486-43.109 2.9715-64.288 0.94127-27.694-9.7399-55.251-20.496-81.868-32.629 14.67-6.3341 33.901 1.7339 47.403-4.2158 5.3708-1.1426 37.317 9.4073 17.934 1.32 8.2313 2.9162 14.852 2.9048 16.883-1.9273 22.363 1.9509-24.007-5.5982-2.9686-3.371 25.688 4.0803-15.319-5.0427-12.691-6.8415 12.921 4.9731 15.87 0.6277 26.636 1.3382-5.9361-2.8292-25.508-4.3989-13.602-6.9846-6.123 1.2767-29.466-7.937-13.426-3.8866 5.7809 0.85155 25.335 0.90727 9.0061-1.8327-9.6037-1.0861-21.857-6.1069-4.5463-4.567 18.556 1.4948-0.89924-0.25169-7.1327-3.7825-5.7865-5.3673-28.964-3.327-17.036-6.377-14.567-4.1535-29.6 1.8751-44.189-0.86282-11.718-0.82287-27.488 3.7491-36.03 3.5291-5.6617-2.4179-18.276 10.627-17.428 0.96542-6.8196 3.8368-15.305 8.3586-9.8664-1.9917-12.561 5.8515-25.383 13.768-39.949 10.054-32.23-2.6472-65.478-5.17-97.134 2.8627-23.827 7.9139-47.265 17.195-71.275 24.461-16.015 15.505 14.348 35.446 23.667 48.458 19.119 19.6 42.877 33.674 67.469 45.275-4.9425 4.2005-16.369 18.473-2.3708 10.662-4.4119 8.3899-7.6256 20.334 3.2601 9.4373 8.7424-5.4465-3.692 21.302 8.7714 6.9354 7.8517-7.3335-0.32277 17.926 10.751 3.2579 3.9741 0.4567 3.6713 13.57 10.503 2.052 2.2218 4.6797 5.5423 7.7589 10.879 3.8257-0.15342 13.211 9.1356-3.3007 11.167 8.0722 6.1533-4.183 10.682 3.2682 17.263 3.104 10.212 5.6791 26.79 8.5982 40.348 14.555 9.1821 10.278 24.466 17.816 34.872 20.077 9.9437 8.0561 5.5765 1.3487 6.8224 0.80998 5.2834 2.5313 29.295 25.084 14.691 9.0323-14.158-15.698 12.508 8.1079 18.638 9.888-0.54347-0.88931-27.774-23.957-10.701-13.397 1.67 1.1611 24.789 19.191 15.979 10.224zm78.56-40.422c-18.573-12.897 15.259 3.405 11.621 3.7203-4.276 0.51955-8.2548-1.155-11.621-3.7203zm-8.5825 0.23754c-7.5139-7.2444 19.919 7.6 0 0zm3.4556-33.667c-0.74374-4.7592-6.854-29.027 0.81861-20.171 10.43 10.496 20.327 21.636 32.048 30.732-10.112-0.17583-20.223-0.35167-30.335-0.5275-0.84413-3.3444-1.6883-6.6889-2.5324-10.033zm22.524-12.661c-21.128-19.477 25.354 11.94 0 0zm1.232-10.273c5.7666-6.7557 1.4844 7.6642 0 0zm0.0206-7.2002c-12.571-10.301 14.244 0.26802 2.7042 1.7115l-2.7042-1.7115zm-2.1329-9.9989c1.2849-3.5702 4.0108 3.4239 0 0zm9.3782-9.0903c-9.3646-6.2861 14.242 4.1427 0 0zm9.8336-2.4147c-18.893-7.4739 22.022 2.5042 2.3998 0.73434zm-10.612-3.7838c0.25218-3.5043 2.8682 3.219 0 0zm-0.21898-5.3551c4.7136-1.6316 0.68277 1.9661 0 0zm17.897-7.9663c3.1627-5.7459 5.3717 3.6981 0 0zm-69.091-53.476c0.38099-5.4801 16.336 5.2113 1.9479 0.90572zm-11.873 0.28691c4.7137-1.6318 0.68275 1.9661 0 0zm-0.25876-4.4142c7.2366-3.0521 4.0884 5.3553 0 0zm5.9722-1.742c-15.774-6.4433 17.561 1.8543 3.8655 1.0181zm14.533-3.8413c1.8304-5.3844 8.8195 4.4051 0 0zm-30.757 0.44181c4.7138-1.6319 0.68269 1.9662 0 0zm20.763-4.2005c2.324-3.7689 3.8591 3.885 0 0zm-16.062-1.9028c-4.522-5.0516 23.472 2.4488 5.2472 0.37017l-2.1451-0.19022zm0.29529-5.7416c3.799-3.9695 6.8843 3.6617 0 0zm2.8667-4.7778c5.5757-3.7506 8.936 3.8786 0 0zm-10.989 0c5.3134-3.8817 6.623 3.7248 0 0zm12.9-3.8222c3.799-3.9695 6.8842 3.6617 0 0zm79.532 192.36c-8.16-0.82301 1.357 1.5673 0 0zm-9.5374-0.95206c-8.1936-0.92966-0.35183 1.5388 0 0zm30.578-26.793c-15.521-0.39809-3.5386 1.016 0 0zm-53.511-135.65c-8.1936-0.92966-0.35183 1.5388 0 0zm-10.529-17.204c-8.16-0.82307 1.3568 1.5671 0 0zm-37.267-18.156c-8.16-0.82307 1.3568 1.5671 0 0z" fill="param(fill)" fill-opacity="param(fill-opacity)" stroke="param(outline)" stroke-opacity="param(outline-opacity)" stroke-width="param(outline-width) 0.2"/>
</svg>
