<svg width="512" height="512" version="1.1" viewBox="0 0 512 512" xmlns="http://www.w3.org/2000/svg">
 <path d="m255.97 356.63c0.48425-7.4212-23.056-18.247-6.8042-15.438 3.5134-0.34139 16.846 2.0457 13.762-0.12892-7.4167-2.7883-22.897-13.304-5.2993-11.903 20.62 6.8429 42.533 7.0916 63.723 11.353 24.009 0.80782 49.74 1.1642 71.531-10.168 10.307-5.4369-4.5846-13.385 3.2228-19.398 6.1565-2.0261 23.838 17.632 34.979 23.061 16.866 15.795 40.729 1.733 44.313-18.666 7.6328-13.188 23.535-29.394 15.096-48.072-3.4093-18.66-22.828-26.579-39.731-28.475-19.059-4.5179-40.788 1.2074-57.959-9.6766 4.1654-9.0435 17.33-4.2229 18.07-10.566 10.798 3.6247-9.975-9.9365-10.087-15.146-9.4425-9.3158-4.0217-21.148-15.423-27.046-28.917-14.698-62.248-16.079-93.662-22.096-33.788-6.4028-68.328-9.7198-102.6-5.1626-32.523 4.3607-67.14 3.3585-96.794 19.256-11.373 6.1731-21.703 17.211-10.344 28.558 0.67415 19.583-22.436 26.66-36.161 35.445-6.1579 5.8826-26.805 12.968-21.034 22.468 6.2189 7.2961 24.335 16.629 3.5813 13.817-22.596 3.3271 4.4872 30.098 16.112 33.741 24.518 11.041 51.096 16.799 75.258 28.806 22.404 9.2119 46.811 4.8939 69.908 1.6708 21.015-2.2037 33.168 14.722 50.764 20.829 5.0089 0.76417 10.784 3.7494 15.579 2.9358zm153.97-144.61c-6.5003-5.0024 2.1552 4.7637 0 0z" fill="param(fill)" fill-opacity="param(fill-opacity)" stroke="param(outline)" stroke-opacity="param(outline-opacity)" stroke-width="param(outline-width) 0.2"/>
</svg>
