<?xml version="1.0" encoding="UTF-8"?>
<svg version="1.1" width="512" height="512"  viewBox="0 0 512 512" xmlns="http://www.w3.org/2000/svg">
  <path d="m330.18 474.89c-50.568-23.068-104.46-45.208-142.79-87.023-7.4431-5.8879-26.825-42.379-10.477-19.133 25.947 32.391 64.378 50.842 101.07 68.189 34.638 12.966 69.582 25.179 104.68 36.812-35.544-19.336-75.873-27.765-112.52-44.473-25.528-18.614-53.467-34.886-74.697-58.657 4.4756 1.2961 37.426 29.578 36.542 25.352-14.984-13.417-31.845-24.981-44.56-40.748 13.074 10.016 28.47 16.953 45.235 16.231 21.861 18.692 44.919 36.574 70.357 50.087 17.938 5.8961 32.626 18.159 48.85 27.325 6.9307-17.588 2.6028-38.288-0.12815-56.783-7.3154-45.22-21.419-88.935-32.038-133.34 13.287 7.3211 24.432 23.609 37.767 33.326 17.657 15.546 40.799 24.505 64.371 22.524 10.04-22.956 2.5099-50.006 2.9088-74.574 2.0515-26.047 6.8034-52.284 1.7629-78.372 1.4239-17.489-8.0482-30.934-26.355-21.147-31.236 9.3173-52.736 35.371-79.413 52.293-12.525-2.1523 22.551-17.69 24.852-27.938 16.316-19.468 15.684-48.026 3.5178-69.436-7.3723-20.551-4.4416-44.146 2.603-64.413-44.865 21.33-88.549 45.384-135.58 61.817-36.834 15.144-72.355 35.596-98.122 66.636-13.703 17.355-29.065 33.156-48.351 44.303-17.631 13.31 1.641 32.651 11.009 46.103 13.872 20.911 33.397 37.839 43.699 61.035 11.801 18.785 29.822 33.626 36.628 55.329 25.057 44.763 73.448 69.114 118.36 89.603 16.645 6.9945 33.433 14.176 50.815 19.07z" fill="param(fill)" fill-opacity="param(fill-opacity)" stroke="param(outline)" stroke-opacity="param(outline-opacity)" stroke-width="param(outline-width) 0.2"/>
</svg>
