<?xml version="1.0" encoding="UTF-8"?>
<svg version="1.1" width="512" height="512" viewBox="0 0 512 512" xmlns="http://www.w3.org/2000/svg">
  <path d="m271.14 497.67c-63.118-13.203-120.97-49.252-162.14-98.591-13.692-16.829-22.53-37.572-41.266-49.786-21.503-18.729-37.571-42.397-50.896-67.387-14.004-8.5569 8.8682-23.802-5.4823-34.102 5.0001-21.22 24.872-47.371 42.345-65.794 17.848-16.399 36.423-31.517 48.514-52.965 36.496-49.18 91.097-83.018 149.71-99.144 15.733-4.9951 46.098-11.494 28.079 11.556-11.387 23.809-24.153 45.694-36.644 68.905-8.5486 22.107 34.228 17.033 47.098 29.461 38.011 17.729 67.676 48.68 91.591 82.386 27.129 11.088 21.034-36.837 31.325-52.949 9.7839-21.043 21.247-41.53 34.6-60.798 12.561-15.8 34.031-31.496 54.94-26.548-4.1191 18.012-8.184 39.658-15.246 57.821-6.1068 23.049-13.056 45.92-17.113 69.563-12.388 15.302-2.2867 38.477-20.32 50.634 5.5293 12.087 13.45 29.928 12.961 46.201 6.9794 22.594 15.068 44.596 19.876 67.721 6.3438 20.628 11.622 40.368 14.635 62.168 8.0561 27.529-38.768 3.3316-44.598-9.883-23.332-26.484-37.839-59.927-47.281-93.618 0.79976-16.538-14.859-46.732-28.546-21.015-19.862 31.93-50.482 56.124-83.754 72.719-17.259 9.0975-41.704 10.41-55.934 20.316 9.8766 23.862 23.583 45.551 37.629 66.458 8.8426 9.8138 24.35 36.306-4.0858 26.671z" fill="param(fill)" fill-opacity="param(fill-opacity)" stroke="param(outline)" stroke-opacity="param(outline-opacity)" stroke-width="param(outline-width) 0.2"/>
</svg>
