<?xml version="1.0" encoding="UTF-8"?>
<svg version="1.1" width="512" height="512" viewBox="0 0 512 512" xmlns="http://www.w3.org/2000/svg">
  <path d="m140.78 338c-31.302-3.5609-61.955-11.345-93.267-14.612-10.118-1.6545-23.205 3.3973-27.251-6.2377 13.401-10.202-12.536-1.1106-4.3831-15.887-1.8683-20.518 18.783-30.27 18.173-49.899 0.63946-12.339 7.5395-24.385 10.256-34.609-8.663-3.4003-26.353-9.3083-6.047-10.867 16.674-5.9666 33.386-11.938 50.164-16.729 36.504-25.799 85.832-35.77 128.62-21.112 25.353 10.839 48.709 25.863 71.223 41.466 8.9768 1.9393 15.841-12.124 25.341-13.874 15.983-7.2031 25.852 17.768 23.509 30.132-8.0727 2.1695-38.458 3.8743-15.437 9.4246 18.595 5.808 36.808 13.017 56.457 13.628 18.975 5.624 38.142 1.2057 56.61-4.2103 18.101-0.12433 44.34-25.356 55.358-2.1683 14.324 9.5063-4.2524 17.002 3.5447 15.259 14.515 9.938-2.2951 36.447-11.014 47.972-11.445 18.581-30.297-3.2766-46.244-5.6753-17.347-4.3908-33.214-19.176-51.532-15.968-12.996 0.71029-31.038 2.6245-40.237 7.7206 12.735 11.165 31.358 13.973 43.116 26.075-2.5967 16.789-27.794 15.934-41.208 13.549-14.404-4.4284-19.033-36.883-33.451-16.943-18.333 9.1083 7.8825 3.6279 14.73 7.6086-32.442 8.5282-66.112 10.958-99.353 14.936-29.164 1.5104-58.504 2.8242-87.677 1.0219z" fill="param(fill)" fill-opacity="param(fill-opacity)" stroke="param(outline)" stroke-opacity="param(outline-opacity)" stroke-width="param(outline-width) 0.2"/>
</svg>
