<?xml version="1.0" encoding="UTF-8"?>
<svg version="1.1" width="512" height="512" viewBox="0 0 512 512" xmlns="http://www.w3.org/2000/svg">
  <path d="m468.25 497.78c-2.9016-22.519-20.42-40.911-31.509-60.474-7.1912-12.453-35.455-40.002-4.389-40.373 16.639-5.1856 44.626-8.823 53.943-17.782-29.322-11.825-61.283-3.8021-91.61-1.7398-17.417-9.4503-28.109-20.385-41.402-37.037-18.769-4.3588-48.188-14.639-56.669-24.573 23.401 5.6894 51.45-1.1585 70.585-10.052-3.8787-0.86605-34.668 1.4845-18.714-1.0033 6.4187-0.35012 44.267-10.286 24.262-10.23-8.1273-0.33025-28.107-1.3-30.07-3.5106 13.808-0.77544 36.129-1.8549 43.108-4.5294-14.859-1.5468-44.016 0.55905-51.486-3.2839 23.119-2.7058 46.25-6.3754 68.855-11.92-9.0944-1.526-54.755 1.1217-25.281-3.4278 25.715-4.3114 40.57-27.142 51.418-48.617-11.353 6.1711-30.847 13.778-38.439 14.014 9.1077-3.582 39.38-14.727 12.835-10.231-9.149-0.58341-46.062 7.1834-42.088 2.1866 20.287-9.962 39.191-25.993 43.621-49.252-7.7992 8.3039-25.585 25.121-30.267 24.593 17.061-12.409 26.669-31.303 34.732-50.127 3.8314-9.4409 35.9-39.41 10.422-22.259-11.068 5.803-30.296 16.692-37.988 18.848 14.924-14.494 25.786-32.867 31.427-52.884-14.777 19.475-32.19 37.776-53.792 49.635 1.4411-11.322 9.0327-42.88 1.2438-44.576-8.1677 11.112-27.372 31.729-32.465 33.161 4.5359-6.024 26.694-26.556 19.721-24.97-15.812 9.9794-42.197 31.216-52.064 33.932 13.539-18.837 26.264-42.306 17.36-65.884-2.1445 12.095-11.512 34.66-15.96 36.553 14.337-26.271 2.891-56.702 12.099-84.186 4.1103-15.846-13.186 18.651-17.912 23.159-5.7356 8.9454-17.68 26.656-9.3681 5.5471 2.3172-12.847 3.1383-28.042-0.44824-39.837-9.3391 63.165-56.917 109.32-95.341 156.6-19.382 22.417-33.239 48.619-47.545 74.32-6.9747 11.813-21.392-2.6979-31.672-1.5125-23.335-3.9969-48.404-11.146-71.629-3.8067-19.481 12.501 8.5203 33.482 15.764 46.041 22.413 24.64 54.486 37.156 84.018 51.1 36.805 14.938 75.858 24.596 112.95 38.13 5.6586 5.1259 32.018 29.932 16.682 11.856-8.0596-12.395 32.648 23.367 21.619 11.1-11.391-10.117-1.648-4.6765 6.3679-0.50721 10.13 4.6272 31.467 16.899 34.36 14.439-7.8741-6.3496-27.91-18.823-26.765-23.446 17.736 1.0542 33.009 11.162 50.01 14.562-28.432-12.691 30.706 6.4825 10.793-7.0499 25.731 0.28142 34.752 28.909 50.179 44.926 16.567 19.037 29.184 43.547 51.672 56.243 1.7334 1.0994 4.3739 0.21896 4.8219-1.8686z" fill="param(fill)" fill-opacity="param(fill-opacity)" stroke="param(outline)" stroke-opacity="param(outline-opacity)" stroke-width="param(outline-width) 0.2"/>
</svg>
