<?xml version="1.0" encoding="UTF-8"?>
<svg version="1.1" width="512" height="512" viewBox="0 0 512 512" xmlns="http://www.w3.org/2000/svg">
  <path d="m192.08 362.48c-11.318-4.5112-23.686-4.6249-26.823-20.994-10.225-15.643-6.0709-41.082-30.908-38.653-21.297-3.4275-41.006-12.586-62.041-16.841-18.936-2.1301-39.602 0.13956-55.668-12.422-13.125-5.6397 5.8616-24.7 7.7018-10.208 7.922-5.3548 22.866 0.69321 9.6183-9.3741-6.7289-5.534-24.29-16.589-7.5005-22.001 23.482-9.8595 48.914-14.014 72.269-23.988 15.003-9.4325 31.717-15.366 48.74-19.796 5.1554-11.849 6.4408-37.117 14.708-41.698 6.4605 6.9178 9.7441-16.07 13.448-0.43342 6.9686-3.3546 10.234-13.668 10.078-1.2095 6.6988 0.82264 11.433-12.854 10.928-0.18596 8.7307-2.2511 10.411-4.7068 10.312 3.3253 10.443-5.7445 9.9831 8.7378 20.104 1.9387-5.0503 11.6 12.453 2.4413 11.156 7.8767-4.7702 8.8372 11.92-0.75903 4.933 9.5924 10.524-2.5126 6.4017 7.7384 13.08 9.1635 4.6102 8.227 12.098 14.372 6.5011 22.327 17.612 1.2425 25.617-22.828 42.453-27.567 16.63-5.0386 35.097 2.7498 49.08 11.811 11.402 12.568 31.75 27.52 35.747 40.725-7.913 5.969-17.342 17.882-0.21755 15.559 19.65 4.5417 38.056-2.3101 52.895-15.197 18.41-12.165 36.469-27.352 58.478-31.981 4.3662 25.19-15.75 45.942-21.316 69.381 1.2188 20.532 16.867 36.868 20.667 56.979 5.0686 11.423 4.1726 27.813-11.779 16.604-24.709-9.6059-42.184-30.026-63.157-45.174-18.296-8.0856-39.651-5.7813-58.971-2.8388-16.196 5.1988 17.55 6.6423 13.728 16.561-0.38131 16.147-12.877 27.532-23.585 37.592-17.746-1.1362-34.942-13.433-50.549-22.455-6.7144-2.3024-11.437-16.303-19.268-10.096-21.336 9.1809-45.123 4.5464-67.714 5.1745 6.7112 5.3063-0.22334 13.357 4.97 19.918-3.6798 11.966-6.7468 30.259-24.907 30.066l-3.2568-0.14561-3.9343-1.337z" fill="param(fill)" fill-opacity="param(fill-opacity)" stroke="param(outline)" stroke-opacity="param(outline-opacity)" stroke-width="param(outline-width) 0.2"/>
</svg>
