<?xml version="1.0" encoding="UTF-8"?>
<svg version="1.1" width="512" height="512" viewBox="0 0 512 512" xmlns="http://www.w3.org/2000/svg">
  <path d="m336.08 384.63c-10.096-16.384-13.353-36.605-14.88-55.61-4.2085-6.999-24.277 2.554-32.309 3.5198-3.0213 10.176 8.8382 26.375 8.7009 28.938-20.014 3.1115-36.738-19.402-54.431-11.716-20.763 6.122-3.2108 25 5.5816 33.224-24.482 3.0573-42.824-15.44-64.148-23.415-15.029 6.9243 19.548 33.924-2.6978 22.664-17.333-3.5112-22.822-27.05-39.326-27.474-6.4922 1.1928 6.4478 23.115-6.6072 11.613-9.13-18.128-28.509-21.485-46.457-26.435-17.868-7.0674-36.748-11.349-55.501-14.809-7.6253 8.4888-19.719-9.6052-6.733-9.839-6.6654-8.3635-6.2871-2.874-15.244-9.3357-3.9045-19.576 29.374-21.763 32.009-42.09 11.926-14.868 16.583-34.172 30.204-47.647 3.7617-7.3475 15.502-21.128 11.928-3.8123 29.725-10.174 59.812-22.054 85.003-41.181 10.362-10.309 20.185-30.302 31.848-34.782 1.5615 18.974 20.015 29.106 28.704 44.549 11.725 12.55 28.181 20.258 43.176 27.205 4.3631-20.941 10.754-42.629 23.449-60.53 17.97-0.1475 31.626 19.963 38.425 35.711 7.0605 21.049-5.361 44.037-29.617 41.031-11.906 4.2747 17.548 18.053 24.072 24.813 16.919 10.638 35.791 18.299 55.993 18.615 8.1922-1.1055 19.336 3.2967 26.171-0.94184 15.172-20.815 36.449-37.971 60.932-46.309 17.97 7.4931 22.487 31.417 25.82 49.051 0.69592 9.8983 1.8722 32.806-2.7602 47.612-3.0853 19.517-24.086 46.794-43.935 27.727-16.604-9.1478-29.654-23.014-42.354-36.8-14.267-1.4678-28.395 1.6332-42.448 3.6908 13.425 6.9272-18.02 5.9049-23.162 8.9048-10.401 3.7209 18.439 9.9725 24.565 12.693 10.935 1.2514 6.6823 20.49 0.4972 18.766 10.195 7.4352-9.3588 27.797-13.538 26.752 0.0505 6.3898-15.884 9.6494-20.934 5.6461z" fill="param(fill)" fill-opacity="param(fill-opacity)" stroke="param(outline)" stroke-opacity="param(outline-opacity)" stroke-width="param(outline-width) 0.2"/>
</svg>
