<?xml version="1.0" encoding="UTF-8"?>
<svg version="1.1" width="512" height="512" viewBox="0 0 512 512" xmlns="http://www.w3.org/2000/svg">
  <path d="m212.36 364.44c-13.303-3.8835-25.582-11.09-38.264-16.056-28.191-0.19021-56.743 2.7867-84.367-4.4122-25.136-3.416-50.052-9.8422-73.518-19.422-12.553-19.464 36.56-1.2365 30.18-14.747-10.338-8.6502-32.204-7.4031-25.443-27.051 29.037-14.511 58.422-28.326 87.483-42.787 30.918-12.897 62.539-24.332 95.103-32.4 3.1538-5.39 13.934-24.355 9.7126-6.8606-0.0409 11.943 18.233-10.029 25.472-11.684 8.526-5.609 15.149-11.664 17.885-0.66612 1.1602 3.7044 1.6887 11.447 10.668 9.6588 0.30794 10.434 9.7828 17.69 21.471 16.239 13.798 8.757 29.55-10.029 43.987-12.423 17.078-10.686 29.803 10.301 43.352 17.703 14.141 8.8979 5.7005 36.701 25.954 35.568 23.896 1.3419 44.72-13.851 67.645-18.365 8.6793-5.0147 25.785 1.4158 7.7437 6.2321 12.173-2.5076 8.5536 8.4762 9.9417 16.755 5.5862 15.032 9.7623 29.739 8.8108 44.919 0.31318 10.108-16.295 8.1911-7.2402 11.947-11.852 0.38185 8.3107 5.1348 0.59513 13.619-0.46775 24.001-30.373 8.5166-41.466 0.68547-19.664-11.664-42.366-21.443-65.713-16.039-9.6434 0.46697-14.26 5.2073-1.3183 4.6149 22.032 3.9064 7e-3 12.074 2.7628 12.861 16.284 6.2753 3.5831 31.126-7.9157 35.908-16.424-2.8564-26.774-19.36-41.696-25.078 5.8022 10.542-9.9009-5.1321-15.752-1.7929-20.475 1.0396-41.287-0.60517-61.479 3.0127-5.877 5.3122-33.694 1.979-29.281 7.3855 10.868 1.0094 11.691 5.6999 0.28101 2.9003-19.819-2.8364 30.455 9.0009 5.3117 5.8096 15.32 3.3893 4.3196 11.371-8.565 7.7546-4.1808-1.0343-8.2562-2.4383-12.341-3.7896z" fill="param(fill)" fill-opacity="param(fill-opacity)" stroke="param(outline)" stroke-opacity="param(outline-opacity)" stroke-width="param(outline-width) 0.2"/>
</svg>
