<svg version="1.1" width="512" height="512" viewBox="0 0 512 512" xmlns="http://www.w3.org/2000/svg">
 <path d="m242.24 334.69c-8.4279-2.8709-17.339-6.8681-22.378-10.038-3.6046-2.2676-4.6344-2.4028-22.657-2.9751-41.29-1.311-78.105-5.2452-102.43-10.946-8.5686-2.0082-17.916-3.9212-20.772-4.2512-9.8638-1.1396-20.324-3.5284-27.85-6.3601-23.401-8.8052-31.626-12.858-31.626-15.585 0-2.2295 2.4164-2.4264 9.7517-0.7944 3.8722 0.86148 8.2173 1.4275 9.656 1.2579 2.5937-0.30583 2.5774-0.33813-1.9425-3.8486-4.1598-3.2308-5.0761-3.5402-10.484-3.5402-6.4447 0-7.6441-0.7736-5.9903-3.8638 1.2036-2.249 21.053-12.149 33.939-16.928 44.727-16.586 71.449-23.2 112.34-27.807 19.103-2.1519 24.705-4.8864 40.362-19.702 13.581-12.851 17.214-15.72 19.906-15.72 1.2293 0 6.0362 3.5657 12.184 9.0378 5.5843 4.9708 13.021 11.584 16.526 14.696 8.3635 7.4257 8.2889 9.3086-0.36894 9.3086-2.0651 0-3.5304 0.36302-3.2562 0.80671 0.27421 0.4437 7.2027 1.1021 15.397 1.4632 18.031 0.79455 45.349 3.4682 69.905 6.8416l18.189 2.4987 6.9828-2.0289c12.236-3.5553 22.723-2.3004 22.723 2.7192 0 2.0136-0.4837 2.3723-3.5402 2.6253-1.9471 0.16115-3.5402 0.69218-3.5402 1.1801 0 0.48787 0.33146 0.88706 0.73658 0.88706s9.1026 1.6993 19.328 3.7762c10.225 2.0769 19.983 3.7747 21.685 3.7728 5.6044-7e-3 17.805-5.4451 33.844-15.088 23.513-14.136 42.691-22.656 46.457-20.64 2.133 1.1416 1.8939 2.5614-3.0766 18.266-10.47 33.083-10.297 32.079-7.2779 42.07 1.3235 4.3805 3.1077 10.726 3.9649 14.101 0.85717 3.375 3.2879 10.475 5.4016 15.778 3.1918 8.0076 3.639 9.8875 2.6388 11.093-0.66237 0.7981-2.1805 1.4511-3.3736 1.4511-3.9783 0-18.47-5.729-38.108-15.065-27.017-12.844-33.783-15.336-43.081-15.87-11.214-0.64285-38.856 2.6639-37.714 4.5116 0.24332 0.39371 2.4656 1.0186 4.9383 1.3887 2.4727 0.37009 4.8103 0.8664 5.1945 1.1029 0.8165 0.50255-3.122 8.5805-6.835 14.019-1.418 2.0769-3.6924 5.9827-5.0543 8.6795-1.3619 2.6968-3.1544 5.2828-3.9833 5.7467-2.7397 1.5332-10.458-0.52164-27.34-7.279-18.44-7.381-23.113-8.1505-29.552-4.8658-1.9506 0.99511-5.226 2.0934-7.2788 2.4407-2.0528 0.34729-10.105 1.8416-17.893 3.3208-7.7885 1.4791-18.622 3.1683-24.073 3.7537-5.4519 0.58544-11.31 1.273-13.017 1.5279l-3.1045 0.46348 5.2286 5.9555c2.8757 3.2755 5.2286 6.6518 5.2286 7.5028 0 2.335-6.6858 1.9551-14.913-0.84731z" fill="param(fill)" fill-opacity="param(fill-opacity)" stroke="param(outline)" stroke-opacity="param(outline-opacity)" stroke-width="param(outline-width) 0.2"/>
</svg>
