<?xml version="1.0" encoding="UTF-8"?>
<svg version="1.1" width="512" height="512" viewBox="0 0 512 512" xmlns="http://www.w3.org/2000/svg">
  <path d="m369.86 343.23c-7.5653-1.7378-19.103-5.9035-28.388-10.249-10.719-5.0171-19.394-10.615-35.835-23.122-19.212-14.616-22.229-16.571-25.57-16.571-1.6874 0-7.462 1.0362-12.832 2.3027-12.494 2.9465-29.751 5.8504-42.212 7.1029-10.937 1.0994-41.136 1.1882-49.483 0.14541-5.842-0.7298-6.2669-0.37221-3.8822 3.2673 1.4651 2.236 1.4392 2.4791-0.48113 4.5232-2.726 2.9017-8.6227 12.778-8.6227 14.442 0 0.73292-0.68813 2.9127-1.5292 4.8439-0.84105 1.9312-1.8147 4.7863-2.1637 6.3447s-1.0421 2.7632-1.5403 2.6775c-0.49814-0.0857-1.4108 0.26339-2.0282 0.77575-1.5672 1.3006-2.715-3.1836-5.4412-21.257-2.4821-16.455-3.7102-19.055-9.4068-19.912-35.346-5.32-79.059-14.646-103.84-22.154-10.314-3.1249-19.796-6.3656-21.072-7.2016-4.1204-2.6998-2.4649-4.5328 5.8311-6.4566 18.695-4.3352 21.996-5.979 20.886-10.401-0.3525-1.4045-4.4541-6.4069-9.1146-11.117-4.6605-4.7096-8.4737-8.6971-8.4737-8.8612s4.1438-1.6695 9.2083-3.3455 14.308-5.068 20.542-7.5379c21.264-8.4254 50.529-16.14 78.811-20.776 9.6372-1.5796 18.797-3.2828 20.355-3.7849 1.8191-0.58606 4.3296-2.9674 7.0132-6.6523 8.6186-11.834 25.39-30.135 27.616-30.135 0.4329 0 0.78709 1.1716 0.78709 2.6034 0 3.9922 1.5028 8.3623 4.4265 12.873 2.5657 3.9579 8.2099 8.1351 10.992 8.1351 0.74251 0 1.8791 0.6375 2.5258 1.4167 0.64665 0.77917 2.0129 1.4167 3.0361 1.4167 1.0232 0 2.941 0.85 4.2617 1.8889s3.142 1.8889 4.0472 1.8889c0.90524 0 2.1366 0.59127 2.7364 1.3139 1.0452 1.2594 2.1437 1.6088 9.5297 3.031 1.818 0.35009 4.1439 1.2157 5.1685 1.9236 1.0246 0.70786 2.7788 1.287 3.8982 1.287s2.5417 0.61019 3.1607 1.356c0.61894 0.74578 2.4772 1.6512 4.1295 2.012 1.6523 0.3608 4.0178 1.4506 5.2566 2.4218 4.6492 3.6449 8.0924 2.5416 23.344-7.4794 19.836-13.034 24.538-15.776 32.531-18.976 14.806-5.9274 35.97-10.638 39.335-8.7545 1.8842 1.0544 0.22299 1.7104-8.6842 3.4289-12.764 2.4627-33.121 12.822-42.092 21.42-5.4155 5.1905-10.325 12.582-10.325 15.545 0 3.0165 4.2143 7.6012 8.1946 8.9148 1.9436 0.64143 5.5909 0.90055 8.4796 0.60242 4.7766-0.49299 5.1449-0.37722 6.3855 2.0069 0.72405 1.3915 2.4066 3.5485 3.7391 4.7932 2.2807 2.1306 2.867 2.2261 10.006 1.6307 7.0018-0.58393 7.5838-0.49704 7.5838 1.1322 0 4.4312 5.7926 6.2766 14.676 4.6753 3.6166-0.65194 3.8696-0.54209 4.8728 2.1159 1.7026 4.5106 6.6474 5.5014 15.926 3.1911 1.4338-0.35699 2.2399 0.15787 3.0578 1.953 1.6699 3.6649 4.8083 4.4502 10.505 2.6285 4.7477-1.5183 4.8546-1.5094 6.278 0.52276 2.4883 3.5526 4.8538 4.2933 9.5296 2.9842 3.9028-1.0927 4.3129-1.0292 6.161 0.95461 1.6546 1.776 2.5402 2.0107 5.3897 1.4284 4.18-0.85429 7.3271-0.8438 10.712 0.0357 5.291 1.3749 5.3732 1.3169 32.007-22.598 18.138-16.287 26.402-22.71 33.705-26.195 5.8886-2.8104 13.403-4.606 13.403-3.2027 0 0.37665-3.7956 5.0014-8.4346 10.277-11.733 13.343-22.973 27.507-26.683 33.625-2.8897 4.7642-3.1572 5.8846-3.4589 14.489-0.17984 5.1288-0.0734 10.677 0.23664 12.329 0.56735 3.0242 4.8722 8.6584 23.206 30.372 5.2631 6.2333 10.226 12.563 11.03 14.066l1.4606 2.733-3.9503-0.63168c-4.4198-0.70675-11.137-3.8778-18.905-8.9254-2.8569-1.8562-13.938-11.992-24.625-22.523-19.869-19.58-24.544-23.071-28.245-21.09-1.0048 0.53775-2.2343 1.7058-2.7323 2.5956-0.85446 1.5268-1.0978 1.5262-4.3225-0.0116-5.1015-2.4327-9.5815-2.1469-11.468 0.73163-1.7316 2.6428-3.1015 2.8673-7.5911 1.2438-3.9467-1.4271-7.6051 0.0642-8.4539 3.4463-0.70942 2.8266-1.0854 2.8678-7.553 0.82911-6.0415-1.9044-10.053-0.70709-12.32 3.6775-1.1375 2.1997-1.8792 2.6671-3.4971 2.2039-1.1294-0.32332-4.0787-0.84943-6.554-1.1692-5.3451-0.69034-8.2494 1.2295-8.2494 5.4531v2.6418l-4.4861-1.3613c-9.148-2.7759-13.458-1.4234-13.458 4.2229 0 2.3411-0.47312 2.3696-7.8054 0.46957-7.0208-1.8193-9.659-1.2421-11.615 2.5412-2.0832 4.0284-1.2762 6.2565 5.1568 14.238 14.373 17.833 30.093 28.754 52.81 36.687 4.7717 1.6662 8.6758 3.4013 8.6758 3.8556 0 0.94422-0.0946 0.93999-5.1944-0.23148z" fill="param(fill)" fill-opacity="param(fill-opacity)" stroke="param(outline)" stroke-opacity="param(outline-opacity)" stroke-width="param(outline-width) 0.2"/>
</svg>
