<?xml version="1.0" encoding="UTF-8"?>
<svg version="1.1" width="512" height="512" viewBox="0 0 512 512" xmlns="http://www.w3.org/2000/svg">
  <path d="m196.26 499.76c21.391-6.2989 38.641-46.498 17.006-59.149 0.74401-9.919 33.012-6.0359 44.745-14.641 17.411-6.0874 34.221-13.753 51.636-19.83 25.155 8.3367 59.016 38.386 82.748 14.344 4.5108-19.748-16.399-48.379-38.001-43.78 11.945-19.073 36.523-40.267 50.205-62.58 19.648-20.743 26.181-54.932 52.948-67.384 28.039-2.2283 59.272-24.719 40.518-55.199-4.5159-24.802-39.05-4.1628-33.385-29.793 0.42305-27.349-4.6991-54.431-17.08-78.947-11.875-24.837-25.959-50.754-48.673-67.093-21.584 5.3297 15.007 21.378 17.498 33.646 14.269 29.594 8.4079 65.289-3.6707 94.597-14.675 27.309-35.002 51.456-56.207 73.876-31.407 30.208-73.067 46.006-114.49 56.613-14.904 10.171-32.347 7.7565-29.802-11.26-24.864-15.997-54.269 7.181-60.816 32.101-15.359 29.164-57.441 27.801-80.785 50.444-25.701 18.765-54.042 42.955-60.055 75.467-1.1676 23.641 46.059 42.305 48.11 37.042-5.226-6.0432 26.674-4.498 36.71-7.1866 20.182-2.1694 40.375-4.289 60.48-7.1046 1.605 22.322 10.139 54.407 36.649 56.529 1.2363-0.23719 2.4727-0.4744 3.7088-0.71158z" fill="param(fill)" fill-opacity="param(fill-opacity)" stroke="param(outline)" stroke-opacity="param(outline-opacity)" stroke-width="param(outline-width) 0.2"/>
</svg>
