<svg width="512" height="512" version="1.1" viewBox="0 0 512 512" xmlns="http://www.w3.org/2000/svg">
 <path d="m168.51 361.69c-13.083-10.8-13.206-37.858-34.318-35.949-39.124-5.2182-78.977-14.433-112.85-35.424-19.916-11.322 10.807-14.253 10.121-16.178-16.063-4.3682-18.733-19.992-1.3226-26.028 34.762-24.468 73.92-43.689 116.32-49.9 4.2942-17.063 7.3804-35.665 17.746-50.024 13.697 2.3359 14.158 22.392 29.307 21.884 13.096 10.32 30.687 13.542 46.224 20.236 16.87 15.728 26.532-7.2728 39.031-17.454 12.104-9.4705 32.137-30.687 46.351-24.326-9.6236 13.516-28.971 22.958-35.01 40.61 3.03 12.328 10.089 21.641 23.012 18.448 5.1918-0.78621-6.4154 9.2228 3.2421 2.5118 6.6846 4.1182 16.992-2.7137 9.1517 7.7899 4.9893-3.518 24.984-4.9315 15.918 4.5937 5.1309-2.4435 25.703-6.0866 16.352 4.095 7.2358-4.5525 21.337-2.6658 15.197 4.5235 9.7793-7.2865 18.16 3.2085 28.359 1.4847-8.9609 12.626 15.468-2.5299 19.647 8.5409 9.1451-11.056 15.984-24.869 27.396-34.456 10.212-10.691 22.864-18.843 36.914-23.471 5.7515 15.084-20.944 26.862-23.345 43.8-13.776 29.623-1.6104 63.662 18.333 87.303 9.269 5.6432 5.676 19.02-5.5528 10.085-21.435-12.201-38.661-31.238-49.182-53.486-6.3262-7.6361-19.447 4.4798-25.699 1.4008 6.3206 7.3071-10.914 2.9228-13.506 7.532-6.8717 1.6738-15.586-2.3671-11.347 5.4267-7.1162 1.2351-18.16-2.6515-14.103 4.7415-5.5522 3.6527-23.27-5.6531-15.01 5.1895-8.0924 1.7296-22.067-3.5784-17.526 4.9082-6.7867 0.79182-12.876 0.90893-17.182 0.0702-17.148 13.719 7.4232 24.982 19.178 30.77-2.7747 14.584-27.478-2.6156-37.228-7.1838-9.1011-3.4582-15.534-17.468-26.099-10.7-25.259 7.7877-51.174 13.924-77.617 15.661-2.3858 11.58-2.9889 36.786-15.696 37.59l-2.3878-1.8698-2.8128-2.7493z" fill="param(fill)" fill-opacity="param(fill-opacity)" stroke="param(outline)" stroke-opacity="param(outline-opacity)" stroke-width="param(outline-width) 0.2"/>
</svg>
