<?xml version="1.0" encoding="UTF-8"?>
<svg version="1.1" width="512" height="512" viewBox="0 0 512 512" xmlns="http://www.w3.org/2000/svg">
  <path d="m199.16 393.78c-23.317-6.6444-41.892-24.463-66.127-28.297-36.537-10.084-70.355-27.274-105.57-40.916-7.8323-0.75022-13.321-9.8551-3.8067-13.018-16.822-13.282 10.517-33.037 15.215-48.37 12.438-20.618 34.461-32.831 53.332-46.837 14.196-10.747 39.311-14.683 43.462-31.376 5.7766-2.8748 17.527-33.258 10.474-8.8453 7.3842 8.6678 17.892-21.73 26.721-28.003 5.773-7.763-5.3156 25.134 6.4375 11.833 5.8575-4.9306 24.321-28.446 16.631-8.0659-3.3564 20.428 16.583-15.617 11.499 6.0564-1.6698 17.719 19.152-7.1941 14.782 10.19 1.151 12.688 16.344-8.8133 12.059 7.659 4.9539 12.082 32.296-9.6382 12.838 4.1233-14.638 4.3871-3.5768 10.235 7.2855 7.87 8.9436-1.6137 17.368-7.2999 8.8879 1.4319 3.6895 10.848 28.763-2.097 11.322 9.1932 6.8221 6.1742 20.679-2.6849 21.538 8.3869 12.71 0.40663 23.595 7.1568 37.509 8.9091 8.1773 7.4561 28.386 15.81 24.907 25.934 15.047 4.2731 2.4248 17.323 10.096 23.043-17.406 10.235 17.918 4.772 23.817-0.70006 30.252-11.805 58.32-29.518 89.896-37.634 8.965-3.3001 28.658-0.75792 11.42 8.1737-19.493 16.088-30.429 39.563-47.934 57.412-11.14 15.824 5.3206 37.562 10.839 53.968-12.634-1.9889 16.524 18.645 0.78093 22.245-25.83-8.0989-45.158-28.604-67.19-43.442-10.762-10.154-28.985-17.836-41.414-5.9436 20.358-1.1974-17.627 18.224-14.286 25.383-10.15 10.322-27.423 13.952-31.494 18.827-17.741 2.0986-30.533-1.6947-47.807-3.717-19.062 3.0907-36.875 10.924-55.957 13.894 3.8462 5.7166 23.968 29.003 2.8321 21.473l-2.995-0.84017z" fill="param(fill)" fill-opacity="param(fill-opacity)" stroke="param(outline)" stroke-opacity="param(outline-opacity)" stroke-width="param(outline-width) 0.2"/>
</svg>
