<?xml version="1.0" encoding="UTF-8"?>
<svg version="1.1"  width="512" height="512" viewBox="0 0 512 512" xmlns="http://www.w3.org/2000/svg">
  <path d="m163.44 377.94c-0.064-17.035-4.4655-35.558-5.7448-52.115-6.7601-5.91-20.652-14.589-3.1492-9.4431 24.099 5.3083 49.158 2.0386 73.664 2.8456 17.956-0.63878 39.13-11.395 46.03 12.754 5.86 11.867 15.261 9.5008 26.132 7.15 17.944-3.7955 37.977-0.56396 54.472-9.9962 19.018-13.144-15.075-26.585-13.849-30.103 21.784-2.8767 45.555-3.4223 66.022 5.4159 20.129 16.767 44.318 37.863 72.643 31.131 18.137-8.0594-15.495-0.37853-19.53-10.695-19.906-10.558-11.426-36.945-8.6698-54.539 5.6506-13.744 14.121-34.949 30.803-35.487 24.361 2.9404-5.2683-7.7489-14.474-3.6245-18.898 1.7277-37.673 7.5918-53.194 18.478-20.771 2.062-42.503-9e-3 -61.475-9.2018 9.25-6.3561 19.148-12.513 24.812-22.561-9.2981-10.5-26.196-10.126-38.526-17.306-17.962-4.8658-33.633-16.64-50.992-22.85-15.533-6.9184-30.904-13.035-47.282-18.125-16.115-4.014-31.654-11.203-48.755-12.247-20.052-6.2952-32.332 10.642-43.876 21.403-31.808 1.958-61.413 14.687-91.844 22.744-21.308 1.0488-40.652 10.744-41.9 34.185-7.7801 13.435-7.4812 29.891 6.8496 26.357-13.525 18.046 19.696 18.694 27.331 30.404 17.032 7.2291 30.049 22.053 49.032 25.056 8.5535 6.3405 27.19-0.17268 27.991 13.254 7.5587 22.897 18.035 46.578 38.466 60.8l0.0787-1.0817z" fill="param(fill)" fill-opacity="param(fill-opacity)" stroke="param(outline)" stroke-opacity="param(outline-opacity)" stroke-width="param(outline-width) 0.2"/>
</svg>
