<?xml version="1.0" encoding="UTF-8"?>
<svg version="1.1" width="512" height="512" viewBox="0 0 512 512" xmlns="http://www.w3.org/2000/svg">
  <path d="m234.95 394.67c17.728-7.8096 29.132-29.511 26.373-48.595-1.7575-11.631-32.628-10.753-8.3733-11.139 17.747-0.45245 35.671 0.59681 53.263-2.2292 13.614 12.604 27.405 27.315 45.947 31.835 15.041-4.883 22.634-28.308 24.674-43.124-6.8946-4.2189-33.105-7.9387-11.833-12.472 20.188-6.0939 43.904-5.987 60.883 8.0475 22.445 12.502 44.975 26.088 70.005 32.638 7.8286-15.965-8.5712-33.978-16.259-47.931-14.097-13.649-17.057-35.672-4.8538-51.491 7.412-17.793 23.566-35.398 20.962-55.205-22.63 8.0186-40.733 25.535-61.295 37.783-7.2796 4.0008-14.111 9.8822-21.727 12.86-16.892-0.0608-33.992-2.4455-50.09-7.5479 6.0416-10.631 27.327-22.598 5.2326-30.354-25.255-17.486-54.742-27.824-83.503-37.721-21.129-6.5128-43.613-9.9284-63.76-19.468-10.417 3.732-16.062 21.096-22.359 30.972-3.8635 8.2337-4.9132 19.425-16.913 16.14-33.027 1.5154-64.863 12.982-92.364 31.126-26.582 14.673-52.663 32.106-71.738 56.007-2.5528 17.93 17.294 20.485 29.727 29.645 34.563 25.464 3.9158 0.64545 5.7771 0.82328 41.017 14.915 84.963 18.116 128.18 21.022 13.392 2.0617 39.873-5.4349 30.096 16.752-1.4563 15.756-3.0889 46.206 20.851 42.451l3.094-0.82494z" fill="param(fill)" fill-opacity="param(fill-opacity)" stroke="param(outline)" stroke-opacity="param(outline-opacity)" stroke-width="param(outline-width) 0.2"/>
</svg>
