<?xml version="1.0" encoding="UTF-8"?>
<svg version="1.1" width="512" height="512" viewBox="0 0 512 512" xmlns="http://www.w3.org/2000/svg">
  <path d="m436.07 368.42c-32.428-10.711-57.999-35.936-90.76-45.985 9.774 19.406-12.516 32.696-29.822 30.172-25.402 0.55143-50.865-6.5891-72.326-20.172-16.133-0.1224-32.275-0.72926-48.403-0.27927 12.002 15.825 2.4184 42.277-19.84 33.184-20.782-6.0011-40.75-20.769-46.278-42.496-26.631-9.739-53.862-20.01-75.614-38.987-14.053-14.648-38.902-27.992-36.786-51.126 4.1372-20.553 18.694-37.796 38.167-45.54 38.879-19.396 81.722-29.041 124.38-35.873 16.192-12.43 38.204-26.509 58.566-15.033 18.401 8.8042 22.976 33.3 43.569 38.664 19.247 9.411 40.912 4.059 60.899 8.3167 20.402 5.476 40.888 22.163 42.591 44.359 1.5194 13.934-23.891 32.648 1.7134 33.324 28.603 6.0863 59.395 1.358 86.758 12.863 17.931 8.0535 21.111 30.611 15.378 47.512-5.2579 20.291-15.449 47.682-40.177 48.684-4.0573 0.0997-8.1059-0.53038-12.015-1.5865z" fill="param(fill)" fill-opacity="param(fill-opacity)" stroke="param(outline)" stroke-opacity="param(outline-opacity)" stroke-width="param(outline-width) 0.2"/>
</svg>
