<?xml version="1.0" encoding="UTF-8"?>
<svg version="1.1" width="512" height="512" viewBox="0 0 512 512" xmlns="http://www.w3.org/2000/svg">
  <path d="m306.6 407.73c4.111-16.328-20.232-28.118-28.927-41.233-8.3707-7.4372-17.764-16.312-0.44249-17.718 47.396-19.095 91.667-47.252 126.6-84.774 13.998 10.129 21.454 34.713 34.007 49.383 11.359 12.798 20.323 34.766 34.203 41.557 5.5053-37.45 4.9451-75.907 13.376-113.06 4.8969-26.149 12.741-51.758 16.548-78.083-13.74-3.8508-28.003 20.154-40.602 27.643-17.326 15.418-34.301 31.234-51.841 46.409-34.883-18.039-67.429-40.72-102.9-57.875-11.172-7.1396-29.62-11.62-38.366-17.897 14.826-15.208 20.746-38.884 41.403-47.761 5.2262-1.6672-7.6254-7.9929-12.086-5.2437-27.063-0.7303-56.713 1.358-76.805 21.966-11.674 5.7739-14.478 26.282-29.458 22.798-19.168 0.41877-39.177 2.5104-56.56 10.972-15.379 11.138-37.646 14.762-52.871 28.384-21.578 15.033-38.793 35.381-52.563 57.592-19.452 0.55519-11.667 18.608-11.051 21.113-21.97 10.203 10.71 14.64 8.1371 28.566 4.258 19.768 18.193 39.101 39.941 40.236 20.214 4.6622 41.178 4.157 61.53 7.067 15.98 12.052 37.814 7.1372 56.536 9.5277 9.358 0.79952 19.289-0.079 28.292 1.7589 26.737 18.477 53.279 38.704 84.305 49.278 3.14 0.66559 6.7088 1.279 9.5946-0.60377z" fill="param(fill)" fill-opacity="param(fill-opacity)" stroke="param(outline)" stroke-opacity="param(outline-opacity)" stroke-width="param(outline-width) 0.2"/>
</svg>
