<?xml version="1.0" encoding="UTF-8"?>
<svg version="1.1" width="512" height="512" viewBox="0 0 512 512" xmlns="http://www.w3.org/2000/svg">
  <path d="m256.81 464.99c-40.616-44.153-82.473-87.458-122.6-131.92-12.012-26.845-24.096-53.658-36.021-80.541 14.563 15.6 44.361 10.302 49.021 33.068 35.339 77.601 107.01 137.19 188.78 160.45-27.329-32.846-52.341-72.291-50.869-116.73-1.2438-32.095 8.4411-64.521 0.9735-96.217 22.595 3.1465 24.935 33.766 37.392 49.294 10.549 23.044 34.628 31.423 57.678 35.835 17.884 4.4321 50.764 13.884 58.558 14.457-24.811-9.7506-49.895-18.792-74.699-28.558 6.6936-20.209 9.996-41.626 18.361-61.406-0.63574-19.201 10.48-42.815 12.925-55.767 25.02 3.3649 49.965 7.3349 75.047 10.214-30.478-9.1804-60.926-18.931-91.994-25.854-29.714-0.24278-50.419 31.097-81.283 26.807-13.704-13.24-11.736-38.882-15.72-57.545 6.1523-21.167 36.395-13.766 51.148-27.063 7.6975-12.236 4.6612-32.136 12.473-45.979 4.3742-32.476 39.013-23.229 61.688-30.923 10.294-2.6344 29.254-4.1356 9.1759-4.1329-63.849-3.1074-128.88-5.7955-191.21 11.273-40.559 11.128-82.317 21.982-118.59 43.932-23.444 14.538-37.208 40.227-61.462 53.556-9.1629 5.221-22.249 22.664-13.298 25.44-10.336 11.144 16.831 29.183 19.713 43.131 23.708 28.897 35.254 65.053 51.791 98.129 7.6417 14.681 12.575 31.08 22.051 44.597 31.845 37.685 63.022 75.993 95.544 113.06-31.444-40.475-64.212-80.131-95.39-120.76-12.84-29.457-25.861-58.835-38.477-88.389 15.259 26.743 28.529 54.778 43.56 81.547 44.467 45.219 88.615 90.757 133.52 135.54-2.4567-2.9748-5.1973-5.6991-7.7848-8.5575zm-32.434 4.075c-6.8103-6.5897 4.6938 6.4511 0 0z" fill="param(fill)" fill-opacity="param(fill-opacity)" stroke="param(outline)" stroke-opacity="param(outline-opacity)" stroke-width="param(outline-width) 0.2"/>
</svg>
