<svg width="512" height="512" version="1.1" viewBox="0 0 512 512" xmlns="http://www.w3.org/2000/svg">
  <path d="m215.71 314.47c5.4794-0.55993 31.371 47.098 28.881-2.2873 27.1-3.6607 56.073-9.4693 79.344-11.744 19.036-1.861 15.013 3.1086 27.677 2.7137 17.619-0.54932-13.2-9.4983 1.4492-13.983 27.522-14.481 41.64-16.078 69.542-16.729l25.768 7.4156c15.965 4.5944 21.428 7.9074 42.509 11.989 0 0 8.6313-0.5441-15.786-16.945-12.1-8.1276-15.168-9.4741-16.541-10.947l-19.852-12.802c11.152-4.3029 18.899-14.117 25.795-19.243 15.902-11.667 17.431-12.259 18.126-16.23 0.55712-3.1811-16.085 2.1096-32.324 8.7237-18.202 7.413-6.9923 0.92931-26.791 11.11l-18.033 9.2727-43.727-7.1259c-32.607-5.3137-56.999-7.4293-66.074-9.2043-16.032-3.1357-27.89-4.1991-27.89-4.1991s-15.553-3.0675-25.018-3.1581c-14.442-2.0508-10.047-10.259-12.744-19.37-3.827-11.886-1.4051-26.156-16.608-15.523l-16.85 32.765c-34.094 6.6788-67.389 3.9766-92.593 8.0838-54.542 9.0995-55.986 11.683-78.916 22.173-14.304 4.6701-5.2395 3.6847-13.313 11.921-1.2895 1.2112-2.3445 8.5287-2.3445 9.1902 0 3.4534 10.326 10.491 25.947 18.336 21.213 10.654 55.153 18.425 104.15 23.846 13.931 1.5414 49.834 3.6115 56.503 3.2578 6.9927 2.6e-4 15-0.81291 19.714-1.3052z" fill="param(fill)" fill-opacity="param(fill-opacity)" stroke="param(outline)" stroke-opacity="param(outline-opacity)" stroke-width="param(outline-width) 0.2"/>
</svg>
