<?xml version="1.0" encoding="UTF-8"?>
<svg version="1.1" width="512" height="512" viewBox="0 0 512 512" xmlns="http://www.w3.org/2000/svg">
  <path d="m276.99 423.54c-11.652-15.11-24.342-29.386-36.16-44.357 51.93 6.0313 104.79 15.772 157.07 8.0282 22.443-2.8004 45.147-21.653 40.907-46.217 2.1963-20.801-25.658-38.035-33.461-43.16 24.204 5.0406 38.907 25.993 55.855 41.835 21.091 4.596 20.327-32.635 27.811-47.6 6.1144-23.285 15.448-48.118 8.5612-72.194-13.236-22.013-34.401 5.376-49.883 10.822-10.038 3.6198-28.104 20.232-33.718 15.519 22.455-27.176 29.033-63.607 32.054-97.821 1.03-23.725-23.52-36.888-43.438-42.046-3.8093-2.059-22.678-3.6082-10.123-6.8822-7.8433-2.7123-21.592-3.8522-24.375-6.8564 9.8901-4.7573-30.96-1.7759-6.3425-7.37-9.8098-3.315-31.892 2.7863-20.864-5.6086-6.1535-0.6961-22.303 0.40428-10.961-4.6557-9.2036-4.7521-28.163 6.7484-16.499-6.1784-11.142-0.67123-39.327 22.845-21.217 1.471 7.1925-10.852-20.301 6.9405-25.847 7.6656-21.309 10.513 24.767-21.143-0.59577-8.8146-13.502 4.5766-34.069 21.691-40.263 22.61 4.1411-7.0454 20.737-28.224 4.3472-14.037-11.446 6.6784-32.754 30.596-36.713 27.227 3.0904-7.6749 13.41-27.337 0.75225-10.756-4.4266 5.1386-13.36 21.899-9.0869 5.597-11.655 17.088-18.994 37.171-37.278 48.761-22.089 19.697-31.548 50.499-57.189 66.506-18.898 13.391-29.642 37.799-53.68 43.322-17.645 0.80308-26.17 22.42-5.2583 27.008 31.312 13.659 52.557 42.197 83.506 56.469 17.185 9.6974 36.576 15.123 54.538 22.527 17.11 17.56 35.685 34.576 59.768 41.719 15.924 5.6889 31.891 12.331 47.781 17.465z" fill="param(fill)" fill-opacity="param(fill-opacity)" stroke="param(outline)" stroke-opacity="param(outline-opacity)" stroke-width="param(outline-width) 0.2"/>
</svg>
