<?xml version="1.0" encoding="UTF-8"?>
<svg version="1.1" width="512" height="512" viewBox="0 0 512 512" xmlns="http://www.w3.org/2000/svg">
  <path d="m220.8 502.25c-8.4047-34.047-30.068-63.804-34.96-99.138-7.8807-30.99 14.098 19.268 20.685 28.197 12.873 25.938 35.131 53.724 56.03 67.733-12.877-29.124-42.108-48.861-50.345-80.844-8.154-36.925-31.712-68.373-37.597-105.85 32.104-1.522 43.136 34.157 57.349 56.248 14.705 27.463 37.494 50.116 63.14 67.506 13.584 5.1519 42.967 30.653 49.166 22.707-25.57-17.335-50.878-39.947-54.604-72.722-7.3136-46.729 7.6583-95.511-8.3991-141.24 17.485-19.241 36.086 2.4008 50.773 12.71 14.528 12.209 70.358 29.564 46.085-7.6998-17.945-27.316-15.429-62.377 3.0245-88.711 19.367-37.176-42.803-8.3119-50.581 8.7901-13.696 29.035-55.908 30.494-57.585-6.5279 0.62374-17.242 15.706-32.852 13.813-51.39-3.7193-36.249 28.167-66.741 19.537-103.05-34.295 20.532-63.446 51.625-81.323 87.686-23.284 32.951-59.525 53.721-87.945 81.652-9.3018 25.652-61.505 38.937-41.315 69.033 15.69 20.611 26.852 46.683 50.164 59.995 10.059 54.957 31.757 106.95 51.567 158.92 6.0147 11.374 13.446 31.753 23.322 35.996z" fill="param(fill)" fill-opacity="param(fill-opacity)" stroke="param(outline)" stroke-opacity="param(outline-opacity)" stroke-width="param(outline-width) 0.2"/>
</svg>
