<?xml version="1.0" encoding="UTF-8"?>
<svg version="1.1" width="512" height="512" viewBox="0 0 512 512" xmlns="http://www.w3.org/2000/svg">
  <path d="m234.52 360.72c-3.6015-8.9718-13.202-10.608-14.187-9.5767-5.8883-10.76-10.018-22.337-14.304-33.795-34.748-0.64251-69.5-1.8436-104.02-6.1159-16.144-1.5996-35.606 0.27959-47.965-11.916 6.9375-4.21-11.157-5.7416 0.37064-11.881 15.804-13.31 33.862-26.755 55.551-26.584 7.0699-1.7511 16.426 1.5252 21.129-5.3702 26.24-27.228 55.765-51.406 89.411-68.967 35.015-20.117 75.113-31.838 115.46-32.616-6.5984 7.6914-20.951 9.3747-28.201 18.94-3.8225 5.0522-19.928 12.908-3.5198 9.7726 14.8-1.3953 30.177-3.4252 44.752-2.2825-11.386 5.4237-22.556 11.567-34.35 15.305-13.18 6.8724-27.742 11.994-39.982 20.456-13.936 5.6949-25.672 16.398-37.672 25.359-5.4484 3.4627-18.334 11.715-3.2963 10.112 9.3342 0.0626 19.219 1.8166 28.302 0.85685 24.611-17.93 53.109-29.718 82.174-38.262-12.238 8.2922-28.15 29.089-9.8989 40.042 6.5831 5.2008 29.503 5.3956 9.4474 9.3607-8.6686 0.88782-14.643 7.6213-1.8953 6.3793 7.8677 0.26892 16.296 3.9695 23.239-1.35 22.591-10.134 45.219-23.291 70.061-25.188-17.017 5.7826-28.313 20.496-40.615 32.846-11.522 10.579 17.062 13.503 22.135 21.931 14.103 10.724 29.092 22.208 47.91 20.862-4.5893 3.4266-29.492 1.3842-40.807-1.3173-21.842-5.008-42.474-13.91-63.277-21.912-13.092-1.7869-26.815-1.2159-39.129 3.9498 6.3083 3.6671 26.056 3.193 9.6316 9.6218-10.764 2.0204-23.088 6.4449-24.827 16.843-11.528-2.2694-21.199-10.508-31.897-14.26-7.9686 0.83696-28.437 4.0195-9.5326 7.7692 1.3195 7.9414 11.254 16.579 13.527 22.363-1.1801 4.1211 2.8855 10.876-6.6224 13.487-1.9255 7.3573-5.5706 1.6279-8.3041 7.0664-5.0922-0.83826-7.2897 10.216-15.588 4.4606-5.9729 5.4546-10.392-1.7636-13.217-6.3899z" fill="param(fill)" fill-opacity="param(fill-opacity)" stroke="param(outline)" stroke-opacity="param(outline-opacity)" stroke-width="param(outline-width) 0.2"/>
</svg>
