<?xml version="1.0" encoding="UTF-8"?>
<svg version="1.1" width="512" height="512" viewBox="0 0 512 512" xmlns="http://www.w3.org/2000/svg">
  <path d="m252.32 349.69c-16.12-2.5455-28.895-13.489-43.413-19.627-29.49-2.6436-59.446-5.4447-87.092-16.878-6.9621 4.7032 2.4617 20.44 5.318 29.03-14.729-10.042-23.217-26.59-32.072-41.225-13.514-8.6533-27.326-16.874-42.21-22.901-13.098-9.2997-32.79-16.198-35.94-33.853 2.8451-15.999 28.225-19.184 41.77-26.898 33.932-13.231 70.798-17.306 106.92-13.457 14.101-0.56485 29.308 6.2832 42.549-0.0724 18.628-7.7986 36.954-21.034 58.179-17.981-6.9831 12.381-4.6271 26.761 5.0804 36.492 16.743 14.558 39.405 19.077 58.767 29.202 15.493 14.099 38.977-2.3102 49.603 16.738 18.764 2.6331 38.898 6.5385 56.535-2.913 18.953-8.1639 39.079-13.079 58.878-18.454-5.9134 11.347-12.36 24.478-13.049 37.021-4.112 9.4564 0.58834 26.917 5.1238 37.439 2.4165 7.5467 3.8268 14.064 8.4039 21.806-28.837 3.3417-52.172-18.355-78.817-25.364-13.693-4.5246-34.998-3.3618-45.899 0.0691 15.256 0.64617 12.996 27.64-2.9066 17.315-16.233-2.6225-29.966-18.053-47.269-12.694-16.12 2.4849-32.43 3.5399-48.542 6.0428 6.6832 6.8298-23.955-2.3139-31.874 1.6468-9.7569 3.2415 16.47 4.7179 20.319 9.5918 8.5162 2.3356 24.332 13.959 5.4729 10.818-4.6179-0.14901-9.2604-0.21924-13.838-0.89553zm-209.44-90.481c-5.6222-5.3494-22.526-10.313-6.9494-3.3042 1.9986-0.0269 5.0043 5.1444 6.9494 3.3042z" fill="param(fill)" fill-opacity="param(fill-opacity)" stroke="param(outline)" stroke-opacity="param(outline-opacity)" stroke-width="param(outline-width) 0.2"/>
</svg>
