<?xml version="1.0" encoding="UTF-8"?>
<svg version="1.1" width="512" height="512" viewBox="0 0 512 512" xmlns="http://www.w3.org/2000/svg">
  <path d="m262.13 122.7c7.597 2.374 19.077 4.1586 29.409 4.4783 7.7336 3.4493 18.169 2.0903 25.317 7.9579 5.9657-0.58264 13.872 5.1613 16.567 5.1169 1.7401 6.2475 23.964 11.411 22.805 15.415 7.092 3.4643 9.0644 4.5254 11.786 10.477 10.585-1.2498-0.99472 6.3297 10.116 9.6597 10.951 10.881 13.723 21.059 18.472 33.51 7.2026 4.8689-2.9324 6.8653 7.588 11.549-8.3215 0.18345 5.0813 5.7281-2.2423 8.2824 3.0664 5.6534 3.5471 20.47 11.894 8.4669 17.725-13.687 50.216-12.819 59.605 10.347 11.052 18.084 3.5918 42.246-15.811 50.852-16.489 8.9063-41.398 8.5866-52.304-8.8538-10.912-14.552-16.057 2.8123-15.955 12.238-6.9585 7.4425-4.5588 16.361-15.18 25.342-1.3172 9.4172-13.632 15.74-20.868 22.311-9.9305 5.4498-15.158 14.915-27.991 17.928-1.0455 6.8089-13.195 9.0015-19.424 14.572-8.4554 4.5947-21.669 7.766-26.602 11.485-10.002 0.95092-18.326 2.9422-27.023 4.7927-12.768 0.96377-22.735-0.64803-33.652-0.39207-10.742 0.94226-26.915-5.1114-29.793-2.5044-9.3244-0.77349-18.522-4.8824-29.151-6.4536-11.261-3.6019-22.951-3.5304-33.552-11.624-9.2137-3.2183-23.46-15.259-31.95-26.84-7.9931-10.339-17.413-17.826-25.533-26.827-7.2529-10.727-22.188-15.715-20.027-31.446 13.259-8.6156-18.93-15.003-2.5217-22.362 5.2172-1.5821 12.097-9.1042 0.35-3.559-21.747-4.0636 7.8024-20.407 14.306-26.288 19.317-8.6424 13.482-29.206 16.807-45.952 4.445-12.308 10.469-23.329 22.517-27.272 1.6572 8.41 11.391-7.3024 9.8566 7.2022 7.3236 9.6832 5.916-20.153 12.903-25.652 0.18176 8.7678 9.3753-12.279 10.185-1.8153 3.7878-4.437 11.548-7.8595 13.888-7.5627 1.9163 3.0786 6.7032-6.6835 9.6034-1.3035 11.01-8.3638 18.514-4.7938 26.656-9.6469 4.7467-0.46929 20.482-5.0682 22.909-3.6595 0.99573 5.4706 8.2469-6.1275 10.468 0.56485 10.496-2.4154 19.34-2.1594 25.116-2.5473 9.5697-2.0401 11.497 3.6034 20.821-1.595l-0.36632 1.6087z" fill="param(fill)" fill-opacity="param(fill-opacity)" stroke="param(outline)" stroke-opacity="param(outline-opacity)" stroke-width="param(outline-width) 0.2"/>
</svg>
