<svg version="1.1" width="512" height="512" viewBox="0 0 512 512" xmlns="http://www.w3.org/2000/svg">
 <path d="m159.66 484.33c-10.963-0.72755-24.417-2.0855-29.898-3.0177-7.7152-1.3121-13.825-1.6222-27.051-1.373-16.155 0.30437-17.627 0.1796-27.051-2.2933-6.7693-1.7763-12.601-2.6552-18.18-2.7399-5.2563-0.0798-8.7591-0.57746-9.7288-1.3822-2.7297-2.2655-1.5506-9.5715 1.749-10.838 0.78029-0.29943 3.4798 0.0677 5.999 0.81579 4.676 1.3886 18.729 4.2506 20.872 4.2509 3.1378 4.3e-4 0.30008-2.0198-9.0169-6.4193-9.496-4.484-20.957-8.767-23.461-8.767-0.59394 0-4.608-1.7062-8.9202-3.7915-4.3122-2.0853-10.461-4.3969-13.664-5.1369-3.2971-0.76172-6.3852-2.1023-7.1176-3.0899-2.6559-3.5814 1.1458-11.928 5.682-12.474 1.7056-0.20548 3.7225 0.85661 6.9791 3.6752 5.1456 4.4535 7.5414 5.5944 23.524 11.203 10.528 3.6944 28.637 7.5262 29.848 6.3158 1.5077-1.5077-15.495-30.444-21.815-37.127-2.5188-2.6632-4.5796-5.5547-4.5796-6.4255 0-1.9457 5.036-5.1323 9.4196-5.9604 2.6642-0.50332 3.5625-0.22822 4.9831 1.5261 0.95312 1.1771 1.7423 3.0538 1.7538 4.1706 0.05086 4.9534 8.6456 17.91 19.313 29.114 4.6563 4.8905 5.6789 5.5499 7.2789 4.6936 3.9322-2.1045 1.5004-19.857-4.9595-36.204l-3.039-7.6905 2.2404-1.8142c1.7311-1.4018 3.4451-1.7505 7.5402-1.5342l5.2998 0.27994 0.61716 11.39c0.68261 12.598 2.1052 18.824 6.5945 28.865 4.2942 9.6038 5.4598 9.194 9.8822-3.4747 2.4107-6.9057 3.7131-12.504 4.0299-17.322 0.65359-9.94 2.1854-11.245 9.2466-7.8779 4.5589 2.174 5.1751 5.0502 2.0495 9.5667-3.2691 4.7239-5.1538 12.682-6.0828 25.685-0.58157 8.1399-0.47863 11.178 0.42231 12.464 1.2651 1.8062 6.6334 2.9922 21.648 4.7824 4.6983 0.56022 12.329 1.6632 16.957 2.451 4.6283 0.78782 8.6173 1.2301 8.8645 0.9829 0.24721-0.24723-1.4318-3.5791-3.7311-7.4042-7.0297-11.694-23.394-45.529-24.921-51.527-2.2201-8.7185-1.8711-13.585 1.4514-20.234 3.2592-6.5221 7.2938-10.478 14.318-14.037 8.9504-4.5355 51.227-15.598 59.611-15.598 4.5313 0 7.6538-1.3439 7.6538-3.2941 0-0.73096-3.7877-5.9672-8.4172-11.636-9.4178-11.532-10.445-13.243-13.566-22.608-1.9213-5.765-2.192-8.3926-2.146-20.834 0.0773-20.923 2.6624-31.913 10.825-46.019 1.8649-3.2228 2.5834-10.454 1.3564-13.651-0.30657-0.79893-2.6551-2.1493-5.2189-3.0009-5.6648-1.8815-7.7436-4.3015-20.36-23.702-10.778-16.573-12.813-18.964-18.153-21.326-2.1756-0.96238-4.4009-2.5817-4.9451-3.5985-2.048-3.8268-6.722-30.908-8.1524-47.236l-1.4854-16.955-7.4267-7.6457c-4.0847-4.2051-10.431-11.703-14.102-16.663-7.3358-9.9084-10.135-12.765-16.176-16.508-3.0262-1.875-4.0339-3.0998-4.0339-4.9034 0-2.4256 3.7565-7.0636 5.7211-7.0636 0.58391 0 5.5737 4.4847 11.088 9.9661s10.592 9.9661 11.284 9.9661c2.4254 0 3.7033-7.697 3.7033-22.305v-14.237l-4.0238-7.8406c-3.9438-7.6849-3.9882-7.8762-2.2322-9.6322 2.6863-2.6863 7.2951-3.4043 10.091-1.5722 1.7805 1.1666 2.3388 2.3688 2.3531 5.0669 0.0314 5.91 5.5117 33.518 7.1497 36.018 0.8437 1.2876 3.4594 3.1929 5.8127 4.2339l4.2787 1.8927 2.2536-2.1171c2.3498-2.2075 10.546-20.516 11.297-25.233 0.23755-1.4927 0.68269-4.3158 0.98922-6.2734 0.4947-3.1594 0.86425-3.5593 3.2889-3.5593 3.0616 0 8.5722 4.0989 8.5722 6.3761 0 0.80388-1.4708 3.0896-3.2685 5.0794-3.8409 4.2514-5.782 10.108-7.6851 23.189-0.75953 5.2203-1.6233 10.924-1.9194 12.676l-0.53848 3.1842 7.8922-6.646c4.3407-3.6553 9.3004-8.3984 11.022-10.54 3.8454-4.7851 6.7511-5.0749 10.753-1.0726 3.3877 3.3877 2.7884 5.3063-2.7184 8.7032-8.4546 5.2152-18.199 15.032-23.017 23.19-2.625 4.4442-4.7487 9.2124-4.7374 10.636 0.0113 1.4196 0.87223 6.4251 1.9132 11.123 1.041 4.6983 2.5439 13.811 3.3399 20.249 0.79599 6.4389 2.1204 13.7 2.9431 16.136 3.4513 10.218 9.9762 20.206 20.254 31.005 3.9748 4.1763 9.0322 10.049 11.239 13.051 2.2065 3.0017 4.598 5.4576 5.3143 5.4576s3.502-3.429 6.1904-7.62c3.8273-5.9665 5.1778-9.1347 6.2236-14.6 0.73458-3.8393 2.3912-9.3673 3.6812-12.284 2.1698-4.9062 2.3051-6.0719 1.8054-15.545-0.52532-9.9577-0.47365-10.319 1.8685-13.079 1.3248-1.5607 4.0529-3.6761 6.0624-4.7009 5.5972-2.8543 14.84-10.394 21.05-17.171 6.897-7.5269 12.224-10.141 20.567-10.093 12.045 0.0695 17.053 3.883 25.155 19.153 4.3076 8.1187 7.9525 13.527 12.078 17.919 3.2496 3.4603 5.9663 7.1457 6.0373 8.1898 0.25346 3.7308-0.29823 6.6499-2.1398 11.322-1.7332 4.3972-1.7842 5.4342-0.70306 14.281 1.0381 8.4938 0.98675 10.078-0.46849 14.46-1.433 4.3142-1.4951 5.8917-0.50418 12.802 0.62159 4.3348 1.4992 8.5944 1.9501 9.4659s5.4784 4.8054 11.172 8.7421c7.78 5.3793 12.121 9.243 17.473 15.551 8.6675 10.216 13.147 12.802 18.092 10.444 2.7551-1.3138 17.415-13.611 29.955-25.128l4.3471-3.9923-2.889-2.9124c-2.3478-2.3668-4.9261-3.4328-13.763-5.6906-5.9805-1.528-12.47-3.0308-14.421-3.3396-6.0591-0.95863-6.8332-6.7245-1.5453-11.51 1.7806-1.6114 2.0878-1.5598 7.9629 1.3373 7.0308 3.467 19.068 6.8456 24.39 6.8456 6.149 0 9.683-2.1441 13.992-8.4887 2.1729-3.1998 5.8198-7.9222 8.1042-10.494 7.308-8.2284 12.088-16.053 12.604-20.631 0.36446-3.2334 0.98873-4.4429 2.6944-5.22 2.9141-1.3278 7.7808 0.0692 9.5561 2.743 1.2375 1.8638 1.1014 2.3262-1.5847 5.3856-1.6162 1.8407-6.3491 8.7919-10.518 15.447-5.5965 8.9349-7.2626 12.301-6.3692 12.868 2.2635 1.4365 9.6702 0.83993 12.729-1.0253 3.4259-2.089 17.564-19.731 21.168-26.414 2.8065-5.2044 4.8338-5.8762 9.345-3.0968 5.5243 3.4036 5.2998 7.8902-0.55964 11.183-5.889 3.3098-12.061 10.724-16.829 20.218-3.4824 6.934-6.9869 15.716-7.074 17.728-0.0642 1.4824 3.9455-1.1116 11.38-7.3619 11.94-10.039 14.283-10.554 17.098-3.7583 1.4881 3.5926 0.52704 4.8414-6.0399 7.8482-2.7737 1.27-8.5303 5.6124-13.306 10.037-8.8021 8.1552-15.511 12.141-27.965 16.615-8.5567 3.0736-11.969 5.4192-25.63 17.616-5.9168 5.2827-12.964 11.239-15.661 13.237s-8.1066 6.2552-12.022 9.4613c-9.6656 7.9147-11.172 7.7975-21.416-1.6656-5.8695-5.4222-27.576-20.709-28.332-19.952-0.22922 0.22922 0.17739 3.189 0.90359 6.5772 1.7288 8.0659 1.7053 14.794-0.10576 30.364-1.918 16.489-5.0309 26.117-10.525 32.554-2.2536 2.6402-3.9953 4.8927-3.8705 5.0057 0.12484 0.11297 2.8946-0.34939 6.155-1.0275 3.2604-0.67808 12.337-1.9966 20.169-2.9302 15.491-1.8462 15.291-1.7268 12.818-7.6464-2.0062-4.8014-1.7875-7.6434 0.71186-9.253 3.2048-2.064 8.7285-2.8132 11.157-1.5132 2.0008 1.0708 2.0711 1.5091 1.4462 9.0114l-0.65689 7.8859 3.1622 0.68133c4.5159 0.97297 8.387 3.0664 11.983 6.4802 3.7792 3.5874 3.745 3.6254 7.8911-8.754 2.4679-7.3685 2.8766-9.7711 2.3805-13.993-0.78009-6.6374 1.1434-8.9081 7.546-8.9081 8.4302 0 9.6918 2.43 5.5278 10.647-2.4362 4.8075-10.773 35.243-10.798 39.42-7e-3 1.1746 0.55351 2.1356 1.2456 2.1356 1.5994 0 16.702-14.783 27.303-26.725 6.1664-6.9464 8.6461-10.564 10.242-14.942 1.2011-3.2941 2.9381-6.2214 4.0423-6.8124 3.8941-2.0841 11.256 3.2923 11.256 8.2205 0 1.4397-1.4588 3.417-4.2298 5.7333-2.3264 1.9446-5.612 5.4896-7.3013 7.8778-1.6894 2.3882-6.261 7.759-10.159 11.935-7.9173 8.4822-21.565 28.252-20.591 29.828 1.7418 2.8183 15.693-0.45142 24.163-5.6631 2.5107-1.5448 5.0274-2.8088 5.5926-2.8088 1.8658 0 3.9828 4.159 3.9828 7.8248 0 4.1792-1.0298 4.8419-9.9249 6.3874-3.1096 0.54028-12.933 3.9227-21.831 7.5164-8.8972 3.5938-19.356 7.4786-23.241 8.633-4.4234 1.3143-10.351 4.1908-15.858 7.6951-10.698 6.8083-47.42 25.203-52.046 26.071-5.0003 0.93806-9.6361-0.28908-13.324-3.5269-2.9302-2.5727-3.3017-3.425-3.3017-7.5735 0-5.7798 3.1127-12.199 11.675-24.078 3.3867-4.6983 6.096-8.5966 6.0208-8.6629-0.0753-0.0663-3.7917 0.62818-8.2587 1.5433-4.467 0.91514-14.077 2.178-21.356 2.8064-7.2788 0.62841-16.145 1.7492-19.703 2.4906-8.6648 1.8056-12.022 1.7014-17.735-0.55029-6.3077-2.4863-8.704-2.4022-20.235 0.7096-8.7951 2.3736-11.071 2.6005-25.325 2.5252-8.6136-0.0455-19.668-0.59384-24.564-1.2186-4.8969-0.62479-9.1234-0.916-9.3922-0.64714-0.80904 0.80904 2.0486 9.6473 8.2362 25.473 11.672 29.853 15.585 50.07 10.909 56.366-3.827 5.1536-7.0823 6.2651-19.21 6.5589-6.0849 0.14744-20.033-0.32721-30.996-1.0548z" fill="param(fill)" fill-opacity="param(fill-opacity)" stroke="param(outline)" stroke-opacity="param(outline-opacity)" stroke-width="param(outline-width) 0.2"/>
</svg>
