<svg version="1.1" width="512" height="512" viewBox="0 0 512 512" xmlns="http://www.w3.org/2000/svg">
  <path d="m264.46 446.51c-31.88-5.9327-59.494-23.387-87.324-39.048-18.193-11.13-37.105-20.023-58.919-19.862-9.7598-5e-3 -36.252 0.85577-21.503-14.949 12.854 8.557 27.261-2.7634 12.34-14.131-8.3127-5.7647-43.28-17.957-17.665-25.242 10.471 8.5512 37.061 30.901 45.288 15.654-12.759-6.9877-10.204-20.835 5.1696-19.317 11.647-16.992 32.707-16.1 50.799-13.124 25.155 3.0891 49.6 11.561 74.674 14.061-15.657-14.643-37.215-24.259-47.217-44.577-13.059-15.02-9.2401-35.412-14.9-52.861-9.6541-24.776-35.689-6.326-51.632 0.57978-19.585 14.075-38.882-5.4106-49.574-20.969-13.582-16.182-36.036-23.409-56.628-19.027-9.6657 4.1801-32.206 8.8939-21.178-9.1068 14.014-3.0552 37.731 0.78325 45.684-8.6353-10.528-13.512-30.672-8.2182-41.176-17.18 6.3657-22.881 29.611 4.8852 45.17 5.3086 9.164 7.1744 26.632 2.7872 12.309-8.6312-19.318-11.192 17.467-21.889 12.207-0.37466 5.5235 17.487 23.335 38.477 35.164 12.411 3.4386-15.137 20.83-2.0958 6.6132 6.1179-13.314 13.422-10.451 40.37 12.314 33.291 10.268-4.7228 21.056-13.853 26.532-22.916-7.3768-20.078-34.155-30.62-33.238-54.61-2.3487-25.139 17.482-38.321 40.991-37.968 8.9423-2.2722 20.587 1.3037 26.039-8.0741 14.214-17.695 46.954-6.6664 44.797 17.374 12.526 16.154 26.975 31.329 39.123 48.08 1.4174 13.589 19.292 15.004 12.436-0.34063-1.8879-14.334-12.327-21.186-24.526-21.492 6.0639-23.784 36.91 21.039 34.863-7.3084 3.0038-12.101-15.283-38.412 9.5463-28.105-1.069 11.338-0.16839 43.449 20.635 27.332 7.3251-5.8027 28.011-21.373 27.919-2.2538-9.8235 6.445-26.41 9.3298-30.965 21.248-8.8781 15.643 6.2195 37.161-9.7538 49.537-8.5687 11.197-32.665-9.1792-21.12 11.139 7.7037 13.279 12.483 43.669 25.071 45.524 6.1242-16.474 14.916-43.396 37.929-35.214 15.857 4.1144 6.3693 29.308 23.854 30.632 0.95877 19.536-5.1395 39.289-3.3407 59.265 1.9062 22.324 6.7733-20.949 4.2635-29.214-1.1734-21.492 16.922-36.964 21.009-57.031 15.821 4.8216 21.854-4.2876 25.363-19.784 25.762-4.692 1.1884 22.254-3.6998 32.117-3.6066 24.529 33.566-10.897 28.589 14.36-14.471 5.1204-28.848 10.884-41.226 20.307-6.1351 24.981-15.189 49.137-19.056 74.618-5.6842 19.308-12.435 39.631-25.417 55.189-22.995 9.8002-29.296-18.006-31.322-34.777-5.6484 11.002-16.48 30.02-34.195 31.44-18.581 5.6696-37.793-0.92573-56.613-1.7921 12.413 14.976 30.452 25.93 38.545 44.187 2.9485 24.868-27.836 21.507-43.049 18.141z" fill="param(fill)" fill-opacity="param(fill-opacity)" stroke="param(outline)" stroke-opacity="param(outline-opacity)" stroke-width="param(outline-width) 0.2"/>
</svg>
