<svg version="1.1" width="512" height="512" viewBox="0 0 512 512" xmlns="http://www.w3.org/2000/svg">
 <path d="m272.29 475.49c-18.848-8.4214-33.12-24.051-51.327-33.323-23.337-2.941-47.613-2.7323-69.512-12.977-21.864-9.1743-47.988-15.706-62.704-35.431-7.4653-21.964 25.525-19.387 34.782-34.669 13.263-12.21 49.368-17.771 51.165-26.487-23.567-7.4091-48.456-12.316-68.446-27.951-17.253-14.985-46.068-28.305-48.316-52.941 2.5551-11.425 8.8876-29.976-8.2081-16.403-24.704 14.392-29.863-20.329-24.338-37.004 4.721-28.193 27.978-47.545 41.547-71.112 5.1994-11.135 8.9971-51.252 24.033-38.445 4.0063 14.172-14.941 32.595-8.0183 42.192 14.746-8.8692 27.247-44.836 43.69-37.083 1.0463 12.271-21.519 27.121-18.97 30.646 4.6144-9.5364 43.521-32.432 26.245-7.533-8.5522 5.8172-18.241 30.539-2.4197 18.672 21.493-18.887 47.282-37.361 77.315-35.405 22.514 1.7319 43.323-8.0626 57.923-24.963 10.67-12.805 16.53-32.164 36.129-33.591 18.204 2.7876 36.73 5.8723 54.919 0.92925 19.856-0.5953 46.529 3.8694 53.471 25.423 2.8408 16.04-4.9274 33.415-11.835 45.884-12.567 27.762-28.471 56.864-52.235 77.492 7.381 21.133-14.774 37.029-18.458 56.245 6.7358 16.067 38.182 12.601 50.6 12.263 2.8668-8.4855 18.621-46.237 22.868-24.523-0.91873 10.123-18.68 42.995 0.6007 32.125 15.354-13.269 29.076-29.601 47.747-38.106 14.154 10.463-22.698 30.171-18.206 36.547 13.69-4.3633 45.142-26.822 50.524-6.9559-16.909 14.825-39.465 20.436-59.97 28.438 10.979 7.7121 47.747 12.384 37.631 28.356-15.951-4.0059-34.376-10.791-50.459-18.379-16.055-7.6595-28.503-8.7543-49.061-8.1642-20.165-2.6422-51.41 3.3606-59.822-20.749-5.2361-11.77 4.0275-41.522-0.49652-42.858-19.338 27.584-46.356 51.075-79.952 58.583-8.6818 6.1864-42.447 4.3625-39.63 10.321 18.649 11.3 34.227 26.898 53.716 36.853 18.02 20.166-17.609 38.434-33.177 46.597-17.328 7.5046-43.37 4.922-56.32 15.264 21.544 10.49 48.755 16.276 68.356-1.2674 8.2175-4.8935 42.483-23.829 36.125-5.0679-8.4517 10.484-36.792 16.025-37.426 23.566 28.036 3.6384 51.709-17.522 79.664-15.945-4.0877 18.478-35.811 16.415-49.339 28.272 18.946 8.5457 42.919-0.40704 63.262 7.193 18.232 10.252-19.768 5.9757-27.968 6.9426-11.565-0.94171-40.498-0.55712-18.076 13.212 5.5967 1.945 33.276 25.929 15.58 14.462 9.1203 6.4919 15.882 21.867-3.2054 10.856zm25.531-44.209c0.91012-4.0538-50.117-4.4594-21.797-0.63814 7.2351 1.1693 14.51 1.254 21.797 0.63814zm107.11-329.84c4.5949-15.297-9.0162 20.829 0 0z" fill="param(fill)" fill-opacity="param(fill-opacity)" stroke="param(outline)" stroke-opacity="param(outline-opacity)" stroke-width="param(outline-width) 0.2"/>
</svg>
