<?xml version="1.0" encoding="UTF-8"?>
<svg version="1.1" width="512" height="512" viewBox="0 0 512 512" xmlns="http://www.w3.org/2000/svg">
  <path d="m235.78 357.65c10.642-2.7786 9.6057-0.84015 14.647-6.3741-12.776-20.69-46.275-39.651-24.135-38.919 18.537-2.288 35.278-12.059 54.561-5.4228 33.005 10.349 35.081 3.7448 52.494 7.166 10.664 3.6819 24.894-2.4687 8.0478-6.7929-0.6694-7.0032-19.515-5.8545-8.302-9.291-8.5371-2.9091-12.212-17.619-35.183-16.677 1.902-6.3473 30.867-9.1569 41.878-3.7096 30.381 11.631 59.295 27.001 90.81 35.519 34.787 12.92 47.476 8.4962 54.903-5.5283-3.014-16.363-34.167-39.616-52.344-47.27-22.75-16.348-26.556-15.908-4.2889-47.9 9.4829-16.222 50-43.462 31.597-51.959-12.49 6.5755 6.7576-14.651-5.8442-5.7077-9.6453 4.2816-9.494 3.1092-1.6598-2.1911-5.4017-13.677-40.38 6.056-51.332 8.7138-33.295 10.606-55.98 39.358-85.948 55.597-7.372 2.8665-39.599-3.5264-18.024-6.1592 8.2023-0.32547 25.404-6.2174 8.4291-11.436-8.3618-11.832-22.876-18.561-32.181-25.785-11.1-4.8535-12.023-42.446-33.945-27.837-14.234 5.7535-28.83 1.6457-41.685 10.136-16.384 10.11-33.009 20.83-53.062 20.874-28.842 1.3283-52.789 18.255-77.627 30.853-16.064 7.401-32.532 14.716-47.084 24.726-8.9653 18.172 11.922 30.804 24.435 39.901 16.934 12.574 35.477 22.852 52.564 35.076 5.7289 16.224-0.24339 38.419 14.607 50.91 16.149-6.4546-5.0636-39.081 3.6903-45.272 16.175 5.0381 36.613 0.21045 49.178 13.419 79.379 82.764 75.381 42.414 70.807 31.342zm212.45-196.79c15.111-10.303-11.242 10.465 0-3.2e-4zm-5.8525 109.34c-10.218-1.9009-0.46874 3.8092 0 0zm-184.1-108.65c9.3502-6.8901-12.483 1.6371 0 0z" fill="param(fill)" fill-opacity="param(fill-opacity)" stroke="param(outline)" stroke-opacity="param(outline-opacity)" stroke-width="param(outline-width) 0.2"/>
</svg>
