<?xml version="1.0" encoding="UTF-8"?>
<svg version="1.1" width="512" height="512" viewBox="0 0 512 512" xmlns="http://www.w3.org/2000/svg">
  <path d="m249.04 394.35c13.47-5.0729-16.647-13.024-2.8375-20.615 5.7525-10.947-21.442-14.824-0.0313-16.897 18.601-7.7083 37.755-2.8002 56.682-6.7451 11.614-0.49331-8.9353-14.098 4.4874-5.8235 16.081 10.03 34.349 17.107 52.514 22.229 6.5298-5.8268-7.8255-10.943 2.4838-17.144-8.2732-9.3785-0.85705-20.798-7.5187-30.39 17.656-10.61 40.153 7.4761 58.324 12.717 23.899 9.9974 45.074 26.286 70.053 33.505 23.579 3.8485 0.15433-20.256-1.5725-28.522 8.2007-12.218-10.321-15.42-9.9546-25.719 5.4232-14.605-19.69-13.439-11.393-29.167-8.45-11.143 9.7422-18.268 11.229-30.149 9.1008-14.975-0.57275-38.793 22.136-44.979 13.3-14.351 1.5506-32.277-14.741-16.206-32.172 20.319-68.119 33.214-101.6 51.041-15.843 11.17-33.211 5.2366-33.981-15.075-0.12786-24.991-24.807-33.687-44.358-41.122-8.9314-10.404-5.236-27.627-17.581-37.349 5.1687-22.461-26.15-32.012-37.547-14.38-16.181 19.187-33.741 37.253-48.043 57.972-39.297 1.5224-78.39 10.613-112.97 29.73-24.032 12.45-45.716 29.648-63.432 50.056 3.7663 9.8342-12.953 8.6834-0.8828 19.527 12.074 17.628 34.16 23.486 49.587 37.547 19.344 9.3968 40.185 16.567 60.97 22.963 25.156-0.0365 35.04 26.397 58.041 31.753 19.297 4.742 38.967 10.17 58.488 12.535l3.4518-1.2926z" fill="param(fill)" fill-opacity="param(fill-opacity)" stroke="param(outline)" stroke-opacity="param(outline-opacity)" stroke-width="param(outline-width) 0.2"/>
</svg>
