<svg version="1.1" width="512" height="512" viewBox="0 0 512 512" xmlns="http://www.w3.org/2000/svg">
 <g>
  <path d="m390.65 475.53c-4.2646-27.229-19.655-51.569-42.741-66.654-13.508-6.9955-16.778-26.816-28.002-33.489-29.693 1.8046 5.0817 29.809 5.4134 44.775-0.57695 20.006 27.25 28.087 28.575 44.158-33.391-14.886-68.275-28.447-97.623-50.669-17.137-14.431-29.225-33.626-39.903-53.07-2.7655 21.827-1.7991 44.771 4.0263 66.023 5.6278 2.8034 1.4898 13.764 8.7002 23.197-18.361-15.256-42.684-19.744-59.063-36.846-14.493-24.619-35.402-47.123-37.292-77.189-5.1298-8.2739 6.3546-27.522-7.7949-28.234-17.246-5.999-15.038 27.589-32.012 33.165-16.498 13.975-38.666 32.33-23.341 55.767 4.1868 9.7918 4.5883 32.224-1.2611 11.55-19.947-29.937-17.787-75.045 9.8015-99.524 9.6447-7.3077 33.238-11.851 8.2643-17.612-22.728-6.6944-44.699-18.805-62.284-34.534-10.591-12.387-19.343-28.272 0.66504-36.368 14.118-24.423 43.117-26.011 64.149-40.493 15.048-19.569 43.497-21.949 57.961-38.498 24.608-54.995 76.147-98.668 136.81-106.53 9.6498-1.1506 32.279-7.3864 16.96 7.399 0.37257 16.954-11.318 38.065-3.9153 52.502-23.031 5.1081 19.531 9.2946 15.873 25.042 24.115 13.355 10.74 45.863 9.302 61.574-13.627-6.8606-46.001-16.549-51.437-6.6018 36.374 26.698 84.47 22.742 123.96 42.526 46.26 18.567 86.999 56.393 98.364 106.28 10.232 34.56 7.961 72.235-6.8932 105.11-5.9817 9.8002 3.8054 45.382-7.8757 17.434-8.9314-22.671 12.678-50.436 0.1296-68.926-15.487-12.171-20.718-32.038-43.973-32.516-7.9528-5.6519-8.0547 9.4873-18.918 0.0221 7.7901 24.493 9.8601 52.921-2.3179 76.387-3.7252-39.864-23.882-76.102-43.973-109.92-8.2482-9.1254-20.988-26.516-10.867-5.6603 4.372 14.876-3.2177 31.901 6.0668 45.406 12.816 22.137-12.184 49.275 14.116 67.253 14.19 16.96 15.195 42.168 13.374 61.834l-1.0202-4.0809zm-197.62-59.905c-4.3868-10.984-20.799-5.2466-3.8477 0.74707 0.97799-0.31072 9.9024 7.2039 3.8477-0.74707zm-7.0298-15.096c-12.12-26.697-9.7188-56.273-10.713-84.796-12.943-1.7908-26.96-6.0374-11.274 7.5106 13.522 19.054 2.3266 42.141 4.7946 62.757-1.4212 5.2218 24.398 30.074 17.192 14.528zm122.4-58.965c-8.6848-21.684-13.732-45.096-23.901-65.956-11.485-9.2785-33.944-41.473-35.479-10.016-4.1686 21.114-35.48 32.469-40.024 44.693 15.818 17.969 39.768 21.013 62.212 22.566 12.752 1.2468 25.149 5.4059 37.192 8.7135zm-105.49-11.68c-2.8889-9.8469-27.43-24.529-12.146-5.7909 2.2985 1.5602 20.307 18.073 12.146 5.7909z" fill="param(fill)" fill-opacity="param(fill-opacity)" stroke="param(outline)" stroke-opacity="param(outline-opacity)" stroke-width="param(outline-width) 0.2"/>
 </g>
</svg>
