<?xml version="1.0" encoding="UTF-8"?>
<svg version="1.1" width="512" height="512" viewBox="0 0 512 512" xmlns="http://www.w3.org/2000/svg">
  <path d="m396.41 438.19c-14.397-24.474-20.771-53.065-38.284-75.943-10.003-20.065-27.827-33.589-42.692-49.696-11.679-9.3857-17.888-31.512-29.108-36.055-14.53 15.887-7.7842 47.929-16.153 62.001 12.005-22.794 41.553-9.7964 57.43 1.2835 12.684 20.7-23.282 31.469-37.513 38.42-16.702 7.8973-38.814 9.1816-54.064 15.079 8.0006 7.9967 17.153 43.986 7.6552 39.237-5.5209-8.8163-17.831-18.586-9.4442-1.6156-2.5645-0.78252-10.927-18.293-7.8573 0.024-2.9582 0.6092-30.897-34.976-18.304-12.524 8.2799 17.581-16.643-12.733-2.3168 7.4898 3.9141 10.848-25.339-19.634-10.08 2.7798-3.1684 4.3596-16.738-21.6-13.604-1.5395-6.9336-6.9903-9.9542-20.133-12.659-5.6939-0.31628-15.411-2.349-17.124-10.348-5.8561-3.1489-5.4779-4.116-14.411-12.655-14.326-16.773-6.5698-35.286-8.7607-51.098-17.28-20.29-14.911-41.457-28.778-61.287-44.203-15.521-15.581-35.954-34.788-23.382-58.899 27.75-21.503 51.28-49.175 84.319-63.124 20.875-11.392 37.221-30.021 59.777-39.437 21.025-11.277 17.434-37.248 25.94-56.149 9.6737-23.897 23.697-46.013 39.628-66.173 19.01 0.62361-9.9879 26.501-11.063 37.135-4.6844 7.969-9.8019 22.436-0.0837 6.7852 6.9608-10.102 22.639-29.748 26.913-30.746-12.832 18.597-26.883 38.777-36.989 57.713 14.488-17.903 28.653-39.807 46.142-52.997-15.007 20.338-29.38 41.357-39.957 64.396 13.053-18.834 24.948-38.855 41.25-55.133-11.771 20.497-25.966 41.934-34.732 62.871 13.817-18.939 25.965-39.233 41.855-56.568-11.425 19.547-25.709 37.831-34.36 58.985 12.667-16.162 23.933-38.002 38.964-49.509-10.507 17.263-25.006 36.618-30.462 54.064 10.154-13.497 23.235-37.837 33.711-43.388-4.4377 9.3442-24.233 38.635-19.968 35.94 6.157-8.2557 23.35-30.94 26.85-26.875-10.384 13.819-20.441 27.983-28.533 43.291 9.6191-10.659 21.247-28.554 31.545-33.739-6.613 7.7236-27.058 37.01-21.575 33.267 4.7046-5.628 27.86-29.518 26.3-23.12-6.9582 8.9519-32.705 38.225-11.135 18.263 5.8964-6.7155 34.042-20.683 13.861-5.3618-6.0466 4.9474-34.383 33.803-12.82 17.507 6.0661-6.2971 41.327-27.527 21.198-10.397-9.7265 7.027-29.629 27.332-7.3684 11.932 7.768-5.4479 26.912-14.085 9.2508-1.2214-9.3661 6.7366-26.666 24.171-5.6571 11.227 9.4971-6.0094 24.741-11.572 8.2473 0.87727-8.365 6.457-36.641 16.46-9.4181 10.872 10.209-2.0914 33.339-25.14 16.217-3.0682-8.027 5.1626-26.412 21.827-6.4804 8.6359 47.211-31.714 98.188-57.562 143.88-91.626 20.301-12.351 39.502-30.586 63.87-33.535-10.43 9.0704-37.243 19.864-40.678 26.473 10.808-5.1723 44.716-10.29 17.941 3.2021-14.258 8.2378 37.73-9.8842 11.702 6.6565-20.052 13.941-32.977 35.7-54.115 48.208-19.197 9.8841-19.076 38.165-42.932 39.654-10.555 3.1314-27.812 9.5341-6.8497 4.4597 10.57-2.8724 34.875-3.6274 12.381 0.88745-10.656 2.3432-31.511 13.559-7.8528 6.4223 8.8849-2.8589 24.69-3.5704 6.7205 2.1586-7.3556 3.2397-27.38 5.5312-8.1036 5.4644 24.667 1.9491-20.777 4.9191-28.312 5.7228-4.9704 2.5661 19.557 2.8695 26.455 3.2513 11.777-2.8332-6.6644 11.116 3.4439 13.744-16.151-0.36058-32.326-1.737-48.471-0.85518 13.138 6.9778 28.562 6.0284 43.017 6.2159 1.5413 26.283-29.769 10.276-44.172 7.8032 9.3254 13.876 54.778 8.7695 31.139 31.83-14.524-7.3553-14.394-1.8655-4.7002 7.6482 9.8191 5.7152 26.186 28.374 26.757 30.854-22.144-17.373 16.637 26.456-5.5917 6.0518-9.0035-3.4352 18.567 34.957 11.223 28.276-5.9913-9.6656-18.906-29.758-8.3178-7.7182 4.2163 9.0399 11.694 27.012 1.905 8.1214-4.4902-9.0032-12.277-22.565-5.9262-4.9712 4.3258 13.793-14.088-20.722-8.6753 0.37132 2.6305 27.948 13.295 54.228 19.368 81.442 1.6728 4.5 4.9004 14.403-0.70683 4.3499z" fill="param(fill)" fill-opacity="param(fill-opacity)" stroke="param(outline)" stroke-opacity="param(outline-opacity)" stroke-width="param(outline-width) 0.2"/>
</svg>
