<?xml version="1.0" encoding="UTF-8"?>
<svg version="1.1" width="512" height="512" viewBox="0 0 512 512" xmlns="http://www.w3.org/2000/svg">
  <path d="m447.08 357.7c0-0.52556-0.41683-1.6006-0.92629-2.3889-0.50946-0.78834-0.92629-1.0033-0.92629-0.47778 0 0.52555 0.41683 1.6006 0.92629 2.3889 0.50946 0.78833 0.92629 1.0033 0.92629 0.47778zm-3.793-8.5428c0-1.0538-11.273-22.42-15.751-29.854l-3.3167-5.5059 17.634-3.9909 5.7264 4.8935-4.3585-4.9706 8.6919-3.1092c4.7806-1.71 8.5389-3.2622 8.3519-3.4492-0.18701-0.18702-4.1912 0.89982-8.8981 2.4152l-8.5581 2.7552-15.289-15.871c-17.502-18.169-31.721-29.942-43.449-35.977-11.402-5.8667-16.771-7.249-28.158-7.249-5.295 0-11.129-0.43839-12.965-0.9742-7.5039-2.1899-21.613-3.8665-40.127-4.7684-10.774-0.52482-27.544-1.4056-37.267-1.9574l-17.678-1.0032-8.1222-5.101c-22.312-14.012-44.182-25.095-61.757-31.294-4.9228-1.7365-8.9514-3.5097-8.9524-3.9404-3e-3 -1.2803 18.878-9.7656 28.688-12.892 5.0054-1.5955 12.6-3.6099 16.876-4.4764 7.2236-1.4637 8.5446-1.4637 18.61 1.8e-4 20.868 3.0348 39.153 7.278 82.979 19.256 50.412 13.778 77.003 19.646 102.72 22.669 14.871 1.7477 37.656 2.6843 35.736 1.4691-0.73496-0.46535-5.0186-0.85268-9.5193-0.86072-23.22-0.0415-59.393-7.412-110.64-22.543-43.581-12.868-59.16-17.339-71.315-20.466l-10.531-2.7091 6.4772-0.0814c11.032-0.13866 33.227 2.6338 68.056 8.5011 54.972 9.2606 52.693 9.0036 80.267 9.0518 20.443 0.0357 26.283-0.26239 32.967-1.6828 9.6192-2.0443 22.161-5.5758 21.643-6.094-0.20129-0.20129-3.5408 0.48952-7.421 1.5351-23.594 6.358-53.827 6.4142-89.291 0.16621-5.7492-1.0129-22.923-4.2673-38.164-7.2321-52.887-10.288-60.49-10.954-113.71-9.9627-27.642 0.51481-36.919 1.0067-42.522 2.2548-7.1985 1.6035-19.287 5.5643-26.126 8.5602-2.0185 0.88428-3.3728 1.1268-3.0094 0.53885 0.38502-0.62298-0.18518-1.2901-1.3668-1.5991-1.5271-0.39936-1.7752-0.83406-1.0053-1.7617 0.72705-0.87603 0.72164-1.4172-0.0187-1.8748-0.57246-0.3538-0.7952-1.4172-0.49499-2.363 0.4063-1.2802-0.0986-1.8815-1.9752-2.3525-2.0773-0.52136-2.4396-1.0586-2.0586-3.052 0.35857-1.8757-0.056-2.6554-1.8451-3.4706-1.395-0.63559-2.1024-1.5859-1.7889-2.4029 0.31463-0.81994-0.23462-1.5485-1.3964-1.8524-1.0533-0.27544-1.9151-0.9165-1.9151-1.4246 0-0.50808-1.4596-2.3413-3.2436-4.0738-1.784-1.7325-3.526-4.0396-3.8711-5.127-0.74564-2.3493-4.1104-3.6541-5.5948-2.1697-1.2935 1.2935-7.9879 1.3935-8.7682 0.13096-0.35784-0.579-1.4132-0.53454-2.8499 0.12006-3.4111 1.5542-8.5778 0.24756-10.074-2.5477-0.84653-1.5817-1.6186-2.0688-2.3358-1.4735-0.62974 0.52263-1.6351 0.54071-2.439 0.0439-1.0149-0.62722-1.6845-0.0918-2.5959 2.0759-1.2105 2.8788-1.303 2.9118-6.3918 2.276-3.4278-0.42828-5.3856-0.28587-5.8241 0.42364-0.39423 0.63789-1.7796 0.823-3.4362 0.45914-1.5266-0.33531-2.7757-0.21814-2.7757 0.26036 0 0.47851-1.0603 1.4375-2.3563 2.1311-1.844 0.98691-2.6575 1.0111-3.7419 0.11116-1.1169-0.92696-1.496-0.80203-1.955 0.64436-0.42998 1.3548-1.2495 1.6945-3.3456 1.3868-2.3312-0.34215-2.8272-0.0474-3.0942 1.8394-0.28184 1.9911-0.78023 2.2262-4.3791 2.0659-3.0609-0.13635-4.0611 0.17368-4.0611 1.2588 0 1.0049-0.57721 1.2566-1.9111 0.83319-1.5843-0.50283-1.9111-0.17171-1.9111 1.9362 0 1.7189-0.60477 2.7009-1.8666 3.0309-1.0266 0.26847-2.5575 1.5426-3.402 2.8314-1.2488 1.9059-2.1935 2.2886-5.0612 2.0502-3.1294-0.26018-3.8233-0.83018-6.1729-5.0709l-2.6471-4.7778 0.25823 8.8527c0.22545 7.7288 0.04596 8.9198-1.414 9.3811-1.8533 0.58554-2.186 1.8803-0.71667 2.7884 1.6159 0.99867 1.0598 2.3889-0.95556 2.3889-1.4149 0-1.9111 0.63704-1.9111 2.4533 0 1.9831-0.35111 2.3418-1.8319 1.8719-1.4006-0.44453-1.7523-0.17844-1.4939 1.13 1.5079 7.635 1.4736 8.1609-0.49808 7.6453-2.4408-0.6383-2.4152 0.33219 0.09317 3.521 1.1014 1.4002 1.78 3.1258 1.508 3.8346-0.27201 0.70884-0.0581 1.7252 0.47528 2.2586 0.65609 0.65609 0.44181 1.7757-0.66234 3.4609-1.6316 2.4902-1.6312 2.491 1.1851 2.491 3.4326 0 4.4242 0.83655 3.0105 2.5399-0.75773 0.913-0.76398 1.2824-0.02169 1.2824 0.57341 0 0.79645 0.64137 0.49564 1.4253-0.3145 0.81957 0.11644 1.6798 1.014 2.0243 1.0204 0.39157 1.3607 1.2299 0.98268 2.421-0.31805 1.0021-0.22336 1.7602 0.21041 1.6848 2.4396-0.42428 3.2665 0.21476 2.6778 2.0695-0.61287 1.931-0.55339 1.9414 2.3891 0.41981 2.9883-1.5453 3.007-1.5406 1.92 0.49042-1.3739 2.5672-0.79755 3.1567 2.9812 3.0492 2.8991-0.0824 2.9779 0.022 2.4542 3.2494l-0.54113 3.3346 4.2605-0.6389c3.6783-0.55161 4.1796-0.42798 3.6681 0.90478-0.42986 1.1202-0.04004 1.5437 1.421 1.5437 1.1073 0 2.0199 0.5375 2.028 1.1944 0.01137 0.92468 0.18091 0.9328 0.75086 0.0359 1.0967-1.7257 4.9678-0.37262 4.9678 1.7364 0 1.3333 0.92831 1.9368 3.6483 2.3718 2.9522 0.47207 3.8799 1.158 4.862 3.5946l1.2137 3.0112 0.95091-2.6278c1.1895-3.2872 2.4819-3.3626 3.2779-0.19124l0.61154 2.4365 1.4144-2.0194c1.2927-1.8456 1.5567-1.8906 3.0676-0.52334 0.90921 0.82283 1.9407 1.2084 2.2922 0.85693 0.35152-0.35152 0.63912 0.14418 0.63912 1.1016 0 1.6704 0.0795 1.6687 1.9694-0.0417 1.5761-1.4264 2.1263-1.5285 2.755-0.51123 0.61687 0.99812 1.0003 0.88735 1.7856-0.51577 1.0515-1.8788 1.0187-1.9272 3.5779 5.2876 0.37562 1.0589 0.7882 0.95839 1.9608-0.47778 1.2949-1.586 1.4177-1.6048 0.95925-0.14668-0.64731 2.0587 0.66745 2.183 2.2988 0.21731 0.67059-0.80802 1.9652-1.2144 2.9118-0.91398 1.2381 0.39295 1.8191-0.0586 2.1239-1.6506 0.23433-1.224 0.477-0.39868 0.54968 1.8695 0.07157 2.2336 0.29261 4.0611 0.49121 4.0611 1.1533 0 7.2495-2.9943 7.7522-3.8077 0.90001-1.4562 2.3978-1.1668 2.3978 0.46333 0 0.78833 0.43 1.4333 0.95556 1.4333 0.52555 0 0.95555 0.63765 0.95555 1.417 0 1.1644 0.59618 1.0822 3.3444-0.46145l3.3444-1.8785v2.0047c0 1.9366 0.0839 1.9497 2.4718 0.3851 1.3595-0.89076 2.5928-1.4777 2.7406-1.3043 0.14784 0.17338 0.9181 1.5799 1.7117 3.1256l1.4429 2.8104 1.8481-3.6024c1.6263-3.1701 1.9984-3.4213 3.1002-2.0937 2.421 2.9171 3.3002 1.5708 6.347-9.7191 0.88646-3.2847 1.8776-5.9623 2.2025-5.9502 0.32491 0.0121 4.2366 4.8496 8.6927 10.75 17.548 23.235 40.187 48.619 57.116 64.04 24.07 21.926 44.958 31.966 61.232 29.433 16.593-2.5833 27.958-13.555 45.621-44.044 4.1103-7.095 7.6019-13.078 7.759-13.295 0.15711-0.21717 5.3396 2.006 11.517 4.9403 14.573 6.9229 20.709 9.4221 31.776 12.943 18.136 5.7697 38.066 8.4245 54.648 7.2797l9.259-0.63921 4.2459 6.569c2.3352 3.613 6.5212 10.869 9.3022 16.125 5.4469 10.294 7.5896 13.817 7.5896 12.479zm-200-10.106c-23.562-8.8353-54.103-38.527-92.203-89.637-14.77-19.813-14.408-19.005-12.078-27.004 0.37759-1.2965 9.8949-9.5324 13.591-11.761 0.78203-0.47155 4.6529 1.5556 10.588 5.545 21.848 14.684 46.871 24.533 73.026 28.742l9.3461 1.5039 26.481 16.513c14.565 9.0821 29.398 18.143 32.964 20.136l6.4825 3.6228-3.4587 6.3496c-5.8962 10.825-19.063 29.98-24.443 35.56-11.968 12.413-25.6 15.941-40.296 10.431zm171.33-39.235c-7.2322-10.364-22.432-26.137-32.011-33.217-3.6789-2.7193-10.967-7.0917-16.195-9.7164-5.2283-2.6247-8.8833-4.8157-8.1222-4.8689 14.62-1.0228 34.376 9.2273 55.85 28.977 14.129 12.994 26.752 26.451 25.75 27.449-0.49782 0.49595-4.3451 1.5085-8.5496 2.2501-8.9146 1.5724-7.3088 2.6166-16.722-10.874zm-28.741 11.156c-17.308-2.8097-37.256-9.5973-55.826-18.996-13.665-6.9159-13.142-5.9983-7.9054-13.873 6.1665-9.2736 14.974-18.427 20.761-21.576 5.7648-3.1376 7.1634-2.9748 19.31 2.2474 20.048 8.619 37.741 24.173 56.28 49.475l2.9756 4.0611-13.699-4e-3c-7.5346-2e-3 -17.388-0.60238-21.896-1.3342zm-85.959-36.388c-6.32-3.9628-18.248-11.716-26.508-17.228l-15.017-10.023 4.2954 0.0355c35.212 0.29094 77.874 2.9917 79.944 5.0609 0.27283 0.27283-0.78192 1.1569-2.3439 1.9646-1.562 0.80772-5.1925 3.6187-8.0678 6.2466-4.7517 4.3428-7.4414 7.5659-15.463 18.529-1.6185 2.212-3.1965 3.4456-4.0088 3.1339-0.73678-0.28273-6.5105-3.7563-12.83-7.7191zm-85.384-41.794c-14.294-4.7328-27.638-11.072-40.569-19.274-2.2833-1.4482-3.9673-2.8172-3.7422-3.0422 0.56683-0.56683 11.063 2.9312 20.794 6.93 8.7571 3.5986 33.172 15.861 36.01 18.086 1.5798 1.2387 1.4788 1.3044-1.1321 0.73596-1.5767-0.34324-6.6889-1.8896-11.361-3.4364zm-73.206-27.024c0-0.82386 0.86238-1.4333 2.0281-1.4333 1.6944 0 1.8324 0.23583 0.83855 1.4333-0.65426 0.78834-1.5669 1.4333-2.0281 1.4333s-0.83855-0.645-0.83855-1.4333zm8.8922-10.446-2.6811-2.3237 5.6009-2.4891c9.4407-4.1955 34.065-10.372 35.526-8.9109 0.21489 0.21489-4.0057 2.2046-9.3791 4.4216-5.3734 2.217-12.78 5.7309-16.459 7.8086-3.6789 2.0777-7.4174 3.7866-8.3078 3.7974-0.89042 0.0109-2.8254-1.0259-4.3-2.304zm300.71 123.32c0-0.19842-0.7525-0.95092-1.6722-1.6722-1.5156-1.1886-1.5494-1.1548-0.36078 0.36078 1.2483 1.5917 2.033 2.0979 2.033 1.3114zm13.378-16.839c0.78833-0.50947 1.0033-0.92629 0.47778-0.92629-0.52556 0-1.6006 0.41682-2.3889 0.92629-0.78834 0.50946-1.0033 0.92628-0.47778 0.92628s1.6006-0.41682 2.3889-0.92628zm9.5556-4.3c1.3139-0.75109 1.9589-1.3656 1.4333-1.3656-0.52556 0-2.0306 0.61453-3.3444 1.3656-1.3139 0.75108-1.9589 1.3656-1.4333 1.3656s2.0306-0.61453 3.3444-1.3656zm2.6278-71.873c-1.4453-0.21894-3.8103-0.21894-5.2556 0-1.4453 0.21894-0.26278 0.39807 2.6278 0.39807 2.8906 0 4.0731-0.17913 2.6278-0.39807zm-8.8389-38.049c2.3895-1.1509 2.469-1.2836 0.47778-0.79686-2.7076 0.66178-5.751 2.213-4.3 2.1917 0.52556-8e-3 2.2456-0.63538 3.8222-1.3948z" fill="param(fill)" fill-opacity="param(fill-opacity)" stroke="param(outline)" stroke-opacity="param(outline-opacity)" stroke-width="param(outline-width) 0.2"/>
</svg>
