<?xml version="1.0" encoding="UTF-8"?>
<svg version="1.1" width="512" height="512" viewBox="0 0 512 512" xmlns="http://www.w3.org/2000/svg">
  <path d="m387.41 452.9c-7.9346-19.645-16.213-36.952-28.339-54.14-8.6391-8.3506 1.7216-49.628-8.8765-23.734-6.6304 16.01-5.258 34.821 3.5161 49.742-12.794-9.0847-13.949-38.021-15.399-37.915-9.0237 8.5683 3.0481 51.12-9.4859 24.265-8.4784-19.108 6.868-40.618 15.26-53.139-21.937 14.436-20.747 44.747-20.144 68.045-0.0369 7.2598 8.4833 32.024-0.13864 12.563-5.9302-14.457-4.7845-30.255-5.0459-45.532-4.8148 14.747-6.3257 30.7-0.89856 45.549-16.655-21.292-8.459-51.433 6.0627-71.492 11.383-26.18-23.796 9.8023-22.702 22.665-5.783 19.222-2.8841-18.839 3.9687-23.365 6.9291-7.9494 8.0648-18.455-0.7236-4.8609-7.0683 8.8649-17.917 20.723-15.132 32.576 4.0997 9.6433 13.504 25.132 5e-3 9.0391-7.4324-4.0696-7.896-37.329-9.0679-16.915-1.3941 16.574 0.75301 28.711 8.4489 42.867 5.6192 12.116-12.306-12.988-11.052-17.84-10.859-14.552-9.0213-1.2622-8.4545 8.8598-5.7053-11.195-2.6397-29.93-11.57-31.81-0.83994 11.8-13.404 35.333-18.302 35.124 4.8577-9.5322 14.256-41.851 3.2548-16.45-4.7359 10.686-21.681 27.403-6.9165 6.5333 7.9562-17.718 16.708-40.313 3.1464-57.695-17.681-18.182 8.7304 20.807 1.3489 30.694 1.4721 10.903-17.65 41.436-7.3696 15.963 6.8886-9.3303-2.1165-54.139-2.7258-24.124 0.83763 9.9403-14.25 36.627-5.4646 12.229 4.1706-9.5994-3.9726-47.465-3.3971-20.306 2.9828 10.787-19.293 48.616-7.7277 21.433 7.3963-19.112-12.55 4.9966-12.874 12.248-2.8464 10.23-23.971 27.982-8.3948 8.9561 7.7995-8.0822 15.007-40.1 2.439-13.631-8.1188 10.765-11.941 11.711-3.4262 0.87157 11.108-19.734 10.878-45.25-0.22999-64.849 1.2003 15.242 3.8644 33.851-3.3954 49.398-7.8758 19.35-21.346 36.922-38.49 48.816 18.633-24.111 40.548-52.404 33.801-85-1.166-10.059-11.367-28.66-4.499-7.4839 8.9335 16.774-13.822 51.309-19.708 48.806 13.206-15.19 14.267-38.148 4.1304-55.581-2.1977 10.883-2.6628 41.142-18.252 53.921-5.9942 8.4087-22.308 19.981-7.6874 3.9706 14.859-18.728 15.651-43.933 11.348-66.384-13.591-18.433-1.0894 16.42-1.7295 24.345 1.0461 16.132-10.397 38.597-22.268 42.962 13.874-10.812 20.617-44.709 9.6136-51.761-5.171 27.06-14.963 56.523-38.95 72.551 4.8966-5.5877 21.326-26.833 16.783-26.115-3.7536 5.9912-26.164 28.57-11.664 9.2978 12.506-16.22 19.006-36.257 25.814-54.895 1.7304-15.83-13.827 14.661-22.755 17.488-7.9782 6.928-27.747 18.668-10.002 2.1949 7.8724-6.2931 21.353-37.821 5.4385-16.533-14.297 14.587-23.339 23.883-36.305 39.984-7.5209 7.8945-19.556 13.852-5.5552 1.8101 10.063-10.319 12.346-15.179-1.6899-5.1544-11.505 3.4489 14.182-15.443 15.975-23.063 6.9519-9.2856 16.034-47.408 0.13098-21.048-14.55 12.833-28.172 29.967-47.487 34.959 7.9017-5.734 34.255-22.225 9.9507-15.336-10.216 2.3676-24.393-3.2552-5.5005-4.2014 18.756-3.3766 34.591-19.001 37.496-37.957-5.0188 9.2312-42.5 19.604-17.65 7.9674 14.781-9.0204 27.515-31.69 9.1628-44.123-12.959-18.417-25.342-39.645-21.967-63.098 4.6994-34.161 33.576-58.333 59.034-78.592 51.934-40.829 117.12-70.627 184.53-63.676 44.391 5.6293 87.286 22.958 124.72 47.225 40.804 26.41 65.623 69.808 82.625 114.13 12.432 29.28 23.472 67.485 1.8528 95.246-10.728 16.112-38.553 10.189-41.567 32.228-9.9721 17.116 16.074 38.437 16.57 43.164-7.9947-3.6352-21.186-22.373-13.235-3.2582 2.2184 15.027 26.433 22.415 9.8055 22.378 5.8422 8.5201 17.559 23.792 2.3687 7.951-10.644-17.651-32.491-27.867-34.51-50.353-2.9397-8.1261-3.1746 24.71-1.1964 31.556-2.6635 10.17 16.522 37.94 8.5492 34.013-20.304-13.636-41.351-33.579-40.095-60.23-0.77535-10.787 7.7014-37.128-1.8242-13.526-6.0709 12.448-0.93207 32.489-1.7397 41.69-11.709-13.349-3.4457-41.698-4.876-49.904-4.1665 18.75-12.837 41.829 0.94814 58.117 6.6796 9.2479 15.053 17.972-0.68736 6.5284-13.645-10.757 5.9738 25.696 1.0374 22.153zm38.182-22.551c-5.8813-10.672-4.7744-35.605-7.9846-40.176-4.4493 14.594 1.7787 43.074 9.8892 45.761l-0.84258-2.5292zm-151.06-29.846c-6.1741-14.088 10.886-38.09 4.3398-44.016-11.035 9.2246-15.158 40.157-3.9392 47.24l-0.40055-3.2238zm-66.808-12.744c9.4546-9.3555 6.9355-30.253-1.7181-35.611 1.5577 9.3701-3.7712 34.664 1.7181 35.611zm-45.311-2.6317c2.9686-4.3263-5.3636 5.1154 0 0zm128.26-14.833c8.5171-7.3784 12.789-25.311 2.252-8.247-0.89711 1.0213-7.6526 18.036-2.252 8.247zm-31.647-13.861c-11.899-5.6833 0.86092 20.41-0.25969 1.6268zm90.395 2.8879c-4.7407-1.6411-0.68654 1.9774 0 0zm-186.17-37.859c-5.9046-3.6672-4.6482 2.7504 0 0zm-75.261-6.9071c-1.6931-1.8228 0.60604 5.5452 0 0zm148.04 113.46c5.2838-2.6696-2.4279 3.0672 0 0zm234.2-2.3362c-2.7784-3.1448 8.4949 4.5723 0 0zm-289.68 0.17068c3.1114-4.4512 3.3846-0.75238 0 0zm89.914-2.2384c-0.77455-4.0441 2.4891 4.1247 0 0zm124.83-0.34563c-1.174-4.8198 3.1278 3.6599 0 0zm-2.363-4.2605c-2.0648-4.6941 4.726 4.8159 0 0zm-270.04-12.375c3.1114-4.4512 3.3846-0.75238 0 0zm96.099-1.5024c2.0601-5.1546 1.3839 3.3252 0 0zm78.953-2.9397c0.72057-5.313 0.72059 5.313 0 0zm-11.684-0.0567c1.5912-2.147 2.4028 3.2906 0 0z" fill="param(fill)" fill-opacity="param(fill-opacity)" stroke="param(outline)" stroke-opacity="param(outline-opacity)" stroke-width="param(outline-width) 0.2"/>
</svg>
