<svg version="1.1" width="512" height="512"  viewBox="0 0 512 512" xmlns="http://www.w3.org/2000/svg">
 <path d="m243.37 497.34c3.9756-9.4232-1.9912 7.8718 0 0zm4.2136-4.7692c2.2843-3.8108 1.5212 3.5473 0 0zm-2.2454-0.72862c7.1381-4.9346 13.783-11.416 17.159-22.698 23.028-1.5836 3.3696-28.094-4.6357-25.546-12.496 2.5478-21.386 6.2548-21.014 21.076-2.7698 6.1242-12.082 34.835-10.596 14.406 2.5149-7.4865 8.4157-10.953 5.5446-24.439 1.1311-22.584 34.621-8.5198 31.302-33.21 6.1599-6.1046 11.009-3.9578 12.454-7.9696 10.091 4.3328 0.10315-2.6057 11.834-0.37522 10.331 14.483 5.7329-3.7276 12.077-6.0913-0.35563-10.88-0.58572-19.866 7.0102-30.767-5.4032-9.4805-28.945-7.2118-35.914 7.3657-7.0228 16.216-17.746 29.524-33.618 34.969-9.6481 8.4395-12.546 23.057-23.779 31.085 5.1788-8.1767 8.3918-23.996 16.953-34.008 4.3186-16.058 23.573-13.313 30.378-27.23 7.3719-4.4885 1.2477-7.8988 9.398-16.131 7.5692-4.0601-2.6822-8.1792 9.8258-6.9816-4.4824-10.304 12.552 2.6681 7.3238-6.1583 25.182-5.987-14.63-24.751-11.919-40.08 1.4644-15.272 1.2198-31.351-17.296-33.843-6.2256 0.76835-11.932-13.175-9.6828-2.3322-2.0811-6.5526-14.435-7.6414-3.2953 2.4647 4.102 11.628 1.1229 17.703 16.147 22.054 10.638 9.2351 17.228 32.709 2.8053 40.184-11.292 6.042-26.519 8.2858-36.484 18.963-9.4852 9.4401 11.704 25.81 2.4305 31.239-11.012 13.962-11.285-3.2708-10.149-14.742-14.465-14.883 0.14351-29.429 17.491-28.944 11.607-12.448 20.891-31.61 7.0901-46.635-3.1593-5.8995-9.2506-0.0563-12.946-9.1909-9.8734 1.3493-0.79579-7.214-10.783-12.729-12.698 8.712 4.0191-41.239-9.7127-22.665-6.6579 15.97 4.5536 34.767 16.213 45.76 9.7521 11.344-14.815-9.9011-14.742-15.825-1.855-9.4734-10.971-20.828-6.9318-3.9944-0.66965 15.048 10.942 40.638 8.2723 48.056-4.8094-19.426-11.631-39.292-10.415-59.763-14.759-14.079-16.494-35.233-27.27-51.207-1.5814-7.9844-19.392-14.856-6.5761-2.6585 3.8076 7.6196-14.977-13.269-18.875-16.875-10.428-16.44-26.628-28.636-34.581-46.29-1.3746-21.952 7.3516-42.903 13.738-63.624 19.497-40.683 60.695-67.256 103.56-77.952 26.415-7.0791 56.124-8.4809 80.805 4.9609 15.564 7.188 35.701-3.4175 48.145 10.679 2.2537 17.914 15.652 30.293 20.943 46.772 3.3105 18.228-7.0024 34.677-13.549 50.987 11.301 15.775 10.89 35.959 7.1528 54.15 4.8465 8.935 1.0689 31.643-3.0295 31.977 5.5758-6.0491 3.4668-35.57-0.53696-15.883 1.1924-8.2482-0.14555-23.164-9.7816-21.582-11.595 16.745-0.57812 36.453 10.07 49.997 2.6515 9.3641-0.55289 35.406-0.45066 11.923 0.87714-10.266-10.798-35.335-18.505-15.696-4.9649 7.6156-14.022 16.345-4.2514 3.0698 21.106-11.303-15.314-41.275-10.606-13.897-0.80122 13.317-28.643 26.807-2.6117 29.887 15.919 6.1905 19.107 5.7429 28.536 19.509 8.1542 19.481 16.455 40.581 9.5073 61.976-5.8932 17.241-12.104 36.462-27.973 46.783-7.2256 10.398-33.652-8.2758-24.001 8.0165 12.823 6.4007 11.392 9.0912 16.806 20.849 6.3217 4.955-3.56 22.135-5.8112 20.639-4.1147-0.81856-26.536 9.4987-12.841-1.8395 7.0846-11.313-7.1753-46.542-11.291-19.088-9.2366 6.6035-8.3523 10.041-6.0033 21.194-1.6279 13.118-14.774 12.631-20.978 13.843-14.695-4.0564-11.286 13.911-3.1171 19.94-3.783 13.965 0.31673 4.4245 1.5927 5.96-5.5387 6.0607-16.498 8.8278-18.654 20.917-1.1826-3.7154-11.718 8.312-17.359 7.288zm33.722-59.957c23.108-4.965-7.8165-14.34-10.893-0.10983-12.059 3.3484 7.7691 3.5101 10.893 0.10983zm26.415-27.765c-1.5643-1.3543 0.82161 8.1454 0 0zm32.938-42.202c19.038-7.6813 15.368-32.377 19.631-48.876 5.5196-16.035-11.987-25.364-12.476-36.459 5.8772-10.849-21.776-9.7704-19.97-9.3567-6.1902-7.846-7.3712 4.4563-9.0708-9.8519-10.981-18.637 3.5073 17.892 5.9623 23.466 2.3962 9.5769-1.4922 36.307-1.4231 12.113 2.2653-17.946-12.28-33.354-21.594-43.261-9.8105-1.7412 16.331-44.094-4.1759-29.998-10.571 11.138 0.82401 29.554-10.076 40.407-0.56557 11.248-1.1358 22.279 14.757 22.115 11.419 1.0114 15.84 4.4591 1.4235 2.0813-10.152 1.7807 12.789 20.823 17.442 28.284 5.944 7.853 6.203 14.68 7.9317 22.809 5.1907 5.467 0.0601 12.262 4.1357 12.867-4.4357 7.5919-7.8555 8.4798-6.0011 11.638-7.5533 7.8593 11.302 1.85 13.503 2.0221zm-24.219-4.6597c-4.6033-12.453-10.173-16.991-11.512-29.994-4.6746-8.9326-5.8839-31.32-15.33-30.478 1.6471 20.229 5.8749 39.906 19.043 55.923 0.47976 2.6378 6.128 11.559 7.7998 4.5493zm-6.9002-5.4741c-0.76946-6.6709 2.7589 4.4404 0 0zm-6.1805-18.227c-2.6954-13.1 1.3992-3.6764 0.96969 1.7041zm-53.832-41.471c-1.6805-1.8092 0.60155 5.504 0 0zm-40.727-24.89c10.391-12.642-7.7766-30.398-17.194-32.925 9.2157 4.3136 20.188 27.621 6.2951 8-18.858-17.74-1.53 27.961 10.086 28.838zm-2.6963-10.223c0.71518-5.2734 0.71522 5.2734 0 0zm17.983-4.0538c3.8815-12.154-10.688-22.936-13.426-35.087-7.5121 0.76172 3.6341 22.05 10.319 24.9 8.1888 1.3968-4.4517 19.949 3.1071 10.186zm-4.9704-0.90614c5.4904-11.95-17.803-12.441-5.4081-1.2819 0.64804 1.8776 4.1449 3.3306 5.4081 1.2819zm42.333-2.2638c1.8962-5.9659 9.3189-29.937 0.29205-12.771-7.685 2.2937-5.1958 24.028-0.29205 12.771zm-30.219-4.2223c0.08-3.6545-4.3622 3.8491 0 0zm-22.415-4.236c-3.7528-8.0805-2.3927 5.4354 0 0zm26.693-1.2486c-2.0586-10.202-6.6765 7.2014 0 0zm-5.68-4.0938c7.528-10.414-24.794-30.723-11.367-9.8228 1.3604 3.9754 6.0036 18.488 11.367 9.8228zm-20.214-4.9622c1.0823-11.587-16.514-14.619-3.8939-4.8739 6.7981 6.037-10.799-7.8582-3.4782 4.5692 0.56423 4.3211 10.747 7.9418 7.3722 0.30463zm-12.226-4.4654c-10.713-12.612-0.0792 15.625 0 0zm-14.857-2.8794c-11.924-13.596 9.5494 15.795 0 0zm81.29 0.49789c-3.2969-5.4363-3.3098 9.1531-0.0508 1.5213zm-74.083-1.9267c-6.6868-7.3505-2.4986 6.7652 0 0zm5.2895-4.7808c8.2366-11.41-22.975-8.1129-7.4356 1.0987 2.5242 0.1612 5.7118 3.0807 7.4356-1.0987zm70.064-1.9146c-4.0835-9.1559-14.78-15.978-4.9053-2.6473 1.2451 3.264 2.4572 11.168 4.9053 2.6473zm-16.585-0.9605c-9.008-9.6001 4.5147 8.9749 0 0zm-69.261-2.8558c-8.4595-13.011-23.86-24.217-31.126-39.592-6.2147-6.649 5.5571-31.379-5.4853-24.752-2.6605 19.09 3.6336 39.162 20.44 49.935 6.4929-0.82894 14.845 26.976 16.171 14.409zm121.67 1.1568c19.862-10.233-26.569-19.562-8.5487-1.9077 1.3193 5.9379 4.7398 5.6089 8.5487 1.9077zm-130.68-3.4653c-6.1794-9.0041-22.413-20.108-10.797-3.5741 0.261 4.294 16.055 14.663 10.797 3.5741zm44.296 1.651c-1.5297-8.1924-12.774-12.514-5.7808-1.836-12.739-7.9263 0.79187 7.8614 5.7808 1.836zm145.55-2.4779c-7.0853-19.381 9.4145-35.947 4.444-55.615 1.9061-18.167-11.374 2.1816-8.4156 10.316 6.1372 14.943-11.792 30.413-2.6292 42.142 0.99399 0.78147 6.8063 8.0306 6.6008 3.1569zm-118-2.3121c-9.5076-7.3834 5.9312 9.3137 0 0zm-47.042-2.4571c-9.6622-27.754-15.607 15.873 0 0zm5.9522 0.0803c-1.598-14.151-4.6164 10.289 0 0zm-47.082-2.9418c-4.0812-8.5139-16.26-18.849-5.3767-3.9067 1.4152 3.0168 11.748 13.363 5.3767 3.9067zm188.09-0.31747c-3.776-19.552 17.093-42.973-0.9106-58.907-3.9601 1.6224-8.9259 18.743-1.9691 24.524 5.0979 8.7308-2.7303 24.49 0.0218 6.7662-4.1974-22.64-10.483 4.1995-17.94 9.905-18.33 11.38 15.689 22.16 20.798 17.712zm-160.46-3.9004c0.25717-9.556-27.055-11.019-9.8515-0.30453 3.3025 3.2846 9.9107 9.8214 9.8515 0.30453zm73.158 1.3923c-3.5431-3.8886 2.3553 8.9424 0 0zm-50.449-0.84758c-6.5807-12.612 2.22-36.047-4.0762-43.038-1.7278 13.799-0.392 28.112-3.2169 41.933 1.9859 1.3779 7.0906 6.9234 7.2931 1.1046zm30.65-3.4806c-3.932-6.4185-9.4429-31.849-7.6943-11.367-2.0103 3.6177 15.107 24.734 7.6943 11.367zm51.793 3.5648c-4.3952-7.2288 8.5853 0.47441-0.43286-8.0955-6.3671 6.7296-1.2735-18.693-6.9225-12.4 1.1976 6.022-6.1341-10.706-3.3357 3.4241 1.4378 4.9528 4.3394 20.406 10.691 17.071zm-91.705-22.893c-0.77809-6.1572 1.5124-14.554-1.0583-19.403-19.365-13.762-15.814 16.619-10.289 27.417 2.2121 13.28 15.521 13.999 11.332-1.0866l0.0125-3.234zm155.98 10.18c4.1963-10.514 0.88192-30.16-2.9283-8.4409-1.6682 6.753-4.0588 28.877 2.9283 8.4409zm-98.277 5.5328c-4.2395-5.9005-3.4757-21.495-4.3062-5.0187 0.89897 0.80731 2.6279 8.5026 4.3062 5.0187zm-72.07-4.0152c-9.6916-10.188-0.27431-30.848-9.4839-36.095 0.5093 11.134-0.9226 22.626 2.7632 33.346-6.8482-6.0685-3.9174-41.753-13.366-30.88 1.6956 10.415-3.0383 24.937 5.7711 31.91 2.8136-0.48496 14.317 7.5173 14.316 1.719zm197.69-18.013c2.1232-7.3458-3.1738-32.47-9.1176-26.99 12.255 12.559-6.3004 36.362 7.302 42.358 1.5248-4.9404 1.4048-10.254 1.8156-15.369zm-236.18 10.087c-6.557-11.847-0.67514-27.539-4.716-38.589-5.9891-11.118-15.367 0.73172-10.997 9.4056 5.5158 9.4924 10.362 30.518 16.882 32.595zm177.61 0.22952c5.0004-8.3751 13.915-17.493 8.181-27.587 4.7082-12.432-14.09-23.631-16.979-17.476 15.568 11.134-5.1868 25.136 0.46054 39.081 0.86018 4.7352 3.0519 15.559 8.3373 5.9816zm-163.25-12.811c1.1767-8.2926-3.1673-28.393-6.3724-9.4743-4.4322 8.7155 8.8414 34.302 6.4266 12.109zm-23.987 5.9617c-2.0135-2.9321-10.974-28.547-10.322-18.454-2.7421 5.349 11.242 29.381 10.322 18.454zm116.09-7.7248c-3.4256-7.7328 4.3689-29.786-10.331-18.665 8.697 5.2757 7.4189 27.901 9.5749 28.075 0.9143-3.0349 2.0022-6.2652 0.75562-9.41zm122.13-3.2723c-0.7102-16.449-4.9816-9.9466-4.2551 1.3303-0.0252 13.659 2.0758 9.8704 4.2551-1.3303zm-37.029-15.775c1.1794-18.797-11.201-0.9597-1.6817 7.4445 1.0339-2.3571 1.2952-4.9328 1.6817-7.4445zm23.847 0.0635c3.9649-9.4955-20.633-16.149-9.9168-30.523 0.73516-16.693-23.021 1.6451-10.637 13.013 1.5529 5.0064 16.83 31.522 20.554 17.51zm10.028-9.0615c0.53804-6.5507-4.7948 10.871 0 0zm-4.3876-1.4756c2.3896-7.6261-12.736-33.879-12.955-11.544-0.76558 4.2436 9.0885 18.386 12.955 11.544zm-233.54-7.0577c-5.322-8.938-8.7112 18.158-0.87741 1.5415zm202.56-0.0951c-8.4161-10.319 2.815 14.809 0 0zm-5.4165-3.7714c3.4805-12.694-20.473-33.915-24.39-13.219 5.0595 8.6782 3.9232 20.351 17.536 18.322 3.8066 1.8978 6.7024-1.5263 6.8545-5.1032zm51.05-14.676c8.4868-18.64 1.2876-37.82-11.198-52.387 0.33626-14.499-13.879-30.735-25.783-24.557 14.613 15.747 27.773 31.699 28.282 54.664 5.4944 12.315 2.1447 31.512 0.9028 41.123 3.0378-6.0824 5.5268-12.438 7.796-18.842zm-9.9148 2.7265c1.6218-10.603-2.3197-33.181-8.1082-11.666-7.5467 9.2508 11.136 37.834 8.1082 11.666zm-4.495 6.1519c-5.8067-11.606 8.2467 10.119 0 0zm-30.421-8.8031c3.2726-5.5711-20.702-20.126-18.7-12.577 6.6524 1.1249 14.623 20.335 18.7 12.577zm18.554-3.0962c-1.2318-13.646-8.9101-17.039-11.121-2.3855 2.9034 1.0574 8.7406 5.7799 11.121 2.3855zm-12.191-10.146c8.1487-9.6795-7.3116-12.851-13.903-17.316-19.181 6.1606 11.525 34.319 13.903 17.316zm18.921-3.6922c8.7534-13.342-12.413-32.867-10.018-9.1768-2.3904 5.0806 7.9727 25.542 10.018 9.1768zm-13.666-10.672c3.3707-10.199 2.873-19.131-9.4016-20.001-10.612 2.217-8.7436 17.179 2.8747 19.007 1.9662 0.0089 5.871 6.1501 6.5269 0.99373zm16.457-13.694c-0.22287-9.8379-16.449-27.666-10.324-7.7163 0.0107 2.9396 13.623 18.259 10.324 7.7163zm-14.924-11.106c3.0508-16.848-26.657-15.278-11.204-0.30101 2.5232-0.16779 11.855 6.8723 11.204 0.30101zm-7.9252-20.526c-9.3279-6.0039-12.933 7.5062 0.15294 3.6914 4.1396 0.96946 0.42721-3.2456-0.15294-3.6914zm-8.8287-4.8812c-8.8346-7.8594-7.8208 4.3572 0 0zm-68.113 455.33c5.1976-3.4396-2.1948 4.3986 0 0zm-66.253-22.976c-11.815-1.8493-0.0359-15.643 5.9984-20.877 7.3799-13.15-8.2277-37.972 16.984-36.273 2.3649 1.2807-10.246 17.981-5.4355 26.783 5.4289 17.781-20.088 17.131-16.483 32.798zm114.88-34.129c3.1644-3.353 4.2481 1.7964 0 0zm20.031-2.5166c2.8001-3.1886 4.4202 1.8139 0 0zm-6.4556-11.416c0.52929-6.5116 0.5293 6.5116 0 0zm-91.715-2.4641c0.88122-3.57 0.40777 4.1446 0 0zm-10.568-7.6075c2.1305-3.7942 1.0637 4.6341 0 0zm101.11 0.0563c1.1606-4.5231 1.8959 4.7457 0 0zm-45.784-42.446c2.2844-3.8107 1.5212 3.5473 0 0zm93.552-126.46c0.88131-3.57 0.40756 4.1445 0 0z" fill="param(fill)" fill-opacity="param(fill-opacity)" stroke="param(outline)" stroke-opacity="param(outline-opacity)" stroke-width="param(outline-width) 0.2"/>
</svg>
