<svg version="1.1" width="512" height="512" viewBox="0 0 512 512" xmlns="http://www.w3.org/2000/svg">
 <path d="m273.93 496.08c-3.1913-15.092 20.294-13.888 15.014-29.803 12.63-8.6217 8.4726-33.595-7.1695-21.211-19.328 7.4009-39.658 10.954-60.16 12.51-25.651-3.953 38.292-5.807 6.6004-8.9789-15.735 0.83889-31.105-12.451-41.145-17.744-1.0154 12.412-20.797 13.88-18.224 25.282 1.7739 21.505 26.073 26.901 43.179 31.34 4.6564 7.8672-23.607-2.3621-29.176-5.7694-20.918-4.2146-10.652-39.616-34.797-27.065-12.302 2.6428-14.148-4.4498-0.94658-3.8478 26.607 3.1774 21.441-31.175 32.074-47.41 14.038-16.284-17.204-8.8671-13.636-16.323 11.3 1.0921 25.633 3.5073 14.569-13.17-9.3308-22.5-0.93511-46.448 7.7406-67.65 4.3401-10.69-1.893-20.552-13.222-17.177-18.955 0.81825-40.378-2.3492-51.417-19.888-22.468-24.078-28.442-61.22-13.331-90.706 12.457-29.751 37.567-50.837 58.251-74.532-18.734-4.3114-33.076-25.662-20.857-44.102 12.557-21.137 38.067-27.984 58.03-40.03 19.33-11.579 43.499-4.8135 63.199 2.2733 22.981 11.457 41.992 29.809 59.239 48.478 12.323 21.566-10.435 37.826-30.82 35.096-32.329-5.0235-5.6231 33.575-18.595 51.278-7.9894 24.4-20.822 46.772-32.102 69.736 6.4592 9.5691 20.349 19.432 13.651 23.949 12.406 8.9964 28.808 10.301 39.68 21.482 12.358 17.559 34.59 7.8398 50.211 15.315 5.8277 11.803 5.8968 28.057 22.176 28.526 4.564 19.121 15.117 34.891 31.92 45.491 19.413 11.737-15.396 26.134-21.865 22.922 12.336-5.6584 32.641-17.679 9.7475-25.376-12.927-14.024-2.3807 13.848-14.514 17.274-8.4196 7.6674 1.0138 22.576-6.748 28.813-10.207 4.276-25.713 24.656-28.487 21.637 3.6362-20.333 33.466-21.388 26.372-43.89 9.825-14.545 16.768-44.407-8.492-46.625-16.73 3.6849-32.245-0.49771-44.701-12.177-6.9333-4.9866-22.238-3.2751-26.49-2e-3 5.4447 20.603 2.1938 42.365-3.0862 62.658 10.459 10.569 21.479 23.262 18.765 39.242 4.4803 5.6181 28.245-17.056 30.285-8.8648-13.138 10.806-43.097 11.767-29.068 34.121-9.1819 9.0261-6.9003 22.137-9.0608 31.757-12.157-3.7642-15.524 18.646-22.594 13.162zm-20.552-47.481c-4.6713-1.6171-0.67654 1.9484 0 0zm4.2809-1.002c-5.8925-0.93936-0.0735 1.6384 0 0zm5.1884-0.8919c-4.6713-1.6172-0.67648 1.9485 0 0zm-86.488-6.3053c6.8912-6.4978 10.914-16.478 5.99-25.146-3.7393-11.269-8.5997 20.504-11.965 25.195-3.1899 8.7989 3.3203 2.8354 5.9747-0.0488zm62.124 4.4724c-11.13-16.804 5.6739-32.423 17.055-43.34 4.5591-4.9445 12.754-9.2769 6.0594-16.116-4.7393-8.7603-20.562-32.92-27.336-13.366-10.959 11.736-34.282 13.083-44.601 21.596 0.64438 10.311-0.86746 21.474 1.0591 31.279 11.113 14.62 29.857 21.239 47.765 19.947zm14.905-5.8806c6.238-10.381 26.472-27.482 18.751-38.623-8.3013-9.6681-16.434 9.6378-23.596 14.013-12.576 6.1415-13.437 41.991 4.846 24.611zm21.023 0.0831c18.41 1.0113 11.168-23.713 5.6469-33.462-7.7187 12.953-14.569 26.568-24.616 37.979 6.4214-1.0525 12.684-2.8647 18.969-4.5166zm25.197-13.073c6.8439-9.7156-11.693-35.57-14.868-30.832 11.323 3.4078 2.0223 40.634 14.868 30.832zm-113.53-19.679c-1.6427-0.30619 0.99415 6.3272 0 0zm93.592-19.649c-8.52-4.3139 4.0537 8.3884 0 0zm-77.241-2.9749c15.485-1.9492 12.79-10.525-0.18878-7.3906-5.5576 5.1452-14.728 13.709 0.18878 7.3906zm-6.5615-9.3461c-10.539-9.4495-9.7227 17.692-3.5148 5.8564 0.69426-1.3555 5.4022-3.9817 3.5148-5.8564zm76.233 5.6984c-8.5683-6.5511 4.9575 7.2259 0 0zm12.884-8.2914c1.8878-18.012 7.4666-41.003-7.5706-54.921-6.3562-11.563-11.253-11.925-15.465-0.0656 1.1748 13.941 18.119 29.924 17.914 47.209 1.6265 5.0702-0.57807 28.719 4.2109 12.098zm-8.5662-3.9768c-3.2322-13.521-8.7224-38.505-19.687-42.332-0.16841 16.164-15.669 32.244 5.8942 41.159 4.6409 4.5969 19.21 17.375 13.792 1.1723zm-49.374 2.8946c8.2323-7.4049-8.938-16.854-13.341-3.8302-13.484 8.1048 10.206 7.6844 13.341 3.8302zm-40.538 0.27524c12.413 0.53906 22.871-1.2811 30.942-12.858 8.9397-5.0671-4.5903-12.562-6.5192-18.828-8.6453-5.9823-17.1-44.82-23.692-19.453-6.4701 14.333-12.802 43.693-0.73109 51.139zm48.912-8.1095c-2.6341-12.825-15.24-9.4184 0 0zm-8.3761-13.482c1.3873-12.034-17.565-27.599-23.141-29.918 7.0802 8.9772 14.012 27.314 23.141 29.918zm22.158-6.7204c4.7376-10.278 4.6103-16.894-3.0941-6.2191-12.815 6.2287-1.2277 22.316 3.0941 6.2191zm1.2066-17.646c5.1742-14.316-34.546-32.853-31.756-8.6096 1.5493 5.6632 9.1469 9.6301 13.039 14.636 8.0042 12.743 11.347 0.97603 18.717-6.0267zm116.89 2.0876c-19.026-6.7794-18.771-40.991-44.019-34.293-22.799 7.4958-28.405-17.873-44.239-26.643-19.08 3.0955-29.794-13.775-45.396-17.996 11.22 15.347 35.071 22.758 37.615 44.129 5.672 21.838 25.616 20.506 43.439 22.9 14.733 16.96 35.763 10.224 53.737 15.324l-0.0294-1.0166zm-106.22-17.005c12.294-8.6628-19.735-10.159-10.586-2.7082 3.1168 4.4779 7.6256 13.348 10.586 2.7082zm-43.774-5.1588c-0.21099-6.5729-9.8453-24.471-6.3636-5.8536-0.89968 5.6575 5.7419 19.423 6.3636 5.8536zm26.881-0.13053c-12.358-5.391-2.0914 3.6105 0 0zm-5.0101-12.432c-4.6713-1.6172-0.6765 1.9485 0 0zm27.232-2.5054c-5.2256-13.973-25.586-34.215-37.822-32.85-3.5357 7.2587-13.757 29.689 0.71586 29.511 11.208 0.017 28.55 9.7023 37.106 3.3387zm-83.982-5.1067c-6.7029-14.356-31.691-29.368-41.688-47.111-17.211-21.265-26.996-53.396-9.0252-77.314 12.556-19.913 27.757-37.864 43.93-54.837-30.883 26.341-62.693 58.54-69.476 100.33-3.8606 29.379 12.51 60.437 37.626 75.39 12.249 4.2276 25.829 4.5789 38.633 3.542zm26.465-8.1502c-3.4039-18.928-6.082-38.262-10.854-56.808-11.491 8.44-1.7519 23.41-1.9895 33.013-17.883 4.6384 11.732 45.168 12.844 23.794zm-25.876-16.808c-4.3747-18.802-10.985-37.649 1.4965-55.373-9.1732-17.811-18.924-38.959-9.6084-58.8 4.0855-13.781 25.546-26.623 24.062-37.654-19.682-0.6693-29.059 27.535-47.249 35.938-24.41 20.822-25.239 60.516-9.1232 86.641 9.4537 17.546 24.939 30.43 39.508 43.577 1.6532-4.5776 1.0749-9.5692 0.91379-14.329zm30.442 3.3069c-2.5271-15.055-7.065-6.2942-1.366 3.3216zm13.667-12.286c-5.1597-8.507-12.182-10.842-3.6613 0.10224 1.0844 5.51 1.5046 4.5927 3.6613-0.10224zm3.7541-6.4079c-7.5307-18.22 8.5918-37.496 3.4379-56.405-2.0622-15.532-4.9647-28.827 3.9527-41.729-6.0393-5.3178-18.268 19.508-22.914 26.748 0.0474 10.85 10.359 20.647 1.337 31.003-1.4729 9.9491-7.5475 24.483 2.0405 31.742 3.1988 2.3453 9.2053 11.762 12.146 8.6414zm23.902-43.322c13.144-26.08 28.112-54.421 21.73-84.628-2.2461-12.048-19.776 12.964-26.189 17.179-0.16272 14.65-6.155 27.094-2.5366 41.471-5.6711 9.1082-4.7054 17.182 0.27322 29.191 1.1272 9.1463-8.1948 23.754 1.631 6.7031 1.7191-3.2942 3.4078-6.6043 5.0916-9.9166zm-53.408 5.8239c-1.369-13.244-3.9806 23.694 0 0zm8.0394-13.43c-0.0603-13.788-7.2832 32.087-1.5349 8.3758 0.62177-2.7696 1.1944-5.5555 1.5349-8.3758zm-81.241-2.2828c0.8615-10.239-1.8835-17.755-1.7582-2.3194-0.69659 7.9441 2.0966 25.046 1.7429 7.9972l0.0113-2.7404zm74.103-0.64347c7.2373-6.0659 1.0776-26.556-1.0204-8.8796-1.9396 8.7524-9.0223 34.056 1.0204 8.8796zm-12.503-7.9321c8.3832-20.303 16.403-40.041 28.731-58.141 12.368-12.982-3.5504-21.286-13.193-14.208-11.071 18.688-33.471 33.872-29.959 58.273 0.59855 8.6142 11.446 42.231 13.483 17.278zm41.248-40.4c8.3654-6.2187 7.8152-26.631-1.6576-11.298-8.1962 6.0292-17.935 41.328-3.4233 17.401l2.6092-3.2102zm-64.896-16.173c7.5165-3.5202 27.732-29.507 9.386-13.233-5.7852 4.6369-31.617 32.513-11.603 15.089zm98.595-9.8928c10.208-5.6477 8.3969-12.606-1.6601-7.3495-3.3248 7.6442-14.93 21.339-0.41411 9.0034zm-9.1652-1.8975c6.4388-24.831-13.301 13.494 0 0z" fill="param(fill)" fill-opacity="param(fill-opacity)" stroke="param(outline)" stroke-opacity="param(outline-opacity)" stroke-width="param(outline-width) 0.2"/>
</svg>
