<svg version="1.1" width="512" height="512" viewBox="0 0 512 512" xmlns="http://www.w3.org/2000/svg">
 <path d="m222.26 494.97c-11.334 0.75087-19.372-12.105-30.594-14.167-15.767-3.3329-17.083-22.604-16.264-30.881 6.8688-19.288 30.717-12.843 46.437-13.653 16.269-6.567-4.5361-17.812 3.6273-27.127 4.4013-7.8501-10.503-15.345-0.21993-24.962-11.146-15.246-0.54199-35.403-4.1052-53.829 5.652-19.75-20.907-2.5365-30.186 0.20389-6.5858 19.895-3.1319 41.621-1.9161 62.201-7.7442-15.228-4.3103-36.386-4.4398-53.836 0.15046-17.595-15.466 13.925-24.923 15.812-3.3963 13.244-27.485 8.6595-18.785-0.91476 17.789 2.5994 23.883-26.728 40.353-32.161 14.972-1.2229 14.43-22.059-1.0655-22.673-15.987-7.9177-37.277-2.5459-46.301-21.373-15.482-5.6737 0.079-28.883 4.7238-10.84 1.1878 11.232 12.453 14.957 22.325 14.133 15.464-5.6345 36.762 29.68 37.437 1.1161 9.8074-16.477-13.526-8.4339-21.907-13.029-17.301-2.5137-37.698-7.348-45.261-25.068-5.9416-10.517-19.593-31.982-9.8265-40.487 8.5962-2.991-15.478-25.049-7.098-36.968 4.1528-20.125 15.993 2.9995 13.26 12.227 5.6266 20.785 20.938 35.901 41.269 41.493 11.2 5.1118 27.859 23.356 38.646 17.486 5.3217-10.361-4.3121-16.404-12.152-21.74-12.205-17.215-32.682-26.573-44.679-43.095-8.6136-5.6448-10.887-8.2808-5.4764-16.694-11.029-15.681-21.72-32.467-15.386-53.235 4.1135-29.322 16.028-59.537 39.529-78.58 9.1364-3.8733 20.257-11.205 30.371-7.3612 16.85 2.8047 25.376 14.288 28.132 30.154 1.3426 20.021-13.346 35.601-19.515 53.223-10.811 12.512-17.679 28.936-36.098 30.954-9.7105 11.294 15.449 22.048 20.572 32.111 5.5995 10.881 25.455 39.198 23.679 10.899-0.32603-14.079 14.849-36.488 23.883-14.691 2.0806 14.284 14.451 12.076 9.804 8.3918-3.8523 3.779 1.8372-21.091-3.6516-26.636-2.2959-12.621-2.3975-37.105-19.836-32.857 15.886-14.412 20.982 22.678 22.299 17.546 6.6369-9.4463-12.882-42.387 1.526-19.382 3.6357 15.034-1.9123 36.567 5.0533 47.938 4.3824-15.087 11.145-27.075 5.9241-37.781-0.62605-18.416-8.0267-34.907-14.437-51.877-1.5064-10.171-18.556-28.036-12.287-34.253 12.604 17.944 19.258 39.43 28.065 59.296 11.079 6.53 12.468 16.565 7.7293 28.254-2.7097 7.6617-6.8227 29.136 0.84058 10.266 3.8894-8.4635 8.093-26.138 11.229-29.206 0.0649 20.295-19.171 37.77-13.927 58.093 6.7896-0.42109 7.0067 8.3927 3.9662 14.579 6.411 20.55 3.1067-24.083 6.2931 1.5866 4.8294 22.388 16.122-11.241 22.2-11.581 8.5208 2.1804 9.316-15.77 22.012-14.116 15.841-7.92-23.193-16.401-25.801-30.577-10.778-12.832-14.214-29.447-25.985-43.564-11.557-13.908-18.208-31.246-26.802-46.22 11.479-16.819 33.766-5.5124 47.495 2.069 30.539 16.402 53.052 46.976 61.913 80.216 8.6245 17.031-1.7721 37.619-0.51789 51.734 13.989-17.747 17.416 19.999 13.372 30.161-8.0276 13.273 11.772 24.11-1.3915 38.705-8.2973 16.827-15.477 38.797-39.013 37.111-9.2456 4.0998-30.642-5.7742-31.591 8.2731-1.6912 10.895-11.618 31.236 8.4621 22.284 18.512-2.2471 35.414-11.019 53.149-16.219 18.497-4.4141 13.344-30.885 20.96-43.058 10.924 12.16-1.4496 33.863-8.4251 47.013-14.36 13.89-35.832 14.412-54.278 19.32-8.138 1.398-29.918 6.7947-9.5738 6.7739 22.298-5.5749 34.057 16.913 29.915 36.012-3.4363 12.881 14.168 6.5176 2.8266 19.189-21.467 8.6944-6.7454-29.37-16.616-40.799-5.8324-4.4538-32.43-13.663-33.996-3.2423 0.81258 14.536-3.01 30.24 3.0591 43.391-6.492 12.519 1.7476 25.174-1.2107 37.4 4.4064 7.4968-5.4368 30.62 12.381 23.7 17.588-1.5098 40.278-4.4568 50.165 14.203 2.714 11.962-7.2898 25.319-18.485 27.93-14.459 1.2665-18.024 21.967-30.543 20.326-10.332 4.339-22.133-6.4184-30.742 4.8653-13.054 1.0407-22.848-11.051-32.343 0.63076-5.7099 0.1326-11.7 1.4788-17.235-0.53498zm-13.558-180.43c19.731-7.3853-3.5404-9.7976-12.541-7.9769-6.1052 14.584 0.19383 13.139 12.541 7.9769zm-1.3056-17.505c12.152-0.54022-1.501-40.788-4.0143-16.062-0.45622 6.3089-10.073 22.038 4.0143 16.062zm-4.5493-37.345c7.7475-13.221-14.523-12.935-20.899-20.038-15.148-9.6979-34.566-13.114-47.107-26.202-2.463-10.924-19.729-5.4148-5.8441-4.0221 1.3587 18.944 10.757 40.54 31.437 44.444 13.634 4.3552 27.992 9.9161 42.412 5.8176zm125.63-5.8833c16.377-0.13959 25.283-21.593 27.346-35.646-13.405 0.8631-28.243 20.683-44.374 25.269-14.19 2.4145-18.715 13.974-0.79917 12.14 5.9785-0.0974 11.93-0.81762 17.828-1.763zm-24.23-21.132c15.3-9.2381 30.798-18.423 44.786-29.327 9.9681-6.693 7.8914-35.743 1.7619-37.995-11.461 15.288-28.693 24.129-41.157 38.796-5.3762 7.6583-19.654 11.474-14.732 22.641-0.20524 6.8987 2.8953 9.7631 9.3412 5.8846zm-73.381-57.233c-7.4519-11.31 11.529-6.7194-2.1259-14.389-8.2275 11.847-8.516 27.536-10.242 41.568 4.2119-9.0111 9.1726-17.743 12.368-27.18zm-32.91 17.601c5.0029-16.871-25.958-15.301-10.483-2.6258 1.1559 2.7861 12.606 11.011 10.483 2.6258zm104.52-2.1312c15.287-13.287-9.3679-15.514-10.115-0.17608-4.7156 9.4334 8.0664 4.7053 10.115 0.17608zm-16.142-128.26c-7.28-4.7756 3.7667 5.4686 0 0zm-86.825-4.812c6.8241-4.3269 9.3922-23.519 1.3278-6.485-5.7465 5.9863-6.4111 18.9-1.3278 6.485zm79.196-2.492c-3.9535-6.4813-24.155-28.019-22.726-21.441 6.1716 5.4872 19.991 22.681 22.726 21.441zm-66.477-15.796c10.614-21.159-12.993 9.7004 0 0z" fill="param(fill)" fill-opacity="param(fill-opacity)" stroke="param(outline)" stroke-opacity="param(outline-opacity)" stroke-width="param(outline-width) 0.2"/>
</svg>
