<svg width="512" height="512" version="1.1" viewBox="0 0 512 512" xmlns="http://www.w3.org/2000/svg">
 <path d="m72.436 299.53c-8.678-13.74-16.942-45.05-21.814-81.135s7.2316-135.95 7.2316-135.95 34.861 100.06 63.638 123.66c28.778 23.602 52.79 24.361 80.994 23.141s63.783-15.879 79.548-30.373-1.4463-13.017 16.633-39.774c10.124 22.418 10.847 30.373 10.847 30.373l28.203-12.294s70.87-28.927 143.91-119.32c-28.927 49.175-31.397 43.801-55.684 66.531s-90.395 69.424-90.395 69.424c29.65 26.757 31.819 41.944 58.576 62.915 0 0 25.658 19.525 41.22 41.944 15.563 22.418 33.266 57.13 46.282 94.011-52.068-58.576-69.646-59.63-100.52-67.977s-73.124-10.919-117.88-6.5085-56.477 11.038-80.271 32.542-38.775 82.332-57.853 74.486 20.972-65.808 19.525-83.164c-18.802 5.7853-43.39 3.6158-64.362 2.8927 17.356 47.729 19.788 71.702 5.0621 75.932-14.726 4.2298-33.627-46.282-31.096-56.407 2.5311-10.124-10.863-14.449-8.678-26.757s19.533-27.9 28.927-36.881 10.739-10.13 25.311-18.079c14.571-7.949 63.638-25.311 63.638-25.311s-48.952 16.368-64.095 23.5-26.904 18.585-26.904 18.585z" fill="param(fill)" fill-opacity="param(fill-opacity)" stroke="param(outline)" stroke-opacity="param(outline-opacity)" stroke-width="param(outline-width) 0.2"/>
</svg>
