<?xml version="1.0" encoding="UTF-8"?>
<svg version="1.1" width="512" height="512" viewBox="0 0 512 512" xmlns="http://www.w3.org/2000/svg">
  <path d="m12.94 449.58c18.504-26.432 43.141-48.262 64.709-72.269 17.536-18.857 36.175-36.74 52.6-56.6-9.0451-18.209-13.917-43.035 2.1657-58.973 31.602-39.193 69.168-74.299 114.3-97.355 20.887-12.753 44.029-20.663 67.961-25.271 36.895-11.106 70.419-32.084 98.68-58.053-6.9402-10.514-16.747-30.471 4.7886-20.648 20.521 10.098 43.476 9.8252 64.894 17.512 10.901 0.52182 26.02 5.7957 7.9474 11.725-16.997 6.8676-38.153 1.7302-54.121 7.655-39.953 41.702-62.235 97.077-104.67 136.64-3.7092 9.5204-35.847 22.787-22.571 29.784 18.897 3.6126 22.476 23.052 0.051 23.335-22.086 3.5937-44.264-11.199-63.567 5.7198-30.786 13.479-60.551 32.098-94.254 36.776-9.5749-4.5884-14.747 2.9615-20.787 9.1804-37.729 35.779-73.972 73.172-112.62 107.94-1.5024-0.91805-3.6255 4.7417-5.509 2.9006z" fill="param(fill)" fill-opacity="param(fill-opacity)" stroke="param(outline)" stroke-opacity="param(outline-opacity)" stroke-width="param(outline-width) 0.2"/>
</svg>
