<?xml version="1.0" encoding="UTF-8"?>
<svg version="1.1" width="512" height="512" viewBox="0 0 512 512" xmlns="http://www.w3.org/2000/svg">
  <path d="m10.295 404.98c44.074-23.421 92.19-37.967 137.48-58.694 2.8893-18.251 6.8232-42.626 30.791-45.145 24.85-11.759 47.673-27.616 73.739-36.927 24.232-9.3033 47.344-21.774 72.12-29.45 30.139-5.4051 65.165-9.6935 85.713-35.068 13.654-16.393 6.4936-39.263-6.5465-53.554-8.8595-7.2318-24.845-40.612-2.0233-24.939 10.944 10.674 35.242 0.0188 35.427 18.86 11.409-18.853 30.155-7.2745 46.606-4.701 10.992-0.35351 29.376 2.8321 10.52 11.233-16.142 11.449-36.842 16.799-51.212 30.244-11.782 33.663-13.275 71.914-36.404 100.9-23.817 33.371-59.382 56.947-97.988 69.854-11.57 3.8462 23.217 18.124 0.38537 21.059-17.864 3.3329-33.772-7.5093-50.732-9.1264-29.692 2.8747-59.749 9.1974-89.591 5.6636-15.277-14.783-33.457-1.803-50.083 3.3051-35.671 12.182-70.895 25.814-106.75 37.45l-2.645 0.33142z" fill="param(fill)" fill-opacity="param(fill-opacity)" stroke="param(outline)" stroke-opacity="param(outline-opacity)" stroke-width="param(outline-width) 0.2"/>
</svg>
