<svg width="512" height="512" version="1.1" viewBox="0 0 512 512" xmlns="http://www.w3.org/2000/svg">
 <path d="m260.72 435.68c-22.52-7.5418-28.203-36.209-18.631-55.843-27.629-21.625-45.728-54.076-52.405-88.287-16.14 17.318-31.911 35.228-50.277 50.338-8.2897 13.929-26.712 11.097-36.134 25.922-16.453 18.335-41.048 16.33-62.363 21.493-8.3557 11.86-20.765 4.6191-8.2257-5.3715 18.281-13.715 44.753-9.3799 61.445-25.66-17.512-4.7038-36.209-7.2517-54.36-9.7323-7.0284 1.4973-44.751 2.4964-21.836-9.1314 21.009-10.069 45.09 0.69248 67.395-1.6879 7.8907-1.4812 18.869 2.5553 24.932-2.2903 16.718-23.673 25.962-51.729 36.511-78.254-17.352 12.505-38.637 15.101-60.527 15.065-19.786-4.5909-38.349-5.8813-54.271-13.271-3.1646-8.0005-12.086-15.69 3.9385-10.954 20.21 4.2676 42.047 13.15 61.607 1.473 37.03-15.902 66.276-44.782 101.32-63.964 9.6657-8.5635 30.817-0.48169 36.003-10.106-5.2435-16.648-7.7029-35.222 10.588-44.228 8.0731-37.132 46.574-58.795 81.854-62.786 21.269-4.3814 41.653 12.117 43.953 33.199 1.9167 28.988-1.7788 64.882-28.554 82.061-8.8226 8.3282-42.659-4.4056-19.98 9.223 28.403 21.224 62.919 32.218 91.648 52.713 18.523 17.735 35.615 40.62 37.604 66.977-6.5193 16.941-10.245-25.812-22.333-30.089-17.675-18.018-45.199-16.274-66.772-26.936 10.869 23.626 15.629 49.892 27.712 72.846 25.154 9.2474 54.203 6.1099 78.448-4.9406 7.0677-6.4023 33.294-7.6279 28.86 2.5678-23.987-3.4491-40.37 19.615-63.177 22.843-12.626 1.4267-21.659 5.248-3.342 8.3626 19.236 11.228 34.759-12.307 50.005-12.915-5.4439 19.9-23.635 34.728-44.946 29.768-20.796 0.48032-38.021-9.7328-55.678-19.027-19.994-20.877-44.008-37.719-61.896-60.744-10.824-12.264-8.5433 20.806-17.554 27.083-11.924 19.657-25.055 38.579-36.878 58.284 15.854 13.793 33.692 25.643 52.706 33.214-20.618 5.129-39.825-15.242-58.304-20.789-0.85037 17.23 7.5335 31.018 19.7 41.611-4.4564 4.2337-12.3 3.0659-17.783 1.963zm-3.7359-88.335c5.6182-22.328 20.557-46.058 11.711-69.283-4.1445-16.518-25.187-34.234-32.423-9.3025-13.948 21.325 0.79401 46.441 6.429 68.041 5.1127 8.8062 7.3807 39.171 14.283 10.545z" fill="param(fill)" fill-opacity="param(fill-opacity)" stroke="param(outline)" stroke-opacity="param(outline-opacity)" stroke-width="param(outline-width) 0.2"/>
</svg>
