<?xml version="1.0" encoding="UTF-8"?>
<svg version="1.1" width="512" height="512" viewBox="0 0 512 512" xmlns="http://www.w3.org/2000/svg">
  <path d="m182.78 462.58c-12.763-9.2982-36.641-7.8042-43.982-10.813 15.35-17.813-5.9169-39.392-26.579-30.897-39.51-1.2326-61.791-54.17-25.022-77.249 25.74-26.303 72.86-10.029 66.321 29.626 8.8896 18.999 22.493-23.43 4.3097-30.439-26.471-16.158-23.764-63.989-15.984-71.872-27.757 20.345-62.411 38.234-96.865 22.598-50.111-24.839-24.107-114.61 30.397-111.8 34.108-1.4119 36.706 67.675 5.4315 59.255 0.38213-16.292 7.4532-49.072-20.533-32.323-36.258 20.283-0.6619 74.528 32.485 50.42 16.179-8.3229 53.521-23.763 24.418-39.118-19.655-23.39-22.454-69.634 6.3949-87.863 14.845-13.799 46.385-16.052 49.121-39.655-0.86366-19.223 16.605-44.408 18.009-10.605 12.591 40.544-34.861 51.781-53.149 77.149-12.48 43.642 46.486 55.02 76.172 41.839-2.8309-7.4205-11.148-28.754 2.9236-37.677-10.185-12.813 24.84-0.25681 7.3625-16.04-23.932-25.862-6.9283-68.166 26.902-73.511 31.37-7.8995 74.004 17.66 62.394 53.76-6.9606 14.018-26.983 38.317-3.8485 28.948-14.517 12.245 18.291 26.154-2.7215 39.876 26.1 2.5786 72.89-17.946 55.256-50.036-10.439-14.019-12.704-33.918-0.73703-48.081 13.52-19.129 49.748-4.9379 17.281 9.8659-24.879 24.772 38.973 48.843 8.2627 79.831-5.9735 18.083-38.954 22.032-37.062 40.606 26.535 26.912 68.172-3.9797 56.361-38.89-1.5753-31.461 26.83-66.929 60.104-50.481 28.666 14.477 43.742 65.196 12.697 84.59-37.537 0.96897 18.142-27.052-3.0517-45.498-9.0631-27.876-45.056-25.359-37.499 7.4665 2.0969 31.921 1.3916 70.417-35.895 81.124-16.624 9.7402-57.308 10.181-22.403 29.041 30.833 37.438 22.442-43.56 61.022-35.687 38.185-6.1263 60.369 47.694 33.499 72.873-17.086 20.563-45.232 8.7808-67.631 14.244-12.407 26.946-26.079 10.125-15.969-9.9234-26.29-8.7592-56.125-36.19-76.641-40.86-7.9496 34.533 20.08 67.356 54.713 68.322 32.07-2.316 73.345 20.825 55.649 57.709-11.1 34.934-73.097 19.614-61.513-16.734 23.394-19.776 12.543 38.995 40.083 12.706 13.855-38.97-43.668-22.582-65.415-24.885-30.399 4.9565-51.962-26.602-59.524-52.322-4.6043-19.77 1.2971-82.918-33.672-52.488-26.998 46.242 24.77 95.979 1.4776 142.7-12.726 21.515-37.733 37.711-63.351 31.194zm12.494-15.983c35.467-4.9108 37.25-53.406 23.747-78.995-12.373-27.705-23.724-56.166-27.491-86.48-36.63 9.4677-17.796 44.925-1.2787 64.075 13.936 26.374-6.4797 50.476-30.917 58.904-2.9395 19.226 8.2016 52.717 35.94 42.496zm-61.846-54.36c14.077-26.159-26.42-53.957-36.493-16.748-6.2009 23.108 23.241 18.782 36.493 16.748zm311.65-70.168c40.944-12.343-7.221-66.334-21.914-24.724-15.526 23.461-0.44976 30.982 21.914 24.724zm-294.72-55.895c-2.6356-4.5158-2.6355 4.5158 0 0z" fill="param(fill)" fill-opacity="param(fill-opacity)" stroke="param(outline)" stroke-opacity="param(outline-opacity)" stroke-width="param(outline-width) 0.2"/>
</svg>
