<?xml version="1.0" encoding="UTF-8"?>
<svg version="1.1" width="512" height="512" viewBox="0 0 512 512" xmlns="http://www.w3.org/2000/svg">
  <path d="m187.54 157.58c-0.90524 0.036-2.0989 0.35928-3.9629 0.98438-6.2033 2.0803-19.885 15.92-28.199 28.521-7.2693 11.018-16.405 28.168-20.93 39.291-1.7153 4.2167-3.4125 8.0124-3.7715 8.4356-0.35893 0.42319-5.2451 1.3727-10.857 2.1094-18.795 2.4671-40.423 8.5877-64.531 18.262-15.134 6.0728-24.248 11.247-29.729 16.879-3.7636 3.8672-15.505 25.109-15.6 28.201l-0.49023 0.23047s2.9767 6.2823 10.486 11.264c7.5325 4.9966 22.818 10.544 35.447 12.447 6.3927 0.96334 14.164 0.53831 21.336-0.10156s13.775-1.4988 17.549-1.4707c3.9115 0.0291 5.9839 0.14782 7.041 0.25195 0.52855 0.0521 0.80319 0.1009 0.90821 0.125 0.0525 0.012 0.0631 0.018 0.0312 6e-3 -0.0159-6e-3 -0.0423-0.0171-0.0801-0.0371s-0.14844-0.0957-0.14844-0.0957l0.17969-0.22461c1.2004 1.8084 2.4716 3.7528 3.707 5.6953 16.068 25.263 30.864 37.492 46.299 38.26 6.201 0.3086 6.9298 0.13824 9.0176-2.0938 2.7591-2.9498 4.329-14.561 3.3887-25.059-0.70044-7.8191-1.9364-11.212-6.1719-16.062 7.3836 0.13123 30.915 0.46118 48.221-0.40429 20.55-1.0278 47.59-3.971 71.477-6.6797 23.934-2.7141 79.029-10.816 79.029-10.816l-0.0645-0.43945c1.6601-0.20873 4.0131-0.54543 7.3906-1.0527 5.5258-0.82996 23.792-1.8629 43.357-2.4512 28.803-0.86602 50.136-2.2026 43.393-2.7188-1.3429-0.10279-0.73003-0.68523 2.0449-1.9453 2.1784-0.98918 4.1638-2.3815 4.4121-3.0938 0.34979-1.0036 0.91794-0.87985 2.5293 0.55078 1.5762 1.3994 1.7846 2.0339 0.85937 2.6211-0.82922 0.52628-0.5237 0.77909 0.95117 0.78907 1.194 8e-3 5.2053 2.2224 8.9141 4.9199 9.6086 6.9887 20.345 12.346 24.744 12.346 1.9921 0 3.8985-0.27739 4.2363-0.61523 0.33782-0.33783-3.9235-5.3479-9.4688-11.135-9.8264-10.255-10.038-10.57-8.373-12.41 1.6422-1.8146 1.6369-1.9419-0.13867-3.2402-1.0161-0.74301-2.2634-1.3496-2.7715-1.3496-1.6067 0 2.5628-3.9374 6.7988-6.4199 2.2408-1.3132 4.0742-2.7789 4.0742-3.2559s-2.1236-0.86719-4.7207-0.86719c-4.9579 0-14.11 4.034-20.893 9.207l-3.2188 2.4531-10.262-1.0781c-27.217-2.8598-36.794-5.2083-82.135-20.145-37.76-12.439-44.26-14.362-58.307-17.244-32.895-6.7504-91.695-14.349-111.35-14.389-7.3058-0.0149-9.0332-1.2386-12.42-8.7852-2.1081-4.6975-2.7928-7.8919-3.1445-14.668-0.50426-9.7156 0.38943-16.635 4.8144-37.273 2.9097-13.571 2.9722-14.292 1.334-15.49-0.71468-0.52258-1.333-0.77426-2.2383-0.73828zm-82.449 114.84c11.64-0.15493 12.753 1.8084 6.6836 7.2852-8.2658 7.4581-13.82 8.9379-34.926 9.3086-6.3884 0.11221-7.7117-0.16008-9.8984-2.041-1.9965-1.7173-2.3909-2.7-1.8887-4.7012 1.6103-6.416 6.4081-7.9105 30.248-9.4238 3.8487-0.24431 7.095-0.39198 9.7812-0.42774zm141.43 5.2422c11.31 0.0178 28.267 1.9391 33.004 3.7402 3.4541 1.3132 3.4148 4.7419-0.0977 8.502-3.5696 3.8213-8.206 4.9688-20.309 5.0254-12.086 0.0565-18.141 1.0968-19.83 3.4062-1.7754 2.428-1.5678 3.8499 0.90234 6.2031 2.4278 2.3129 2.2264 2.3172 37.135-0.59961 13.938-1.1646 24.39-1.339 48.875-0.8125 11.985 0.25774 21.898 0.64904 26.486 1.002-10.353 1.5122-53.712 7.8072-74.754 10.193-23.88 2.7079-50.904 5.6473-71.352 6.6699-19.052 0.95281-46.254 0.44397-49.961 0.36914l-3.8574-4.123 17.959-0.61523c18.732-0.64031 32.928-2.044 35.711-3.5332 2.3795-1.2735 3.5961-5.2624 4.1328-13.557 0.26123-4.0368 0.95628-8.2399 1.5449-9.3398 1.669-3.1186 10.45-8.5709 17.16-10.656 4.6151-1.4342 8.7939-1.8883 17.25-1.875zm235.05 11.918c0.45225-0.0674 0.60532 0.12577 0.35351 0.5332-0.56279 0.91062-2.3887 1.3465-2.3887 0.57032 0-0.20716 0.66833-0.63337 1.4863-0.94727 0.21321-0.0818 0.39808-0.13378 0.54883-0.15625zm-24.92 8.3106c-0.5211 6e-3 -1.0076 0.0757-1.332 0.20703-0.64882 0.26252 0.11406 0.46289 1.6953 0.44336 1.5812-0.0195 2.1121-0.23554 1.1797-0.47852-0.46622-0.12149-1.0219-0.17832-1.543-0.17187zm-403.99 3.8984c1.7995-0.0121 2.4782 0.22552 2.748 0.66211 0.80956 1.3099 5.5702 1.4102 6.8359 0.14453 1.0442-1.0442 15.015 0.95883 22.871 3.2793 6.0313 1.7815 11.261 4.9292 10.891 6.5547-0.15361 0.67378 0.72599 2.5037 1.9551 4.0644 0.58344 0.74089 1.7188 2.3671 3.0664 4.3652-1.2243-0.10314-3.1588-0.20397-6.7187-0.23047-4.0837-0.0304-10.622 0.84323-17.742 1.4785s-14.792 1.0295-20.859 0.11524c-12.29-1.8521-27.591-7.4588-34.641-12.135-3.5062-2.3258-5.9346-4.9121-7.498-6.9316 0.31282 0.16201 0.60683 0.33011 0.93945 0.48242 4.5246 2.0718 4.6245 2.0738 16.531 0.51758 12.511-1.6353 18.622-2.347 21.621-2.3672z" fill="param(fill)" fill-opacity="param(fill-opacity)" stroke="param(outline)" stroke-opacity="param(outline-opacity)" stroke-width="param(outline-width) 0.2"/>
</svg>
