<svg width="512" height="512" version="1.1" viewBox="0 0 512 512" xmlns="http://www.w3.org/2000/svg">
 <path d="m387.68 218.63s47.836-19.32 65.591-35.318c17.755-15.998 41.78-25.52 23.632-47.35-18.148-21.83-52.379-0.0819-72.327 8.3812-19.948 8.463-27.39 22.093-41.587 25.915s-39.196-1.2249-39.196-1.2249-26.816-11.889-66.337 0c-39.52 11.889-87.1 57.863-108.82 71.043s-19.598 11.024-19.598 11.024-14.097-5.0379-23.601-3.7519c-7.9801 1.0799-10.187-5.6257-14.022-3.6939-12.054 6.0718-9.6083-6.0043-15.744 3.6746-6.1356 9.6789 27.475 36.567 27.475 36.567s-22.528 26.24-24.029 41.549c0 0-25.76 29.687-43.171 40.794s2.9682 20.634 8.7886 26.502 11.472 5.7189 20.512 6.9901c9.0405 1.2712 17.72-2.1274 27.044-7.7701 9.3241-5.6427 25.722-26.947 25.722-26.947 26.116 0.90057 98.518-24.894 98.518-24.894 0.60038 16.51 54.42 51.118 77.792 54.785 23.372 3.6671 27.332-11.678 18.207-14.146-3.5015-0.94737 10.189 2.5562 7.9956-3.7259-1.5475-4.4328-8.1632-5.1718-13.124-11.894-2.6323-3.5669 7.0528-6.8219 2.1963-6.2827-9.2576 1.0278-19.374-8.9436-16.031-16.61 3.1691-7.2676-15.452-5.9998-24.465-2.98-1.2982-9.4985 4.47-22.021 4.47-22.021 47.13-14.709 97.15-68.615 109.01-63.694s6.3187 15.605 19.405 20.619c5.4532 2.0894 12.351-6.9995 18.975-2.9381 7.2951 4.4728 15.414-1.1802 22.528-5.888 3.7744-2.4977 13.886 1.2216 13.484-6.4452-0.51242-9.7762 7.2604-7.1722 5.8256-10.936-2.1304-5.5892 4.1554-14.38-4.4078-17.709-12.831-4.9882-55.109-3.8194-70.719-11.624z" fill="param(fill)" fill-opacity="param(fill-opacity)" stroke="param(outline)" stroke-opacity="param(outline-opacity)" stroke-width="param(outline-width) 0.2"/>
</svg>
