<svg version="1.1" width="512" height="512" viewBox="0 0 512 512" xmlns="http://www.w3.org/2000/svg">
 <path d="m454.16 459.85c2.0163-0.71871 4.9962-2.5657 6.6221-4.1045 1.9129-1.8104 4.7922-3.2064 8.1591-3.9557 2.8617-0.63685 5.9423-1.5382 6.8457-2.003 0.90347-0.46482 2.6063-0.84774 3.784-0.85095 1.1777-3e-3 3.3607-0.64176 4.851-1.419 1.4903-0.77726 3.8434-1.4132 5.2291-1.4132 2.8962 0 6.7244-2.3706 6.7244-4.1641 0-0.67031-0.82551-1.9658-1.8345-2.8789-3.2292-2.9224-22.656-10.738-42.628-17.15-33.642-10.801-39.023-12.756-45.469-16.52-11.308-6.604-19.518-15.435-40.388-43.44-23.986-32.186-24.183-32.417-50.844-59.679-27.109-27.719-33.217-35.232-38.363-47.183-8.2651-19.195-13.239-28.358-21.073-38.816-13.451-17.959-18.645-30.68-20.466-50.126-0.51473-5.4967-1.4-15.102-1.9674-21.346-1.9454-21.409-3.7412-26.3-16.805-45.769-14.203-21.167-26.324-32.234-35.339-32.267-2.0003-0.0074-3.1189-0.98202-5.421-4.7233-1.5954-2.5928-5.2325-7.8673-8.0827-11.721-4.7815-6.4655-5.557-7.0971-10.032-8.1708-6.0351-1.4478-11.305-0.7968-15.032 1.8569-3.3807 2.4073-8.9356 13.514-10.838 21.67-0.74659 2.0668 0 0-3.0731 6.3423-2.5941 4.3302-10.878 16.922-11.725 18.602-2.0127 3.9893 0.4869 0.35335 6.0181-7.5489 2.483-3.5473 6.673-9.6481 6.8863-9.4348 0.21331 0.2133-0.89305 3.2127-2.4586 6.6654-3.6221 7.9883-5.5741 13.64-1.9209 6.9001 1.5512-2.8617 4.5019-8.5038 4.1322-7.203s-0.62847 3.2164-0.57492 4.257c0.38559 7.4936-2.9204 63.844-4.1039 69.95-6.0099 24.818-17.132 49.466-21.585 73.37-4.5134 22.838-1.3954 50.257-4.3037 69.532-2.4686 16.167-9.9146 53.117-12.01 59.599-7.2372 22.384-25.058 41.694-59.208 64.156-7.415 4.8773-14.049 9.5515-14.743 10.387-2.8794 3.4703 1.5754 7.3902 6.632 5.8357 2.8396-0.87294 54.72-26.845 68.891-34.487 19.055-10.277 30.178-19.817 33.623-28.837l1.6278-4.2622 2.6142 4.1221c5.733 9.0401 14.043 12.84 33.44 15.291l4.6116 0.58272-3.6656 3.7662c-6.0054 6.1702-12.453 10.682-24.951 17.46-14.579 7.9068-17.592 10.128-20.98 15.465-3.3903 5.3405-3.4087 8.4683-0.0684 11.584 5.5526 5.1788 9.4131 5.6834 20.332 2.6576 8.4458-2.3404 10.091-2.3393 17.592 0.0122 7.4703 2.3417 12.745 2.3606 22.276 0.0797 6.8755-1.6453 8.0632-1.6788 15.136-0.42731 13.54 3.2499 22.516-4.6326 32.798-4.4356 4.3823 0.0966 8.7756-0.40629 11.352-1.2993 3.1174-1.0805 6.1748-1.3073 11.835-0.87798 8.6735 0.6578 13.26-0.81242 16.432-5.267 2.0123-2.826 4.3155-11.161 5.2511-19.003 0.97157-8.1433 1.1784-8.5141 4.7489-8.5141 1.7553 0 3.4583 0.43179 3.7845 0.95953 13.828 7.102 36.502 8.3187 51.157 8.3522 7.1137-0.11135 9.8386 0.32941 17.42 2.8177 10.689 3.5084 15.673 6.5364 28.064 17.05 11.217 9.5176 23.02 17.447 35.232 23.668 14.856 7.5688 17.413 7.8966 22.677 2.9067 1.9993-1.8952 2.4754-1.9883 4.257-0.83246 4.7973 3.1124 10.551 5.6196 12.809 5.5812 1.3427-0.0228 4.0909-0.62956 6.1072-1.3483z" fill="param(fill)" fill-opacity="param(fill-opacity)" stroke="param(outline)" stroke-opacity="param(outline-opacity)" stroke-width="param(outline-width) 0.2"/>
</svg>
