<svg version="1.1" width="512" height="512" viewBox="0 0 512 512" xmlns="http://www.w3.org/2000/svg">
  <path d="m214.7 446.57c5.8581-29.584 11.551-59.211 16.618-88.941-8.8115 12.162-17.123 26.951-12.668 11.214-5.9606 11.398-20.715 47.44-21.994 46.274 5.6672-17.275 17.278-43.916 20.012-55.512-7.9203 13.404-15.094 27.238-23.074 40.607 2.2647-8.3188 19.443-40.641 7.5005-24.764 2.1965-9.6326 15.945-24.367 11.427-31.394-19.418 31.047-37.876 62.688-57.463 93.628 14.038-32.704 30.334-65.227 43.583-97.873-24.589 21.531-44.422 48.39-69.793 69.111 7.1381-10.96 31.098-35.2 29.485-37.524-11.28 10.988-22.445 22.093-33.668 33.139 14.729-16.208 28.934-32.867 41.717-50.536 3.038-6.0592-17.305 10.244-23.936 13.727-4.2744 0.95271 19.493-17.328 26.659-24.267 9.5818-3.4371 15.6-19.296 1.8678-11.431-10.015 7.8347-43.101 36.441-39.785 32.34 10.908-11.957 32.166-29.48 36.39-38.114-18.498 11.098-36.952 22.362-55.136 34.038 5.6826-7.62 27.954-27.807 22.87-25.397-23.796 18.498-47.552 37.047-71.39 55.491 16.967-16.785 23.075-25.568 41.164-40.331 6.6854-6.2719 34.841-29.658 12.547-15.676-11.737 5.9548-36.527 22.154-40.602 22.494 10.874-7.6747 29.725-21.423 35.787-28.277-8.3636 4.6254-29.709 19.231-11.637 4.1933 4.5927-5.437-24.958 15.206-8.6766 2.4683 22.916-17.172-30.107 18.389-4.0614-1.0421 6.1969-4.6735 31.687-23.715 12.23-11.346-6.6989 4.6268-27.208 17.502-10.011 4.3664 10.383-9.0304 33.509-24.414 36.232-29.767-18.891 7.0004-37.418 14.964-56.395 21.728 10.179-6.2081 30.484-13.706 35.111-18.411-9.0344 1.3155-39.044 9.3651-35.552 7.0242 20.244-7.4271 41.657-12.699 61.376-20.859-17.863 0.0236-38.476 6.5537-57.375 9.6526-10.401 1.7832-39.791 8.614-38.864 7.1207 24.943-8.6474 50.349-15.995 75.045-25.326-28.684 1.222-57.304 4.3648-85.972 5.3426 32.284-6.8996 65.151-11.152 97.572-17.512 1.8193-12.374-11.541-7.1426-18.877-8.6973-11.18-0.44275-27.213-0.63914-6.5487-2.6381-8.9241-1.1112-25.112-1.8306-7.239-2.452 9.1487 1.0248 43.548-1.7114 16.636-2.9905-15.264-1.0272-49.031-0.0333-52.965-2.5221 15.146-2.1211 47.269-2.9092 52.499-5.251-23.877-2.2288-47.799-3.9352-71.689-6.0275 23.89-2.1034 50.783-0.82044 73.056-3.6657-23.3-4.0643-46.899-6.5155-70.065-11.252 20.376 0.48895 40.671 2.7401 61.042 3.3528-21.085-5.1892-42.558-8.6884-63.648-13.855 27.562 3.2019 55.009 7.505 82.51 11.063-13.589-9.1669-36.932-11.554-54.229-18.143-9.4945-3.8553 22.842 3.4788 29.103 4.2115 8.1488 1.716 21.546 3.5918 5.7783-0.24284-14.452-4.3115-46.225-11.088-49.83-13.892 24.302 3.1636 48.405 7.8493 72.728 10.747-15.931-10.155-36.413-15.344-54.074-23.511-8.4462-3.3395-30.422-12.292-9.9459-5.4472 10.65 3.014 29.445 10.206 35.664 10.781-7.5988-4.3614-30.362-13.896-29.286-15.082 20.822 6.5243 41.153 15.522 62.166 20.843-16.015-12.072-36.67-19.127-54.323-29.57 19.454 6.8995 38.022 16.487 57.9 22.041-9.959-10.275-36.272-19.936-44.58-27.769 14.336 3.8705 42.247 21.242 48.202 15.93-19.755-17.629-40.94-33.591-61.022-50.815 23.011 13.362 45.425 27.989 68.363 41.313 14.8-3.0778-12.029-25.542-16.682-35.469-8.2069-11.004-16.408-22.012-24.611-33.018 17.394 17.614 34.787 35.229 52.181 52.843-11.206-14.088-22.454-28.142-33.604-42.275 13.62 12.612 25.842 26.759 39.862 38.912-7.7558-14.111-20.87-35.135-25.99-45.741 13.176 13.427 23.943 29.313 37.866 41.898-0.14994-7.5073-16.771-36.251-2.7281-15.127 7.5258 7.8439-6.0124-24.245-6.9005-31.96-3.8647-14.798 8.9858 15.49 12.234 21.113 3.6484 7.6194 12.716 27.564 7.6648 7.8931-2.4344-11.05-6.5766-32.917 0.0489-10.569 3.8836 5.7086 2.2965 25.037 12.587 15.839-0.45604-14.239-8.8305-37.751-8.4213-46.591 7.7235 12.759 9.1524 34.397 20.24 42.475 4.5167-19.034 2.5983-39.17 4.9247-58.612 4.7826 15.945-4.7789 48.524 12.738 54.015 0.95193-14.863-3.7142-48.066 2.9495-15.605 2.162 11.322 3.3415 11.671 4.2847 11.429 13.446 7.955-1.1655-40.498 5.2589-33.274 2.7585 9.7185 4.1256 27.657 7.5398 32.663 1.1071-10.403 1.4637-45.764 4.9058-18.586-2.829 10.36 8.7594 32.264 15.001 14.73 0.91539-6.9422 2.2738-24.787 3.5115-12.692 1.67-9.4215 5.1281-47.032 5.1577-19.052 0.48944 4.4948 0.20645 34.524 2.5121 19.87 1.9004-10.557 6.3674-32.588 4.1419-8.8729-3.4923 8.3448-1.559 42.482 7.2756 26.04 1.9214-11.422 4.0166-22.814 6.0664-34.213-0.32602 13.516-0.65204 27.032-0.97805 40.548 13.478 7.6039 24.218 6.6594 27.556-11.021 7.9762-17.93 17.387-35.137 25.94-52.796-7.4494 25.193-16.239 49.975-23.649 75.18 4.6515 11.164 14.278 2.132 12.224 3.6207 2.1325 3.0923 14.084-24.645 19.883-33.226 5.125-9.5625 7.0136-12.418 2.7151-0.68787 5.7638-8.8802 16.774-26.371 7.9184-6.2888-6.731 17.511-15.408 34.572-22.702 51.589 13.105-1.5308 27.275-23.442 34.232-28.427-10.401 14.596 26.951-21.038 8.3947-1.36-8.0172 7.9054-29.986 31.713-8.5638 14.412 9.5905-7.583 26.664-19.111 9.399-2.7868-6.3436 9.4953-31.322 26.421-25.685 32.996 34.027-17.588 66.236-38.71 100.66-55.455-30.205 24.118-63.408 45.215-91.762 71.189 27.356-11.546 53.906-25.37 81.066-37.114-23.928 15.63-48.705 29.926-72.659 45.516 20.467-7.995 40.35-17.438 60.881-25.269-7.9554 5.3385-28.082 16.522-7.848 7.6877 7.5681-3.1388 35.503-15.173 14.298-4.3104-8.3491 4.9784-35.231 17.604-32.492 18.169 15.45-4.7411 41.326-15.335 49.802-16.721-27.213 12.708-55.732 22.823-82.538 36.195 27.502-8.1507 54.126-20.941 81.382-30.576 12.247-5.1463 15.367-5.2475 1.6707 1.5319-8.6168 4.7585-39.138 19.56-13.396 10.499 8.8326-2.5181 46.452-14.162 20.784-4.2324-22.332 9.216-45.125 17.356-67.165 27.255 23.783-2.435 47.336-6.7831 71.123-9.1805-21.708 6.5098-44.278 10.003-65.853 16.914 27.094 0.53187 54.621-6.1908 81.402-0.84279-13.608 1.6274-27.222 3.2021-40.833 4.7996 13.77-0.1188 27.554-0.71778 41.314-0.3232-27.895 3.3624-55.894 5.8358-83.767 9.3761 27.568 2.1077 55.214 3.2038 82.806 5.0457-34.573 1.5762-69.166 2.7441-103.76 3.5647 17.974 2.1945 36.143 0.88851 54.169 2.0552-18.458 2.9757-38.618 1.5721-56.218 5.9905-1.9485 11.786 48.207 9.1478 23.852 12.755-10.732-2.728-40.803-1.3312-15.644 6.647 20.831 6.9158 42.35 11.818 63.75 16.215-13.458 1.7072 18.279 7.0229 23.073 9.6384 8.4476 2.4448 32.496 9.3063 10.319 4.8265-35.377-4.6492-70.243-16.215-106.18-14.714 32.332 7.3274 65.691 11.599 96.225 25.154-33.901-3.9834-67.618-9.7977-101.51-13.612 21.837 16.055 44.415 31.08 66.294 47.077-10.455-4.8731-40.196-22.536-16.187-5.8376 9.9962 7.81 42.795 29.545 38.045 28.487-9.2462-4.6817-41.364-23.79-36.258-19.378 10.246 8.3636 40.841 27.926 37.891 28.319-27.34-15.428-56.812-33.066-82.842-47.05 20.301 17.561 41.788 33.711 62.233 51.105-28.039-17.281-55.284-35.922-83.108-53.589 16.654 17.008 33.832 33.522 49.909 51.078-9.0184-5.9306-24.889-22.737-28.801-22.474 6.377 6.8047 14.161 16.79 2.0429 5.6932-11.168-8.7273-33.993-29.304-37.88-30.842 16.717 16.302 34.167 31.84 50.758 48.269-18.75-13.28-38.166-30.333-56.072-42.147 18.55 22.783 39.096 43.953 57.498 66.83-6.7619-5.451-24.669-24.845-24.344-22.425 6.8129 9.6251 22.436 29.046 23.843 32.918-21.099-23.482-42.538-49.673-63.056-71.829 13.482 21.216 28.213 41.626 41.593 62.909-16.808-19.54-32.721-39.832-49.296-59.569 9.9184 24.837 23.645 48.079 34.507 72.539-14.885-23.47-28.698-47.605-43.573-71.082 9.8659 27.285 22.248 53.666 32.467 80.845-11.441-22.293-21.501-45.276-33.047-67.515 6.2558 20.086 15.984 39.17 20.822 59.618-7.8399-13.461-20.035-33.61-28.701-49.82-3.4347-5.4091-18.398-35.578-10.846-12.624 6.2004 19.656 13.193 39.061 19.112 58.805-7.9928-17.469-14.414-35.629-22.549-53.033 4.4087 24.468 10.559 48.594 15.019 73.052-7.463-21.631-13.178-43.836-20.703-65.446 2.4546 22.548 6.6177 44.881 9.1188 67.424-4.6018-19.477-7.219-39.399-12.109-58.803 0.16744 9.0934 5.029 38.314-0.9017 15.076-3.7673-11.409-8.9077-36.662-12.2-38.383 2.249 32.28 4.9068 64.704 5.9793 96.956-4.1598-23.448-7.2504-47.074-10.826-70.618-0.29527 3.59-0.93489 26.465-1.1537 19.927-2.8436-15.686-4.1418-31.794-8.7006-47.057-5.647 18.068-4.0232 43.891-6.9456 64.867-0.78451 12.343-2.4895 24.694-1.584 4.4381 0.65532-23.165 1.3439-46.336 2.7354-69.471-16.654 4.6856-11.809 38.536-19.625 54.104-2.1164 9.095-11.143 49.945-6.4342 21.32 1.4348-8.7407 7.3167-41.704 1.0219-16.493-3.2747 11.422-9.1018 36.736-11.264 39.222zm118.35-41.22c-8.0116-12.782 6.9161 14.536 0 0zm-194.19-5.1381c4.9151-6.8718-7.17 6.9874 0 0zm188.42-7.3521c-8.0116-12.782 6.916 14.536 0 0zm-7.6835-16.342c-5.2409-7.8059 4.337 10.355 0 0zm-35.507-9.2124c-1.6667-0.31066 1.0087 6.4198 0 0zm-72.033-252.21c-1.4972 0.0604 0.8868 8.503 0 0zm9.9822 324.91c0.88767-3.596 0.41062 4.1747 0 0zm74.941-4.8039c0.88767-3.596 0.41063 4.1747 0 0zm-143.23-66.214c9.0874-8.6843-6.8361 8.5357 0 0zm318.8-172.16c5.5441-0.6059-1.8225 1.6926 0 0z" fill="param(fill)" fill-opacity="param(fill-opacity)" stroke="param(outline)" stroke-opacity="param(outline-opacity)" stroke-width="param(outline-width) 0.2"/>
</svg>
