<?xml version="1.0" encoding="UTF-8"?>
<svg version="1.1" width="512" height="512" viewBox="0 0 512 512" xmlns="http://www.w3.org/2000/svg">
  <path d="m237.22 497.36c54.378-9.772 101.38-60.802 98.491-117.53 0.97857-18.927-7.1505-36.348-11.75-54.251 7.0785-17.914 51.333 18.236 38.709-8.5238-9.7887-21.164 48.491-12.037 16.682-23.664-20.352-2.0901-19.042-25.27 2.2726-23.03 26.853-9.6933-31.678-4.7144-21.935-25.337 3.4575-8.5108 26.951-28.748 4.646-17.465-16.447 6.4541-34.926 2.641-48.251-8.5412-2.7548 17.742-22.271 41.958-36.809 18.183 10.91-17.58 29.788-31.966 31.569-54.418 4.7635-28.961-10.496-55.705-27.105-78.083-5.2274-14.821 34.356-21.627 7.356-34.302-12.167-9.6209 6.3804-31.801-16.87-28.622-18.055-0.0358-4.6296-37.469-24.629-17.977-14.017 10.842-35.287-28.437-37.356-1.0351-14.385-3.081-22.758-9.0461-20.161 7.7694-19.691 0.87281-34.326 17.524-37.755 36.142-7.4492 32.055-33.486 54.087-57.759 74.027-14.848 20.109 25.437 24.867 35.33 10.684 21.796-9.7597 48.783-2.4454 69.102-16.009 7.945-7.5833 9.3581-30.508 17.033-8.4689 11.45 22.419-20.439 32.334-34.386 42.514-28.935 14.941-58.828 41.037-56.911 76.559-2.1042 32.788 27.347 56.189 54.9 67.316 29.738 12.113 63.123 26.22 76.483 57.851 13.686 31.303-3.9756 71.223-33.925 85.663-23.859 11.226-55.425-3.8371-59.215-30.537-7.2131-20.468 15.013-48.627 35.996-33.782 8.1071 6.1135 26.812 31.817 21.898 6.2255-12.063-34.935-71.516-37.633-85.05-2.1201-15.178 40.124 14.592 86.498 54.514 97.244 14.445 4.4326 29.937 4.5695 44.885 3.5154z" fill="param(fill)" fill-opacity="param(fill-opacity)" stroke="param(outline)" stroke-opacity="param(outline-opacity)" stroke-width="param(outline-width) 0.2"/>
</svg>
