<?xml version="1.0" encoding="UTF-8"?>
<svg version="1.1" width="512" height="512" viewBox="0 0 512 512" xmlns="http://www.w3.org/2000/svg">
  <path d="m215.2 498.54c-26.711-9.2342-51.928-33.599-48.692-63.876-1.1032-25.362 10.929-56.222 38.571-61.517 19.333-8.5506 41.884 7.1 42.533 27.698 0.2586 25.241-18.786-15.827-32.096-10.079-23.651 3.3516-33.111 32.541-22.685 52.118 9.3068 21.881 36.194 12.149 54.183 11.353 12.402-9.6569 16.219-23.496 24.54-35.513 5.9966-19.912 14.53-38.973 15.218-60.224 3.3122-17.871 4.9517-41.789-19.178-43.14-15.874-9.5941-35.702-20.729-38.437-40.99-10.143-19.185-11.286-41.13-13.631-62.242 1.9642-22.455 9.2285-43.721 18.176-64.301 4.6076-13.28 18.526-32.708 20.656-40.852-27.585 16.39-61.185-2.4453-89.005 13.422-17.74 7.897-33.706 19.171-51.071 27.769 2.9109-12.669-19.769-22.563 2.3268-26.389 23.436-10.44 45.925-23.644 65.42-40.344 7.4676-11.238 2.5607-39.648 19.22-40.25-0.25431 8.6706 0.55408 21.53 7.9131 7.5284 6.2865-18.632 23.991-29.66 41.618-31.694 11.87-5.2843 23.377-8.2154 34.156-1.2741 14.903-0.4984 28.629 7.0582 37.04 20.258 5.8238 12.169 16.339 21.882 18.552 33.434 8.4782 15.3 18.789 30.188 15.816 48.855 1.8886 10.596 4.2098 22.066 1.4161 31.738-5.9054 9.7609 6.5294 21.878-1.0366 32.957-1.0641 12.08-21.001 34.299-10.251 40.107 12.267-0.44005 35.484-4.0577 27.605 15.3 5e-3 13.289 1.0276 26.909-0.54554 40.32-6.903 7.2492 2.3916 30.182-17.543 23.222-24.18-10.851-11.316 21.893-16.406 35.792-2.8642 20.768-10.469 40.001-13.898 60.51-5.9461 18.15-14.048 32.2-20.626 49.992-11.488 12.772-16.799 31.101-33.173 36.233-14.699 13.484-37.521 18.658-56.686 14.078z" fill="param(fill)" fill-opacity="param(fill-opacity)" stroke="param(outline)" stroke-opacity="param(outline-opacity)" stroke-width="param(outline-width) 0.2"/>
</svg>
