<?xml version="1.0" encoding="UTF-8"?>
<svg version="1.1" width="512" height="512" viewBox="0 0 512 512" xmlns="http://www.w3.org/2000/svg">
  <path d="m86.511 386.94c-3.9528-23.241 39.501-39.089 32.813-54.179-28.417-10.535-47.9-31.849-66.85-53.105-20.079-16.683-56.693-49.771-36.542-75.534 29.116-6.4249 59.781-2.444 89.375-6.569 37.626 0.159 75.615 1.7502 112.28 10.179 10.828-11.869 37.043-66.877 47.951-33.862-3.1307 29.355 2.4466 64.242 32.307 77.977 22.252 11.715 50.216 38.706 75.737 26 16.214-19.258 3.4935 16.239 23.64 8.8586 38.741 14.457 50.856-27.64 71.978-50.575 6.6894-14.898 41.895-34.297 24.845-6.921-2.7587 24.086-21.665 49.619-17.139 76.635 0.51633 22.562 29.995 50.524 21.453 66.148-29.772-8.2964-43.286-41.073-69.719-54.774-28.964 5.3568-56.091 18.638-84.193 26.72 30.664 12.05 63.639 20.501 92.116 36.749-24.931 2.3271-51.304-8.7682-76.87-11.661-21.408-0.71244-70.692-18.331-76.761-9.959 7.6168 15.974-36.645 9.9937-49.945 10.734-28.403 1.2089-56.741-20.941-83.733-4.7842-20.744 7.1106-41.323 18.919-62.746 21.922z" fill="param(fill)" fill-opacity="param(fill-opacity)" stroke="param(outline)" stroke-opacity="param(outline-opacity)" stroke-width="param(outline-width) 0.2"/>
</svg>
