<?xml version="1.0" encoding="UTF-8"?>
<svg version="1.1" width="512" height="512" viewBox="0 0 512 512" xmlns="http://www.w3.org/2000/svg">
  <path d="m46 430.32c-14.743-38.763-4.7348-81.699 8.6806-119.41 5.9644-24.629-29.671-28.815-35.159-49.584 0.33803-21.169 6.6487-43.193-6.3747-62.501-4.7645-20.105 4.1168-40.198 5.4993-60.287 0.56876-30.247 31.603-24.308 47.49-9.4296 19.176 9.9095 34.93 24.601 47.262 42.169 15.384 14.124 32.325 26.604 49.533 38.428 15.275-13.559 29.705-34.025 52.661-31.048 23.67-1.8558-7.9477 22.521-0.10277 36.653-3.7571 20.876 6.7095 41.049 28.09 46.019 17.338 7.4358 34.477 16.051 52.049 22.619 8.3635 0.23136 16.727 0.46272 25.09 0.69407 0.26844 19.396 27.428 14.466 40.46 20.523 20.956 3.5954 31.089-23.948 47.565-33.336 26.992-23.738 57.085-44.139 89.69-59.337-5.674 16.273-17.266 31.69-24.475 48.044-9.6397 21.955-25.377 43.289-24.824 68.106 8.9861 28.343 32.254 48.985 50.546 71.597 10.678 10.707-18.478 2.5507-24.706 1.8195-25.97-6.0264-50.589-18.537-68.497-38.616-12.648-13.494-27.574-28.257-47.867-24.416-10.21-2.1302-14.453 1.357-14.642 11.83-9.9871 1.0839-17.302-11.917-27.755-7.9509-13.761 1.2824-28.809 2.9555-39.337 8.6906-13.02-1.6244-27-6.894-27.324 11.423-16.687 5.8024 2.5837 19.031 3.5542 30.094 9.1518 24.486-24.292-2.6419-30.497-10.233-16.192-12.093-27.118-34.013-48.139-37.666-22.228-0.20508-43.63-6.2756-65.095-11.048-17.111 7.0827-26.731 26.466-37.275 41.191-11.43 17.565-16.539 38.105-22.482 57.767-1.621 1.2554-3.1716-2.6328-3.6206-2.7998z" fill="param(fill)" fill-opacity="param(fill-opacity)" stroke="param(outline)" stroke-opacity="param(outline-opacity)" stroke-width="param(outline-width) 0.2"/>
</svg>
