<?xml version="1.0" encoding="UTF-8"?>
<svg version="1.1" width="512" height="512"  viewBox="0 0 512 512" xmlns="http://www.w3.org/2000/svg">
  <path d="m276.42 376.54c-29.195-3.1109-54.578-18.29-80.208-31.348-35.086 7.0088-70.483 15.346-106.41 14.779-8.073-2.8701-37.619 0.44621-32.127-11.192-15.967-1.3275-40.673 3.0989-49.798-12.163 22.24-20.308 50.046-33.452 76.155-48.113 32.67-18.237 67.929-30.843 103.73-41.335 18.527-3.0727 32.022-14.951 36.852-33.101 5.8784-9.197 14.206-36.551 25.563-31.387 4.569 15.693 6.6835 32.749 19.09 44.527 13.907 14.31 35.722 7.3181 53.436 9.7546 21.681 0.48498 43.362 0.95415 65.043 1.4319 9.0875-15.36 13.222 7.7931 26.953 1.695 20.721 3.7599 36.703-6.0228 45.082-24.809 13.996-18.776 29.052-36.723 43.815-54.891 1.9666 15.407-9.3442 31.627-13.413 47.362-7.5468 17.386-13.864 35.861-6.5044 54.436-1.3169 9.996 10.717 33.355 2.3551 35.279-15.916-11.332-25.997-28.636-38.454-43.312-15.215 1.2259-30.505 9.3618-40.79 16.273-15.882 4.2752-36.115 8.6721-42.507 24.102 2.4454 10.115-18.324 0.36241-26.553 1.5188-28.774 14.427-57.901 28.211-88.209 39.142-8.5136 12.299 22.816 20.352 31.249 30.233 8.4357 4.8125 22.798 16.2 3.3733 12.07l-3.6969-0.41273-4.0189-0.53965z" fill="param(fill)" fill-opacity="param(fill-opacity)" stroke="param(outline)" stroke-opacity="param(outline-opacity)" stroke-width="param(outline-width) 0.2"/>
</svg>
