<svg version="1.1" width="512" height="512" viewBox="0 0 512 512" xmlns="http://www.w3.org/2000/svg">
 <path d="m180.19 255.65s6.7475-9.4482 8.5083-14.273c1.3855-3.7964 0.93061-11.591 0.93061-11.591s36.287-59.464 65.274-88.429c15.625-15.613 60.774-49.889 60.774-49.889 2.3418-5.5617 12.153-9.6107 8.7569-10.457-11.712-2.9195-24.106-17.973-32.182-35.277 37.605-18.802 104.38-12.724 104.38-12.724l41.542-17.725s-3.8772 16.254 2.4389 32.679 53.851 63.613 56.435 74.467c5.8335 24.503-42.917 4.6462-77.629 14.77 0 0-7.7232-2.5996-14.955-18.509-2.8927 25.311-33.892 71.212-60.628 104.19-20.555 25.355-46.436 48.746-73.952 67.982-3.9025 2.7283-11.093-7.5389-11.093-7.5389l-15.812 12.355s-0.84718 5.4508-3.1176 7.8416c-1.4859 1.5647-9.5129 6.1545-9.5129 6.1545s-7.0059 7.2421-9.083 11.73c-2.303 4.9759-3.3976 16.094-3.3976 16.094 22.028 5.5944 55.192 7.9218 82.953 5.4453 30.432-2.7148 88.479-23.926 88.479-23.926s31.797-15.561 39.328-22.64c7.5316-7.0797 11.903-5.9559 28.938-21.936 11.324-10.623 28.344-25.656 29.8-48.326 0.54137-8.4297 10.134-14.183 10.134-14.183 0.93539 16.276 3.1085 44.501-19.265 69.18-9.8313 10.844-24.797 21.965-42.396 27.403-17.125 5.291-31.486 17.46-43.393 22.339-24.619 10.088-53.874 22.26-80.3 25.342-32.081 3.7419-96.86-2.5993-96.86-2.5993s-1.4422 5.6839 1.439 8.0411c5.7514 4.7053 18.294 8.6777 20.87 15.384 2.491 6.4836 9.1891 39.029 23.425 51.312 17.122 14.773 59.502 42.025 71.39 1.1155 2.4476 8.3916 2.9293 21.189-9.1728 25.422-25.18 8.8081-58.424 3.3692-84.042-21.808-11.97-11.764-45.386-63.65-45.386-63.65s-2.4614 27.072 0.76582 38.359c6.8735 24.04 21.932 47.261 40.79 62.949 14.753 12.274 46.85 33.464 46.85 33.464s-42.651-19.82-58.105-31.134c-16.923-12.389-25.933-19.732-36.776-39.574-12.457-22.794-18.714-27.534-17.665-71.24-8.7413 60.14-14.617 62.749-14.617 62.749-4.8951 17.832-19.176 31.719-25.173 41.888-2.9441 4.9922 12.903 11.654 12.903 11.654s-18.786-5.6658-16.732-12.27c1.4267-4.5876 16.909-25.729 20.778-40.356 3.4084-12.888 3.0633-8.1391 1.6647-39.957 0 0-19.64 14.385-28.369 23.89-9.9613 10.848-12.873 30.968-24.208 36.961-8.0389 4.2505-13.685 6.6093-21.593 1.5981-5.9592-3.7761-7.3921-14.484-7.3921-14.484s4.9769 16.133 21.411 11.938c4.4252-3.146 8.5072-2.5248 17.081-24.087 6.6217-16.653 20.629-29.123 20.629-29.123 16.084-12.238 48.605-62.769 27.02-54.225 0 0-26.953 22.594-47.259 33.044-8.5186 4.3841-18.25 6.0262-26.861 10.225-7.3379 3.5782-9.4127 12.407-20.96 12.669-9.4991 0.2155-11.557-4.8826-21.044-4.3612-5.5689 0.30602-11.288 9.3399-11.288 9.3399s3.4363-10.175 7.8083-12.27c8.2194-3.9386 18.396 5.4558 27.176 3.0115 11.398-3.1729 8.6021-15.981 28.183-21.575 0 0 17.261-8.1886 50.477-35.811l-45.601-3.6295s-27.224-0.28025-40.157 3.3464c-12.809 3.5918-35.695 17.847-35.695 17.847s15.352-15.224 25.523-20.761c13.324-7.2526 26.226-10.927 42.787-12.42 11.48-1.0351 27.621 1.5065 38.775-1.3986 5.0754-1.3219 5.6933-0.33258 13.735-7.6752 0 0-52.472-8.9581-72.906-24.725-18.091-13.959-26.164-31.522-38.623-55.356-10.982-21.007-10.672-32.43-14.868-57.256 17.133 22.378 4.4925 30.414 40.507 72.023 0 0 16.764 21.359 30.333 28.936 11.669 6.516 40.641 11.371 40.641 11.371s-15.045-21.403-23.627-31.243c-7.8543-9.0065-25.387-25.313-25.387-25.313s-9.7694-11.643-37.926-31.233c-9.6478-6.7124-21.465-36.156-12.12-44.835l16.582-15.4c-28.322 28.322-1.9973 49.464-1.9973 49.464 36.364 18.881 44.117 23.573 50.061 30.916 0 0 24.841 9.8226 31.484 17.865 0 0-0.91271-34.817 12.386-59.817 18.76-35.267 88.073-115.84 88.073-115.84 17.742-2.0161 50.23-43.924 54.336-42.147 4.4796 1.9395-9.9312 29.022-31.584 45.21-21.652 16.188-57.967 54.416-81.738 90.353-9.7246 14.701-15.581 29.89-20.629 48.691-4.3502 16.202-6.4845 34.339-1.3487 50.309 3.0136 9.3712 17.851 23.526 17.851 23.526l8.6179-6.9557s-0.88164-5.8702 4.1054-9.4576c4.9871-3.5874 9.301-1.4404 9.301-1.4404z" fill="param(fill)" fill-opacity="param(fill-opacity)" stroke="param(outline)" stroke-opacity="param(outline-opacity)" stroke-width="param(outline-width) 0.2"/>
</svg>
