<svg width="512" height="512" version="1.1" viewBox="0 0 512 512" xmlns="http://www.w3.org/2000/svg">
 <path d="m254.63 488.72c-9.468-17.03-5.699-42.04-28.524-47.842-11.327-5.8303-27.172-15.27-19.462 5.7177 2.449 10.42-4.1848 20.694-10.199 28.154-11.297 3.4793-24.551 19.468-34.712 4.1029-11.806-18.462-2.9511-43.176-2.1449-63.924-0.0212-12.146 10.633-25.489 0.2263-35.657-9.8118-17.989-19.51-37.788-20.998-57.513-9.0339-13.138-0.80377-36.584 0.49233-36.668-13.8-12.821-3.5691-39.554-1.504-57.494 3.0615-11.65 19.371-48.317-4.125-27.773-18.557 14.466-35.036 31.645-47.368 51.739-12.291 4.4134-15.308 26.7-28.463 26.054-3.5487-23.904 0.19607-49.834 11.187-71.343 14.211-33.105 41.771-62.756 76.861-73.876 15.883-3.0027 45.644-8.7979 46.078 15.579 12.999-1.3434 13.814-22.087 26.759-18.823 7.4829 1.1605 12.627-12.174 11.321-20.496-2.9404-21.132-0.77353-41.661 5.8608-61.809 7.4744-13.428 23.545-28.709 33.988-8.1652 15.119 17.275 13.292 43.993 11.84 65.931-4.4687 9.6463 6.2932 23.532 9.1614 24.579 13.912-6.9441 25.839 34.144 31.939 8.9717 14.223-16.492 41.468-8.1634 58.959-0.87337 19.309 11.922 38.637 27.032 50.78 46.27 14.41 14.056 14.316 37.188 22.33 53.685 0.90654 11.119 8.658 38.807-2.4215 40.353-16.368-13.666-30.188-30.584-40.759-48.895-15.149-11.403-26.571-34.265-47.141-34.504 5.9406 20.858 13.184 41.469 14.641 63.14-2.1033 8.8456 6.3508 23.632-4.2647 28.168 9.6077 16.973-5.71 37.062-4.729 54.041-10.622 17.394-12.002 33.936-25.375 52.241 3.6189 12.277 8.7758 32.566 9.5907 48.534 1.7237 16.969 3.4928 49.784-21.73 46.341-9.1816-4.2675-10.149-14.717-19.204-10.41-7.8295-12.058-11.168-22.248-6.3994-37.745-4.3963-14.851-23.825 6.3517-34.408 10.575-11.669 6.1619-7.4134 24.076-13.338 34.692-1.0789 1.0555-2.0751 10.029-4.7436 4.9434zm-8.6185-294.62c-5.6427-0.89953-0.0703 1.5689 0 0zm-57.238-23.656c2.8012-4.0823-5.061 4.8269 0 0z" fill="param(fill)" fill-opacity="param(fill-opacity)" stroke="param(outline)" stroke-opacity="param(outline-opacity)" stroke-width="param(outline-width) 0.2"/>
</svg>
