<svg width="512" height="512" version="1.1" viewBox="0 0 512 512" xmlns="http://www.w3.org/2000/svg">
 <path d="m307.32 457.68c-5.9272-26.472-37.285-39.948-54.11-61.125-8.7373-25.054-23.841-46.771-42.174-66.144 41.933-1.5593 84.55-10.212 120.69-32.365 20.879-2.7656 32.376-36.262 50.385-33.745 33.23 15.726 72.864 9.1251 106.47-1.9149 20.075-27.446-38.472-50.316-62.954-47.368-27.081 2.9542-5.7912-39.042-26.042-52.742-18.623-18.63 12.934-44.273-8.1666-64.839-27.586-2.9521-30.316 46.13-59.175 25.885-50.421-4.9386-102.3 1.0452-150.67 15.803-24.62 3.4113-49.032 37.015-67.111 32.534-10.338-17.458 26.18-71.757-14.214-51.959-35.871 12.307-60.027 52.534-35.771 87.11 1.5862 23.839 55.872 28.599 23.938 49.861-14.729 11.048-37.733 5.8491-52.852 19.261-23.5 4.4313-35.39 53.313-8.5094 53.568 33.88 5.9398 66.256-7.6598 92.141-29.787 13.944-5.9069 18.523 29.706 39.645 29.081 3.4182 21.293 1.4923 61.613 28.423 79.754 32.588 22.661 68.993 43.13 108.68 49.603l5.1614 0.43435zm189.49-362.36c-2.425-3.4051-2.425 3.405 0 0z" fill="param(fill)" fill-opacity="param(fill-opacity)" stroke="param(outline)" stroke-opacity="param(outline-opacity)" stroke-width="param(outline-width) 0.2"/>
</svg>
