<svg version="1.1" width="512" height="512" viewBox="0 0 512 512" xmlns="http://www.w3.org/2000/svg">
 <path d="m306.24 499.89c-9.8268-9.9882 20.833-20.022-5.3246-14.36-14.004 5.6872-38.913-8.8097-14.484-16.099 21.97-8.5763-17.633-8.4695-16.335-19.268 10.759-17.541 42.875 0.84175 61.687-9.103 17.699-6.8408-24.791-7.3876-31.401-9.9294-33.908-2.9918-70.138-1.3211-100.2-19.976-12.806 9.0887-22.57 19.906-27.385 34.877-18.05 22.881-52.254 10.285-77.133 9.5278-24.244-0.233-43.416-15.47-67.897-13.561-26.149-10.329 18.043-31.762 31.195-35.26 22.748-2.9546 45.085-5.102 58.975-22.079 4.1691-20.499 18.101-38.507 8.4918-59.245-4.0392-44.024-7.2977-89.567 7.4378-132.13 5.5515-19.601 12.458-38.774 19.418-57.908-13.098-8.9012 6.7684-42.168-11.9-38.011-24.354 42.893-46.94 87.426-60.703 134.83-9.447-15.054-1.5338-42.696 3.8289-60.984 3.6846-10.436 4.7187-17.579-0.50442-3.5662-9.6509 15.986-13.326 50.66-25.626 56.899 6.0827-46.471 10.648-95.605 38.63-135.02 18.997-19.383 19.271-49.917 40.752-66.623 15.678-4.7327 27.243 12.652 39.592-5.5618 16.383-15.425 40.16 4.4931 59.704 6.4586 40.544 14.703 64.8 54.748 73.744 95.18 6.5756 23.929 9.4626 48.614 12.223 73.204 23.177 8.6406 48.907 16.716 62.606 39.146 9.9098 12.52 19.114 25.574 28.145 38.735 46.831 12.384 75.057 60.923 79.378 106.79 5.3804 35.308-8.0638 78.698-44.188 92.013-20.423 7.7394-42.939 1.7624-63.55 1.5416-24.633 13.334-49.914 31.711-79.173 29.479z" fill="param(fill)" fill-opacity="param(fill-opacity)" stroke="param(outline)" stroke-opacity="param(outline-opacity)" stroke-width="param(outline-width) 0.2"/>
</svg>
