<svg version="1.1" width="512" height="512" viewBox="0 0 512 512" xmlns="http://www.w3.org/2000/svg">
 <path d="m230.34 307.4c46.191-6.899 92.459-15.548 136.19-32.412 20.64-5.5588 39.78-20.022 61.955-17.152 19.316 9.0081 27.064 31.925 45.508 42.54 4.1643 8.4853 37.29 6.0874 22.006-2.4072-12.984-10.598-4.5866-32.345-19.563-42.173 0.58673-7.6527 3.7996-17.717 1.9151-26.689-3.6732-5.2217 11.059-12.211 3.6756-12.756-19.5-0.40154-28.952 25.752-48.75 23.487-20.31-7.4421-37.474-25.357-60.628-23.662-19.974 3.7865-34.697-9.153-52.069-14.362-15.692-10.843-32.206-5.6713-49.331-2.0458-33.912 3.1136-68.338 5.6238-102.25 1.344-15.018-7.3473-29.809-9.7241-45.277-0.9313-34.293 3.0196-69.122 1.2523-103.11 7.1286-13.946 12.567-6.439 34.46-6.6143 51.098-0.7852 10.107 8.8342 21.994 19.344 19.666 29.164-2.3358 59.747-2.9423 87.68 5.9626-10.558 2.5562-18.867 0.6333-26.694 1.937-4.7358 1.4044-11.278-0.63099-18.221 2.7417-9.7032-2.4792-21.466 3.2446-32.659 2.4128-7.1068 1.6597-22.842 5.2568-6.0932 6.5394 29.653 0.8353 59.407-3.0536 88.914 1.7677 34.636 2.762 69.208 10.125 104.06 7.9642z" fill="param(fill)" fill-opacity="param(fill-opacity)" stroke="param(outline)" stroke-opacity="param(outline-opacity)" stroke-width="param(outline-width) 0.2"/>
</svg>
