<?xml version="1.0" encoding="UTF-8"?>
<svg version="1.1" width="512" height="512" viewBox="0 0 512 512" xmlns="http://www.w3.org/2000/svg">
  <path d="m259.92 444.08c-12.663-1.8177-12.509-1.6951-21.911-17.415-8.3144-13.902-11.939-20.62-14.771-27.379-0.78782-1.8802-4.3316-6.5453-7.8752-10.367-5.089-5.4882-6.6745-7.9511-7.5458-11.721-1.7681-7.6503-4.8599-13-11.903-20.596l-6.593-7.1109v-14.034l-13.716-17.931-8.5709-0.55528c-20.282-1.314-53.007-9.9898-70.142-18.596-8.3014-4.1692-22.776-14.103-25.634-17.592-0.73729-0.90018-1.9635-1.6367-2.725-1.6367-5.0931 0-18.965 11.595-25.716 21.496-2.0177 2.959-7.2458 12.524-11.618 21.256-4.3723 8.7317-8.8196 16.746-9.883 17.809-1.9267 1.9268-1.9529 1.9249-7.5583-0.53291-6.1215-2.6841-8.0667-4.5657-8.0667-7.8029 0-1.1544 3.4725-9.092 7.7166-17.639 8.8383-17.799 14.212-24.758 30.499-39.497 5.5732-5.0434 10.262-9.4656 10.42-9.827 0.15768-0.36147-4.6723-5.215-10.733-10.786-16.461-15.129-21.978-21.208-25.332-27.917-4.9193-9.8372-2.876-14.971 7.3396-18.44 5.5758-1.8937 9.3613-1.6875 35.276 1.9216 50.571 7.0428 60.028 6.5116 127.27-7.1489l32.816-6.6671 2.8982-3.7759c1.594-2.0768 6.892-7.7317 11.773-12.567 9.2948-9.2062 16.303-13.531 23.892-14.745l4.0367-0.64549-2.6374 5.7417c-1.5485 3.3711-2.8113 8.104-3.0586 11.463-0.38573 5.2401-0.26678 5.6751 1.4131 5.1667 2.9471-0.89188 30.016-7.3302 43.961-10.456 11.246-2.521 54.329-9.4725 69.851-11.271 3.0318-0.35123 5.9154-0.91324 6.4082-1.2489s2.1288-4.1266 3.6356-8.4243c14.444-41.197 40.329-67.884 65.844-67.884h4.3153l-2.573 3.1744c-8.1359 10.038-8.6717 15.707-2.6006 27.516 4.0528 7.8831 4.375 9.0748 4.7459 17.556 0.56342 12.882-2.996 24.347-9.7749 31.486l-2.9044 3.0587 7.4086 1.6482c17.219 3.831 29.507 13.414 38.142 29.746 5.5455 10.49 10.145 14.724 16.046 14.774 5.244 0.0443 2.2644 1.3748-11.275 5.0344-11.125 3.0071-12.312 3.1303-30.139 3.1283-17.383-2e-3 -19.101-0.16896-27.136-2.6369-21.112-6.4848-39.655-20.144-50.874-37.476-1.2146-1.8763-2.8981-3.2172-4.0369-3.2155-2.7488 4e-3 -17.469 6.7068-24.203 11.02-8.6994 5.5726-13.983 10.956-22.232 22.653-29.396 41.685-76.543 80.453-115.22 94.74-4.0291 1.4884-7.6607 3.0042-8.0702 3.3683-0.40952 0.36412 3.4796 5.2498 8.6425 10.857 11.239 12.206 16.154 21.449 21.302 40.053 5.0537 18.266 19.595 47.714 29.811 60.37 12.445 15.418 12.652 16.024 6.7087 19.647-3.4335 2.0934-5.6226 2.2162-15.145 0.84935zm-112.38-162.69c3.738-3.3828 1.1606-8.4676-4.9072-9.6811-6.044-1.2088-11.552 5.9211-7.2592 9.3971 2.5942 2.1007 9.9689 2.2728 12.166 0.28405zm-10.959-1.7589c-1.8029-2.1724 0.56765-4.7098 3.6722-3.9306 1.678 0.42114 2.1453 0.25593 1.6309-0.5765-0.44531-0.72052-0.30614-0.91033 0.36387-0.49624 0.59676 0.36881 0.80974 1.3879 0.47331 2.2646-0.4089 1.0656-0.23284 1.3599 0.53103 0.88782 0.69264-0.42807 1.1427-0.0838 1.1427 0.87417 0 0.86922-0.40917 1.3275-0.90925 1.0185-0.5001-0.30908-1.1853-0.11525-1.5228 0.43073-0.91027 1.4728-3.992 1.2023-5.382-0.47245z" fill="param(fill)" fill-opacity="param(fill-opacity)" stroke="param(outline)" stroke-opacity="param(outline-opacity)" stroke-width="param(outline-width) 0.2"/>
</svg>
