<svg version="1.1" width="512" height="512" viewBox="0 0 512 512" xmlns="http://www.w3.org/2000/svg">
 <path d="m151.98 329.14c0.79015-11.142 1.3209-17.258 14.289-12.336 40.223 3.6029 80.894 4.3514 121.14 0.87537 20.883-1.389 40.305-9.2006 60.109-15.066 32.498-6.2974 67.869-2.8209 97.203-20.85 6.7596-6.2784 13.567 3.0453 20.627 4.0253 8.7733 5.0265 34.514 3.6463 31.678-5.5039-14.372-9.9396-23.466-24.481-34.721-36.443-4.9179-16.381-33.167-1.7542-29.791 11.713 8.9037 10.029-10.999 3.6645-15.971 5.0788-30.421-4.4642-61.01-7.5697-91.772-8.423-44.951-2.886-89.547-11.63-134.76-9.5022-37.414 0.64406-74.851 0.081-112.25 0.46064-19.814 2.8417-39.5 6.8346-59.341 9.3835-2.7938 8.0085-10.369 12.979 0.45802 21.272 28.95 22.298 65.738 31.394 101.23 37.144 14.722-2.3968 16.84 24.765 31.878 18.171zm-65.658-62.489c3.5709-1.6151 11.673 4.2174 1.6235 0.74352zm-9.7783-2.9195c1.6835-1.8125-0.60266 5.514 0 0zm-4.7872-1.4749c1.5671-1.3568-0.8231 8.16 0 0zm-4.7778-0.95555c1.5671-1.3568-0.8231 8.16 0 0zm-1.9111 0c1.5671-1.3568-0.8231 8.16 0 0zm-2.8667 0c1.5671-1.3568-0.8231 8.16 0 0zm-1.9111-0.95556c1.5671-1.3568-0.8231 8.16 0 0zm-22.933 0c1.5671-1.3568-0.8231 8.16 0 0zm-4.7778 0c1.5671-1.3568-0.8231 8.16 0 0zm-1.9076-0.97374c1.489 0.06-0.88196 8.4567 0 0zm24.87 0.47778c1.6577-0.30899-1.0032 6.3849 0 0zm-1.9111 0c1.6577-0.30899-1.0032 6.3849 0 0zm-2.8667 0c1.6577-0.30899-1.0032 6.3849 0 0zm-1.9111 0c1.6577-0.30899-1.0032 6.3849 0 0zm-4.7778 0c1.6577-0.30899-1.0032 6.3849 0 0zm-1.9111 0c1.6577-0.30899-1.0032 6.3849 0 0zm-2.8667 0c1.6577-0.30899-1.0032 6.3849 0 0zm-11.467 0c1.6577-0.30899-1.0032 6.3849 0 0zm-1.9541-1.9c1.4154-1.0022-0.621 10.056 0 0zm-4.7778-1.9111c1.4154-1.0022-0.621 10.056 0 0zm-1.894-0.48892c1.489 0.06-0.88196 8.4568 0 0z" fill="param(fill)" fill-opacity="param(fill-opacity)" stroke="param(outline)" stroke-opacity="param(outline-opacity)" stroke-width="param(outline-width) 0.2"/>
</svg>
