<svg version="1.1" width="512" height="512" viewBox="0 0 512 512" xmlns="http://www.w3.org/2000/svg">
 <path d="m296.37 304.72c-17.889-4.4377-35.661-3.8899-53.172 0.76764-24.193 0.55835-48.09-2.8438-71.791-7.2493-18.204 2.4856-32.833-5.0317-48.266-13.157-23.861-8.0994-47.822-15.928-71.481-24.624-14.159 11.211-29.829-5.1173-36.428-17.365-9.4578-9.6301 17.024-8.7343 8.7581-14.718 30.206-8.6948 62.197-8.2542 93.396-8.8573 18.296 1.3099 35.965 7.6562 54.461 6.3526 33.319 0.11107 66.726 2.238 99.979 0.44146 12.538-1.2121 33.539-18.658 40.487-12.392 7.2224 12.009 32.248 3.0715 46.129 5.4247 12.988-4.1806 38.434-2.649 37.664-20.732 8.9307-18.392 23.113-2.42 31.232 7.2356 4.4911 7.4353 13.797 6.3374 21.108 8.7862 16.929 4.2732 33.857 8.6731 51.224 10.429-23.958 3.1597-48.142-2.7958-72.202-3.0616-20.179-0.57345-32.086 20.072-47.8 29.748-15.168 11.742-32.689 19.815-49.426 28.961-12.02 5.8249-28.613 10.564-38.533 15.638 18.568 4.4237 37.263 4.1296 56.236 4.4868 9.3366 0.45499 22.799 3.804 5.1875 5.1863-18.907 0.76436-37.99 1.708-56.763-1.3002z" fill="param(fill)" fill-opacity="param(fill-opacity)" stroke="param(outline)" stroke-opacity="param(outline-opacity)" stroke-width="param(outline-width) 0.2"/>
</svg>
