<svg version="1.1" width="512" height="512" viewBox="0 0 512 512" xmlns="http://www.w3.org/2000/svg">
 <path d="m137.77 392.1c-23.156-24.005 0.19763-56.601-2.3251-84.509 16.961-9.7223 0.8084-43.455 17.797-54.965 8.3113-19.951 6.2326-36.906-17.912-40.26-35.644-17.465-64.455-51.152-105.75-55.406-19.016-8.4928-35.876-43.428-1.104-39.717 48.012 9.6793 97.998 2.8847 145.23 16.893 35.418 1.9881 70.482 7.8603 104.3 18.649 17.232 0.19953 53.584 3.8779 47.179 22.844 41.384 29.668 80.416 63.672 107.71 107.19 20.963 9.6868 39.911 23.173 56.875 38.985 30.096 14.807-17.615 8.132-27.127-0.0669-27.046-20.2-38.115 13.313-65.345 13.377-29.118 26.322-5.1789-36.754 7.808-44.271-17.385-17.277-50.24-32.982-78.184-32.704-19.133 1.0289-47.956-3.6711-61.775 0.94174 19.405 17.497 36.944 42.47-2.1627 45.684-21.407 1.3179-33.968-24.406-42.004-37.24 2.7768-20.96-39.503-42.689-31.83-9.6798 0.74142 32.474-25.879 57.238-30.179 89.207-8.0098 9.8556-4.8889 49.585-21.213 45.052z" fill="param(fill)" fill-opacity="param(fill-opacity)" stroke="param(outline)" stroke-opacity="param(outline-opacity)" stroke-width="param(outline-width) 0.2"/>
</svg>
