<?xml version="1.0" encoding="UTF-8"?>
<svg version="1.1" width="512" height="512" viewBox="0 0 512 512" xmlns="http://www.w3.org/2000/svg">
  <path d="m9.5126 407.2c1.6707-17.896 20.932-30.379 30.856-45.13 18.973-24.185 38.505-47.906 59.882-70.063 51.313-55.336 107.31-112.05 180.8-136.19 24.543-9.1634 51.159-5.5169 76.085-12.559-1.7763 15.316 27.242 12.451 37.676 23.345 31.936 18.377 55.511 47.651 75.898 77.68 12.663 5.4647 31.518 13.129 33.232 27.924-6.7347-8.6465-25.165-4.3106-24.467 7.4209-5.5441 11.839 14.722 43.366-7.7811 24.429-15.803-13.65-13.593-39.512-28.502-52.395-27.643-4.9501-47.145-31.223-75.798-31.815-28.47-0.6209-54.845 12.181-76.953 29.169-31.481 22.475-61.65 46.735-93.05 69.313-0.47052 7.5906 27.231 9.1436 17.026 18.001-5.7356 13.127-32.034 10.66-46.167 8.7556-7.0947-2.6752-13.045 0.30441-18.75 4.4972-43.336 25.445-88.589 51.547-138.95 58.648z" fill="param(fill)" fill-opacity="param(fill-opacity)" stroke="param(outline)" stroke-opacity="param(outline-opacity)" stroke-width="param(outline-width) 0.2"/>
</svg>
